# MagicaVoxel @ Ephtracy

# group
o 

# material
mtllib praise.mtl
usemtl palette

# normals
vn -1 0 0
vn 1 0 0
vn 0 0 1
vn 0 0 -1
vn 0 -1 0
vn 0 1 0

# texcoords
vt 0.298828 0.5
vt 0.845703 0.5
vt 0.849609 0.5
vt 0.865234 0.5
vt 0.982422 0.5
vt 0.986328 0.5

# verts
v -0.25 -0.65 0.2
v -0.25 -0.65 0.1
v -0.25 -0.65 0
v -0.25 -0.65 -0.2
v -0.25 -0.55 0.2
v -0.25 -0.55 0.1
v -0.25 -0.55 0
v -0.25 -0.55 -0.1
v -0.25 -0.55 -0.2
v -0.25 -0.45 0.1
v -0.25 -0.45 0
v -0.25 -0.45 -0.1
v -0.25 0.25 0.1
v -0.25 0.25 0
v -0.25 0.35 0.1
v -0.25 0.35 0
v -0.15 -0.65 0.3
v -0.15 -0.65 0.2
v -0.15 -0.65 -0.2
v -0.15 -0.65 -0.3
v -0.15 -0.55 0.3
v -0.15 -0.55 0.2
v -0.15 -0.55 0.1
v -0.15 -0.55 -0.1
v -0.15 -0.55 -0.2
v -0.15 -0.55 -0.3
v -0.15 -0.45 0.2
v -0.15 -0.45 0.1
v -0.15 -0.45 -0.1
v -0.15 -0.45 -0.2
v -0.15 -0.35 0.1
v -0.15 -0.35 0
v -0.15 -0.25 0.1
v -0.15 -0.25 0
v -0.15 0.05 0.1
v -0.15 0.05 0
v -0.15 0.15 0.1
v -0.15 0.15 0
v -0.15 0.25 0.2
v -0.15 0.25 0.1
v -0.15 0.25 0
v -0.15 0.25 -0.1
v -0.15 0.35 0.2
v -0.15 0.35 0.1
v -0.15 0.35 0
v -0.15 0.35 -0.1
v -0.05 -0.45 0.2
v -0.05 -0.45 0.1
v -0.05 -0.45 0
v -0.05 -0.35 0.2
v -0.05 -0.35 0.1
v -0.05 -0.35 0
v -0.05 -0.25 0.1
v -0.05 -0.25 0
v -0.05 -0.25 -0.1
v -0.05 -0.15 0
v -0.05 -0.15 -0.1
v -0.05 -0.05 0.2
v -0.05 -0.05 0.1
v -0.05 0.05 0.2
v -0.05 0.05 0.1
v -0.05 0.05 0
v -0.05 0.15 0.1
v -0.05 0.15 0
v -0.05 0.15 -0.1
v -0.05 0.25 0.1
v -0.05 0.25 0
v -0.05 0.25 -0.1
v -0.05 0.35 0.1
v -0.05 0.35 0
v -0.05 0.65 0.1
v -0.05 0.65 0
v 0.05 -0.55 0
v 0.05 -0.55 -0.1
v 0.05 -0.45 0
v 0.05 -0.45 -0.1
v -0.05 -0.65 0.3
v -0.05 -0.65 0.2
v -0.05 -0.55 0.3
v -0.05 -0.55 0.2
v -0.05 -0.55 0.1
v -0.05 -0.55 0
v -0.05 -0.55 -0.1
v -0.05 -0.45 0.2
v -0.05 -0.45 0.1
v -0.05 -0.45 0
v -0.05 -0.45 -0.1
v 0.05 -0.45 0.2
v 0.05 -0.45 0.1
v 0.05 -0.45 0
v 0.05 -0.35 0.2
v 0.05 -0.35 0.1
v 0.05 -0.25 0
v 0.05 -0.25 -0.1
v 0.05 -0.15 0.1
v 0.05 -0.15 0
v 0.05 -0.15 -0.1
v 0.05 -0.05 0.2
v 0.05 -0.05 0.1
v 0.05 -0.05 0
v 0.05 0.05 0.2
v 0.05 0.05 0.1
v 0.05 0.15 0
v 0.05 0.15 -0.1
v 0.05 0.25 0.1
v 0.05 0.25 0
v 0.05 0.25 -0.1
v 0.05 0.35 0.1
v 0.05 0.35 0
v 0.05 0.65 0.1
v 0.05 0.65 0
v 0.15 -0.55 0.1
v 0.15 -0.55 0
v 0.15 -0.55 -0.2
v 0.15 -0.45 0.1
v 0.15 -0.45 0
v 0.15 -0.45 -0.2
v 0.15 -0.15 0.1
v 0.15 -0.15 0
v 0.15 -0.05 0.1
v 0.15 -0.05 0
v 0.15 0.25 0.2
v 0.15 0.25 0.1
v 0.15 0.25 0
v 0.15 0.25 -0.1
v 0.15 0.35 0.2
v 0.15 0.35 0.1
v 0.15 0.35 0
v 0.15 0.35 -0.1
v 0.25 -0.65 0.2
v 0.25 -0.65 -0.2
v 0.25 -0.65 -0.3
v 0.25 -0.55 0.2
v 0.25 -0.55 -0.2
v 0.25 -0.55 -0.3
v 0.25 0.25 0.1
v 0.25 0.25 0
v 0.25 0.35 0.1
v 0.25 0.35 0
v -0.15 -0.65 0.3
v -0.15 -0.55 0.3
v -0.05 -0.65 0.3
v -0.05 -0.55 0.3
v -0.25 -0.65 0.2
v -0.25 -0.55 0.2
v -0.15 -0.65 0.2
v -0.15 -0.55 0.2
v -0.15 -0.45 0.2
v -0.15 0.25 0.2
v -0.15 0.35 0.2
v -0.05 -0.65 0.2
v -0.05 -0.55 0.2
v -0.05 -0.45 0.2
v -0.05 -0.35 0.2
v -0.05 -0.05 0.2
v -0.05 0.05 0.2
v 0.05 -0.65 0.2
v 0.05 -0.55 0.2
v 0.05 -0.45 0.2
v 0.05 -0.35 0.2
v 0.05 -0.05 0.2
v 0.05 0.05 0.2
v 0.15 0.25 0.2
v 0.15 0.35 0.2
v 0.25 -0.65 0.2
v 0.25 -0.55 0.2
v -0.25 -0.55 0.1
v -0.25 -0.45 0.1
v -0.25 0.25 0.1
v -0.25 0.35 0.1
v -0.15 -0.55 0.1
v -0.15 -0.45 0.1
v -0.15 -0.35 0.1
v -0.15 -0.25 0.1
v -0.15 0.05 0.1
v -0.15 0.15 0.1
v -0.15 0.25 0.1
v -0.15 0.35 0.1
v -0.05 -0.55 0.1
v -0.05 -0.45 0.1
v -0.05 -0.35 0.1
v -0.05 -0.25 0.1
v -0.05 -0.05 0.1
v -0.05 0.05 0.1
v -0.05 0.15 0.1
v -0.05 0.25 0.1
v -0.05 0.35 0.1
v -0.05 0.65 0.1
v 0.05 -0.55 0.1
v 0.05 -0.45 0.1
v 0.05 -0.35 0.1
v 0.05 -0.15 0.1
v 0.05 -0.05 0.1
v 0.05 0.05 0.1
v 0.05 0.25 0.1
v 0.05 0.35 0.1
v 0.05 0.65 0.1
v 0.15 -0.55 0.1
v 0.15 -0.45 0.1
v 0.15 -0.15 0.1
v 0.15 -0.05 0.1
v 0.15 0.25 0.1
v 0.15 0.35 0.1
v 0.25 0.25 0.1
v 0.25 0.35 0.1
v -0.05 -0.55 -0.1
v -0.05 -0.45 -0.1
v 0.05 -0.55 -0.1
v 0.05 -0.45 -0.1
v -0.25 0.25 0
v -0.25 0.35 0
v -0.15 -0.35 0
v -0.15 -0.25 0
v -0.15 0.05 0
v -0.15 0.15 0
v -0.15 0.25 0
v -0.15 0.35 0
v -0.05 -0.55 0
v -0.05 -0.45 0
v -0.05 -0.35 0
v -0.05 -0.25 0
v -0.05 -0.15 0
v -0.05 0.05 0
v -0.05 0.15 0
v -0.05 0.35 0
v -0.05 0.65 0
v 0.05 -0.55 0
v 0.05 -0.45 0
v 0.05 -0.25 0
v 0.05 -0.15 0
v 0.05 -0.05 0
v 0.05 0.15 0
v 0.05 0.35 0
v 0.05 0.65 0
v 0.15 -0.15 0
v 0.15 -0.05 0
v 0.15 0.25 0
v 0.15 0.35 0
v 0.25 0.25 0
v 0.25 0.35 0
v -0.25 -0.55 -0.1
v -0.25 -0.45 -0.1
v -0.15 -0.55 -0.1
v -0.15 -0.45 -0.1
v -0.15 0.25 -0.1
v -0.15 0.35 -0.1
v -0.05 -0.25 -0.1
v -0.05 -0.15 -0.1
v -0.05 0.15 -0.1
v -0.05 0.25 -0.1
v 0.05 -0.25 -0.1
v 0.05 -0.15 -0.1
v 0.05 0.15 -0.1
v 0.05 0.25 -0.1
v 0.15 0.25 -0.1
v 0.15 0.35 -0.1
v -0.25 -0.65 -0.2
v -0.25 -0.55 -0.2
v -0.15 -0.65 -0.2
v -0.15 -0.55 -0.2
v -0.15 -0.45 -0.2
v -0.05 -0.55 -0.2
v -0.05 -0.45 -0.2
v 0.15 -0.55 -0.2
v 0.15 -0.45 -0.2
v -0.15 -0.65 -0.3
v -0.15 -0.55 -0.3
v -0.05 -0.65 -0.3
v -0.05 -0.55 -0.3
v 0.15 -0.65 -0.3
v 0.15 -0.55 -0.3
v 0.25 -0.65 -0.3
v 0.25 -0.55 -0.3
v -0.15 -0.65 0.3
v -0.05 -0.65 0.3
v -0.25 -0.65 0.2
v -0.15 -0.65 0.2
v -0.05 -0.65 0.2
v 0.05 -0.65 0.2
v 0.25 -0.65 0.2
v -0.25 -0.65 0.1
v -0.15 -0.65 0.1
v -0.05 -0.65 0.1
v 0.05 -0.65 0.1
v 0.15 -0.65 0.1
v -0.25 -0.65 0
v -0.15 -0.65 0
v 0.05 -0.65 0
v 0.15 -0.65 0
v -0.05 -0.65 -0.1
v 0.05 -0.65 -0.1
v 0.15 -0.65 -0.1
v -0.25 -0.65 -0.2
v -0.15 -0.65 -0.2
v -0.05 -0.65 -0.2
v 0.05 -0.65 -0.2
v 0.15 -0.65 -0.2
v 0.25 -0.65 -0.2
v -0.15 -0.65 -0.3
v -0.05 -0.65 -0.3
v 0.15 -0.65 -0.3
v 0.25 -0.65 -0.3
v -0.05 -0.45 0.2
v 0.05 -0.45 0.2
v -0.05 -0.45 0.1
v 0.05 -0.45 0.1
v -0.15 -0.35 0.1
v -0.05 -0.35 0.1
v -0.15 -0.35 0
v -0.05 -0.35 0
v -0.05 -0.25 0
v 0.05 -0.25 0
v -0.05 -0.25 -0.1
v 0.05 -0.25 -0.1
v 0.05 -0.15 0.1
v 0.15 -0.15 0.1
v 0.05 -0.15 0
v 0.15 -0.15 0
v -0.05 -0.05 0.2
v 0.05 -0.05 0.2
v -0.05 -0.05 0.1
v 0.05 -0.05 0.1
v -0.15 0.05 0.1
v -0.05 0.05 0.1
v -0.15 0.05 0
v -0.05 0.05 0
v -0.05 0.15 0
v 0.05 0.15 0
v -0.05 0.15 -0.1
v 0.05 0.15 -0.1
v -0.15 0.25 0.2
v 0.15 0.25 0.2
v -0.25 0.25 0.1
v -0.15 0.25 0.1
v -0.05 0.25 0.1
v 0.05 0.25 0.1
v 0.15 0.25 0.1
v 0.25 0.25 0.1
v -0.25 0.25 0
v -0.15 0.25 0
v -0.05 0.25 0
v 0.05 0.25 0
v 0.15 0.25 0
v 0.25 0.25 0
v -0.15 0.25 -0.1
v -0.05 0.25 -0.1
v 0.05 0.25 -0.1
v 0.15 0.25 -0.1
v -0.15 -0.55 0.3
v -0.05 -0.55 0.3
v -0.25 -0.55 0.2
v -0.15 -0.55 0.2
v -0.05 -0.55 0.2
v 0.05 -0.55 0.2
v 0.25 -0.55 0.2
v -0.25 -0.55 0.1
v -0.15 -0.55 0.1
v -0.05 -0.55 0.1
v 0.05 -0.55 0.1
v 0.15 -0.55 0.1
v -0.05 -0.55 0
v 0.05 -0.55 0
v 0.15 -0.55 0
v -0.25 -0.55 -0.1
v -0.15 -0.55 -0.1
v -0.05 -0.55 -0.1
v 0.05 -0.55 -0.1
v -0.25 -0.55 -0.2
v -0.15 -0.55 -0.2
v -0.05 -0.55 -0.2
v 0.15 -0.55 -0.2
v 0.25 -0.55 -0.2
v -0.15 -0.55 -0.3
v -0.05 -0.55 -0.3
v 0.15 -0.55 -0.3
v 0.25 -0.55 -0.3
v -0.15 -0.45 0.2
v -0.05 -0.45 0.2
v -0.25 -0.45 0.1
v -0.15 -0.45 0.1
v -0.05 -0.45 0.1
v 0.05 -0.45 0.1
v 0.15 -0.45 0.1
v -0.25 -0.45 0
v -0.05 -0.45 0
v 0.05 -0.45 0
v 0.15 -0.45 0
v -0.25 -0.45 -0.1
v -0.15 -0.45 -0.1
v -0.05 -0.45 -0.1
v 0.05 -0.45 -0.1
v -0.15 -0.45 -0.2
v -0.05 -0.45 -0.2
v 0.15 -0.45 -0.2
v -0.05 -0.35 0.2
v 0.05 -0.35 0.2
v -0.05 -0.35 0.1
v 0.05 -0.35 0.1
v -0.15 -0.25 0.1
v -0.05 -0.25 0.1
v -0.15 -0.25 0
v -0.05 -0.25 0
v -0.05 -0.15 0
v 0.05 -0.15 0
v -0.05 -0.15 -0.1
v 0.05 -0.15 -0.1
v 0.05 -0.05 0.1
v 0.15 -0.05 0.1
v 0.05 -0.05 0
v 0.15 -0.05 0
v -0.05 0.05 0.2
v 0.05 0.05 0.2
v -0.05 0.05 0.1
v 0.05 0.05 0.1
v -0.15 0.15 0.1
v -0.05 0.15 0.1
v -0.15 0.15 0
v -0.05 0.15 0
v -0.15 0.35 0.2
v 0.15 0.35 0.2
v -0.25 0.35 0.1
v -0.15 0.35 0.1
v -0.05 0.35 0.1
v 0.05 0.35 0.1
v 0.15 0.35 0.1
v 0.25 0.35 0.1
v -0.25 0.35 0
v -0.15 0.35 0
v -0.05 0.35 0
v 0.05 0.35 0
v 0.15 0.35 0
v 0.25 0.35 0
v -0.15 0.35 -0.1
v 0.15 0.35 -0.1
v -0.05 0.65 0.1
v 0.05 0.65 0.1
v -0.05 0.65 0
v 0.05 0.65 0

# faces
f 5/4/1 2/4/1 1/4/1
f 6/2/1 3/2/1 2/2/1
f 6/4/1 2/4/1 5/4/1
f 7/1/1 4/1/1 3/1/1
f 7/2/1 3/2/1 6/2/1
f 8/1/1 4/1/1 7/1/1
f 9/1/1 4/1/1 8/1/1
f 10/6/1 7/6/1 6/6/1
f 11/4/1 8/4/1 7/4/1
f 11/6/1 7/6/1 10/6/1
f 12/4/1 8/4/1 11/4/1
f 15/6/1 14/6/1 13/6/1
f 16/6/1 14/6/1 15/6/1
f 21/6/1 18/6/1 17/6/1
f 22/6/1 18/6/1 21/6/1
f 25/2/1 20/2/1 19/2/1
f 26/2/1 20/2/1 25/2/1
f 27/4/1 23/4/1 22/4/1
f 28/4/1 23/4/1 27/4/1
f 29/6/1 25/6/1 24/6/1
f 30/6/1 25/6/1 29/6/1
f 33/5/1 32/5/1 31/5/1
f 34/5/1 32/5/1 33/5/1
f 37/5/1 36/5/1 35/5/1
f 38/5/1 36/5/1 37/5/1
f 43/6/1 40/6/1 39/6/1
f 44/6/1 40/6/1 43/6/1
f 45/6/1 42/6/1 41/6/1
f 46/6/1 42/6/1 45/6/1
f 50/5/1 48/5/1 47/5/1
f 51/6/1 49/6/1 48/6/1
f 51/5/1 48/5/1 50/5/1
f 52/6/1 49/6/1 51/6/1
f 56/6/1 54/6/1 53/6/1
f 56/5/1 55/5/1 54/5/1
f 57/5/1 55/5/1 56/5/1
f 59/6/1 56/6/1 53/6/1
f 60/5/1 59/5/1 58/5/1
f 61/6/1 56/6/1 59/6/1
f 61/5/1 59/5/1 60/5/1
f 62/6/1 56/6/1 61/6/1
f 66/6/1 64/6/1 63/6/1
f 67/5/1 65/5/1 64/5/1
f 67/6/1 64/6/1 66/6/1
f 68/5/1 65/5/1 67/5/1
f 71/6/1 70/6/1 69/6/1
f 72/6/1 70/6/1 71/6/1
f 75/4/1 74/4/1 73/4/1
f 76/4/1 74/4/1 75/4/1
f 77/6/2 78/6/2 79/6/2
f 79/6/2 78/6/2 80/6/2
f 80/4/2 81/4/2 84/4/2
f 84/4/2 81/4/2 85/4/2
f 82/4/2 83/4/2 86/4/2
f 86/4/2 83/4/2 87/4/2
f 88/5/2 89/5/2 91/5/2
f 89/6/2 90/6/2 92/6/2
f 91/5/2 89/5/2 92/5/2
f 92/6/2 90/6/2 93/6/2
f 92/6/2 93/6/2 95/6/2
f 93/5/2 94/5/2 96/5/2
f 95/6/2 93/6/2 96/6/2
f 96/5/2 94/5/2 97/5/2
f 98/5/2 99/5/2 101/5/2
f 99/6/2 100/6/2 102/6/2
f 101/5/2 99/5/2 102/5/2
f 102/6/2 100/6/2 103/6/2
f 102/6/2 103/6/2 105/6/2
f 103/5/2 104/5/2 106/5/2
f 105/6/2 103/6/2 106/6/2
f 106/5/2 104/5/2 107/5/2
f 108/6/2 109/6/2 110/6/2
f 110/6/2 109/6/2 111/6/2
f 112/6/2 113/6/2 115/6/2
f 113/4/2 114/4/2 116/4/2
f 115/6/2 113/6/2 116/6/2
f 116/4/2 114/4/2 117/4/2
f 118/5/2 119/5/2 120/5/2
f 120/5/2 119/5/2 121/5/2
f 122/6/2 123/6/2 126/6/2
f 126/6/2 123/6/2 127/6/2
f 124/6/2 125/6/2 128/6/2
f 128/6/2 125/6/2 129/6/2
f 130/6/2 131/6/2 133/6/2
f 131/4/2 132/4/2 134/4/2
f 133/6/2 131/6/2 134/6/2
f 134/4/2 132/4/2 135/4/2
f 136/6/2 137/6/2 138/6/2
f 138/6/2 137/6/2 139/6/2
f 142/6/3 141/6/3 140/6/3
f 143/6/3 141/6/3 142/6/3
f 146/4/3 145/4/3 144/4/3
f 147/4/3 145/4/3 146/4/3
f 152/4/3 148/4/3 147/4/3
f 153/4/3 148/4/3 152/4/3
f 157/3/3 152/3/3 151/3/3
f 158/3/3 152/3/3 157/3/3
f 159/5/3 154/5/3 153/5/3
f 160/5/3 154/5/3 159/5/3
f 161/5/3 156/5/3 155/5/3
f 162/5/3 156/5/3 161/5/3
f 163/6/3 150/6/3 149/6/3
f 164/6/3 150/6/3 163/6/3
f 165/6/3 158/6/3 157/6/3
f 166/6/3 158/6/3 165/6/3
f 171/6/3 168/6/3 167/6/3
f 172/6/3 168/6/3 171/6/3
f 177/6/3 170/6/3 169/6/3
f 178/6/3 170/6/3 177/6/3
f 181/5/3 174/5/3 173/5/3
f 182/5/3 174/5/3 181/5/3
f 184/5/3 176/5/3 175/5/3
f 185/5/3 176/5/3 184/5/3
f 189/6/3 180/6/3 179/6/3
f 190/6/3 180/6/3 189/6/3
f 191/6/3 183/6/3 182/6/3
f 191/6/3 182/6/3 181/6/3
f 192/6/3 183/6/3 191/6/3
f 193/6/3 183/6/3 192/6/3
f 194/6/3 186/6/3 185/6/3
f 194/6/3 185/6/3 184/6/3
f 195/6/3 186/6/3 194/6/3
f 196/6/3 188/6/3 187/6/3
f 197/6/3 188/6/3 196/6/3
f 198/6/3 190/6/3 189/6/3
f 199/6/3 190/6/3 198/6/3
f 200/5/3 193/5/3 192/5/3
f 201/5/3 193/5/3 200/5/3
f 204/6/3 203/6/3 202/6/3
f 205/6/3 203/6/3 204/6/3
f 208/4/3 207/4/3 206/4/3
f 209/4/3 207/4/3 208/4/3
f 210/6/4 211/6/4 216/6/4
f 216/6/4 211/6/4 217/6/4
f 212/5/4 213/5/4 220/5/4
f 220/5/4 213/5/4 221/5/4
f 214/5/4 215/5/4 223/5/4
f 223/5/4 215/5/4 224/5/4
f 220/6/4 221/6/4 227/6/4
f 218/6/4 219/6/4 227/6/4
f 219/6/4 220/6/4 227/6/4
f 227/6/4 221/6/4 228/6/4
f 228/6/4 221/6/4 229/6/4
f 222/6/4 223/6/4 230/6/4
f 223/6/4 224/6/4 230/6/4
f 230/6/4 224/6/4 231/6/4
f 231/6/4 224/6/4 232/6/4
f 225/6/4 226/6/4 233/6/4
f 233/6/4 226/6/4 234/6/4
f 230/5/4 231/5/4 235/5/4
f 235/5/4 231/5/4 236/5/4
f 237/6/4 238/6/4 239/6/4
f 239/6/4 238/6/4 240/6/4
f 241/4/4 242/4/4 243/4/4
f 243/4/4 242/4/4 244/4/4
f 245/6/4 246/6/4 250/6/4
f 247/5/4 248/5/4 251/5/4
f 251/5/4 248/5/4 252/5/4
f 249/5/4 250/5/4 253/5/4
f 250/6/4 246/6/4 254/6/4
f 253/5/4 250/5/4 254/5/4
f 254/6/4 246/6/4 255/6/4
f 255/6/4 246/6/4 256/6/4
f 257/1/4 258/1/4 259/1/4
f 259/1/4 258/1/4 260/1/4
f 260/6/4 261/6/4 262/6/4
f 262/6/4 261/6/4 263/6/4
f 262/4/4 263/4/4 264/4/4
f 264/4/4 263/4/4 265/4/4
f 266/2/4 267/2/4 268/2/4
f 268/2/4 267/2/4 269/2/4
f 268/6/4 269/6/4 270/6/4
f 270/6/4 269/6/4 271/6/4
f 270/4/4 271/4/4 272/4/4
f 272/4/4 271/4/4 273/4/4
f 277/6/5 275/6/5 274/6/5
f 278/6/5 275/6/5 277/6/5
f 281/4/5 277/4/5 276/4/5
f 282/1/5 278/1/5 277/1/5
f 282/4/5 277/4/5 281/4/5
f 283/3/5 279/3/5 278/3/5
f 283/1/5 278/1/5 282/1/5
f 284/6/5 280/6/5 279/6/5
f 284/3/5 279/3/5 283/3/5
f 285/6/5 280/6/5 284/6/5
f 286/2/5 282/2/5 281/2/5
f 287/1/5 283/1/5 282/1/5
f 287/2/5 282/2/5 286/2/5
f 287/1/5 284/1/5 283/1/5
f 288/4/5 285/4/5 284/4/5
f 288/1/5 284/1/5 287/1/5
f 289/6/5 280/6/5 285/6/5
f 289/4/5 285/4/5 288/4/5
f 290/2/5 288/2/5 287/2/5
f 291/1/5 289/1/5 288/1/5
f 291/2/5 288/2/5 290/2/5
f 292/6/5 280/6/5 289/6/5
f 292/1/5 289/1/5 291/1/5
f 293/1/5 287/1/5 286/1/5
f 294/2/5 290/2/5 287/2/5
f 294/1/5 287/1/5 293/1/5
f 295/1/5 291/1/5 290/1/5
f 295/2/5 290/2/5 294/2/5
f 296/2/5 292/2/5 291/2/5
f 296/1/5 291/1/5 295/1/5
f 297/6/5 280/6/5 292/6/5
f 297/2/5 292/2/5 296/2/5
f 298/6/5 280/6/5 297/6/5
f 299/2/5 295/2/5 294/2/5
f 300/6/5 296/6/5 295/6/5
f 300/2/5 295/2/5 299/2/5
f 300/6/5 297/6/5 296/6/5
f 301/4/5 298/4/5 297/4/5
f 301/6/5 297/6/5 300/6/5
f 302/4/5 298/4/5 301/4/5
f 305/5/5 304/5/5 303/5/5
f 306/5/5 304/5/5 305/5/5
f 309/5/5 308/5/5 307/5/5
f 310/5/5 308/5/5 309/5/5
f 313/5/5 312/5/5 311/5/5
f 314/5/5 312/5/5 313/5/5
f 317/5/5 316/5/5 315/5/5
f 318/5/5 316/5/5 317/5/5
f 321/5/5 320/5/5 319/5/5
f 322/5/5 320/5/5 321/5/5
f 325/5/5 324/5/5 323/5/5
f 326/5/5 324/5/5 325/5/5
f 329/5/5 328/5/5 327/5/5
f 330/5/5 328/5/5 329/5/5
f 334/6/5 332/6/5 331/6/5
f 335/6/5 332/6/5 334/6/5
f 336/6/5 332/6/5 335/6/5
f 337/6/5 332/6/5 336/6/5
f 339/6/5 334/6/5 333/6/5
f 339/6/5 335/6/5 334/6/5
f 340/6/5 335/6/5 339/6/5
f 341/6/5 335/6/5 340/6/5
f 342/6/5 338/6/5 337/6/5
f 342/6/5 337/6/5 336/6/5
f 343/6/5 338/6/5 342/6/5
f 344/6/5 338/6/5 343/6/5
f 345/6/5 341/6/5 340/6/5
f 346/6/5 341/6/5 345/6/5
f 347/6/5 343/6/5 342/6/5
f 348/6/5 343/6/5 347/6/5
f 349/6/6 350/6/6 352/6/6
f 352/6/6 350/6/6 353/6/6
f 351/4/6 352/4/6 356/4/6
f 356/4/6 352/4/6 357/4/6
f 353/3/6 354/3/6 358/3/6
f 354/6/6 355/6/6 359/6/6
f 358/3/6 354/3/6 359/3/6
f 359/6/6 355/6/6 360/6/6
f 360/6/6 355/6/6 363/6/6
f 361/2/6 362/2/6 366/2/6
f 366/2/6 362/2/6 367/2/6
f 364/1/6 365/1/6 368/1/6
f 368/1/6 365/1/6 369/1/6
f 363/6/6 355/6/6 371/6/6
f 371/6/6 355/6/6 372/6/6
f 369/2/6 370/2/6 373/2/6
f 370/6/6 371/6/6 374/6/6
f 373/2/6 370/2/6 374/2/6
f 371/4/6 372/4/6 375/4/6
f 374/6/6 371/6/6 375/6/6
f 375/4/6 372/4/6 376/4/6
f 377/4/6 378/4/6 380/4/6
f 380/4/6 378/4/6 381/4/6
f 379/6/6 380/6/6 384/6/6
f 380/6/6 381/6/6 384/6/6
f 384/6/6 381/6/6 385/6/6
f 382/6/6 383/6/6 386/6/6
f 386/6/6 383/6/6 387/6/6
f 384/4/6 385/4/6 388/4/6
f 388/4/6 385/4/6 389/4/6
f 389/4/6 385/4/6 390/4/6
f 386/4/6 387/4/6 391/4/6
f 389/6/6 390/6/6 392/6/6
f 390/4/6 391/4/6 393/4/6
f 392/6/6 390/6/6 393/6/6
f 391/4/6 387/4/6 394/4/6
f 393/4/6 391/4/6 394/4/6
f 395/5/6 396/5/6 397/5/6
f 397/5/6 396/5/6 398/5/6
f 399/5/6 400/5/6 401/5/6
f 401/5/6 400/5/6 402/5/6
f 403/5/6 404/5/6 405/5/6
f 405/5/6 404/5/6 406/5/6
f 407/5/6 408/5/6 409/5/6
f 409/5/6 408/5/6 410/5/6
f 411/5/6 412/5/6 413/5/6
f 413/5/6 412/5/6 414/5/6
f 415/5/6 416/5/6 417/5/6
f 417/5/6 416/5/6 418/5/6
f 419/6/6 420/6/6 422/6/6
f 422/6/6 420/6/6 423/6/6
f 423/6/6 420/6/6 424/6/6
f 424/6/6 420/6/6 425/6/6
f 421/6/6 422/6/6 427/6/6
f 422/6/6 423/6/6 427/6/6
f 427/6/6 423/6/6 428/6/6
f 428/6/6 423/6/6 429/6/6
f 425/6/6 426/6/6 430/6/6
f 424/6/6 425/6/6 430/6/6
f 430/6/6 426/6/6 431/6/6
f 431/6/6 426/6/6 432/6/6
f 428/6/6 429/6/6 433/6/6
f 430/6/6 431/6/6 433/6/6
f 429/6/6 430/6/6 433/6/6
f 433/6/6 431/6/6 434/6/6
f 435/6/6 436/6/6 437/6/6
f 437/6/6 436/6/6 438/6/6
