# MagicaVoxel @ Ephtracy

# group
o 

# material
mtllib stuntScroll.mtl
usemtl palette

# normals
vn -1 0 0
vn 1 0 0
vn 0 0 1
vn 0 0 -1
vn 0 -1 0
vn 0 1 0

# texcoords
vt 0.181641 0.5
vt 0.208984 0.5

# verts
v -0.8 -1.05 0.1
v -0.8 -1.05 -0.1
v -0.8 -0.95 0.2
v -0.8 -0.95 0.1
v -0.8 -0.95 -0.1
v -0.8 -0.95 -0.2
v -0.8 -0.75 0.2
v -0.8 -0.75 0.1
v -0.8 -0.75 -0.1
v -0.8 -0.75 -0.2
v -0.8 -0.65 0.1
v -0.8 -0.65 -0.1
v -0.8 0.65 0.1
v -0.8 0.65 -0.1
v -0.8 0.75 0.2
v -0.8 0.75 0.1
v -0.8 0.75 -0.1
v -0.8 0.75 -0.2
v -0.8 0.95 0.2
v -0.8 0.95 0.1
v -0.8 0.95 -0.1
v -0.8 0.95 -0.2
v -0.8 1.05 0.1
v -0.8 1.05 -0.1
v -0.7 -0.65 0
v -0.7 -0.65 -0.1
v -0.7 0.65 0
v -0.7 0.65 -0.1
v 0.6 0.75 -0.1
v 0.6 0.75 -0.2
v 0.6 0.95 0.1
v 0.6 0.95 -0.1
v 0.6 0.95 -0.2
v 0.6 1.05 0.1
v 0.6 1.05 -0.1
v 0.7 -1.05 0.1
v 0.7 -1.05 -0.1
v 0.7 -0.95 0.2
v 0.7 -0.95 0.1
v 0.7 -0.95 -0.1
v 0.7 -0.95 -0.2
v 0.7 -0.75 0.2
v 0.7 -0.75 0.1
v 0.7 -0.75 0
v 0.7 -0.75 -0.1
v 0.7 -0.75 -0.2
v 0.7 -0.65 0.1
v 0.7 -0.65 0
v 0.7 0.65 0.1
v 0.7 0.65 0
v 0.7 0.75 0.2
v 0.7 0.75 0.1
v 0.7 0.75 0
v 0.7 0.95 0.2
v 0.7 0.95 0.1
v -0.7 -1.05 0.1
v -0.7 -1.05 -0.1
v -0.7 -0.95 0.2
v -0.7 -0.95 0.1
v -0.7 -0.95 -0.1
v -0.7 -0.95 -0.2
v -0.7 -0.75 0.2
v -0.7 -0.75 0.1
v -0.7 -0.75 0
v -0.7 -0.75 -0.1
v -0.7 -0.75 -0.2
v -0.7 -0.65 0.1
v -0.7 -0.65 0
v -0.7 0.65 0.1
v -0.7 0.65 0
v -0.7 0.75 0.2
v -0.7 0.75 0.1
v -0.7 0.75 0
v -0.7 0.95 0.2
v -0.7 0.95 0.1
v -0.6 0.75 -0.1
v -0.6 0.75 -0.2
v -0.6 0.95 0.1
v -0.6 0.95 -0.1
v -0.6 0.95 -0.2
v -0.6 1.05 0.1
v -0.6 1.05 -0.1
v 0.7 -0.65 0
v 0.7 -0.65 -0.1
v 0.7 0.65 0
v 0.7 0.65 -0.1
v 0.8 -1.05 0.1
v 0.8 -1.05 -0.1
v 0.8 -0.95 0.2
v 0.8 -0.95 0.1
v 0.8 -0.95 -0.1
v 0.8 -0.95 -0.2
v 0.8 -0.75 0.2
v 0.8 -0.75 0.1
v 0.8 -0.75 -0.1
v 0.8 -0.75 -0.2
v 0.8 -0.65 0.1
v 0.8 -0.65 -0.1
v 0.8 0.65 0.1
v 0.8 0.65 -0.1
v 0.8 0.75 0.2
v 0.8 0.75 0.1
v 0.8 0.75 -0.1
v 0.8 0.75 -0.2
v 0.8 0.95 0.2
v 0.8 0.95 0.1
v 0.8 0.95 -0.1
v 0.8 0.95 -0.2
v 0.8 1.05 0.1
v 0.8 1.05 -0.1
v -0.8 -0.95 0.2
v -0.8 -0.75 0.2
v -0.8 0.75 0.2
v -0.8 0.95 0.2
v -0.7 -0.95 0.2
v -0.7 -0.75 0.2
v -0.7 0.75 0.2
v -0.7 0.95 0.2
v 0.7 -0.95 0.2
v 0.7 -0.75 0.2
v 0.7 0.75 0.2
v 0.7 0.95 0.2
v 0.8 -0.95 0.2
v 0.8 -0.75 0.2
v 0.8 0.75 0.2
v 0.8 0.95 0.2
v -0.8 -1.05 0.1
v -0.8 -0.95 0.1
v -0.8 -0.75 0.1
v -0.8 -0.65 0.1
v -0.8 0.65 0.1
v -0.8 0.75 0.1
v -0.8 0.95 0.1
v -0.8 1.05 0.1
v -0.7 -1.05 0.1
v -0.7 -0.95 0.1
v -0.7 -0.75 0.1
v -0.7 -0.65 0.1
v -0.7 0.65 0.1
v -0.7 0.75 0.1
v -0.7 0.95 0.1
v -0.6 0.95 0.1
v -0.6 1.05 0.1
v 0.6 0.95 0.1
v 0.6 1.05 0.1
v 0.7 -1.05 0.1
v 0.7 -0.95 0.1
v 0.7 -0.75 0.1
v 0.7 -0.65 0.1
v 0.7 0.65 0.1
v 0.7 0.75 0.1
v 0.7 0.95 0.1
v 0.8 -1.05 0.1
v 0.8 -0.95 0.1
v 0.8 -0.75 0.1
v 0.8 -0.65 0.1
v 0.8 0.65 0.1
v 0.8 0.75 0.1
v 0.8 0.95 0.1
v 0.8 1.05 0.1
v -0.7 -0.75 0
v -0.7 -0.65 0
v -0.7 0.65 0
v -0.7 0.75 0
v -0.6 -0.65 0
v -0.6 -0.55 0
v -0.6 -0.45 0
v -0.6 -0.35 0
v -0.6 -0.25 0
v -0.6 -0.15 0
v -0.6 -0.05 0
v -0.6 0.0500001 0
v -0.6 0.15 0
v -0.6 0.25 0
v -0.6 0.35 0
v -0.6 0.45 0
v -0.6 0.55 0
v -0.6 0.65 0
v -0.5 -0.05 0
v -0.5 0.0500001 0
v -0.4 -0.65 0
v -0.4 -0.55 0
v -0.4 -0.05 0
v -0.4 0.0500001 0
v -0.4 0.15 0
v -0.4 0.25 0
v -0.3 -0.65 0
v -0.3 -0.55 0
v -0.3 -0.45 0
v -0.3 -0.35 0
v -0.3 0.15 0
v -0.3 0.25 0
v -0.2 -0.65 0
v -0.2 -0.55 0
v -0.2 -0.45 0
v -0.2 -0.35 0
v -0.2 -0.25 0
v -0.2 -0.15 0
v -0.2 0.55 0
v -0.2 0.65 0
v -0.1 -0.65 0
v -0.1 -0.55 0
v -0.1 -0.25 0
v -0.1 -0.15 0
v 0 0.15 0
v 0 0.25 0
v 0.1 -0.05 0
v 0.1 0.0500001 0
v 0.1 0.15 0
v 0.1 0.25 0
v 0.2 -0.65 0
v 0.2 -0.55 0
v 0.2 -0.45 0
v 0.2 -0.35 0
v 0.2 -0.05 0
v 0.2 0.0500001 0
v 0.2 0.15 0
v 0.2 0.25 0
v 0.3 -0.65 0
v 0.3 -0.55 0
v 0.3 -0.45 0
v 0.3 -0.35 0
v 0.3 0.15 0
v 0.3 0.25 0
v 0.4 -0.25 0
v 0.4 -0.15 0
v 0.4 0.55 0
v 0.4 0.65 0
v 0.5 -0.25 0
v 0.5 -0.15 0
v 0.5 -0.05 0
v 0.5 0.0500001 0
v 0.6 -0.65 0
v 0.6 -0.55 0
v 0.6 -0.45 0
v 0.6 -0.35 0
v 0.6 -0.25 0
v 0.6 -0.15 0
v 0.6 0.15 0
v 0.6 0.25 0
v 0.6 0.35 0
v 0.6 0.45 0
v 0.6 0.55 0
v 0.6 0.65 0
v 0.7 -0.75 0
v 0.7 -0.65 0
v 0.7 0.65 0
v 0.7 0.75 0
v -0.8 -1.05 -0.1
v -0.8 -0.95 -0.1
v -0.8 -0.75 -0.1
v -0.8 -0.65 -0.1
v -0.8 0.65 -0.1
v -0.8 0.75 -0.1
v -0.8 0.95 -0.1
v -0.8 1.05 -0.1
v -0.7 -1.05 -0.1
v -0.7 -0.95 -0.1
v -0.7 -0.75 -0.1
v -0.7 -0.65 -0.1
v -0.7 0.65 -0.1
v -0.7 0.75 -0.1
v -0.6 -0.65 -0.1
v -0.6 -0.55 -0.1
v -0.6 -0.45 -0.1
v -0.6 -0.35 -0.1
v -0.6 -0.25 -0.1
v -0.6 -0.15 -0.1
v -0.6 -0.05 -0.1
v -0.6 0.0500001 -0.1
v -0.6 0.15 -0.1
v -0.6 0.25 -0.1
v -0.6 0.35 -0.1
v -0.6 0.45 -0.1
v -0.6 0.55 -0.1
v -0.6 0.65 -0.1
v -0.6 0.75 -0.1
v -0.6 0.95 -0.1
v -0.6 1.05 -0.1
v -0.5 -0.05 -0.1
v -0.5 0.0500001 -0.1
v -0.4 -0.65 -0.1
v -0.4 -0.55 -0.1
v -0.4 -0.05 -0.1
v -0.4 0.0500001 -0.1
v -0.4 0.15 -0.1
v -0.4 0.25 -0.1
v -0.3 -0.65 -0.1
v -0.3 -0.55 -0.1
v -0.3 -0.45 -0.1
v -0.3 -0.35 -0.1
v -0.3 0.15 -0.1
v -0.3 0.25 -0.1
v -0.2 -0.65 -0.1
v -0.2 -0.55 -0.1
v -0.2 -0.45 -0.1
v -0.2 -0.35 -0.1
v -0.2 -0.25 -0.1
v -0.2 -0.15 -0.1
v -0.2 0.55 -0.1
v -0.2 0.65 -0.1
v -0.1 -0.65 -0.1
v -0.1 -0.55 -0.1
v -0.1 -0.25 -0.1
v -0.1 -0.15 -0.1
v 0 0.15 -0.1
v 0 0.25 -0.1
v 0.1 -0.05 -0.1
v 0.1 0.0500001 -0.1
v 0.1 0.15 -0.1
v 0.1 0.25 -0.1
v 0.2 -0.65 -0.1
v 0.2 -0.55 -0.1
v 0.2 -0.45 -0.1
v 0.2 -0.35 -0.1
v 0.2 -0.05 -0.1
v 0.2 0.0500001 -0.1
v 0.2 0.15 -0.1
v 0.2 0.25 -0.1
v 0.3 -0.65 -0.1
v 0.3 -0.55 -0.1
v 0.3 -0.45 -0.1
v 0.3 -0.35 -0.1
v 0.3 0.15 -0.1
v 0.3 0.25 -0.1
v 0.4 -0.25 -0.1
v 0.4 -0.15 -0.1
v 0.4 0.55 -0.1
v 0.4 0.65 -0.1
v 0.5 -0.25 -0.1
v 0.5 -0.15 -0.1
v 0.5 -0.05 -0.1
v 0.5 0.0500001 -0.1
v 0.6 -0.65 -0.1
v 0.6 -0.55 -0.1
v 0.6 -0.45 -0.1
v 0.6 -0.35 -0.1
v 0.6 -0.25 -0.1
v 0.6 -0.15 -0.1
v 0.6 0.15 -0.1
v 0.6 0.25 -0.1
v 0.6 0.35 -0.1
v 0.6 0.45 -0.1
v 0.6 0.55 -0.1
v 0.6 0.65 -0.1
v 0.6 0.75 -0.1
v 0.6 0.95 -0.1
v 0.6 1.05 -0.1
v 0.7 -1.05 -0.1
v 0.7 -0.95 -0.1
v 0.7 -0.75 -0.1
v 0.7 -0.65 -0.1
v 0.7 0.65 -0.1
v 0.7 0.75 -0.1
v 0.8 -1.05 -0.1
v 0.8 -0.95 -0.1
v 0.8 -0.75 -0.1
v 0.8 -0.65 -0.1
v 0.8 0.65 -0.1
v 0.8 0.75 -0.1
v 0.8 0.95 -0.1
v 0.8 1.05 -0.1
v -0.8 -0.95 -0.2
v -0.8 -0.75 -0.2
v -0.8 0.75 -0.2
v -0.8 0.95 -0.2
v -0.7 -0.95 -0.2
v -0.7 -0.75 -0.2
v -0.6 0.75 -0.2
v -0.6 0.95 -0.2
v 0.6 0.75 -0.2
v 0.6 0.95 -0.2
v 0.7 -0.95 -0.2
v 0.7 -0.75 -0.2
v 0.8 -0.95 -0.2
v 0.8 -0.75 -0.2
v 0.8 0.75 -0.2
v 0.8 0.95 -0.2
v -0.8 -1.05 0.1
v -0.7 -1.05 0.1
v 0.7 -1.05 0.1
v 0.8 -1.05 0.1
v -0.8 -1.05 -0.1
v -0.7 -1.05 -0.1
v 0.7 -1.05 -0.1
v 0.8 -1.05 -0.1
v -0.8 -0.95 0.2
v -0.7 -0.95 0.2
v 0.7 -0.95 0.2
v 0.8 -0.95 0.2
v -0.8 -0.95 0.1
v -0.7 -0.95 0.1
v 0.7 -0.95 0.1
v 0.8 -0.95 0.1
v -0.8 -0.95 -0.1
v -0.7 -0.95 -0.1
v 0.7 -0.95 -0.1
v 0.8 -0.95 -0.1
v -0.8 -0.95 -0.2
v -0.7 -0.95 -0.2
v 0.7 -0.95 -0.2
v 0.8 -0.95 -0.2
v -0.8 0.65 0.1
v -0.7 0.65 0.1
v 0.7 0.65 0.1
v 0.8 0.65 0.1
v -0.7 0.65 0
v 0.7 0.65 0
v -0.8 0.65 -0.1
v -0.7 0.65 -0.1
v 0.7 0.65 -0.1
v 0.8 0.65 -0.1
v -0.8 0.75 0.2
v -0.7 0.75 0.2
v 0.7 0.75 0.2
v 0.8 0.75 0.2
v -0.8 0.75 0.1
v -0.7 0.75 0.1
v 0.7 0.75 0.1
v 0.8 0.75 0.1
v -0.7 0.75 0
v 0.7 0.75 0
v -0.8 0.75 -0.1
v -0.7 0.75 -0.1
v -0.6 0.75 -0.1
v 0.6 0.75 -0.1
v 0.7 0.75 -0.1
v 0.8 0.75 -0.1
v -0.8 0.75 -0.2
v -0.6 0.75 -0.2
v 0.6 0.75 -0.2
v 0.8 0.75 -0.2
v -0.8 -0.75 0.2
v -0.7 -0.75 0.2
v 0.7 -0.75 0.2
v 0.8 -0.75 0.2
v -0.8 -0.75 0.1
v -0.7 -0.75 0.1
v 0.7 -0.75 0.1
v 0.8 -0.75 0.1
v -0.7 -0.75 0
v 0.7 -0.75 0
v -0.8 -0.75 -0.1
v -0.7 -0.75 -0.1
v 0.7 -0.75 -0.1
v 0.8 -0.75 -0.1
v -0.8 -0.75 -0.2
v -0.7 -0.75 -0.2
v 0.7 -0.75 -0.2
v 0.8 -0.75 -0.2
v -0.8 -0.65 0.1
v -0.7 -0.65 0.1
v 0.7 -0.65 0.1
v 0.8 -0.65 0.1
v -0.7 -0.65 0
v 0.7 -0.65 0
v -0.8 -0.65 -0.1
v -0.7 -0.65 -0.1
v 0.7 -0.65 -0.1
v 0.8 -0.65 -0.1
v -0.8 0.95 0.2
v -0.7 0.95 0.2
v 0.7 0.95 0.2
v 0.8 0.95 0.2
v -0.8 0.95 0.1
v -0.7 0.95 0.1
v -0.6 0.95 0.1
v 0.6 0.95 0.1
v 0.7 0.95 0.1
v 0.8 0.95 0.1
v -0.8 0.95 -0.1
v -0.6 0.95 -0.1
v 0.6 0.95 -0.1
v 0.8 0.95 -0.1
v -0.8 0.95 -0.2
v -0.6 0.95 -0.2
v 0.6 0.95 -0.2
v 0.8 0.95 -0.2
v -0.8 1.05 0.1
v -0.6 1.05 0.1
v 0.6 1.05 0.1
v 0.8 1.05 0.1
v -0.8 1.05 -0.1
v -0.6 1.05 -0.1
v 0.6 1.05 -0.1
v 0.8 1.05 -0.1

# faces
f 4/2/1 2/2/1 1/2/1
f 5/2/1 2/2/1 4/2/1
f 7/2/1 4/2/1 3/2/1
f 7/2/1 6/2/1 5/2/1
f 7/2/1 5/2/1 4/2/1
f 8/2/1 6/2/1 7/2/1
f 9/2/1 6/2/1 8/2/1
f 10/2/1 6/2/1 9/2/1
f 11/2/1 9/2/1 8/2/1
f 12/2/1 9/2/1 11/2/1
f 16/2/1 14/2/1 13/2/1
f 17/2/1 14/2/1 16/2/1
f 19/2/1 17/2/1 16/2/1
f 19/2/1 18/2/1 17/2/1
f 19/2/1 16/2/1 15/2/1
f 20/2/1 18/2/1 19/2/1
f 21/2/1 18/2/1 20/2/1
f 22/2/1 18/2/1 21/2/1
f 23/2/1 21/2/1 20/2/1
f 24/2/1 21/2/1 23/2/1
f 27/1/1 26/1/1 25/1/1
f 28/1/1 26/1/1 27/1/1
f 32/2/1 30/2/1 29/2/1
f 33/2/1 30/2/1 32/2/1
f 34/2/1 32/2/1 31/2/1
f 35/2/1 32/2/1 34/2/1
f 39/2/1 37/2/1 36/2/1
f 40/2/1 37/2/1 39/2/1
f 42/2/1 39/2/1 38/2/1
f 43/2/1 39/2/1 42/2/1
f 45/2/1 41/2/1 40/2/1
f 46/2/1 41/2/1 45/2/1
f 47/2/1 44/2/1 43/2/1
f 48/2/1 44/2/1 47/2/1
f 52/2/1 50/2/1 49/2/1
f 53/2/1 50/2/1 52/2/1
f 54/2/1 52/2/1 51/2/1
f 55/2/1 52/2/1 54/2/1
f 56/2/2 57/2/2 59/2/2
f 59/2/2 57/2/2 60/2/2
f 58/2/2 59/2/2 62/2/2
f 62/2/2 59/2/2 63/2/2
f 60/2/2 61/2/2 65/2/2
f 65/2/2 61/2/2 66/2/2
f 63/2/2 64/2/2 67/2/2
f 67/2/2 64/2/2 68/2/2
f 69/2/2 70/2/2 72/2/2
f 72/2/2 70/2/2 73/2/2
f 71/2/2 72/2/2 74/2/2
f 74/2/2 72/2/2 75/2/2
f 76/2/2 77/2/2 79/2/2
f 79/2/2 77/2/2 80/2/2
f 78/2/2 79/2/2 81/2/2
f 81/2/2 79/2/2 82/2/2
f 83/1/2 84/1/2 85/1/2
f 85/1/2 84/1/2 86/1/2
f 87/2/2 88/2/2 90/2/2
f 90/2/2 88/2/2 91/2/2
f 89/2/2 90/2/2 93/2/2
f 91/2/2 92/2/2 93/2/2
f 90/2/2 91/2/2 93/2/2
f 93/2/2 92/2/2 94/2/2
f 94/2/2 92/2/2 95/2/2
f 95/2/2 92/2/2 96/2/2
f 94/2/2 95/2/2 97/2/2
f 97/2/2 95/2/2 98/2/2
f 99/2/2 100/2/2 102/2/2
f 102/2/2 100/2/2 103/2/2
f 102/2/2 103/2/2 105/2/2
f 103/2/2 104/2/2 105/2/2
f 101/2/2 102/2/2 105/2/2
f 105/2/2 104/2/2 106/2/2
f 106/2/2 104/2/2 107/2/2
f 107/2/2 104/2/2 108/2/2
f 106/2/2 107/2/2 109/2/2
f 109/2/2 107/2/2 110/2/2
f 115/2/3 112/2/3 111/2/3
f 116/2/3 112/2/3 115/2/3
f 117/2/3 114/2/3 113/2/3
f 118/2/3 114/2/3 117/2/3
f 123/2/3 120/2/3 119/2/3
f 124/2/3 120/2/3 123/2/3
f 125/2/3 122/2/3 121/2/3
f 126/2/3 122/2/3 125/2/3
f 135/2/3 128/2/3 127/2/3
f 136/2/3 128/2/3 135/2/3
f 137/2/3 130/2/3 129/2/3
f 138/2/3 130/2/3 137/2/3
f 139/2/3 132/2/3 131/2/3
f 140/2/3 132/2/3 139/2/3
f 141/2/3 134/2/3 133/2/3
f 142/1/3 141/1/3 140/1/3
f 142/2/3 134/2/3 141/2/3
f 143/2/3 134/2/3 142/2/3
f 144/1/3 142/1/3 140/1/3
f 147/1/3 137/1/3 136/1/3
f 148/1/3 137/1/3 147/1/3
f 151/1/3 144/1/3 140/1/3
f 152/2/3 145/2/3 144/2/3
f 152/1/3 144/1/3 151/1/3
f 153/2/3 147/2/3 146/2/3
f 154/2/3 147/2/3 153/2/3
f 155/2/3 149/2/3 148/2/3
f 156/2/3 149/2/3 155/2/3
f 157/2/3 151/2/3 150/2/3
f 158/2/3 151/2/3 157/2/3
f 159/2/3 145/2/3 152/2/3
f 160/2/3 145/2/3 159/2/3
f 165/1/3 162/1/3 161/1/3
f 165/1/3 164/1/3 163/1/3
f 165/1/3 163/1/3 162/1/3
f 166/1/3 164/1/3 165/1/3
f 167/1/3 164/1/3 166/1/3
f 168/1/3 164/1/3 167/1/3
f 169/1/3 164/1/3 168/1/3
f 170/1/3 164/1/3 169/1/3
f 171/1/3 164/1/3 170/1/3
f 172/1/3 164/1/3 171/1/3
f 173/1/3 164/1/3 172/1/3
f 174/1/3 164/1/3 173/1/3
f 175/1/3 164/1/3 174/1/3
f 176/1/3 164/1/3 175/1/3
f 177/1/3 164/1/3 176/1/3
f 178/1/3 164/1/3 177/1/3
f 179/1/3 171/1/3 170/1/3
f 179/2/3 172/2/3 171/2/3
f 180/1/3 173/1/3 172/1/3
f 180/2/3 172/2/3 179/2/3
f 181/1/3 165/1/3 161/1/3
f 181/2/3 166/2/3 165/2/3
f 182/1/3 167/1/3 166/1/3
f 182/2/3 166/2/3 181/2/3
f 183/1/3 180/1/3 179/1/3
f 183/1/3 179/1/3 170/1/3
f 184/1/3 173/1/3 180/1/3
f 184/1/3 180/1/3 183/1/3
f 185/2/3 174/2/3 173/2/3
f 185/1/3 173/1/3 184/1/3
f 186/1/3 175/1/3 174/1/3
f 186/2/3 174/2/3 185/2/3
f 187/1/3 181/1/3 161/1/3
f 187/1/3 182/1/3 181/1/3
f 188/1/3 167/1/3 182/1/3
f 188/1/3 182/1/3 187/1/3
f 189/2/3 168/2/3 167/2/3
f 189/1/3 167/1/3 188/1/3
f 190/1/3 169/1/3 168/1/3
f 190/2/3 168/2/3 189/2/3
f 191/1/3 186/1/3 185/1/3
f 191/1/3 185/1/3 184/1/3
f 192/1/3 175/1/3 186/1/3
f 192/1/3 186/1/3 191/1/3
f 193/1/3 187/1/3 161/1/3
f 193/2/3 188/2/3 187/2/3
f 194/1/3 189/1/3 188/1/3
f 194/2/3 188/2/3 193/2/3
f 194/1/3 190/1/3 189/1/3
f 195/1/3 190/1/3 194/1/3
f 196/1/3 169/1/3 190/1/3
f 196/1/3 190/1/3 195/1/3
f 197/2/3 170/2/3 169/2/3
f 197/1/3 169/1/3 196/1/3
f 198/1/3 183/1/3 170/1/3
f 198/2/3 170/2/3 197/2/3
f 199/2/3 178/2/3 177/2/3
f 199/1/3 177/1/3 176/1/3
f 200/1/3 164/1/3 178/1/3
f 200/2/3 178/2/3 199/2/3
f 201/1/3 193/1/3 161/1/3
f 201/1/3 195/1/3 194/1/3
f 201/1/3 194/1/3 193/1/3
f 202/1/3 195/1/3 201/1/3
f 203/1/3 197/1/3 196/1/3
f 203/1/3 198/1/3 197/1/3
f 204/1/3 183/1/3 198/1/3
f 204/1/3 198/1/3 203/1/3
f 205/1/3 191/1/3 184/1/3
f 205/2/3 192/2/3 191/2/3
f 206/1/3 175/1/3 192/1/3
f 206/2/3 192/2/3 205/2/3
f 207/1/3 183/1/3 204/1/3
f 207/2/3 184/2/3 183/2/3
f 208/1/3 205/1/3 184/1/3
f 208/2/3 184/2/3 207/2/3
f 208/1/3 206/1/3 205/1/3
f 209/1/3 206/1/3 208/1/3
f 210/1/3 175/1/3 206/1/3
f 210/1/3 206/1/3 209/1/3
f 211/1/3 201/1/3 161/1/3
f 211/2/3 202/2/3 201/2/3
f 212/1/3 195/1/3 202/1/3
f 212/2/3 202/2/3 211/2/3
f 213/2/3 196/2/3 195/2/3
f 213/1/3 195/1/3 212/1/3
f 214/1/3 203/1/3 196/1/3
f 214/2/3 196/2/3 213/2/3
f 215/1/3 207/1/3 204/1/3
f 215/1/3 209/1/3 208/1/3
f 215/1/3 208/1/3 207/1/3
f 216/1/3 209/1/3 215/1/3
f 217/2/3 210/2/3 209/2/3
f 217/1/3 209/1/3 216/1/3
f 218/1/3 175/1/3 210/1/3
f 218/2/3 210/2/3 217/2/3
f 219/1/3 211/1/3 161/1/3
f 219/1/3 214/1/3 213/1/3
f 219/1/3 212/1/3 211/1/3
f 219/1/3 213/1/3 212/1/3
f 220/1/3 214/1/3 219/1/3
f 221/1/3 214/1/3 220/1/3
f 222/1/3 203/1/3 214/1/3
f 222/1/3 214/1/3 221/1/3
f 223/1/3 218/1/3 217/1/3
f 223/1/3 217/1/3 216/1/3
f 224/1/3 175/1/3 218/1/3
f 224/1/3 218/1/3 223/1/3
f 225/1/3 203/1/3 222/1/3
f 225/2/3 204/2/3 203/2/3
f 226/1/3 215/1/3 204/1/3
f 226/2/3 204/2/3 225/2/3
f 227/1/3 199/1/3 176/1/3
f 227/1/3 200/1/3 199/1/3
f 228/1/3 164/1/3 200/1/3
f 228/1/3 200/1/3 227/1/3
f 229/1/3 225/1/3 222/1/3
f 229/1/3 226/1/3 225/1/3
f 230/1/3 215/1/3 226/1/3
f 230/1/3 226/1/3 229/1/3
f 231/2/3 216/2/3 215/2/3
f 231/1/3 215/1/3 230/1/3
f 232/1/3 223/1/3 216/1/3
f 232/2/3 216/2/3 231/2/3
f 233/1/3 219/1/3 161/1/3
f 233/2/3 220/2/3 219/2/3
f 234/1/3 221/1/3 220/1/3
f 234/2/3 220/2/3 233/2/3
f 235/2/3 222/2/3 221/2/3
f 235/1/3 221/1/3 234/1/3
f 236/1/3 229/1/3 222/1/3
f 236/2/3 222/2/3 235/2/3
f 237/2/3 230/2/3 229/2/3
f 237/1/3 229/1/3 236/1/3
f 238/1/3 231/1/3 230/1/3
f 238/2/3 230/2/3 237/2/3
f 238/1/3 232/1/3 231/1/3
f 239/2/3 224/2/3 223/2/3
f 239/1/3 232/1/3 238/1/3
f 239/1/3 223/1/3 232/1/3
f 240/1/3 175/1/3 224/1/3
f 240/2/3 224/2/3 239/2/3
f 241/2/3 176/2/3 175/2/3
f 241/1/3 175/1/3 240/1/3
f 242/1/3 227/1/3 176/1/3
f 242/2/3 176/2/3 241/2/3
f 243/2/3 228/2/3 227/2/3
f 243/1/3 227/1/3 242/1/3
f 244/1/3 164/1/3 228/1/3
f 244/2/3 228/2/3 243/2/3
f 245/1/3 237/1/3 236/1/3
f 245/1/3 233/1/3 161/1/3
f 245/1/3 244/1/3 243/1/3
f 245/1/3 236/1/3 235/1/3
f 245/1/3 234/1/3 233/1/3
f 245/1/3 242/1/3 241/1/3
f 245/1/3 240/1/3 239/1/3
f 245/1/3 235/1/3 234/1/3
f 245/1/3 243/1/3 242/1/3
f 245/1/3 241/1/3 240/1/3
f 245/1/3 238/1/3 237/1/3
f 245/1/3 239/1/3 238/1/3
f 246/1/3 244/1/3 245/1/3
f 247/1/3 164/1/3 244/1/3
f 247/1/3 244/1/3 246/1/3
f 248/1/3 164/1/3 247/1/3
f 249/2/4 250/2/4 257/2/4
f 257/2/4 250/2/4 258/2/4
f 251/2/4 252/2/4 259/2/4
f 259/2/4 252/2/4 260/2/4
f 253/2/4 254/2/4 261/2/4
f 261/2/4 254/2/4 262/2/4
f 259/1/4 260/1/4 263/1/4
f 261/1/4 262/1/4 263/1/4
f 260/1/4 261/1/4 263/1/4
f 258/1/4 259/1/4 263/1/4
f 263/1/4 262/1/4 264/1/4
f 264/1/4 262/1/4 265/1/4
f 265/1/4 262/1/4 266/1/4
f 266/1/4 262/1/4 267/1/4
f 267/1/4 262/1/4 268/1/4
f 268/1/4 262/1/4 269/1/4
f 269/1/4 262/1/4 270/1/4
f 270/1/4 262/1/4 271/1/4
f 271/1/4 262/1/4 272/1/4
f 272/1/4 262/1/4 273/1/4
f 273/1/4 262/1/4 274/1/4
f 274/1/4 262/1/4 275/1/4
f 275/1/4 262/1/4 276/1/4
f 276/1/4 262/1/4 277/1/4
f 255/2/4 256/2/4 278/2/4
f 278/2/4 256/2/4 279/2/4
f 268/1/4 269/1/4 280/1/4
f 269/2/4 270/2/4 280/2/4
f 270/1/4 271/1/4 281/1/4
f 280/2/4 270/2/4 281/2/4
f 258/1/4 263/1/4 282/1/4
f 263/2/4 264/2/4 282/2/4
f 264/1/4 265/1/4 283/1/4
f 282/2/4 264/2/4 283/2/4
f 280/1/4 281/1/4 284/1/4
f 268/1/4 280/1/4 284/1/4
f 281/1/4 271/1/4 285/1/4
f 284/1/4 281/1/4 285/1/4
f 271/2/4 272/2/4 286/2/4
f 285/1/4 271/1/4 286/1/4
f 272/1/4 273/1/4 287/1/4
f 286/2/4 272/2/4 287/2/4
f 258/1/4 282/1/4 288/1/4
f 282/1/4 283/1/4 288/1/4
f 283/1/4 265/1/4 289/1/4
f 288/1/4 283/1/4 289/1/4
f 265/2/4 266/2/4 290/2/4
f 289/1/4 265/1/4 290/1/4
f 266/1/4 267/1/4 291/1/4
f 290/2/4 266/2/4 291/2/4
f 286/1/4 287/1/4 292/1/4
f 285/1/4 286/1/4 292/1/4
f 287/1/4 273/1/4 293/1/4
f 292/1/4 287/1/4 293/1/4
f 258/1/4 288/1/4 294/1/4
f 288/2/4 289/2/4 294/2/4
f 289/1/4 290/1/4 295/1/4
f 294/2/4 289/2/4 295/2/4
f 290/1/4 291/1/4 295/1/4
f 295/1/4 291/1/4 296/1/4
f 291/1/4 267/1/4 297/1/4
f 296/1/4 291/1/4 297/1/4
f 267/2/4 268/2/4 298/2/4
f 297/1/4 267/1/4 298/1/4
f 268/1/4 284/1/4 299/1/4
f 298/2/4 268/2/4 299/2/4
f 275/2/4 276/2/4 300/2/4
f 274/1/4 275/1/4 300/1/4
f 276/1/4 277/1/4 301/1/4
f 300/2/4 276/2/4 301/2/4
f 277/1/4 278/1/4 301/1/4
f 258/1/4 294/1/4 302/1/4
f 294/1/4 295/1/4 302/1/4
f 295/1/4 296/1/4 302/1/4
f 302/1/4 296/1/4 303/1/4
f 297/1/4 298/1/4 304/1/4
f 298/1/4 299/1/4 304/1/4
f 299/1/4 284/1/4 305/1/4
f 304/1/4 299/1/4 305/1/4
f 285/1/4 292/1/4 306/1/4
f 292/2/4 293/2/4 306/2/4
f 293/1/4 273/1/4 307/1/4
f 306/2/4 293/2/4 307/2/4
f 305/1/4 284/1/4 308/1/4
f 284/2/4 285/2/4 308/2/4
f 285/1/4 306/1/4 309/1/4
f 308/2/4 285/2/4 309/2/4
f 306/1/4 307/1/4 309/1/4
f 309/1/4 307/1/4 310/1/4
f 307/1/4 273/1/4 311/1/4
f 310/1/4 307/1/4 311/1/4
f 302/2/4 303/2/4 312/2/4
f 258/1/4 302/1/4 312/1/4
f 303/1/4 296/1/4 313/1/4
f 312/2/4 303/2/4 313/2/4
f 296/2/4 297/2/4 314/2/4
f 313/1/4 296/1/4 314/1/4
f 297/1/4 304/1/4 315/1/4
f 314/2/4 297/2/4 315/2/4
f 305/1/4 308/1/4 316/1/4
f 309/1/4 310/1/4 316/1/4
f 308/1/4 309/1/4 316/1/4
f 316/1/4 310/1/4 317/1/4
f 310/2/4 311/2/4 318/2/4
f 317/1/4 310/1/4 318/1/4
f 311/1/4 273/1/4 319/1/4
f 318/2/4 311/2/4 319/2/4
f 313/1/4 314/1/4 320/1/4
f 258/1/4 312/1/4 320/1/4
f 314/1/4 315/1/4 320/1/4
f 312/1/4 313/1/4 320/1/4
f 320/1/4 315/1/4 321/1/4
f 321/1/4 315/1/4 322/1/4
f 315/1/4 304/1/4 323/1/4
f 322/1/4 315/1/4 323/1/4
f 318/1/4 319/1/4 324/1/4
f 317/1/4 318/1/4 324/1/4
f 319/1/4 273/1/4 325/1/4
f 324/1/4 319/1/4 325/1/4
f 323/1/4 304/1/4 326/1/4
f 304/2/4 305/2/4 326/2/4
f 305/1/4 316/1/4 327/1/4
f 326/2/4 305/2/4 327/2/4
f 274/1/4 300/1/4 328/1/4
f 300/1/4 301/1/4 328/1/4
f 301/1/4 278/1/4 329/1/4
f 328/1/4 301/1/4 329/1/4
f 323/1/4 326/1/4 330/1/4
f 326/1/4 327/1/4 330/1/4
f 327/1/4 316/1/4 331/1/4
f 330/1/4 327/1/4 331/1/4
f 316/2/4 317/2/4 332/2/4
f 331/1/4 316/1/4 332/1/4
f 317/1/4 324/1/4 333/1/4
f 332/2/4 317/2/4 333/2/4
f 258/1/4 320/1/4 334/1/4
f 320/2/4 321/2/4 334/2/4
f 321/1/4 322/1/4 335/1/4
f 334/2/4 321/2/4 335/2/4
f 322/2/4 323/2/4 336/2/4
f 335/1/4 322/1/4 336/1/4
f 323/1/4 330/1/4 337/1/4
f 336/2/4 323/2/4 337/2/4
f 330/2/4 331/2/4 338/2/4
f 337/1/4 330/1/4 338/1/4
f 331/1/4 332/1/4 339/1/4
f 338/2/4 331/2/4 339/2/4
f 332/1/4 333/1/4 339/1/4
f 324/2/4 325/2/4 340/2/4
f 339/1/4 333/1/4 340/1/4
f 333/1/4 324/1/4 340/1/4
f 325/1/4 273/1/4 341/1/4
f 340/2/4 325/2/4 341/2/4
f 273/2/4 274/2/4 342/2/4
f 341/1/4 273/1/4 342/1/4
f 274/1/4 328/1/4 343/1/4
f 342/2/4 274/2/4 343/2/4
f 328/2/4 329/2/4 344/2/4
f 343/1/4 328/1/4 344/1/4
f 329/1/4 278/1/4 345/1/4
f 344/2/4 329/2/4 345/2/4
f 345/1/4 278/1/4 346/1/4
f 346/1/4 278/1/4 347/1/4
f 335/1/4 336/1/4 350/1/4
f 337/1/4 338/1/4 350/1/4
f 345/1/4 346/1/4 350/1/4
f 344/1/4 345/1/4 350/1/4
f 339/1/4 340/1/4 350/1/4
f 336/1/4 337/1/4 350/1/4
f 334/1/4 335/1/4 350/1/4
f 342/1/4 343/1/4 350/1/4
f 258/1/4 334/1/4 350/1/4
f 340/1/4 341/1/4 350/1/4
f 341/1/4 342/1/4 350/1/4
f 338/1/4 339/1/4 350/1/4
f 343/1/4 344/1/4 350/1/4
f 350/1/4 346/1/4 351/1/4
f 351/1/4 346/1/4 352/1/4
f 352/1/4 346/1/4 353/1/4
f 353/1/4 346/1/4 354/1/4
f 349/2/4 350/2/4 355/2/4
f 355/2/4 350/2/4 356/2/4
f 351/2/4 352/2/4 357/2/4
f 357/2/4 352/2/4 358/2/4
f 353/2/4 354/2/4 359/2/4
f 359/2/4 354/2/4 360/2/4
f 347/2/4 348/2/4 361/2/4
f 361/2/4 348/2/4 362/2/4
f 363/2/4 364/2/4 367/2/4
f 367/2/4 364/2/4 368/2/4
f 365/2/4 366/2/4 369/2/4
f 369/2/4 366/2/4 370/2/4
f 373/2/4 374/2/4 375/2/4
f 375/2/4 374/2/4 376/2/4
f 371/2/4 372/2/4 377/2/4
f 377/2/4 372/2/4 378/2/4
f 383/2/5 380/2/5 379/2/5
f 384/2/5 380/2/5 383/2/5
f 385/2/5 382/2/5 381/2/5
f 386/2/5 382/2/5 385/2/5
f 391/2/5 388/2/5 387/2/5
f 392/2/5 388/2/5 391/2/5
f 393/2/5 390/2/5 389/2/5
f 394/2/5 390/2/5 393/2/5
f 396/1/5 393/1/5 392/1/5
f 397/1/5 393/1/5 396/1/5
f 399/2/5 396/2/5 395/2/5
f 400/2/5 396/2/5 399/2/5
f 401/2/5 398/2/5 397/2/5
f 402/2/5 398/2/5 401/2/5
f 407/2/5 404/2/5 403/2/5
f 408/2/5 406/2/5 405/2/5
f 409/2/5 407/2/5 403/2/5
f 410/2/5 407/2/5 409/2/5
f 411/2/5 406/2/5 408/2/5
f 412/2/5 406/2/5 411/2/5
f 417/2/5 414/2/5 413/2/5
f 418/2/5 414/2/5 417/2/5
f 419/2/5 416/2/5 415/2/5
f 420/2/5 416/2/5 419/2/5
f 421/1/5 419/1/5 418/1/5
f 422/1/5 419/1/5 421/1/5
f 429/2/5 424/2/5 423/2/5
f 429/2/5 425/2/5 424/2/5
f 430/2/5 425/2/5 429/2/5
f 431/2/5 427/2/5 426/2/5
f 431/2/5 428/2/5 427/2/5
f 432/2/5 428/2/5 431/2/5
f 433/2/6 434/2/6 437/2/6
f 437/2/6 434/2/6 438/2/6
f 435/2/6 436/2/6 439/2/6
f 439/2/6 436/2/6 440/2/6
f 438/1/6 439/1/6 441/1/6
f 441/1/6 439/1/6 442/1/6
f 443/2/6 444/2/6 447/2/6
f 447/2/6 444/2/6 448/2/6
f 445/2/6 446/2/6 449/2/6
f 449/2/6 446/2/6 450/2/6
f 451/2/6 452/2/6 455/2/6
f 453/2/6 454/2/6 456/2/6
f 451/2/6 455/2/6 457/2/6
f 457/2/6 455/2/6 458/2/6
f 456/2/6 454/2/6 459/2/6
f 459/2/6 454/2/6 460/2/6
f 461/2/6 462/2/6 465/2/6
f 465/2/6 462/2/6 466/2/6
f 463/2/6 464/2/6 469/2/6
f 469/2/6 464/2/6 470/2/6
f 467/1/6 468/1/6 472/1/6
f 472/1/6 468/1/6 473/1/6
f 471/2/6 472/2/6 475/2/6
f 475/2/6 472/2/6 476/2/6
f 473/2/6 474/2/6 477/2/6
f 477/2/6 474/2/6 478/2/6
f 479/2/6 480/2/6 483/2/6
f 483/2/6 480/2/6 484/2/6
f 481/2/6 482/2/6 485/2/6
f 485/2/6 482/2/6 486/2/6
