# MagicaVoxel @ Ephtracy

# group
o 

# material
mtllib obj_house2.mtl
usemtl palette

# normals
vn -1 0 0
vn 1 0 0
vn 0 0 1
vn 0 0 -1
vn 0 -1 0
vn 0 1 0

# texcoords
vt 0.306641 0.5
vt 0.537109 0.5
vt 0.919922 0.5
vt 0.958984 0.5
vt 0.970703 0.5
vt 0.990234 0.5

# verts
v -3.2 0 3.2
v -3.2 0 -3.2
v -3.2 0.1 3.2
v -3.2 0.1 2.2
v -3.2 0.1 -1.6
v -3.2 0.1 -3.2
v -3.2 2.4 2.2
v -3.2 2.4 -1.6
v -3 0.1 -3
v -3 0.1 -3.2
v -3 1.8 -1.6
v -3 1.8 -3
v -3 2 -1.6
v -3 2 -3.2
v -2.8 0.6 -1.5
v -2.8 0.6 -1.6
v -2.8 1.7 -1.5
v -2.8 1.7 -1.6
v -2.7 0.1 2.7
v -2.7 0.1 2.2
v -2.7 0.2 2.7
v -2.7 0.2 2.2
v -2.7 0.2 2.1
v -2.7 1.8 2.2
v -2.7 1.8 2.1
v -2.6 0.8 2.3
v -2.6 0.8 2.2
v -2.6 1 2.3
v -2.6 1 2.2
v -1.5 0.7 -1.5
v -1.5 0.7 -1.6
v -1.5 1.3 -1.5
v -1.5 1.3 -1.6
v -1.5 1.4 -1.5
v -1.5 1.4 -1.6
v -1.5 1.6 -1.5
v -1.5 1.6 -1.6
v -1 0.6 2.2
v -1 0.6 2.1
v -1 1.8 2.2
v -1 1.8 2.1
v -0.2 0.7 -1.5
v -0.2 0.7 -1.6
v -0.2 1.3 -1.5
v -0.2 1.3 -1.6
v -0.2 1.4 -1.5
v -0.2 1.4 -1.6
v -0.2 1.6 -1.5
v -0.2 1.6 -1.6
v -0.0999999 0.1 -3
v -0.0999999 0.1 -3.2
v -0.0999999 1.8 -3
v -0.0999999 1.8 -3.2
v 1.5 0.1 -1.6
v 1.5 0.1 -2.1
v 1.5 0.2 -1.5
v 1.5 0.2 -1.6
v 1.5 0.2 -2.1
v 1.5 1.8 -1.5
v 1.5 1.8 -1.6
v 2.5 0.7 2.2
v 2.5 0.7 2.1
v 2.5 0.8 -1.6
v 2.5 0.8 -1.7
v 2.5 1 -1.6
v 2.5 1 -1.7
v 2.5 1.4 2.2
v 2.5 1.4 2.1
v 2.5 1.5 2.2
v 2.5 1.5 2.1
v 2.5 1.7 2.2
v 2.5 1.7 2.1
v 3 0.2 2.2
v 3 0.2 2.1
v 3 0.2 -1.5
v 3 0.2 -1.6
v 3 2.2 2.2
v 3 2.2 2.1
v 3 2.2 -1.5
v 3 2.2 -1.6
v -3 0.2 2.2
v -3 0.2 2.1
v -3 0.2 -1.5
v -3 0.2 -1.6
v -3 1.8 -1.5
v -3 1.8 -1.6
v -3 2 -1.5
v -3 2 -1.6
v -3 2.2 2.2
v -3 2.2 2.1
v -3 2.2 -1.5
v -3 2.2 -1.6
v -2.8 0.1 -3
v -2.8 0.1 -3.2
v -2.8 1.8 -3
v -2.8 1.8 -3.2
v -2.7 0.7 -1.5
v -2.7 0.7 -1.6
v -2.7 1.3 -1.5
v -2.7 1.3 -1.6
v -2.7 1.4 -1.5
v -2.7 1.4 -1.6
v -2.7 1.6 -1.5
v -2.7 1.6 -1.6
v -2.5 0.8 2.3
v -2.5 0.8 2.2
v -2.5 1 2.3
v -2.5 1 2.2
v -1.5 0.1 2.7
v -1.5 0.1 2.2
v -1.5 0.2 2.7
v -1.5 0.2 2.2
v -1.5 0.2 2.1
v -1.5 1.8 2.2
v -1.5 1.8 2.1
v -1.4 0.7 -1.5
v -1.4 0.7 -1.6
v -1.4 1.3 -1.5
v -1.4 1.3 -1.6
v -1.4 1.4 -1.5
v -1.4 1.4 -1.6
v -1.4 1.6 -1.5
v -1.4 1.6 -1.6
v -0.9 0.7 2.2
v -0.9 0.7 2.1
v -0.9 1.4 2.2
v -0.9 1.4 2.1
v -0.9 1.5 2.2
v -0.9 1.5 2.1
v -0.9 1.7 2.2
v -0.9 1.7 2.1
v -0.0999999 0.6 -1.5
v -0.0999999 0.6 -1.6
v -0.0999999 1.7 -1.5
v -0.0999999 1.7 -1.6
v 0.1 0.1 -3
v 0.1 0.1 -3.2
v 0.1 1.8 -1.5
v 0.1 1.8 -3
v 0.1 2 -1.5
v 0.1 2 -3.2
v 2.6 0.6 2.2
v 2.6 0.6 2.1
v 2.6 0.8 -1.6
v 2.6 0.8 -1.7
v 2.6 1 -1.6
v 2.6 1 -1.7
v 2.6 1.8 2.2
v 2.6 1.8 2.1
v 2.7 0.1 -1.6
v 2.7 0.1 -2.1
v 2.7 0.2 -1.5
v 2.7 0.2 -1.6
v 2.7 0.2 -2.1
v 2.7 1.8 -1.5
v 2.7 1.8 -1.6
v 3.2 0 3.2
v 3.2 0 -3.2
v 3.2 0.1 3.2
v 3.2 0.1 2.2
v 3.2 0.1 -1.6
v 3.2 0.1 -3.2
v 3.2 2.4 2.2
v 3.2 2.4 -1.6
v -3.2 0 3.2
v -3.2 0.1 3.2
v 3.2 0 3.2
v 3.2 0.1 3.2
v -2.7 0.1 2.7
v -2.7 0.2 2.7
v -1.5 0.1 2.7
v -1.5 0.2 2.7
v -2.6 0.8 2.3
v -2.6 1 2.3
v -2.5 0.8 2.3
v -2.5 1 2.3
v -3.2 0.1 2.2
v -3.2 2.4 2.2
v -3 0.2 2.2
v -3 2.2 2.2
v -2.7 0.1 2.2
v -2.7 0.2 2.2
v -2.7 1.8 2.2
v -2.6 0.2 2.2
v -2.6 0.3 2.2
v -2.6 0.8 2.2
v -2.6 1 2.2
v -2.6 1.6 2.2
v -2.5 0.8 2.2
v -2.5 1 2.2
v -1.6 0.2 2.2
v -1.6 0.3 2.2
v -1.6 1.6 2.2
v -1.5 0.1 2.2
v -1.5 0.2 2.2
v -1.5 1.8 2.2
v -1 0.6 2.2
v -1 1.8 2.2
v -0.9 0.7 2.2
v -0.9 1.4 2.2
v -0.9 1.5 2.2
v -0.9 1.7 2.2
v 2.5 0.7 2.2
v 2.5 1.4 2.2
v 2.5 1.5 2.2
v 2.5 1.7 2.2
v 2.6 0.6 2.2
v 2.6 1.8 2.2
v 3 0.2 2.2
v 3 2.2 2.2
v 3.2 0.1 2.2
v 3.2 2.4 2.2
v -3 0.2 2.1
v -3 2.2 2.1
v -2.7 0.2 2.1
v -2.7 1.8 2.1
v -1.5 0.2 2.1
v -1.5 1.8 2.1
v -1 0.6 2.1
v -1 1.8 2.1
v -0.9 0.7 2.1
v -0.9 1.4 2.1
v -0.9 1.5 2.1
v -0.9 1.7 2.1
v 2.5 0.7 2.1
v 2.5 1.4 2.1
v 2.5 1.5 2.1
v 2.5 1.7 2.1
v 2.6 0.6 2.1
v 2.6 1.8 2.1
v 3 0.2 2.1
v 3 2.2 2.1
v -3 0.1 -3
v -3 1.8 -3
v -2.8 0.1 -3
v -2.8 1.8 -3
v -0.0999999 0.1 -3
v -0.0999999 1.8 -3
v 0.1 0.1 -3
v 0.1 1.8 -3
v -3 0.2 -1.5
v -3 1.8 -1.5
v -3 2 -1.5
v -3 2.2 -1.5
v -2.8 0.6 -1.5
v -2.8 1.7 -1.5
v -2.7 0.7 -1.5
v -2.7 1.3 -1.5
v -2.7 1.4 -1.5
v -2.7 1.6 -1.5
v -1.5 0.7 -1.5
v -1.5 1.3 -1.5
v -1.5 1.4 -1.5
v -1.5 1.6 -1.5
v -1.4 0.7 -1.5
v -1.4 1.3 -1.5
v -1.4 1.4 -1.5
v -1.4 1.6 -1.5
v -0.2 0.7 -1.5
v -0.2 1.3 -1.5
v -0.2 1.4 -1.5
v -0.2 1.6 -1.5
v -0.0999999 0.6 -1.5
v -0.0999999 1.7 -1.5
v 0.1 1.8 -1.5
v 0.1 2 -1.5
v 1.5 0.2 -1.5
v 1.5 1.8 -1.5
v 2.7 0.2 -1.5
v 2.7 1.8 -1.5
v 3 0.2 -1.5
v 3 2.2 -1.5
v -3.2 0.1 -1.6
v -3.2 2.4 -1.6
v -3 0.2 -1.6
v -3 1.8 -1.6
v -3 2 -1.6
v -3 2.2 -1.6
v -2.8 0.6 -1.6
v -2.8 1.7 -1.6
v -2.7 0.7 -1.6
v -2.7 1.3 -1.6
v -2.7 1.4 -1.6
v -2.7 1.6 -1.6
v -1.5 0.7 -1.6
v -1.5 1.3 -1.6
v -1.5 1.4 -1.6
v -1.5 1.6 -1.6
v -1.4 0.7 -1.6
v -1.4 1.3 -1.6
v -1.4 1.4 -1.6
v -1.4 1.6 -1.6
v -0.2 0.7 -1.6
v -0.2 1.3 -1.6
v -0.2 1.4 -1.6
v -0.2 1.6 -1.6
v -0.0999999 0.6 -1.6
v -0.0999999 1.7 -1.6
v 1.5 0.1 -1.6
v 1.5 0.2 -1.6
v 1.5 1.8 -1.6
v 1.6 0.2 -1.6
v 1.6 0.3 -1.6
v 1.6 1.6 -1.6
v 2.5 0.8 -1.6
v 2.5 1 -1.6
v 2.6 0.2 -1.6
v 2.6 0.3 -1.6
v 2.6 0.8 -1.6
v 2.6 1 -1.6
v 2.6 1.6 -1.6
v 2.7 0.1 -1.6
v 2.7 0.2 -1.6
v 2.7 1.8 -1.6
v 3 0.2 -1.6
v 3 2.2 -1.6
v 3.2 0.1 -1.6
v 3.2 2.4 -1.6
v 2.5 0.8 -1.7
v 2.5 1 -1.7
v 2.6 0.8 -1.7
v 2.6 1 -1.7
v 1.5 0.1 -2.1
v 1.5 0.2 -2.1
v 2.7 0.1 -2.1
v 2.7 0.2 -2.1
v -3.2 0 -3.2
v -3.2 0.1 -3.2
v -3 0.1 -3.2
v -3 2 -3.2
v -2.8 0.1 -3.2
v -2.8 1.8 -3.2
v -0.0999999 0.1 -3.2
v -0.0999999 1.8 -3.2
v 0.1 0.1 -3.2
v 0.1 2 -3.2
v 3.2 0 -3.2
v 3.2 0.1 -3.2
v -3.2 0 3.2
v 3.2 0 3.2
v -3.2 0 -3.2
v 3.2 0 -3.2
v -1 0.6 2.2
v 2.6 0.6 2.2
v -1 0.6 2.1
v 2.6 0.6 2.1
v -2.8 0.6 -1.5
v -0.0999999 0.6 -1.5
v -2.8 0.6 -1.6
v -0.0999999 0.6 -1.6
v -2.6 0.8 2.3
v -2.5 0.8 2.3
v -2.6 0.8 2.2
v -2.5 0.8 2.2
v 2.5 0.8 -1.6
v 2.6 0.8 -1.6
v 2.5 0.8 -1.7
v 2.6 0.8 -1.7
v -2.7 1.3 -1.5
v -1.5 1.3 -1.5
v -1.4 1.3 -1.5
v -0.2 1.3 -1.5
v -2.7 1.3 -1.6
v -1.5 1.3 -1.6
v -1.4 1.3 -1.6
v -0.2 1.3 -1.6
v -0.9 1.4 2.2
v 2.5 1.4 2.2
v -0.9 1.4 2.1
v 2.5 1.4 2.1
v -2.7 1.6 -1.5
v -1.5 1.6 -1.5
v -1.4 1.6 -1.5
v -0.2 1.6 -1.5
v -2.7 1.6 -1.6
v -1.5 1.6 -1.6
v -1.4 1.6 -1.6
v -0.2 1.6 -1.6
v -0.9 1.7 2.2
v 2.5 1.7 2.2
v -0.9 1.7 2.1
v 2.5 1.7 2.1
v -3 1.8 -1.5
v 0.1 1.8 -1.5
v -3 1.8 -1.6
v -3 1.8 -3
v -2.8 1.8 -3
v -0.0999999 1.8 -3
v 0.1 1.8 -3
v -2.8 1.8 -3.2
v -0.0999999 1.8 -3.2
v -3 2.2 2.2
v 3 2.2 2.2
v -3 2.2 2.1
v 3 2.2 2.1
v -3 2.2 -1.5
v 3 2.2 -1.5
v -3 2.2 -1.6
v 3 2.2 -1.6
v -3.2 0.1 3.2
v 3.2 0.1 3.2
v -2.7 0.1 2.7
v -1.5 0.1 2.7
v -3.2 0.1 2.2
v -2.7 0.1 2.2
v -1.5 0.1 2.2
v 3.2 0.1 2.2
v -3.2 0.1 -1.6
v 1.5 0.1 -1.6
v 2.7 0.1 -1.6
v 3.2 0.1 -1.6
v 1.5 0.1 -2.1
v 2.7 0.1 -2.1
v -3 0.1 -3
v -2.8 0.1 -3
v -0.0999999 0.1 -3
v 0.1 0.1 -3
v -3.2 0.1 -3.2
v -3 0.1 -3.2
v -2.8 0.1 -3.2
v -0.0999999 0.1 -3.2
v 0.1 0.1 -3.2
v 3.2 0.1 -3.2
v -2.7 0.2 2.7
v -1.5 0.2 2.7
v -3 0.2 2.2
v -2.7 0.2 2.2
v -2.6 0.2 2.2
v -1.6 0.2 2.2
v -1.5 0.2 2.2
v 3 0.2 2.2
v -3 0.2 2.1
v -2.7 0.2 2.1
v -1.5 0.2 2.1
v 3 0.2 2.1
v -3 0.2 -1.5
v 1.5 0.2 -1.5
v 2.7 0.2 -1.5
v 3 0.2 -1.5
v -3 0.2 -1.6
v 1.5 0.2 -1.6
v 1.6 0.2 -1.6
v 2.6 0.2 -1.6
v 2.7 0.2 -1.6
v 3 0.2 -1.6
v 1.5 0.2 -2.1
v 2.7 0.2 -2.1
v -0.9 0.7 2.2
v 2.5 0.7 2.2
v -0.9 0.7 2.1
v 2.5 0.7 2.1
v -2.7 0.7 -1.5
v -1.5 0.7 -1.5
v -1.4 0.7 -1.5
v -0.2 0.7 -1.5
v -2.7 0.7 -1.6
v -1.5 0.7 -1.6
v -1.4 0.7 -1.6
v -0.2 0.7 -1.6
v -2.6 1 2.3
v -2.5 1 2.3
v -2.6 1 2.2
v -2.5 1 2.2
v 2.5 1 -1.6
v 2.6 1 -1.6
v 2.5 1 -1.7
v 2.6 1 -1.7
v -2.7 1.4 -1.5
v -1.5 1.4 -1.5
v -1.4 1.4 -1.5
v -0.2 1.4 -1.5
v -2.7 1.4 -1.6
v -1.5 1.4 -1.6
v -1.4 1.4 -1.6
v -0.2 1.4 -1.6
v -0.9 1.5 2.2
v 2.5 1.5 2.2
v -0.9 1.5 2.1
v 2.5 1.5 2.1
v -2.8 1.7 -1.5
v -0.0999999 1.7 -1.5
v -2.8 1.7 -1.6
v -0.0999999 1.7 -1.6
v -2.7 1.8 2.2
v -1.5 1.8 2.2
v -1 1.8 2.2
v 2.6 1.8 2.2
v -2.7 1.8 2.1
v -1.5 1.8 2.1
v -1 1.8 2.1
v 2.6 1.8 2.1
v 1.5 1.8 -1.5
v 2.7 1.8 -1.5
v 1.5 1.8 -1.6
v 2.7 1.8 -1.6
v -3 2 -1.5
v 0.1 2 -1.5
v -3 2 -1.6
v -3 2 -3.2
v 0.1 2 -3.2
v -3.2 2.4 2.2
v 3.2 2.4 2.2
v -3.2 2.4 -1.6
v 3.2 2.4 -1.6

# faces
f 3/5/1 2/5/1 1/5/1
f 4/5/1 2/5/1 3/5/1
f 5/5/1 2/5/1 4/5/1
f 6/5/1 2/5/1 5/5/1
f 7/4/1 5/4/1 4/4/1
f 8/4/1 5/4/1 7/4/1
f 12/4/1 10/4/1 9/4/1
f 13/4/1 12/4/1 11/4/1
f 14/4/1 10/4/1 12/4/1
f 14/4/1 12/4/1 13/4/1
f 17/4/1 16/4/1 15/4/1
f 18/4/1 16/4/1 17/4/1
f 21/4/1 20/4/1 19/4/1
f 22/4/1 20/4/1 21/4/1
f 24/4/1 23/4/1 22/4/1
f 25/4/1 23/4/1 24/4/1
f 28/6/1 27/6/1 26/6/1
f 29/6/1 27/6/1 28/6/1
f 32/4/1 31/4/1 30/4/1
f 33/4/1 31/4/1 32/4/1
f 36/4/1 35/4/1 34/4/1
f 37/4/1 35/4/1 36/4/1
f 40/4/1 39/4/1 38/4/1
f 41/4/1 39/4/1 40/4/1
f 44/4/1 43/4/1 42/4/1
f 45/4/1 43/4/1 44/4/1
f 48/4/1 47/4/1 46/4/1
f 49/4/1 47/4/1 48/4/1
f 52/4/1 51/4/1 50/4/1
f 53/4/1 51/4/1 52/4/1
f 57/4/1 55/4/1 54/4/1
f 58/4/1 55/4/1 57/4/1
f 59/4/1 57/4/1 56/4/1
f 60/4/1 57/4/1 59/4/1
f 65/6/1 64/6/1 63/6/1
f 66/6/1 64/6/1 65/6/1
f 67/4/1 62/4/1 61/4/1
f 68/4/1 62/4/1 67/4/1
f 71/4/1 70/4/1 69/4/1
f 72/4/1 70/4/1 71/4/1
f 77/4/1 74/4/1 73/4/1
f 78/4/1 74/4/1 77/4/1
f 79/4/1 76/4/1 75/4/1
f 80/4/1 76/4/1 79/4/1
f 83/4/2 84/4/2 85/4/2
f 85/4/2 84/4/2 86/4/2
f 81/4/2 82/4/2 89/4/2
f 89/4/2 82/4/2 90/4/2
f 87/4/2 88/4/2 91/4/2
f 91/4/2 88/4/2 92/4/2
f 93/4/2 94/4/2 95/4/2
f 95/4/2 94/4/2 96/4/2
f 97/4/2 98/4/2 99/4/2
f 99/4/2 98/4/2 100/4/2
f 101/4/2 102/4/2 103/4/2
f 103/4/2 102/4/2 104/4/2
f 105/6/2 106/6/2 107/6/2
f 107/6/2 106/6/2 108/6/2
f 109/4/2 110/4/2 111/4/2
f 111/4/2 110/4/2 112/4/2
f 112/4/2 113/4/2 114/4/2
f 114/4/2 113/4/2 115/4/2
f 116/4/2 117/4/2 118/4/2
f 118/4/2 117/4/2 119/4/2
f 120/4/2 121/4/2 122/4/2
f 122/4/2 121/4/2 123/4/2
f 124/4/2 125/4/2 126/4/2
f 126/4/2 125/4/2 127/4/2
f 128/4/2 129/4/2 130/4/2
f 130/4/2 129/4/2 131/4/2
f 132/4/2 133/4/2 134/4/2
f 134/4/2 133/4/2 135/4/2
f 136/4/2 137/4/2 139/4/2
f 138/4/2 139/4/2 140/4/2
f 139/4/2 137/4/2 141/4/2
f 140/4/2 139/4/2 141/4/2
f 144/6/2 145/6/2 146/6/2
f 146/6/2 145/6/2 147/6/2
f 142/4/2 143/4/2 148/4/2
f 148/4/2 143/4/2 149/4/2
f 150/4/2 151/4/2 153/4/2
f 153/4/2 151/4/2 154/4/2
f 152/4/2 153/4/2 155/4/2
f 155/4/2 153/4/2 156/4/2
f 157/5/2 158/5/2 159/5/2
f 159/5/2 158/5/2 160/5/2
f 160/5/2 158/5/2 161/5/2
f 161/5/2 158/5/2 162/5/2
f 160/4/2 161/4/2 163/4/2
f 163/4/2 161/4/2 164/4/2
f 167/5/3 166/5/3 165/5/3
f 168/5/3 166/5/3 167/5/3
f 171/4/3 170/4/3 169/4/3
f 172/4/3 170/4/3 171/4/3
f 175/6/3 174/6/3 173/6/3
f 176/6/3 174/6/3 175/6/3
f 179/4/3 178/4/3 177/4/3
f 180/4/3 178/4/3 179/4/3
f 181/4/3 179/4/3 177/4/3
f 182/4/3 179/4/3 181/4/3
f 184/4/3 183/4/3 182/4/3
f 185/4/3 183/4/3 184/4/3
f 186/4/3 183/4/3 185/4/3
f 187/4/3 183/4/3 186/4/3
f 188/4/3 183/4/3 187/4/3
f 189/1/3 186/1/3 185/1/3
f 190/1/3 188/1/3 187/1/3
f 191/5/3 185/5/3 184/5/3
f 192/1/3 190/1/3 189/1/3
f 192/5/3 185/5/3 191/5/3
f 192/1/3 189/1/3 185/1/3
f 193/4/3 183/4/3 188/4/3
f 193/1/3 190/1/3 192/1/3
f 193/1/3 188/1/3 190/1/3
f 195/4/3 192/4/3 191/4/3
f 195/4/3 193/4/3 192/4/3
f 196/4/3 183/4/3 193/4/3
f 196/4/3 193/4/3 195/4/3
f 199/4/3 198/4/3 197/4/3
f 200/4/3 198/4/3 199/4/3
f 201/4/3 198/4/3 200/4/3
f 202/4/3 198/4/3 201/4/3
f 203/4/3 199/4/3 197/4/3
f 204/4/3 201/4/3 200/4/3
f 205/4/3 201/4/3 204/4/3
f 206/4/3 198/4/3 202/4/3
f 207/4/3 205/4/3 204/4/3
f 207/4/3 206/4/3 205/4/3
f 207/4/3 203/4/3 197/4/3
f 207/4/3 204/4/3 203/4/3
f 208/4/3 198/4/3 206/4/3
f 208/4/3 206/4/3 207/4/3
f 209/4/3 195/4/3 194/4/3
f 210/4/3 178/4/3 180/4/3
f 211/4/3 209/4/3 194/4/3
f 211/4/3 210/4/3 209/4/3
f 212/4/3 178/4/3 210/4/3
f 212/4/3 210/4/3 211/4/3
f 215/1/3 214/1/3 213/1/3
f 216/1/3 214/1/3 215/1/3
f 218/1/3 214/1/3 216/1/3
f 219/1/3 218/1/3 217/1/3
f 220/1/3 214/1/3 218/1/3
f 220/1/3 218/1/3 219/1/3
f 225/3/3 222/3/3 221/3/3
f 226/3/3 222/3/3 225/3/3
f 227/3/3 224/3/3 223/3/3
f 228/3/3 224/3/3 227/3/3
f 229/1/3 219/1/3 217/1/3
f 230/1/3 214/1/3 220/1/3
f 231/1/3 229/1/3 217/1/3
f 231/1/3 230/1/3 229/1/3
f 232/1/3 214/1/3 230/1/3
f 232/1/3 230/1/3 231/1/3
f 235/4/3 234/4/3 233/4/3
f 236/4/3 234/4/3 235/4/3
f 239/4/3 238/4/3 237/4/3
f 240/4/3 238/4/3 239/4/3
f 241/1/4 242/1/4 245/1/4
f 245/1/4 242/1/4 246/1/4
f 247/3/4 248/3/4 251/3/4
f 251/3/4 248/3/4 252/3/4
f 249/3/4 250/3/4 253/3/4
f 253/3/4 250/3/4 254/3/4
f 255/3/4 256/3/4 259/3/4
f 259/3/4 256/3/4 260/3/4
f 257/3/4 258/3/4 261/3/4
f 261/3/4 258/3/4 262/3/4
f 241/1/4 245/1/4 263/1/4
f 246/1/4 242/1/4 264/1/4
f 264/1/4 242/1/4 265/1/4
f 263/1/4 264/1/4 265/1/4
f 243/1/4 244/1/4 266/1/4
f 263/1/4 265/1/4 267/1/4
f 265/1/4 266/1/4 267/1/4
f 241/1/4 263/1/4 267/1/4
f 267/1/4 266/1/4 268/1/4
f 268/1/4 266/1/4 270/1/4
f 269/1/4 270/1/4 271/1/4
f 266/1/4 244/1/4 272/1/4
f 271/1/4 270/1/4 272/1/4
f 270/1/4 266/1/4 272/1/4
f 273/4/4 274/4/4 275/4/4
f 275/4/4 274/4/4 276/4/4
f 276/4/4 274/4/4 277/4/4
f 277/4/4 274/4/4 278/4/4
f 279/4/4 280/4/4 281/4/4
f 281/4/4 280/4/4 282/4/4
f 282/4/4 280/4/4 283/4/4
f 283/4/4 280/4/4 284/4/4
f 279/4/4 281/4/4 285/4/4
f 282/4/4 283/4/4 286/4/4
f 286/4/4 283/4/4 287/4/4
f 284/4/4 280/4/4 288/4/4
f 286/4/4 287/4/4 289/4/4
f 287/4/4 288/4/4 289/4/4
f 279/4/4 285/4/4 289/4/4
f 285/4/4 286/4/4 289/4/4
f 289/4/4 288/4/4 290/4/4
f 290/4/4 288/4/4 291/4/4
f 288/4/4 280/4/4 292/4/4
f 291/4/4 288/4/4 292/4/4
f 279/4/4 289/4/4 293/4/4
f 290/4/4 291/4/4 294/4/4
f 294/4/4 291/4/4 295/4/4
f 292/4/4 280/4/4 296/4/4
f 279/4/4 293/4/4 297/4/4
f 295/4/4 296/4/4 297/4/4
f 294/4/4 295/4/4 297/4/4
f 293/4/4 294/4/4 297/4/4
f 296/4/4 280/4/4 298/4/4
f 297/4/4 296/4/4 298/4/4
f 273/4/4 275/4/4 299/4/4
f 299/4/4 275/4/4 300/4/4
f 300/4/4 301/4/4 302/4/4
f 302/4/4 301/4/4 303/4/4
f 303/4/4 301/4/4 304/4/4
f 303/1/4 304/1/4 305/1/4
f 305/1/4 304/1/4 306/1/4
f 302/5/4 303/5/4 307/5/4
f 303/1/4 305/1/4 308/1/4
f 307/5/4 303/5/4 308/5/4
f 308/1/4 305/1/4 309/1/4
f 306/1/4 304/1/4 310/1/4
f 304/4/4 301/4/4 311/4/4
f 310/1/4 304/1/4 311/1/4
f 308/4/4 309/4/4 313/4/4
f 309/4/4 310/4/4 313/4/4
f 310/4/4 311/4/4 313/4/4
f 307/4/4 308/4/4 313/4/4
f 311/4/4 301/4/4 314/4/4
f 313/4/4 311/4/4 314/4/4
f 312/4/4 313/4/4 315/4/4
f 278/4/4 274/4/4 316/4/4
f 312/4/4 315/4/4 317/4/4
f 315/4/4 316/4/4 317/4/4
f 316/4/4 274/4/4 318/4/4
f 317/4/4 316/4/4 318/4/4
f 319/6/4 320/6/4 321/6/4
f 321/6/4 320/6/4 322/6/4
f 323/4/4 324/4/4 325/4/4
f 325/4/4 324/4/4 326/4/4
f 327/5/4 328/5/4 329/5/4
f 327/5/4 329/5/4 331/5/4
f 329/4/4 330/4/4 331/4/4
f 331/4/4 330/4/4 332/4/4
f 327/5/4 331/5/4 333/5/4
f 332/4/4 330/4/4 334/4/4
f 327/5/4 333/5/4 335/5/4
f 333/4/4 334/4/4 335/4/4
f 334/4/4 330/4/4 336/4/4
f 335/4/4 334/4/4 336/4/4
f 327/5/4 335/5/4 337/5/4
f 337/5/4 335/5/4 338/5/4
f 341/5/5 340/5/5 339/5/5
f 342/5/5 340/5/5 341/5/5
f 345/4/5 344/4/5 343/4/5
f 346/4/5 344/4/5 345/4/5
f 349/4/5 348/4/5 347/4/5
f 350/4/5 348/4/5 349/4/5
f 353/6/5 352/6/5 351/6/5
f 354/6/5 352/6/5 353/6/5
f 357/6/5 356/6/5 355/6/5
f 358/6/5 356/6/5 357/6/5
f 363/4/5 360/4/5 359/4/5
f 364/4/5 360/4/5 363/4/5
f 365/4/5 362/4/5 361/4/5
f 366/4/5 362/4/5 365/4/5
f 369/4/5 368/4/5 367/4/5
f 370/4/5 368/4/5 369/4/5
f 375/4/5 372/4/5 371/4/5
f 376/4/5 372/4/5 375/4/5
f 377/4/5 374/4/5 373/4/5
f 378/4/5 374/4/5 377/4/5
f 381/4/5 380/4/5 379/4/5
f 382/4/5 380/4/5 381/4/5
f 385/4/5 384/4/5 383/4/5
f 386/4/5 384/4/5 385/4/5
f 387/4/5 384/4/5 386/4/5
f 388/4/5 384/4/5 387/4/5
f 389/4/5 384/4/5 388/4/5
f 390/4/5 388/4/5 387/4/5
f 391/4/5 388/4/5 390/4/5
f 394/4/5 393/4/5 392/4/5
f 395/4/5 393/4/5 394/4/5
f 398/4/5 397/4/5 396/4/5
f 399/4/5 397/4/5 398/4/5
f 400/5/6 401/5/6 402/5/6
f 402/5/6 401/5/6 403/5/6
f 400/5/6 402/5/6 404/5/6
f 404/5/6 402/5/6 405/5/6
f 403/5/6 401/5/6 406/5/6
f 406/5/6 401/5/6 407/5/6
f 408/5/6 409/5/6 412/5/6
f 410/5/6 411/5/6 413/5/6
f 408/5/6 412/5/6 414/5/6
f 412/5/6 413/5/6 414/5/6
f 414/5/6 413/5/6 415/5/6
f 415/5/6 413/5/6 416/5/6
f 416/5/6 413/5/6 417/5/6
f 408/5/6 414/5/6 418/5/6
f 418/5/6 414/5/6 419/5/6
f 415/5/6 416/5/6 420/5/6
f 420/5/6 416/5/6 421/5/6
f 417/5/6 413/5/6 422/5/6
f 413/5/6 411/5/6 423/5/6
f 422/5/6 413/5/6 423/5/6
f 424/4/6 425/4/6 427/4/6
f 427/4/6 425/4/6 428/4/6
f 428/4/6 425/4/6 429/4/6
f 429/4/6 425/4/6 430/4/6
f 426/4/6 427/4/6 432/4/6
f 432/4/6 427/4/6 433/4/6
f 430/4/6 431/4/6 434/4/6
f 434/4/6 431/4/6 435/4/6
f 436/4/6 437/4/6 440/4/6
f 440/4/6 437/4/6 441/4/6
f 438/4/6 439/4/6 444/4/6
f 444/4/6 439/4/6 445/4/6
f 442/4/6 443/4/6 446/4/6
f 443/4/6 444/4/6 446/4/6
f 441/4/6 442/4/6 446/4/6
f 446/4/6 444/4/6 447/4/6
f 448/4/6 449/4/6 450/4/6
f 450/4/6 449/4/6 451/4/6
f 452/4/6 453/4/6 456/4/6
f 456/4/6 453/4/6 457/4/6
f 454/4/6 455/4/6 458/4/6
f 458/4/6 455/4/6 459/4/6
f 460/6/6 461/6/6 462/6/6
f 462/6/6 461/6/6 463/6/6
f 464/6/6 465/6/6 466/6/6
f 466/6/6 465/6/6 467/6/6
f 468/4/6 469/4/6 472/4/6
f 472/4/6 469/4/6 473/4/6
f 470/4/6 471/4/6 474/4/6
f 474/4/6 471/4/6 475/4/6
f 476/4/6 477/4/6 478/4/6
f 478/4/6 477/4/6 479/4/6
f 480/4/6 481/4/6 482/4/6
f 482/4/6 481/4/6 483/4/6
f 484/4/6 485/4/6 488/4/6
f 488/4/6 485/4/6 489/4/6
f 486/4/6 487/4/6 490/4/6
f 490/4/6 487/4/6 491/4/6
f 492/4/6 493/4/6 494/4/6
f 494/4/6 493/4/6 495/4/6
f 496/4/6 497/4/6 498/4/6
f 498/4/6 497/4/6 499/4/6
f 499/4/6 497/4/6 500/4/6
f 501/4/6 502/4/6 503/4/6
f 503/4/6 502/4/6 504/4/6
