# MagicaVoxel @ Ephtracy

# group
o 

# material
mtllib landBush2.mtl
usemtl palette

# normals
vn -1 0 0
vn 1 0 0
vn 0 0 1
vn 0 0 -1
vn 0 -1 0
vn 0 1 0

# texcoords
vt 0.880859 0.5
vt 0.884766 0.5
vt 0.888672 0.5
vt 0.896484 0.5
vt 0.900391 0.5
vt 0.904297 0.5

# verts
v -0.3 0 0.3
v -0.3 0 0.2
v -0.3 0 0.1
v -0.3 0 0
v -0.3 0 -0.1
v -0.3 0 -0.2
v -0.3 0.1 0.3
v -0.3 0.1 0.2
v -0.3 0.1 0.1
v -0.3 0.1 0
v -0.3 0.1 -0.1
v -0.3 0.1 -0.2
v -0.3 0.2 0.3
v -0.3 0.2 0.2
v -0.3 0.2 0.1
v -0.3 0.2 0
v -0.3 0.2 -0.1
v -0.3 0.2 -0.2
v -0.3 0.3 0.3
v -0.3 0.3 0.2
v -0.3 0.3 0.1
v -0.3 0.3 0
v -0.3 0.3 -0.1
v -0.3 0.3 -0.2
v -0.3 0.4 0.2
v -0.3 0.4 0.1
v -0.3 0.4 0
v -0.3 0.4 -0.1
v -0.2 0.3 0.3
v -0.2 0.3 0.2
v -0.2 0.3 -0.1
v -0.2 0.3 -0.2
v -0.2 0.4 0.3
v -0.2 0.4 0.2
v -0.2 0.4 -0.1
v -0.2 0.4 -0.2
v 0.1 0.3 0.3
v 0.1 0.3 0.2
v 0.1 0.3 -0.1
v 0.1 0.3 -0.2
v 0.1 0.4 0.3
v 0.1 0.4 0.2
v 0.1 0.4 -0.1
v 0.1 0.4 -0.2
v 0.2 0 0.3
v 0.2 0 0.2
v 0.2 0 0.1
v 0.2 0 -0.1
v 0.2 0 -0.2
v 0.2 0.1 0.3
v 0.2 0.1 0.2
v 0.2 0.1 0.1
v 0.2 0.1 0
v 0.2 0.1 -0.1
v 0.2 0.1 -0.2
v 0.2 0.2 0.3
v 0.2 0.2 0.2
v 0.2 0.2 0.1
v 0.2 0.2 0
v 0.2 0.2 -0.1
v 0.2 0.2 -0.2
v 0.2 0.3 0.3
v 0.2 0.3 0.2
v 0.2 0.3 0.1
v 0.2 0.3 0
v 0.2 0.3 -0.1
v 0.2 0.3 -0.2
v 0.2 0.4 0.2
v 0.2 0.4 0.1
v 0.2 0.4 0
v 0.2 0.4 -0.1
v -0.3 0 0.3
v -0.3 0.1 0.3
v -0.3 0.2 0.3
v -0.3 0.3 0.3
v -0.2 0 0.3
v -0.2 0.1 0.3
v -0.2 0.2 0.3
v -0.2 0.3 0.3
v -0.2 0.4 0.3
v -0.1 0 0.3
v -0.1 0.1 0.3
v -0.1 0.2 0.3
v -0.1 0.3 0.3
v -0.1 0.4 0.3
v 0 0 0.3
v 0 0.1 0.3
v 0 0.2 0.3
v 0 0.3 0.3
v 0 0.4 0.3
v 0.1 0 0.3
v 0.1 0.1 0.3
v 0.1 0.2 0.3
v 0.1 0.3 0.3
v 0.1 0.4 0.3
v 0.2 0 0.3
v 0.2 0.1 0.3
v 0.2 0.2 0.3
v 0.2 0.3 0.3
v -0.3 0.3 0.2
v -0.3 0.4 0.2
v -0.2 0.3 0.2
v -0.2 0.4 0.2
v 0.1 0.3 0.2
v 0.1 0.4 0.2
v 0.2 0.3 0.2
v 0.2 0.4 0.2
v -0.3 0.3 -0.1
v -0.3 0.4 -0.1
v -0.2 0.3 -0.1
v -0.2 0.4 -0.1
v 0.1 0.3 -0.1
v 0.1 0.4 -0.1
v 0.2 0.3 -0.1
v 0.2 0.4 -0.1
v -0.3 0 -0.2
v -0.3 0.1 -0.2
v -0.3 0.2 -0.2
v -0.3 0.3 -0.2
v -0.2 0 -0.2
v -0.2 0.1 -0.2
v -0.2 0.2 -0.2
v -0.2 0.3 -0.2
v -0.2 0.4 -0.2
v -0.1 0 -0.2
v -0.1 0.1 -0.2
v -0.1 0.2 -0.2
v -0.1 0.3 -0.2
v -0.1 0.4 -0.2
v 0 0 -0.2
v 0 0.1 -0.2
v 0 0.2 -0.2
v 0 0.3 -0.2
v 0 0.4 -0.2
v 0.1 0 -0.2
v 0.1 0.1 -0.2
v 0.1 0.2 -0.2
v 0.1 0.3 -0.2
v 0.1 0.4 -0.2
v 0.2 0 -0.2
v 0.2 0.1 -0.2
v 0.2 0.2 -0.2
v 0.2 0.3 -0.2
v -0.3 0 0.3
v -0.2 0 0.3
v -0.1 0 0.3
v 0 0 0.3
v 0.1 0 0.3
v 0.2 0 0.3
v -0.3 0 0.2
v -0.2 0 0.2
v -0.1 0 0.2
v 0 0 0.2
v 0.1 0 0.2
v 0.2 0 0.2
v -0.3 0 0.1
v -0.2 0 0.1
v -0.1 0 0.1
v 0 0 0.1
v 0.1 0 0.1
v 0.2 0 0.1
v -0.3 0 0
v -0.2 0 0
v -0.1 0 0
v 0 0 0
v -0.3 0 -0.1
v -0.2 0 -0.1
v -0.1 0 -0.1
v 0 0 -0.1
v 0.1 0 -0.1
v 0.2 0 -0.1
v -0.3 0 -0.2
v -0.2 0 -0.2
v -0.1 0 -0.2
v 0 0 -0.2
v 0.1 0 -0.2
v 0.2 0 -0.2
v -0.3 0.3 0.3
v -0.2 0.3 0.3
v 0.1 0.3 0.3
v 0.2 0.3 0.3
v -0.3 0.3 0.2
v -0.2 0.3 0.2
v 0.1 0.3 0.2
v 0.2 0.3 0.2
v -0.3 0.3 -0.1
v -0.2 0.3 -0.1
v 0.1 0.3 -0.1
v 0.2 0.3 -0.1
v -0.3 0.3 -0.2
v -0.2 0.3 -0.2
v 0.1 0.3 -0.2
v 0.2 0.3 -0.2
v -0.2 0.4 0.3
v -0.1 0.4 0.3
v 0 0.4 0.3
v 0.1 0.4 0.3
v -0.3 0.4 0.2
v -0.2 0.4 0.2
v -0.1 0.4 0.2
v 0 0.4 0.2
v 0.1 0.4 0.2
v 0.2 0.4 0.2
v -0.3 0.4 0.1
v -0.2 0.4 0.1
v -0.1 0.4 0.1
v 0 0.4 0.1
v 0.1 0.4 0.1
v 0.2 0.4 0.1
v -0.3 0.4 0
v -0.2 0.4 0
v -0.1 0.4 0
v 0 0.4 0
v 0.1 0.4 0
v 0.2 0.4 0
v -0.3 0.4 -0.1
v -0.2 0.4 -0.1
v -0.1 0.4 -0.1
v 0 0.4 -0.1
v 0.1 0.4 -0.1
v 0.2 0.4 -0.1
v -0.2 0.4 -0.2
v -0.1 0.4 -0.2
v 0 0.4 -0.2
v 0.1 0.4 -0.2

# faces
f 7/3/1 2/3/1 1/3/1
f 8/5/1 3/5/1 2/5/1
f 8/3/1 2/3/1 7/3/1
f 9/1/1 4/1/1 3/1/1
f 9/5/1 3/5/1 8/5/1
f 10/5/1 5/5/1 4/5/1
f 10/1/1 4/1/1 9/1/1
f 11/4/1 6/4/1 5/4/1
f 11/5/1 5/5/1 10/5/1
f 12/4/1 6/4/1 11/4/1
f 13/5/1 8/5/1 7/5/1
f 14/6/1 9/6/1 8/6/1
f 14/5/1 8/5/1 13/5/1
f 15/5/1 10/5/1 9/5/1
f 15/6/1 9/6/1 14/6/1
f 16/6/1 11/6/1 10/6/1
f 16/5/1 10/5/1 15/5/1
f 17/3/1 12/3/1 11/3/1
f 17/6/1 11/6/1 16/6/1
f 18/3/1 12/3/1 17/3/1
f 19/3/1 14/3/1 13/3/1
f 20/5/1 15/5/1 14/5/1
f 20/3/1 14/3/1 19/3/1
f 21/1/1 16/1/1 15/1/1
f 21/5/1 15/5/1 20/5/1
f 22/5/1 17/5/1 16/5/1
f 22/1/1 16/1/1 21/1/1
f 23/4/1 18/4/1 17/4/1
f 23/5/1 17/5/1 22/5/1
f 24/4/1 18/4/1 23/4/1
f 25/6/1 21/6/1 20/6/1
f 26/5/1 22/5/1 21/5/1
f 26/6/1 21/6/1 25/6/1
f 27/6/1 23/6/1 22/6/1
f 27/5/1 22/5/1 26/5/1
f 28/6/1 23/6/1 27/6/1
f 33/6/1 30/6/1 29/6/1
f 34/6/1 30/6/1 33/6/1
f 35/5/1 32/5/1 31/5/1
f 36/5/1 32/5/1 35/5/1
f 37/6/2 38/6/2 41/6/2
f 41/6/2 38/6/2 42/6/2
f 39/5/2 40/5/2 43/5/2
f 43/5/2 40/5/2 44/5/2
f 45/1/2 46/1/2 50/1/2
f 46/4/2 47/4/2 51/4/2
f 50/1/2 46/1/2 51/1/2
f 47/5/2 48/5/2 52/5/2
f 51/4/2 47/4/2 52/4/2
f 52/5/2 48/5/2 53/5/2
f 48/4/2 49/4/2 54/4/2
f 53/5/2 48/5/2 54/5/2
f 54/4/2 49/4/2 55/4/2
f 50/5/2 51/5/2 56/5/2
f 51/6/2 52/6/2 57/6/2
f 56/5/2 51/5/2 57/5/2
f 52/3/2 53/3/2 58/3/2
f 57/6/2 52/6/2 58/6/2
f 53/5/2 54/5/2 59/5/2
f 58/3/2 53/3/2 59/3/2
f 54/3/2 55/3/2 60/3/2
f 59/5/2 54/5/2 60/5/2
f 60/3/2 55/3/2 61/3/2
f 56/1/2 57/1/2 62/1/2
f 57/4/2 58/4/2 63/4/2
f 62/1/2 57/1/2 63/1/2
f 58/5/2 59/5/2 64/5/2
f 63/4/2 58/4/2 64/4/2
f 59/5/2 60/5/2 64/5/2
f 64/5/2 60/5/2 65/5/2
f 60/4/2 61/4/2 66/4/2
f 65/5/2 60/5/2 66/5/2
f 66/4/2 61/4/2 67/4/2
f 63/6/2 64/6/2 68/6/2
f 64/3/2 65/3/2 69/3/2
f 68/6/2 64/6/2 69/6/2
f 65/5/2 66/5/2 70/5/2
f 69/3/2 65/3/2 70/3/2
f 70/5/2 66/5/2 71/5/2
f 76/3/3 73/3/3 72/3/3
f 77/5/3 74/5/3 73/5/3
f 77/3/3 73/3/3 76/3/3
f 78/3/3 75/3/3 74/3/3
f 78/5/3 74/5/3 77/5/3
f 79/3/3 75/3/3 78/3/3
f 81/4/3 77/4/3 76/4/3
f 82/6/3 78/6/3 77/6/3
f 82/4/3 77/4/3 81/4/3
f 83/4/3 79/4/3 78/4/3
f 83/6/3 78/6/3 82/6/3
f 84/6/3 80/6/3 79/6/3
f 84/4/3 79/4/3 83/4/3
f 85/6/3 80/6/3 84/6/3
f 86/3/3 82/3/3 81/3/3
f 87/5/3 83/5/3 82/5/3
f 87/3/3 82/3/3 86/3/3
f 88/3/3 84/3/3 83/3/3
f 88/5/3 83/5/3 87/5/3
f 89/5/3 85/5/3 84/5/3
f 89/3/3 84/3/3 88/3/3
f 90/5/3 85/5/3 89/5/3
f 91/4/3 87/4/3 86/4/3
f 92/6/3 88/6/3 87/6/3
f 92/4/3 87/4/3 91/4/3
f 93/4/3 89/4/3 88/4/3
f 93/6/3 88/6/3 92/6/3
f 94/6/3 90/6/3 89/6/3
f 94/4/3 89/4/3 93/4/3
f 95/6/3 90/6/3 94/6/3
f 96/1/3 92/1/3 91/1/3
f 97/5/3 93/5/3 92/5/3
f 97/1/3 92/1/3 96/1/3
f 98/1/3 94/1/3 93/1/3
f 98/5/3 93/5/3 97/5/3
f 99/1/3 94/1/3 98/1/3
f 102/6/3 101/6/3 100/6/3
f 103/6/3 101/6/3 102/6/3
f 106/6/3 105/6/3 104/6/3
f 107/6/3 105/6/3 106/6/3
f 108/6/4 109/6/4 110/6/4
f 110/6/4 109/6/4 111/6/4
f 112/5/4 113/5/4 114/5/4
f 114/5/4 113/5/4 115/5/4
f 116/4/4 117/4/4 120/4/4
f 117/3/4 118/3/4 121/3/4
f 120/4/4 117/4/4 121/4/4
f 118/4/4 119/4/4 122/4/4
f 121/3/4 118/3/4 122/3/4
f 122/4/4 119/4/4 123/4/4
f 120/1/4 121/1/4 125/1/4
f 121/5/4 122/5/4 126/5/4
f 125/1/4 121/1/4 126/1/4
f 122/1/4 123/1/4 127/1/4
f 126/5/4 122/5/4 127/5/4
f 123/5/4 124/5/4 128/5/4
f 127/1/4 123/1/4 128/1/4
f 128/5/4 124/5/4 129/5/4
f 125/4/4 126/4/4 130/4/4
f 126/3/4 127/3/4 131/3/4
f 130/4/4 126/4/4 131/4/4
f 127/4/4 128/4/4 132/4/4
f 131/3/4 127/3/4 132/3/4
f 128/3/4 129/3/4 133/3/4
f 132/4/4 128/4/4 133/4/4
f 133/3/4 129/3/4 134/3/4
f 130/1/4 131/1/4 135/1/4
f 131/5/4 132/5/4 136/5/4
f 135/1/4 131/1/4 136/1/4
f 132/1/4 133/1/4 137/1/4
f 136/5/4 132/5/4 137/5/4
f 133/5/4 134/5/4 138/5/4
f 137/1/4 133/1/4 138/1/4
f 138/5/4 134/5/4 139/5/4
f 135/4/4 136/4/4 140/4/4
f 136/3/4 137/3/4 141/3/4
f 140/4/4 136/4/4 141/4/4
f 137/4/4 138/4/4 142/4/4
f 141/3/4 137/3/4 142/3/4
f 142/4/4 138/4/4 143/4/4
f 150/3/5 145/3/5 144/3/5
f 151/4/5 146/4/5 145/4/5
f 151/3/5 145/3/5 150/3/5
f 152/3/5 147/3/5 146/3/5
f 152/4/5 146/4/5 151/4/5
f 153/4/5 148/4/5 147/4/5
f 153/3/5 147/3/5 152/3/5
f 154/1/5 149/1/5 148/1/5
f 154/4/5 148/4/5 153/4/5
f 155/1/5 149/1/5 154/1/5
f 156/5/5 151/5/5 150/5/5
f 157/4/5 152/4/5 151/4/5
f 157/5/5 151/5/5 156/5/5
f 158/5/5 153/5/5 152/5/5
f 158/4/5 152/4/5 157/4/5
f 159/4/5 154/4/5 153/4/5
f 159/5/5 153/5/5 158/5/5
f 159/4/5 155/4/5 154/4/5
f 160/4/5 155/4/5 159/4/5
f 161/4/5 155/4/5 160/4/5
f 162/1/5 157/1/5 156/1/5
f 163/4/5 158/4/5 157/4/5
f 163/1/5 157/1/5 162/1/5
f 164/1/5 159/1/5 158/1/5
f 164/4/5 158/4/5 163/4/5
f 165/4/5 160/4/5 159/4/5
f 165/1/5 159/1/5 164/1/5
f 166/5/5 163/5/5 162/5/5
f 167/4/5 164/4/5 163/4/5
f 167/5/5 163/5/5 166/5/5
f 168/5/5 165/5/5 164/5/5
f 168/4/5 164/4/5 167/4/5
f 169/4/5 160/4/5 165/4/5
f 169/5/5 165/5/5 168/5/5
f 170/5/5 161/5/5 160/5/5
f 170/4/5 160/4/5 169/4/5
f 171/5/5 161/5/5 170/5/5
f 172/4/5 167/4/5 166/4/5
f 173/1/5 168/1/5 167/1/5
f 173/4/5 167/4/5 172/4/5
f 174/4/5 169/4/5 168/4/5
f 174/1/5 168/1/5 173/1/5
f 175/1/5 170/1/5 169/1/5
f 175/4/5 169/4/5 174/4/5
f 176/4/5 171/4/5 170/4/5
f 176/1/5 170/1/5 175/1/5
f 177/4/5 171/4/5 176/4/5
f 178/3/6 179/3/6 182/3/6
f 182/3/6 179/3/6 183/3/6
f 180/1/6 181/1/6 184/1/6
f 184/1/6 181/1/6 185/1/6
f 186/4/6 187/4/6 190/4/6
f 190/4/6 187/4/6 191/4/6
f 188/4/6 189/4/6 192/4/6
f 192/4/6 189/4/6 193/4/6
f 194/6/6 195/6/6 199/6/6
f 195/5/6 196/5/6 200/5/6
f 199/6/6 195/6/6 200/6/6
f 196/6/6 197/6/6 201/6/6
f 200/5/6 196/5/6 201/5/6
f 201/6/6 197/6/6 202/6/6
f 198/6/6 199/6/6 204/6/6
f 199/1/6 200/1/6 205/1/6
f 204/6/6 199/6/6 205/6/6
f 200/6/6 201/6/6 206/6/6
f 205/1/6 200/1/6 206/1/6
f 201/1/6 202/1/6 207/1/6
f 206/6/6 201/6/6 207/6/6
f 202/6/6 203/6/6 208/6/6
f 207/1/6 202/1/6 208/1/6
f 208/6/6 203/6/6 209/6/6
f 204/5/6 205/5/6 210/5/6
f 205/6/6 206/6/6 211/6/6
f 210/5/6 205/5/6 211/5/6
f 206/5/6 207/5/6 212/5/6
f 211/6/6 206/6/6 212/6/6
f 207/6/6 208/6/6 213/6/6
f 212/5/6 207/5/6 213/5/6
f 208/3/6 209/3/6 214/3/6
f 213/6/6 208/6/6 214/6/6
f 214/3/6 209/3/6 215/3/6
f 210/6/6 211/6/6 216/6/6
f 211/2/6 212/2/6 217/2/6
f 216/6/6 211/6/6 217/6/6
f 212/6/6 213/6/6 218/6/6
f 217/2/6 212/2/6 218/2/6
f 213/2/6 214/2/6 219/2/6
f 218/6/6 213/6/6 219/6/6
f 214/5/6 215/5/6 220/5/6
f 219/2/6 214/2/6 220/2/6
f 220/5/6 215/5/6 221/5/6
f 217/5/6 218/5/6 222/5/6
f 218/3/6 219/3/6 223/3/6
f 222/5/6 218/5/6 223/5/6
f 219/5/6 220/5/6 224/5/6
f 223/3/6 219/3/6 224/3/6
f 224/5/6 220/5/6 225/5/6
