# MagicaVoxel @ Ephtracy

# group
o 

# material
mtllib roadLine8Street.mtl
usemtl palette

# normals
vn -1 0 0
vn 1 0 0
vn 0 0 -1
vn 0 0 1
vn 0 -1 0
vn 0 1 0

# texcoords
vt 0.974609 0.5
vt 0.986328 0.5

# verts
v -12.4 0 -12.8
v -12.4 0 12.8
v -12.4 0.7 -12.8
v -12.4 0.7 12.8
v -12.4 0.8 -12.8
v -12.4 0.8 12.8
v 5 0 -12.8
v 5 0 12.8
v 5 0.7 -12.8
v 5 0.7 12.8
v 5 0.8 -12.8
v 5 0.8 12.8
v -4.9 0 -12.8
v -4.9 0 12.8
v -4.9 0.6 -12.8
v -4.9 0.6 12.8
v -4.9 0.8 -12.8
v -4.9 0.8 12.8
v 12.5 0 -12.8
v 12.5 0 12.8
v 12.5 0.7 -12.8
v 12.5 0.7 12.8
v 12.5 0.8 -12.8
v 12.5 0.8 12.8
v -12.4 0 -12.8
v -12.4 0.7 -12.8
v -12.4 0.8 -12.8
v -11.3 0.7 -12.8
v -11.3 0.8 -12.8
v -6.1 0.6 -12.8
v -6.1 0.8 -12.8
v -6 0.6 -12.8
v -6 0.7 -12.8
v -5 0.6 -12.8
v -5 0.7 -12.8
v -4.9 0 -12.8
v -4.9 0.6 -12.8
v -4.9 0.8 -12.8
v 5 0 -12.8
v 5 0.7 -12.8
v 5 0.8 -12.8
v 6.1 0.7 -12.8
v 6.1 0.8 -12.8
v 11.3 0.7 -12.8
v 11.3 0.8 -12.8
v 12.5 0 -12.8
v 12.5 0.7 -12.8
v 12.5 0.8 -12.8
v -12.4 0 12.8
v -12.4 0.7 12.8
v -12.4 0.8 12.8
v -11.3 0.7 12.8
v -11.3 0.8 12.8
v -6.1 0.6 12.8
v -6.1 0.8 12.8
v -4.9 0 12.8
v -4.9 0.6 12.8
v -4.9 0.8 12.8
v 5 0 12.8
v 5 0.7 12.8
v 5 0.8 12.8
v 6.1 0.7 12.8
v 6.1 0.8 12.8
v 11.3 0.7 12.8
v 11.3 0.8 12.8
v 12.5 0 12.8
v 12.5 0.7 12.8
v 12.5 0.8 12.8
v -12.4 0 -12.8
v -4.9 0 -12.8
v 5 0 -12.8
v 12.5 0 -12.8
v -12.4 0 12.8
v -4.9 0 12.8
v 5 0 12.8
v 12.5 0 12.8
v -12.4 0.8 -12.8
v -11.3 0.8 -12.8
v -6.1 0.8 -12.8
v -4.9 0.8 -12.8
v 5 0.8 -12.8
v 6.1 0.8 -12.8
v 11.3 0.8 -12.8
v 12.5 0.8 -12.8
v -12.4 0.8 12.8
v -11.3 0.8 12.8
v -6.1 0.8 12.8
v -4.9 0.8 12.8
v 5 0.8 12.8
v 6.1 0.8 12.8
v 11.3 0.8 12.8
v 12.5 0.8 12.8

# faces
f 1/2/1 2/2/1 3/2/1
f 3/2/1 2/2/1 4/2/1
f 3/1/1 4/1/1 5/1/1
f 5/1/1 4/1/1 6/1/1
f 7/2/1 8/2/1 9/2/1
f 9/2/1 8/2/1 10/2/1
f 9/1/1 10/1/1 11/1/1
f 11/1/1 10/1/1 12/1/1
f 15/2/2 14/2/2 13/2/2
f 16/2/2 14/2/2 15/2/2
f 17/1/2 16/1/2 15/1/2
f 18/1/2 16/1/2 17/1/2
f 21/2/2 20/2/2 19/2/2
f 22/2/2 20/2/2 21/2/2
f 23/1/2 22/1/2 21/1/2
f 24/1/2 22/1/2 23/1/2
f 25/2/3 26/2/3 28/2/3
f 26/1/3 27/1/3 28/1/3
f 28/1/3 27/1/3 29/1/3
f 25/2/3 28/2/3 30/2/3
f 28/2/3 29/2/3 30/2/3
f 30/2/3 29/2/3 31/2/3
f 25/2/3 30/2/3 32/2/3
f 30/1/3 31/1/3 32/1/3
f 32/1/3 31/1/3 33/1/3
f 25/2/3 32/2/3 34/2/3
f 32/2/3 33/2/3 34/2/3
f 33/1/3 31/1/3 35/1/3
f 34/2/3 33/2/3 35/2/3
f 25/2/3 34/2/3 36/2/3
f 34/1/3 35/1/3 37/1/3
f 36/2/3 34/2/3 37/2/3
f 35/1/3 31/1/3 38/1/3
f 37/1/3 35/1/3 38/1/3
f 39/2/3 40/2/3 42/2/3
f 40/1/3 41/1/3 42/1/3
f 42/1/3 41/1/3 43/1/3
f 39/2/3 42/2/3 44/2/3
f 42/2/3 43/2/3 44/2/3
f 44/2/3 43/2/3 45/2/3
f 39/2/3 44/2/3 46/2/3
f 44/1/3 45/1/3 47/1/3
f 46/2/3 44/2/3 47/2/3
f 47/1/3 45/1/3 48/1/3
f 52/2/4 50/2/4 49/2/4
f 52/1/4 51/1/4 50/1/4
f 53/1/4 51/1/4 52/1/4
f 54/2/4 52/2/4 49/2/4
f 54/2/4 53/2/4 52/2/4
f 55/2/4 53/2/4 54/2/4
f 56/2/4 54/2/4 49/2/4
f 57/1/4 55/1/4 54/1/4
f 57/2/4 54/2/4 56/2/4
f 58/1/4 55/1/4 57/1/4
f 62/2/4 60/2/4 59/2/4
f 62/1/4 61/1/4 60/1/4
f 63/1/4 61/1/4 62/1/4
f 64/2/4 62/2/4 59/2/4
f 64/2/4 63/2/4 62/2/4
f 65/2/4 63/2/4 64/2/4
f 66/2/4 64/2/4 59/2/4
f 67/1/4 65/1/4 64/1/4
f 67/2/4 64/2/4 66/2/4
f 68/1/4 65/1/4 67/1/4
f 69/2/5 70/2/5 73/2/5
f 73/2/5 70/2/5 74/2/5
f 71/2/5 72/2/5 75/2/5
f 75/2/5 72/2/5 76/2/5
f 85/1/6 78/1/6 77/1/6
f 86/2/6 79/2/6 78/2/6
f 86/1/6 78/1/6 85/1/6
f 87/1/6 80/1/6 79/1/6
f 87/2/6 79/2/6 86/2/6
f 88/1/6 80/1/6 87/1/6
f 89/1/6 82/1/6 81/1/6
f 90/2/6 83/2/6 82/2/6
f 90/1/6 82/1/6 89/1/6
f 91/1/6 84/1/6 83/1/6
f 91/2/6 83/2/6 90/2/6
f 92/1/6 84/1/6 91/1/6
