# MagicaVoxel @ Ephtracy

# group
o 

# material
mtllib ExitGamePanel.mtl
usemtl palette

# normals
vn -1 0 0
vn 1 0 0
vn 0 0 1
vn 0 0 -1
vn 0 -1 0
vn 0 1 0

# texcoords
vt 0.845703 0.5
vt 0.849609 0.5
vt 0.958984 0.5

# verts
v -0.3 -1 2.6
v -0.3 -1 -0.9
v -0.3 -0.9 2.7
v -0.3 -0.9 2.6
v -0.3 -0.9 -0.9
v -0.3 -0.9 -1
v -0.3 -0.8 2.8
v -0.3 -0.8 2.7
v -0.3 -0.8 2.5
v -0.3 -0.8 -0.9
v -0.3 -0.8 -1
v -0.3 -0.8 -1.1
v -0.3 -0.7 2.6
v -0.3 -0.7 2.5
v -0.3 0.9 2.8
v -0.3 0.9 2.6
v -0.3 0.9 -0.9
v -0.3 0.9 -1
v -0.3 0.9 -1.1
v -0.3 1 -0.9
v -0.3 1 -1
v -0.3 1.1 2.6
v -0.3 1.1 -0.9
v -0.2 0.9 2.7
v -0.2 0.9 2.6
v -0.2 1 2.7
v -0.2 1 2.6
v -0.2 -0.8 2.5
v -0.2 -0.8 -0.9
v -0.2 -0.7 2.6
v -0.2 -0.7 2.5
v -0.2 -0.6 2.4
v -0.2 -0.6 1.5
v -0.2 -0.6 1.4
v -0.2 -0.6 1.2
v -0.2 -0.6 0.8
v -0.2 -0.6 0.6
v -0.2 -0.6 0.5
v -0.2 -0.6 0.3
v -0.2 -0.6 -0.2
v -0.2 -0.6 -0.4
v -0.2 -0.4 2.3
v -0.2 -0.4 1.5
v -0.2 -0.4 1.4
v -0.2 -0.4 1.3
v -0.2 -0.4 1.2
v -0.2 -0.4 1.1
v -0.2 -0.4 0.9
v -0.2 -0.4 0.8
v -0.2 -0.4 0.7
v -0.2 -0.4 0.6
v -0.2 -0.2 1.3
v -0.2 -0.2 1.2
v -0.2 -0.2 1.1
v -0.2 -0.2 0.9
v -0.2 -0.2 0.8
v -0.2 -0.2 0.7
v -0.2 0 1.2
v -0.2 0 1.1
v -0.2 0 0.9
v -0.2 0 0.8
v -0.2 0.1 2.3
v -0.2 0.1 1.9
v -0.2 0.2 2.3
v -0.2 0.2 1.9
v -0.2 0.2 1.2
v -0.2 0.2 1.1
v -0.2 0.2 0.9
v -0.2 0.2 0.8
v -0.2 0.4 1.3
v -0.2 0.4 1.2
v -0.2 0.4 1.1
v -0.2 0.4 0.9
v -0.2 0.4 0.8
v -0.2 0.4 0.7
v -0.2 0.6 2.3
v -0.2 0.6 1.5
v -0.2 0.6 1.4
v -0.2 0.6 1.3
v -0.2 0.6 1.2
v -0.2 0.6 1.1
v -0.2 0.6 0.9
v -0.2 0.6 0.8
v -0.2 0.6 0.7
v -0.2 0.6 0.6
v -0.2 0.6 0.1
v -0.2 0.6 -0.2
v -0.2 0.6 -0.4
v -0.2 0.6 -0.7
v -0.2 0.8 2.4
v -0.2 0.8 1.5
v -0.2 0.8 1.4
v -0.2 0.8 1.2
v -0.2 0.8 0.8
v -0.2 0.8 0.6
v -0.2 0.8 0.5
v -0.2 0.8 0.3
v -0.2 0.8 0.1
v -0.2 0.8 -0.7
v -0.2 0.9 2.6
v -0.2 0.9 -0.9
v -0.1 -0.6 2.4
v -0.1 -0.6 1.5
v -0.1 -0.6 1.4
v -0.1 -0.6 1.2
v -0.1 -0.6 0.8
v -0.1 -0.6 0.6
v -0.1 -0.6 0.5
v -0.1 -0.6 0.3
v -0.1 -0.6 -0.2
v -0.1 -0.6 -0.4
v -0.1 -0.4 2.3
v -0.1 -0.4 1.5
v -0.1 -0.4 1.4
v -0.1 -0.4 1.3
v -0.1 -0.4 1.2
v -0.1 -0.4 1.1
v -0.1 -0.4 0.9
v -0.1 -0.4 0.8
v -0.1 -0.4 0.7
v -0.1 -0.4 0.6
v -0.1 -0.2 1.3
v -0.1 -0.2 1.2
v -0.1 -0.2 1.1
v -0.1 -0.2 0.9
v -0.1 -0.2 0.8
v -0.1 -0.2 0.7
v -0.1 0 1.2
v -0.1 0 1.1
v -0.1 0 0.9
v -0.1 0 0.8
v -0.1 0.1 2.3
v -0.1 0.1 1.9
v -0.1 0.2 2.3
v -0.1 0.2 1.9
v -0.1 0.2 1.2
v -0.1 0.2 1.1
v -0.1 0.2 0.9
v -0.1 0.2 0.8
v -0.1 0.4 1.3
v -0.1 0.4 1.2
v -0.1 0.4 1.1
v -0.1 0.4 0.9
v -0.1 0.4 0.8
v -0.1 0.4 0.7
v -0.1 0.6 2.3
v -0.1 0.6 1.5
v -0.1 0.6 1.4
v -0.1 0.6 1.3
v -0.1 0.6 1.2
v -0.1 0.6 1.1
v -0.1 0.6 0.9
v -0.1 0.6 0.8
v -0.1 0.6 0.7
v -0.1 0.6 0.6
v -0.1 0.6 0.1
v -0.1 0.6 -0.2
v -0.1 0.6 -0.4
v -0.1 0.6 -0.7
v -0.1 0.8 2.4
v -0.1 0.8 1.5
v -0.1 0.8 1.4
v -0.1 0.8 1.2
v -0.1 0.8 0.8
v -0.1 0.8 0.6
v -0.1 0.8 0.5
v -0.1 0.8 0.3
v -0.1 0.8 0.1
v -0.1 0.8 -0.7
v 0.3 -1 2.6
v 0.3 -1 -0.9
v 0.3 -0.9 2.7
v 0.3 -0.9 2.6
v 0.3 -0.9 -0.9
v 0.3 -0.9 -1
v 0.3 -0.8 2.8
v 0.3 -0.8 2.7
v 0.3 -0.8 2.5
v 0.3 -0.8 -0.9
v 0.3 -0.8 -1
v 0.3 -0.8 -1.1
v 0.3 -0.7 2.6
v 0.3 -0.7 2.5
v 0.3 0.9 2.8
v 0.3 0.9 2.7
v 0.3 0.9 2.6
v 0.3 0.9 -0.9
v 0.3 0.9 -1
v 0.3 0.9 -1.1
v 0.3 1 2.7
v 0.3 1 2.6
v 0.3 1 -0.9
v 0.3 1 -1
v 0.3 1.1 2.6
v 0.3 1.1 -0.9
v -0.3 -0.8 2.8
v -0.3 0.9 2.8
v 0.3 -0.8 2.8
v 0.3 0.9 2.8
v -0.3 -0.9 2.7
v -0.3 -0.8 2.7
v -0.2 0.9 2.7
v -0.2 1 2.7
v 0.3 -0.9 2.7
v 0.3 -0.8 2.7
v 0.3 0.9 2.7
v 0.3 1 2.7
v -0.3 -1 2.6
v -0.3 -0.9 2.6
v -0.3 0.9 2.6
v -0.3 1.1 2.6
v -0.2 0.9 2.6
v -0.2 1 2.6
v 0.3 -1 2.6
v 0.3 -0.9 2.6
v 0.3 1 2.6
v 0.3 1.1 2.6
v -0.2 -0.6 2.4
v -0.2 0.8 2.4
v -0.1 -0.6 2.4
v -0.1 0.8 2.4
v -0.2 -0.6 1.4
v -0.2 -0.4 1.4
v -0.2 0.6 1.4
v -0.2 0.8 1.4
v -0.1 -0.6 1.4
v -0.1 -0.4 1.4
v -0.1 0.6 1.4
v -0.1 0.8 1.4
v -0.2 -0.4 1.3
v -0.2 -0.2 1.3
v -0.2 0.4 1.3
v -0.2 0.6 1.3
v -0.1 -0.4 1.3
v -0.1 -0.2 1.3
v -0.1 0.4 1.3
v -0.1 0.6 1.3
v -0.2 -0.2 1.2
v -0.2 0 1.2
v -0.2 0.2 1.2
v -0.2 0.4 1.2
v -0.1 -0.2 1.2
v -0.1 0 1.2
v -0.1 0.2 1.2
v -0.1 0.4 1.2
v -0.2 0 1.1
v -0.2 0.2 1.1
v -0.1 0 1.1
v -0.1 0.2 1.1
v -0.2 -0.4 0.9
v -0.2 -0.2 0.9
v -0.2 0.4 0.9
v -0.2 0.6 0.9
v -0.1 -0.4 0.9
v -0.1 -0.2 0.9
v -0.1 0.4 0.9
v -0.1 0.6 0.9
v -0.2 -0.6 0.8
v -0.2 -0.4 0.8
v -0.2 0.6 0.8
v -0.2 0.8 0.8
v -0.1 -0.6 0.8
v -0.1 -0.4 0.8
v -0.1 0.6 0.8
v -0.1 0.8 0.8
v -0.2 -0.6 0.5
v -0.2 0.8 0.5
v -0.1 -0.6 0.5
v -0.1 0.8 0.5
v -0.2 0.6 0.1
v -0.2 0.8 0.1
v -0.1 0.6 0.1
v -0.1 0.8 0.1
v -0.2 -0.6 -0.2
v -0.2 0.6 -0.2
v -0.1 -0.6 -0.2
v -0.1 0.6 -0.2
v -0.2 -0.8 -0.9
v -0.2 0.9 -0.9
v 0.3 -0.8 -0.9
v 0.3 0.9 -0.9
v -0.2 -0.7 2.6
v -0.2 0.9 2.6
v 0.3 -0.7 2.6
v 0.3 0.9 2.6
v -0.2 -0.8 2.5
v -0.2 -0.7 2.5
v 0.3 -0.8 2.5
v 0.3 -0.7 2.5
v -0.2 -0.4 2.3
v -0.2 0.1 2.3
v -0.2 0.2 2.3
v -0.2 0.6 2.3
v -0.1 -0.4 2.3
v -0.1 0.1 2.3
v -0.1 0.2 2.3
v -0.1 0.6 2.3
v -0.2 0.1 1.9
v -0.2 0.2 1.9
v -0.1 0.1 1.9
v -0.1 0.2 1.9
v -0.2 -0.6 1.5
v -0.2 -0.4 1.5
v -0.2 0.6 1.5
v -0.2 0.8 1.5
v -0.1 -0.6 1.5
v -0.1 -0.4 1.5
v -0.1 0.6 1.5
v -0.1 0.8 1.5
v -0.2 -0.6 1.2
v -0.2 -0.4 1.2
v -0.2 0.6 1.2
v -0.2 0.8 1.2
v -0.1 -0.6 1.2
v -0.1 -0.4 1.2
v -0.1 0.6 1.2
v -0.1 0.8 1.2
v -0.2 -0.4 1.1
v -0.2 -0.2 1.1
v -0.2 0.4 1.1
v -0.2 0.6 1.1
v -0.1 -0.4 1.1
v -0.1 -0.2 1.1
v -0.1 0.4 1.1
v -0.1 0.6 1.1
v -0.2 0 0.9
v -0.2 0.2 0.9
v -0.1 0 0.9
v -0.1 0.2 0.9
v -0.2 -0.2 0.8
v -0.2 0 0.8
v -0.2 0.2 0.8
v -0.2 0.4 0.8
v -0.1 -0.2 0.8
v -0.1 0 0.8
v -0.1 0.2 0.8
v -0.1 0.4 0.8
v -0.2 -0.4 0.7
v -0.2 -0.2 0.7
v -0.2 0.4 0.7
v -0.2 0.6 0.7
v -0.1 -0.4 0.7
v -0.1 -0.2 0.7
v -0.1 0.4 0.7
v -0.1 0.6 0.7
v -0.2 -0.6 0.6
v -0.2 -0.4 0.6
v -0.2 0.6 0.6
v -0.2 0.8 0.6
v -0.1 -0.6 0.6
v -0.1 -0.4 0.6
v -0.1 0.6 0.6
v -0.1 0.8 0.6
v -0.2 -0.6 0.3
v -0.2 0.8 0.3
v -0.1 -0.6 0.3
v -0.1 0.8 0.3
v -0.2 -0.6 -0.4
v -0.2 0.6 -0.4
v -0.1 -0.6 -0.4
v -0.1 0.6 -0.4
v -0.2 0.6 -0.7
v -0.2 0.8 -0.7
v -0.1 0.6 -0.7
v -0.1 0.8 -0.7
v -0.3 -1 -0.9
v -0.3 -0.9 -0.9
v -0.3 1 -0.9
v -0.3 1.1 -0.9
v 0.3 -1 -0.9
v 0.3 -0.9 -0.9
v 0.3 1 -0.9
v 0.3 1.1 -0.9
v -0.3 -0.9 -1
v -0.3 -0.8 -1
v -0.3 0.9 -1
v -0.3 1 -1
v 0.3 -0.9 -1
v 0.3 -0.8 -1
v 0.3 0.9 -1
v 0.3 1 -1
v -0.3 -0.8 -1.1
v -0.3 0.9 -1.1
v 0.3 -0.8 -1.1
v 0.3 0.9 -1.1
v -0.3 -1 2.6
v 0.3 -1 2.6
v -0.3 -1 -0.9
v 0.3 -1 -0.9
v -0.3 -0.9 2.7
v 0.3 -0.9 2.7
v -0.3 -0.9 2.6
v 0.3 -0.9 2.6
v -0.3 -0.9 -0.9
v 0.3 -0.9 -0.9
v -0.3 -0.9 -1
v 0.3 -0.9 -1
v -0.3 -0.8 2.8
v 0.3 -0.8 2.8
v -0.3 -0.8 2.7
v 0.3 -0.8 2.7
v -0.3 -0.8 -1
v 0.3 -0.8 -1
v -0.3 -0.8 -1.1
v 0.3 -0.8 -1.1
v -0.2 -0.6 2.4
v -0.1 -0.6 2.4
v -0.2 -0.6 1.5
v -0.1 -0.6 1.5
v -0.2 -0.6 1.4
v -0.1 -0.6 1.4
v -0.2 -0.6 1.2
v -0.1 -0.6 1.2
v -0.2 -0.6 0.8
v -0.1 -0.6 0.8
v -0.2 -0.6 0.6
v -0.1 -0.6 0.6
v -0.2 -0.6 0.5
v -0.1 -0.6 0.5
v -0.2 -0.6 0.3
v -0.1 -0.6 0.3
v -0.2 -0.6 -0.2
v -0.1 -0.6 -0.2
v -0.2 -0.6 -0.4
v -0.1 -0.6 -0.4
v -0.2 -0.4 1.2
v -0.1 -0.4 1.2
v -0.2 -0.4 1.1
v -0.1 -0.4 1.1
v -0.2 -0.4 0.9
v -0.1 -0.4 0.9
v -0.2 -0.4 0.8
v -0.1 -0.4 0.8
v -0.2 -0.2 1.1
v -0.1 -0.2 1.1
v -0.2 -0.2 0.9
v -0.1 -0.2 0.9
v -0.2 0.1 2.3
v -0.1 0.1 2.3
v -0.2 0.1 1.9
v -0.1 0.1 1.9
v -0.2 0.2 1.2
v -0.1 0.2 1.2
v -0.2 0.2 1.1
v -0.1 0.2 1.1
v -0.2 0.2 0.9
v -0.1 0.2 0.9
v -0.2 0.2 0.8
v -0.1 0.2 0.8
v -0.2 0.4 1.3
v -0.1 0.4 1.3
v -0.2 0.4 1.2
v -0.1 0.4 1.2
v -0.2 0.4 0.8
v -0.1 0.4 0.8
v -0.2 0.4 0.7
v -0.1 0.4 0.7
v -0.2 0.6 2.3
v -0.1 0.6 2.3
v -0.2 0.6 1.5
v -0.1 0.6 1.5
v -0.2 0.6 1.4
v -0.1 0.6 1.4
v -0.2 0.6 1.3
v -0.1 0.6 1.3
v -0.2 0.6 0.7
v -0.1 0.6 0.7
v -0.2 0.6 0.6
v -0.1 0.6 0.6
v -0.2 0.6 0.1
v -0.1 0.6 0.1
v -0.2 0.6 -0.2
v -0.1 0.6 -0.2
v -0.2 0.6 -0.4
v -0.1 0.6 -0.4
v -0.2 0.6 -0.7
v -0.1 0.6 -0.7
v -0.2 0.9 2.6
v 0.3 0.9 2.6
v -0.2 0.9 -0.9
v 0.3 0.9 -0.9
v -0.2 -0.8 2.5
v 0.3 -0.8 2.5
v -0.2 -0.8 -0.9
v 0.3 -0.8 -0.9
v -0.2 -0.7 2.6
v 0.3 -0.7 2.6
v -0.2 -0.7 2.5
v 0.3 -0.7 2.5
v -0.2 -0.4 2.3
v -0.1 -0.4 2.3
v -0.2 -0.4 1.5
v -0.1 -0.4 1.5
v -0.2 -0.4 1.4
v -0.1 -0.4 1.4
v -0.2 -0.4 1.3
v -0.1 -0.4 1.3
v -0.2 -0.4 0.7
v -0.1 -0.4 0.7
v -0.2 -0.4 0.6
v -0.1 -0.4 0.6
v -0.2 -0.2 1.3
v -0.1 -0.2 1.3
v -0.2 -0.2 1.2
v -0.1 -0.2 1.2
v -0.2 -0.2 0.8
v -0.1 -0.2 0.8
v -0.2 -0.2 0.7
v -0.1 -0.2 0.7
v -0.2 0 1.2
v -0.1 0 1.2
v -0.2 0 1.1
v -0.1 0 1.1
v -0.2 0 0.9
v -0.1 0 0.9
v -0.2 0 0.8
v -0.1 0 0.8
v -0.2 0.2 2.3
v -0.1 0.2 2.3
v -0.2 0.2 1.9
v -0.1 0.2 1.9
v -0.2 0.4 1.1
v -0.1 0.4 1.1
v -0.2 0.4 0.9
v -0.1 0.4 0.9
v -0.2 0.6 1.2
v -0.1 0.6 1.2
v -0.2 0.6 1.1
v -0.1 0.6 1.1
v -0.2 0.6 0.9
v -0.1 0.6 0.9
v -0.2 0.6 0.8
v -0.1 0.6 0.8
v -0.2 0.8 2.4
v -0.1 0.8 2.4
v -0.2 0.8 1.5
v -0.1 0.8 1.5
v -0.2 0.8 1.4
v -0.1 0.8 1.4
v -0.2 0.8 1.2
v -0.1 0.8 1.2
v -0.2 0.8 0.8
v -0.1 0.8 0.8
v -0.2 0.8 0.6
v -0.1 0.8 0.6
v -0.2 0.8 0.5
v -0.1 0.8 0.5
v -0.2 0.8 0.3
v -0.1 0.8 0.3
v -0.2 0.8 0.1
v -0.1 0.8 0.1
v -0.2 0.8 -0.7
v -0.1 0.8 -0.7
v -0.3 0.9 2.8
v 0.3 0.9 2.8
v -0.2 0.9 2.7
v 0.3 0.9 2.7
v -0.3 0.9 2.6
v -0.2 0.9 2.6
v -0.3 0.9 -1
v 0.3 0.9 -1
v -0.3 0.9 -1.1
v 0.3 0.9 -1.1
v -0.2 1 2.7
v 0.3 1 2.7
v -0.2 1 2.6
v 0.3 1 2.6
v -0.3 1 -0.9
v 0.3 1 -0.9
v -0.3 1 -1
v 0.3 1 -1
v -0.3 1.1 2.6
v 0.3 1.1 2.6
v -0.3 1.1 -0.9
v 0.3 1.1 -0.9

# faces
f 4/1/1 2/1/1 1/1/1
f 5/1/1 2/1/1 4/1/1
f 8/1/1 4/1/1 3/1/1
f 8/1/1 6/1/1 5/1/1
f 8/1/1 5/1/1 4/1/1
f 9/1/1 6/1/1 8/1/1
f 10/1/1 6/1/1 9/1/1
f 11/1/1 6/1/1 10/1/1
f 13/1/1 8/1/1 7/1/1
f 13/1/1 9/1/1 8/1/1
f 14/3/1 10/3/1 9/3/1
f 14/1/1 9/1/1 13/1/1
f 15/1/1 13/1/1 7/1/1
f 16/3/1 14/3/1 13/3/1
f 16/1/1 13/1/1 15/1/1
f 17/1/1 12/1/1 11/1/1
f 17/3/1 14/3/1 16/3/1
f 17/1/1 11/1/1 10/1/1
f 17/3/1 10/3/1 14/3/1
f 18/1/1 12/1/1 17/1/1
f 19/1/1 12/1/1 18/1/1
f 20/1/1 17/1/1 16/1/1
f 20/1/1 18/1/1 17/1/1
f 21/1/1 18/1/1 20/1/1
f 22/1/1 20/1/1 16/1/1
f 23/1/1 20/1/1 22/1/1
f 26/1/1 25/1/1 24/1/1
f 27/1/1 25/1/1 26/1/1
f 28/3/2 29/3/2 31/3/2
f 31/3/2 29/3/2 32/3/2
f 30/3/2 31/3/2 32/3/2
f 32/3/2 29/3/2 33/3/2
f 33/3/2 29/3/2 34/3/2
f 34/3/2 29/3/2 35/3/2
f 35/3/2 29/3/2 36/3/2
f 36/3/2 29/3/2 37/3/2
f 37/3/2 29/3/2 38/3/2
f 38/3/2 29/3/2 39/3/2
f 39/3/2 29/3/2 40/3/2
f 40/3/2 29/3/2 41/3/2
f 33/3/2 34/3/2 43/3/2
f 43/3/2 34/3/2 44/3/2
f 35/3/2 36/3/2 46/3/2
f 46/3/2 36/3/2 47/3/2
f 47/3/2 36/3/2 48/3/2
f 48/3/2 36/3/2 49/3/2
f 37/3/2 38/3/2 51/3/2
f 44/3/2 45/3/2 52/3/2
f 42/3/2 43/3/2 52/3/2
f 43/3/2 44/3/2 52/3/2
f 47/3/2 48/3/2 54/3/2
f 54/3/2 48/3/2 55/3/2
f 50/3/2 51/3/2 57/3/2
f 52/3/2 53/3/2 58/3/2
f 56/3/2 57/3/2 61/3/2
f 58/3/2 59/3/2 62/3/2
f 42/3/2 52/3/2 62/3/2
f 52/3/2 58/3/2 62/3/2
f 62/3/2 59/3/2 63/3/2
f 63/3/2 59/3/2 65/3/2
f 65/3/2 59/3/2 66/3/2
f 66/3/2 59/3/2 67/3/2
f 60/3/2 61/3/2 68/3/2
f 61/3/2 57/3/2 69/3/2
f 68/3/2 61/3/2 69/3/2
f 64/3/2 65/3/2 70/3/2
f 65/3/2 66/3/2 70/3/2
f 70/3/2 66/3/2 71/3/2
f 69/3/2 57/3/2 74/3/2
f 57/3/2 51/3/2 75/3/2
f 74/3/2 57/3/2 75/3/2
f 64/3/2 70/3/2 76/3/2
f 76/3/2 70/3/2 77/3/2
f 77/3/2 70/3/2 78/3/2
f 78/3/2 70/3/2 79/3/2
f 72/3/2 73/3/2 81/3/2
f 81/3/2 73/3/2 82/3/2
f 75/3/2 51/3/2 84/3/2
f 51/3/2 38/3/2 85/3/2
f 84/3/2 51/3/2 85/3/2
f 39/3/2 40/3/2 86/3/2
f 86/3/2 40/3/2 87/3/2
f 41/3/2 29/3/2 88/3/2
f 88/3/2 29/3/2 89/3/2
f 30/3/2 32/3/2 90/3/2
f 77/3/2 78/3/2 91/3/2
f 91/3/2 78/3/2 92/3/2
f 82/3/2 83/3/2 93/3/2
f 81/3/2 82/3/2 93/3/2
f 80/3/2 81/3/2 93/3/2
f 93/3/2 83/3/2 94/3/2
f 85/3/2 38/3/2 95/3/2
f 95/3/2 38/3/2 96/3/2
f 39/3/2 86/3/2 97/3/2
f 97/3/2 86/3/2 98/3/2
f 89/3/2 29/3/2 99/3/2
f 97/3/2 98/3/2 100/3/2
f 98/3/2 99/3/2 100/3/2
f 95/3/2 96/3/2 100/3/2
f 93/3/2 94/3/2 100/3/2
f 96/3/2 97/3/2 100/3/2
f 91/3/2 92/3/2 100/3/2
f 94/3/2 95/3/2 100/3/2
f 90/3/2 91/3/2 100/3/2
f 92/3/2 93/3/2 100/3/2
f 30/3/2 90/3/2 100/3/2
f 99/3/2 29/3/2 101/3/2
f 100/3/2 99/3/2 101/3/2
f 102/2/2 103/2/2 112/2/2
f 112/2/2 103/2/2 113/2/2
f 104/2/2 105/2/2 114/2/2
f 114/2/2 105/2/2 115/2/2
f 115/2/2 105/2/2 116/2/2
f 106/2/2 107/2/2 119/2/2
f 119/2/2 107/2/2 120/2/2
f 120/2/2 107/2/2 121/2/2
f 116/2/2 117/2/2 122/2/2
f 115/2/2 116/2/2 122/2/2
f 122/2/2 117/2/2 123/2/2
f 123/2/2 117/2/2 124/2/2
f 119/2/2 120/2/2 125/2/2
f 118/2/2 119/2/2 125/2/2
f 125/2/2 120/2/2 126/2/2
f 126/2/2 120/2/2 127/2/2
f 123/2/2 124/2/2 128/2/2
f 125/2/2 126/2/2 128/2/2
f 124/2/2 125/2/2 128/2/2
f 128/2/2 126/2/2 129/2/2
f 129/2/2 126/2/2 130/2/2
f 130/2/2 126/2/2 131/2/2
f 102/2/2 112/2/2 132/2/2
f 102/2/2 132/2/2 134/2/2
f 132/2/2 133/2/2 134/2/2
f 134/2/2 133/2/2 135/2/2
f 129/2/2 130/2/2 137/2/2
f 137/2/2 130/2/2 138/2/2
f 138/2/2 139/2/2 141/2/2
f 137/2/2 138/2/2 141/2/2
f 136/2/2 137/2/2 141/2/2
f 141/2/2 139/2/2 142/2/2
f 142/2/2 139/2/2 143/2/2
f 143/2/2 139/2/2 144/2/2
f 102/2/2 134/2/2 146/2/2
f 140/2/2 141/2/2 149/2/2
f 141/2/2 142/2/2 149/2/2
f 149/2/2 142/2/2 150/2/2
f 150/2/2 142/2/2 151/2/2
f 143/2/2 144/2/2 152/2/2
f 144/2/2 145/2/2 152/2/2
f 152/2/2 145/2/2 153/2/2
f 153/2/2 145/2/2 154/2/2
f 110/2/2 111/2/2 157/2/2
f 157/2/2 111/2/2 158/2/2
f 146/2/2 147/2/2 160/2/2
f 102/2/2 146/2/2 160/2/2
f 160/2/2 147/2/2 161/2/2
f 149/2/2 150/2/2 162/2/2
f 148/2/2 149/2/2 162/2/2
f 162/2/2 150/2/2 163/2/2
f 154/2/2 155/2/2 164/2/2
f 153/2/2 154/2/2 164/2/2
f 164/2/2 155/2/2 165/2/2
f 108/2/2 109/2/2 166/2/2
f 166/2/2 109/2/2 167/2/2
f 158/2/2 159/2/2 168/2/2
f 157/2/2 158/2/2 168/2/2
f 156/2/2 157/2/2 168/2/2
f 168/2/2 159/2/2 169/2/2
f 170/1/2 171/1/2 173/1/2
f 173/1/2 171/1/2 174/1/2
f 172/1/2 173/1/2 177/1/2
f 174/1/2 175/1/2 177/1/2
f 173/1/2 174/1/2 177/1/2
f 177/1/2 175/1/2 178/1/2
f 178/1/2 175/1/2 179/1/2
f 179/1/2 175/1/2 180/1/2
f 176/1/2 177/1/2 182/1/2
f 177/1/2 178/1/2 182/1/2
f 182/1/2 178/1/2 183/1/2
f 176/1/2 182/1/2 184/1/2
f 184/1/2 182/1/2 185/1/2
f 185/1/2 182/1/2 186/1/2
f 180/1/2 181/1/2 187/1/2
f 179/1/2 180/1/2 187/1/2
f 187/1/2 181/1/2 188/1/2
f 188/1/2 181/1/2 189/1/2
f 185/1/2 186/1/2 190/1/2
f 187/1/2 188/1/2 190/1/2
f 186/1/2 187/1/2 190/1/2
f 190/1/2 188/1/2 191/1/2
f 191/1/2 188/1/2 192/1/2
f 192/1/2 188/1/2 193/1/2
f 191/1/2 192/1/2 194/1/2
f 194/1/2 192/1/2 195/1/2
f 198/1/3 197/1/3 196/1/3
f 199/1/3 197/1/3 198/1/3
f 204/1/3 201/1/3 200/1/3
f 205/1/3 201/1/3 204/1/3
f 206/1/3 203/1/3 202/1/3
f 207/1/3 203/1/3 206/1/3
f 212/1/3 211/1/3 210/1/3
f 213/1/3 211/1/3 212/1/3
f 214/1/3 209/1/3 208/1/3
f 215/1/3 209/1/3 214/1/3
f 216/1/3 211/1/3 213/1/3
f 217/1/3 211/1/3 216/1/3
f 220/2/3 219/2/3 218/2/3
f 221/2/3 219/2/3 220/2/3
f 226/2/3 223/2/3 222/2/3
f 227/2/3 223/2/3 226/2/3
f 228/2/3 225/2/3 224/2/3
f 229/2/3 225/2/3 228/2/3
f 234/2/3 231/2/3 230/2/3
f 235/2/3 231/2/3 234/2/3
f 236/2/3 233/2/3 232/2/3
f 237/2/3 233/2/3 236/2/3
f 242/2/3 239/2/3 238/2/3
f 243/2/3 239/2/3 242/2/3
f 244/2/3 241/2/3 240/2/3
f 245/2/3 241/2/3 244/2/3
f 248/2/3 247/2/3 246/2/3
f 249/2/3 247/2/3 248/2/3
f 254/2/3 251/2/3 250/2/3
f 255/2/3 251/2/3 254/2/3
f 256/2/3 253/2/3 252/2/3
f 257/2/3 253/2/3 256/2/3
f 262/2/3 259/2/3 258/2/3
f 263/2/3 259/2/3 262/2/3
f 264/2/3 261/2/3 260/2/3
f 265/2/3 261/2/3 264/2/3
f 268/2/3 267/2/3 266/2/3
f 269/2/3 267/2/3 268/2/3
f 272/2/3 271/2/3 270/2/3
f 273/2/3 271/2/3 272/2/3
f 276/2/3 275/2/3 274/2/3
f 277/2/3 275/2/3 276/2/3
f 280/1/3 279/1/3 278/1/3
f 281/1/3 279/1/3 280/1/3
f 282/1/4 283/1/4 284/1/4
f 284/1/4 283/1/4 285/1/4
f 286/1/4 287/1/4 288/1/4
f 288/1/4 287/1/4 289/1/4
f 290/2/4 291/2/4 294/2/4
f 294/2/4 291/2/4 295/2/4
f 292/2/4 293/2/4 296/2/4
f 296/2/4 293/2/4 297/2/4
f 298/2/4 299/2/4 300/2/4
f 300/2/4 299/2/4 301/2/4
f 302/2/4 303/2/4 306/2/4
f 306/2/4 303/2/4 307/2/4
f 304/2/4 305/2/4 308/2/4
f 308/2/4 305/2/4 309/2/4
f 310/2/4 311/2/4 314/2/4
f 314/2/4 311/2/4 315/2/4
f 312/2/4 313/2/4 316/2/4
f 316/2/4 313/2/4 317/2/4
f 318/2/4 319/2/4 322/2/4
f 322/2/4 319/2/4 323/2/4
f 320/2/4 321/2/4 324/2/4
f 324/2/4 321/2/4 325/2/4
f 326/2/4 327/2/4 328/2/4
f 328/2/4 327/2/4 329/2/4
f 330/2/4 331/2/4 334/2/4
f 334/2/4 331/2/4 335/2/4
f 332/2/4 333/2/4 336/2/4
f 336/2/4 333/2/4 337/2/4
f 338/2/4 339/2/4 342/2/4
f 342/2/4 339/2/4 343/2/4
f 340/2/4 341/2/4 344/2/4
f 344/2/4 341/2/4 345/2/4
f 346/2/4 347/2/4 350/2/4
f 350/2/4 347/2/4 351/2/4
f 348/2/4 349/2/4 352/2/4
f 352/2/4 349/2/4 353/2/4
f 354/2/4 355/2/4 356/2/4
f 356/2/4 355/2/4 357/2/4
f 358/2/4 359/2/4 360/2/4
f 360/2/4 359/2/4 361/2/4
f 362/2/4 363/2/4 364/2/4
f 364/2/4 363/2/4 365/2/4
f 366/1/4 367/1/4 370/1/4
f 370/1/4 367/1/4 371/1/4
f 368/1/4 369/1/4 372/1/4
f 372/1/4 369/1/4 373/1/4
f 374/1/4 375/1/4 378/1/4
f 378/1/4 375/1/4 379/1/4
f 376/1/4 377/1/4 380/1/4
f 380/1/4 377/1/4 381/1/4
f 382/1/4 383/1/4 384/1/4
f 384/1/4 383/1/4 385/1/4
f 388/1/5 387/1/5 386/1/5
f 389/1/5 387/1/5 388/1/5
f 392/1/5 391/1/5 390/1/5
f 393/1/5 391/1/5 392/1/5
f 396/1/5 395/1/5 394/1/5
f 397/1/5 395/1/5 396/1/5
f 400/1/5 399/1/5 398/1/5
f 401/1/5 399/1/5 400/1/5
f 404/1/5 403/1/5 402/1/5
f 405/1/5 403/1/5 404/1/5
f 408/2/5 407/2/5 406/2/5
f 409/2/5 407/2/5 408/2/5
f 412/2/5 411/2/5 410/2/5
f 413/2/5 411/2/5 412/2/5
f 416/2/5 415/2/5 414/2/5
f 417/2/5 415/2/5 416/2/5
f 420/2/5 419/2/5 418/2/5
f 421/2/5 419/2/5 420/2/5
f 424/2/5 423/2/5 422/2/5
f 425/2/5 423/2/5 424/2/5
f 428/2/5 427/2/5 426/2/5
f 429/2/5 427/2/5 428/2/5
f 432/2/5 431/2/5 430/2/5
f 433/2/5 431/2/5 432/2/5
f 436/2/5 435/2/5 434/2/5
f 437/2/5 435/2/5 436/2/5
f 440/2/5 439/2/5 438/2/5
f 441/2/5 439/2/5 440/2/5
f 444/2/5 443/2/5 442/2/5
f 445/2/5 443/2/5 444/2/5
f 448/2/5 447/2/5 446/2/5
f 449/2/5 447/2/5 448/2/5
f 452/2/5 451/2/5 450/2/5
f 453/2/5 451/2/5 452/2/5
f 456/2/5 455/2/5 454/2/5
f 457/2/5 455/2/5 456/2/5
f 460/2/5 459/2/5 458/2/5
f 461/2/5 459/2/5 460/2/5
f 464/2/5 463/2/5 462/2/5
f 465/2/5 463/2/5 464/2/5
f 468/2/5 467/2/5 466/2/5
f 469/2/5 467/2/5 468/2/5
f 472/2/5 471/2/5 470/2/5
f 473/2/5 471/2/5 472/2/5
f 476/2/5 475/2/5 474/2/5
f 477/2/5 475/2/5 476/2/5
f 480/1/5 479/1/5 478/1/5
f 481/1/5 479/1/5 480/1/5
f 482/1/6 483/1/6 484/1/6
f 484/1/6 483/1/6 485/1/6
f 486/1/6 487/1/6 488/1/6
f 488/1/6 487/1/6 489/1/6
f 490/2/6 491/2/6 492/2/6
f 492/2/6 491/2/6 493/2/6
f 494/2/6 495/2/6 496/2/6
f 496/2/6 495/2/6 497/2/6
f 498/2/6 499/2/6 500/2/6
f 500/2/6 499/2/6 501/2/6
f 502/2/6 503/2/6 504/2/6
f 504/2/6 503/2/6 505/2/6
f 506/2/6 507/2/6 508/2/6
f 508/2/6 507/2/6 509/2/6
f 510/2/6 511/2/6 512/2/6
f 512/2/6 511/2/6 513/2/6
f 514/2/6 515/2/6 516/2/6
f 516/2/6 515/2/6 517/2/6
f 518/2/6 519/2/6 520/2/6
f 520/2/6 519/2/6 521/2/6
f 522/2/6 523/2/6 524/2/6
f 524/2/6 523/2/6 525/2/6
f 526/2/6 527/2/6 528/2/6
f 528/2/6 527/2/6 529/2/6
f 530/2/6 531/2/6 532/2/6
f 532/2/6 531/2/6 533/2/6
f 534/2/6 535/2/6 536/2/6
f 536/2/6 535/2/6 537/2/6
f 538/2/6 539/2/6 540/2/6
f 540/2/6 539/2/6 541/2/6
f 542/2/6 543/2/6 544/2/6
f 544/2/6 543/2/6 545/2/6
f 546/2/6 547/2/6 548/2/6
f 548/2/6 547/2/6 549/2/6
f 550/2/6 551/2/6 552/2/6
f 552/2/6 551/2/6 553/2/6
f 554/1/6 555/1/6 556/1/6
f 556/1/6 555/1/6 557/1/6
f 554/1/6 556/1/6 558/1/6
f 558/1/6 556/1/6 559/1/6
f 560/1/6 561/1/6 562/1/6
f 562/1/6 561/1/6 563/1/6
f 564/1/6 565/1/6 566/1/6
f 566/1/6 565/1/6 567/1/6
f 568/1/6 569/1/6 570/1/6
f 570/1/6 569/1/6 571/1/6
f 572/1/6 573/1/6 574/1/6
f 574/1/6 573/1/6 575/1/6
