# MagicaVoxel @ Ephtracy

# group
o 

# material
mtllib interactButtonIcon.mtl
usemtl palette

# normals
vn -1 0 0
vn 1 0 0
vn 0 0 1
vn 0 0 -1
vn 0 -1 0
vn 0 1 0

# texcoords
vt 0.798828 0.5
vt 0.826172 0.5
vt 0.958984 0.5
vt 0.962891 0.5
vt 0.966797 0.5
vt 0.970703 0.5
vt 0.974609 0.5
vt 0.994141 0.5

# verts
v -0.45 -0.65 0.05
v -0.45 -0.65 -0.05
v -0.45 0.15 0.05
v -0.45 0.15 -0.05
v -0.35 -0.75 0.05
v -0.35 -0.75 -0.05
v -0.35 -0.65 0.05
v -0.35 -0.65 -0.05
v -0.35 0.15 0.05
v -0.35 0.15 -0.05
v -0.35 0.25 0.05
v -0.35 0.25 -0.05
v -0.25 -0.85 0.05
v -0.25 -0.85 -0.05
v -0.25 -0.75 0.05
v -0.25 -0.75 -0.05
v -0.25 0.25 0.05
v -0.25 0.25 -0.05
v -0.25 0.35 0.05
v -0.25 0.35 -0.05
v -0.25 0.55 0.05
v -0.25 0.55 -0.05
v -0.25 0.65 0.05
v -0.25 0.65 -0.05
v -0.15 0.45 0.05
v -0.15 0.45 -0.05
v -0.15 0.55 0.05
v -0.15 0.55 -0.05
v -0.15 0.65 0.05
v -0.15 0.65 -0.05
v -0.15 0.75 0.05
v -0.15 0.75 -0.05
v -0.05 0.35 0.05
v -0.05 0.35 -0.05
v -0.05 0.45 0.05
v -0.05 0.45 -0.05
v -0.05 0.75 0.05
v -0.05 0.75 -0.05
v -0.05 0.85 0.05
v -0.05 0.85 -0.05
v 0.15 0.55 0.05
v 0.15 0.55 -0.05
v 0.15 0.65 0.05
v 0.15 0.65 -0.05
v 0.25 0.65 0.05
v 0.25 0.65 -0.05
v 0.25 0.75 0.05
v 0.25 0.75 -0.05
v -0.15 0.55 0.05
v -0.15 0.55 -0.05
v -0.15 0.65 0.05
v -0.15 0.65 -0.05
v -0.05 0.45 0.05
v -0.05 0.45 -0.05
v -0.05 0.55 0.05
v -0.05 0.55 -0.05
v -0.05 0.65 0.05
v -0.05 0.65 -0.05
v -0.05 0.75 0.05
v -0.05 0.75 -0.05
v 0.05 0.35 0.05
v 0.05 0.35 -0.05
v 0.05 0.45 0.05
v 0.05 0.45 -0.05
v 0.25 -0.85 0.05
v 0.25 -0.85 -0.05
v 0.25 -0.75 0.05
v 0.25 -0.75 -0.05
v 0.25 0.25 0.05
v 0.25 0.25 -0.05
v 0.25 0.35 0.05
v 0.25 0.35 -0.05
v 0.25 0.55 0.05
v 0.25 0.55 -0.05
v 0.25 0.65 0.05
v 0.25 0.65 -0.05
v 0.25 0.75 0.05
v 0.25 0.75 -0.05
v 0.25 0.85 0.05
v 0.25 0.85 -0.05
v 0.35 -0.75 0.05
v 0.35 -0.75 -0.05
v 0.35 -0.65 0.05
v 0.35 -0.65 -0.05
v 0.35 0.15 0.05
v 0.35 0.15 -0.05
v 0.35 0.25 0.05
v 0.35 0.25 -0.05
v 0.35 0.65 0.05
v 0.35 0.65 -0.05
v 0.35 0.75 0.05
v 0.35 0.75 -0.05
v 0.45 -0.65 0.05
v 0.45 -0.65 -0.05
v 0.45 0.15 0.05
v 0.45 0.15 -0.05
v -0.45 -0.65 0.05
v -0.45 0.15 0.05
v -0.35 -0.75 0.05
v -0.35 -0.65 0.05
v -0.35 -0.25 0.05
v -0.35 -0.15 0.05
v -0.35 0.15 0.05
v -0.35 0.25 0.05
v -0.25 -0.85 0.05
v -0.25 -0.75 0.05
v -0.25 -0.65 0.05
v -0.25 0.15 0.05
v -0.25 0.25 0.05
v -0.25 0.35 0.05
v -0.25 0.55 0.05
v -0.25 0.65 0.05
v -0.15 0.45 0.05
v -0.15 0.55 0.05
v -0.15 0.65 0.05
v -0.15 0.75 0.05
v -0.05 -0.15 0.05
v -0.05 0.25 0.05
v -0.05 0.35 0.05
v -0.05 0.45 0.05
v -0.05 0.55 0.05
v -0.05 0.65 0.05
v -0.05 0.75 0.05
v -0.05 0.85 0.05
v 0.05 -0.15 0.05
v 0.05 -0.05 0.05
v 0.05 0.25 0.05
v 0.05 0.35 0.05
v 0.05 0.45 0.05
v 0.15 -0.65 0.05
v 0.15 -0.55 0.05
v 0.15 0.55 0.05
v 0.15 0.65 0.05
v 0.25 -0.85 0.05
v 0.25 -0.75 0.05
v 0.25 -0.65 0.05
v 0.25 -0.55 0.05
v 0.25 -0.25 0.05
v 0.25 -0.05 0.05
v 0.25 0.15 0.05
v 0.25 0.25 0.05
v 0.25 0.35 0.05
v 0.25 0.55 0.05
v 0.25 0.65 0.05
v 0.25 0.75 0.05
v 0.25 0.85 0.05
v 0.35 -0.75 0.05
v 0.35 -0.65 0.05
v 0.35 -0.25 0.05
v 0.35 -0.15 0.05
v 0.35 0.15 0.05
v 0.35 0.25 0.05
v 0.35 0.65 0.05
v 0.35 0.75 0.05
v 0.45 -0.65 0.05
v 0.45 0.15 0.05
v -0.45 -0.65 -0.05
v -0.45 0.15 -0.05
v -0.35 -0.75 -0.05
v -0.35 -0.65 -0.05
v -0.35 -0.25 -0.05
v -0.35 -0.15 -0.05
v -0.35 0.15 -0.05
v -0.35 0.25 -0.05
v -0.25 -0.85 -0.05
v -0.25 -0.75 -0.05
v -0.25 -0.65 -0.05
v -0.25 0.15 -0.05
v -0.25 0.25 -0.05
v -0.25 0.35 -0.05
v -0.25 0.55 -0.05
v -0.25 0.65 -0.05
v -0.15 0.45 -0.05
v -0.15 0.55 -0.05
v -0.15 0.65 -0.05
v -0.15 0.75 -0.05
v -0.05 -0.15 -0.05
v -0.05 0.25 -0.05
v -0.05 0.35 -0.05
v -0.05 0.45 -0.05
v -0.05 0.55 -0.05
v -0.05 0.65 -0.05
v -0.05 0.75 -0.05
v -0.05 0.85 -0.05
v 0.05 -0.15 -0.05
v 0.05 -0.05 -0.05
v 0.05 0.25 -0.05
v 0.05 0.35 -0.05
v 0.05 0.45 -0.05
v 0.15 -0.65 -0.05
v 0.15 -0.55 -0.05
v 0.15 0.55 -0.05
v 0.15 0.65 -0.05
v 0.25 -0.85 -0.05
v 0.25 -0.75 -0.05
v 0.25 -0.65 -0.05
v 0.25 -0.55 -0.05
v 0.25 -0.25 -0.05
v 0.25 -0.05 -0.05
v 0.25 0.15 -0.05
v 0.25 0.25 -0.05
v 0.25 0.35 -0.05
v 0.25 0.55 -0.05
v 0.25 0.65 -0.05
v 0.25 0.75 -0.05
v 0.25 0.85 -0.05
v 0.35 -0.75 -0.05
v 0.35 -0.65 -0.05
v 0.35 -0.25 -0.05
v 0.35 -0.15 -0.05
v 0.35 0.15 -0.05
v 0.35 0.25 -0.05
v 0.35 0.65 -0.05
v 0.35 0.75 -0.05
v 0.45 -0.65 -0.05
v 0.45 0.15 -0.05
v -0.25 -0.85 0.05
v 0.25 -0.85 0.05
v -0.25 -0.85 -0.05
v 0.25 -0.85 -0.05
v -0.35 -0.75 0.05
v -0.25 -0.75 0.05
v 0.25 -0.75 0.05
v 0.35 -0.75 0.05
v -0.35 -0.75 -0.05
v -0.25 -0.75 -0.05
v 0.25 -0.75 -0.05
v 0.35 -0.75 -0.05
v -0.45 -0.65 0.05
v -0.35 -0.65 0.05
v 0.35 -0.65 0.05
v 0.45 -0.65 0.05
v -0.45 -0.65 -0.05
v -0.35 -0.65 -0.05
v 0.35 -0.65 -0.05
v 0.45 -0.65 -0.05
v -0.15 0.45 0.05
v -0.05 0.45 0.05
v -0.15 0.45 -0.05
v -0.05 0.45 -0.05
v -0.25 0.55 0.05
v -0.15 0.55 0.05
v 0.15 0.55 0.05
v 0.25 0.55 0.05
v -0.25 0.55 -0.05
v -0.15 0.55 -0.05
v 0.15 0.55 -0.05
v 0.25 0.55 -0.05
v -0.15 0.65 0.05
v -0.05 0.65 0.05
v 0.25 0.65 0.05
v 0.35 0.65 0.05
v -0.15 0.65 -0.05
v -0.05 0.65 -0.05
v 0.25 0.65 -0.05
v 0.35 0.65 -0.05
v -0.05 0.75 0.05
v 0.25 0.75 0.05
v -0.05 0.75 -0.05
v 0.25 0.75 -0.05
v -0.45 0.15 0.05
v -0.35 0.15 0.05
v 0.35 0.15 0.05
v 0.45 0.15 0.05
v -0.45 0.15 -0.05
v -0.35 0.15 -0.05
v 0.35 0.15 -0.05
v 0.45 0.15 -0.05
v -0.35 0.25 0.05
v -0.25 0.25 0.05
v 0.25 0.25 0.05
v 0.35 0.25 0.05
v -0.35 0.25 -0.05
v -0.25 0.25 -0.05
v 0.25 0.25 -0.05
v 0.35 0.25 -0.05
v -0.25 0.35 0.05
v -0.05 0.35 0.05
v 0.05 0.35 0.05
v 0.25 0.35 0.05
v -0.25 0.35 -0.05
v -0.05 0.35 -0.05
v 0.05 0.35 -0.05
v 0.25 0.35 -0.05
v -0.05 0.45 0.05
v 0.05 0.45 0.05
v -0.05 0.45 -0.05
v 0.05 0.45 -0.05
v -0.15 0.55 0.05
v -0.05 0.55 0.05
v -0.15 0.55 -0.05
v -0.05 0.55 -0.05
v -0.25 0.65 0.05
v -0.15 0.65 0.05
v 0.15 0.65 0.05
v 0.25 0.65 0.05
v -0.25 0.65 -0.05
v -0.15 0.65 -0.05
v 0.15 0.65 -0.05
v 0.25 0.65 -0.05
v -0.15 0.75 0.05
v -0.05 0.75 0.05
v 0.25 0.75 0.05
v 0.35 0.75 0.05
v -0.15 0.75 -0.05
v -0.05 0.75 -0.05
v 0.25 0.75 -0.05
v 0.35 0.75 -0.05
v -0.05 0.85 0.05
v 0.25 0.85 0.05
v -0.05 0.85 -0.05
v 0.25 0.85 -0.05

# faces
f 3/6/1 2/6/1 1/6/1
f 4/6/1 2/6/1 3/6/1
f 7/6/1 6/6/1 5/6/1
f 8/6/1 6/6/1 7/6/1
f 11/6/1 10/6/1 9/6/1
f 12/6/1 10/6/1 11/6/1
f 15/7/1 14/7/1 13/7/1
f 16/7/1 14/7/1 15/7/1
f 19/6/1 18/6/1 17/6/1
f 20/6/1 18/6/1 19/6/1
f 23/8/1 22/8/1 21/8/1
f 24/8/1 22/8/1 23/8/1
f 27/8/1 26/8/1 25/8/1
f 28/8/1 26/8/1 27/8/1
f 31/8/1 30/8/1 29/8/1
f 32/8/1 30/8/1 31/8/1
f 35/8/1 34/8/1 33/8/1
f 36/8/1 34/8/1 35/8/1
f 39/8/1 38/8/1 37/8/1
f 40/8/1 38/8/1 39/8/1
f 43/8/1 42/8/1 41/8/1
f 44/8/1 42/8/1 43/8/1
f 47/8/1 46/8/1 45/8/1
f 48/8/1 46/8/1 47/8/1
f 49/8/2 50/8/2 51/8/2
f 51/8/2 50/8/2 52/8/2
f 53/8/2 54/8/2 55/8/2
f 55/8/2 54/8/2 56/8/2
f 57/8/2 58/8/2 59/8/2
f 59/8/2 58/8/2 60/8/2
f 61/8/2 62/8/2 63/8/2
f 63/8/2 62/8/2 64/8/2
f 65/7/2 66/7/2 67/7/2
f 67/7/2 66/7/2 68/7/2
f 69/6/2 70/6/2 71/6/2
f 71/6/2 70/6/2 72/6/2
f 73/8/2 74/8/2 75/8/2
f 75/8/2 74/8/2 76/8/2
f 77/8/2 78/8/2 79/8/2
f 79/8/2 78/8/2 80/8/2
f 81/7/2 82/7/2 83/7/2
f 83/7/2 82/7/2 84/7/2
f 85/6/2 86/6/2 87/6/2
f 87/6/2 86/6/2 88/6/2
f 89/8/2 90/8/2 91/8/2
f 91/8/2 90/8/2 92/8/2
f 93/7/2 94/7/2 95/7/2
f 95/7/2 94/7/2 96/7/2
f 100/6/3 98/6/3 97/6/3
f 101/6/3 98/6/3 100/6/3
f 102/6/3 98/6/3 101/6/3
f 103/6/3 98/6/3 102/6/3
f 106/6/3 100/6/3 99/6/3
f 107/3/3 101/3/3 100/3/3
f 107/6/3 100/6/3 106/6/3
f 108/6/3 104/6/3 103/6/3
f 108/4/3 103/4/3 102/4/3
f 109/6/3 104/6/3 108/6/3
f 114/8/3 112/8/3 111/8/3
f 115/8/3 112/8/3 114/8/3
f 117/6/3 102/6/3 101/6/3
f 117/4/3 108/4/3 102/4/3
f 117/4/3 109/4/3 108/4/3
f 118/6/3 110/6/3 109/6/3
f 118/4/3 109/4/3 117/4/3
f 119/6/3 110/6/3 118/6/3
f 120/8/3 114/8/3 113/8/3
f 121/8/3 114/8/3 120/8/3
f 122/8/3 116/8/3 115/8/3
f 123/8/3 116/8/3 122/8/3
f 125/6/3 119/6/3 118/6/3
f 125/6/3 117/6/3 101/6/3
f 125/6/3 118/6/3 117/6/3
f 126/6/3 119/6/3 125/6/3
f 127/6/3 119/6/3 126/6/3
f 128/8/3 120/8/3 119/8/3
f 128/6/3 119/6/3 127/6/3
f 129/8/3 120/8/3 128/8/3
f 130/3/3 101/3/3 107/3/3
f 130/5/3 107/5/3 106/5/3
f 131/3/3 101/3/3 130/3/3
f 134/7/3 106/7/3 105/7/3
f 135/5/3 130/5/3 106/5/3
f 135/7/3 106/7/3 134/7/3
f 135/5/3 131/5/3 130/5/3
f 136/5/3 131/5/3 135/5/3
f 137/3/3 101/3/3 131/3/3
f 137/5/3 131/5/3 136/5/3
f 138/6/3 125/6/3 101/6/3
f 138/3/3 101/3/3 137/3/3
f 139/1/3 127/1/3 126/1/3
f 139/2/3 126/2/3 125/2/3
f 140/1/3 127/1/3 139/1/3
f 141/6/3 128/6/3 127/6/3
f 141/1/3 127/1/3 140/1/3
f 142/6/3 128/6/3 141/6/3
f 143/8/3 133/8/3 132/8/3
f 144/8/3 133/8/3 143/8/3
f 145/8/3 124/8/3 123/8/3
f 146/8/3 124/8/3 145/8/3
f 147/7/3 136/7/3 135/7/3
f 148/5/3 137/5/3 136/5/3
f 148/7/3 136/7/3 147/7/3
f 148/5/3 138/5/3 137/5/3
f 149/6/3 125/6/3 138/6/3
f 149/5/3 138/5/3 148/5/3
f 150/2/3 140/2/3 139/2/3
f 150/6/3 125/6/3 149/6/3
f 150/2/3 139/2/3 125/2/3
f 151/6/3 141/6/3 140/6/3
f 151/2/3 140/2/3 150/2/3
f 152/6/3 141/6/3 151/6/3
f 153/8/3 145/8/3 144/8/3
f 154/8/3 145/8/3 153/8/3
f 155/7/3 149/7/3 148/7/3
f 155/7/3 151/7/3 150/7/3
f 155/7/3 150/7/3 149/7/3
f 156/7/3 151/7/3 155/7/3
f 157/6/4 158/6/4 160/6/4
f 160/6/4 158/6/4 161/6/4
f 161/6/4 158/6/4 162/6/4
f 162/6/4 158/6/4 163/6/4
f 159/6/4 160/6/4 166/6/4
f 160/3/4 161/3/4 167/3/4
f 166/6/4 160/6/4 167/6/4
f 163/6/4 164/6/4 168/6/4
f 162/4/4 163/4/4 168/4/4
f 168/6/4 164/6/4 169/6/4
f 171/8/4 172/8/4 174/8/4
f 174/8/4 172/8/4 175/8/4
f 161/6/4 162/6/4 177/6/4
f 162/4/4 168/4/4 177/4/4
f 168/4/4 169/4/4 177/4/4
f 169/6/4 170/6/4 178/6/4
f 177/4/4 169/4/4 178/4/4
f 178/6/4 170/6/4 179/6/4
f 173/8/4 174/8/4 180/8/4
f 180/8/4 174/8/4 181/8/4
f 175/8/4 176/8/4 182/8/4
f 182/8/4 176/8/4 183/8/4
f 178/6/4 179/6/4 185/6/4
f 161/6/4 177/6/4 185/6/4
f 177/6/4 178/6/4 185/6/4
f 185/6/4 179/6/4 186/6/4
f 186/6/4 179/6/4 187/6/4
f 179/8/4 180/8/4 188/8/4
f 187/6/4 179/6/4 188/6/4
f 188/8/4 180/8/4 189/8/4
f 167/3/4 161/3/4 190/3/4
f 166/5/4 167/5/4 190/5/4
f 190/3/4 161/3/4 191/3/4
f 165/7/4 166/7/4 194/7/4
f 166/5/4 190/5/4 195/5/4
f 194/7/4 166/7/4 195/7/4
f 190/5/4 191/5/4 195/5/4
f 195/5/4 191/5/4 196/5/4
f 191/3/4 161/3/4 197/3/4
f 196/5/4 191/5/4 197/5/4
f 161/6/4 185/6/4 198/6/4
f 197/3/4 161/3/4 198/3/4
f 186/1/4 187/1/4 199/1/4
f 185/2/4 186/2/4 199/2/4
f 199/1/4 187/1/4 200/1/4
f 187/6/4 188/6/4 201/6/4
f 200/1/4 187/1/4 201/1/4
f 201/6/4 188/6/4 202/6/4
f 192/8/4 193/8/4 203/8/4
f 203/8/4 193/8/4 204/8/4
f 183/8/4 184/8/4 205/8/4
f 205/8/4 184/8/4 206/8/4
f 195/7/4 196/7/4 207/7/4
f 196/5/4 197/5/4 208/5/4
f 207/7/4 196/7/4 208/7/4
f 197/5/4 198/5/4 208/5/4
f 198/6/4 185/6/4 209/6/4
f 208/5/4 198/5/4 209/5/4
f 199/2/4 200/2/4 210/2/4
f 209/6/4 185/6/4 210/6/4
f 185/2/4 199/2/4 210/2/4
f 200/6/4 201/6/4 211/6/4
f 210/2/4 200/2/4 211/2/4
f 211/6/4 201/6/4 212/6/4
f 204/8/4 205/8/4 213/8/4
f 213/8/4 205/8/4 214/8/4
f 208/7/4 209/7/4 215/7/4
f 210/7/4 211/7/4 215/7/4
f 209/7/4 210/7/4 215/7/4
f 215/7/4 211/7/4 216/7/4
f 219/7/5 218/7/5 217/7/5
f 220/7/5 218/7/5 219/7/5
f 225/6/5 222/6/5 221/6/5
f 226/6/5 222/6/5 225/6/5
f 227/7/5 224/7/5 223/7/5
f 228/7/5 224/7/5 227/7/5
f 233/6/5 230/6/5 229/6/5
f 234/6/5 230/6/5 233/6/5
f 235/7/5 232/7/5 231/7/5
f 236/7/5 232/7/5 235/7/5
f 239/8/5 238/8/5 237/8/5
f 240/8/5 238/8/5 239/8/5
f 245/8/5 242/8/5 241/8/5
f 246/8/5 242/8/5 245/8/5
f 247/8/5 244/8/5 243/8/5
f 248/8/5 244/8/5 247/8/5
f 253/8/5 250/8/5 249/8/5
f 254/8/5 250/8/5 253/8/5
f 255/8/5 252/8/5 251/8/5
f 256/8/5 252/8/5 255/8/5
f 259/8/5 258/8/5 257/8/5
f 260/8/5 258/8/5 259/8/5
f 261/6/6 262/6/6 265/6/6
f 265/6/6 262/6/6 266/6/6
f 263/7/6 264/7/6 267/7/6
f 267/7/6 264/7/6 268/7/6
f 269/6/6 270/6/6 273/6/6
f 273/6/6 270/6/6 274/6/6
f 271/6/6 272/6/6 275/6/6
f 275/6/6 272/6/6 276/6/6
f 277/6/6 278/6/6 281/6/6
f 281/6/6 278/6/6 282/6/6
f 279/6/6 280/6/6 283/6/6
f 283/6/6 280/6/6 284/6/6
f 285/8/6 286/8/6 287/8/6
f 287/8/6 286/8/6 288/8/6
f 289/8/6 290/8/6 291/8/6
f 291/8/6 290/8/6 292/8/6
f 293/8/6 294/8/6 297/8/6
f 297/8/6 294/8/6 298/8/6
f 295/8/6 296/8/6 299/8/6
f 299/8/6 296/8/6 300/8/6
f 301/8/6 302/8/6 305/8/6
f 305/8/6 302/8/6 306/8/6
f 303/8/6 304/8/6 307/8/6
f 307/8/6 304/8/6 308/8/6
f 309/8/6 310/8/6 311/8/6
f 311/8/6 310/8/6 312/8/6
