# MagicaVoxel @ Ephtracy

# group
o 

# material
mtllib wheel2.mtl
usemtl palette

# normals
vn -1 0 0
vn 1 0 0
vn 0 0 1
vn 0 0 -1
vn 0 -1 0
vn 0 1 0

# texcoords
vt 0.751953 0.5
vt 0.798828 0.5
vt 0.919922 0.5
vt 0.978516 0.5
vt 0.990234 0.5

# verts
v -0.1 -0.4 0.2
v -0.1 -0.4 0.1
v -0.1 -0.4 -0.1
v -0.1 -0.4 -0.2
v -0.1 -0.3 0.3
v -0.1 -0.3 0.2
v -0.1 -0.3 0.1
v -0.1 -0.3 -0.1
v -0.1 -0.3 -0.2
v -0.1 -0.3 -0.3
v -0.1 -0.2 0.4
v -0.1 -0.2 0.3
v -0.1 -0.2 0.2
v -0.1 -0.2 0.1
v -0.1 -0.2 -0.1
v -0.1 -0.2 -0.2
v -0.1 -0.2 -0.3
v -0.1 -0.2 -0.4
v -0.1 -0.1 0.4
v -0.1 -0.1 0.3
v -0.1 -0.1 0.2
v -0.1 -0.1 0.1
v -0.1 -0.1 -0.1
v -0.1 -0.1 -0.2
v -0.1 -0.1 -0.3
v -0.1 -0.1 -0.4
v -0.1 0.1 0.4
v -0.1 0.1 0.3
v -0.1 0.1 0.2
v -0.1 0.1 0.1
v -0.1 0.1 -0.1
v -0.1 0.1 -0.2
v -0.1 0.1 -0.3
v -0.1 0.1 -0.4
v -0.1 0.2 0.4
v -0.1 0.2 0.3
v -0.1 0.2 0.2
v -0.1 0.2 0.1
v -0.1 0.2 -0.1
v -0.1 0.2 -0.2
v -0.1 0.2 -0.3
v -0.1 0.2 -0.4
v -0.1 0.3 0.3
v -0.1 0.3 0.2
v -0.1 0.3 0.1
v -0.1 0.3 -0.1
v -0.1 0.3 -0.2
v -0.1 0.3 -0.3
v -0.1 0.4 0.2
v -0.1 0.4 0.1
v -0.1 0.4 -0.1
v -0.1 0.4 -0.2
v 0.1 -0.4 0.2
v 0.1 -0.4 0.1
v 0.1 -0.4 -0.1
v 0.1 -0.4 -0.2
v 0.1 -0.3 0.3
v 0.1 -0.3 0.2
v 0.1 -0.3 0.1
v 0.1 -0.3 -0.1
v 0.1 -0.3 -0.2
v 0.1 -0.3 -0.3
v 0.1 -0.2 0.4
v 0.1 -0.2 0.3
v 0.1 -0.2 0.2
v 0.1 -0.2 0.1
v 0.1 -0.2 -0.1
v 0.1 -0.2 -0.2
v 0.1 -0.2 -0.3
v 0.1 -0.2 -0.4
v 0.1 -0.1 0.4
v 0.1 -0.1 0.3
v 0.1 -0.1 0.2
v 0.1 -0.1 0.1
v 0.1 -0.1 -0.1
v 0.1 -0.1 -0.2
v 0.1 -0.1 -0.3
v 0.1 -0.1 -0.4
v 0.1 0.1 0.4
v 0.1 0.1 0.3
v 0.1 0.1 0.2
v 0.1 0.1 0.1
v 0.1 0.1 -0.1
v 0.1 0.1 -0.2
v 0.1 0.1 -0.3
v 0.1 0.1 -0.4
v 0.1 0.2 0.4
v 0.1 0.2 0.3
v 0.1 0.2 0.2
v 0.1 0.2 0.1
v 0.1 0.2 -0.1
v 0.1 0.2 -0.2
v 0.1 0.2 -0.3
v 0.1 0.2 -0.4
v 0.1 0.3 0.3
v 0.1 0.3 0.2
v 0.1 0.3 0.1
v 0.1 0.3 -0.1
v 0.1 0.3 -0.2
v 0.1 0.3 -0.3
v 0.1 0.4 0.2
v 0.1 0.4 0.1
v 0.1 0.4 -0.1
v 0.1 0.4 -0.2
v -0.1 -0.2 0.4
v -0.1 -0.1 0.4
v -0.1 0.1 0.4
v -0.1 0.2 0.4
v 0.1 -0.2 0.4
v 0.1 -0.1 0.4
v 0.1 0.1 0.4
v 0.1 0.2 0.4
v -0.1 -0.3 0.3
v -0.1 -0.2 0.3
v -0.1 0.2 0.3
v -0.1 0.3 0.3
v 0.1 -0.3 0.3
v 0.1 -0.2 0.3
v 0.1 0.2 0.3
v 0.1 0.3 0.3
v -0.1 -0.4 0.2
v -0.1 -0.3 0.2
v -0.1 0.3 0.2
v -0.1 0.4 0.2
v 0.1 -0.4 0.2
v 0.1 -0.3 0.2
v 0.1 0.3 0.2
v 0.1 0.4 0.2
v -0.1 -0.4 -0.2
v -0.1 -0.3 -0.2
v -0.1 0.3 -0.2
v -0.1 0.4 -0.2
v 0.1 -0.4 -0.2
v 0.1 -0.3 -0.2
v 0.1 0.3 -0.2
v 0.1 0.4 -0.2
v -0.1 -0.3 -0.3
v -0.1 -0.2 -0.3
v -0.1 0.2 -0.3
v -0.1 0.3 -0.3
v 0.1 -0.3 -0.3
v 0.1 -0.2 -0.3
v 0.1 0.2 -0.3
v 0.1 0.3 -0.3
v -0.1 -0.2 -0.4
v -0.1 -0.1 -0.4
v -0.1 0.1 -0.4
v -0.1 0.2 -0.4
v 0.1 -0.2 -0.4
v 0.1 -0.1 -0.4
v 0.1 0.1 -0.4
v 0.1 0.2 -0.4
v -0.1 -0.4 0.2
v 0.1 -0.4 0.2
v -0.1 -0.4 0.1
v 0.1 -0.4 0.1
v -0.1 -0.4 -0.1
v 0.1 -0.4 -0.1
v -0.1 -0.4 -0.2
v 0.1 -0.4 -0.2
v -0.1 -0.3 0.3
v 0.1 -0.3 0.3
v -0.1 -0.3 0.2
v 0.1 -0.3 0.2
v -0.1 -0.3 -0.2
v 0.1 -0.3 -0.2
v -0.1 -0.3 -0.3
v 0.1 -0.3 -0.3
v -0.1 -0.2 0.4
v 0.1 -0.2 0.4
v -0.1 -0.2 0.3
v 0.1 -0.2 0.3
v -0.1 -0.2 -0.3
v 0.1 -0.2 -0.3
v -0.1 -0.2 -0.4
v 0.1 -0.2 -0.4
v -0.1 0.2 0.4
v 0.1 0.2 0.4
v -0.1 0.2 0.3
v 0.1 0.2 0.3
v -0.1 0.2 -0.3
v 0.1 0.2 -0.3
v -0.1 0.2 -0.4
v 0.1 0.2 -0.4
v -0.1 0.3 0.3
v 0.1 0.3 0.3
v -0.1 0.3 0.2
v 0.1 0.3 0.2
v -0.1 0.3 -0.2
v 0.1 0.3 -0.2
v -0.1 0.3 -0.3
v 0.1 0.3 -0.3
v -0.1 0.4 0.2
v 0.1 0.4 0.2
v -0.1 0.4 0.1
v 0.1 0.4 0.1
v -0.1 0.4 -0.1
v 0.1 0.4 -0.1
v -0.1 0.4 -0.2
v 0.1 0.4 -0.2

# faces
f 6/1/1 2/1/1 1/1/1
f 7/5/1 3/5/1 2/5/1
f 7/1/1 2/1/1 6/1/1
f 8/1/1 4/1/1 3/1/1
f 8/5/1 3/5/1 7/5/1
f 9/1/1 4/1/1 8/1/1
f 12/5/1 7/5/1 6/5/1
f 12/5/1 10/5/1 9/5/1
f 12/5/1 9/5/1 8/5/1
f 12/5/1 8/5/1 7/5/1
f 12/5/1 6/5/1 5/5/1
f 13/5/1 10/5/1 12/5/1
f 14/5/1 10/5/1 13/5/1
f 15/5/1 10/5/1 14/5/1
f 16/5/1 10/5/1 15/5/1
f 17/5/1 10/5/1 16/5/1
f 19/1/1 12/1/1 11/1/1
f 20/5/1 13/5/1 12/5/1
f 20/1/1 12/1/1 19/1/1
f 21/2/1 14/2/1 13/2/1
f 21/5/1 13/5/1 20/5/1
f 22/5/1 15/5/1 14/5/1
f 22/2/1 14/2/1 21/2/1
f 23/2/1 16/2/1 15/2/1
f 23/5/1 15/5/1 22/5/1
f 24/5/1 17/5/1 16/5/1
f 24/2/1 16/2/1 23/2/1
f 25/1/1 18/1/1 17/1/1
f 25/5/1 17/5/1 24/5/1
f 26/1/1 18/1/1 25/1/1
f 27/5/1 20/5/1 19/5/1
f 27/5/1 21/5/1 20/5/1
f 27/5/1 22/5/1 21/5/1
f 28/5/1 22/5/1 27/5/1
f 29/5/1 22/5/1 28/5/1
f 30/4/1 23/4/1 22/4/1
f 30/5/1 22/5/1 29/5/1
f 31/5/1 24/5/1 23/5/1
f 31/4/1 23/4/1 30/4/1
f 31/5/1 26/5/1 25/5/1
f 31/5/1 25/5/1 24/5/1
f 32/5/1 26/5/1 31/5/1
f 33/5/1 26/5/1 32/5/1
f 34/5/1 26/5/1 33/5/1
f 35/1/1 28/1/1 27/1/1
f 36/5/1 29/5/1 28/5/1
f 36/1/1 28/1/1 35/1/1
f 37/2/1 30/2/1 29/2/1
f 37/5/1 29/5/1 36/5/1
f 38/5/1 31/5/1 30/5/1
f 38/2/1 30/2/1 37/2/1
f 39/2/1 32/2/1 31/2/1
f 39/5/1 31/5/1 38/5/1
f 40/5/1 33/5/1 32/5/1
f 40/2/1 32/2/1 39/2/1
f 41/1/1 34/1/1 33/1/1
f 41/5/1 33/5/1 40/5/1
f 42/1/1 34/1/1 41/1/1
f 43/5/1 37/5/1 36/5/1
f 43/5/1 41/5/1 40/5/1
f 43/5/1 40/5/1 39/5/1
f 43/5/1 39/5/1 38/5/1
f 43/5/1 38/5/1 37/5/1
f 44/5/1 41/5/1 43/5/1
f 45/5/1 41/5/1 44/5/1
f 46/5/1 41/5/1 45/5/1
f 47/5/1 41/5/1 46/5/1
f 48/5/1 41/5/1 47/5/1
f 49/1/1 45/1/1 44/1/1
f 50/5/1 46/5/1 45/5/1
f 50/1/1 45/1/1 49/1/1
f 51/1/1 47/1/1 46/1/1
f 51/5/1 46/5/1 50/5/1
f 52/1/1 47/1/1 51/1/1
f 53/1/2 54/1/2 58/1/2
f 54/5/2 55/5/2 59/5/2
f 58/1/2 54/1/2 59/1/2
f 55/1/2 56/1/2 60/1/2
f 59/5/2 55/5/2 60/5/2
f 60/1/2 56/1/2 61/1/2
f 58/5/2 59/5/2 64/5/2
f 61/5/2 62/5/2 64/5/2
f 60/5/2 61/5/2 64/5/2
f 59/5/2 60/5/2 64/5/2
f 57/5/2 58/5/2 64/5/2
f 64/5/2 62/5/2 65/5/2
f 65/5/2 62/5/2 66/5/2
f 66/5/2 62/5/2 67/5/2
f 67/5/2 62/5/2 68/5/2
f 68/5/2 62/5/2 69/5/2
f 63/1/2 64/1/2 71/1/2
f 64/5/2 65/5/2 72/5/2
f 71/1/2 64/1/2 72/1/2
f 65/3/2 66/3/2 73/3/2
f 72/5/2 65/5/2 73/5/2
f 66/5/2 67/5/2 74/5/2
f 73/3/2 66/3/2 74/3/2
f 67/3/2 68/3/2 75/3/2
f 74/5/2 67/5/2 75/5/2
f 68/5/2 69/5/2 76/5/2
f 75/3/2 68/3/2 76/3/2
f 69/1/2 70/1/2 77/1/2
f 76/5/2 69/5/2 77/5/2
f 77/1/2 70/1/2 78/1/2
f 71/5/2 72/5/2 79/5/2
f 72/5/2 73/5/2 79/5/2
f 73/5/2 74/5/2 79/5/2
f 79/5/2 74/5/2 80/5/2
f 80/5/2 74/5/2 81/5/2
f 74/4/2 75/4/2 82/4/2
f 81/5/2 74/5/2 82/5/2
f 75/5/2 76/5/2 83/5/2
f 82/4/2 75/4/2 83/4/2
f 77/5/2 78/5/2 83/5/2
f 76/5/2 77/5/2 83/5/2
f 83/5/2 78/5/2 84/5/2
f 84/5/2 78/5/2 85/5/2
f 85/5/2 78/5/2 86/5/2
f 79/1/2 80/1/2 87/1/2
f 80/5/2 81/5/2 88/5/2
f 87/1/2 80/1/2 88/1/2
f 81/3/2 82/3/2 89/3/2
f 88/5/2 81/5/2 89/5/2
f 82/5/2 83/5/2 90/5/2
f 89/3/2 82/3/2 90/3/2
f 83/3/2 84/3/2 91/3/2
f 90/5/2 83/5/2 91/5/2
f 84/5/2 85/5/2 92/5/2
f 91/3/2 84/3/2 92/3/2
f 85/1/2 86/1/2 93/1/2
f 92/5/2 85/5/2 93/5/2
f 93/1/2 86/1/2 94/1/2
f 88/5/2 89/5/2 95/5/2
f 92/5/2 93/5/2 95/5/2
f 91/5/2 92/5/2 95/5/2
f 90/5/2 91/5/2 95/5/2
f 89/5/2 90/5/2 95/5/2
f 95/5/2 93/5/2 96/5/2
f 96/5/2 93/5/2 97/5/2
f 97/5/2 93/5/2 98/5/2
f 98/5/2 93/5/2 99/5/2
f 99/5/2 93/5/2 100/5/2
f 96/1/2 97/1/2 101/1/2
f 97/5/2 98/5/2 102/5/2
f 101/1/2 97/1/2 102/1/2
f 98/1/2 99/1/2 103/1/2
f 102/5/2 98/5/2 103/5/2
f 103/1/2 99/1/2 104/1/2
f 109/1/3 106/1/3 105/1/3
f 110/5/3 107/5/3 106/5/3
f 110/1/3 106/1/3 109/1/3
f 111/1/3 108/1/3 107/1/3
f 111/5/3 107/5/3 110/5/3
f 112/1/3 108/1/3 111/1/3
f 117/5/3 114/5/3 113/5/3
f 118/5/3 114/5/3 117/5/3
f 119/5/3 116/5/3 115/5/3
f 120/5/3 116/5/3 119/5/3
f 125/1/3 122/1/3 121/1/3
f 126/1/3 122/1/3 125/1/3
f 127/1/3 124/1/3 123/1/3
f 128/1/3 124/1/3 127/1/3
f 129/1/4 130/1/4 133/1/4
f 133/1/4 130/1/4 134/1/4
f 131/1/4 132/1/4 135/1/4
f 135/1/4 132/1/4 136/1/4
f 137/5/4 138/5/4 141/5/4
f 141/5/4 138/5/4 142/5/4
f 139/5/4 140/5/4 143/5/4
f 143/5/4 140/5/4 144/5/4
f 145/1/4 146/1/4 149/1/4
f 146/5/4 147/5/4 150/5/4
f 149/1/4 146/1/4 150/1/4
f 147/1/4 148/1/4 151/1/4
f 150/5/4 147/5/4 151/5/4
f 151/1/4 148/1/4 152/1/4
f 155/1/5 154/1/5 153/1/5
f 156/1/5 154/1/5 155/1/5
f 157/5/5 156/5/5 155/5/5
f 158/5/5 156/5/5 157/5/5
f 159/1/5 158/1/5 157/1/5
f 160/1/5 158/1/5 159/1/5
f 163/5/5 162/5/5 161/5/5
f 164/5/5 162/5/5 163/5/5
f 167/5/5 166/5/5 165/5/5
f 168/5/5 166/5/5 167/5/5
f 171/1/5 170/1/5 169/1/5
f 172/1/5 170/1/5 171/1/5
f 175/1/5 174/1/5 173/1/5
f 176/1/5 174/1/5 175/1/5
f 177/1/6 178/1/6 179/1/6
f 179/1/6 178/1/6 180/1/6
f 181/1/6 182/1/6 183/1/6
f 183/1/6 182/1/6 184/1/6
f 185/5/6 186/5/6 187/5/6
f 187/5/6 186/5/6 188/5/6
f 189/5/6 190/5/6 191/5/6
f 191/5/6 190/5/6 192/5/6
f 193/1/6 194/1/6 195/1/6
f 195/1/6 194/1/6 196/1/6
f 195/5/6 196/5/6 197/5/6
f 197/5/6 196/5/6 198/5/6
f 197/1/6 198/1/6 199/1/6
f 199/1/6 198/1/6 200/1/6
