# MagicaVoxel @ Ephtracy

# group
o 

# material
mtllib botHouse.mtl
usemtl palette

# normals
vn -1 0 0
vn 1 0 0
vn 0 0 1
vn 0 0 -1
vn 0 -1 0
vn 0 1 0

# texcoords
vt 0.966797 0.5
vt 0.978516 0.5
vt 0.990234 0.5

# verts
v -2 0 3.2
v -2 0 -3.2
v -2 0.1 3.2
v -2 0.1 -3.2
v -1.7 0.1 2.7
v -1.7 0.1 -2.9
v -1.7 2.8 2.7
v -1.7 2.8 -2.9
v 0.9 2.5 2.7
v 0.9 2.5 2.6
v 0.9 2.6 2.7
v 0.9 2.6 2.6
v 1 2.4 2.7
v 1 2.4 2.6
v 1 2.5 2.7
v 1 2.5 2.6
v 1.1 2.3 2.7
v 1.1 2.3 2.6
v 1.1 2.4 2.7
v 1.1 2.4 2.6
v 1.2 2.2 2.7
v 1.2 2.2 2.6
v 1.2 2.3 2.7
v 1.2 2.3 2.6
v 1.3 0.2 2.7
v 1.3 0.2 2.6
v 1.3 2.2 2.7
v 1.3 2.2 2.6
v -1.2 0.2 2.7
v -1.2 0.2 2.6
v -1.2 2.2 2.7
v -1.2 2.2 2.6
v -1.1 2.2 2.7
v -1.1 2.2 2.6
v -1.1 2.3 2.7
v -1.1 2.3 2.6
v -1 2.3 2.7
v -1 2.3 2.6
v -1 2.4 2.7
v -1 2.4 2.6
v -0.9 2.4 2.7
v -0.9 2.4 2.6
v -0.9 2.5 2.7
v -0.9 2.5 2.6
v -0.8 2.5 2.7
v -0.8 2.5 2.6
v -0.8 2.6 2.7
v -0.8 2.6 2.6
v 1.8 0.1 2.7
v 1.8 0.1 -2.9
v 1.8 2.8 2.7
v 1.8 2.8 -2.9
v 2 0 3.2
v 2 0 -3.2
v 2 0.1 3.2
v 2 0.1 -3.2
v -2 0 3.2
v -2 0.1 3.2
v 2 0 3.2
v 2 0.1 3.2
v -1.7 0.1 2.7
v -1.7 2.8 2.7
v -1.3 0.2 2.7
v -1.3 2.2 2.7
v -1.2 0.2 2.7
v -1.2 2.2 2.7
v -1.2 2.3 2.7
v -1.1 2.2 2.7
v -1.1 2.3 2.7
v -1.1 2.4 2.7
v -1 2.3 2.7
v -1 2.4 2.7
v -1 2.5 2.7
v -0.9 2.4 2.7
v -0.9 2.5 2.7
v -0.9 2.6 2.7
v -0.8 2.5 2.7
v -0.8 2.6 2.7
v -0.8 2.7 2.7
v 0.9 2.5 2.7
v 0.9 2.6 2.7
v 0.9 2.7 2.7
v 1 2.4 2.7
v 1 2.5 2.7
v 1 2.6 2.7
v 1.1 2.3 2.7
v 1.1 2.4 2.7
v 1.1 2.5 2.7
v 1.2 2.2 2.7
v 1.2 2.3 2.7
v 1.2 2.4 2.7
v 1.3 0.2 2.7
v 1.3 2.2 2.7
v 1.3 2.3 2.7
v 1.4 0.2 2.7
v 1.4 2.2 2.7
v 1.8 0.1 2.7
v 1.8 2.8 2.7
v -1.2 0.2 2.6
v -1.2 2.2 2.6
v -1.1 2.2 2.6
v -1.1 2.3 2.6
v -1 2.3 2.6
v -1 2.4 2.6
v -0.9 2.4 2.6
v -0.9 2.5 2.6
v -0.8 2.5 2.6
v -0.8 2.6 2.6
v 0.9 2.5 2.6
v 0.9 2.6 2.6
v 1 2.4 2.6
v 1 2.5 2.6
v 1.1 2.3 2.6
v 1.1 2.4 2.6
v 1.2 2.2 2.6
v 1.2 2.3 2.6
v 1.3 0.2 2.6
v 1.3 2.2 2.6
v -1.7 0.1 -2.9
v -1.7 2.8 -2.9
v 1.8 0.1 -2.9
v 1.8 2.8 -2.9
v -2 0 -3.2
v -2 0.1 -3.2
v 2 0 -3.2
v 2 0.1 -3.2
v -2 0 3.2
v 2 0 3.2
v -2 0 -3.2
v 2 0 -3.2
v -1.2 2.2 2.7
v -1.1 2.2 2.7
v 1.2 2.2 2.7
v 1.3 2.2 2.7
v -1.2 2.2 2.6
v -1.1 2.2 2.6
v 1.2 2.2 2.6
v 1.3 2.2 2.6
v -1.1 2.3 2.7
v -1 2.3 2.7
v 1.1 2.3 2.7
v 1.2 2.3 2.7
v -1.1 2.3 2.6
v -1 2.3 2.6
v 1.1 2.3 2.6
v 1.2 2.3 2.6
v -1 2.4 2.7
v -0.9 2.4 2.7
v 1 2.4 2.7
v 1.1 2.4 2.7
v -1 2.4 2.6
v -0.9 2.4 2.6
v 1 2.4 2.6
v 1.1 2.4 2.6
v -0.9 2.5 2.7
v -0.8 2.5 2.7
v 0.9 2.5 2.7
v 1 2.5 2.7
v -0.9 2.5 2.6
v -0.8 2.5 2.6
v 0.9 2.5 2.6
v 1 2.5 2.6
v -0.8 2.6 2.7
v 0.9 2.6 2.7
v -0.8 2.6 2.6
v 0.9 2.6 2.6
v -2 0.1 3.2
v 2 0.1 3.2
v -1.7 0.1 2.7
v 1.8 0.1 2.7
v -1.7 0.1 -2.9
v 1.8 0.1 -2.9
v -2 0.1 -3.2
v 2 0.1 -3.2
v -1.2 0.2 2.7
v 1.3 0.2 2.7
v -1.2 0.2 2.6
v 1.3 0.2 2.6
v -1.7 2.8 2.7
v 1.8 2.8 2.7
v -1.6 2.8 2.6
v 1.7 2.8 2.6
v -1.6 2.8 -2.8
v 1.7 2.8 -2.8
v -1.7 2.8 -2.9
v 1.8 2.8 -2.9

# faces
f 3/2/1 2/2/1 1/2/1
f 4/2/1 2/2/1 3/2/1
f 7/1/1 6/1/1 5/1/1
f 8/1/1 6/1/1 7/1/1
f 11/3/1 10/3/1 9/3/1
f 12/3/1 10/3/1 11/3/1
f 15/3/1 14/3/1 13/3/1
f 16/3/1 14/3/1 15/3/1
f 19/3/1 18/3/1 17/3/1
f 20/3/1 18/3/1 19/3/1
f 23/3/1 22/3/1 21/3/1
f 24/3/1 22/3/1 23/3/1
f 27/3/1 26/3/1 25/3/1
f 28/3/1 26/3/1 27/3/1
f 29/3/2 30/3/2 31/3/2
f 31/3/2 30/3/2 32/3/2
f 33/3/2 34/3/2 35/3/2
f 35/3/2 34/3/2 36/3/2
f 37/3/2 38/3/2 39/3/2
f 39/3/2 38/3/2 40/3/2
f 41/3/2 42/3/2 43/3/2
f 43/3/2 42/3/2 44/3/2
f 45/3/2 46/3/2 47/3/2
f 47/3/2 46/3/2 48/3/2
f 49/1/2 50/1/2 51/1/2
f 51/1/2 50/1/2 52/1/2
f 53/2/2 54/2/2 55/2/2
f 55/2/2 54/2/2 56/2/2
f 59/2/3 58/2/3 57/2/3
f 60/2/3 58/2/3 59/2/3
f 63/1/3 62/1/3 61/1/3
f 64/1/3 62/1/3 63/1/3
f 65/1/3 63/1/3 61/1/3
f 65/3/3 64/3/3 63/3/3
f 66/1/3 62/1/3 64/1/3
f 66/3/3 64/3/3 65/3/3
f 67/1/3 62/1/3 66/1/3
f 68/3/3 67/3/3 66/3/3
f 69/1/3 62/1/3 67/1/3
f 69/3/3 67/3/3 68/3/3
f 70/1/3 62/1/3 69/1/3
f 71/3/3 70/3/3 69/3/3
f 72/1/3 62/1/3 70/1/3
f 72/3/3 70/3/3 71/3/3
f 73/1/3 62/1/3 72/1/3
f 74/3/3 73/3/3 72/3/3
f 75/1/3 62/1/3 73/1/3
f 75/3/3 73/3/3 74/3/3
f 76/1/3 62/1/3 75/1/3
f 77/3/3 76/3/3 75/3/3
f 78/1/3 62/1/3 76/1/3
f 78/3/3 76/3/3 77/3/3
f 79/1/3 62/1/3 78/1/3
f 81/3/3 79/3/3 78/3/3
f 82/1/3 62/1/3 79/1/3
f 82/3/3 79/3/3 81/3/3
f 84/3/3 81/3/3 80/3/3
f 85/1/3 82/1/3 81/1/3
f 85/3/3 81/3/3 84/3/3
f 87/3/3 84/3/3 83/3/3
f 88/1/3 85/1/3 84/1/3
f 88/3/3 84/3/3 87/3/3
f 90/3/3 87/3/3 86/3/3
f 91/1/3 88/1/3 87/1/3
f 91/3/3 87/3/3 90/3/3
f 92/1/3 65/1/3 61/1/3
f 93/3/3 90/3/3 89/3/3
f 94/1/3 91/1/3 90/1/3
f 94/3/3 90/3/3 93/3/3
f 95/1/3 92/1/3 61/1/3
f 95/3/3 93/3/3 92/3/3
f 96/1/3 94/1/3 93/1/3
f 96/3/3 93/3/3 95/3/3
f 97/1/3 95/1/3 61/1/3
f 97/1/3 96/1/3 95/1/3
f 98/1/3 88/1/3 91/1/3
f 98/1/3 96/1/3 97/1/3
f 98/1/3 62/1/3 82/1/3
f 98/1/3 82/1/3 85/1/3
f 98/1/3 94/1/3 96/1/3
f 98/1/3 85/1/3 88/1/3
f 98/1/3 91/1/3 94/1/3
f 101/3/3 100/3/3 99/3/3
f 103/3/3 102/3/3 101/3/3
f 105/3/3 104/3/3 103/3/3
f 107/3/3 106/3/3 105/3/3
f 109/3/3 107/3/3 105/3/3
f 109/3/3 108/3/3 107/3/3
f 110/3/3 108/3/3 109/3/3
f 111/3/3 105/3/3 103/3/3
f 111/3/3 109/3/3 105/3/3
f 112/3/3 109/3/3 111/3/3
f 113/3/3 103/3/3 101/3/3
f 113/3/3 111/3/3 103/3/3
f 114/3/3 111/3/3 113/3/3
f 115/3/3 101/3/3 99/3/3
f 115/3/3 113/3/3 101/3/3
f 116/3/3 113/3/3 115/3/3
f 117/3/3 115/3/3 99/3/3
f 118/3/3 115/3/3 117/3/3
f 119/1/4 120/1/4 121/1/4
f 121/1/4 120/1/4 122/1/4
f 123/2/4 124/2/4 125/2/4
f 125/2/4 124/2/4 126/2/4
f 129/2/5 128/2/5 127/2/5
f 130/2/5 128/2/5 129/2/5
f 135/3/5 132/3/5 131/3/5
f 136/3/5 132/3/5 135/3/5
f 137/3/5 134/3/5 133/3/5
f 138/3/5 134/3/5 137/3/5
f 143/3/5 140/3/5 139/3/5
f 144/3/5 140/3/5 143/3/5
f 145/3/5 142/3/5 141/3/5
f 146/3/5 142/3/5 145/3/5
f 151/3/5 148/3/5 147/3/5
f 152/3/5 148/3/5 151/3/5
f 153/3/5 150/3/5 149/3/5
f 154/3/5 150/3/5 153/3/5
f 159/3/5 156/3/5 155/3/5
f 160/3/5 156/3/5 159/3/5
f 161/3/5 158/3/5 157/3/5
f 162/3/5 158/3/5 161/3/5
f 165/3/5 164/3/5 163/3/5
f 166/3/5 164/3/5 165/3/5
f 167/2/6 168/2/6 169/2/6
f 169/2/6 168/2/6 170/2/6
f 167/2/6 169/2/6 171/2/6
f 170/2/6 168/2/6 172/2/6
f 167/2/6 171/2/6 173/2/6
f 171/2/6 172/2/6 173/2/6
f 172/2/6 168/2/6 174/2/6
f 173/2/6 172/2/6 174/2/6
f 175/1/6 176/1/6 177/1/6
f 177/1/6 176/1/6 178/1/6
f 179/1/6 180/1/6 181/1/6
f 181/1/6 180/1/6 182/1/6
f 179/1/6 181/1/6 183/1/6
f 181/3/6 182/3/6 183/3/6
f 182/1/6 180/1/6 184/1/6
f 183/3/6 182/3/6 184/3/6
f 179/1/6 183/1/6 185/1/6
f 183/1/6 184/1/6 185/1/6
f 184/1/6 180/1/6 186/1/6
f 185/1/6 184/1/6 186/1/6
