# MagicaVoxel @ Ephtracy

# group
o 

# material
mtllib bush3.mtl
usemtl palette

# normals
vn -1 0 0
vn 1 0 0
vn 0 0 1
vn 0 0 -1
vn 0 -1 0
vn 0 1 0

# texcoords
vt 0.880859 0.5
vt 0.884766 0.5
vt 0.888672 0.5
vt 0.896484 0.5
vt 0.900391 0.5
vt 0.904297 0.5
vt 0.970703 0.5
vt 0.974609 0.5
vt 0.978516 0.5
vt 0.982422 0.5
vt 0.986328 0.5
vt 0.990234 0.5

# verts
v -0.25 -0.2 0.45
v -0.25 -0.2 0.35
v -0.25 -0.2 0.25
v -0.25 -0.2 0.15
v -0.25 -0.2 0.05
v -0.25 -0.2 -0.05
v -0.25 -0.2 -0.15
v -0.25 -0.2 -0.25
v -0.25 -0.2 -0.35
v -0.25 -0.2 -0.45
v -0.25 -0.1 0.45
v -0.25 -0.1 0.35
v -0.25 -0.1 0.25
v -0.25 -0.1 0.15
v -0.25 -0.1 0.05
v -0.25 -0.1 -0.05
v -0.25 -0.1 -0.15
v -0.25 -0.1 -0.25
v -0.25 -0.1 -0.35
v -0.25 -0.1 -0.45
v -0.25 0 0.45
v -0.25 0 0.35
v -0.25 0 0.25
v -0.25 0 0.05
v -0.25 0 -0.05
v -0.25 0 -0.15
v -0.25 0 -0.25
v -0.25 0 -0.35
v -0.25 0 -0.45
v -0.15 0 0.35
v -0.15 0 0.25
v -0.15 0 0.15
v -0.15 0 0.05
v -0.15 0 -0.05
v -0.15 0 -0.15
v -0.15 0 -0.25
v -0.15 0 -0.35
v -0.15 0.1 0.35
v -0.15 0.1 0.25
v -0.15 0.1 0.15
v -0.15 0.1 0.05
v -0.15 0.1 -0.05
v -0.15 0.1 -0.15
v -0.15 0.1 -0.25
v -0.15 0.1 -0.35
v -0.15 0.2 0.35
v -0.15 0.2 0.25
v -0.15 0.2 0.15
v -0.15 0.2 0.05
v -0.15 0.2 -0.05
v -0.15 0.2 -0.15
v -0.15 0.2 -0.25
v -0.15 0.2 -0.35
v 0.15 0 0.35
v 0.15 0 0.25
v 0.15 0 0.15
v 0.15 0 0.05
v 0.15 0 -0.05
v 0.15 0 -0.15
v 0.15 0 -0.25
v 0.15 0 -0.35
v 0.15 0.1 0.35
v 0.15 0.1 0.25
v 0.15 0.1 0.15
v 0.15 0.1 0.05
v 0.15 0.1 -0.05
v 0.15 0.1 -0.15
v 0.15 0.1 -0.25
v 0.15 0.1 -0.35
v 0.15 0.2 0.35
v 0.15 0.2 0.25
v 0.15 0.2 0.15
v 0.15 0.2 0.05
v 0.15 0.2 -0.05
v 0.15 0.2 -0.15
v 0.15 0.2 -0.25
v 0.15 0.2 -0.35
v 0.25 -0.2 0.45
v 0.25 -0.2 0.35
v 0.25 -0.2 0.25
v 0.25 -0.2 0.15
v 0.25 -0.2 0.05
v 0.25 -0.2 -0.05
v 0.25 -0.2 -0.15
v 0.25 -0.2 -0.25
v 0.25 -0.2 -0.35
v 0.25 -0.2 -0.45
v 0.25 -0.1 0.45
v 0.25 -0.1 0.35
v 0.25 -0.1 0.25
v 0.25 -0.1 0.15
v 0.25 -0.1 0.05
v 0.25 -0.1 -0.05
v 0.25 -0.1 -0.15
v 0.25 -0.1 -0.25
v 0.25 -0.1 -0.35
v 0.25 -0.1 -0.45
v 0.25 0 0.45
v 0.25 0 0.35
v 0.25 0 0.25
v 0.25 0 0.15
v 0.25 0 0.05
v 0.25 0 -0.05
v 0.25 0 -0.15
v 0.25 0 -0.25
v 0.25 0 -0.35
v 0.25 0 -0.45
v -0.25 -0.2 0.45
v -0.25 -0.1 0.45
v -0.25 0 0.45
v -0.15 -0.2 0.45
v -0.15 -0.1 0.45
v -0.15 0 0.45
v -0.05 -0.2 0.45
v -0.05 -0.1 0.45
v -0.05 0 0.45
v 0.05 -0.2 0.45
v 0.05 -0.1 0.45
v 0.05 0 0.45
v 0.15 -0.2 0.45
v 0.15 -0.1 0.45
v 0.15 0 0.45
v 0.25 -0.2 0.45
v 0.25 -0.1 0.45
v 0.25 0 0.45
v -0.15 0 0.35
v -0.15 0.1 0.35
v -0.15 0.2 0.35
v -0.05 0 0.35
v -0.05 0.1 0.35
v -0.05 0.2 0.35
v 0.05 0 0.35
v 0.05 0.1 0.35
v 0.05 0.2 0.35
v 0.15 0 0.35
v 0.15 0.1 0.35
v 0.15 0.2 0.35
v -0.15 0 -0.35
v -0.15 0.1 -0.35
v -0.15 0.2 -0.35
v -0.05 0 -0.35
v -0.05 0.1 -0.35
v -0.05 0.2 -0.35
v 0.05 0 -0.35
v 0.05 0.1 -0.35
v 0.05 0.2 -0.35
v 0.15 0 -0.35
v 0.15 0.1 -0.35
v 0.15 0.2 -0.35
v -0.25 -0.2 -0.45
v -0.25 -0.1 -0.45
v -0.25 0 -0.45
v -0.15 -0.2 -0.45
v -0.15 -0.1 -0.45
v -0.15 0 -0.45
v -0.05 -0.2 -0.45
v -0.05 -0.1 -0.45
v -0.05 0 -0.45
v 0.05 -0.2 -0.45
v 0.05 -0.1 -0.45
v 0.05 0 -0.45
v 0.15 -0.2 -0.45
v 0.15 -0.1 -0.45
v 0.15 0 -0.45
v 0.25 -0.2 -0.45
v 0.25 -0.1 -0.45
v 0.25 0 -0.45
v -0.25 -0.2 0.45
v -0.15 -0.2 0.45
v -0.05 -0.2 0.45
v 0.05 -0.2 0.45
v 0.15 -0.2 0.45
v 0.25 -0.2 0.45
v -0.25 -0.2 0.35
v -0.15 -0.2 0.35
v -0.05 -0.2 0.35
v 0.05 -0.2 0.35
v 0.15 -0.2 0.35
v 0.25 -0.2 0.35
v -0.25 -0.2 0.25
v -0.15 -0.2 0.25
v 0.15 -0.2 0.25
v 0.25 -0.2 0.25
v -0.25 -0.2 0.15
v -0.15 -0.2 0.15
v 0.15 -0.2 0.15
v 0.25 -0.2 0.15
v -0.25 -0.2 0.05
v -0.15 -0.2 0.05
v 0.15 -0.2 0.05
v 0.25 -0.2 0.05
v -0.25 -0.2 -0.05
v -0.15 -0.2 -0.05
v 0.15 -0.2 -0.05
v 0.25 -0.2 -0.05
v -0.25 -0.2 -0.15
v -0.15 -0.2 -0.15
v 0.15 -0.2 -0.15
v 0.25 -0.2 -0.15
v -0.25 -0.2 -0.25
v -0.15 -0.2 -0.25
v 0.15 -0.2 -0.25
v 0.25 -0.2 -0.25
v -0.25 -0.2 -0.35
v -0.15 -0.2 -0.35
v -0.05 -0.2 -0.35
v 0.05 -0.2 -0.35
v 0.15 -0.2 -0.35
v 0.25 -0.2 -0.35
v -0.25 -0.2 -0.45
v -0.15 -0.2 -0.45
v -0.05 -0.2 -0.45
v 0.05 -0.2 -0.45
v 0.15 -0.2 -0.45
v 0.25 -0.2 -0.45
v -0.25 0 0.45
v -0.15 0 0.45
v -0.05 0 0.45
v 0.05 0 0.45
v 0.15 0 0.45
v 0.25 0 0.45
v -0.25 0 0.35
v -0.15 0 0.35
v -0.05 0 0.35
v 0.05 0 0.35
v 0.15 0 0.35
v 0.25 0 0.35
v -0.25 0 0.25
v -0.15 0 0.25
v 0.15 0 0.25
v 0.25 0 0.25
v -0.15 0 0.15
v 0.15 0 0.15
v 0.25 0 0.15
v -0.25 0 0.05
v -0.15 0 0.05
v 0.15 0 0.05
v 0.25 0 0.05
v -0.25 0 -0.05
v -0.15 0 -0.05
v 0.15 0 -0.05
v 0.25 0 -0.05
v -0.25 0 -0.15
v -0.15 0 -0.15
v 0.15 0 -0.15
v 0.25 0 -0.15
v -0.25 0 -0.25
v -0.15 0 -0.25
v 0.15 0 -0.25
v 0.25 0 -0.25
v -0.25 0 -0.35
v -0.15 0 -0.35
v -0.05 0 -0.35
v 0.05 0 -0.35
v 0.15 0 -0.35
v 0.25 0 -0.35
v -0.25 0 -0.45
v -0.15 0 -0.45
v -0.05 0 -0.45
v 0.05 0 -0.45
v 0.15 0 -0.45
v 0.25 0 -0.45
v -0.15 0.2 0.35
v -0.05 0.2 0.35
v 0.05 0.2 0.35
v 0.15 0.2 0.35
v -0.15 0.2 0.25
v -0.05 0.2 0.25
v 0.05 0.2 0.25
v 0.15 0.2 0.25
v -0.15 0.2 0.15
v -0.05 0.2 0.15
v 0.05 0.2 0.15
v 0.15 0.2 0.15
v -0.15 0.2 0.05
v -0.05 0.2 0.05
v 0.05 0.2 0.05
v 0.15 0.2 0.05
v -0.15 0.2 -0.05
v -0.05 0.2 -0.05
v 0.05 0.2 -0.05
v 0.15 0.2 -0.05
v -0.15 0.2 -0.15
v -0.05 0.2 -0.15
v 0.05 0.2 -0.15
v 0.15 0.2 -0.15
v -0.15 0.2 -0.25
v -0.05 0.2 -0.25
v 0.05 0.2 -0.25
v 0.15 0.2 -0.25
v -0.15 0.2 -0.35
v -0.05 0.2 -0.35
v 0.05 0.2 -0.35
v 0.15 0.2 -0.35

# faces
f 11/8/1 2/8/1 1/8/1
f 12/9/1 3/9/1 2/9/1
f 12/8/1 2/8/1 11/8/1
f 13/8/1 4/8/1 3/8/1
f 13/9/1 3/9/1 12/9/1
f 14/10/1 5/10/1 4/10/1
f 14/8/1 4/8/1 13/8/1
f 15/12/1 6/12/1 5/12/1
f 15/10/1 5/10/1 14/10/1
f 16/9/1 7/9/1 6/9/1
f 16/12/1 6/12/1 15/12/1
f 17/10/1 8/10/1 7/10/1
f 17/9/1 7/9/1 16/9/1
f 18/8/1 9/8/1 8/8/1
f 18/10/1 8/10/1 17/10/1
f 19/10/1 10/10/1 9/10/1
f 19/8/1 9/8/1 18/8/1
f 20/10/1 10/10/1 19/10/1
f 21/11/1 12/11/1 11/11/1
f 22/10/1 13/10/1 12/10/1
f 22/11/1 12/11/1 21/11/1
f 23/9/1 14/9/1 13/9/1
f 23/10/1 13/10/1 22/10/1
f 23/9/1 15/9/1 14/9/1
f 24/8/1 16/8/1 15/8/1
f 24/9/1 15/9/1 23/9/1
f 25/9/1 17/9/1 16/9/1
f 25/8/1 16/8/1 24/8/1
f 26/7/1 18/7/1 17/7/1
f 26/9/1 17/9/1 25/9/1
f 27/9/1 19/9/1 18/9/1
f 27/7/1 18/7/1 26/7/1
f 28/11/1 20/11/1 19/11/1
f 28/9/1 19/9/1 27/9/1
f 29/11/1 20/11/1 28/11/1
f 38/3/1 31/3/1 30/3/1
f 39/5/1 32/5/1 31/5/1
f 39/3/1 31/3/1 38/3/1
f 40/1/1 33/1/1 32/1/1
f 40/5/1 32/5/1 39/5/1
f 41/2/1 34/2/1 33/2/1
f 41/1/1 33/1/1 40/1/1
f 42/4/1 35/4/1 34/4/1
f 42/2/1 34/2/1 41/2/1
f 43/5/1 36/5/1 35/5/1
f 43/4/1 35/4/1 42/4/1
f 44/4/1 37/4/1 36/4/1
f 44/5/1 36/5/1 43/5/1
f 45/4/1 37/4/1 44/4/1
f 46/5/1 39/5/1 38/5/1
f 47/6/1 40/6/1 39/6/1
f 47/5/1 39/5/1 46/5/1
f 48/5/1 41/5/1 40/5/1
f 48/6/1 40/6/1 47/6/1
f 49/6/1 42/6/1 41/6/1
f 49/5/1 41/5/1 48/5/1
f 50/3/1 43/3/1 42/3/1
f 50/6/1 42/6/1 49/6/1
f 51/6/1 44/6/1 43/6/1
f 51/3/1 43/3/1 50/3/1
f 52/3/1 45/3/1 44/3/1
f 52/6/1 44/6/1 51/6/1
f 53/3/1 45/3/1 52/3/1
f 54/1/2 55/1/2 62/1/2
f 55/4/2 56/4/2 63/4/2
f 62/1/2 55/1/2 63/1/2
f 56/5/2 57/5/2 64/5/2
f 63/4/2 56/4/2 64/4/2
f 57/3/2 58/3/2 65/3/2
f 64/5/2 57/5/2 65/5/2
f 58/4/2 59/4/2 66/4/2
f 65/3/2 58/3/2 66/3/2
f 59/5/2 60/5/2 67/5/2
f 66/4/2 59/4/2 67/4/2
f 60/4/2 61/4/2 68/4/2
f 67/5/2 60/5/2 68/5/2
f 68/4/2 61/4/2 69/4/2
f 62/5/2 63/5/2 70/5/2
f 63/6/2 64/6/2 71/6/2
f 70/5/2 63/5/2 71/5/2
f 64/3/2 65/3/2 72/3/2
f 71/6/2 64/6/2 72/6/2
f 65/5/2 66/5/2 73/5/2
f 72/3/2 65/3/2 73/3/2
f 66/1/2 67/1/2 74/1/2
f 73/5/2 66/5/2 74/5/2
f 67/5/2 68/5/2 75/5/2
f 74/1/2 67/1/2 75/1/2
f 68/3/2 69/3/2 76/3/2
f 75/5/2 68/5/2 76/5/2
f 76/3/2 69/3/2 77/3/2
f 78/8/2 79/8/2 88/8/2
f 79/9/2 80/9/2 89/9/2
f 88/8/2 79/8/2 89/8/2
f 80/7/2 81/7/2 90/7/2
f 89/9/2 80/9/2 90/9/2
f 81/9/2 82/9/2 91/9/2
f 90/7/2 81/7/2 91/7/2
f 82/10/2 83/10/2 92/10/2
f 91/9/2 82/9/2 92/9/2
f 83/9/2 84/9/2 93/9/2
f 92/10/2 83/10/2 93/10/2
f 84/12/2 85/12/2 94/12/2
f 93/9/2 84/9/2 94/9/2
f 85/8/2 86/8/2 95/8/2
f 94/12/2 85/12/2 95/12/2
f 86/9/2 87/9/2 96/9/2
f 95/8/2 86/8/2 96/8/2
f 96/9/2 87/9/2 97/9/2
f 88/11/2 89/11/2 98/11/2
f 89/9/2 90/9/2 99/9/2
f 98/11/2 89/11/2 99/11/2
f 90/10/2 91/10/2 100/10/2
f 99/9/2 90/9/2 100/9/2
f 91/9/2 92/9/2 101/9/2
f 100/10/2 91/10/2 101/10/2
f 92/12/2 93/12/2 102/12/2
f 101/9/2 92/9/2 102/9/2
f 93/8/2 94/8/2 103/8/2
f 102/12/2 93/12/2 103/12/2
f 94/9/2 95/9/2 104/9/2
f 103/8/2 94/8/2 104/8/2
f 95/10/2 96/10/2 105/10/2
f 104/9/2 95/9/2 105/9/2
f 96/11/2 97/11/2 106/11/2
f 105/10/2 96/10/2 106/10/2
f 106/11/2 97/11/2 107/11/2
f 111/8/3 109/8/3 108/8/3
f 112/11/3 110/11/3 109/11/3
f 112/8/3 109/8/3 111/8/3
f 113/11/3 110/11/3 112/11/3
f 114/10/3 112/10/3 111/10/3
f 115/9/3 113/9/3 112/9/3
f 115/10/3 112/10/3 114/10/3
f 116/9/3 113/9/3 115/9/3
f 117/12/3 115/12/3 114/12/3
f 118/8/3 116/8/3 115/8/3
f 118/12/3 115/12/3 117/12/3
f 119/8/3 116/8/3 118/8/3
f 120/7/3 118/7/3 117/7/3
f 121/10/3 119/10/3 118/10/3
f 121/7/3 118/7/3 120/7/3
f 122/10/3 119/10/3 121/10/3
f 123/8/3 121/8/3 120/8/3
f 124/11/3 122/11/3 121/11/3
f 124/8/3 121/8/3 123/8/3
f 125/11/3 122/11/3 124/11/3
f 129/3/3 127/3/3 126/3/3
f 130/5/3 128/5/3 127/5/3
f 130/3/3 127/3/3 129/3/3
f 131/5/3 128/5/3 130/5/3
f 132/4/3 130/4/3 129/4/3
f 133/6/3 131/6/3 130/6/3
f 133/4/3 130/4/3 132/4/3
f 134/6/3 131/6/3 133/6/3
f 135/1/3 133/1/3 132/1/3
f 136/5/3 134/5/3 133/5/3
f 136/1/3 133/1/3 135/1/3
f 137/5/3 134/5/3 136/5/3
f 138/4/4 139/4/4 141/4/4
f 139/3/4 140/3/4 142/3/4
f 141/4/4 139/4/4 142/4/4
f 142/3/4 140/3/4 143/3/4
f 141/1/4 142/1/4 144/1/4
f 142/5/4 143/5/4 145/5/4
f 144/1/4 142/1/4 145/1/4
f 145/5/4 143/5/4 146/5/4
f 144/4/4 145/4/4 147/4/4
f 145/3/4 146/3/4 148/3/4
f 147/4/4 145/4/4 148/4/4
f 148/3/4 146/3/4 149/3/4
f 150/10/4 151/10/4 153/10/4
f 151/11/4 152/11/4 154/11/4
f 153/10/4 151/10/4 154/10/4
f 154/11/4 152/11/4 155/11/4
f 153/9/4 154/9/4 156/9/4
f 154/8/4 155/8/4 157/8/4
f 156/9/4 154/9/4 157/9/4
f 157/8/4 155/8/4 158/8/4
f 156/7/4 157/7/4 159/7/4
f 157/10/4 158/10/4 160/10/4
f 159/7/4 157/7/4 160/7/4
f 160/10/4 158/10/4 161/10/4
f 159/8/4 160/8/4 162/8/4
f 160/9/4 161/9/4 163/9/4
f 162/8/4 160/8/4 163/8/4
f 163/9/4 161/9/4 164/9/4
f 162/9/4 163/9/4 165/9/4
f 163/11/4 164/11/4 166/11/4
f 165/9/4 163/9/4 166/9/4
f 166/11/4 164/11/4 167/11/4
f 174/8/5 169/8/5 168/8/5
f 175/10/5 170/10/5 169/10/5
f 175/8/5 169/8/5 174/8/5
f 176/12/5 171/12/5 170/12/5
f 176/10/5 170/10/5 175/10/5
f 177/7/5 172/7/5 171/7/5
f 177/12/5 171/12/5 176/12/5
f 178/8/5 173/8/5 172/8/5
f 178/7/5 172/7/5 177/7/5
f 179/8/5 173/8/5 178/8/5
f 180/9/5 177/9/5 176/9/5
f 180/9/5 175/9/5 174/9/5
f 180/9/5 179/9/5 178/9/5
f 180/9/5 178/9/5 177/9/5
f 180/9/5 176/9/5 175/9/5
f 181/9/5 179/9/5 180/9/5
f 182/9/5 179/9/5 181/9/5
f 183/9/5 179/9/5 182/9/5
f 184/8/5 181/8/5 180/8/5
f 185/9/5 182/9/5 181/9/5
f 185/8/5 181/8/5 184/8/5
f 186/7/5 183/7/5 182/7/5
f 186/9/5 182/9/5 185/9/5
f 187/7/5 183/7/5 186/7/5
f 188/10/5 185/10/5 184/10/5
f 189/9/5 186/9/5 185/9/5
f 189/10/5 185/10/5 188/10/5
f 189/9/5 187/9/5 186/9/5
f 190/9/5 187/9/5 189/9/5
f 191/9/5 187/9/5 190/9/5
f 192/12/5 189/12/5 188/12/5
f 193/9/5 190/9/5 189/9/5
f 193/12/5 189/12/5 192/12/5
f 194/10/5 191/10/5 190/10/5
f 194/9/5 190/9/5 193/9/5
f 195/10/5 191/10/5 194/10/5
f 196/9/5 193/9/5 192/9/5
f 196/9/5 194/9/5 193/9/5
f 196/9/5 195/9/5 194/9/5
f 197/9/5 195/9/5 196/9/5
f 198/9/5 195/9/5 197/9/5
f 199/9/5 195/9/5 198/9/5
f 200/10/5 197/10/5 196/10/5
f 201/9/5 198/9/5 197/9/5
f 201/10/5 197/10/5 200/10/5
f 202/12/5 199/12/5 198/12/5
f 202/9/5 198/9/5 201/9/5
f 203/12/5 199/12/5 202/12/5
f 204/8/5 201/8/5 200/8/5
f 205/9/5 202/9/5 201/9/5
f 205/8/5 201/8/5 204/8/5
f 206/9/5 202/9/5 205/9/5
f 207/9/5 202/9/5 206/9/5
f 208/8/5 203/8/5 202/8/5
f 208/9/5 202/9/5 207/9/5
f 209/8/5 203/8/5 208/8/5
f 210/10/5 205/10/5 204/10/5
f 211/9/5 206/9/5 205/9/5
f 211/10/5 205/10/5 210/10/5
f 212/7/5 207/7/5 206/7/5
f 212/9/5 206/9/5 211/9/5
f 213/8/5 208/8/5 207/8/5
f 213/7/5 207/7/5 212/7/5
f 214/9/5 209/9/5 208/9/5
f 214/8/5 208/8/5 213/8/5
f 215/9/5 209/9/5 214/9/5
f 216/11/6 217/11/6 222/11/6
f 217/9/6 218/9/6 223/9/6
f 222/11/6 217/11/6 223/11/6
f 218/8/6 219/8/6 224/8/6
f 223/9/6 218/9/6 224/9/6
f 219/10/6 220/10/6 225/10/6
f 224/8/6 219/8/6 225/8/6
f 220/11/6 221/11/6 226/11/6
f 225/10/6 220/10/6 226/10/6
f 226/11/6 221/11/6 227/11/6
f 222/10/6 223/10/6 228/10/6
f 228/10/6 223/10/6 229/10/6
f 226/9/6 227/9/6 230/9/6
f 230/9/6 227/9/6 231/9/6
f 228/9/6 229/9/6 232/9/6
f 230/10/6 231/10/6 233/10/6
f 233/10/6 231/10/6 234/10/6
f 228/9/6 232/9/6 235/9/6
f 235/9/6 232/9/6 236/9/6
f 233/9/6 234/9/6 237/9/6
f 237/9/6 234/9/6 238/9/6
f 235/8/6 236/8/6 239/8/6
f 239/8/6 236/8/6 240/8/6
f 237/12/6 238/12/6 241/12/6
f 241/12/6 238/12/6 242/12/6
f 239/9/6 240/9/6 243/9/6
f 243/9/6 240/9/6 244/9/6
f 241/8/6 242/8/6 245/8/6
f 245/8/6 242/8/6 246/8/6
f 243/7/6 244/7/6 247/7/6
f 247/7/6 244/7/6 248/7/6
f 245/9/6 246/9/6 249/9/6
f 249/9/6 246/9/6 250/9/6
f 247/9/6 248/9/6 251/9/6
f 251/9/6 248/9/6 252/9/6
f 249/10/6 250/10/6 255/10/6
f 255/10/6 250/10/6 256/10/6
f 251/11/6 252/11/6 257/11/6
f 252/8/6 253/8/6 258/8/6
f 257/11/6 252/11/6 258/11/6
f 253/10/6 254/10/6 259/10/6
f 258/8/6 253/8/6 259/8/6
f 254/9/6 255/9/6 260/9/6
f 259/10/6 254/10/6 260/10/6
f 255/11/6 256/11/6 261/11/6
f 260/9/6 255/9/6 261/9/6
f 261/11/6 256/11/6 262/11/6
f 263/5/6 264/5/6 267/5/6
f 264/6/6 265/6/6 268/6/6
f 267/5/6 264/5/6 268/5/6
f 265/5/6 266/5/6 269/5/6
f 268/6/6 265/6/6 269/6/6
f 269/5/6 266/5/6 270/5/6
f 267/6/6 268/6/6 271/6/6
f 268/1/6 269/1/6 272/1/6
f 271/6/6 268/6/6 272/6/6
f 269/6/6 270/6/6 273/6/6
f 272/1/6 269/1/6 273/1/6
f 273/6/6 270/6/6 274/6/6
f 271/5/6 272/5/6 275/5/6
f 272/5/6 273/5/6 275/5/6
f 275/5/6 273/5/6 276/5/6
f 273/3/6 274/3/6 277/3/6
f 276/5/6 273/5/6 277/5/6
f 277/3/6 274/3/6 278/3/6
f 275/6/6 276/6/6 279/6/6
f 276/2/6 277/2/6 280/2/6
f 279/6/6 276/6/6 280/6/6
f 277/5/6 278/5/6 281/5/6
f 280/2/6 277/2/6 281/2/6
f 281/5/6 278/5/6 282/5/6
f 279/3/6 280/3/6 283/3/6
f 280/5/6 281/5/6 284/5/6
f 283/3/6 280/3/6 284/3/6
f 281/1/6 282/1/6 285/1/6
f 284/5/6 281/5/6 285/5/6
f 285/1/6 282/1/6 286/1/6
f 283/6/6 284/6/6 287/6/6
f 284/2/6 285/2/6 288/2/6
f 287/6/6 284/6/6 288/6/6
f 285/5/6 286/5/6 289/5/6
f 288/2/6 285/2/6 289/2/6
f 289/5/6 286/5/6 290/5/6
f 287/3/6 288/3/6 291/3/6
f 288/5/6 289/5/6 292/5/6
f 291/3/6 288/3/6 292/3/6
f 289/3/6 290/3/6 293/3/6
f 292/5/6 289/5/6 293/5/6
f 293/3/6 290/3/6 294/3/6
