# MagicaVoxel @ Ephtracy

# group
o 

# material
mtllib bush2.mtl
usemtl palette

# normals
vn -1 0 0
vn 1 0 0
vn 0 0 1
vn 0 0 -1
vn 0 -1 0
vn 0 1 0

# texcoords
vt 0.884766 0.5
vt 0.892578 0.5
vt 0.896484 0.5
vt 0.900391 0.5
vt 0.904297 0.5
vt 0.970703 0.5
vt 0.974609 0.5
vt 0.978516 0.5
vt 0.982422 0.5
vt 0.986328 0.5
vt 0.990234 0.5

# verts
v -0.3 0 0.5
v -0.3 0 0.4
v -0.3 0 0.3
v -0.3 0 0.2
v -0.3 0 0.1
v -0.3 0 0
v -0.3 0 -0.1
v -0.3 0 -0.2
v -0.3 0 -0.3
v -0.3 0 -0.4
v -0.3 0.1 0.5
v -0.3 0.1 0.4
v -0.3 0.1 0.3
v -0.3 0.1 0.2
v -0.3 0.1 0.1
v -0.3 0.1 0
v -0.3 0.1 -0.1
v -0.3 0.1 -0.2
v -0.3 0.1 -0.3
v -0.3 0.1 -0.4
v -0.3 0.2 0.5
v -0.3 0.2 0.4
v -0.3 0.2 0.3
v -0.3 0.2 0.1
v -0.3 0.2 0
v -0.3 0.2 -0.1
v -0.3 0.2 -0.2
v -0.3 0.2 -0.3
v -0.3 0.2 -0.4
v -0.2 0.2 0.4
v -0.2 0.2 0.3
v -0.2 0.2 0.2
v -0.2 0.2 0.1
v -0.2 0.2 0
v -0.2 0.2 -0.1
v -0.2 0.2 -0.2
v -0.2 0.2 -0.3
v -0.2 0.3 0.4
v -0.2 0.3 0.3
v -0.2 0.3 0.2
v -0.2 0.3 0.1
v -0.2 0.3 0
v -0.2 0.3 -0.1
v -0.2 0.3 -0.2
v -0.2 0.3 -0.3
v -0.2 0.4 0.4
v -0.2 0.4 0.3
v -0.2 0.4 0.2
v -0.2 0.4 0.1
v -0.2 0.4 0
v -0.2 0.4 -0.1
v -0.2 0.4 -0.2
v -0.2 0.4 -0.3
v 0.1 0.2 0.4
v 0.1 0.2 0.3
v 0.1 0.2 0.2
v 0.1 0.2 0.1
v 0.1 0.2 0
v 0.1 0.2 -0.1
v 0.1 0.2 -0.2
v 0.1 0.2 -0.3
v 0.1 0.3 0.4
v 0.1 0.3 0.3
v 0.1 0.3 0.2
v 0.1 0.3 0.1
v 0.1 0.3 0
v 0.1 0.3 -0.1
v 0.1 0.3 -0.2
v 0.1 0.3 -0.3
v 0.1 0.4 0.4
v 0.1 0.4 0.3
v 0.1 0.4 0.2
v 0.1 0.4 0.1
v 0.1 0.4 0
v 0.1 0.4 -0.1
v 0.1 0.4 -0.2
v 0.1 0.4 -0.3
v 0.2 0 0.5
v 0.2 0 0.4
v 0.2 0 0.3
v 0.2 0 0.2
v 0.2 0 0.1
v 0.2 0 0
v 0.2 0 -0.1
v 0.2 0 -0.2
v 0.2 0 -0.3
v 0.2 0 -0.4
v 0.2 0.1 0.5
v 0.2 0.1 0.4
v 0.2 0.1 0.3
v 0.2 0.1 0.2
v 0.2 0.1 0.1
v 0.2 0.1 0
v 0.2 0.1 -0.1
v 0.2 0.1 -0.2
v 0.2 0.1 -0.3
v 0.2 0.1 -0.4
v 0.2 0.2 0.5
v 0.2 0.2 0.4
v 0.2 0.2 0.3
v 0.2 0.2 0.2
v 0.2 0.2 0.1
v 0.2 0.2 0
v 0.2 0.2 -0.1
v 0.2 0.2 -0.2
v 0.2 0.2 -0.3
v 0.2 0.2 -0.4
v -0.3 0 0.5
v -0.3 0.1 0.5
v -0.3 0.2 0.5
v -0.2 0 0.5
v -0.2 0.1 0.5
v -0.2 0.2 0.5
v -0.1 0 0.5
v -0.1 0.1 0.5
v -0.1 0.2 0.5
v 0 0 0.5
v 0 0.1 0.5
v 0 0.2 0.5
v 0.1 0 0.5
v 0.1 0.1 0.5
v 0.1 0.2 0.5
v 0.2 0 0.5
v 0.2 0.1 0.5
v 0.2 0.2 0.5
v -0.2 0.2 0.4
v -0.2 0.3 0.4
v -0.2 0.4 0.4
v -0.1 0.2 0.4
v -0.1 0.3 0.4
v -0.1 0.4 0.4
v 0 0.2 0.4
v 0 0.3 0.4
v 0 0.4 0.4
v 0.1 0.2 0.4
v 0.1 0.3 0.4
v 0.1 0.4 0.4
v -0.2 0.2 -0.3
v -0.2 0.3 -0.3
v -0.2 0.4 -0.3
v -0.1 0.2 -0.3
v -0.1 0.3 -0.3
v -0.1 0.4 -0.3
v 0 0.2 -0.3
v 0 0.3 -0.3
v 0 0.4 -0.3
v 0.1 0.2 -0.3
v 0.1 0.3 -0.3
v 0.1 0.4 -0.3
v -0.3 0 -0.4
v -0.3 0.1 -0.4
v -0.3 0.2 -0.4
v -0.2 0 -0.4
v -0.2 0.1 -0.4
v -0.2 0.2 -0.4
v -0.1 0 -0.4
v -0.1 0.1 -0.4
v -0.1 0.2 -0.4
v 0 0 -0.4
v 0 0.1 -0.4
v 0 0.2 -0.4
v 0.1 0 -0.4
v 0.1 0.1 -0.4
v 0.1 0.2 -0.4
v 0.2 0 -0.4
v 0.2 0.1 -0.4
v 0.2 0.2 -0.4
v -0.3 0 0.5
v -0.2 0 0.5
v -0.1 0 0.5
v 0 0 0.5
v 0.1 0 0.5
v 0.2 0 0.5
v -0.3 0 0.4
v -0.2 0 0.4
v -0.1 0 0.4
v 0 0 0.4
v 0.1 0 0.4
v 0.2 0 0.4
v -0.3 0 0.3
v -0.2 0 0.3
v 0.1 0 0.3
v 0.2 0 0.3
v -0.3 0 0.2
v -0.2 0 0.2
v 0.1 0 0.2
v 0.2 0 0.2
v -0.3 0 0.1
v -0.2 0 0.1
v 0.1 0 0.1
v 0.2 0 0.1
v -0.3 0 0
v -0.2 0 0
v 0.1 0 0
v 0.2 0 0
v -0.3 0 -0.1
v -0.2 0 -0.1
v 0.1 0 -0.1
v 0.2 0 -0.1
v -0.3 0 -0.2
v -0.2 0 -0.2
v 0.1 0 -0.2
v 0.2 0 -0.2
v -0.3 0 -0.3
v -0.2 0 -0.3
v -0.1 0 -0.3
v 0 0 -0.3
v 0.1 0 -0.3
v 0.2 0 -0.3
v -0.3 0 -0.4
v -0.2 0 -0.4
v -0.1 0 -0.4
v 0 0 -0.4
v 0.1 0 -0.4
v 0.2 0 -0.4
v -0.3 0.2 0.5
v -0.2 0.2 0.5
v -0.1 0.2 0.5
v 0 0.2 0.5
v 0.1 0.2 0.5
v 0.2 0.2 0.5
v -0.3 0.2 0.4
v -0.2 0.2 0.4
v -0.1 0.2 0.4
v 0 0.2 0.4
v 0.1 0.2 0.4
v 0.2 0.2 0.4
v -0.3 0.2 0.3
v -0.2 0.2 0.3
v 0.1 0.2 0.3
v 0.2 0.2 0.3
v -0.2 0.2 0.2
v 0.1 0.2 0.2
v 0.2 0.2 0.2
v -0.3 0.2 0.1
v -0.2 0.2 0.1
v 0.1 0.2 0.1
v 0.2 0.2 0.1
v -0.3 0.2 0
v -0.2 0.2 0
v 0.1 0.2 0
v 0.2 0.2 0
v -0.3 0.2 -0.1
v -0.2 0.2 -0.1
v 0.1 0.2 -0.1
v 0.2 0.2 -0.1
v -0.3 0.2 -0.2
v -0.2 0.2 -0.2
v 0.1 0.2 -0.2
v 0.2 0.2 -0.2
v -0.3 0.2 -0.3
v -0.2 0.2 -0.3
v -0.1 0.2 -0.3
v 0 0.2 -0.3
v 0.1 0.2 -0.3
v 0.2 0.2 -0.3
v -0.3 0.2 -0.4
v -0.2 0.2 -0.4
v -0.1 0.2 -0.4
v 0 0.2 -0.4
v 0.1 0.2 -0.4
v 0.2 0.2 -0.4
v -0.2 0.4 0.4
v -0.1 0.4 0.4
v 0 0.4 0.4
v 0.1 0.4 0.4
v -0.2 0.4 0.3
v -0.1 0.4 0.3
v 0 0.4 0.3
v 0.1 0.4 0.3
v -0.2 0.4 0.2
v -0.1 0.4 0.2
v 0 0.4 0.2
v 0.1 0.4 0.2
v -0.2 0.4 0.1
v -0.1 0.4 0.1
v 0 0.4 0.1
v 0.1 0.4 0.1
v -0.2 0.4 0
v -0.1 0.4 0
v 0 0.4 0
v 0.1 0.4 0
v -0.2 0.4 -0.1
v -0.1 0.4 -0.1
v 0 0.4 -0.1
v 0.1 0.4 -0.1
v -0.2 0.4 -0.2
v -0.1 0.4 -0.2
v 0 0.4 -0.2
v 0.1 0.4 -0.2
v -0.2 0.4 -0.3
v -0.1 0.4 -0.3
v 0 0.4 -0.3
v 0.1 0.4 -0.3

# faces
f 11/7/1 2/7/1 1/7/1
f 12/8/1 3/8/1 2/8/1
f 12/7/1 2/7/1 11/7/1
f 13/7/1 4/7/1 3/7/1
f 13/8/1 3/8/1 12/8/1
f 14/9/1 5/9/1 4/9/1
f 14/7/1 4/7/1 13/7/1
f 15/11/1 6/11/1 5/11/1
f 15/9/1 5/9/1 14/9/1
f 16/8/1 7/8/1 6/8/1
f 16/11/1 6/11/1 15/11/1
f 17/9/1 8/9/1 7/9/1
f 17/8/1 7/8/1 16/8/1
f 18/7/1 9/7/1 8/7/1
f 18/9/1 8/9/1 17/9/1
f 19/9/1 10/9/1 9/9/1
f 19/7/1 9/7/1 18/7/1
f 20/9/1 10/9/1 19/9/1
f 21/10/1 12/10/1 11/10/1
f 22/9/1 13/9/1 12/9/1
f 22/10/1 12/10/1 21/10/1
f 23/8/1 14/8/1 13/8/1
f 23/9/1 13/9/1 22/9/1
f 23/8/1 15/8/1 14/8/1
f 24/7/1 16/7/1 15/7/1
f 24/8/1 15/8/1 23/8/1
f 25/8/1 17/8/1 16/8/1
f 25/7/1 16/7/1 24/7/1
f 26/6/1 18/6/1 17/6/1
f 26/8/1 17/8/1 25/8/1
f 27/8/1 19/8/1 18/8/1
f 27/6/1 18/6/1 26/6/1
f 28/10/1 20/10/1 19/10/1
f 28/8/1 19/8/1 27/8/1
f 29/10/1 20/10/1 28/10/1
f 38/1/1 31/1/1 30/1/1
f 39/5/1 32/5/1 31/5/1
f 39/1/1 31/1/1 38/1/1
f 40/1/1 33/1/1 32/1/1
f 40/5/1 32/5/1 39/5/1
f 41/5/1 34/5/1 33/5/1
f 41/1/1 33/1/1 40/1/1
f 42/1/1 35/1/1 34/1/1
f 42/5/1 34/5/1 41/5/1
f 43/5/1 36/5/1 35/5/1
f 43/1/1 35/1/1 42/1/1
f 44/1/1 37/1/1 36/1/1
f 44/5/1 36/5/1 43/5/1
f 45/1/1 37/1/1 44/1/1
f 46/4/1 39/4/1 38/4/1
f 47/2/1 40/2/1 39/2/1
f 47/4/1 39/4/1 46/4/1
f 48/4/1 41/4/1 40/4/1
f 48/2/1 40/2/1 47/2/1
f 49/2/1 42/2/1 41/2/1
f 49/4/1 41/4/1 48/4/1
f 50/4/1 43/4/1 42/4/1
f 50/2/1 42/2/1 49/2/1
f 51/2/1 44/2/1 43/2/1
f 51/4/1 43/4/1 50/4/1
f 52/4/1 45/4/1 44/4/1
f 52/2/1 44/2/1 51/2/1
f 53/4/1 45/4/1 52/4/1
f 54/1/2 55/1/2 62/1/2
f 55/5/2 56/5/2 63/5/2
f 62/1/2 55/1/2 63/1/2
f 56/1/2 57/1/2 64/1/2
f 63/5/2 56/5/2 64/5/2
f 57/5/2 58/5/2 65/5/2
f 64/1/2 57/1/2 65/1/2
f 58/1/2 59/1/2 66/1/2
f 65/5/2 58/5/2 66/5/2
f 59/5/2 60/5/2 67/5/2
f 66/1/2 59/1/2 67/1/2
f 60/1/2 61/1/2 68/1/2
f 67/5/2 60/5/2 68/5/2
f 68/1/2 61/1/2 69/1/2
f 62/4/2 63/4/2 70/4/2
f 63/2/2 64/2/2 71/2/2
f 70/4/2 63/4/2 71/4/2
f 64/4/2 65/4/2 72/4/2
f 71/2/2 64/2/2 72/2/2
f 65/2/2 66/2/2 73/2/2
f 72/4/2 65/4/2 73/4/2
f 66/4/2 67/4/2 74/4/2
f 73/2/2 66/2/2 74/2/2
f 67/2/2 68/2/2 75/2/2
f 74/4/2 67/4/2 75/4/2
f 68/4/2 69/4/2 76/4/2
f 75/2/2 68/2/2 76/2/2
f 76/4/2 69/4/2 77/4/2
f 78/7/2 79/7/2 88/7/2
f 79/8/2 80/8/2 89/8/2
f 88/7/2 79/7/2 89/7/2
f 80/6/2 81/6/2 90/6/2
f 89/8/2 80/8/2 90/8/2
f 81/8/2 82/8/2 91/8/2
f 90/6/2 81/6/2 91/6/2
f 82/9/2 83/9/2 92/9/2
f 91/8/2 82/8/2 92/8/2
f 83/8/2 84/8/2 93/8/2
f 92/9/2 83/9/2 93/9/2
f 84/11/2 85/11/2 94/11/2
f 93/8/2 84/8/2 94/8/2
f 85/7/2 86/7/2 95/7/2
f 94/11/2 85/11/2 95/11/2
f 86/8/2 87/8/2 96/8/2
f 95/7/2 86/7/2 96/7/2
f 96/8/2 87/8/2 97/8/2
f 88/10/2 89/10/2 98/10/2
f 89/8/2 90/8/2 99/8/2
f 98/10/2 89/10/2 99/10/2
f 90/9/2 91/9/2 100/9/2
f 99/8/2 90/8/2 100/8/2
f 91/8/2 92/8/2 101/8/2
f 100/9/2 91/9/2 101/9/2
f 92/11/2 93/11/2 102/11/2
f 101/8/2 92/8/2 102/8/2
f 93/7/2 94/7/2 103/7/2
f 102/11/2 93/11/2 103/11/2
f 94/8/2 95/8/2 104/8/2
f 103/7/2 94/7/2 104/7/2
f 95/9/2 96/9/2 105/9/2
f 104/8/2 95/8/2 105/8/2
f 96/10/2 97/10/2 106/10/2
f 105/9/2 96/9/2 106/9/2
f 106/10/2 97/10/2 107/10/2
f 111/7/3 109/7/3 108/7/3
f 112/10/3 110/10/3 109/10/3
f 112/7/3 109/7/3 111/7/3
f 113/10/3 110/10/3 112/10/3
f 114/9/3 112/9/3 111/9/3
f 115/8/3 113/8/3 112/8/3
f 115/9/3 112/9/3 114/9/3
f 116/8/3 113/8/3 115/8/3
f 117/11/3 115/11/3 114/11/3
f 118/7/3 116/7/3 115/7/3
f 118/11/3 115/11/3 117/11/3
f 119/7/3 116/7/3 118/7/3
f 120/6/3 118/6/3 117/6/3
f 121/9/3 119/9/3 118/9/3
f 121/6/3 118/6/3 120/6/3
f 122/9/3 119/9/3 121/9/3
f 123/7/3 121/7/3 120/7/3
f 124/10/3 122/10/3 121/10/3
f 124/7/3 121/7/3 123/7/3
f 125/10/3 122/10/3 124/10/3
f 129/1/3 127/1/3 126/1/3
f 130/4/3 128/4/3 127/4/3
f 130/1/3 127/1/3 129/1/3
f 131/4/3 128/4/3 130/4/3
f 132/5/3 130/5/3 129/5/3
f 133/2/3 131/2/3 130/2/3
f 133/5/3 130/5/3 132/5/3
f 134/2/3 131/2/3 133/2/3
f 135/1/3 133/1/3 132/1/3
f 136/4/3 134/4/3 133/4/3
f 136/1/3 133/1/3 135/1/3
f 137/4/3 134/4/3 136/4/3
f 138/1/4 139/1/4 141/1/4
f 139/4/4 140/4/4 142/4/4
f 141/1/4 139/1/4 142/1/4
f 142/4/4 140/4/4 143/4/4
f 141/5/4 142/5/4 144/5/4
f 142/2/4 143/2/4 145/2/4
f 144/5/4 142/5/4 145/5/4
f 145/2/4 143/2/4 146/2/4
f 144/1/4 145/1/4 147/1/4
f 145/4/4 146/4/4 148/4/4
f 147/1/4 145/1/4 148/1/4
f 148/4/4 146/4/4 149/4/4
f 150/9/4 151/9/4 153/9/4
f 151/10/4 152/10/4 154/10/4
f 153/9/4 151/9/4 154/9/4
f 154/10/4 152/10/4 155/10/4
f 153/8/4 154/8/4 156/8/4
f 154/7/4 155/7/4 157/7/4
f 156/8/4 154/8/4 157/8/4
f 157/7/4 155/7/4 158/7/4
f 156/6/4 157/6/4 159/6/4
f 157/9/4 158/9/4 160/9/4
f 159/6/4 157/6/4 160/6/4
f 160/9/4 158/9/4 161/9/4
f 159/7/4 160/7/4 162/7/4
f 160/8/4 161/8/4 163/8/4
f 162/7/4 160/7/4 163/7/4
f 163/8/4 161/8/4 164/8/4
f 162/8/4 163/8/4 165/8/4
f 163/10/4 164/10/4 166/10/4
f 165/8/4 163/8/4 166/8/4
f 166/10/4 164/10/4 167/10/4
f 174/7/5 169/7/5 168/7/5
f 175/9/5 170/9/5 169/9/5
f 175/7/5 169/7/5 174/7/5
f 176/11/5 171/11/5 170/11/5
f 176/9/5 170/9/5 175/9/5
f 177/6/5 172/6/5 171/6/5
f 177/11/5 171/11/5 176/11/5
f 178/7/5 173/7/5 172/7/5
f 178/6/5 172/6/5 177/6/5
f 179/7/5 173/7/5 178/7/5
f 180/8/5 177/8/5 176/8/5
f 180/8/5 175/8/5 174/8/5
f 180/8/5 179/8/5 178/8/5
f 180/8/5 178/8/5 177/8/5
f 180/8/5 176/8/5 175/8/5
f 181/8/5 179/8/5 180/8/5
f 182/8/5 179/8/5 181/8/5
f 183/8/5 179/8/5 182/8/5
f 184/7/5 181/7/5 180/7/5
f 185/8/5 182/8/5 181/8/5
f 185/7/5 181/7/5 184/7/5
f 186/6/5 183/6/5 182/6/5
f 186/8/5 182/8/5 185/8/5
f 187/6/5 183/6/5 186/6/5
f 188/9/5 185/9/5 184/9/5
f 189/8/5 186/8/5 185/8/5
f 189/9/5 185/9/5 188/9/5
f 189/8/5 187/8/5 186/8/5
f 190/8/5 187/8/5 189/8/5
f 191/8/5 187/8/5 190/8/5
f 192/11/5 189/11/5 188/11/5
f 193/8/5 190/8/5 189/8/5
f 193/11/5 189/11/5 192/11/5
f 194/9/5 191/9/5 190/9/5
f 194/8/5 190/8/5 193/8/5
f 195/9/5 191/9/5 194/9/5
f 196/8/5 193/8/5 192/8/5
f 196/8/5 194/8/5 193/8/5
f 196/8/5 195/8/5 194/8/5
f 197/8/5 195/8/5 196/8/5
f 198/8/5 195/8/5 197/8/5
f 199/8/5 195/8/5 198/8/5
f 200/9/5 197/9/5 196/9/5
f 201/8/5 198/8/5 197/8/5
f 201/9/5 197/9/5 200/9/5
f 202/11/5 199/11/5 198/11/5
f 202/8/5 198/8/5 201/8/5
f 203/11/5 199/11/5 202/11/5
f 204/7/5 201/7/5 200/7/5
f 205/8/5 202/8/5 201/8/5
f 205/7/5 201/7/5 204/7/5
f 206/8/5 202/8/5 205/8/5
f 207/8/5 202/8/5 206/8/5
f 208/7/5 203/7/5 202/7/5
f 208/8/5 202/8/5 207/8/5
f 209/7/5 203/7/5 208/7/5
f 210/9/5 205/9/5 204/9/5
f 211/8/5 206/8/5 205/8/5
f 211/9/5 205/9/5 210/9/5
f 212/6/5 207/6/5 206/6/5
f 212/8/5 206/8/5 211/8/5
f 213/7/5 208/7/5 207/7/5
f 213/6/5 207/6/5 212/6/5
f 214/8/5 209/8/5 208/8/5
f 214/7/5 208/7/5 213/7/5
f 215/8/5 209/8/5 214/8/5
f 216/10/6 217/10/6 222/10/6
f 217/8/6 218/8/6 223/8/6
f 222/10/6 217/10/6 223/10/6
f 218/7/6 219/7/6 224/7/6
f 223/8/6 218/8/6 224/8/6
f 219/9/6 220/9/6 225/9/6
f 224/7/6 219/7/6 225/7/6
f 220/10/6 221/10/6 226/10/6
f 225/9/6 220/9/6 226/9/6
f 226/10/6 221/10/6 227/10/6
f 222/9/6 223/9/6 228/9/6
f 228/9/6 223/9/6 229/9/6
f 226/8/6 227/8/6 230/8/6
f 230/8/6 227/8/6 231/8/6
f 228/8/6 229/8/6 232/8/6
f 230/9/6 231/9/6 233/9/6
f 233/9/6 231/9/6 234/9/6
f 228/8/6 232/8/6 235/8/6
f 235/8/6 232/8/6 236/8/6
f 233/8/6 234/8/6 237/8/6
f 237/8/6 234/8/6 238/8/6
f 235/7/6 236/7/6 239/7/6
f 239/7/6 236/7/6 240/7/6
f 237/11/6 238/11/6 241/11/6
f 241/11/6 238/11/6 242/11/6
f 239/8/6 240/8/6 243/8/6
f 243/8/6 240/8/6 244/8/6
f 241/7/6 242/7/6 245/7/6
f 245/7/6 242/7/6 246/7/6
f 243/6/6 244/6/6 247/6/6
f 247/6/6 244/6/6 248/6/6
f 245/8/6 246/8/6 249/8/6
f 249/8/6 246/8/6 250/8/6
f 247/8/6 248/8/6 251/8/6
f 251/8/6 248/8/6 252/8/6
f 249/9/6 250/9/6 255/9/6
f 255/9/6 250/9/6 256/9/6
f 251/10/6 252/10/6 257/10/6
f 252/7/6 253/7/6 258/7/6
f 257/10/6 252/10/6 258/10/6
f 253/9/6 254/9/6 259/9/6
f 258/7/6 253/7/6 259/7/6
f 254/8/6 255/8/6 260/8/6
f 259/9/6 254/9/6 260/9/6
f 255/10/6 256/10/6 261/10/6
f 260/8/6 255/8/6 261/8/6
f 261/10/6 256/10/6 262/10/6
f 263/4/6 264/4/6 267/4/6
f 264/2/6 265/2/6 268/2/6
f 267/4/6 264/4/6 268/4/6
f 265/4/6 266/4/6 269/4/6
f 268/2/6 265/2/6 269/2/6
f 269/4/6 266/4/6 270/4/6
f 267/2/6 268/2/6 271/2/6
f 268/4/6 269/4/6 272/4/6
f 271/2/6 268/2/6 272/2/6
f 269/2/6 270/2/6 273/2/6
f 272/4/6 269/4/6 273/4/6
f 273/2/6 270/2/6 274/2/6
f 271/4/6 272/4/6 275/4/6
f 272/2/6 273/2/6 276/2/6
f 275/4/6 272/4/6 276/4/6
f 273/4/6 274/4/6 277/4/6
f 276/2/6 273/2/6 277/2/6
f 277/4/6 274/4/6 278/4/6
f 275/2/6 276/2/6 279/2/6
f 276/4/6 277/4/6 280/4/6
f 279/2/6 276/2/6 280/2/6
f 277/2/6 278/2/6 281/2/6
f 280/4/6 277/4/6 281/4/6
f 281/2/6 278/2/6 282/2/6
f 279/4/6 280/4/6 283/4/6
f 280/2/6 281/2/6 284/2/6
f 283/4/6 280/4/6 284/4/6
f 281/4/6 282/4/6 285/4/6
f 284/2/6 281/2/6 285/2/6
f 285/4/6 282/4/6 286/4/6
f 283/2/6 284/2/6 287/2/6
f 284/4/6 285/4/6 288/4/6
f 287/2/6 284/2/6 288/2/6
f 285/2/6 286/2/6 289/2/6
f 288/4/6 285/4/6 289/4/6
f 289/2/6 286/2/6 290/2/6
f 287/4/6 288/4/6 291/4/6
f 288/2/6 289/2/6 292/2/6
f 291/4/6 288/4/6 292/4/6
f 289/4/6 290/4/6 293/4/6
f 292/2/6 289/2/6 293/2/6
f 293/4/6 290/4/6 294/4/6
