# MagicaVoxel @ Ephtracy

# group
o 

# material
mtllib bush2.mtl
usemtl palette

# normals
vn -1 0 0
vn 1 0 0
vn 0 0 1
vn 0 0 -1
vn 0 -1 0
vn 0 1 0

# texcoords
vt 0.349609 0.5
vt 0.373047 0.5
vt 0.513672 0.5
vt 0.537109 0.5
vt 0.884766 0.5
vt 0.892578 0.5
vt 0.896484 0.5
vt 0.900391 0.5
vt 0.904297 0.5
vt 0.978516 0.5

# verts
v -0.25 -0.2 0.45
v -0.25 -0.2 0.25
v -0.25 -0.2 0.15
v -0.25 -0.2 -0.45
v -0.25 -0.1 0.45
v -0.25 -0.1 0.35
v -0.25 -0.1 0.25
v -0.25 -0.1 0.15
v -0.25 -0.1 0.05
v -0.25 -0.1 -0.05
v -0.25 -0.1 -0.15
v -0.25 -0.1 -0.25
v -0.25 -0.1 -0.35
v -0.25 -0.1 -0.45
v -0.25 0 0.45
v -0.25 0 0.35
v -0.25 0 0.15
v -0.25 0 0.05
v -0.25 0 -0.05
v -0.25 0 -0.15
v -0.25 0 -0.25
v -0.25 0 -0.35
v -0.25 0 -0.45
v -0.15 0 0.35
v -0.15 0 0.25
v -0.15 0 0.15
v -0.15 0 0.05
v -0.15 0 -0.05
v -0.15 0 -0.15
v -0.15 0 -0.25
v -0.15 0 -0.35
v -0.15 0.1 0.35
v -0.15 0.1 0.25
v -0.15 0.1 0.15
v -0.15 0.1 0.05
v -0.15 0.1 -0.05
v -0.15 0.1 -0.15
v -0.15 0.1 -0.25
v -0.15 0.1 -0.35
v -0.15 0.2 0.35
v -0.15 0.2 0.25
v -0.15 0.2 0.15
v -0.15 0.2 0.05
v -0.15 0.2 -0.05
v -0.15 0.2 -0.15
v -0.15 0.2 -0.25
v -0.15 0.2 -0.35
v 0.15 0 0.35
v 0.15 0 0.25
v 0.15 0 0.15
v 0.15 0 0.05
v 0.15 0 -0.05
v 0.15 0 -0.15
v 0.15 0 -0.25
v 0.15 0 -0.35
v 0.15 0.1 0.35
v 0.15 0.1 0.25
v 0.15 0.1 0.15
v 0.15 0.1 0.05
v 0.15 0.1 -0.05
v 0.15 0.1 -0.15
v 0.15 0.1 -0.25
v 0.15 0.1 -0.35
v 0.15 0.2 0.35
v 0.15 0.2 0.25
v 0.15 0.2 0.15
v 0.15 0.2 0.05
v 0.15 0.2 -0.05
v 0.15 0.2 -0.15
v 0.15 0.2 -0.25
v 0.15 0.2 -0.35
v 0.25 -0.2 0.45
v 0.25 -0.2 0.35
v 0.25 -0.2 0.25
v 0.25 -0.2 0.05
v 0.25 -0.2 -0.05
v 0.25 -0.2 -0.15
v 0.25 -0.2 -0.25
v 0.25 -0.2 -0.45
v 0.25 -0.1 0.45
v 0.25 -0.1 0.35
v 0.25 -0.1 0.25
v 0.25 -0.1 0.15
v 0.25 -0.1 0.05
v 0.25 -0.1 -0.05
v 0.25 -0.1 -0.15
v 0.25 -0.1 -0.25
v 0.25 -0.1 -0.35
v 0.25 -0.1 -0.45
v 0.25 0 0.45
v 0.25 0 0.35
v 0.25 0 0.25
v 0.25 0 0.15
v 0.25 0 -0.05
v 0.25 0 -0.15
v 0.25 0 -0.35
v 0.25 0 -0.45
v -0.25 -0.2 0.45
v -0.25 -0.1 0.45
v -0.25 0 0.45
v -0.15 -0.2 0.45
v -0.15 -0.1 0.45
v -0.15 0 0.45
v -0.05 -0.2 0.45
v -0.05 -0.1 0.45
v -0.05 0 0.45
v 0.05 -0.2 0.45
v 0.05 -0.1 0.45
v 0.05 0 0.45
v 0.15 -0.2 0.45
v 0.15 -0.1 0.45
v 0.15 0 0.45
v 0.25 -0.2 0.45
v 0.25 -0.1 0.45
v 0.25 0 0.45
v -0.15 0 0.35
v -0.15 0.1 0.35
v -0.15 0.2 0.35
v -0.05 0 0.35
v -0.05 0.1 0.35
v -0.05 0.2 0.35
v 0.05 0 0.35
v 0.05 0.1 0.35
v 0.05 0.2 0.35
v 0.15 0 0.35
v 0.15 0.1 0.35
v 0.15 0.2 0.35
v -0.15 0 -0.35
v -0.15 0.1 -0.35
v -0.15 0.2 -0.35
v -0.05 0 -0.35
v -0.05 0.1 -0.35
v -0.05 0.2 -0.35
v 0.05 0 -0.35
v 0.05 0.1 -0.35
v 0.05 0.2 -0.35
v 0.15 0 -0.35
v 0.15 0.1 -0.35
v 0.15 0.2 -0.35
v -0.25 -0.2 -0.45
v -0.25 -0.1 -0.45
v -0.25 0 -0.45
v -0.15 -0.2 -0.45
v -0.15 -0.1 -0.45
v -0.15 0 -0.45
v -0.05 -0.2 -0.45
v -0.05 -0.1 -0.45
v -0.05 0 -0.45
v 0.05 -0.1 -0.45
v 0.05 0 -0.45
v 0.15 -0.1 -0.45
v 0.15 0 -0.45
v 0.25 -0.2 -0.45
v 0.25 -0.1 -0.45
v 0.25 0 -0.45
v -0.25 -0.2 0.45
v -0.15 -0.2 0.45
v -0.05 -0.2 0.45
v 0.05 -0.2 0.45
v 0.15 -0.2 0.45
v 0.25 -0.2 0.45
v -0.15 -0.2 0.35
v -0.05 -0.2 0.35
v 0.05 -0.2 0.35
v 0.15 -0.2 0.35
v 0.25 -0.2 0.35
v -0.25 -0.2 0.25
v -0.15 -0.2 0.25
v 0.15 -0.2 0.25
v 0.25 -0.2 0.25
v -0.25 -0.2 0.15
v -0.15 -0.2 0.15
v 0.15 -0.2 0.05
v 0.25 -0.2 0.05
v 0.15 -0.2 -0.05
v 0.25 -0.2 -0.05
v -0.05 -0.2 -0.15
v 0.05 -0.2 -0.15
v 0.15 -0.2 -0.15
v 0.25 -0.2 -0.15
v -0.05 -0.2 -0.25
v 0.05 -0.2 -0.25
v 0.15 -0.2 -0.25
v 0.25 -0.2 -0.25
v -0.15 -0.2 -0.35
v -0.05 -0.2 -0.35
v -0.25 -0.2 -0.45
v -0.15 -0.2 -0.45
v -0.05 -0.2 -0.45
v 0.25 -0.2 -0.45
v -0.25 0 0.45
v -0.15 0 0.45
v -0.05 0 0.45
v 0.05 0 0.45
v 0.15 0 0.45
v 0.25 0 0.45
v -0.25 0 0.35
v -0.15 0 0.35
v -0.05 0 0.35
v 0.05 0 0.35
v 0.15 0 0.35
v 0.25 0 0.35
v -0.15 0 0.25
v 0.15 0 0.25
v 0.25 0 0.25
v -0.25 0 0.15
v -0.15 0 0.15
v 0.15 0 0.15
v 0.25 0 0.15
v -0.25 0 0.05
v -0.15 0 0.05
v 0.15 0 0.05
v -0.25 0 -0.05
v -0.15 0 -0.05
v 0.15 0 -0.05
v 0.25 0 -0.05
v -0.25 0 -0.15
v -0.15 0 -0.15
v 0.15 0 -0.15
v 0.25 0 -0.15
v -0.25 0 -0.25
v -0.15 0 -0.25
v 0.15 0 -0.25
v -0.25 0 -0.35
v -0.15 0 -0.35
v -0.05 0 -0.35
v 0.05 0 -0.35
v 0.15 0 -0.35
v 0.25 0 -0.35
v -0.25 0 -0.45
v -0.15 0 -0.45
v -0.05 0 -0.45
v 0.05 0 -0.45
v 0.15 0 -0.45
v 0.25 0 -0.45
v -0.15 0.2 0.35
v -0.05 0.2 0.35
v 0.05 0.2 0.35
v 0.15 0.2 0.35
v -0.15 0.2 0.25
v -0.05 0.2 0.25
v 0.05 0.2 0.25
v 0.15 0.2 0.25
v -0.15 0.2 0.15
v -0.05 0.2 0.15
v 0.05 0.2 0.15
v 0.15 0.2 0.15
v -0.15 0.2 0.05
v -0.05 0.2 0.05
v 0.05 0.2 0.05
v 0.15 0.2 0.05
v -0.15 0.2 -0.05
v -0.05 0.2 -0.05
v 0.05 0.2 -0.05
v 0.15 0.2 -0.05
v -0.15 0.2 -0.15
v -0.05 0.2 -0.15
v 0.05 0.2 -0.15
v 0.15 0.2 -0.15
v -0.15 0.2 -0.25
v -0.05 0.2 -0.25
v 0.05 0.2 -0.25
v 0.15 0.2 -0.25
v -0.15 0.2 -0.35
v -0.05 0.2 -0.35
v 0.05 0.2 -0.35
v 0.15 0.2 -0.35

# faces
f 5/2/1 2/2/1 1/2/1
f 6/2/1 2/2/1 5/2/1
f 7/4/1 3/4/1 2/4/1
f 7/2/1 2/2/1 6/2/1
f 8/2/1 4/2/1 3/2/1
f 8/4/1 3/4/1 7/4/1
f 9/2/1 4/2/1 8/2/1
f 10/2/1 4/2/1 9/2/1
f 11/2/1 4/2/1 10/2/1
f 12/2/1 4/2/1 11/2/1
f 13/2/1 4/2/1 12/2/1
f 14/2/1 4/2/1 13/2/1
f 15/1/1 6/1/1 5/1/1
f 16/2/1 7/2/1 6/2/1
f 16/1/1 6/1/1 15/1/1
f 16/2/1 8/2/1 7/2/1
f 17/1/1 9/1/1 8/1/1
f 17/2/1 8/2/1 16/2/1
f 18/2/1 10/2/1 9/2/1
f 18/1/1 9/1/1 17/1/1
f 19/4/1 11/4/1 10/4/1
f 19/2/1 10/2/1 18/2/1
f 20/3/1 12/3/1 11/3/1
f 20/4/1 11/4/1 19/4/1
f 21/2/1 13/2/1 12/2/1
f 21/3/1 12/3/1 20/3/1
f 22/4/1 14/4/1 13/4/1
f 22/2/1 13/2/1 21/2/1
f 23/4/1 14/4/1 22/4/1
f 32/5/1 25/5/1 24/5/1
f 33/9/1 26/9/1 25/9/1
f 33/5/1 25/5/1 32/5/1
f 34/5/1 27/5/1 26/5/1
f 34/9/1 26/9/1 33/9/1
f 35/9/1 28/9/1 27/9/1
f 35/5/1 27/5/1 34/5/1
f 36/5/1 29/5/1 28/5/1
f 36/9/1 28/9/1 35/9/1
f 37/9/1 30/9/1 29/9/1
f 37/5/1 29/5/1 36/5/1
f 38/5/1 31/5/1 30/5/1
f 38/9/1 30/9/1 37/9/1
f 39/5/1 31/5/1 38/5/1
f 40/8/1 33/8/1 32/8/1
f 41/6/1 34/6/1 33/6/1
f 41/8/1 33/8/1 40/8/1
f 42/8/1 35/8/1 34/8/1
f 42/6/1 34/6/1 41/6/1
f 43/6/1 36/6/1 35/6/1
f 43/8/1 35/8/1 42/8/1
f 44/8/1 37/8/1 36/8/1
f 44/6/1 36/6/1 43/6/1
f 45/6/1 38/6/1 37/6/1
f 45/8/1 37/8/1 44/8/1
f 46/8/1 39/8/1 38/8/1
f 46/6/1 38/6/1 45/6/1
f 47/8/1 39/8/1 46/8/1
f 48/5/2 49/5/2 56/5/2
f 49/9/2 50/9/2 57/9/2
f 56/5/2 49/5/2 57/5/2
f 50/5/2 51/5/2 58/5/2
f 57/9/2 50/9/2 58/9/2
f 51/9/2 52/9/2 59/9/2
f 58/5/2 51/5/2 59/5/2
f 52/5/2 53/5/2 60/5/2
f 59/9/2 52/9/2 60/9/2
f 53/9/2 54/9/2 61/9/2
f 60/5/2 53/5/2 61/5/2
f 54/5/2 55/5/2 62/5/2
f 61/9/2 54/9/2 62/9/2
f 62/5/2 55/5/2 63/5/2
f 56/8/2 57/8/2 64/8/2
f 57/6/2 58/6/2 65/6/2
f 64/8/2 57/8/2 65/8/2
f 58/8/2 59/8/2 66/8/2
f 65/6/2 58/6/2 66/6/2
f 59/6/2 60/6/2 67/6/2
f 66/8/2 59/8/2 67/8/2
f 60/8/2 61/8/2 68/8/2
f 67/6/2 60/6/2 68/6/2
f 61/6/2 62/6/2 69/6/2
f 68/8/2 61/8/2 69/8/2
f 62/8/2 63/8/2 70/8/2
f 69/6/2 62/6/2 70/6/2
f 70/8/2 63/8/2 71/8/2
f 72/2/2 73/2/2 80/2/2
f 73/1/2 74/1/2 81/1/2
f 80/2/2 73/2/2 81/2/2
f 74/2/2 75/2/2 82/2/2
f 81/1/2 74/1/2 82/1/2
f 82/2/2 75/2/2 83/2/2
f 75/4/2 76/4/2 84/4/2
f 83/2/2 75/2/2 84/2/2
f 76/2/2 77/2/2 85/2/2
f 84/4/2 76/4/2 85/4/2
f 77/1/2 78/1/2 86/1/2
f 85/2/2 77/2/2 86/2/2
f 78/2/2 79/2/2 87/2/2
f 86/1/2 78/1/2 87/1/2
f 87/2/2 79/2/2 88/2/2
f 88/2/2 79/2/2 89/2/2
f 80/4/2 81/4/2 90/4/2
f 81/2/2 82/2/2 91/2/2
f 90/4/2 81/4/2 91/4/2
f 82/1/2 83/1/2 92/1/2
f 91/2/2 82/2/2 92/2/2
f 83/2/2 84/2/2 93/2/2
f 92/1/2 83/1/2 93/1/2
f 84/2/2 85/2/2 93/2/2
f 85/3/2 86/3/2 94/3/2
f 93/2/2 85/2/2 94/2/2
f 86/2/2 87/2/2 95/2/2
f 94/3/2 86/3/2 95/3/2
f 87/2/2 88/2/2 95/2/2
f 88/3/2 89/3/2 96/3/2
f 95/2/2 88/2/2 96/2/2
f 96/3/2 89/3/2 97/3/2
f 101/2/3 99/2/3 98/2/3
f 102/1/3 100/1/3 99/1/3
f 102/2/3 99/2/3 101/2/3
f 103/1/3 100/1/3 102/1/3
f 104/1/3 102/1/3 101/1/3
f 105/2/3 103/2/3 102/2/3
f 105/1/3 102/1/3 104/1/3
f 106/2/3 103/2/3 105/2/3
f 107/2/3 105/2/3 104/2/3
f 108/3/3 106/3/3 105/3/3
f 108/2/3 105/2/3 107/2/3
f 109/3/3 106/3/3 108/3/3
f 110/1/3 108/1/3 107/1/3
f 111/2/3 109/2/3 108/2/3
f 111/1/3 108/1/3 110/1/3
f 112/2/3 109/2/3 111/2/3
f 113/2/3 111/2/3 110/2/3
f 114/4/3 112/4/3 111/4/3
f 114/2/3 111/2/3 113/2/3
f 115/4/3 112/4/3 114/4/3
f 119/5/3 117/5/3 116/5/3
f 120/8/3 118/8/3 117/8/3
f 120/5/3 117/5/3 119/5/3
f 121/8/3 118/8/3 120/8/3
f 122/9/3 120/9/3 119/9/3
f 123/6/3 121/6/3 120/6/3
f 123/9/3 120/9/3 122/9/3
f 124/6/3 121/6/3 123/6/3
f 125/5/3 123/5/3 122/5/3
f 126/8/3 124/8/3 123/8/3
f 126/5/3 123/5/3 125/5/3
f 127/8/3 124/8/3 126/8/3
f 128/5/4 129/5/4 131/5/4
f 129/8/4 130/8/4 132/8/4
f 131/5/4 129/5/4 132/5/4
f 132/8/4 130/8/4 133/8/4
f 131/9/4 132/9/4 134/9/4
f 132/6/4 133/6/4 135/6/4
f 134/9/4 132/9/4 135/9/4
f 135/6/4 133/6/4 136/6/4
f 134/5/4 135/5/4 137/5/4
f 135/8/4 136/8/4 138/8/4
f 137/5/4 135/5/4 138/5/4
f 138/8/4 136/8/4 139/8/4
f 140/2/4 141/2/4 143/2/4
f 141/4/4 142/4/4 144/4/4
f 143/2/4 141/2/4 144/2/4
f 144/4/4 142/4/4 145/4/4
f 143/1/4 144/1/4 146/1/4
f 144/2/4 145/2/4 147/2/4
f 146/1/4 144/1/4 147/1/4
f 147/2/4 145/2/4 148/2/4
f 146/2/4 147/2/4 149/2/4
f 147/3/4 148/3/4 149/3/4
f 149/3/4 148/3/4 150/3/4
f 146/2/4 149/2/4 151/2/4
f 149/2/4 150/2/4 151/2/4
f 151/2/4 150/2/4 152/2/4
f 146/2/4 151/2/4 153/2/4
f 151/3/4 152/3/4 154/3/4
f 153/2/4 151/2/4 154/2/4
f 154/3/4 152/3/4 155/3/4
f 162/2/5 157/2/5 156/2/5
f 162/1/5 158/1/5 157/1/5
f 163/2/5 159/2/5 158/2/5
f 163/1/5 158/1/5 162/1/5
f 164/1/5 160/1/5 159/1/5
f 164/2/5 159/2/5 163/2/5
f 165/2/5 161/2/5 160/2/5
f 165/1/5 160/1/5 164/1/5
f 166/2/5 161/2/5 165/2/5
f 167/2/5 164/2/5 163/2/5
f 167/2/5 163/2/5 162/2/5
f 167/2/5 162/2/5 156/2/5
f 167/2/5 165/2/5 164/2/5
f 168/2/5 165/2/5 167/2/5
f 169/1/5 166/1/5 165/1/5
f 169/2/5 165/2/5 168/2/5
f 170/1/5 166/1/5 169/1/5
f 171/4/5 168/4/5 167/4/5
f 172/2/5 169/2/5 168/2/5
f 172/4/5 168/4/5 171/4/5
f 172/2/5 170/2/5 169/2/5
f 173/2/5 172/2/5 171/2/5
f 173/2/5 170/2/5 172/2/5
f 174/2/5 170/2/5 173/2/5
f 175/2/5 173/2/5 171/2/5
f 175/4/5 174/4/5 173/4/5
f 176/4/5 174/4/5 175/4/5
f 177/2/5 175/2/5 171/2/5
f 177/2/5 176/2/5 175/2/5
f 178/2/5 176/2/5 177/2/5
f 179/2/5 176/2/5 178/2/5
f 180/2/5 176/2/5 179/2/5
f 181/2/5 177/2/5 171/2/5
f 181/4/5 178/4/5 177/4/5
f 182/2/5 179/2/5 178/2/5
f 182/4/5 178/4/5 181/4/5
f 183/1/5 180/1/5 179/1/5
f 183/2/5 179/2/5 182/2/5
f 184/1/5 180/1/5 183/1/5
f 185/2/5 182/2/5 181/2/5
f 185/2/5 181/2/5 171/2/5
f 185/2/5 184/2/5 183/2/5
f 185/2/5 183/2/5 182/2/5
f 186/2/5 184/2/5 185/2/5
f 187/2/5 185/2/5 171/2/5
f 188/1/5 186/1/5 185/1/5
f 188/2/5 185/2/5 187/2/5
f 189/2/5 184/2/5 186/2/5
f 189/1/5 186/1/5 188/1/5
f 190/2/5 184/2/5 189/2/5
f 191/1/6 192/1/6 197/1/6
f 192/2/6 193/2/6 198/2/6
f 197/1/6 192/1/6 198/1/6
f 193/3/6 194/3/6 199/3/6
f 198/2/6 193/2/6 199/2/6
f 194/2/6 195/2/6 200/2/6
f 199/3/6 194/3/6 200/3/6
f 195/4/6 196/4/6 201/4/6
f 200/2/6 195/2/6 201/2/6
f 201/4/6 196/4/6 202/4/6
f 197/2/6 198/2/6 203/2/6
f 201/2/6 202/2/6 204/2/6
f 204/2/6 202/2/6 205/2/6
f 197/2/6 203/2/6 206/2/6
f 206/2/6 203/2/6 207/2/6
f 204/1/6 205/1/6 208/1/6
f 208/1/6 205/1/6 209/1/6
f 206/1/6 207/1/6 210/1/6
f 210/1/6 207/1/6 211/1/6
f 208/2/6 209/2/6 212/2/6
f 210/2/6 211/2/6 213/2/6
f 213/2/6 211/2/6 214/2/6
f 212/2/6 209/2/6 215/2/6
f 215/2/6 209/2/6 216/2/6
f 213/4/6 214/4/6 217/4/6
f 217/4/6 214/4/6 218/4/6
f 215/3/6 216/3/6 219/3/6
f 219/3/6 216/3/6 220/3/6
f 217/3/6 218/3/6 221/3/6
f 221/3/6 218/3/6 222/3/6
f 219/2/6 220/2/6 223/2/6
f 221/2/6 222/2/6 224/2/6
f 224/2/6 222/2/6 225/2/6
f 223/2/6 220/2/6 228/2/6
f 228/2/6 220/2/6 229/2/6
f 224/4/6 225/4/6 230/4/6
f 225/2/6 226/2/6 231/2/6
f 230/4/6 225/4/6 231/4/6
f 226/3/6 227/3/6 232/3/6
f 231/2/6 226/2/6 232/2/6
f 227/2/6 228/2/6 233/2/6
f 232/3/6 227/3/6 233/3/6
f 228/3/6 229/3/6 234/3/6
f 233/2/6 228/2/6 234/2/6
f 234/3/6 229/3/6 235/3/6
f 236/8/6 237/8/6 240/8/6
f 237/6/6 238/6/6 241/6/6
f 240/8/6 237/8/6 241/8/6
f 238/8/6 239/8/6 242/8/6
f 241/6/6 238/6/6 242/6/6
f 242/8/6 239/8/6 243/8/6
f 240/6/6 241/6/6 244/6/6
f 241/8/6 242/8/6 245/8/6
f 244/6/6 241/6/6 245/6/6
f 242/6/6 243/6/6 246/6/6
f 245/8/6 242/8/6 246/8/6
f 246/6/6 243/6/6 247/6/6
f 244/8/6 245/8/6 248/8/6
f 245/6/6 246/6/6 249/6/6
f 248/8/6 245/8/6 249/8/6
f 246/8/6 247/8/6 250/8/6
f 249/6/6 246/6/6 250/6/6
f 250/8/6 247/8/6 251/8/6
f 248/6/6 249/6/6 252/6/6
f 249/8/6 250/8/6 253/8/6
f 252/6/6 249/6/6 253/6/6
f 250/6/6 251/6/6 254/6/6
f 253/8/6 250/8/6 254/8/6
f 254/6/6 251/6/6 255/6/6
f 252/8/6 253/8/6 256/8/6
f 253/6/6 254/6/6 257/6/6
f 256/8/6 253/8/6 257/8/6
f 254/8/6 255/8/6 258/8/6
f 257/6/6 254/6/6 258/6/6
f 258/8/6 255/8/6 259/8/6
f 256/6/6 257/6/6 260/6/6
f 257/8/6 258/8/6 261/8/6
f 260/6/6 257/6/6 261/6/6
f 258/6/6 259/6/6 262/6/6
f 261/8/6 258/8/6 262/8/6
f 262/6/6 259/6/6 263/6/6
f 260/8/6 261/8/6 264/8/6
f 261/6/6 262/6/6 265/6/6
f 264/8/6 261/8/6 265/8/6
f 262/8/6 263/8/6 266/8/6
f 265/6/6 262/6/6 266/6/6
f 266/8/6 263/8/6 267/8/6
