# MagicaVoxel @ Ephtracy

# group
o 

# material
mtllib bush1.mtl
usemtl palette

# normals
vn -1 0 0
vn 1 0 0
vn 0 0 1
vn 0 0 -1
vn 0 -1 0
vn 0 1 0

# texcoords
vt 0.255859 0.5
vt 0.396484 0.5
vt 0.880859 0.5
vt 0.884766 0.5
vt 0.892578 0.5
vt 0.896484 0.5
vt 0.900391 0.5

# verts
v -0.25 -0.3 0.35
v -0.25 -0.3 -0.35
v -0.25 -0.2 0.25
v -0.25 -0.2 0.15
v -0.25 -0.2 0.05
v -0.25 -0.2 -0.05
v -0.25 -0.2 -0.15
v -0.25 -0.2 -0.25
v -0.25 -0.1 0.35
v -0.25 -0.1 0.25
v -0.25 -0.1 0.15
v -0.25 -0.1 0.05
v -0.25 -0.1 -0.05
v -0.25 -0.1 -0.15
v -0.25 -0.1 -0.25
v -0.25 -0.1 -0.35
v -0.15 -0.3 0.45
v -0.15 -0.3 0.35
v -0.15 -0.3 -0.35
v -0.15 -0.3 -0.45
v -0.15 -0.1 0.45
v -0.15 -0.1 0.35
v -0.15 -0.1 0.25
v -0.15 -0.1 0.15
v -0.15 -0.1 0.05
v -0.15 -0.1 -0.05
v -0.15 -0.1 -0.15
v -0.15 -0.1 -0.25
v -0.15 -0.1 -0.35
v -0.15 -0.1 -0.45
v -0.15 0 0.45
v -0.15 0 0.35
v -0.15 0 -0.35
v -0.15 0 -0.45
v -0.15 0.1 0.35
v -0.15 0.1 0.25
v -0.15 0.1 -0.25
v -0.15 0.1 -0.35
v -0.15 0.2 0.25
v -0.15 0.2 0.15
v -0.15 0.2 -0.15
v -0.15 0.2 -0.25
v -0.15 0.3 0.15
v -0.15 0.3 -0.15
v 0.15 -0.3 0.45
v 0.15 -0.3 0.35
v 0.15 -0.3 -0.35
v 0.15 -0.3 -0.45
v 0.15 -0.1 0.45
v 0.15 -0.1 0.35
v 0.15 -0.1 0.25
v 0.15 -0.1 0.15
v 0.15 -0.1 0.05
v 0.15 -0.1 -0.05
v 0.15 -0.1 -0.15
v 0.15 -0.1 -0.25
v 0.15 -0.1 -0.35
v 0.15 -0.1 -0.45
v 0.15 0 0.45
v 0.15 0 0.35
v 0.15 0 -0.35
v 0.15 0 -0.45
v 0.15 0.1 0.35
v 0.15 0.1 0.25
v 0.15 0.1 -0.25
v 0.15 0.1 -0.35
v 0.15 0.2 0.25
v 0.15 0.2 0.15
v 0.15 0.2 -0.15
v 0.15 0.2 -0.25
v 0.15 0.3 0.15
v 0.15 0.3 -0.15
v 0.25 -0.3 0.35
v 0.25 -0.3 -0.35
v 0.25 -0.2 0.25
v 0.25 -0.2 0.15
v 0.25 -0.2 0.05
v 0.25 -0.2 -0.05
v 0.25 -0.2 -0.15
v 0.25 -0.2 -0.25
v 0.25 -0.1 0.35
v 0.25 -0.1 0.25
v 0.25 -0.1 0.15
v 0.25 -0.1 0.05
v 0.25 -0.1 -0.05
v 0.25 -0.1 -0.15
v 0.25 -0.1 -0.25
v 0.25 -0.1 -0.35
v -0.15 -0.3 0.45
v -0.15 -0.1 0.45
v -0.15 0 0.45
v -0.05 -0.2 0.45
v -0.05 -0.1 0.45
v -0.05 0 0.45
v 0.05 -0.2 0.45
v 0.05 -0.1 0.45
v 0.05 0 0.45
v 0.15 -0.3 0.45
v 0.15 -0.1 0.45
v 0.15 0 0.45
v -0.25 -0.3 0.35
v -0.25 -0.1 0.35
v -0.15 -0.3 0.35
v -0.15 -0.1 0.35
v -0.15 0 0.35
v -0.15 0.1 0.35
v -0.05 0 0.35
v 0.05 0 0.35
v 0.15 -0.3 0.35
v 0.15 -0.1 0.35
v 0.15 0 0.35
v 0.15 0.1 0.35
v 0.25 -0.3 0.35
v 0.25 -0.1 0.35
v -0.15 0.1 0.25
v -0.15 0.2 0.25
v 0.15 0.1 0.25
v 0.15 0.2 0.25
v -0.15 0.2 0.15
v -0.15 0.3 0.15
v 0.15 0.2 0.15
v 0.15 0.3 0.15
v -0.15 0.2 -0.15
v -0.15 0.3 -0.15
v 0.15 0.2 -0.15
v 0.15 0.3 -0.15
v -0.15 0.1 -0.25
v -0.15 0.2 -0.25
v 0.15 0.1 -0.25
v 0.15 0.2 -0.25
v -0.25 -0.3 -0.35
v -0.25 -0.1 -0.35
v -0.15 -0.3 -0.35
v -0.15 -0.1 -0.35
v -0.15 0 -0.35
v -0.15 0.1 -0.35
v -0.05 0 -0.35
v 0.05 0 -0.35
v 0.15 -0.3 -0.35
v 0.15 -0.1 -0.35
v 0.15 0 -0.35
v 0.15 0.1 -0.35
v 0.25 -0.3 -0.35
v 0.25 -0.1 -0.35
v -0.15 -0.3 -0.45
v -0.15 -0.1 -0.45
v -0.15 0 -0.45
v -0.05 -0.2 -0.45
v -0.05 -0.1 -0.45
v -0.05 0 -0.45
v 0.05 -0.2 -0.45
v 0.05 -0.1 -0.45
v 0.05 0 -0.45
v 0.15 -0.3 -0.45
v 0.15 -0.1 -0.45
v 0.15 0 -0.45
v -0.15 -0.3 0.45
v 0.15 -0.3 0.45
v -0.25 -0.3 0.35
v -0.15 -0.3 0.35
v 0.15 -0.3 0.35
v 0.25 -0.3 0.35
v -0.25 -0.3 -0.35
v -0.15 -0.3 -0.35
v 0.15 -0.3 -0.35
v 0.25 -0.3 -0.35
v -0.15 -0.3 -0.45
v 0.15 -0.3 -0.45
v -0.25 -0.1 0.35
v -0.15 -0.1 0.35
v 0.15 -0.1 0.35
v 0.25 -0.1 0.35
v -0.25 -0.1 0.25
v -0.15 -0.1 0.25
v 0.15 -0.1 0.25
v 0.25 -0.1 0.25
v -0.25 -0.1 0.15
v -0.15 -0.1 0.15
v 0.15 -0.1 0.15
v 0.25 -0.1 0.15
v -0.25 -0.1 0.05
v -0.15 -0.1 0.05
v 0.15 -0.1 0.05
v 0.25 -0.1 0.05
v -0.25 -0.1 -0.05
v -0.15 -0.1 -0.05
v 0.15 -0.1 -0.05
v 0.25 -0.1 -0.05
v -0.25 -0.1 -0.15
v -0.15 -0.1 -0.15
v 0.15 -0.1 -0.15
v 0.25 -0.1 -0.15
v -0.25 -0.1 -0.25
v -0.15 -0.1 -0.25
v 0.15 -0.1 -0.25
v 0.25 -0.1 -0.25
v -0.25 -0.1 -0.35
v -0.15 -0.1 -0.35
v 0.15 -0.1 -0.35
v 0.25 -0.1 -0.35
v -0.15 0 0.45
v -0.05 0 0.45
v 0.05 0 0.45
v 0.15 0 0.45
v -0.15 0 0.35
v -0.05 0 0.35
v 0.05 0 0.35
v 0.15 0 0.35
v -0.15 0 -0.35
v -0.05 0 -0.35
v 0.05 0 -0.35
v 0.15 0 -0.35
v -0.15 0 -0.45
v -0.05 0 -0.45
v 0.05 0 -0.45
v 0.15 0 -0.45
v -0.15 0.1 0.35
v 0.15 0.1 0.35
v -0.15 0.1 0.25
v 0.15 0.1 0.25
v -0.15 0.1 -0.25
v 0.15 0.1 -0.25
v -0.15 0.1 -0.35
v 0.15 0.1 -0.35
v -0.15 0.2 0.25
v 0.15 0.2 0.25
v -0.15 0.2 0.15
v 0.15 0.2 0.15
v -0.15 0.2 -0.15
v 0.15 0.2 -0.15
v -0.15 0.2 -0.25
v 0.15 0.2 -0.25
v -0.15 0.3 0.15
v 0.15 0.3 0.15
v -0.15 0.3 -0.15
v 0.15 0.3 -0.15

# faces
f 3/1/1 2/1/1 1/1/1
f 4/1/1 2/1/1 3/1/1
f 5/1/1 2/1/1 4/1/1
f 6/1/1 2/1/1 5/1/1
f 7/1/1 2/1/1 6/1/1
f 8/1/1 2/1/1 7/1/1
f 9/1/1 3/1/1 1/1/1
f 10/2/1 4/2/1 3/2/1
f 10/1/1 3/1/1 9/1/1
f 11/1/1 5/1/1 4/1/1
f 11/2/1 4/2/1 10/2/1
f 12/2/1 6/2/1 5/2/1
f 12/1/1 5/1/1 11/1/1
f 13/1/1 7/1/1 6/1/1
f 13/2/1 6/2/1 12/2/1
f 14/2/1 8/2/1 7/2/1
f 14/1/1 7/1/1 13/1/1
f 15/1/1 2/1/1 8/1/1
f 15/2/1 8/2/1 14/2/1
f 16/1/1 2/1/1 15/1/1
f 21/1/1 18/1/1 17/1/1
f 22/1/1 18/1/1 21/1/1
f 29/1/1 20/1/1 19/1/1
f 30/1/1 20/1/1 29/1/1
f 31/6/1 22/6/1 21/6/1
f 32/7/1 28/7/1 27/7/1
f 32/6/1 22/6/1 31/6/1
f 32/7/1 23/7/1 22/7/1
f 32/7/1 24/7/1 23/7/1
f 32/7/1 29/7/1 28/7/1
f 32/7/1 25/7/1 24/7/1
f 32/7/1 27/7/1 26/7/1
f 32/7/1 26/7/1 25/7/1
f 33/6/1 30/6/1 29/6/1
f 33/7/1 29/7/1 32/7/1
f 34/6/1 30/6/1 33/6/1
f 35/5/1 33/5/1 32/5/1
f 36/5/1 33/5/1 35/5/1
f 37/5/1 33/5/1 36/5/1
f 38/5/1 33/5/1 37/5/1
f 39/4/1 37/4/1 36/4/1
f 40/4/1 37/4/1 39/4/1
f 41/4/1 37/4/1 40/4/1
f 42/4/1 37/4/1 41/4/1
f 43/3/1 41/3/1 40/3/1
f 44/3/1 41/3/1 43/3/1
f 45/1/2 46/1/2 49/1/2
f 49/1/2 46/1/2 50/1/2
f 47/1/2 48/1/2 57/1/2
f 57/1/2 48/1/2 58/1/2
f 49/6/2 50/6/2 59/6/2
f 55/7/2 56/7/2 60/7/2
f 59/6/2 50/6/2 60/6/2
f 50/7/2 51/7/2 60/7/2
f 51/7/2 52/7/2 60/7/2
f 56/7/2 57/7/2 60/7/2
f 52/7/2 53/7/2 60/7/2
f 54/7/2 55/7/2 60/7/2
f 53/7/2 54/7/2 60/7/2
f 57/6/2 58/6/2 61/6/2
f 60/7/2 57/7/2 61/7/2
f 61/6/2 58/6/2 62/6/2
f 60/5/2 61/5/2 63/5/2
f 63/5/2 61/5/2 64/5/2
f 64/5/2 61/5/2 65/5/2
f 65/5/2 61/5/2 66/5/2
f 64/4/2 65/4/2 67/4/2
f 67/4/2 65/4/2 68/4/2
f 68/4/2 65/4/2 69/4/2
f 69/4/2 65/4/2 70/4/2
f 68/3/2 69/3/2 71/3/2
f 71/3/2 69/3/2 72/3/2
f 73/1/2 74/1/2 75/1/2
f 75/1/2 74/1/2 76/1/2
f 76/1/2 74/1/2 77/1/2
f 77/1/2 74/1/2 78/1/2
f 78/1/2 74/1/2 79/1/2
f 79/1/2 74/1/2 80/1/2
f 73/1/2 75/1/2 81/1/2
f 75/2/2 76/2/2 82/2/2
f 81/1/2 75/1/2 82/1/2
f 76/1/2 77/1/2 83/1/2
f 82/2/2 76/2/2 83/2/2
f 77/2/2 78/2/2 84/2/2
f 83/1/2 77/1/2 84/1/2
f 78/1/2 79/1/2 85/1/2
f 84/2/2 78/2/2 85/2/2
f 79/2/2 80/2/2 86/2/2
f 85/1/2 79/1/2 86/1/2
f 80/1/2 74/1/2 87/1/2
f 86/2/2 80/2/2 87/2/2
f 87/1/2 74/1/2 88/1/2
f 92/1/3 90/1/3 89/1/3
f 93/6/3 91/6/3 90/6/3
f 93/1/3 90/1/3 92/1/3
f 94/6/3 91/6/3 93/6/3
f 95/1/3 92/1/3 89/1/3
f 95/2/3 93/2/3 92/2/3
f 96/7/3 94/7/3 93/7/3
f 96/2/3 93/2/3 95/2/3
f 97/7/3 94/7/3 96/7/3
f 98/1/3 95/1/3 89/1/3
f 98/1/3 96/1/3 95/1/3
f 99/6/3 97/6/3 96/6/3
f 99/1/3 96/1/3 98/1/3
f 100/6/3 97/6/3 99/6/3
f 103/1/3 102/1/3 101/1/3
f 104/1/3 102/1/3 103/1/3
f 107/5/3 106/5/3 105/5/3
f 108/5/3 106/5/3 107/5/3
f 111/5/3 106/5/3 108/5/3
f 112/5/3 106/5/3 111/5/3
f 113/1/3 110/1/3 109/1/3
f 114/1/3 110/1/3 113/1/3
f 117/4/3 116/4/3 115/4/3
f 118/4/3 116/4/3 117/4/3
f 121/3/3 120/3/3 119/3/3
f 122/3/3 120/3/3 121/3/3
f 123/3/4 124/3/4 125/3/4
f 125/3/4 124/3/4 126/3/4
f 127/4/4 128/4/4 129/4/4
f 129/4/4 128/4/4 130/4/4
f 131/1/4 132/1/4 133/1/4
f 133/1/4 132/1/4 134/1/4
f 135/5/4 136/5/4 137/5/4
f 137/5/4 136/5/4 138/5/4
f 138/5/4 136/5/4 141/5/4
f 141/5/4 136/5/4 142/5/4
f 139/1/4 140/1/4 143/1/4
f 143/1/4 140/1/4 144/1/4
f 145/1/4 146/1/4 148/1/4
f 146/6/4 147/6/4 149/6/4
f 148/1/4 146/1/4 149/1/4
f 149/6/4 147/6/4 150/6/4
f 145/1/4 148/1/4 151/1/4
f 148/2/4 149/2/4 151/2/4
f 149/7/4 150/7/4 152/7/4
f 151/2/4 149/2/4 152/2/4
f 152/7/4 150/7/4 153/7/4
f 145/1/4 151/1/4 154/1/4
f 151/1/4 152/1/4 154/1/4
f 152/6/4 153/6/4 155/6/4
f 154/1/4 152/1/4 155/1/4
f 155/6/4 153/6/4 156/6/4
f 160/1/5 158/1/5 157/1/5
f 161/1/5 158/1/5 160/1/5
f 163/1/5 160/1/5 159/1/5
f 163/1/5 162/1/5 161/1/5
f 163/1/5 161/1/5 160/1/5
f 164/1/5 162/1/5 163/1/5
f 165/1/5 162/1/5 164/1/5
f 166/1/5 162/1/5 165/1/5
f 167/1/5 165/1/5 164/1/5
f 168/1/5 165/1/5 167/1/5
f 169/1/6 170/1/6 173/1/6
f 173/1/6 170/1/6 174/1/6
f 171/1/6 172/1/6 175/1/6
f 175/1/6 172/1/6 176/1/6
f 173/2/6 174/2/6 177/2/6
f 177/2/6 174/2/6 178/2/6
f 175/2/6 176/2/6 179/2/6
f 179/2/6 176/2/6 180/2/6
f 177/1/6 178/1/6 181/1/6
f 181/1/6 178/1/6 182/1/6
f 179/1/6 180/1/6 183/1/6
f 183/1/6 180/1/6 184/1/6
f 181/2/6 182/2/6 185/2/6
f 185/2/6 182/2/6 186/2/6
f 183/2/6 184/2/6 187/2/6
f 187/2/6 184/2/6 188/2/6
f 185/1/6 186/1/6 189/1/6
f 189/1/6 186/1/6 190/1/6
f 187/1/6 188/1/6 191/1/6
f 191/1/6 188/1/6 192/1/6
f 189/2/6 190/2/6 193/2/6
f 193/2/6 190/2/6 194/2/6
f 191/2/6 192/2/6 195/2/6
f 195/2/6 192/2/6 196/2/6
f 193/1/6 194/1/6 197/1/6
f 197/1/6 194/1/6 198/1/6
f 195/1/6 196/1/6 199/1/6
f 199/1/6 196/1/6 200/1/6
f 201/6/6 202/6/6 205/6/6
f 202/7/6 203/7/6 206/7/6
f 205/6/6 202/6/6 206/6/6
f 203/6/6 204/6/6 207/6/6
f 206/7/6 203/7/6 207/7/6
f 207/6/6 204/6/6 208/6/6
f 209/6/6 210/6/6 213/6/6
f 210/7/6 211/7/6 214/7/6
f 213/6/6 210/6/6 214/6/6
f 211/6/6 212/6/6 215/6/6
f 214/7/6 211/7/6 215/7/6
f 215/6/6 212/6/6 216/6/6
f 217/5/6 218/5/6 219/5/6
f 219/5/6 218/5/6 220/5/6
f 221/5/6 222/5/6 223/5/6
f 223/5/6 222/5/6 224/5/6
f 225/4/6 226/4/6 227/4/6
f 227/4/6 226/4/6 228/4/6
f 229/4/6 230/4/6 231/4/6
f 231/4/6 230/4/6 232/4/6
f 233/3/6 234/3/6 235/3/6
f 235/3/6 234/3/6 236/3/6
