# MagicaVoxel @ Ephtracy

# group
o 

# material
mtllib constructionFense.mtl
usemtl palette

# normals
vn -1 0 0
vn 1 0 0
vn 0 0 1
vn 0 0 -1
vn 0 -1 0
vn 0 1 0

# texcoords
vt 0.162109 0.5
vt 0.841797 0.5
vt 0.845703 0.5
vt 0.982422 0.5

# verts
v -0.4 -0.5 1.25
v -0.4 -0.5 -1.25
v -0.4 -0.3 1.25
v -0.4 -0.3 -1.25
v -0.3 -0.6 1.15
v -0.3 -0.6 -1.15
v -0.3 -0.5 1.35
v -0.3 -0.5 1.25
v -0.3 -0.5 1.15
v -0.3 -0.5 -1.15
v -0.3 -0.5 -1.25
v -0.3 -0.5 -1.35
v -0.3 -0.3 1.35
v -0.3 -0.3 1.25
v -0.3 -0.3 1.15
v -0.3 -0.3 -1.15
v -0.3 -0.3 -1.25
v -0.3 -0.3 -1.35
v -0.3 0 1.15
v -0.3 0 -1.15
v -0.2 -0.6 1.25
v -0.2 -0.6 1.15
v -0.2 -0.6 -1.15
v -0.2 -0.6 -1.25
v -0.2 -0.5 1.25
v -0.2 -0.5 1.15
v -0.2 -0.5 -1.15
v -0.2 -0.5 -1.25
v -0.2 -0.3 1.25
v -0.2 -0.3 1.15
v -0.2 -0.3 -1.15
v -0.2 -0.3 -1.25
v -0.2 0 1.25
v -0.2 0 1.15
v -0.2 0 -1.15
v -0.2 0 -1.25
v -0.2 0.2 1.15
v -0.2 0.2 1.05
v -0.2 0.2 0.95
v -0.2 0.2 0.45
v -0.2 0.2 0.35
v -0.2 0.2 -0.45
v -0.2 0.2 -0.55
v -0.2 0.2 -0.95
v -0.2 0.2 -1.05
v -0.2 0.2 -1.15
v -0.2 0.4 1.05
v -0.2 0.4 0.95
v -0.2 0.4 -0.95
v -0.2 0.4 -1.05
v -0.2 0.5 1.05
v -0.2 0.5 0.95
v -0.2 0.5 -0.95
v -0.2 0.5 -1.05
v -0.2 0.6 0.45
v -0.2 0.6 0.35
v -0.2 0.6 -0.45
v -0.2 0.6 -0.55
v -0.1 0.5 1.05
v -0.1 0.5 0.95
v -0.1 0.5 -0.95
v -0.1 0.5 -1.05
v -0.1 0.6 1.05
v -0.1 0.6 0.95
v -0.1 0.6 -0.95
v -0.1 0.6 -1.05
v 0.1 0.2 1.05
v 0.1 0.2 0.95
v 0.1 0.2 -0.95
v 0.1 0.2 -1.05
v 0.1 0.3 1.05
v 0.1 0.3 0.95
v 0.1 0.3 0.45
v 0.1 0.3 0.35
v 0.1 0.3 -0.45
v 0.1 0.3 -0.55
v 0.1 0.3 -0.95
v 0.1 0.3 -1.05
v 0.1 0.6 0.45
v 0.1 0.6 0.35
v 0.1 0.6 -0.45
v 0.1 0.6 -0.55
v -0.1 0.2 1.05
v -0.1 0.2 0.95
v -0.1 0.2 -0.95
v -0.1 0.2 -1.05
v -0.1 0.3 1.05
v -0.1 0.3 0.95
v -0.1 0.3 0.45
v -0.1 0.3 0.35
v -0.1 0.3 -0.45
v -0.1 0.3 -0.55
v -0.1 0.3 -0.95
v -0.1 0.3 -1.05
v -0.1 0.6 0.45
v -0.1 0.6 0.35
v -0.1 0.6 -0.45
v -0.1 0.6 -0.55
v 0.1 0.5 1.05
v 0.1 0.5 0.95
v 0.1 0.5 -0.95
v 0.1 0.5 -1.05
v 0.1 0.6 1.05
v 0.1 0.6 0.95
v 0.1 0.6 -0.95
v 0.1 0.6 -1.05
v 0.2 -0.6 1.25
v 0.2 -0.6 1.15
v 0.2 -0.6 -1.15
v 0.2 -0.6 -1.25
v 0.2 -0.5 1.25
v 0.2 -0.5 1.15
v 0.2 -0.5 -1.15
v 0.2 -0.5 -1.25
v 0.2 -0.3 1.25
v 0.2 -0.3 1.15
v 0.2 -0.3 -1.15
v 0.2 -0.3 -1.25
v 0.2 0 1.25
v 0.2 0 1.15
v 0.2 0 -1.15
v 0.2 0 -1.25
v 0.2 0.2 1.15
v 0.2 0.2 1.05
v 0.2 0.2 0.95
v 0.2 0.2 0.45
v 0.2 0.2 0.35
v 0.2 0.2 -0.45
v 0.2 0.2 -0.55
v 0.2 0.2 -0.95
v 0.2 0.2 -1.05
v 0.2 0.2 -1.15
v 0.2 0.4 1.05
v 0.2 0.4 0.95
v 0.2 0.4 -0.95
v 0.2 0.4 -1.05
v 0.2 0.5 1.05
v 0.2 0.5 0.95
v 0.2 0.5 -0.95
v 0.2 0.5 -1.05
v 0.2 0.6 0.45
v 0.2 0.6 0.35
v 0.2 0.6 -0.45
v 0.2 0.6 -0.55
v 0.3 -0.6 1.15
v 0.3 -0.6 -1.15
v 0.3 -0.5 1.35
v 0.3 -0.5 1.25
v 0.3 -0.5 1.15
v 0.3 -0.5 -1.15
v 0.3 -0.5 -1.25
v 0.3 -0.5 -1.35
v 0.3 -0.3 1.35
v 0.3 -0.3 1.25
v 0.3 -0.3 1.15
v 0.3 -0.3 -1.15
v 0.3 -0.3 -1.25
v 0.3 -0.3 -1.35
v 0.3 0 1.15
v 0.3 0 -1.15
v 0.4 -0.5 1.25
v 0.4 -0.5 -1.25
v 0.4 -0.3 1.25
v 0.4 -0.3 -1.25
v -0.3 -0.5 1.35
v -0.3 -0.3 1.35
v 0.3 -0.5 1.35
v 0.3 -0.3 1.35
v -0.4 -0.5 1.25
v -0.4 -0.3 1.25
v -0.3 -0.5 1.25
v -0.3 -0.3 1.25
v -0.2 -0.6 1.25
v -0.2 -0.5 1.25
v -0.2 -0.3 1.25
v -0.2 0 1.25
v 0.2 -0.6 1.25
v 0.2 -0.5 1.25
v 0.2 -0.3 1.25
v 0.2 0 1.25
v 0.3 -0.5 1.25
v 0.3 -0.3 1.25
v 0.4 -0.5 1.25
v 0.4 -0.3 1.25
v -0.3 -0.6 1.15
v -0.3 -0.5 1.15
v -0.3 -0.3 1.15
v -0.3 0 1.15
v -0.2 -0.6 1.15
v -0.2 -0.5 1.15
v -0.2 -0.3 1.15
v -0.2 0 1.15
v -0.2 0.2 1.15
v 0.2 -0.6 1.15
v 0.2 -0.5 1.15
v 0.2 -0.3 1.15
v 0.2 0 1.15
v 0.2 0.2 1.15
v 0.3 -0.6 1.15
v 0.3 -0.5 1.15
v 0.3 -0.3 1.15
v 0.3 0 1.15
v -0.2 0.2 1.05
v -0.2 0.4 1.05
v -0.2 0.5 1.05
v -0.1 0.2 1.05
v -0.1 0.3 1.05
v -0.1 0.4 1.05
v -0.1 0.5 1.05
v -0.1 0.6 1.05
v 0.1 0.2 1.05
v 0.1 0.3 1.05
v 0.1 0.4 1.05
v 0.1 0.5 1.05
v 0.1 0.6 1.05
v 0.2 0.2 1.05
v 0.2 0.4 1.05
v 0.2 0.5 1.05
v -0.2 0.2 0.45
v -0.2 0.6 0.45
v -0.1 0.3 0.45
v -0.1 0.6 0.45
v 0.1 0.3 0.45
v 0.1 0.6 0.45
v 0.2 0.2 0.45
v 0.2 0.6 0.45
v -0.2 0.2 -0.45
v -0.2 0.6 -0.45
v -0.1 0.3 -0.45
v -0.1 0.6 -0.45
v 0.1 0.3 -0.45
v 0.1 0.6 -0.45
v 0.2 0.2 -0.45
v 0.2 0.6 -0.45
v -0.2 0.2 -0.95
v -0.2 0.4 -0.95
v -0.2 0.5 -0.95
v -0.1 0.2 -0.95
v -0.1 0.3 -0.95
v -0.1 0.4 -0.95
v -0.1 0.5 -0.95
v -0.1 0.6 -0.95
v 0.1 0.2 -0.95
v 0.1 0.3 -0.95
v 0.1 0.4 -0.95
v 0.1 0.5 -0.95
v 0.1 0.6 -0.95
v 0.2 0.2 -0.95
v 0.2 0.4 -0.95
v 0.2 0.5 -0.95
v -0.2 0.2 0.95
v -0.2 0.4 0.95
v -0.2 0.5 0.95
v -0.1 0.2 0.95
v -0.1 0.3 0.95
v -0.1 0.4 0.95
v -0.1 0.5 0.95
v -0.1 0.6 0.95
v 0.1 0.2 0.95
v 0.1 0.3 0.95
v 0.1 0.4 0.95
v 0.1 0.5 0.95
v 0.1 0.6 0.95
v 0.2 0.2 0.95
v 0.2 0.4 0.95
v 0.2 0.5 0.95
v -0.2 0.2 0.35
v -0.2 0.6 0.35
v -0.1 0.3 0.35
v -0.1 0.6 0.35
v 0.1 0.3 0.35
v 0.1 0.6 0.35
v 0.2 0.2 0.35
v 0.2 0.6 0.35
v -0.2 0.2 -0.55
v -0.2 0.6 -0.55
v -0.1 0.3 -0.55
v -0.1 0.6 -0.55
v 0.1 0.3 -0.55
v 0.1 0.6 -0.55
v 0.2 0.2 -0.55
v 0.2 0.6 -0.55
v -0.2 0.2 -1.05
v -0.2 0.4 -1.05
v -0.2 0.5 -1.05
v -0.1 0.2 -1.05
v -0.1 0.3 -1.05
v -0.1 0.4 -1.05
v -0.1 0.5 -1.05
v -0.1 0.6 -1.05
v 0.1 0.2 -1.05
v 0.1 0.3 -1.05
v 0.1 0.4 -1.05
v 0.1 0.5 -1.05
v 0.1 0.6 -1.05
v 0.2 0.2 -1.05
v 0.2 0.4 -1.05
v 0.2 0.5 -1.05
v -0.3 -0.6 -1.15
v -0.3 -0.5 -1.15
v -0.3 -0.3 -1.15
v -0.3 0 -1.15
v -0.2 -0.6 -1.15
v -0.2 -0.5 -1.15
v -0.2 -0.3 -1.15
v -0.2 0 -1.15
v -0.2 0.2 -1.15
v 0.2 -0.6 -1.15
v 0.2 -0.5 -1.15
v 0.2 -0.3 -1.15
v 0.2 0 -1.15
v 0.2 0.2 -1.15
v 0.3 -0.6 -1.15
v 0.3 -0.5 -1.15
v 0.3 -0.3 -1.15
v 0.3 0 -1.15
v -0.4 -0.5 -1.25
v -0.4 -0.3 -1.25
v -0.3 -0.5 -1.25
v -0.3 -0.3 -1.25
v -0.2 -0.6 -1.25
v -0.2 -0.5 -1.25
v -0.2 -0.3 -1.25
v -0.2 0 -1.25
v 0.2 -0.6 -1.25
v 0.2 -0.5 -1.25
v 0.2 -0.3 -1.25
v 0.2 0 -1.25
v 0.3 -0.5 -1.25
v 0.3 -0.3 -1.25
v 0.4 -0.5 -1.25
v 0.4 -0.3 -1.25
v -0.3 -0.5 -1.35
v -0.3 -0.3 -1.35
v 0.3 -0.5 -1.35
v 0.3 -0.3 -1.35
v -0.2 -0.6 1.25
v 0.2 -0.6 1.25
v -0.3 -0.6 1.15
v -0.2 -0.6 1.15
v 0.2 -0.6 1.15
v 0.3 -0.6 1.15
v -0.3 -0.6 -1.15
v -0.2 -0.6 -1.15
v 0.2 -0.6 -1.15
v 0.3 -0.6 -1.15
v -0.2 -0.6 -1.25
v 0.2 -0.6 -1.25
v -0.3 -0.5 1.35
v 0.3 -0.5 1.35
v -0.4 -0.5 1.25
v -0.3 -0.5 1.25
v -0.2 -0.5 1.25
v 0.2 -0.5 1.25
v 0.3 -0.5 1.25
v 0.4 -0.5 1.25
v -0.3 -0.5 1.15
v -0.2 -0.5 1.15
v 0.2 -0.5 1.15
v 0.3 -0.5 1.15
v -0.3 -0.5 -1.15
v -0.2 -0.5 -1.15
v 0.2 -0.5 -1.15
v 0.3 -0.5 -1.15
v -0.4 -0.5 -1.25
v -0.3 -0.5 -1.25
v -0.2 -0.5 -1.25
v 0.2 -0.5 -1.25
v 0.3 -0.5 -1.25
v 0.4 -0.5 -1.25
v -0.3 -0.5 -1.35
v 0.3 -0.5 -1.35
v -0.1 0.3 1.05
v 0.1 0.3 1.05
v -0.1 0.3 0.95
v 0.1 0.3 0.95
v -0.1 0.3 -0.95
v 0.1 0.3 -0.95
v -0.1 0.3 -1.05
v 0.1 0.3 -1.05
v -0.3 -0.3 1.35
v 0.3 -0.3 1.35
v -0.4 -0.3 1.25
v -0.3 -0.3 1.25
v -0.2 -0.3 1.25
v 0.2 -0.3 1.25
v 0.3 -0.3 1.25
v 0.4 -0.3 1.25
v -0.3 -0.3 1.15
v -0.2 -0.3 1.15
v 0.2 -0.3 1.15
v 0.3 -0.3 1.15
v -0.3 -0.3 -1.15
v -0.2 -0.3 -1.15
v 0.2 -0.3 -1.15
v 0.3 -0.3 -1.15
v -0.4 -0.3 -1.25
v -0.3 -0.3 -1.25
v -0.2 -0.3 -1.25
v 0.2 -0.3 -1.25
v 0.3 -0.3 -1.25
v 0.4 -0.3 -1.25
v -0.3 -0.3 -1.35
v 0.3 -0.3 -1.35
v -0.2 0 1.25
v 0.2 0 1.25
v -0.3 0 1.15
v -0.2 0 1.15
v 0.2 0 1.15
v 0.3 0 1.15
v -0.3 0 -1.15
v -0.2 0 -1.15
v 0.2 0 -1.15
v 0.3 0 -1.15
v -0.2 0 -1.25
v 0.2 0 -1.25
v -0.2 0.2 1.15
v 0.2 0.2 1.15
v -0.2 0.2 1.05
v -0.1 0.2 1.05
v 0.1 0.2 1.05
v 0.2 0.2 1.05
v -0.2 0.2 0.95
v -0.1 0.2 0.95
v 0.1 0.2 0.95
v 0.2 0.2 0.95
v -0.2 0.2 0.45
v 0.2 0.2 0.45
v -0.2 0.2 0.35
v 0.2 0.2 0.35
v -0.2 0.2 -0.45
v 0.2 0.2 -0.45
v -0.2 0.2 -0.55
v 0.2 0.2 -0.55
v -0.2 0.2 -0.95
v -0.1 0.2 -0.95
v 0.1 0.2 -0.95
v 0.2 0.2 -0.95
v -0.2 0.2 -1.05
v -0.1 0.2 -1.05
v 0.1 0.2 -1.05
v 0.2 0.2 -1.05
v -0.2 0.2 -1.15
v 0.2 0.2 -1.15
v -0.1 0.3 0.45
v 0.1 0.3 0.45
v -0.1 0.3 0.35
v 0.1 0.3 0.35
v -0.1 0.3 -0.45
v 0.1 0.3 -0.45
v -0.1 0.3 -0.55
v 0.1 0.3 -0.55
v -0.2 0.5 1.05
v -0.1 0.5 1.05
v 0.1 0.5 1.05
v 0.2 0.5 1.05
v -0.2 0.5 0.95
v -0.1 0.5 0.95
v 0.1 0.5 0.95
v 0.2 0.5 0.95
v -0.2 0.5 -0.95
v -0.1 0.5 -0.95
v 0.1 0.5 -0.95
v 0.2 0.5 -0.95
v -0.2 0.5 -1.05
v -0.1 0.5 -1.05
v 0.1 0.5 -1.05
v 0.2 0.5 -1.05
v -0.1 0.6 1.05
v 0.1 0.6 1.05
v -0.1 0.6 0.95
v 0.1 0.6 0.95
v -0.2 0.6 0.45
v -0.1 0.6 0.45
v 0.1 0.6 0.45
v 0.2 0.6 0.45
v -0.2 0.6 0.35
v -0.1 0.6 0.35
v 0.1 0.6 0.35
v 0.2 0.6 0.35
v -0.2 0.6 -0.45
v -0.1 0.6 -0.45
v 0.1 0.6 -0.45
v 0.2 0.6 -0.45
v -0.2 0.6 -0.55
v -0.1 0.6 -0.55
v 0.1 0.6 -0.55
v 0.2 0.6 -0.55
v -0.1 0.6 -0.95
v 0.1 0.6 -0.95
v -0.1 0.6 -1.05
v 0.1 0.6 -1.05

# faces
f 3/4/1 2/4/1 1/4/1
f 4/4/1 2/4/1 3/4/1
f 9/4/1 6/4/1 5/4/1
f 10/4/1 6/4/1 9/4/1
f 13/4/1 8/4/1 7/4/1
f 14/4/1 8/4/1 13/4/1
f 17/4/1 12/4/1 11/4/1
f 18/4/1 12/4/1 17/4/1
f 19/4/1 16/4/1 15/4/1
f 20/4/1 16/4/1 19/4/1
f 25/4/1 22/4/1 21/4/1
f 26/4/1 22/4/1 25/4/1
f 27/4/1 24/4/1 23/4/1
f 28/4/1 24/4/1 27/4/1
f 33/4/1 30/4/1 29/4/1
f 34/4/1 30/4/1 33/4/1
f 35/4/1 32/4/1 31/4/1
f 36/4/1 32/4/1 35/4/1
f 37/4/1 35/4/1 34/4/1
f 38/4/1 35/4/1 37/4/1
f 39/4/1 35/4/1 38/4/1
f 40/4/1 35/4/1 39/4/1
f 41/4/1 35/4/1 40/4/1
f 42/4/1 35/4/1 41/4/1
f 43/4/1 35/4/1 42/4/1
f 44/4/1 35/4/1 43/4/1
f 45/4/1 35/4/1 44/4/1
f 46/4/1 35/4/1 45/4/1
f 47/4/1 39/4/1 38/4/1
f 48/4/1 39/4/1 47/4/1
f 49/4/1 45/4/1 44/4/1
f 50/4/1 45/4/1 49/4/1
f 51/1/1 48/1/1 47/1/1
f 52/1/1 48/1/1 51/1/1
f 53/2/1 50/2/1 49/2/1
f 54/2/1 50/2/1 53/2/1
f 55/4/1 41/4/1 40/4/1
f 56/4/1 41/4/1 55/4/1
f 57/4/1 43/4/1 42/4/1
f 58/4/1 43/4/1 57/4/1
f 63/1/1 60/1/1 59/1/1
f 64/1/1 60/1/1 63/1/1
f 65/3/1 62/3/1 61/3/1
f 66/3/1 62/3/1 65/3/1
f 71/4/1 68/4/1 67/4/1
f 72/4/1 68/4/1 71/4/1
f 77/4/1 70/4/1 69/4/1
f 78/4/1 70/4/1 77/4/1
f 79/4/1 74/4/1 73/4/1
f 80/4/1 74/4/1 79/4/1
f 81/4/1 76/4/1 75/4/1
f 82/4/1 76/4/1 81/4/1
f 83/4/2 84/4/2 87/4/2
f 87/4/2 84/4/2 88/4/2
f 85/4/2 86/4/2 93/4/2
f 93/4/2 86/4/2 94/4/2
f 89/4/2 90/4/2 95/4/2
f 95/4/2 90/4/2 96/4/2
f 91/4/2 92/4/2 97/4/2
f 97/4/2 92/4/2 98/4/2
f 99/1/2 100/1/2 103/1/2
f 103/1/2 100/1/2 104/1/2
f 101/3/2 102/3/2 105/3/2
f 105/3/2 102/3/2 106/3/2
f 107/4/2 108/4/2 111/4/2
f 111/4/2 108/4/2 112/4/2
f 109/4/2 110/4/2 113/4/2
f 113/4/2 110/4/2 114/4/2
f 115/4/2 116/4/2 119/4/2
f 119/4/2 116/4/2 120/4/2
f 117/4/2 118/4/2 121/4/2
f 121/4/2 118/4/2 122/4/2
f 120/4/2 121/4/2 123/4/2
f 123/4/2 121/4/2 124/4/2
f 124/4/2 121/4/2 125/4/2
f 125/4/2 121/4/2 126/4/2
f 126/4/2 121/4/2 127/4/2
f 127/4/2 121/4/2 128/4/2
f 128/4/2 121/4/2 129/4/2
f 129/4/2 121/4/2 130/4/2
f 130/4/2 121/4/2 131/4/2
f 131/4/2 121/4/2 132/4/2
f 124/4/2 125/4/2 133/4/2
f 133/4/2 125/4/2 134/4/2
f 130/4/2 131/4/2 135/4/2
f 135/4/2 131/4/2 136/4/2
f 133/1/2 134/1/2 137/1/2
f 137/1/2 134/1/2 138/1/2
f 135/2/2 136/2/2 139/2/2
f 139/2/2 136/2/2 140/2/2
f 126/4/2 127/4/2 141/4/2
f 141/4/2 127/4/2 142/4/2
f 128/4/2 129/4/2 143/4/2
f 143/4/2 129/4/2 144/4/2
f 145/4/2 146/4/2 149/4/2
f 149/4/2 146/4/2 150/4/2
f 147/4/2 148/4/2 153/4/2
f 153/4/2 148/4/2 154/4/2
f 151/4/2 152/4/2 157/4/2
f 157/4/2 152/4/2 158/4/2
f 155/4/2 156/4/2 159/4/2
f 159/4/2 156/4/2 160/4/2
f 161/4/2 162/4/2 163/4/2
f 163/4/2 162/4/2 164/4/2
f 167/4/3 166/4/3 165/4/3
f 168/4/3 166/4/3 167/4/3
f 171/4/3 170/4/3 169/4/3
f 172/4/3 170/4/3 171/4/3
f 177/4/3 174/4/3 173/4/3
f 178/4/3 174/4/3 177/4/3
f 179/4/3 176/4/3 175/4/3
f 180/4/3 176/4/3 179/4/3
f 183/4/3 182/4/3 181/4/3
f 184/4/3 182/4/3 183/4/3
f 189/4/3 186/4/3 185/4/3
f 190/4/3 186/4/3 189/4/3
f 191/4/3 188/4/3 187/4/3
f 192/4/3 188/4/3 191/4/3
f 197/4/3 193/4/3 192/4/3
f 198/4/3 193/4/3 197/4/3
f 199/4/3 195/4/3 194/4/3
f 200/4/3 195/4/3 199/4/3
f 201/4/3 197/4/3 196/4/3
f 202/4/3 197/4/3 201/4/3
f 206/4/3 204/4/3 203/4/3
f 207/4/3 204/4/3 206/4/3
f 208/1/3 205/1/3 204/1/3
f 208/4/3 204/4/3 207/4/3
f 209/1/3 205/1/3 208/1/3
f 212/1/3 210/1/3 209/1/3
f 212/1/3 209/1/3 208/1/3
f 212/1/3 208/1/3 207/1/3
f 213/1/3 210/1/3 212/1/3
f 214/1/3 210/1/3 213/1/3
f 215/1/3 210/1/3 214/1/3
f 216/4/3 212/4/3 211/4/3
f 216/4/3 213/4/3 212/4/3
f 217/1/3 214/1/3 213/1/3
f 217/4/3 213/4/3 216/4/3
f 218/1/3 214/1/3 217/1/3
f 221/4/3 220/4/3 219/4/3
f 222/4/3 220/4/3 221/4/3
f 223/4/3 221/4/3 219/4/3
f 225/4/3 223/4/3 219/4/3
f 225/4/3 224/4/3 223/4/3
f 226/4/3 224/4/3 225/4/3
f 229/4/3 228/4/3 227/4/3
f 230/4/3 228/4/3 229/4/3
f 231/4/3 229/4/3 227/4/3
f 233/4/3 231/4/3 227/4/3
f 233/4/3 232/4/3 231/4/3
f 234/4/3 232/4/3 233/4/3
f 238/4/3 236/4/3 235/4/3
f 239/4/3 236/4/3 238/4/3
f 240/2/3 237/2/3 236/2/3
f 240/4/3 236/4/3 239/4/3
f 241/2/3 237/2/3 240/2/3
f 244/3/3 240/3/3 239/3/3
f 245/2/3 241/2/3 240/2/3
f 245/3/3 240/3/3 244/3/3
f 246/3/3 242/3/3 241/3/3
f 246/2/3 241/2/3 245/2/3
f 247/3/3 242/3/3 246/3/3
f 248/4/3 245/4/3 244/4/3
f 248/4/3 244/4/3 243/4/3
f 249/2/3 246/2/3 245/2/3
f 249/4/3 245/4/3 248/4/3
f 250/2/3 246/2/3 249/2/3
f 251/4/4 252/4/4 254/4/4
f 254/4/4 252/4/4 255/4/4
f 252/1/4 253/1/4 256/1/4
f 255/4/4 252/4/4 256/4/4
f 256/1/4 253/1/4 257/1/4
f 257/1/4 258/1/4 260/1/4
f 256/1/4 257/1/4 260/1/4
f 255/1/4 256/1/4 260/1/4
f 260/1/4 258/1/4 261/1/4
f 261/1/4 258/1/4 262/1/4
f 262/1/4 258/1/4 263/1/4
f 259/4/4 260/4/4 264/4/4
f 260/4/4 261/4/4 264/4/4
f 261/1/4 262/1/4 265/1/4
f 264/4/4 261/4/4 265/4/4
f 265/1/4 262/1/4 266/1/4
f 267/4/4 268/4/4 269/4/4
f 269/4/4 268/4/4 270/4/4
f 267/4/4 269/4/4 271/4/4
f 267/4/4 271/4/4 273/4/4
f 271/4/4 272/4/4 273/4/4
f 273/4/4 272/4/4 274/4/4
f 275/4/4 276/4/4 277/4/4
f 277/4/4 276/4/4 278/4/4
f 275/4/4 277/4/4 279/4/4
f 275/4/4 279/4/4 281/4/4
f 279/4/4 280/4/4 281/4/4
f 281/4/4 280/4/4 282/4/4
f 283/4/4 284/4/4 286/4/4
f 286/4/4 284/4/4 287/4/4
f 284/2/4 285/2/4 288/2/4
f 287/4/4 284/4/4 288/4/4
f 288/2/4 285/2/4 289/2/4
f 287/3/4 288/3/4 292/3/4
f 288/2/4 289/2/4 293/2/4
f 292/3/4 288/3/4 293/3/4
f 289/3/4 290/3/4 294/3/4
f 293/2/4 289/2/4 294/2/4
f 294/3/4 290/3/4 295/3/4
f 292/4/4 293/4/4 296/4/4
f 291/4/4 292/4/4 296/4/4
f 293/2/4 294/2/4 297/2/4
f 296/4/4 293/4/4 297/4/4
f 297/2/4 294/2/4 298/2/4
f 299/4/4 300/4/4 303/4/4
f 303/4/4 300/4/4 304/4/4
f 301/4/4 302/4/4 305/4/4
f 305/4/4 302/4/4 306/4/4
f 306/4/4 307/4/4 311/4/4
f 311/4/4 307/4/4 312/4/4
f 308/4/4 309/4/4 313/4/4
f 313/4/4 309/4/4 314/4/4
f 310/4/4 311/4/4 315/4/4
f 315/4/4 311/4/4 316/4/4
f 317/4/4 318/4/4 319/4/4
f 319/4/4 318/4/4 320/4/4
f 321/4/4 322/4/4 325/4/4
f 325/4/4 322/4/4 326/4/4
f 323/4/4 324/4/4 327/4/4
f 327/4/4 324/4/4 328/4/4
f 329/4/4 330/4/4 331/4/4
f 331/4/4 330/4/4 332/4/4
f 333/4/4 334/4/4 335/4/4
f 335/4/4 334/4/4 336/4/4
f 340/4/5 338/4/5 337/4/5
f 341/4/5 338/4/5 340/4/5
f 343/4/5 340/4/5 339/4/5
f 343/4/5 342/4/5 341/4/5
f 343/4/5 341/4/5 340/4/5
f 344/4/5 342/4/5 343/4/5
f 345/4/5 342/4/5 344/4/5
f 346/4/5 342/4/5 345/4/5
f 347/4/5 345/4/5 344/4/5
f 348/4/5 345/4/5 347/4/5
f 352/4/5 350/4/5 349/4/5
f 353/4/5 350/4/5 352/4/5
f 354/4/5 350/4/5 353/4/5
f 355/4/5 350/4/5 354/4/5
f 357/4/5 352/4/5 351/4/5
f 357/4/5 353/4/5 352/4/5
f 358/4/5 353/4/5 357/4/5
f 359/4/5 356/4/5 355/4/5
f 359/4/5 355/4/5 354/4/5
f 360/4/5 356/4/5 359/4/5
f 361/4/5 357/4/5 351/4/5
f 364/4/5 356/4/5 360/4/5
f 365/4/5 362/4/5 361/4/5
f 365/4/5 361/4/5 351/4/5
f 366/4/5 362/4/5 365/4/5
f 367/4/5 362/4/5 366/4/5
f 368/4/5 364/4/5 363/4/5
f 369/4/5 356/4/5 364/4/5
f 369/4/5 364/4/5 368/4/5
f 370/4/5 356/4/5 369/4/5
f 371/4/5 367/4/5 366/4/5
f 371/4/5 368/4/5 367/4/5
f 371/4/5 369/4/5 368/4/5
f 372/4/5 369/4/5 371/4/5
f 375/1/5 374/1/5 373/1/5
f 376/1/5 374/1/5 375/1/5
f 379/3/5 378/3/5 377/3/5
f 380/3/5 378/3/5 379/3/5
f 381/4/6 382/4/6 384/4/6
f 384/4/6 382/4/6 385/4/6
f 385/4/6 382/4/6 386/4/6
f 386/4/6 382/4/6 387/4/6
f 383/4/6 384/4/6 389/4/6
f 384/4/6 385/4/6 389/4/6
f 389/4/6 385/4/6 390/4/6
f 387/4/6 388/4/6 391/4/6
f 386/4/6 387/4/6 391/4/6
f 391/4/6 388/4/6 392/4/6
f 383/4/6 389/4/6 393/4/6
f 392/4/6 388/4/6 396/4/6
f 393/4/6 394/4/6 397/4/6
f 383/4/6 393/4/6 397/4/6
f 397/4/6 394/4/6 398/4/6
f 398/4/6 394/4/6 399/4/6
f 395/4/6 396/4/6 400/4/6
f 396/4/6 388/4/6 401/4/6
f 400/4/6 396/4/6 401/4/6
f 401/4/6 388/4/6 402/4/6
f 398/4/6 399/4/6 403/4/6
f 399/4/6 400/4/6 403/4/6
f 400/4/6 401/4/6 403/4/6
f 403/4/6 401/4/6 404/4/6
f 405/4/6 406/4/6 408/4/6
f 408/4/6 406/4/6 409/4/6
f 407/4/6 408/4/6 411/4/6
f 411/4/6 408/4/6 412/4/6
f 409/4/6 410/4/6 413/4/6
f 413/4/6 410/4/6 414/4/6
f 412/4/6 413/4/6 415/4/6
f 415/4/6 413/4/6 416/4/6
f 417/4/6 418/4/6 419/4/6
f 419/4/6 418/4/6 420/4/6
f 420/4/6 418/4/6 421/4/6
f 421/4/6 418/4/6 422/4/6
f 420/4/6 421/4/6 424/4/6
f 424/4/6 421/4/6 425/4/6
f 423/4/6 424/4/6 427/4/6
f 425/4/6 426/4/6 427/4/6
f 424/4/6 425/4/6 427/4/6
f 427/4/6 426/4/6 428/4/6
f 429/4/6 430/4/6 431/4/6
f 431/4/6 430/4/6 432/4/6
f 433/4/6 434/4/6 435/4/6
f 435/4/6 434/4/6 436/4/6
f 436/4/6 434/4/6 437/4/6
f 437/4/6 434/4/6 438/4/6
f 436/4/6 437/4/6 440/4/6
f 440/4/6 437/4/6 441/4/6
f 439/4/6 440/4/6 443/4/6
f 441/4/6 442/4/6 443/4/6
f 440/4/6 441/4/6 443/4/6
f 443/4/6 442/4/6 444/4/6
f 445/4/6 446/4/6 447/4/6
f 447/4/6 446/4/6 448/4/6
f 449/4/6 450/4/6 451/4/6
f 451/4/6 450/4/6 452/4/6
f 453/1/6 454/1/6 457/1/6
f 457/1/6 454/1/6 458/1/6
f 455/1/6 456/1/6 459/1/6
f 459/1/6 456/1/6 460/1/6
f 461/2/6 462/2/6 465/2/6
f 465/2/6 462/2/6 466/2/6
f 463/2/6 464/2/6 467/2/6
f 467/2/6 464/2/6 468/2/6
f 469/1/6 470/1/6 471/1/6
f 471/1/6 470/1/6 472/1/6
f 473/4/6 474/4/6 477/4/6
f 477/4/6 474/4/6 478/4/6
f 475/4/6 476/4/6 479/4/6
f 479/4/6 476/4/6 480/4/6
f 481/4/6 482/4/6 485/4/6
f 485/4/6 482/4/6 486/4/6
f 483/4/6 484/4/6 487/4/6
f 487/4/6 484/4/6 488/4/6
f 489/3/6 490/3/6 491/3/6
f 491/3/6 490/3/6 492/3/6
