# MagicaVoxel @ Ephtracy

# group
o 

# material
mtllib houseBase.mtl
usemtl palette

# normals
vn -1 0 0
vn 1 0 0
vn 0 0 1
vn 0 0 -1
vn 0 -1 0
vn 0 1 0

# texcoords
vt 0.966797 0.5
vt 0.978516 0.5
vt 0.990234 0.5

# verts
v -3.2 0 3.2
v -3.2 0 -3.2
v -3.2 0.1 3.2
v -3.2 0.1 -3.2
v -2.9 0.1 2.7
v -2.9 0.1 -2.9
v -2.9 2.8 2.7
v -2.9 2.8 -2.9
v -0.3 2.5 2.7
v -0.3 2.5 2.6
v -0.3 2.6 2.7
v -0.3 2.6 2.6
v -0.2 2.4 2.7
v -0.2 2.4 2.6
v -0.2 2.5 2.7
v -0.2 2.5 2.6
v -0.0999999 2.3 2.7
v -0.0999999 2.3 2.6
v -0.0999999 2.4 2.7
v -0.0999999 2.4 2.6
v 0 2.2 2.7
v 0 2.2 2.6
v 0 2.3 2.7
v 0 2.3 2.6
v 0.1 0.2 2.7
v 0.1 0.2 2.6
v 0.1 2.2 2.7
v 0.1 2.2 2.6
v 0.5 0.2 2.6
v 0.5 0.2 -2.8
v 0.5 2.8 2.6
v 0.5 2.8 -2.8
v -2.8 0.2 2.6
v -2.8 0.2 -2.8
v -2.8 2.8 2.6
v -2.8 2.8 -2.8
v -2.4 0.2 2.7
v -2.4 0.2 2.6
v -2.4 2.2 2.7
v -2.4 2.2 2.6
v -2.3 2.2 2.7
v -2.3 2.2 2.6
v -2.3 2.3 2.7
v -2.3 2.3 2.6
v -2.2 2.3 2.7
v -2.2 2.3 2.6
v -2.2 2.4 2.7
v -2.2 2.4 2.6
v -2.1 2.4 2.7
v -2.1 2.4 2.6
v -2.1 2.5 2.7
v -2.1 2.5 2.6
v -2 2.5 2.7
v -2 2.5 2.6
v -2 2.6 2.7
v -2 2.6 2.6
v 0.6 0.1 2.7
v 0.6 0.1 -2.9
v 0.6 2.8 2.7
v 0.6 2.8 -2.9
v 0.8 0 3.2
v 0.8 0 -3.2
v 0.8 0.1 3.2
v 0.8 0.1 -3.2
v -3.2 0 3.2
v -3.2 0.1 3.2
v 0.8 0 3.2
v 0.8 0.1 3.2
v -2.9 0.1 2.7
v -2.9 2.8 2.7
v -2.5 0.2 2.7
v -2.5 2.2 2.7
v -2.4 0.2 2.7
v -2.4 2.2 2.7
v -2.4 2.3 2.7
v -2.3 2.2 2.7
v -2.3 2.3 2.7
v -2.3 2.4 2.7
v -2.2 2.3 2.7
v -2.2 2.4 2.7
v -2.2 2.5 2.7
v -2.1 2.4 2.7
v -2.1 2.5 2.7
v -2.1 2.6 2.7
v -2 2.5 2.7
v -2 2.6 2.7
v -2 2.7 2.7
v -0.3 2.5 2.7
v -0.3 2.6 2.7
v -0.3 2.7 2.7
v -0.2 2.4 2.7
v -0.2 2.5 2.7
v -0.2 2.6 2.7
v -0.0999999 2.3 2.7
v -0.0999999 2.4 2.7
v -0.0999999 2.5 2.7
v 0 2.2 2.7
v 0 2.3 2.7
v 0 2.4 2.7
v 0.1 0.2 2.7
v 0.1 2.2 2.7
v 0.1 2.3 2.7
v 0.2 0.2 2.7
v 0.2 2.2 2.7
v 0.6 0.1 2.7
v 0.6 2.8 2.7
v -2.8 0.2 -2.8
v -2.8 2.8 -2.8
v 0.5 0.2 -2.8
v 0.5 2.8 -2.8
v -2.8 0.2 2.6
v -2.8 2.8 2.6
v -2.5 0.2 2.6
v -2.5 2.2 2.6
v -2.4 0.2 2.6
v -2.4 2.2 2.6
v -2.4 2.3 2.6
v -2.3 2.2 2.6
v -2.3 2.3 2.6
v -2.3 2.4 2.6
v -2.2 2.3 2.6
v -2.2 2.4 2.6
v -2.2 2.5 2.6
v -2.1 2.4 2.6
v -2.1 2.5 2.6
v -2.1 2.6 2.6
v -2 2.5 2.6
v -2 2.6 2.6
v -2 2.7 2.6
v -0.3 2.5 2.6
v -0.3 2.6 2.6
v -0.3 2.7 2.6
v -0.2 2.4 2.6
v -0.2 2.5 2.6
v -0.2 2.6 2.6
v -0.0999999 2.3 2.6
v -0.0999999 2.4 2.6
v -0.0999999 2.5 2.6
v 0 2.2 2.6
v 0 2.3 2.6
v 0 2.4 2.6
v 0.1 0.2 2.6
v 0.1 2.2 2.6
v 0.1 2.3 2.6
v 0.2 0.2 2.6
v 0.2 2.2 2.6
v 0.5 0.2 2.6
v 0.5 2.8 2.6
v -2.9 0.1 -2.9
v -2.9 2.8 -2.9
v 0.6 0.1 -2.9
v 0.6 2.8 -2.9
v -3.2 0 -3.2
v -3.2 0.1 -3.2
v 0.8 0 -3.2
v 0.8 0.1 -3.2
v -3.2 0 3.2
v 0.8 0 3.2
v -3.2 0 -3.2
v 0.8 0 -3.2
v -2.4 2.2 2.7
v -2.3 2.2 2.7
v 0 2.2 2.7
v 0.1 2.2 2.7
v -2.4 2.2 2.6
v -2.3 2.2 2.6
v 0 2.2 2.6
v 0.1 2.2 2.6
v -2.3 2.3 2.7
v -2.2 2.3 2.7
v -0.0999999 2.3 2.7
v 0 2.3 2.7
v -2.3 2.3 2.6
v -2.2 2.3 2.6
v -0.0999999 2.3 2.6
v 0 2.3 2.6
v -2.2 2.4 2.7
v -2.1 2.4 2.7
v -0.2 2.4 2.7
v -0.0999999 2.4 2.7
v -2.2 2.4 2.6
v -2.1 2.4 2.6
v -0.2 2.4 2.6
v -0.0999999 2.4 2.6
v -2.1 2.5 2.7
v -2 2.5 2.7
v -0.3 2.5 2.7
v -0.2 2.5 2.7
v -2.1 2.5 2.6
v -2 2.5 2.6
v -0.3 2.5 2.6
v -0.2 2.5 2.6
v -2 2.6 2.7
v -0.3 2.6 2.7
v -2 2.6 2.6
v -0.3 2.6 2.6
v -3.2 0.1 3.2
v 0.8 0.1 3.2
v -2.9 0.1 2.7
v 0.6 0.1 2.7
v -2.9 0.1 -2.9
v 0.6 0.1 -2.9
v -3.2 0.1 -3.2
v 0.8 0.1 -3.2
v -2.4 0.2 2.7
v 0.1 0.2 2.7
v -2.8 0.2 2.6
v -2.5 0.2 2.6
v -2.4 0.2 2.6
v 0.1 0.2 2.6
v 0.2 0.2 2.6
v 0.5 0.2 2.6
v -2.8 0.2 -2.8
v 0.5 0.2 -2.8
v -2.9 2.8 2.7
v 0.6 2.8 2.7
v -2.8 2.8 2.6
v 0.5 2.8 2.6
v -2.8 2.8 -2.8
v 0.5 2.8 -2.8
v -2.9 2.8 -2.9
v 0.6 2.8 -2.9

# faces
f 3/2/1 2/2/1 1/2/1
f 4/2/1 2/2/1 3/2/1
f 7/1/1 6/1/1 5/1/1
f 8/1/1 6/1/1 7/1/1
f 11/3/1 10/3/1 9/3/1
f 12/3/1 10/3/1 11/3/1
f 15/3/1 14/3/1 13/3/1
f 16/3/1 14/3/1 15/3/1
f 19/3/1 18/3/1 17/3/1
f 20/3/1 18/3/1 19/3/1
f 23/3/1 22/3/1 21/3/1
f 24/3/1 22/3/1 23/3/1
f 27/3/1 26/3/1 25/3/1
f 28/3/1 26/3/1 27/3/1
f 31/1/1 30/1/1 29/1/1
f 32/1/1 30/1/1 31/1/1
f 33/1/2 34/1/2 35/1/2
f 35/1/2 34/1/2 36/1/2
f 37/3/2 38/3/2 39/3/2
f 39/3/2 38/3/2 40/3/2
f 41/3/2 42/3/2 43/3/2
f 43/3/2 42/3/2 44/3/2
f 45/3/2 46/3/2 47/3/2
f 47/3/2 46/3/2 48/3/2
f 49/3/2 50/3/2 51/3/2
f 51/3/2 50/3/2 52/3/2
f 53/3/2 54/3/2 55/3/2
f 55/3/2 54/3/2 56/3/2
f 57/1/2 58/1/2 59/1/2
f 59/1/2 58/1/2 60/1/2
f 61/2/2 62/2/2 63/2/2
f 63/2/2 62/2/2 64/2/2
f 67/2/3 66/2/3 65/2/3
f 68/2/3 66/2/3 67/2/3
f 71/1/3 70/1/3 69/1/3
f 72/1/3 70/1/3 71/1/3
f 73/1/3 71/1/3 69/1/3
f 73/3/3 72/3/3 71/3/3
f 74/1/3 70/1/3 72/1/3
f 74/3/3 72/3/3 73/3/3
f 75/1/3 70/1/3 74/1/3
f 76/3/3 75/3/3 74/3/3
f 77/1/3 70/1/3 75/1/3
f 77/3/3 75/3/3 76/3/3
f 78/1/3 70/1/3 77/1/3
f 79/3/3 78/3/3 77/3/3
f 80/1/3 70/1/3 78/1/3
f 80/3/3 78/3/3 79/3/3
f 81/1/3 70/1/3 80/1/3
f 82/3/3 81/3/3 80/3/3
f 83/1/3 70/1/3 81/1/3
f 83/3/3 81/3/3 82/3/3
f 84/1/3 70/1/3 83/1/3
f 85/3/3 84/3/3 83/3/3
f 86/1/3 70/1/3 84/1/3
f 86/3/3 84/3/3 85/3/3
f 87/1/3 70/1/3 86/1/3
f 89/3/3 87/3/3 86/3/3
f 90/1/3 70/1/3 87/1/3
f 90/3/3 87/3/3 89/3/3
f 92/3/3 89/3/3 88/3/3
f 93/1/3 90/1/3 89/1/3
f 93/3/3 89/3/3 92/3/3
f 95/3/3 92/3/3 91/3/3
f 96/1/3 93/1/3 92/1/3
f 96/3/3 92/3/3 95/3/3
f 98/3/3 95/3/3 94/3/3
f 99/1/3 96/1/3 95/1/3
f 99/3/3 95/3/3 98/3/3
f 100/1/3 73/1/3 69/1/3
f 101/3/3 98/3/3 97/3/3
f 102/1/3 99/1/3 98/1/3
f 102/3/3 98/3/3 101/3/3
f 103/1/3 100/1/3 69/1/3
f 103/3/3 101/3/3 100/3/3
f 104/1/3 102/1/3 101/1/3
f 104/3/3 101/3/3 103/3/3
f 105/1/3 103/1/3 69/1/3
f 105/1/3 104/1/3 103/1/3
f 106/1/3 96/1/3 99/1/3
f 106/1/3 104/1/3 105/1/3
f 106/1/3 70/1/3 90/1/3
f 106/1/3 90/1/3 93/1/3
f 106/1/3 102/1/3 104/1/3
f 106/1/3 93/1/3 96/1/3
f 106/1/3 99/1/3 102/1/3
f 109/1/3 108/1/3 107/1/3
f 110/1/3 108/1/3 109/1/3
f 111/1/4 112/1/4 113/1/4
f 113/1/4 112/1/4 114/1/4
f 113/3/4 114/3/4 115/3/4
f 114/1/4 112/1/4 116/1/4
f 115/3/4 114/3/4 116/3/4
f 116/1/4 112/1/4 117/1/4
f 116/3/4 117/3/4 118/3/4
f 117/1/4 112/1/4 119/1/4
f 118/3/4 117/3/4 119/3/4
f 119/1/4 112/1/4 120/1/4
f 119/3/4 120/3/4 121/3/4
f 120/1/4 112/1/4 122/1/4
f 121/3/4 120/3/4 122/3/4
f 122/1/4 112/1/4 123/1/4
f 122/3/4 123/3/4 124/3/4
f 123/1/4 112/1/4 125/1/4
f 124/3/4 123/3/4 125/3/4
f 125/1/4 112/1/4 126/1/4
f 125/3/4 126/3/4 127/3/4
f 126/1/4 112/1/4 128/1/4
f 127/3/4 126/3/4 128/3/4
f 128/1/4 112/1/4 129/1/4
f 128/3/4 129/3/4 131/3/4
f 129/1/4 112/1/4 132/1/4
f 131/3/4 129/3/4 132/3/4
f 130/3/4 131/3/4 134/3/4
f 131/1/4 132/1/4 135/1/4
f 134/3/4 131/3/4 135/3/4
f 133/3/4 134/3/4 137/3/4
f 134/1/4 135/1/4 138/1/4
f 137/3/4 134/3/4 138/3/4
f 136/3/4 137/3/4 140/3/4
f 137/1/4 138/1/4 141/1/4
f 140/3/4 137/3/4 141/3/4
f 139/3/4 140/3/4 143/3/4
f 140/1/4 141/1/4 144/1/4
f 143/3/4 140/3/4 144/3/4
f 142/3/4 143/3/4 145/3/4
f 143/1/4 144/1/4 146/1/4
f 145/3/4 143/3/4 146/3/4
f 145/1/4 146/1/4 147/1/4
f 132/1/4 112/1/4 148/1/4
f 147/1/4 146/1/4 148/1/4
f 135/1/4 132/1/4 148/1/4
f 146/1/4 144/1/4 148/1/4
f 138/1/4 135/1/4 148/1/4
f 141/1/4 138/1/4 148/1/4
f 144/1/4 141/1/4 148/1/4
f 149/1/4 150/1/4 151/1/4
f 151/1/4 150/1/4 152/1/4
f 153/2/4 154/2/4 155/2/4
f 155/2/4 154/2/4 156/2/4
f 159/2/5 158/2/5 157/2/5
f 160/2/5 158/2/5 159/2/5
f 165/3/5 162/3/5 161/3/5
f 166/3/5 162/3/5 165/3/5
f 167/3/5 164/3/5 163/3/5
f 168/3/5 164/3/5 167/3/5
f 173/3/5 170/3/5 169/3/5
f 174/3/5 170/3/5 173/3/5
f 175/3/5 172/3/5 171/3/5
f 176/3/5 172/3/5 175/3/5
f 181/3/5 178/3/5 177/3/5
f 182/3/5 178/3/5 181/3/5
f 183/3/5 180/3/5 179/3/5
f 184/3/5 180/3/5 183/3/5
f 189/3/5 186/3/5 185/3/5
f 190/3/5 186/3/5 189/3/5
f 191/3/5 188/3/5 187/3/5
f 192/3/5 188/3/5 191/3/5
f 195/3/5 194/3/5 193/3/5
f 196/3/5 194/3/5 195/3/5
f 197/2/6 198/2/6 199/2/6
f 199/2/6 198/2/6 200/2/6
f 197/2/6 199/2/6 201/2/6
f 200/2/6 198/2/6 202/2/6
f 197/2/6 201/2/6 203/2/6
f 201/2/6 202/2/6 203/2/6
f 202/2/6 198/2/6 204/2/6
f 203/2/6 202/2/6 204/2/6
f 205/1/6 206/1/6 209/1/6
f 209/1/6 206/1/6 210/1/6
f 207/1/6 208/1/6 213/1/6
f 211/1/6 212/1/6 213/1/6
f 210/1/6 211/1/6 213/1/6
f 209/1/6 210/1/6 213/1/6
f 208/1/6 209/1/6 213/1/6
f 213/1/6 212/1/6 214/1/6
f 215/1/6 216/1/6 217/1/6
f 217/1/6 216/1/6 218/1/6
f 215/1/6 217/1/6 219/1/6
f 218/1/6 216/1/6 220/1/6
f 215/1/6 219/1/6 221/1/6
f 219/1/6 220/1/6 221/1/6
f 220/1/6 216/1/6 222/1/6
f 221/1/6 220/1/6 222/1/6
