# MagicaVoxel @ Ephtracy

# group
o 

# material
mtllib semaphore.mtl
usemtl palette

# normals
vn -1 0 0
vn 1 0 0
vn 0 0 1
vn 0 0 -1
vn 0 -1 0
vn 0 1 0

# texcoords
vt 0.255859 0.5
vt 0.958984 0.5
vt 0.986328 0.5
vt 0.994141 0.5

# verts
v -0.6 1 0.1
v -0.6 1 0
v -0.6 1 -0.2
v -0.6 1.3 0.3
v -0.6 1.3 0.1
v -0.6 1.3 0
v -0.6 1.3 -0.1
v -0.6 1.4 0.3
v -0.6 1.4 0.1
v -0.6 1.4 -0.1
v -0.6 1.8 0.1
v -0.6 1.8 0
v -0.6 2.1 0.3
v -0.6 2.1 0.1
v -0.6 2.1 0
v -0.6 2.1 -0.2
v -0.6 2.2 0.3
v -0.6 2.2 -0.2
v -0.5 -1.4 0.3
v -0.5 -1.4 -0.2
v -0.5 -1.3 0.3
v -0.5 -1.3 -0.2
v -0.5 0.9 0.1
v -0.5 0.9 0
v -0.5 0.9 -0.2
v -0.5 1 0.2
v -0.5 1 0.1
v -0.5 1 0
v -0.5 1 -0.2
v -0.5 1.3 0.2
v -0.5 1.3 0.1
v -0.5 1.4 0.3
v -0.5 1.4 0.1
v -0.5 1.5 0.3
v -0.5 1.5 0.1
v -0.5 1.8 0.2
v -0.5 1.8 0.1
v -0.5 2.1 0.2
v -0.5 2.1 0.1
v -0.5 2.2 0.3
v -0.5 2.2 -0.2
v -0.5 2.3 0.3
v -0.5 2.3 -0.2
v -0.4 -1.3 0
v -0.4 -1.3 -0.1
v -0.4 0.8 0.1
v -0.4 0.8 0
v -0.4 0.8 -0.1
v -0.4 0.8 -0.2
v -0.4 0.9 0.2
v -0.4 0.9 0.1
v -0.4 0.9 0
v -0.4 0.9 -0.2
v -0.4 1 0.3
v -0.4 1 0.2
v -0.4 1 0.1
v -0.4 1.3 0.3
v -0.4 1.3 0.2
v -0.4 1.3 0.1
v -0.4 1.4 0.2
v -0.4 1.4 0.1
v -0.4 1.5 0.3
v -0.4 1.5 0.1
v -0.4 1.6 0.3
v -0.4 1.6 0.1
v -0.4 1.7 0.2
v -0.4 1.7 0.1
v -0.4 1.8 0.3
v -0.4 1.8 0.2
v -0.4 1.8 0.1
v -0.4 2.1 0.3
v -0.4 2.1 0.2
v -0.4 2.1 0.1
v -0.4 2.2 0.2
v -0.4 2.2 0.1
v -0.4 2.3 0.3
v -0.4 2.3 -0.2
v -0.4 2.4 0.3
v -0.4 2.4 -0.2
v -0.3 -1.3 0.1
v -0.3 -1.3 0
v -0.3 -1.3 -0.1
v -0.3 -1.3 -0.2
v -0.3 0.8 0.1
v -0.3 0.8 0
v -0.3 0.8 -0.1
v -0.3 0.8 -0.2
v -0.1 1.4 0.3
v -0.1 1.4 0.2
v -0.1 1.4 0.1
v -0.1 1.5 0.3
v -0.1 1.5 0.1
v -0.1 2.2 0.3
v -0.1 2.2 0.2
v -0.1 2.2 0.1
v -0.1 2.3 0.3
v -0.1 2.3 0.1
v -5.96046e-08 1.3 0.3
v -5.96046e-08 1.3 0.2
v -5.96046e-08 1.3 0.1
v -5.96046e-08 1.4 0.3
v -5.96046e-08 1.4 0.1
v -5.96046e-08 2.1 0.3
v -5.96046e-08 2.1 0.2
v -5.96046e-08 2.1 0.1
v -5.96046e-08 2.2 0.3
v -5.96046e-08 2.2 0.1
v -0.5 1.3 0.3
v -0.5 1.3 0.2
v -0.5 1.3 0.1
v -0.5 1.4 0.3
v -0.5 1.4 0.1
v -0.5 2.1 0.3
v -0.5 2.1 0.2
v -0.5 2.1 0.1
v -0.5 2.2 0.3
v -0.5 2.2 0.1
v -0.4 1.4 0.3
v -0.4 1.4 0.2
v -0.4 1.4 0.1
v -0.4 1.5 0.3
v -0.4 1.5 0.1
v -0.4 2.2 0.3
v -0.4 2.2 0.2
v -0.4 2.2 0.1
v -0.4 2.3 0.3
v -0.4 2.3 0.1
v -0.2 -1.3 0.1
v -0.2 -1.3 0
v -0.2 -1.3 -0.1
v -0.2 -1.3 -0.2
v -0.2 0.8 0.1
v -0.2 0.8 0
v -0.2 0.8 -0.1
v -0.2 0.8 -0.2
v -0.1 -1.3 0
v -0.1 -1.3 -0.1
v -0.1 0.8 0.1
v -0.1 0.8 0
v -0.1 0.8 -0.1
v -0.1 0.8 -0.2
v -0.1 0.9 0.2
v -0.1 0.9 0.1
v -0.1 0.9 0
v -0.1 0.9 -0.2
v -0.1 1 0.3
v -0.1 1 0.2
v -0.1 1 0.1
v -0.1 1.3 0.3
v -0.1 1.3 0.2
v -0.1 1.3 0.1
v -0.1 1.4 0.2
v -0.1 1.4 0.1
v -0.1 1.5 0.3
v -0.1 1.5 0.1
v -0.1 1.6 0.3
v -0.1 1.6 0.1
v -0.1 1.7 0.2
v -0.1 1.7 0.1
v -0.1 1.8 0.3
v -0.1 1.8 0.2
v -0.1 1.8 0.1
v -0.1 2.1 0.3
v -0.1 2.1 0.2
v -0.1 2.1 0.1
v -0.1 2.2 0.2
v -0.1 2.2 0.1
v -0.1 2.3 0.3
v -0.1 2.3 -0.2
v -0.1 2.4 0.3
v -0.1 2.4 -0.2
v -5.96046e-08 -1.4 0.3
v -5.96046e-08 -1.4 -0.2
v -5.96046e-08 -1.3 0.3
v -5.96046e-08 -1.3 -0.2
v -5.96046e-08 0.9 0.1
v -5.96046e-08 0.9 0
v -5.96046e-08 0.9 -0.2
v -5.96046e-08 1 0.2
v -5.96046e-08 1 0.1
v -5.96046e-08 1 0
v -5.96046e-08 1 -0.2
v -5.96046e-08 1.3 0.2
v -5.96046e-08 1.3 0.1
v -5.96046e-08 1.4 0.3
v -5.96046e-08 1.4 0.1
v -5.96046e-08 1.5 0.3
v -5.96046e-08 1.5 0.1
v -5.96046e-08 1.8 0.2
v -5.96046e-08 1.8 0.1
v -5.96046e-08 2.1 0.2
v -5.96046e-08 2.1 0.1
v -5.96046e-08 2.2 0.3
v -5.96046e-08 2.2 -0.2
v -5.96046e-08 2.3 0.3
v -5.96046e-08 2.3 -0.2
v 0.1 1 0.1
v 0.1 1 0
v 0.1 1 -0.2
v 0.1 1.3 0.3
v 0.1 1.3 0.1
v 0.1 1.3 0
v 0.1 1.3 -0.1
v 0.1 1.4 0.3
v 0.1 1.4 0.1
v 0.1 1.4 -0.1
v 0.1 1.8 0.1
v 0.1 1.8 0
v 0.1 2.1 0.3
v 0.1 2.1 0.1
v 0.1 2.1 0
v 0.1 2.1 -0.2
v 0.1 2.2 0.3
v 0.1 2.2 -0.2
v -0.6 1.3 0.3
v -0.6 1.4 0.3
v -0.6 2.1 0.3
v -0.6 2.2 0.3
v -0.5 -1.4 0.3
v -0.5 -1.3 0.3
v -0.5 1.3 0.3
v -0.5 1.4 0.3
v -0.5 1.5 0.3
v -0.5 2.1 0.3
v -0.5 2.2 0.3
v -0.5 2.3 0.3
v -0.4 1 0.3
v -0.4 1.3 0.3
v -0.4 1.4 0.3
v -0.4 1.5 0.3
v -0.4 1.6 0.3
v -0.4 1.8 0.3
v -0.4 2.1 0.3
v -0.4 2.2 0.3
v -0.4 2.3 0.3
v -0.4 2.4 0.3
v -0.1 1 0.3
v -0.1 1.3 0.3
v -0.1 1.4 0.3
v -0.1 1.5 0.3
v -0.1 1.6 0.3
v -0.1 1.8 0.3
v -0.1 2.1 0.3
v -0.1 2.2 0.3
v -0.1 2.3 0.3
v -0.1 2.4 0.3
v -5.96046e-08 -1.4 0.3
v -5.96046e-08 -1.3 0.3
v -5.96046e-08 1.3 0.3
v -5.96046e-08 1.4 0.3
v -5.96046e-08 1.5 0.3
v -5.96046e-08 2.1 0.3
v -5.96046e-08 2.2 0.3
v -5.96046e-08 2.3 0.3
v 0.1 1.3 0.3
v 0.1 1.4 0.3
v 0.1 2.1 0.3
v 0.1 2.2 0.3
v -0.5 1 0.2
v -0.5 1.3 0.2
v -0.5 1.8 0.2
v -0.5 2.1 0.2
v -0.4 0.9 0.2
v -0.4 1 0.2
v -0.4 1.3 0.2
v -0.4 1.4 0.2
v -0.4 1.7 0.2
v -0.4 1.8 0.2
v -0.4 2.1 0.2
v -0.4 2.2 0.2
v -0.1 0.9 0.2
v -0.1 1 0.2
v -0.1 1.3 0.2
v -0.1 1.4 0.2
v -0.1 1.7 0.2
v -0.1 1.8 0.2
v -0.1 2.1 0.2
v -0.1 2.2 0.2
v -5.96046e-08 1 0.2
v -5.96046e-08 1.3 0.2
v -5.96046e-08 1.8 0.2
v -5.96046e-08 2.1 0.2
v -0.6 1 0.1
v -0.6 1.3 0.1
v -0.6 1.4 0.1
v -0.6 1.8 0.1
v -0.6 2.1 0.1
v -0.5 0.9 0.1
v -0.5 1 0.1
v -0.5 1.3 0.1
v -0.5 1.4 0.1
v -0.5 1.5 0.1
v -0.5 1.7 0.1
v -0.5 1.8 0.1
v -0.5 2.1 0.1
v -0.5 2.2 0.1
v -0.4 0.8 0.1
v -0.4 0.9 0.1
v -0.4 1 0.1
v -0.4 1.3 0.1
v -0.4 1.4 0.1
v -0.4 1.5 0.1
v -0.4 1.6 0.1
v -0.4 1.7 0.1
v -0.4 1.8 0.1
v -0.4 2.1 0.1
v -0.4 2.2 0.1
v -0.4 2.3 0.1
v -0.3 -1.3 0.1
v -0.3 0.8 0.1
v -0.2 -1.3 0.1
v -0.2 0.8 0.1
v -0.1 0.8 0.1
v -0.1 0.9 0.1
v -0.1 1 0.1
v -0.1 1.3 0.1
v -0.1 1.4 0.1
v -0.1 1.5 0.1
v -0.1 1.6 0.1
v -0.1 1.7 0.1
v -0.1 1.8 0.1
v -0.1 2.1 0.1
v -0.1 2.2 0.1
v -0.1 2.3 0.1
v -5.96046e-08 0.9 0.1
v -5.96046e-08 1 0.1
v -5.96046e-08 1.3 0.1
v -5.96046e-08 1.4 0.1
v -5.96046e-08 1.5 0.1
v -5.96046e-08 1.7 0.1
v -5.96046e-08 1.8 0.1
v -5.96046e-08 2.1 0.1
v -5.96046e-08 2.2 0.1
v 0.1 1 0.1
v 0.1 1.3 0.1
v 0.1 1.4 0.1
v 0.1 1.8 0.1
v 0.1 2.1 0.1
v -0.4 -1.3 0
v -0.4 0.8 0
v -0.3 -1.3 0
v -0.3 0.8 0
v -0.2 -1.3 0
v -0.2 0.8 0
v -0.1 -1.3 0
v -0.1 0.8 0
v -0.4 -1.3 -0.1
v -0.4 0.8 -0.1
v -0.3 -1.3 -0.1
v -0.3 0.8 -0.1
v -0.2 -1.3 -0.1
v -0.2 0.8 -0.1
v -0.1 -1.3 -0.1
v -0.1 0.8 -0.1
v -0.6 1 -0.2
v -0.6 2.1 -0.2
v -0.6 2.2 -0.2
v -0.5 -1.4 -0.2
v -0.5 -1.3 -0.2
v -0.5 0.9 -0.2
v -0.5 1 -0.2
v -0.5 2.1 -0.2
v -0.5 2.2 -0.2
v -0.5 2.3 -0.2
v -0.4 0.8 -0.2
v -0.4 0.9 -0.2
v -0.4 2.2 -0.2
v -0.4 2.3 -0.2
v -0.4 2.4 -0.2
v -0.3 -1.3 -0.2
v -0.3 0.8 -0.2
v -0.2 -1.3 -0.2
v -0.2 0.8 -0.2
v -0.1 0.8 -0.2
v -0.1 0.9 -0.2
v -0.1 2.2 -0.2
v -0.1 2.3 -0.2
v -0.1 2.4 -0.2
v -5.96046e-08 -1.4 -0.2
v -5.96046e-08 -1.3 -0.2
v -5.96046e-08 0.9 -0.2
v -5.96046e-08 1 -0.2
v -5.96046e-08 2.1 -0.2
v -5.96046e-08 2.2 -0.2
v -5.96046e-08 2.3 -0.2
v 0.1 1 -0.2
v 0.1 2.1 -0.2
v 0.1 2.2 -0.2
v -0.5 -1.4 0.3
v -5.96046e-08 -1.4 0.3
v -0.5 -1.4 -0.2
v -5.96046e-08 -1.4 -0.2
v -0.4 0.8 0.1
v -0.3 0.8 0.1
v -0.2 0.8 0.1
v -0.1 0.8 0.1
v -0.4 0.8 0
v -0.3 0.8 0
v -0.2 0.8 0
v -0.1 0.8 0
v -0.4 0.8 -0.1
v -0.3 0.8 -0.1
v -0.2 0.8 -0.1
v -0.1 0.8 -0.1
v -0.4 0.8 -0.2
v -0.3 0.8 -0.2
v -0.2 0.8 -0.2
v -0.1 0.8 -0.2
v -0.4 0.9 0.2
v -0.1 0.9 0.2
v -0.5 0.9 0.1
v -0.4 0.9 0.1
v -0.1 0.9 0.1
v -5.96046e-08 0.9 0.1
v -0.5 0.9 0
v -0.4 0.9 0
v -0.1 0.9 0
v -5.96046e-08 0.9 0
v -0.5 0.9 -0.2
v -0.4 0.9 -0.2
v -0.1 0.9 -0.2
v -5.96046e-08 0.9 -0.2
v -0.4 1 0.3
v -0.1 1 0.3
v -0.5 1 0.2
v -0.4 1 0.2
v -0.1 1 0.2
v -5.96046e-08 1 0.2
v -0.6 1 0.1
v -0.5 1 0.1
v -0.4 1 0.1
v -0.1 1 0.1
v -5.96046e-08 1 0.1
v 0.1 1 0.1
v -0.6 1 0
v -0.5 1 0
v -5.96046e-08 1 0
v 0.1 1 0
v -0.6 1 -0.2
v -0.5 1 -0.2
v -5.96046e-08 1 -0.2
v 0.1 1 -0.2
v -0.6 1.3 0.3
v -0.5 1.3 0.3
v -5.96046e-08 1.3 0.3
v 0.1 1.3 0.3
v -0.5 1.3 0.2
v -5.96046e-08 1.3 0.2
v -0.6 1.3 0.1
v -0.5 1.3 0.1
v -5.96046e-08 1.3 0.1
v 0.1 1.3 0.1
v -0.5 1.4 0.3
v -0.4 1.4 0.3
v -0.1 1.4 0.3
v -5.96046e-08 1.4 0.3
v -0.4 1.4 0.2
v -0.1 1.4 0.2
v -0.5 1.4 0.1
v -0.4 1.4 0.1
v -0.1 1.4 0.1
v -5.96046e-08 1.4 0.1
v -0.4 1.5 0.3
v -0.1 1.5 0.3
v -0.4 1.5 0.1
v -0.1 1.5 0.1
v -0.4 1.7 0.2
v -0.1 1.7 0.2
v -0.4 1.7 0.1
v -0.1 1.7 0.1
v -0.4 1.8 0.3
v -0.1 1.8 0.3
v -0.5 1.8 0.2
v -0.4 1.8 0.2
v -0.1 1.8 0.2
v -5.96046e-08 1.8 0.2
v -0.5 1.8 0.1
v -0.4 1.8 0.1
v -0.1 1.8 0.1
v -5.96046e-08 1.8 0.1
v -0.6 2.1 0.3
v -0.5 2.1 0.3
v -5.96046e-08 2.1 0.3
v 0.1 2.1 0.3
v -0.5 2.1 0.2
v -5.96046e-08 2.1 0.2
v -0.6 2.1 0.1
v -0.5 2.1 0.1
v -5.96046e-08 2.1 0.1
v 0.1 2.1 0.1
v -0.5 2.2 0.3
v -0.4 2.2 0.3
v -0.1 2.2 0.3
v -5.96046e-08 2.2 0.3
v -0.4 2.2 0.2
v -0.1 2.2 0.2
v -0.5 2.2 0.1
v -0.4 2.2 0.1
v -0.1 2.2 0.1
v -5.96046e-08 2.2 0.1
v -0.4 2.3 0.3
v -0.1 2.3 0.3
v -0.4 2.3 0.1
v -0.1 2.3 0.1
v -0.5 -1.3 0.3
v -5.96046e-08 -1.3 0.3
v -0.3 -1.3 0.1
v -0.2 -1.3 0.1
v -0.4 -1.3 0
v -0.3 -1.3 0
v -0.2 -1.3 0
v -0.1 -1.3 0
v -0.4 -1.3 -0.1
v -0.3 -1.3 -0.1
v -0.2 -1.3 -0.1
v -0.1 -1.3 -0.1
v -0.5 -1.3 -0.2
v -0.3 -1.3 -0.2
v -0.2 -1.3 -0.2
v -5.96046e-08 -1.3 -0.2
v -0.4 1.3 0.3
v -0.1 1.3 0.3
v -0.5 1.3 0.2
v -0.4 1.3 0.2
v -0.1 1.3 0.2
v -5.96046e-08 1.3 0.2
v -0.5 1.3 0.1
v -0.4 1.3 0.1
v -0.1 1.3 0.1
v -5.96046e-08 1.3 0.1
v -0.6 1.4 0.3
v -0.5 1.4 0.3
v -5.96046e-08 1.4 0.3
v 0.1 1.4 0.3
v -0.4 1.4 0.2
v -0.1 1.4 0.2
v -0.6 1.4 0.1
v -0.5 1.4 0.1
v -0.4 1.4 0.1
v -0.1 1.4 0.1
v -5.96046e-08 1.4 0.1
v 0.1 1.4 0.1
v -0.5 1.5 0.3
v -0.4 1.5 0.3
v -0.1 1.5 0.3
v -5.96046e-08 1.5 0.3
v -0.5 1.5 0.1
v -0.4 1.5 0.1
v -0.1 1.5 0.1
v -5.96046e-08 1.5 0.1
v -0.4 1.6 0.3
v -0.1 1.6 0.3
v -0.4 1.6 0.1
v -0.1 1.6 0.1
v -0.4 2.1 0.3
v -0.1 2.1 0.3
v -0.5 2.1 0.2
v -0.4 2.1 0.2
v -0.1 2.1 0.2
v -5.96046e-08 2.1 0.2
v -0.5 2.1 0.1
v -0.4 2.1 0.1
v -0.1 2.1 0.1
v -5.96046e-08 2.1 0.1
v -0.6 2.2 0.3
v -0.5 2.2 0.3
v -5.96046e-08 2.2 0.3
v 0.1 2.2 0.3
v -0.4 2.2 0.2
v -0.1 2.2 0.2
v -0.4 2.2 0.1
v -0.1 2.2 0.1
v -0.6 2.2 -0.2
v -0.5 2.2 -0.2
v -5.96046e-08 2.2 -0.2
v 0.1 2.2 -0.2
v -0.5 2.3 0.3
v -0.4 2.3 0.3
v -0.1 2.3 0.3
v -5.96046e-08 2.3 0.3
v -0.5 2.3 -0.2
v -0.4 2.3 -0.2
v -0.1 2.3 -0.2
v -5.96046e-08 2.3 -0.2
v -0.4 2.4 0.3
v -0.1 2.4 0.3
v -0.4 2.4 -0.2
v -0.1 2.4 -0.2

# faces
f 5/2/1 2/2/1 1/2/1
f 6/3/1 3/3/1 2/3/1
f 6/2/1 2/2/1 5/2/1
f 7/3/1 3/3/1 6/3/1
f 8/4/1 5/4/1 4/4/1
f 8/4/1 6/4/1 5/4/1
f 8/4/1 7/4/1 6/4/1
f 9/4/1 7/4/1 8/4/1
f 10/3/1 3/3/1 7/3/1
f 10/4/1 7/4/1 9/4/1
f 11/3/1 10/3/1 9/3/1
f 12/3/1 10/3/1 11/3/1
f 14/2/1 12/2/1 11/2/1
f 15/3/1 10/3/1 12/3/1
f 15/2/1 12/2/1 14/2/1
f 16/3/1 3/3/1 10/3/1
f 16/3/1 10/3/1 15/3/1
f 17/4/1 15/4/1 14/4/1
f 17/4/1 14/4/1 13/4/1
f 17/4/1 16/4/1 15/4/1
f 18/4/1 16/4/1 17/4/1
f 21/1/1 20/1/1 19/1/1
f 22/1/1 20/1/1 21/1/1
f 27/2/1 24/2/1 23/2/1
f 28/3/1 25/3/1 24/3/1
f 28/2/1 24/2/1 27/2/1
f 29/3/1 25/3/1 28/3/1
f 30/2/1 27/2/1 26/2/1
f 31/2/1 27/2/1 30/2/1
f 34/4/1 33/4/1 32/4/1
f 35/4/1 33/4/1 34/4/1
f 38/2/1 37/2/1 36/2/1
f 39/2/1 37/2/1 38/2/1
f 42/4/1 41/4/1 40/4/1
f 43/4/1 41/4/1 42/4/1
f 47/1/1 45/1/1 44/1/1
f 48/1/1 45/1/1 47/1/1
f 51/2/1 47/2/1 46/2/1
f 52/3/1 49/3/1 48/3/1
f 52/3/1 48/3/1 47/3/1
f 52/2/1 47/2/1 51/2/1
f 53/3/1 49/3/1 52/3/1
f 55/2/1 51/2/1 50/2/1
f 56/2/1 51/2/1 55/2/1
f 57/2/1 55/2/1 54/2/1
f 58/2/1 55/2/1 57/2/1
f 60/2/1 59/2/1 58/2/1
f 61/2/1 59/2/1 60/2/1
f 64/4/1 63/4/1 62/4/1
f 65/4/1 63/4/1 64/4/1
f 69/2/1 67/2/1 66/2/1
f 70/2/1 67/2/1 69/2/1
f 71/2/1 69/2/1 68/2/1
f 72/2/1 69/2/1 71/2/1
f 74/2/1 73/2/1 72/2/1
f 75/2/1 73/2/1 74/2/1
f 78/4/1 77/4/1 76/4/1
f 79/4/1 77/4/1 78/4/1
f 84/1/1 81/1/1 80/1/1
f 85/1/1 81/1/1 84/1/1
f 86/1/1 83/1/1 82/1/1
f 87/1/1 83/1/1 86/1/1
f 91/4/1 89/4/1 88/4/1
f 91/4/1 90/4/1 89/4/1
f 92/4/1 90/4/1 91/4/1
f 96/4/1 94/4/1 93/4/1
f 96/4/1 95/4/1 94/4/1
f 97/4/1 95/4/1 96/4/1
f 101/4/1 99/4/1 98/4/1
f 101/4/1 100/4/1 99/4/1
f 102/4/1 100/4/1 101/4/1
f 106/4/1 104/4/1 103/4/1
f 106/4/1 105/4/1 104/4/1
f 107/4/1 105/4/1 106/4/1
f 108/4/2 109/4/2 111/4/2
f 109/4/2 110/4/2 111/4/2
f 111/4/2 110/4/2 112/4/2
f 113/4/2 114/4/2 116/4/2
f 114/4/2 115/4/2 116/4/2
f 116/4/2 115/4/2 117/4/2
f 118/4/2 119/4/2 121/4/2
f 119/4/2 120/4/2 121/4/2
f 121/4/2 120/4/2 122/4/2
f 123/4/2 124/4/2 126/4/2
f 124/4/2 125/4/2 126/4/2
f 126/4/2 125/4/2 127/4/2
f 128/1/2 129/1/2 132/1/2
f 132/1/2 129/1/2 133/1/2
f 130/1/2 131/1/2 134/1/2
f 134/1/2 131/1/2 135/1/2
f 136/1/2 137/1/2 139/1/2
f 139/1/2 137/1/2 140/1/2
f 138/2/2 139/2/2 143/2/2
f 140/3/2 141/3/2 144/3/2
f 139/3/2 140/3/2 144/3/2
f 143/2/2 139/2/2 144/2/2
f 144/3/2 141/3/2 145/3/2
f 142/2/2 143/2/2 147/2/2
f 147/2/2 143/2/2 148/2/2
f 146/2/2 147/2/2 149/2/2
f 149/2/2 147/2/2 150/2/2
f 150/2/2 151/2/2 152/2/2
f 152/2/2 151/2/2 153/2/2
f 154/4/2 155/4/2 156/4/2
f 156/4/2 155/4/2 157/4/2
f 158/2/2 159/2/2 161/2/2
f 161/2/2 159/2/2 162/2/2
f 160/2/2 161/2/2 163/2/2
f 163/2/2 161/2/2 164/2/2
f 164/2/2 165/2/2 166/2/2
f 166/2/2 165/2/2 167/2/2
f 168/4/2 169/4/2 170/4/2
f 170/4/2 169/4/2 171/4/2
f 172/1/2 173/1/2 174/1/2
f 174/1/2 173/1/2 175/1/2
f 176/2/2 177/2/2 180/2/2
f 177/3/2 178/3/2 181/3/2
f 180/2/2 177/2/2 181/2/2
f 181/3/2 178/3/2 182/3/2
f 179/2/2 180/2/2 183/2/2
f 183/2/2 180/2/2 184/2/2
f 185/4/2 186/4/2 187/4/2
f 187/4/2 186/4/2 188/4/2
f 189/2/2 190/2/2 191/2/2
f 191/2/2 190/2/2 192/2/2
f 193/4/2 194/4/2 195/4/2
f 195/4/2 194/4/2 196/4/2
f 197/2/2 198/2/2 201/2/2
f 198/3/2 199/3/2 202/3/2
f 201/2/2 198/2/2 202/2/2
f 202/3/2 199/3/2 203/3/2
f 200/4/2 201/4/2 204/4/2
f 201/4/2 202/4/2 204/4/2
f 202/4/2 203/4/2 204/4/2
f 204/4/2 203/4/2 205/4/2
f 203/3/2 199/3/2 206/3/2
f 205/4/2 203/4/2 206/4/2
f 205/3/2 206/3/2 207/3/2
f 207/3/2 206/3/2 208/3/2
f 207/2/2 208/2/2 210/2/2
f 208/3/2 206/3/2 211/3/2
f 210/2/2 208/2/2 211/2/2
f 206/3/2 199/3/2 212/3/2
f 211/3/2 206/3/2 212/3/2
f 210/4/2 211/4/2 213/4/2
f 209/4/2 210/4/2 213/4/2
f 211/4/2 212/4/2 213/4/2
f 213/4/2 212/4/2 214/4/2
f 221/4/3 216/4/3 215/4/3
f 222/4/3 216/4/3 221/4/3
f 224/4/3 218/4/3 217/4/3
f 225/4/3 218/4/3 224/4/3
f 229/4/3 223/4/3 222/4/3
f 230/4/3 223/4/3 229/4/3
f 234/4/3 226/4/3 225/4/3
f 235/4/3 226/4/3 234/4/3
f 237/2/3 228/2/3 227/2/3
f 238/2/3 228/2/3 237/2/3
f 240/4/3 231/4/3 230/4/3
f 241/4/3 231/4/3 240/4/3
f 242/2/3 233/2/3 232/2/3
f 243/2/3 233/2/3 242/2/3
f 245/4/3 236/4/3 235/4/3
f 246/4/3 236/4/3 245/4/3
f 247/1/3 220/1/3 219/1/3
f 248/1/3 220/1/3 247/1/3
f 250/4/3 240/4/3 239/4/3
f 251/4/3 240/4/3 250/4/3
f 253/4/3 245/4/3 244/4/3
f 254/4/3 245/4/3 253/4/3
f 255/4/3 250/4/3 249/4/3
f 256/4/3 250/4/3 255/4/3
f 257/4/3 253/4/3 252/4/3
f 258/4/3 253/4/3 257/4/3
f 264/2/3 260/2/3 259/2/3
f 265/2/3 260/2/3 264/2/3
f 268/2/3 262/2/3 261/2/3
f 269/2/3 262/2/3 268/2/3
f 271/2/3 264/2/3 263/2/3
f 272/2/3 264/2/3 271/2/3
f 273/2/3 266/2/3 265/2/3
f 274/2/3 266/2/3 273/2/3
f 275/2/3 268/2/3 267/2/3
f 276/2/3 268/2/3 275/2/3
f 277/2/3 270/2/3 269/2/3
f 278/2/3 270/2/3 277/2/3
f 279/2/3 273/2/3 272/2/3
f 280/2/3 273/2/3 279/2/3
f 281/2/3 277/2/3 276/2/3
f 282/2/3 277/2/3 281/2/3
f 289/2/3 284/2/3 283/2/3
f 290/2/3 284/2/3 289/2/3
f 291/3/3 286/3/3 285/3/3
f 292/3/3 286/3/3 291/3/3
f 293/3/3 286/3/3 292/3/3
f 294/2/3 287/2/3 286/2/3
f 294/3/3 286/3/3 293/3/3
f 295/2/3 287/2/3 294/2/3
f 298/2/3 289/2/3 288/2/3
f 299/2/3 289/2/3 298/2/3
f 300/2/3 291/2/3 290/2/3
f 301/2/3 291/2/3 300/2/3
f 302/3/3 293/3/3 292/3/3
f 303/3/3 293/3/3 302/3/3
f 304/2/3 294/2/3 293/2/3
f 304/3/3 293/3/3 303/3/3
f 305/2/3 294/2/3 304/2/3
f 306/2/3 296/2/3 295/2/3
f 307/2/3 296/2/3 306/2/3
f 310/2/3 298/2/3 297/2/3
f 311/1/3 310/1/3 309/1/3
f 312/2/3 298/2/3 310/2/3
f 312/1/3 310/1/3 311/1/3
f 313/2/3 298/2/3 312/2/3
f 314/2/3 298/2/3 313/2/3
f 317/2/3 302/2/3 301/2/3
f 318/2/3 302/2/3 317/2/3
f 319/2/3 304/2/3 303/2/3
f 320/2/3 304/2/3 319/2/3
f 323/2/3 308/2/3 307/2/3
f 324/2/3 308/2/3 323/2/3
f 325/2/3 315/2/3 314/2/3
f 326/2/3 315/2/3 325/2/3
f 327/2/3 317/2/3 316/2/3
f 328/2/3 317/2/3 327/2/3
f 329/3/3 319/3/3 318/3/3
f 329/3/3 320/3/3 319/3/3
f 330/2/3 321/2/3 320/2/3
f 330/3/3 320/3/3 329/3/3
f 331/2/3 321/2/3 330/2/3
f 332/2/3 323/2/3 322/2/3
f 333/2/3 323/2/3 332/2/3
f 334/2/3 327/2/3 326/2/3
f 335/2/3 327/2/3 334/2/3
f 336/3/3 329/3/3 328/3/3
f 336/3/3 331/3/3 330/3/3
f 336/3/3 330/3/3 329/3/3
f 337/2/3 332/2/3 331/2/3
f 337/3/3 331/3/3 336/3/3
f 338/2/3 332/2/3 337/2/3
f 341/1/3 340/1/3 339/1/3
f 342/1/3 340/1/3 341/1/3
f 345/1/3 344/1/3 343/1/3
f 346/1/3 344/1/3 345/1/3
f 347/1/4 348/1/4 349/1/4
f 349/1/4 348/1/4 350/1/4
f 351/1/4 352/1/4 353/1/4
f 353/1/4 352/1/4 354/1/4
f 355/3/4 356/3/4 361/3/4
f 356/4/4 357/4/4 362/4/4
f 361/3/4 356/3/4 362/3/4
f 362/4/4 357/4/4 363/4/4
f 360/3/4 361/3/4 366/3/4
f 361/3/4 362/3/4 366/3/4
f 362/3/4 363/3/4 366/3/4
f 363/4/4 364/4/4 367/4/4
f 366/3/4 363/3/4 367/3/4
f 367/4/4 364/4/4 368/4/4
f 358/1/4 359/1/4 370/1/4
f 365/3/4 366/3/4 371/3/4
f 366/3/4 367/3/4 371/3/4
f 367/3/4 368/3/4 371/3/4
f 358/1/4 370/1/4 372/1/4
f 370/1/4 371/1/4 372/1/4
f 371/3/4 368/3/4 373/3/4
f 372/1/4 371/1/4 373/1/4
f 373/3/4 368/3/4 374/3/4
f 374/3/4 368/3/4 375/3/4
f 375/3/4 368/3/4 376/3/4
f 368/4/4 369/4/4 377/4/4
f 376/3/4 368/3/4 377/3/4
f 377/4/4 369/4/4 378/4/4
f 358/1/4 372/1/4 379/1/4
f 379/1/4 372/1/4 380/1/4
f 375/3/4 376/3/4 381/3/4
f 381/3/4 376/3/4 382/3/4
f 382/3/4 376/3/4 383/3/4
f 376/4/4 377/4/4 384/4/4
f 383/3/4 376/3/4 384/3/4
f 384/4/4 377/4/4 385/4/4
f 382/3/4 383/3/4 386/3/4
f 383/4/4 384/4/4 387/4/4
f 386/3/4 383/3/4 387/3/4
f 387/4/4 384/4/4 388/4/4
f 391/1/5 390/1/5 389/1/5
f 392/1/5 390/1/5 391/1/5
f 397/2/5 394/2/5 393/2/5
f 398/2/5 394/2/5 397/2/5
f 399/2/5 396/2/5 395/2/5
f 400/2/5 396/2/5 399/2/5
f 405/3/5 402/3/5 401/3/5
f 406/3/5 402/3/5 405/3/5
f 407/3/5 404/3/5 403/3/5
f 408/3/5 404/3/5 407/3/5
f 412/2/5 410/2/5 409/2/5
f 413/2/5 410/2/5 412/2/5
f 415/2/5 412/2/5 411/2/5
f 416/2/5 412/2/5 415/2/5
f 417/2/5 414/2/5 413/2/5
f 418/2/5 414/2/5 417/2/5
f 419/3/5 416/3/5 415/3/5
f 420/3/5 416/3/5 419/3/5
f 421/3/5 418/3/5 417/3/5
f 422/3/5 418/3/5 421/3/5
f 426/2/5 424/2/5 423/2/5
f 427/2/5 424/2/5 426/2/5
f 430/2/5 426/2/5 425/2/5
f 431/2/5 426/2/5 430/2/5
f 432/2/5 428/2/5 427/2/5
f 433/2/5 428/2/5 432/2/5
f 435/2/5 430/2/5 429/2/5
f 436/2/5 430/2/5 435/2/5
f 437/2/5 434/2/5 433/2/5
f 438/2/5 434/2/5 437/2/5
f 439/3/5 436/3/5 435/3/5
f 440/3/5 436/3/5 439/3/5
f 441/3/5 438/3/5 437/3/5
f 442/3/5 438/3/5 441/3/5
f 447/4/5 444/4/5 443/4/5
f 448/4/5 446/4/5 445/4/5
f 449/4/5 447/4/5 443/4/5
f 450/4/5 447/4/5 449/4/5
f 451/4/5 446/4/5 448/4/5
f 452/4/5 446/4/5 451/4/5
f 457/4/5 454/4/5 453/4/5
f 458/4/5 456/4/5 455/4/5
f 459/4/5 457/4/5 453/4/5
f 460/4/5 457/4/5 459/4/5
f 461/4/5 456/4/5 458/4/5
f 462/4/5 456/4/5 461/4/5
f 465/4/5 464/4/5 463/4/5
f 466/4/5 464/4/5 465/4/5
f 469/2/5 468/2/5 467/2/5
f 470/2/5 468/2/5 469/2/5
f 474/2/5 472/2/5 471/2/5
f 475/2/5 472/2/5 474/2/5
f 477/2/5 474/2/5 473/2/5
f 478/2/5 474/2/5 477/2/5
f 479/2/5 476/2/5 475/2/5
f 480/2/5 476/2/5 479/2/5
f 485/4/5 482/4/5 481/4/5
f 486/4/5 484/4/5 483/4/5
f 487/4/5 485/4/5 481/4/5
f 488/4/5 485/4/5 487/4/5
f 489/4/5 484/4/5 486/4/5
f 490/4/5 484/4/5 489/4/5
f 495/4/5 492/4/5 491/4/5
f 496/4/5 494/4/5 493/4/5
f 497/4/5 495/4/5 491/4/5
f 498/4/5 495/4/5 497/4/5
f 499/4/5 494/4/5 496/4/5
f 500/4/5 494/4/5 499/4/5
f 503/4/5 502/4/5 501/4/5
f 504/4/5 502/4/5 503/4/5
f 505/1/6 506/1/6 507/1/6
f 507/1/6 506/1/6 508/1/6
f 505/1/6 507/1/6 509/1/6
f 509/1/6 507/1/6 510/1/6
f 508/1/6 506/1/6 511/1/6
f 511/1/6 506/1/6 512/1/6
f 505/1/6 509/1/6 513/1/6
f 512/1/6 506/1/6 516/1/6
f 513/1/6 514/1/6 517/1/6
f 505/1/6 513/1/6 517/1/6
f 517/1/6 514/1/6 518/1/6
f 515/1/6 516/1/6 519/1/6
f 516/1/6 506/1/6 520/1/6
f 519/1/6 516/1/6 520/1/6
f 521/2/6 522/2/6 524/2/6
f 524/2/6 522/2/6 525/2/6
f 523/2/6 524/2/6 527/2/6
f 527/2/6 524/2/6 528/2/6
f 525/2/6 526/2/6 529/2/6
f 529/2/6 526/2/6 530/2/6
f 531/4/6 532/4/6 537/4/6
f 537/4/6 532/4/6 538/4/6
f 535/2/6 536/2/6 539/2/6
f 539/2/6 536/2/6 540/2/6
f 533/4/6 534/4/6 541/4/6
f 541/4/6 534/4/6 542/4/6
f 543/4/6 544/4/6 547/4/6
f 547/4/6 544/4/6 548/4/6
f 545/4/6 546/4/6 549/4/6
f 549/4/6 546/4/6 550/4/6
f 551/4/6 552/4/6 553/4/6
f 553/4/6 552/4/6 554/4/6
f 555/2/6 556/2/6 558/2/6
f 558/2/6 556/2/6 559/2/6
f 557/2/6 558/2/6 561/2/6
f 561/2/6 558/2/6 562/2/6
f 559/2/6 560/2/6 563/2/6
f 563/2/6 560/2/6 564/2/6
f 569/2/6 570/2/6 571/2/6
f 571/2/6 570/2/6 572/2/6
f 565/4/6 566/4/6 573/4/6
f 573/4/6 566/4/6 574/4/6
f 567/4/6 568/4/6 575/4/6
f 575/4/6 568/4/6 576/4/6
f 577/4/6 578/4/6 581/4/6
f 581/4/6 578/4/6 582/4/6
f 579/4/6 580/4/6 583/4/6
f 583/4/6 580/4/6 584/4/6
f 585/4/6 586/4/6 587/4/6
f 587/4/6 586/4/6 588/4/6
