# MagicaVoxel @ Ephtracy

# group
o 

# material
mtllib topHouse.mtl
usemtl palette

# normals
vn -1 0 0
vn 1 0 0
vn 0 0 1
vn 0 0 -1
vn 0 -1 0
vn 0 1 0

# texcoords
vt 0.369141 0.5
vt 0.919922 0.5
vt 0.966797 0.5
vt 0.994141 0.5

# verts
v -2.1 0.1 2.7
v -2.1 0.1 -2.9
v -2.1 0.3 2.7
v -2.1 0.3 -2.9
v -1.9 0.3 2.7
v -1.9 0.3 -2.9
v -1.9 0.4 2.7
v -1.9 0.4 -2.9
v -1.8 0 2.7
v -1.8 0 -2.9
v -1.8 0.1 2.7
v -1.8 0.1 -2.9
v -1.7 0.4 2.7
v -1.7 0.4 -2.9
v -1.7 0.5 2.7
v -1.7 0.5 -2.9
v -1.5 0.5 2.7
v -1.5 0.5 -2.9
v -1.5 0.6 2.7
v -1.5 0.6 -2.9
v -1.3 0.6 2.7
v -1.3 0.6 -2.9
v -1.3 0.7 2.7
v -1.3 0.7 -2.9
v -1.1 0.7 2.7
v -1.1 0.7 -2.9
v -1.1 0.8 2.7
v -1.1 0.8 -2.9
v -0.9 0.8 2.7
v -0.9 0.8 -2.9
v -0.9 0.9 2.7
v -0.9 0.9 -2.9
v -0.7 0.9 2.7
v -0.7 0.9 -2.9
v -0.7 1 2.7
v -0.7 1 -2.9
v -0.5 1 2.7
v -0.5 1 -2.9
v -0.5 1.1 2.7
v -0.5 1.1 -2.9
v -0.3 1.1 2.7
v -0.3 1.1 -2.9
v -0.3 1.2 2.7
v -0.3 1.2 -2.9
v -0.0999999 1.2 2.7
v -0.0999999 1.2 -2.9
v -0.0999999 1.3 2.7
v -0.0999999 1.3 -2.9
v 0 1.2 2.7
v 0 1.2 -2.9
v 0 1.3 2.7
v 0 1.3 -2.9
v 0.2 1.1 2.7
v 0.2 1.1 -2.9
v 0.2 1.2 2.7
v 0.2 1.2 -2.9
v 0.4 1 2.7
v 0.4 1 -2.9
v 0.4 1.1 2.7
v 0.4 1.1 -2.9
v 0.6 0.9 2.7
v 0.6 0.9 -2.9
v 0.6 1 2.7
v 0.6 1 -2.9
v 0.8 0.8 2.7
v 0.8 0.8 -2.9
v 0.8 0.9 2.7
v 0.8 0.9 -2.9
v 1 0.7 2.7
v 1 0.7 -2.9
v 1 0.8 2.7
v 1 0.8 -2.9
v 1.2 0.6 2.7
v 1.2 0.6 -2.9
v 1.2 0.7 2.7
v 1.2 0.7 -2.9
v 1.4 0.5 2.7
v 1.4 0.5 -2.9
v 1.4 0.6 2.7
v 1.4 0.6 -2.9
v 1.6 0.4 2.7
v 1.6 0.4 -2.9
v 1.6 0.5 2.7
v 1.6 0.5 -2.9
v 1.7 0 2.7
v 1.7 0 -2.9
v 1.7 0.1 2.7
v 1.7 0.1 -2.9
v 1.8 0.3 2.7
v 1.8 0.3 -2.9
v 1.8 0.4 2.7
v 1.8 0.4 -2.9
v 2 0.1 2.7
v 2 0.1 -2.9
v 2 0.3 2.7
v 2 0.3 -2.9
v -2.1 0.1 2.7
v -2.1 0.3 2.7
v -1.9 0.3 2.7
v -1.9 0.4 2.7
v -1.8 0 2.7
v -1.8 0.1 2.7
v -1.7 0.4 2.7
v -1.7 0.5 2.7
v -1.5 0.5 2.7
v -1.5 0.6 2.7
v -1.3 0.6 2.7
v -1.3 0.7 2.7
v -1.1 0.7 2.7
v -1.1 0.8 2.7
v -0.9 0.8 2.7
v -0.9 0.9 2.7
v -0.7 0.7 2.7
v -0.7 0.8 2.7
v -0.7 0.9 2.7
v -0.7 1 2.7
v -0.6 0.4 2.7
v -0.6 0.5 2.7
v -0.6 0.7 2.7
v -0.6 0.8 2.7
v -0.5 0.4 2.7
v -0.5 0.5 2.7
v -0.5 0.6 2.7
v -0.5 0.7 2.7
v -0.5 1 2.7
v -0.5 1.1 2.7
v -0.4 0.2 2.7
v -0.4 0.3 2.7
v -0.4 0.5 2.7
v -0.4 0.6 2.7
v -0.4 0.7 2.7
v -0.4 0.8 2.7
v -0.3 0.2 2.7
v -0.3 0.3 2.7
v -0.3 0.4 2.7
v -0.3 0.5 2.7
v -0.3 0.6 2.7
v -0.3 0.7 2.7
v -0.3 0.8 2.7
v -0.3 0.9 2.7
v -0.3 1.1 2.7
v -0.3 1.2 2.7
v -0.2 0.3 2.7
v -0.2 0.4 2.7
v -0.2 0.5 2.7
v -0.2 0.8 2.7
v -0.2 0.9 2.7
v -0.2 1 2.7
v -0.0999999 0.2 2.7
v -0.0999999 0.3 2.7
v -0.0999999 0.4 2.7
v -0.0999999 0.6 2.7
v -0.0999999 0.7 2.7
v -0.0999999 0.9 2.7
v -0.0999999 1 2.7
v -0.0999999 1.1 2.7
v -0.0999999 1.2 2.7
v -0.0999999 1.3 2.7
v 0 0.2 2.7
v 0 0.3 2.7
v 0 0.4 2.7
v 0 0.6 2.7
v 0 0.7 2.7
v 0 0.9 2.7
v 0 1 2.7
v 0 1.1 2.7
v 0 1.2 2.7
v 0 1.3 2.7
v 0.0999999 0.3 2.7
v 0.0999999 0.4 2.7
v 0.0999999 0.5 2.7
v 0.0999999 0.8 2.7
v 0.0999999 0.9 2.7
v 0.0999999 1 2.7
v 0.2 0.2 2.7
v 0.2 0.3 2.7
v 0.2 0.4 2.7
v 0.2 0.5 2.7
v 0.2 0.6 2.7
v 0.2 0.7 2.7
v 0.2 0.8 2.7
v 0.2 0.9 2.7
v 0.2 1.1 2.7
v 0.2 1.2 2.7
v 0.3 0.2 2.7
v 0.3 0.3 2.7
v 0.3 0.5 2.7
v 0.3 0.6 2.7
v 0.3 0.7 2.7
v 0.3 0.8 2.7
v 0.4 0.4 2.7
v 0.4 0.5 2.7
v 0.4 0.6 2.7
v 0.4 0.7 2.7
v 0.4 1 2.7
v 0.4 1.1 2.7
v 0.5 0.4 2.7
v 0.5 0.5 2.7
v 0.5 0.7 2.7
v 0.5 0.8 2.7
v 0.6 0.7 2.7
v 0.6 0.8 2.7
v 0.6 0.9 2.7
v 0.6 1 2.7
v 0.8 0.8 2.7
v 0.8 0.9 2.7
v 1 0.7 2.7
v 1 0.8 2.7
v 1.2 0.6 2.7
v 1.2 0.7 2.7
v 1.4 0.5 2.7
v 1.4 0.6 2.7
v 1.6 0.4 2.7
v 1.6 0.5 2.7
v 1.7 0 2.7
v 1.7 0.1 2.7
v 1.8 0.3 2.7
v 1.8 0.4 2.7
v 2 0.1 2.7
v 2 0.3 2.7
v -2.1 0.1 -2.9
v -2.1 0.3 -2.9
v -1.9 0.3 -2.9
v -1.9 0.4 -2.9
v -1.8 0 -2.9
v -1.8 0.1 -2.9
v -1.7 0.4 -2.9
v -1.7 0.5 -2.9
v -1.5 0.5 -2.9
v -1.5 0.6 -2.9
v -1.3 0.6 -2.9
v -1.3 0.7 -2.9
v -1.1 0.7 -2.9
v -1.1 0.8 -2.9
v -0.9 0.8 -2.9
v -0.9 0.9 -2.9
v -0.7 0.9 -2.9
v -0.7 1 -2.9
v -0.5 1 -2.9
v -0.5 1.1 -2.9
v -0.3 1.1 -2.9
v -0.3 1.2 -2.9
v -0.0999999 1.2 -2.9
v -0.0999999 1.3 -2.9
v 0 1.2 -2.9
v 0 1.3 -2.9
v 0.2 1.1 -2.9
v 0.2 1.2 -2.9
v 0.4 1 -2.9
v 0.4 1.1 -2.9
v 0.6 0.9 -2.9
v 0.6 1 -2.9
v 0.8 0.8 -2.9
v 0.8 0.9 -2.9
v 1 0.7 -2.9
v 1 0.8 -2.9
v 1.2 0.6 -2.9
v 1.2 0.7 -2.9
v 1.4 0.5 -2.9
v 1.4 0.6 -2.9
v 1.6 0.4 -2.9
v 1.6 0.5 -2.9
v 1.7 0 -2.9
v 1.7 0.1 -2.9
v 1.8 0.3 -2.9
v 1.8 0.4 -2.9
v 2 0.1 -2.9
v 2 0.3 -2.9
v -1.8 0 2.7
v 1.7 0 2.7
v -1.7 0 2.6
v 1.6 0 2.6
v -1.7 0 -2.8
v 1.6 0 -2.8
v -1.8 0 -2.9
v 1.7 0 -2.9
v -2.1 0.1 2.7
v -1.8 0.1 2.7
v 1.7 0.1 2.7
v 2 0.1 2.7
v -2.1 0.1 -2.9
v -1.8 0.1 -2.9
v 1.7 0.1 -2.9
v 2 0.1 -2.9
v -2.1 0.3 2.7
v -1.9 0.3 2.7
v 1.8 0.3 2.7
v 2 0.3 2.7
v -2.1 0.3 -2.9
v -1.9 0.3 -2.9
v 1.8 0.3 -2.9
v 2 0.3 -2.9
v -1.9 0.4 2.7
v -1.7 0.4 2.7
v 1.6 0.4 2.7
v 1.8 0.4 2.7
v -1.9 0.4 -2.9
v -1.7 0.4 -2.9
v 1.6 0.4 -2.9
v 1.8 0.4 -2.9
v -1.7 0.5 2.7
v -1.5 0.5 2.7
v 1.4 0.5 2.7
v 1.6 0.5 2.7
v -1.7 0.5 -2.9
v -1.5 0.5 -2.9
v 1.4 0.5 -2.9
v 1.6 0.5 -2.9
v -1.5 0.6 2.7
v -1.3 0.6 2.7
v 1.2 0.6 2.7
v 1.4 0.6 2.7
v -1.5 0.6 -2.9
v -1.3 0.6 -2.9
v 1.2 0.6 -2.9
v 1.4 0.6 -2.9
v -1.3 0.7 2.7
v -1.1 0.7 2.7
v 1 0.7 2.7
v 1.2 0.7 2.7
v -1.3 0.7 -2.9
v -1.1 0.7 -2.9
v 1 0.7 -2.9
v 1.2 0.7 -2.9
v -1.1 0.8 2.7
v -0.9 0.8 2.7
v 0.8 0.8 2.7
v 1 0.8 2.7
v -1.1 0.8 -2.9
v -0.9 0.8 -2.9
v 0.8 0.8 -2.9
v 1 0.8 -2.9
v -0.9 0.9 2.7
v -0.7 0.9 2.7
v 0.6 0.9 2.7
v 0.8 0.9 2.7
v -0.9 0.9 -2.9
v -0.7 0.9 -2.9
v 0.6 0.9 -2.9
v 0.8 0.9 -2.9
v -0.7 1 2.7
v -0.5 1 2.7
v 0.4 1 2.7
v 0.6 1 2.7
v -0.7 1 -2.9
v -0.5 1 -2.9
v 0.4 1 -2.9
v 0.6 1 -2.9
v -0.5 1.1 2.7
v -0.3 1.1 2.7
v 0.2 1.1 2.7
v 0.4 1.1 2.7
v -0.5 1.1 -2.9
v -0.3 1.1 -2.9
v 0.2 1.1 -2.9
v 0.4 1.1 -2.9
v -0.3 1.2 2.7
v -0.0999999 1.2 2.7
v 0 1.2 2.7
v 0.2 1.2 2.7
v -0.3 1.2 -2.9
v -0.0999999 1.2 -2.9
v 0 1.2 -2.9
v 0.2 1.2 -2.9
v -0.0999999 1.3 2.7
v 0 1.3 2.7
v -0.0999999 1.3 -2.9
v 0 1.3 -2.9

# faces
f 3/1/1 2/1/1 1/1/1
f 4/1/1 2/1/1 3/1/1
f 7/1/1 6/1/1 5/1/1
f 8/1/1 6/1/1 7/1/1
f 11/3/1 10/3/1 9/3/1
f 12/3/1 10/3/1 11/3/1
f 15/1/1 14/1/1 13/1/1
f 16/1/1 14/1/1 15/1/1
f 19/1/1 18/1/1 17/1/1
f 20/1/1 18/1/1 19/1/1
f 23/1/1 22/1/1 21/1/1
f 24/1/1 22/1/1 23/1/1
f 27/1/1 26/1/1 25/1/1
f 28/1/1 26/1/1 27/1/1
f 31/1/1 30/1/1 29/1/1
f 32/1/1 30/1/1 31/1/1
f 35/1/1 34/1/1 33/1/1
f 36/1/1 34/1/1 35/1/1
f 39/1/1 38/1/1 37/1/1
f 40/1/1 38/1/1 39/1/1
f 43/1/1 42/1/1 41/1/1
f 44/1/1 42/1/1 43/1/1
f 47/1/1 46/1/1 45/1/1
f 48/1/1 46/1/1 47/1/1
f 49/1/2 50/1/2 51/1/2
f 51/1/2 50/1/2 52/1/2
f 53/1/2 54/1/2 55/1/2
f 55/1/2 54/1/2 56/1/2
f 57/1/2 58/1/2 59/1/2
f 59/1/2 58/1/2 60/1/2
f 61/1/2 62/1/2 63/1/2
f 63/1/2 62/1/2 64/1/2
f 65/1/2 66/1/2 67/1/2
f 67/1/2 66/1/2 68/1/2
f 69/1/2 70/1/2 71/1/2
f 71/1/2 70/1/2 72/1/2
f 73/1/2 74/1/2 75/1/2
f 75/1/2 74/1/2 76/1/2
f 77/1/2 78/1/2 79/1/2
f 79/1/2 78/1/2 80/1/2
f 81/1/2 82/1/2 83/1/2
f 83/1/2 82/1/2 84/1/2
f 85/3/2 86/3/2 87/3/2
f 87/3/2 86/3/2 88/3/2
f 89/1/2 90/1/2 91/1/2
f 91/1/2 90/1/2 92/1/2
f 93/1/2 94/1/2 95/1/2
f 95/1/2 94/1/2 96/1/2
f 99/1/3 98/1/3 97/1/3
f 102/1/3 99/1/3 97/1/3
f 102/1/3 100/1/3 99/1/3
f 103/1/3 100/1/3 102/1/3
f 105/1/3 104/1/3 103/1/3
f 107/1/3 106/1/3 105/1/3
f 109/1/3 108/1/3 107/1/3
f 111/1/3 110/1/3 109/1/3
f 113/1/3 109/1/3 107/1/3
f 113/1/3 112/1/3 111/1/3
f 113/1/3 111/1/3 109/1/3
f 114/1/3 112/1/3 113/1/3
f 115/1/3 112/1/3 114/1/3
f 117/1/3 103/1/3 102/1/3
f 117/1/3 105/1/3 103/1/3
f 117/1/3 107/1/3 105/1/3
f 117/1/3 113/1/3 107/1/3
f 118/1/3 113/1/3 117/1/3
f 119/2/3 114/2/3 113/2/3
f 119/1/3 113/1/3 118/1/3
f 120/1/3 116/1/3 115/1/3
f 120/2/3 114/2/3 119/2/3
f 120/1/3 115/1/3 114/1/3
f 121/1/3 117/1/3 102/1/3
f 121/2/3 118/2/3 117/2/3
f 122/1/3 119/1/3 118/1/3
f 122/2/3 118/2/3 121/2/3
f 122/1/3 120/1/3 119/1/3
f 123/1/3 120/1/3 122/1/3
f 124/1/3 120/1/3 123/1/3
f 125/1/3 116/1/3 120/1/3
f 125/1/3 120/1/3 124/1/3
f 127/1/3 121/1/3 102/1/3
f 127/1/3 122/1/3 121/1/3
f 127/1/3 123/1/3 122/1/3
f 128/1/3 123/1/3 127/1/3
f 129/1/3 123/1/3 128/1/3
f 130/4/3 124/4/3 123/4/3
f 130/1/3 123/1/3 129/1/3
f 131/1/3 126/1/3 125/1/3
f 131/4/3 124/4/3 130/4/3
f 131/1/3 125/1/3 124/1/3
f 132/1/3 126/1/3 131/1/3
f 133/2/3 128/2/3 127/2/3
f 133/1/3 127/1/3 102/1/3
f 134/1/3 129/1/3 128/1/3
f 134/2/3 128/2/3 133/2/3
f 135/1/3 129/1/3 134/1/3
f 136/4/3 130/4/3 129/4/3
f 136/1/3 129/1/3 135/1/3
f 136/4/3 132/4/3 131/4/3
f 136/4/3 131/4/3 130/4/3
f 137/4/3 132/4/3 136/4/3
f 138/4/3 132/4/3 137/4/3
f 139/1/3 126/1/3 132/1/3
f 139/4/3 132/4/3 138/4/3
f 140/1/3 126/1/3 139/1/3
f 141/1/3 126/1/3 140/1/3
f 143/1/3 135/1/3 134/1/3
f 143/1/3 134/1/3 133/1/3
f 144/4/3 136/4/3 135/4/3
f 144/1/3 135/1/3 143/1/3
f 145/2/3 137/2/3 136/2/3
f 145/4/3 136/4/3 144/4/3
f 146/2/3 139/2/3 138/2/3
f 146/4/3 140/4/3 139/4/3
f 147/1/3 142/1/3 141/1/3
f 147/4/3 140/4/3 146/4/3
f 147/1/3 141/1/3 140/1/3
f 148/1/3 142/1/3 147/1/3
f 149/1/3 133/1/3 102/1/3
f 149/1/3 143/1/3 133/1/3
f 150/4/3 144/4/3 143/4/3
f 150/1/3 143/1/3 149/1/3
f 151/2/3 145/2/3 144/2/3
f 151/4/3 144/4/3 150/4/3
f 152/4/3 138/4/3 137/4/3
f 152/2/3 145/2/3 151/2/3
f 152/2/3 137/2/3 145/2/3
f 153/2/3 146/2/3 138/2/3
f 153/4/3 138/4/3 152/4/3
f 153/2/3 147/2/3 146/2/3
f 154/4/3 148/4/3 147/4/3
f 154/2/3 147/2/3 153/2/3
f 155/1/3 142/1/3 148/1/3
f 155/4/3 148/4/3 154/4/3
f 156/1/3 142/1/3 155/1/3
f 157/1/3 142/1/3 156/1/3
f 159/4/3 152/4/3 151/4/3
f 159/4/3 154/4/3 153/4/3
f 159/4/3 151/4/3 150/4/3
f 159/4/3 156/4/3 155/4/3
f 159/4/3 155/4/3 154/4/3
f 159/1/3 149/1/3 102/1/3
f 159/4/3 153/4/3 152/4/3
f 159/4/3 150/4/3 149/4/3
f 160/4/3 156/4/3 159/4/3
f 161/4/3 156/4/3 160/4/3
f 162/4/3 156/4/3 161/4/3
f 163/4/3 156/4/3 162/4/3
f 164/4/3 156/4/3 163/4/3
f 165/4/3 156/4/3 164/4/3
f 166/1/3 158/1/3 157/1/3
f 166/4/3 156/4/3 165/4/3
f 166/1/3 157/1/3 156/1/3
f 167/1/3 158/1/3 166/1/3
f 168/1/3 158/1/3 167/1/3
f 169/1/3 160/1/3 159/1/3
f 169/4/3 161/4/3 160/4/3
f 170/2/3 162/2/3 161/2/3
f 170/4/3 161/4/3 169/4/3
f 171/2/3 162/2/3 170/2/3
f 172/2/3 164/2/3 163/2/3
f 173/4/3 165/4/3 164/4/3
f 173/2/3 164/2/3 172/2/3
f 174/1/3 167/1/3 166/1/3
f 174/4/3 165/4/3 173/4/3
f 174/1/3 166/1/3 165/1/3
f 175/1/3 159/1/3 102/1/3
f 175/1/3 169/1/3 159/1/3
f 175/1/3 170/1/3 169/1/3
f 176/1/3 170/1/3 175/1/3
f 177/4/3 171/4/3 170/4/3
f 177/1/3 170/1/3 176/1/3
f 178/2/3 162/2/3 171/2/3
f 178/4/3 171/4/3 177/4/3
f 179/4/3 163/4/3 162/4/3
f 179/2/3 162/2/3 178/2/3
f 180/2/3 172/2/3 163/2/3
f 180/4/3 163/4/3 179/4/3
f 181/4/3 173/4/3 172/4/3
f 181/2/3 172/2/3 180/2/3
f 182/1/3 174/1/3 173/1/3
f 182/4/3 173/4/3 181/4/3
f 183/1/3 167/1/3 174/1/3
f 183/1/3 174/1/3 182/1/3
f 184/1/3 167/1/3 183/1/3
f 185/2/3 176/2/3 175/2/3
f 185/1/3 175/1/3 102/1/3
f 186/1/3 177/1/3 176/1/3
f 186/2/3 176/2/3 185/2/3
f 186/1/3 178/1/3 177/1/3
f 187/4/3 179/4/3 178/4/3
f 187/1/3 178/1/3 186/1/3
f 187/4/3 180/4/3 179/4/3
f 187/4/3 181/4/3 180/4/3
f 188/4/3 181/4/3 187/4/3
f 189/4/3 181/4/3 188/4/3
f 190/1/3 182/1/3 181/1/3
f 190/4/3 181/4/3 189/4/3
f 190/1/3 183/1/3 182/1/3
f 191/1/3 186/1/3 185/1/3
f 191/1/3 188/1/3 187/1/3
f 191/1/3 187/1/3 186/1/3
f 192/1/3 188/1/3 191/1/3
f 193/4/3 189/4/3 188/4/3
f 193/1/3 188/1/3 192/1/3
f 194/1/3 190/1/3 189/1/3
f 194/4/3 189/4/3 193/4/3
f 195/1/3 183/1/3 190/1/3
f 195/1/3 190/1/3 194/1/3
f 196/1/3 183/1/3 195/1/3
f 197/2/3 192/2/3 191/2/3
f 197/1/3 191/1/3 185/1/3
f 198/1/3 194/1/3 193/1/3
f 198/2/3 192/2/3 197/2/3
f 198/1/3 193/1/3 192/1/3
f 198/1/3 195/1/3 194/1/3
f 199/1/3 195/1/3 198/1/3
f 200/1/3 195/1/3 199/1/3
f 201/1/3 198/1/3 197/1/3
f 201/1/3 199/1/3 198/1/3
f 201/2/3 200/2/3 199/2/3
f 202/1/3 195/1/3 200/1/3
f 202/2/3 200/2/3 201/2/3
f 203/1/3 195/1/3 202/1/3
f 204/1/3 195/1/3 203/1/3
f 205/1/3 202/1/3 201/1/3
f 205/1/3 203/1/3 202/1/3
f 206/1/3 203/1/3 205/1/3
f 207/1/3 201/1/3 197/1/3
f 207/1/3 205/1/3 201/1/3
f 208/1/3 205/1/3 207/1/3
f 209/1/3 207/1/3 197/1/3
f 210/1/3 207/1/3 209/1/3
f 211/1/3 209/1/3 197/1/3
f 212/1/3 209/1/3 211/1/3
f 213/1/3 197/1/3 185/1/3
f 213/1/3 211/1/3 197/1/3
f 214/1/3 211/1/3 213/1/3
f 215/3/3 102/3/3 101/3/3
f 216/1/3 185/1/3 102/1/3
f 216/3/3 102/3/3 215/3/3
f 216/1/3 213/1/3 185/1/3
f 217/1/3 213/1/3 216/1/3
f 218/1/3 213/1/3 217/1/3
f 219/1/3 217/1/3 216/1/3
f 220/1/3 217/1/3 219/1/3
f 221/1/4 222/1/4 223/1/4
f 221/1/4 223/1/4 226/1/4
f 223/1/4 224/1/4 226/1/4
f 226/1/4 224/1/4 227/1/4
f 227/1/4 228/1/4 229/1/4
f 229/1/4 230/1/4 231/1/4
f 231/1/4 232/1/4 233/1/4
f 233/1/4 234/1/4 235/1/4
f 235/1/4 236/1/4 237/1/4
f 237/1/4 238/1/4 239/1/4
f 239/1/4 240/1/4 241/1/4
f 241/1/4 242/1/4 243/1/4
f 241/1/4 243/1/4 245/1/4
f 243/1/4 244/1/4 245/1/4
f 245/1/4 244/1/4 246/1/4
f 239/1/4 241/1/4 247/1/4
f 241/1/4 245/1/4 247/1/4
f 247/1/4 245/1/4 248/1/4
f 237/1/4 239/1/4 249/1/4
f 239/1/4 247/1/4 249/1/4
f 249/1/4 247/1/4 250/1/4
f 235/1/4 237/1/4 251/1/4
f 237/1/4 249/1/4 251/1/4
f 251/1/4 249/1/4 252/1/4
f 233/1/4 235/1/4 253/1/4
f 235/1/4 251/1/4 253/1/4
f 253/1/4 251/1/4 254/1/4
f 231/1/4 233/1/4 255/1/4
f 233/1/4 253/1/4 255/1/4
f 255/1/4 253/1/4 256/1/4
f 229/1/4 231/1/4 257/1/4
f 231/1/4 255/1/4 257/1/4
f 257/1/4 255/1/4 258/1/4
f 227/1/4 229/1/4 259/1/4
f 229/1/4 257/1/4 259/1/4
f 259/1/4 257/1/4 260/1/4
f 226/1/4 227/1/4 261/1/4
f 227/1/4 259/1/4 261/1/4
f 261/1/4 259/1/4 262/1/4
f 225/3/4 226/3/4 263/3/4
f 226/1/4 261/1/4 264/1/4
f 263/3/4 226/3/4 264/3/4
f 264/1/4 261/1/4 265/1/4
f 265/1/4 261/1/4 266/1/4
f 264/1/4 265/1/4 267/1/4
f 267/1/4 265/1/4 268/1/4
f 271/3/5 270/3/5 269/3/5
f 272/3/5 270/3/5 271/3/5
f 273/3/5 271/3/5 269/3/5
f 273/1/5 272/1/5 271/1/5
f 274/3/5 270/3/5 272/3/5
f 274/1/5 272/1/5 273/1/5
f 275/3/5 273/3/5 269/3/5
f 275/3/5 274/3/5 273/3/5
f 276/3/5 270/3/5 274/3/5
f 276/3/5 274/3/5 275/3/5
f 281/1/5 278/1/5 277/1/5
f 282/1/5 278/1/5 281/1/5
f 283/1/5 280/1/5 279/1/5
f 284/1/5 280/1/5 283/1/5
f 285/1/6 286/1/6 289/1/6
f 289/1/6 286/1/6 290/1/6
f 287/1/6 288/1/6 291/1/6
f 291/1/6 288/1/6 292/1/6
f 293/1/6 294/1/6 297/1/6
f 297/1/6 294/1/6 298/1/6
f 295/1/6 296/1/6 299/1/6
f 299/1/6 296/1/6 300/1/6
f 301/1/6 302/1/6 305/1/6
f 305/1/6 302/1/6 306/1/6
f 303/1/6 304/1/6 307/1/6
f 307/1/6 304/1/6 308/1/6
f 309/1/6 310/1/6 313/1/6
f 313/1/6 310/1/6 314/1/6
f 311/1/6 312/1/6 315/1/6
f 315/1/6 312/1/6 316/1/6
f 317/1/6 318/1/6 321/1/6
f 321/1/6 318/1/6 322/1/6
f 319/1/6 320/1/6 323/1/6
f 323/1/6 320/1/6 324/1/6
f 325/1/6 326/1/6 329/1/6
f 329/1/6 326/1/6 330/1/6
f 327/1/6 328/1/6 331/1/6
f 331/1/6 328/1/6 332/1/6
f 333/1/6 334/1/6 337/1/6
f 337/1/6 334/1/6 338/1/6
f 335/1/6 336/1/6 339/1/6
f 339/1/6 336/1/6 340/1/6
f 341/1/6 342/1/6 345/1/6
f 345/1/6 342/1/6 346/1/6
f 343/1/6 344/1/6 347/1/6
f 347/1/6 344/1/6 348/1/6
f 349/1/6 350/1/6 353/1/6
f 353/1/6 350/1/6 354/1/6
f 351/1/6 352/1/6 355/1/6
f 355/1/6 352/1/6 356/1/6
f 357/1/6 358/1/6 361/1/6
f 361/1/6 358/1/6 362/1/6
f 359/1/6 360/1/6 363/1/6
f 363/1/6 360/1/6 364/1/6
f 365/1/6 366/1/6 367/1/6
f 367/1/6 366/1/6 368/1/6
