# MagicaVoxel @ Ephtracy

# group
o 

# material
mtllib tree4.mtl
usemtl palette

# normals
vn -1 0 0
vn 1 0 0
vn 0 0 1
vn 0 0 -1
vn 0 -1 0
vn 0 1 0

# texcoords
vt 0.537109 0.5
vt 0.884766 0.5
vt 0.888672 0.5
vt 0.892578 0.5
vt 0.896484 0.5
vt 0.900391 0.5

# verts
v -0.4 0.3 0.4
v -0.4 0.3 0.3
v -0.4 0.3 0.2
v -0.4 0.3 0.1
v -0.4 0.4 0.4
v -0.4 0.4 0.3
v -0.4 0.4 0.2
v -0.4 0.4 0.1
v -0.4 0.5 0.4
v -0.4 0.5 0.3
v -0.4 0.5 0.2
v -0.4 0.5 0.1
v -0.4 0.6 0.4
v -0.4 0.6 0.3
v -0.4 0.6 0.2
v -0.4 0.6 0.1
v -0.4 0.7 0.3
v -0.4 0.7 0.2
v -0.3 0 0.3
v -0.3 0 0.2
v -0.3 0.3 0.3
v -0.3 0.3 0.2
v -0.3 0.4 0.4
v -0.3 0.4 0.3
v -0.3 0.4 0.2
v -0.3 0.4 0.1
v -0.3 0.5 0.4
v -0.3 0.5 0.3
v -0.3 0.5 0.2
v -0.3 0.5 0.1
v -0.3 0.6 0.4
v -0.3 0.6 0.3
v -0.3 0.6 0.2
v -0.3 0.6 0.1
v -0.3 0.7 0.4
v -0.3 0.7 0.3
v -0.3 0.7 0.2
v -0.3 0.7 0.1
v -0.3 0.8 0.3
v -0.3 0.8 0.2
v -0.2 0.3 0.4
v -0.2 0.3 0.3
v -0.2 0.3 0.2
v -0.2 0.3 0.1
v -0.2 0.4 0.4
v -0.2 0.4 0.3
v -0.2 0.4 0.2
v -0.2 0.4 0.1
v -0.2 0.5 0.4
v -0.2 0.5 0.3
v -0.2 0.5 0.2
v -0.2 0.5 0.1
v -0.2 0.6 0.4
v -0.2 0.6 0.3
v -0.2 0.6 0.2
v -0.2 0.6 0.1
v -0.3 0.3 0.4
v -0.3 0.3 0.3
v -0.3 0.3 0.2
v -0.3 0.3 0.1
v -0.3 0.4 0.4
v -0.3 0.4 0.3
v -0.3 0.4 0.2
v -0.3 0.4 0.1
v -0.3 0.5 0.4
v -0.3 0.5 0.3
v -0.3 0.5 0.2
v -0.3 0.5 0.1
v -0.3 0.6 0.4
v -0.3 0.6 0.3
v -0.3 0.6 0.2
v -0.3 0.6 0.1
v -0.2 0 0.3
v -0.2 0 0.2
v -0.2 0.3 0.3
v -0.2 0.3 0.2
v -0.2 0.4 0.4
v -0.2 0.4 0.3
v -0.2 0.4 0.2
v -0.2 0.4 0.1
v -0.2 0.5 0.4
v -0.2 0.5 0.3
v -0.2 0.5 0.2
v -0.2 0.5 0.1
v -0.2 0.6 0.4
v -0.2 0.6 0.3
v -0.2 0.6 0.2
v -0.2 0.6 0.1
v -0.2 0.7 0.4
v -0.2 0.7 0.3
v -0.2 0.7 0.2
v -0.2 0.7 0.1
v -0.2 0.8 0.3
v -0.2 0.8 0.2
v -0.1 0.3 0.4
v -0.1 0.3 0.3
v -0.1 0.3 0.2
v -0.1 0.3 0.1
v -0.1 0.4 0.4
v -0.1 0.4 0.3
v -0.1 0.4 0.2
v -0.1 0.4 0.1
v -0.1 0.5 0.4
v -0.1 0.5 0.3
v -0.1 0.5 0.2
v -0.1 0.5 0.1
v -0.1 0.6 0.4
v -0.1 0.6 0.3
v -0.1 0.6 0.2
v -0.1 0.6 0.1
v -0.1 0.7 0.3
v -0.1 0.7 0.2
v -0.4 0.3 0.4
v -0.4 0.4 0.4
v -0.4 0.5 0.4
v -0.4 0.6 0.4
v -0.3 0.3 0.4
v -0.3 0.4 0.4
v -0.3 0.5 0.4
v -0.3 0.6 0.4
v -0.3 0.7 0.4
v -0.2 0.3 0.4
v -0.2 0.4 0.4
v -0.2 0.5 0.4
v -0.2 0.6 0.4
v -0.2 0.7 0.4
v -0.1 0.3 0.4
v -0.1 0.4 0.4
v -0.1 0.5 0.4
v -0.1 0.6 0.4
v -0.4 0.4 0.3
v -0.4 0.5 0.3
v -0.4 0.6 0.3
v -0.4 0.7 0.3
v -0.3 0 0.3
v -0.3 0.3 0.3
v -0.3 0.4 0.3
v -0.3 0.5 0.3
v -0.3 0.6 0.3
v -0.3 0.7 0.3
v -0.3 0.8 0.3
v -0.2 0 0.3
v -0.2 0.3 0.3
v -0.2 0.4 0.3
v -0.2 0.5 0.3
v -0.2 0.6 0.3
v -0.2 0.7 0.3
v -0.2 0.8 0.3
v -0.1 0.4 0.3
v -0.1 0.5 0.3
v -0.1 0.6 0.3
v -0.1 0.7 0.3
v -0.4 0.3 0.2
v -0.4 0.4 0.2
v -0.4 0.5 0.2
v -0.4 0.6 0.2
v -0.3 0.3 0.2
v -0.3 0.4 0.2
v -0.3 0.5 0.2
v -0.3 0.6 0.2
v -0.2 0.3 0.2
v -0.2 0.4 0.2
v -0.2 0.5 0.2
v -0.2 0.6 0.2
v -0.1 0.3 0.2
v -0.1 0.4 0.2
v -0.1 0.5 0.2
v -0.1 0.6 0.2
v -0.4 0.3 0.3
v -0.4 0.4 0.3
v -0.4 0.5 0.3
v -0.4 0.6 0.3
v -0.3 0.3 0.3
v -0.3 0.4 0.3
v -0.3 0.5 0.3
v -0.3 0.6 0.3
v -0.2 0.3 0.3
v -0.2 0.4 0.3
v -0.2 0.5 0.3
v -0.2 0.6 0.3
v -0.1 0.3 0.3
v -0.1 0.4 0.3
v -0.1 0.5 0.3
v -0.1 0.6 0.3
v -0.4 0.4 0.2
v -0.4 0.5 0.2
v -0.4 0.6 0.2
v -0.4 0.7 0.2
v -0.3 0 0.2
v -0.3 0.3 0.2
v -0.3 0.4 0.2
v -0.3 0.5 0.2
v -0.3 0.6 0.2
v -0.3 0.7 0.2
v -0.3 0.8 0.2
v -0.2 0 0.2
v -0.2 0.3 0.2
v -0.2 0.4 0.2
v -0.2 0.5 0.2
v -0.2 0.6 0.2
v -0.2 0.7 0.2
v -0.2 0.8 0.2
v -0.1 0.4 0.2
v -0.1 0.5 0.2
v -0.1 0.6 0.2
v -0.1 0.7 0.2
v -0.4 0.3 0.1
v -0.4 0.4 0.1
v -0.4 0.5 0.1
v -0.4 0.6 0.1
v -0.3 0.3 0.1
v -0.3 0.4 0.1
v -0.3 0.5 0.1
v -0.3 0.6 0.1
v -0.3 0.7 0.1
v -0.2 0.3 0.1
v -0.2 0.4 0.1
v -0.2 0.5 0.1
v -0.2 0.6 0.1
v -0.2 0.7 0.1
v -0.1 0.3 0.1
v -0.1 0.4 0.1
v -0.1 0.5 0.1
v -0.1 0.6 0.1
v -0.3 0 0.3
v -0.2 0 0.3
v -0.3 0 0.2
v -0.2 0 0.2
v -0.4 0.3 0.4
v -0.3 0.3 0.4
v -0.2 0.3 0.4
v -0.1 0.3 0.4
v -0.4 0.3 0.3
v -0.3 0.3 0.3
v -0.2 0.3 0.3
v -0.1 0.3 0.3
v -0.4 0.3 0.2
v -0.3 0.3 0.2
v -0.2 0.3 0.2
v -0.1 0.3 0.2
v -0.4 0.3 0.1
v -0.3 0.3 0.1
v -0.2 0.3 0.1
v -0.1 0.3 0.1
v -0.3 0.4 0.4
v -0.2 0.4 0.4
v -0.4 0.4 0.3
v -0.3 0.4 0.3
v -0.2 0.4 0.3
v -0.1 0.4 0.3
v -0.4 0.4 0.2
v -0.3 0.4 0.2
v -0.2 0.4 0.2
v -0.1 0.4 0.2
v -0.3 0.4 0.1
v -0.2 0.4 0.1
v -0.4 0.5 0.4
v -0.3 0.5 0.4
v -0.2 0.5 0.4
v -0.1 0.5 0.4
v -0.4 0.5 0.3
v -0.3 0.5 0.3
v -0.2 0.5 0.3
v -0.1 0.5 0.3
v -0.4 0.5 0.2
v -0.3 0.5 0.2
v -0.2 0.5 0.2
v -0.1 0.5 0.2
v -0.4 0.5 0.1
v -0.3 0.5 0.1
v -0.2 0.5 0.1
v -0.1 0.5 0.1
v -0.3 0.6 0.4
v -0.2 0.6 0.4
v -0.4 0.6 0.3
v -0.3 0.6 0.3
v -0.2 0.6 0.3
v -0.1 0.6 0.3
v -0.4 0.6 0.2
v -0.3 0.6 0.2
v -0.2 0.6 0.2
v -0.1 0.6 0.2
v -0.3 0.6 0.1
v -0.2 0.6 0.1
v -0.4 0.4 0.4
v -0.3 0.4 0.4
v -0.2 0.4 0.4
v -0.1 0.4 0.4
v -0.4 0.4 0.3
v -0.3 0.4 0.3
v -0.2 0.4 0.3
v -0.1 0.4 0.3
v -0.4 0.4 0.2
v -0.3 0.4 0.2
v -0.2 0.4 0.2
v -0.1 0.4 0.2
v -0.4 0.4 0.1
v -0.3 0.4 0.1
v -0.2 0.4 0.1
v -0.1 0.4 0.1
v -0.3 0.5 0.4
v -0.2 0.5 0.4
v -0.4 0.5 0.3
v -0.3 0.5 0.3
v -0.2 0.5 0.3
v -0.1 0.5 0.3
v -0.4 0.5 0.2
v -0.3 0.5 0.2
v -0.2 0.5 0.2
v -0.1 0.5 0.2
v -0.3 0.5 0.1
v -0.2 0.5 0.1
v -0.4 0.6 0.4
v -0.3 0.6 0.4
v -0.2 0.6 0.4
v -0.1 0.6 0.4
v -0.4 0.6 0.3
v -0.3 0.6 0.3
v -0.2 0.6 0.3
v -0.1 0.6 0.3
v -0.4 0.6 0.2
v -0.3 0.6 0.2
v -0.2 0.6 0.2
v -0.1 0.6 0.2
v -0.4 0.6 0.1
v -0.3 0.6 0.1
v -0.2 0.6 0.1
v -0.1 0.6 0.1
v -0.3 0.7 0.4
v -0.2 0.7 0.4
v -0.4 0.7 0.3
v -0.3 0.7 0.3
v -0.2 0.7 0.3
v -0.1 0.7 0.3
v -0.4 0.7 0.2
v -0.3 0.7 0.2
v -0.2 0.7 0.2
v -0.1 0.7 0.2
v -0.3 0.7 0.1
v -0.2 0.7 0.1
v -0.3 0.8 0.3
v -0.2 0.8 0.3
v -0.3 0.8 0.2
v -0.2 0.8 0.2

# faces
f 5/2/1 2/2/1 1/2/1
f 6/2/1 2/2/1 5/2/1
f 7/2/1 4/2/1 3/2/1
f 8/2/1 4/2/1 7/2/1
f 10/3/1 7/3/1 6/3/1
f 11/3/1 7/3/1 10/3/1
f 13/4/1 10/4/1 9/4/1
f 14/4/1 10/4/1 13/4/1
f 15/4/1 12/4/1 11/4/1
f 16/4/1 12/4/1 15/4/1
f 17/5/1 15/5/1 14/5/1
f 18/5/1 15/5/1 17/5/1
f 21/1/1 20/1/1 19/1/1
f 22/1/1 20/1/1 21/1/1
f 24/2/1 22/2/1 21/2/1
f 25/2/1 22/2/1 24/2/1
f 27/3/1 24/3/1 23/3/1
f 28/3/1 24/3/1 27/3/1
f 29/3/1 26/3/1 25/3/1
f 30/3/1 26/3/1 29/3/1
f 32/4/1 29/4/1 28/4/1
f 33/4/1 29/4/1 32/4/1
f 35/5/1 32/5/1 31/5/1
f 36/5/1 32/5/1 35/5/1
f 37/5/1 34/5/1 33/5/1
f 38/5/1 34/5/1 37/5/1
f 39/6/1 37/6/1 36/6/1
f 40/6/1 37/6/1 39/6/1
f 45/2/1 42/2/1 41/2/1
f 46/2/1 42/2/1 45/2/1
f 47/2/1 44/2/1 43/2/1
f 48/2/1 44/2/1 47/2/1
f 53/4/1 50/4/1 49/4/1
f 54/4/1 50/4/1 53/4/1
f 55/4/1 52/4/1 51/4/1
f 56/4/1 52/4/1 55/4/1
f 57/2/2 58/2/2 61/2/2
f 61/2/2 58/2/2 62/2/2
f 59/2/2 60/2/2 63/2/2
f 63/2/2 60/2/2 64/2/2
f 65/4/2 66/4/2 69/4/2
f 69/4/2 66/4/2 70/4/2
f 67/4/2 68/4/2 71/4/2
f 71/4/2 68/4/2 72/4/2
f 73/1/2 74/1/2 75/1/2
f 75/1/2 74/1/2 76/1/2
f 75/2/2 76/2/2 78/2/2
f 78/2/2 76/2/2 79/2/2
f 77/3/2 78/3/2 81/3/2
f 81/3/2 78/3/2 82/3/2
f 79/3/2 80/3/2 83/3/2
f 83/3/2 80/3/2 84/3/2
f 82/4/2 83/4/2 86/4/2
f 86/4/2 83/4/2 87/4/2
f 85/5/2 86/5/2 89/5/2
f 89/5/2 86/5/2 90/5/2
f 87/5/2 88/5/2 91/5/2
f 91/5/2 88/5/2 92/5/2
f 90/6/2 91/6/2 93/6/2
f 93/6/2 91/6/2 94/6/2
f 95/2/2 96/2/2 99/2/2
f 99/2/2 96/2/2 100/2/2
f 97/2/2 98/2/2 101/2/2
f 101/2/2 98/2/2 102/2/2
f 100/3/2 101/3/2 104/3/2
f 104/3/2 101/3/2 105/3/2
f 103/4/2 104/4/2 107/4/2
f 107/4/2 104/4/2 108/4/2
f 105/4/2 106/4/2 109/4/2
f 109/4/2 106/4/2 110/4/2
f 108/5/2 109/5/2 111/5/2
f 111/5/2 109/5/2 112/5/2
f 117/2/3 114/2/3 113/2/3
f 118/2/3 114/2/3 117/2/3
f 119/4/3 116/4/3 115/4/3
f 120/4/3 116/4/3 119/4/3
f 123/3/3 119/3/3 118/3/3
f 124/3/3 119/3/3 123/3/3
f 125/5/3 121/5/3 120/5/3
f 126/5/3 121/5/3 125/5/3
f 127/2/3 123/2/3 122/2/3
f 128/2/3 123/2/3 127/2/3
f 129/4/3 125/4/3 124/4/3
f 130/4/3 125/4/3 129/4/3
f 137/3/3 132/3/3 131/3/3
f 138/3/3 132/3/3 137/3/3
f 139/5/3 134/5/3 133/5/3
f 140/5/3 134/5/3 139/5/3
f 142/1/3 136/1/3 135/1/3
f 143/2/3 137/2/3 136/2/3
f 143/1/3 136/1/3 142/1/3
f 144/2/3 137/2/3 143/2/3
f 145/4/3 139/4/3 138/4/3
f 146/4/3 139/4/3 145/4/3
f 147/6/3 141/6/3 140/6/3
f 148/6/3 141/6/3 147/6/3
f 149/3/3 145/3/3 144/3/3
f 150/3/3 145/3/3 149/3/3
f 151/5/3 147/5/3 146/5/3
f 152/5/3 147/5/3 151/5/3
f 157/2/3 154/2/3 153/2/3
f 158/2/3 154/2/3 157/2/3
f 159/4/3 156/4/3 155/4/3
f 160/4/3 156/4/3 159/4/3
f 165/2/3 162/2/3 161/2/3
f 166/2/3 162/2/3 165/2/3
f 167/4/3 164/4/3 163/4/3
f 168/4/3 164/4/3 167/4/3
f 169/2/4 170/2/4 173/2/4
f 173/2/4 170/2/4 174/2/4
f 171/4/4 172/4/4 175/4/4
f 175/4/4 172/4/4 176/4/4
f 177/2/4 178/2/4 181/2/4
f 181/2/4 178/2/4 182/2/4
f 179/4/4 180/4/4 183/4/4
f 183/4/4 180/4/4 184/4/4
f 185/3/4 186/3/4 191/3/4
f 191/3/4 186/3/4 192/3/4
f 187/5/4 188/5/4 193/5/4
f 193/5/4 188/5/4 194/5/4
f 189/1/4 190/1/4 196/1/4
f 190/2/4 191/2/4 197/2/4
f 196/1/4 190/1/4 197/1/4
f 197/2/4 191/2/4 198/2/4
f 192/4/4 193/4/4 199/4/4
f 199/4/4 193/4/4 200/4/4
f 194/6/4 195/6/4 201/6/4
f 201/6/4 195/6/4 202/6/4
f 198/3/4 199/3/4 203/3/4
f 203/3/4 199/3/4 204/3/4
f 200/5/4 201/5/4 205/5/4
f 205/5/4 201/5/4 206/5/4
f 207/2/4 208/2/4 211/2/4
f 211/2/4 208/2/4 212/2/4
f 209/4/4 210/4/4 213/4/4
f 213/4/4 210/4/4 214/4/4
f 212/3/4 213/3/4 217/3/4
f 217/3/4 213/3/4 218/3/4
f 214/5/4 215/5/4 219/5/4
f 219/5/4 215/5/4 220/5/4
f 216/2/4 217/2/4 221/2/4
f 221/2/4 217/2/4 222/2/4
f 218/4/4 219/4/4 223/4/4
f 223/4/4 219/4/4 224/4/4
f 227/1/5 226/1/5 225/1/5
f 228/1/5 226/1/5 227/1/5
f 233/2/5 230/2/5 229/2/5
f 234/2/5 230/2/5 233/2/5
f 235/2/5 232/2/5 231/2/5
f 236/2/5 232/2/5 235/2/5
f 241/2/5 238/2/5 237/2/5
f 242/2/5 238/2/5 241/2/5
f 243/2/5 240/2/5 239/2/5
f 244/2/5 240/2/5 243/2/5
f 248/3/5 246/3/5 245/3/5
f 249/3/5 246/3/5 248/3/5
f 251/3/5 248/3/5 247/3/5
f 252/3/5 248/3/5 251/3/5
f 253/3/5 250/3/5 249/3/5
f 254/3/5 250/3/5 253/3/5
f 255/3/5 253/3/5 252/3/5
f 256/3/5 253/3/5 255/3/5
f 261/4/5 258/4/5 257/4/5
f 262/4/5 258/4/5 261/4/5
f 263/4/5 260/4/5 259/4/5
f 264/4/5 260/4/5 263/4/5
f 269/4/5 266/4/5 265/4/5
f 270/4/5 266/4/5 269/4/5
f 271/4/5 268/4/5 267/4/5
f 272/4/5 268/4/5 271/4/5
f 276/5/5 274/5/5 273/5/5
f 277/5/5 274/5/5 276/5/5
f 279/5/5 276/5/5 275/5/5
f 280/5/5 276/5/5 279/5/5
f 281/5/5 278/5/5 277/5/5
f 282/5/5 278/5/5 281/5/5
f 283/5/5 281/5/5 280/5/5
f 284/5/5 281/5/5 283/5/5
f 285/2/6 286/2/6 289/2/6
f 289/2/6 286/2/6 290/2/6
f 287/2/6 288/2/6 291/2/6
f 291/2/6 288/2/6 292/2/6
f 293/2/6 294/2/6 297/2/6
f 297/2/6 294/2/6 298/2/6
f 295/2/6 296/2/6 299/2/6
f 299/2/6 296/2/6 300/2/6
f 301/3/6 302/3/6 304/3/6
f 304/3/6 302/3/6 305/3/6
f 303/3/6 304/3/6 307/3/6
f 307/3/6 304/3/6 308/3/6
f 305/3/6 306/3/6 309/3/6
f 309/3/6 306/3/6 310/3/6
f 308/3/6 309/3/6 311/3/6
f 311/3/6 309/3/6 312/3/6
f 313/4/6 314/4/6 317/4/6
f 317/4/6 314/4/6 318/4/6
f 315/4/6 316/4/6 319/4/6
f 319/4/6 316/4/6 320/4/6
f 321/4/6 322/4/6 325/4/6
f 325/4/6 322/4/6 326/4/6
f 323/4/6 324/4/6 327/4/6
f 327/4/6 324/4/6 328/4/6
f 329/5/6 330/5/6 332/5/6
f 332/5/6 330/5/6 333/5/6
f 331/5/6 332/5/6 335/5/6
f 335/5/6 332/5/6 336/5/6
f 333/5/6 334/5/6 337/5/6
f 337/5/6 334/5/6 338/5/6
f 336/5/6 337/5/6 339/5/6
f 339/5/6 337/5/6 340/5/6
f 341/6/6 342/6/6 343/6/6
f 343/6/6 342/6/6 344/6/6
