# MagicaVoxel @ Ephtracy

# group
o 

# material
mtllib tree3.mtl
usemtl palette

# normals
vn -1 0 0
vn 1 0 0
vn 0 0 1
vn 0 0 -1
vn 0 -1 0
vn 0 1 0

# texcoords
vt 0.537109 0.5
vt 0.884766 0.5
vt 0.888672 0.5
vt 0.892578 0.5
vt 0.896484 0.5
vt 0.900391 0.5
vt 0.904297 0.5

# verts
v -0.4 0.3 0.3
v -0.4 0.3 0.2
v -0.4 0.4 0.3
v -0.4 0.4 0.2
v -0.4 0.5 0.3
v -0.4 0.5 0.2
v -0.4 0.6 0.3
v -0.4 0.6 0.2
v -0.4 0.7 0.3
v -0.4 0.7 0.2
v -0.4 0.8 0.3
v -0.4 0.8 0.2
v -0.4 0.9 0.3
v -0.4 0.9 0.2
v -0.3 0 0.3
v -0.3 0 0.2
v -0.3 0.3 0.4
v -0.3 0.3 0.3
v -0.3 0.3 0.2
v -0.3 0.3 0.1
v -0.3 0.4 0.4
v -0.3 0.4 0.3
v -0.3 0.4 0.2
v -0.3 0.4 0.1
v -0.3 0.5 0.4
v -0.3 0.5 0.3
v -0.3 0.5 0.2
v -0.3 0.5 0.1
v -0.3 0.6 0.4
v -0.3 0.6 0.3
v -0.3 0.6 0.2
v -0.3 0.6 0.1
v -0.3 0.7 0.4
v -0.3 0.7 0.3
v -0.3 0.7 0.2
v -0.3 0.7 0.1
v -0.3 0.8 0.4
v -0.3 0.8 0.3
v -0.3 0.8 0.2
v -0.3 0.8 0.1
v -0.3 0.9 0.4
v -0.3 0.9 0.3
v -0.3 0.9 0.2
v -0.3 0.9 0.1
v -0.2 0 0.3
v -0.2 0 0.2
v -0.2 0.3 0.4
v -0.2 0.3 0.3
v -0.2 0.3 0.2
v -0.2 0.3 0.1
v -0.2 0.4 0.4
v -0.2 0.4 0.3
v -0.2 0.4 0.2
v -0.2 0.4 0.1
v -0.2 0.5 0.4
v -0.2 0.5 0.3
v -0.2 0.5 0.2
v -0.2 0.5 0.1
v -0.2 0.6 0.4
v -0.2 0.6 0.3
v -0.2 0.6 0.2
v -0.2 0.6 0.1
v -0.2 0.7 0.4
v -0.2 0.7 0.3
v -0.2 0.7 0.2
v -0.2 0.7 0.1
v -0.2 0.8 0.4
v -0.2 0.8 0.3
v -0.2 0.8 0.2
v -0.2 0.8 0.1
v -0.2 0.9 0.4
v -0.2 0.9 0.3
v -0.2 0.9 0.2
v -0.2 0.9 0.1
v -0.1 0.3 0.3
v -0.1 0.3 0.2
v -0.1 0.4 0.3
v -0.1 0.4 0.2
v -0.1 0.5 0.3
v -0.1 0.5 0.2
v -0.1 0.6 0.3
v -0.1 0.6 0.2
v -0.1 0.7 0.3
v -0.1 0.7 0.2
v -0.1 0.8 0.3
v -0.1 0.8 0.2
v -0.1 0.9 0.3
v -0.1 0.9 0.2
v -0.3 0.3 0.4
v -0.3 0.4 0.4
v -0.3 0.5 0.4
v -0.3 0.6 0.4
v -0.3 0.7 0.4
v -0.3 0.8 0.4
v -0.3 0.9 0.4
v -0.2 0.3 0.4
v -0.2 0.4 0.4
v -0.2 0.5 0.4
v -0.2 0.6 0.4
v -0.2 0.7 0.4
v -0.2 0.8 0.4
v -0.2 0.9 0.4
v -0.4 0.3 0.3
v -0.4 0.4 0.3
v -0.4 0.5 0.3
v -0.4 0.6 0.3
v -0.4 0.7 0.3
v -0.4 0.8 0.3
v -0.4 0.9 0.3
v -0.3 0 0.3
v -0.3 0.3 0.3
v -0.3 0.4 0.3
v -0.3 0.5 0.3
v -0.3 0.6 0.3
v -0.3 0.7 0.3
v -0.3 0.8 0.3
v -0.3 0.9 0.3
v -0.2 0 0.3
v -0.2 0.3 0.3
v -0.2 0.4 0.3
v -0.2 0.5 0.3
v -0.2 0.6 0.3
v -0.2 0.7 0.3
v -0.2 0.8 0.3
v -0.2 0.9 0.3
v -0.1 0.3 0.3
v -0.1 0.4 0.3
v -0.1 0.5 0.3
v -0.1 0.6 0.3
v -0.1 0.7 0.3
v -0.1 0.8 0.3
v -0.1 0.9 0.3
v -0.4 0.3 0.2
v -0.4 0.4 0.2
v -0.4 0.5 0.2
v -0.4 0.6 0.2
v -0.4 0.7 0.2
v -0.4 0.8 0.2
v -0.4 0.9 0.2
v -0.3 0 0.2
v -0.3 0.3 0.2
v -0.3 0.4 0.2
v -0.3 0.5 0.2
v -0.3 0.6 0.2
v -0.3 0.7 0.2
v -0.3 0.8 0.2
v -0.3 0.9 0.2
v -0.2 0 0.2
v -0.2 0.3 0.2
v -0.2 0.4 0.2
v -0.2 0.5 0.2
v -0.2 0.6 0.2
v -0.2 0.7 0.2
v -0.2 0.8 0.2
v -0.2 0.9 0.2
v -0.1 0.3 0.2
v -0.1 0.4 0.2
v -0.1 0.5 0.2
v -0.1 0.6 0.2
v -0.1 0.7 0.2
v -0.1 0.8 0.2
v -0.1 0.9 0.2
v -0.3 0.3 0.1
v -0.3 0.4 0.1
v -0.3 0.5 0.1
v -0.3 0.6 0.1
v -0.3 0.7 0.1
v -0.3 0.8 0.1
v -0.3 0.9 0.1
v -0.2 0.3 0.1
v -0.2 0.4 0.1
v -0.2 0.5 0.1
v -0.2 0.6 0.1
v -0.2 0.7 0.1
v -0.2 0.8 0.1
v -0.2 0.9 0.1
v -0.3 0 0.3
v -0.2 0 0.3
v -0.3 0 0.2
v -0.2 0 0.2
v -0.3 0.3 0.4
v -0.2 0.3 0.4
v -0.4 0.3 0.3
v -0.3 0.3 0.3
v -0.2 0.3 0.3
v -0.1 0.3 0.3
v -0.4 0.3 0.2
v -0.3 0.3 0.2
v -0.2 0.3 0.2
v -0.1 0.3 0.2
v -0.3 0.3 0.1
v -0.2 0.3 0.1
v -0.3 0.9 0.4
v -0.2 0.9 0.4
v -0.4 0.9 0.3
v -0.3 0.9 0.3
v -0.2 0.9 0.3
v -0.1 0.9 0.3
v -0.4 0.9 0.2
v -0.3 0.9 0.2
v -0.2 0.9 0.2
v -0.1 0.9 0.2
v -0.3 0.9 0.1
v -0.2 0.9 0.1

# faces
f 3/2/1 2/2/1 1/2/1
f 4/2/1 2/2/1 3/2/1
f 5/3/1 4/3/1 3/3/1
f 6/3/1 4/3/1 5/3/1
f 7/4/1 6/4/1 5/4/1
f 8/4/1 6/4/1 7/4/1
f 9/5/1 8/5/1 7/5/1
f 10/5/1 8/5/1 9/5/1
f 11/6/1 10/6/1 9/6/1
f 12/6/1 10/6/1 11/6/1
f 13/7/1 12/7/1 11/7/1
f 14/7/1 12/7/1 13/7/1
f 18/1/1 16/1/1 15/1/1
f 19/1/1 16/1/1 18/1/1
f 21/2/1 18/2/1 17/2/1
f 22/2/1 18/2/1 21/2/1
f 23/2/1 20/2/1 19/2/1
f 24/2/1 20/2/1 23/2/1
f 25/3/1 22/3/1 21/3/1
f 26/3/1 22/3/1 25/3/1
f 27/3/1 24/3/1 23/3/1
f 28/3/1 24/3/1 27/3/1
f 29/4/1 26/4/1 25/4/1
f 30/4/1 26/4/1 29/4/1
f 31/4/1 28/4/1 27/4/1
f 32/4/1 28/4/1 31/4/1
f 33/5/1 30/5/1 29/5/1
f 34/5/1 30/5/1 33/5/1
f 35/5/1 32/5/1 31/5/1
f 36/5/1 32/5/1 35/5/1
f 37/6/1 34/6/1 33/6/1
f 38/6/1 34/6/1 37/6/1
f 39/6/1 36/6/1 35/6/1
f 40/6/1 36/6/1 39/6/1
f 41/7/1 38/7/1 37/7/1
f 42/7/1 38/7/1 41/7/1
f 43/7/1 40/7/1 39/7/1
f 44/7/1 40/7/1 43/7/1
f 45/1/2 46/1/2 48/1/2
f 48/1/2 46/1/2 49/1/2
f 47/2/2 48/2/2 51/2/2
f 51/2/2 48/2/2 52/2/2
f 49/2/2 50/2/2 53/2/2
f 53/2/2 50/2/2 54/2/2
f 51/3/2 52/3/2 55/3/2
f 55/3/2 52/3/2 56/3/2
f 53/3/2 54/3/2 57/3/2
f 57/3/2 54/3/2 58/3/2
f 55/4/2 56/4/2 59/4/2
f 59/4/2 56/4/2 60/4/2
f 57/4/2 58/4/2 61/4/2
f 61/4/2 58/4/2 62/4/2
f 59/5/2 60/5/2 63/5/2
f 63/5/2 60/5/2 64/5/2
f 61/5/2 62/5/2 65/5/2
f 65/5/2 62/5/2 66/5/2
f 63/6/2 64/6/2 67/6/2
f 67/6/2 64/6/2 68/6/2
f 65/6/2 66/6/2 69/6/2
f 69/6/2 66/6/2 70/6/2
f 67/7/2 68/7/2 71/7/2
f 71/7/2 68/7/2 72/7/2
f 69/7/2 70/7/2 73/7/2
f 73/7/2 70/7/2 74/7/2
f 75/2/2 76/2/2 77/2/2
f 77/2/2 76/2/2 78/2/2
f 77/3/2 78/3/2 79/3/2
f 79/3/2 78/3/2 80/3/2
f 79/4/2 80/4/2 81/4/2
f 81/4/2 80/4/2 82/4/2
f 81/5/2 82/5/2 83/5/2
f 83/5/2 82/5/2 84/5/2
f 83/6/2 84/6/2 85/6/2
f 85/6/2 84/6/2 86/6/2
f 85/7/2 86/7/2 87/7/2
f 87/7/2 86/7/2 88/7/2
f 96/2/3 90/2/3 89/2/3
f 97/3/3 91/3/3 90/3/3
f 97/2/3 90/2/3 96/2/3
f 98/4/3 92/4/3 91/4/3
f 98/3/3 91/3/3 97/3/3
f 99/5/3 93/5/3 92/5/3
f 99/4/3 92/4/3 98/4/3
f 100/6/3 94/6/3 93/6/3
f 100/5/3 93/5/3 99/5/3
f 101/7/3 95/7/3 94/7/3
f 101/6/3 94/6/3 100/6/3
f 102/7/3 95/7/3 101/7/3
f 111/2/3 104/2/3 103/2/3
f 112/3/3 105/3/3 104/3/3
f 112/2/3 104/2/3 111/2/3
f 113/4/3 106/4/3 105/4/3
f 113/3/3 105/3/3 112/3/3
f 114/5/3 107/5/3 106/5/3
f 114/4/3 106/4/3 113/4/3
f 115/6/3 108/6/3 107/6/3
f 115/5/3 107/5/3 114/5/3
f 116/7/3 109/7/3 108/7/3
f 116/6/3 108/6/3 115/6/3
f 117/7/3 109/7/3 116/7/3
f 118/1/3 111/1/3 110/1/3
f 119/1/3 111/1/3 118/1/3
f 126/2/3 120/2/3 119/2/3
f 127/3/3 121/3/3 120/3/3
f 127/2/3 120/2/3 126/2/3
f 128/4/3 122/4/3 121/4/3
f 128/3/3 121/3/3 127/3/3
f 129/5/3 123/5/3 122/5/3
f 129/4/3 122/4/3 128/4/3
f 130/6/3 124/6/3 123/6/3
f 130/5/3 123/5/3 129/5/3
f 131/7/3 125/7/3 124/7/3
f 131/6/3 124/6/3 130/6/3
f 132/7/3 125/7/3 131/7/3
f 133/2/4 134/2/4 141/2/4
f 134/3/4 135/3/4 142/3/4
f 141/2/4 134/2/4 142/2/4
f 135/4/4 136/4/4 143/4/4
f 142/3/4 135/3/4 143/3/4
f 136/5/4 137/5/4 144/5/4
f 143/4/4 136/4/4 144/4/4
f 137/6/4 138/6/4 145/6/4
f 144/5/4 137/5/4 145/5/4
f 138/7/4 139/7/4 146/7/4
f 145/6/4 138/6/4 146/6/4
f 146/7/4 139/7/4 147/7/4
f 140/1/4 141/1/4 148/1/4
f 148/1/4 141/1/4 149/1/4
f 149/2/4 150/2/4 156/2/4
f 150/3/4 151/3/4 157/3/4
f 156/2/4 150/2/4 157/2/4
f 151/4/4 152/4/4 158/4/4
f 157/3/4 151/3/4 158/3/4
f 152/5/4 153/5/4 159/5/4
f 158/4/4 152/4/4 159/4/4
f 153/6/4 154/6/4 160/6/4
f 159/5/4 153/5/4 160/5/4
f 154/7/4 155/7/4 161/7/4
f 160/6/4 154/6/4 161/6/4
f 161/7/4 155/7/4 162/7/4
f 163/2/4 164/2/4 170/2/4
f 164/3/4 165/3/4 171/3/4
f 170/2/4 164/2/4 171/2/4
f 165/4/4 166/4/4 172/4/4
f 171/3/4 165/3/4 172/3/4
f 166/5/4 167/5/4 173/5/4
f 172/4/4 166/4/4 173/4/4
f 167/6/4 168/6/4 174/6/4
f 173/5/4 167/5/4 174/5/4
f 168/7/4 169/7/4 175/7/4
f 174/6/4 168/6/4 175/6/4
f 175/7/4 169/7/4 176/7/4
f 179/1/5 178/1/5 177/1/5
f 180/1/5 178/1/5 179/1/5
f 184/2/5 182/2/5 181/2/5
f 185/2/5 182/2/5 184/2/5
f 187/2/5 184/2/5 183/2/5
f 188/2/5 184/2/5 187/2/5
f 189/2/5 186/2/5 185/2/5
f 190/2/5 186/2/5 189/2/5
f 191/2/5 189/2/5 188/2/5
f 192/2/5 189/2/5 191/2/5
f 193/7/6 194/7/6 196/7/6
f 196/7/6 194/7/6 197/7/6
f 195/7/6 196/7/6 199/7/6
f 197/7/6 198/7/6 199/7/6
f 196/7/6 197/7/6 199/7/6
f 199/7/6 198/7/6 200/7/6
f 200/7/6 198/7/6 201/7/6
f 201/7/6 198/7/6 202/7/6
f 200/7/6 201/7/6 203/7/6
f 203/7/6 201/7/6 204/7/6
