# MagicaVoxel @ Ephtracy

# group
o 

# material
mtllib tree2.mtl
usemtl palette

# normals
vn -1 0 0
vn 1 0 0
vn 0 0 1
vn 0 0 -1
vn 0 -1 0
vn 0 1 0

# texcoords
vt 0.537109 0.5
vt 0.884766 0.5
vt 0.888672 0.5
vt 0.892578 0.5
vt 0.896484 0.5
vt 0.900391 0.5
vt 0.904297 0.5

# verts
v -0.15 -0.15 0.15
v -0.15 -0.15 -0.15
v -0.15 -0.05 0.15
v -0.15 -0.05 -0.15
v -0.15 0.05 0.15
v -0.15 0.05 -0.15
v -0.15 0.15 0.15
v -0.15 0.15 -0.15
v -0.15 0.25 0.15
v -0.15 0.25 -0.15
v -0.15 0.35 0.15
v -0.15 0.35 -0.15
v -0.15 0.45 0.15
v -0.15 0.45 -0.15
v -0.05 -0.45 0.05
v -0.05 -0.45 -0.05
v -0.05 -0.15 0.05
v -0.05 -0.15 -0.05
v 0.05 -0.45 0.05
v 0.05 -0.45 -0.05
v 0.05 -0.15 0.05
v 0.05 -0.15 -0.05
v 0.15 -0.15 0.15
v 0.15 -0.15 -0.15
v 0.15 -0.05 0.15
v 0.15 -0.05 -0.15
v 0.15 0.05 0.15
v 0.15 0.05 -0.15
v 0.15 0.15 0.15
v 0.15 0.15 -0.15
v 0.15 0.25 0.15
v 0.15 0.25 -0.15
v 0.15 0.35 0.15
v 0.15 0.35 -0.15
v 0.15 0.45 0.15
v 0.15 0.45 -0.15
v -0.15 -0.15 0.15
v -0.15 -0.05 0.15
v -0.15 0.05 0.15
v -0.15 0.15 0.15
v -0.15 0.25 0.15
v -0.15 0.35 0.15
v -0.15 0.45 0.15
v 0.15 -0.15 0.15
v 0.15 -0.05 0.15
v 0.15 0.05 0.15
v 0.15 0.15 0.15
v 0.15 0.25 0.15
v 0.15 0.35 0.15
v 0.15 0.45 0.15
v -0.05 -0.45 0.05
v -0.05 -0.15 0.05
v 0.05 -0.45 0.05
v 0.05 -0.15 0.05
v -0.05 -0.45 -0.05
v -0.05 -0.15 -0.05
v 0.05 -0.45 -0.05
v 0.05 -0.15 -0.05
v -0.15 -0.15 -0.15
v -0.15 -0.05 -0.15
v -0.15 0.05 -0.15
v -0.15 0.15 -0.15
v -0.15 0.25 -0.15
v -0.15 0.35 -0.15
v -0.15 0.45 -0.15
v 0.15 -0.15 -0.15
v 0.15 -0.05 -0.15
v 0.15 0.05 -0.15
v 0.15 0.15 -0.15
v 0.15 0.25 -0.15
v 0.15 0.35 -0.15
v 0.15 0.45 -0.15
v -0.05 -0.45 0.05
v 0.05 -0.45 0.05
v -0.05 -0.45 -0.05
v 0.05 -0.45 -0.05
v -0.15 -0.15 0.15
v 0.15 -0.15 0.15
v -0.05 -0.15 0.05
v 0.05 -0.15 0.05
v -0.05 -0.15 -0.05
v 0.05 -0.15 -0.05
v -0.15 -0.15 -0.15
v 0.15 -0.15 -0.15
v -0.15 0.45 0.15
v 0.15 0.45 0.15
v -0.15 0.45 -0.15
v 0.15 0.45 -0.15

# faces
f 3/2/1 2/2/1 1/2/1
f 4/2/1 2/2/1 3/2/1
f 5/3/1 4/3/1 3/3/1
f 6/3/1 4/3/1 5/3/1
f 7/4/1 6/4/1 5/4/1
f 8/4/1 6/4/1 7/4/1
f 9/5/1 8/5/1 7/5/1
f 10/5/1 8/5/1 9/5/1
f 11/6/1 10/6/1 9/6/1
f 12/6/1 10/6/1 11/6/1
f 13/7/1 12/7/1 11/7/1
f 14/7/1 12/7/1 13/7/1
f 17/1/1 16/1/1 15/1/1
f 18/1/1 16/1/1 17/1/1
f 19/1/2 20/1/2 21/1/2
f 21/1/2 20/1/2 22/1/2
f 23/2/2 24/2/2 25/2/2
f 25/2/2 24/2/2 26/2/2
f 25/3/2 26/3/2 27/3/2
f 27/3/2 26/3/2 28/3/2
f 27/4/2 28/4/2 29/4/2
f 29/4/2 28/4/2 30/4/2
f 29/5/2 30/5/2 31/5/2
f 31/5/2 30/5/2 32/5/2
f 31/6/2 32/6/2 33/6/2
f 33/6/2 32/6/2 34/6/2
f 33/7/2 34/7/2 35/7/2
f 35/7/2 34/7/2 36/7/2
f 44/2/3 38/2/3 37/2/3
f 45/3/3 39/3/3 38/3/3
f 45/2/3 38/2/3 44/2/3
f 46/4/3 40/4/3 39/4/3
f 46/3/3 39/3/3 45/3/3
f 47/5/3 41/5/3 40/5/3
f 47/4/3 40/4/3 46/4/3
f 48/6/3 42/6/3 41/6/3
f 48/5/3 41/5/3 47/5/3
f 49/7/3 43/7/3 42/7/3
f 49/6/3 42/6/3 48/6/3
f 50/7/3 43/7/3 49/7/3
f 53/1/3 52/1/3 51/1/3
f 54/1/3 52/1/3 53/1/3
f 55/1/4 56/1/4 57/1/4
f 57/1/4 56/1/4 58/1/4
f 59/2/4 60/2/4 66/2/4
f 60/3/4 61/3/4 67/3/4
f 66/2/4 60/2/4 67/2/4
f 61/4/4 62/4/4 68/4/4
f 67/3/4 61/3/4 68/3/4
f 62/5/4 63/5/4 69/5/4
f 68/4/4 62/4/4 69/4/4
f 63/6/4 64/6/4 70/6/4
f 69/5/4 63/5/4 70/5/4
f 64/7/4 65/7/4 71/7/4
f 70/6/4 64/6/4 71/6/4
f 71/7/4 65/7/4 72/7/4
f 75/1/5 74/1/5 73/1/5
f 76/1/5 74/1/5 75/1/5
f 79/2/5 78/2/5 77/2/5
f 80/2/5 78/2/5 79/2/5
f 81/2/5 79/2/5 77/2/5
f 82/2/5 78/2/5 80/2/5
f 83/2/5 81/2/5 77/2/5
f 83/2/5 82/2/5 81/2/5
f 84/2/5 78/2/5 82/2/5
f 84/2/5 82/2/5 83/2/5
f 85/7/6 86/7/6 87/7/6
f 87/7/6 86/7/6 88/7/6
