# MagicaVoxel @ Ephtracy

# group
o 

# material
mtllib CountDown1.mtl
usemtl palette

# normals
vn -1 0 0
vn 1 0 0
vn 0 0 1
vn 0 0 -1
vn 0 -1 0
vn 0 1 0

# texcoords
vt 0.162109 0.5
vt 0.181641 0.5

# verts
v -0.7 0 -0.1
v -0.7 0 -0.8
v -0.7 0.2 -0.1
v -0.7 0.2 -0.8
v -0.6 0 -0.8
v -0.6 0 -0.9
v -0.6 0.2 -0.2
v -0.6 0.2 -0.8
v -0.6 0.2 -0.9
v -0.6 0.3 -0.2
v -0.6 0.3 -0.8
v -0.4 0 1.1
v -0.4 0 -0.1
v -0.4 0 -0.9
v -0.4 0 -1
v -0.4 0.2 1.1
v -0.4 0.2 -0.1
v -0.4 0.2 -0.8
v -0.4 0.2 -0.9
v -0.4 0.2 -1
v -0.4 0.3 -0.8
v -0.4 0.3 -0.9
v -0.3 0 -1
v -0.3 0 -1.1
v -0.3 0.2 1
v -0.3 0.2 -0.2
v -0.3 0.2 -0.9
v -0.3 0.2 -1
v -0.3 0.2 -1.1
v -0.3 0.3 1
v -0.3 0.3 -0.2
v -0.3 0.3 -0.9
v -0.3 0.3 -1
v 0.4 0.2 1
v 0.4 0.2 -1
v 0.4 0.3 1
v 0.4 0.3 -1
v 0.5 0 1.1
v 0.5 0 -1.1
v 0.5 0.2 1.1
v 0.5 0.2 -1.1
v -0.4 0 1.1
v -0.4 0.2 1.1
v 0.5 0 1.1
v 0.5 0.2 1.1
v -0.3 0.2 1
v -0.3 0.3 1
v 0.4 0.2 1
v 0.4 0.3 1
v -0.7 0 -0.1
v -0.7 0.2 -0.1
v -0.4 0 -0.1
v -0.4 0.2 -0.1
v -0.6 0.2 -0.2
v -0.6 0.3 -0.2
v -0.3 0.2 -0.2
v -0.3 0.3 -0.2
v -0.7 0 -0.8
v -0.7 0.2 -0.8
v -0.6 0 -0.8
v -0.6 0.2 -0.8
v -0.6 0.3 -0.8
v -0.4 0.2 -0.8
v -0.4 0.3 -0.8
v -0.6 0 -0.9
v -0.6 0.2 -0.9
v -0.4 0 -0.9
v -0.4 0.2 -0.9
v -0.4 0.3 -0.9
v -0.3 0.2 -0.9
v -0.3 0.3 -0.9
v -0.4 0 -1
v -0.4 0.2 -1
v -0.3 0 -1
v -0.3 0.2 -1
v -0.3 0.3 -1
v 0.4 0.2 -1
v 0.4 0.3 -1
v -0.3 0 -1.1
v -0.3 0.2 -1.1
v 0.5 0 -1.1
v 0.5 0.2 -1.1
v -0.4 0 1.1
v 0.5 0 1.1
v -0.3 0 1
v 0.4 0 1
v -0.7 0 -0.1
v -0.4 0 -0.1
v -0.6 0 -0.2
v -0.3 0 -0.2
v -0.7 0 -0.8
v -0.6 0 -0.8
v -0.4 0 -0.8
v -0.6 0 -0.9
v -0.4 0 -0.9
v -0.3 0 -0.9
v -0.4 0 -1
v -0.3 0 -1
v 0.4 0 -1
v -0.3 0 -1.1
v 0.5 0 -1.1
v -0.4 0.2 1.1
v 0.5 0.2 1.1
v -0.3 0.2 1
v 0.4 0.2 1
v -0.7 0.2 -0.1
v -0.4 0.2 -0.1
v -0.6 0.2 -0.2
v -0.3 0.2 -0.2
v -0.7 0.2 -0.8
v -0.6 0.2 -0.8
v -0.4 0.2 -0.8
v -0.6 0.2 -0.9
v -0.4 0.2 -0.9
v -0.3 0.2 -0.9
v -0.4 0.2 -1
v -0.3 0.2 -1
v 0.4 0.2 -1
v -0.3 0.2 -1.1
v 0.5 0.2 -1.1
v -0.3 0.3 1
v 0.4 0.3 1
v -0.6 0.3 -0.2
v -0.3 0.3 -0.2
v -0.6 0.3 -0.8
v -0.4 0.3 -0.8
v -0.4 0.3 -0.9
v -0.3 0.3 -0.9
v -0.3 0.3 -1
v 0.4 0.3 -1

# faces
f 3/2/1 2/2/1 1/2/1
f 4/2/1 2/2/1 3/2/1
f 8/2/1 6/2/1 5/2/1
f 9/2/1 6/2/1 8/2/1
f 10/1/1 8/1/1 7/1/1
f 11/1/1 8/1/1 10/1/1
f 16/2/1 13/2/1 12/2/1
f 17/2/1 13/2/1 16/2/1
f 19/2/1 15/2/1 14/2/1
f 20/2/1 15/2/1 19/2/1
f 21/1/1 19/1/1 18/1/1
f 22/1/1 19/1/1 21/1/1
f 28/2/1 24/2/1 23/2/1
f 29/2/1 24/2/1 28/2/1
f 30/1/1 26/1/1 25/1/1
f 31/1/1 26/1/1 30/1/1
f 32/1/1 28/1/1 27/1/1
f 33/1/1 28/1/1 32/1/1
f 34/1/2 35/1/2 36/1/2
f 36/1/2 35/1/2 37/1/2
f 38/2/2 39/2/2 40/2/2
f 40/2/2 39/2/2 41/2/2
f 44/2/3 43/2/3 42/2/3
f 45/2/3 43/2/3 44/2/3
f 48/1/3 47/1/3 46/1/3
f 49/1/3 47/1/3 48/1/3
f 52/2/3 51/2/3 50/2/3
f 53/2/3 51/2/3 52/2/3
f 56/1/3 55/1/3 54/1/3
f 57/1/3 55/1/3 56/1/3
f 58/2/4 59/2/4 60/2/4
f 60/2/4 59/2/4 61/2/4
f 61/1/4 62/1/4 63/1/4
f 63/1/4 62/1/4 64/1/4
f 65/2/4 66/2/4 67/2/4
f 67/2/4 66/2/4 68/2/4
f 68/1/4 69/1/4 70/1/4
f 70/1/4 69/1/4 71/1/4
f 72/2/4 73/2/4 74/2/4
f 74/2/4 73/2/4 75/2/4
f 75/1/4 76/1/4 77/1/4
f 77/1/4 76/1/4 78/1/4
f 79/2/4 80/2/4 81/2/4
f 81/2/4 80/2/4 82/2/4
f 85/2/5 84/2/5 83/2/5
f 86/2/5 84/2/5 85/2/5
f 88/2/5 85/2/5 83/2/5
f 89/2/5 88/2/5 87/2/5
f 90/1/5 86/1/5 85/1/5
f 90/2/5 88/2/5 89/2/5
f 90/2/5 85/2/5 88/2/5
f 91/2/5 89/2/5 87/2/5
f 92/1/5 90/1/5 89/1/5
f 92/2/5 89/2/5 91/2/5
f 93/1/5 90/1/5 92/1/5
f 94/2/5 93/2/5 92/2/5
f 95/1/5 90/1/5 93/1/5
f 95/2/5 93/2/5 94/2/5
f 96/1/5 86/1/5 90/1/5
f 96/1/5 90/1/5 95/1/5
f 97/2/5 96/2/5 95/2/5
f 98/1/5 86/1/5 96/1/5
f 98/2/5 96/2/5 97/2/5
f 99/2/5 84/2/5 86/2/5
f 99/1/5 86/1/5 98/1/5
f 100/2/5 99/2/5 98/2/5
f 101/2/5 84/2/5 99/2/5
f 101/2/5 99/2/5 100/2/5
f 102/2/6 103/2/6 104/2/6
f 104/2/6 103/2/6 105/2/6
f 102/2/6 104/2/6 107/2/6
f 106/2/6 107/2/6 108/2/6
f 107/2/6 104/2/6 109/2/6
f 108/2/6 107/2/6 109/2/6
f 106/2/6 108/2/6 110/2/6
f 110/2/6 108/2/6 111/2/6
f 111/2/6 112/2/6 113/2/6
f 113/2/6 112/2/6 114/2/6
f 114/2/6 115/2/6 116/2/6
f 116/2/6 115/2/6 117/2/6
f 105/2/6 103/2/6 118/2/6
f 117/2/6 118/2/6 119/2/6
f 118/2/6 103/2/6 120/2/6
f 119/2/6 118/2/6 120/2/6
f 121/1/6 122/1/6 124/1/6
f 123/1/6 124/1/6 125/1/6
f 125/1/6 124/1/6 126/1/6
f 126/1/6 124/1/6 127/1/6
f 124/1/6 122/1/6 128/1/6
f 127/1/6 124/1/6 128/1/6
f 128/1/6 122/1/6 129/1/6
f 129/1/6 122/1/6 130/1/6
