# MagicaVoxel @ Ephtracy

# group
o 

# material
mtllib gasIndicator2.mtl
usemtl palette

# normals
vn -1 0 0
vn 1 0 0
vn 0 0 1
vn 0 0 -1
vn 0 -1 0
vn 0 1 0

# texcoords
vt 0.373047 0.5
vt 0.994141 0.5

# verts
v -6.4 0 0.5
v -6.4 0 -0.1
v -6.4 0.1 0.5
v -6.4 0.1 -0.1
v -6.3 0 0.6
v -6.3 0 0.5
v -6.3 0.1 0.6
v -6.3 0.1 0.5
v -6.3 0.1 0.4
v -6.3 0.1 -0.1
v -6.3 0.2 0.4
v -6.3 0.2 -0.1
v -6.2 0.1 0.5
v -6.2 0.1 0.4
v -6.2 0.2 0.5
v -6.2 0.2 0.4
v -6.1 0 0.7
v -6.1 0 0.6
v -6.1 0.1 0.7
v -6.1 0.1 0.6
v -5.9 0.1 0.6
v -5.9 0.1 0.5
v -5.9 0.2 0.6
v -5.9 0.2 0.5
v -5.8 0 0.8
v -5.8 0 0.7
v -5.8 0.1 0.8
v -5.8 0.1 0.7
v -5.6 0.1 0.7
v -5.6 0.1 0.6
v -5.6 0.2 0.7
v -5.6 0.2 0.6
v -5.5 0 0.9
v -5.5 0 0.8
v -5.5 0.1 0.9
v -5.5 0.1 0.8
v -5.4 0.1 0.8
v -5.4 0.1 0.7
v -5.4 0.2 0.8
v -5.4 0.2 0.7
v -5.3 0 1
v -5.3 0 0.9
v -5.3 0.1 1
v -5.3 0.1 0.9
v -5 0.1 0.9
v -5 0.1 0.8
v -5 0.2 0.9
v -5 0.2 0.8
v -4.9 0 1.1
v -4.9 0 1
v -4.9 0.1 1.1
v -4.9 0.1 1
v -4.7 0.1 1
v -4.7 0.1 0.9
v -4.7 0.2 1
v -4.7 0.2 0.9
v -4.6 0 1.2
v -4.6 0 1.1
v -4.6 0.1 1.2
v -4.6 0.1 1.1
v -4.4 0.1 1.1
v -4.4 0.1 1
v -4.4 0.2 1.1
v -4.4 0.2 1
v 4.4 0 1
v 4.4 0 0.9
v 4.4 0.1 1
v 4.4 0.1 0.9
v 4.4 0.2 1
v 4.4 0.2 0.9
v 4.7 0 0.9
v 4.7 0 0.8
v 4.7 0.1 0.9
v 4.7 0.1 0.8
v 4.7 0.2 0.9
v 4.7 0.2 0.8
v 5 0 0.8
v 5 0 0.7
v 5 0.1 0.8
v 5 0.1 0.7
v 5 0.2 0.8
v 5 0.2 0.7
v 5.4 0 0.7
v 5.4 0 0.6
v 5.4 0.1 0.7
v 5.4 0.1 0.6
v 5.4 0.2 0.7
v 5.4 0.2 0.6
v 5.6 0 0.6
v 5.6 0 0.5
v 5.6 0.1 0.6
v 5.6 0.1 0.5
v 5.6 0.2 0.6
v 5.6 0.2 0.5
v 5.9 0 0.5
v 5.9 0 0.4
v 5.9 0.1 0.5
v 5.9 0.1 0.4
v 5.9 0.2 0.5
v 5.9 0.2 0.4
v 6.2 0 0.4
v 6.2 0 -0.1
v 6.2 0.1 0.4
v 6.2 0.1 -0.1
v 6.2 0.2 0.4
v 6.2 0.2 -0.1
v -6.2 0 0.4
v -6.2 0 -0.1
v -6.2 0.1 0.4
v -6.2 0.1 -0.1
v -6.2 0.2 0.4
v -6.2 0.2 -0.1
v -5.9 0 0.5
v -5.9 0 0.4
v -5.9 0.1 0.5
v -5.9 0.1 0.4
v -5.9 0.2 0.5
v -5.9 0.2 0.4
v -5.6 0 0.6
v -5.6 0 0.5
v -5.6 0.1 0.6
v -5.6 0.1 0.5
v -5.6 0.2 0.6
v -5.6 0.2 0.5
v -5.4 0 0.7
v -5.4 0 0.6
v -5.4 0.1 0.7
v -5.4 0.1 0.6
v -5.4 0.2 0.7
v -5.4 0.2 0.6
v -5 0 0.8
v -5 0 0.7
v -5 0.1 0.8
v -5 0.1 0.7
v -5 0.2 0.8
v -5 0.2 0.7
v -4.7 0 0.9
v -4.7 0 0.8
v -4.7 0.1 0.9
v -4.7 0.1 0.8
v -4.7 0.2 0.9
v -4.7 0.2 0.8
v -4.4 0 1
v -4.4 0 0.9
v -4.4 0.1 1
v -4.4 0.1 0.9
v -4.4 0.2 1
v -4.4 0.2 0.9
v 4.4 0.1 1.1
v 4.4 0.1 1
v 4.4 0.2 1.1
v 4.4 0.2 1
v 4.6 0 1.2
v 4.6 0 1.1
v 4.6 0.1 1.2
v 4.6 0.1 1.1
v 4.7 0.1 1
v 4.7 0.1 0.9
v 4.7 0.2 1
v 4.7 0.2 0.9
v 4.9 0 1.1
v 4.9 0 1
v 4.9 0.1 1.1
v 4.9 0.1 1
v 5 0.1 0.9
v 5 0.1 0.8
v 5 0.2 0.9
v 5 0.2 0.8
v 5.3 0 1
v 5.3 0 0.9
v 5.3 0.1 1
v 5.3 0.1 0.9
v 5.4 0.1 0.8
v 5.4 0.1 0.7
v 5.4 0.2 0.8
v 5.4 0.2 0.7
v 5.5 0 0.9
v 5.5 0 0.8
v 5.5 0.1 0.9
v 5.5 0.1 0.8
v 5.6 0.1 0.7
v 5.6 0.1 0.6
v 5.6 0.2 0.7
v 5.6 0.2 0.6
v 5.8 0 0.8
v 5.8 0 0.7
v 5.8 0.1 0.8
v 5.8 0.1 0.7
v 5.9 0.1 0.6
v 5.9 0.1 0.5
v 5.9 0.2 0.6
v 5.9 0.2 0.5
v 6.1 0 0.7
v 6.1 0 0.6
v 6.1 0.1 0.7
v 6.1 0.1 0.6
v 6.2 0.1 0.5
v 6.2 0.1 0.4
v 6.2 0.2 0.5
v 6.2 0.2 0.4
v 6.3 0 0.6
v 6.3 0 0.5
v 6.3 0.1 0.6
v 6.3 0.1 0.5
v 6.3 0.1 0.4
v 6.3 0.1 -0.1
v 6.3 0.2 0.4
v 6.3 0.2 -0.1
v 6.4 0 0.5
v 6.4 0 -0.1
v 6.4 0.1 0.5
v 6.4 0.1 -0.1
v -4.6 0 1.2
v -4.6 0.1 1.2
v 4.6 0 1.2
v 4.6 0.1 1.2
v -4.9 0 1.1
v -4.9 0.1 1.1
v -4.6 0 1.1
v -4.6 0.1 1.1
v -4.4 0.1 1.1
v -4.4 0.2 1.1
v 4.4 0.1 1.1
v 4.4 0.2 1.1
v 4.6 0 1.1
v 4.6 0.1 1.1
v 4.9 0 1.1
v 4.9 0.1 1.1
v -5.3 0 1
v -5.3 0.1 1
v -4.9 0 1
v -4.9 0.1 1
v -4.7 0.1 1
v -4.7 0.2 1
v -4.4 0.1 1
v -4.4 0.2 1
v 4.4 0.1 1
v 4.4 0.2 1
v 4.7 0.1 1
v 4.7 0.2 1
v 4.9 0 1
v 4.9 0.1 1
v 5.3 0 1
v 5.3 0.1 1
v -5.5 0 0.9
v -5.5 0.1 0.9
v -5.3 0 0.9
v -5.3 0.1 0.9
v -5 0.1 0.9
v -5 0.2 0.9
v -4.7 0.1 0.9
v -4.7 0.2 0.9
v 4.7 0.1 0.9
v 4.7 0.2 0.9
v 5 0.1 0.9
v 5 0.2 0.9
v 5.3 0 0.9
v 5.3 0.1 0.9
v 5.5 0 0.9
v 5.5 0.1 0.9
v -5.8 0 0.8
v -5.8 0.1 0.8
v -5.5 0 0.8
v -5.5 0.1 0.8
v -5.4 0.1 0.8
v -5.4 0.2 0.8
v -5 0.1 0.8
v -5 0.2 0.8
v 5 0.1 0.8
v 5 0.2 0.8
v 5.4 0.1 0.8
v 5.4 0.2 0.8
v 5.5 0 0.8
v 5.5 0.1 0.8
v 5.8 0 0.8
v 5.8 0.1 0.8
v -6.1 0 0.7
v -6.1 0.1 0.7
v -5.8 0 0.7
v -5.8 0.1 0.7
v -5.6 0.1 0.7
v -5.6 0.2 0.7
v -5.4 0.1 0.7
v -5.4 0.2 0.7
v 5.4 0.1 0.7
v 5.4 0.2 0.7
v 5.6 0.1 0.7
v 5.6 0.2 0.7
v 5.8 0 0.7
v 5.8 0.1 0.7
v 6.1 0 0.7
v 6.1 0.1 0.7
v -6.3 0 0.6
v -6.3 0.1 0.6
v -6.1 0 0.6
v -6.1 0.1 0.6
v -5.9 0.1 0.6
v -5.9 0.2 0.6
v -5.6 0.1 0.6
v -5.6 0.2 0.6
v 5.6 0.1 0.6
v 5.6 0.2 0.6
v 5.9 0.1 0.6
v 5.9 0.2 0.6
v 6.1 0 0.6
v 6.1 0.1 0.6
v 6.3 0 0.6
v 6.3 0.1 0.6
v -6.4 0 0.5
v -6.4 0.1 0.5
v -6.3 0 0.5
v -6.3 0.1 0.5
v -6.2 0.1 0.5
v -6.2 0.2 0.5
v -5.9 0.1 0.5
v -5.9 0.2 0.5
v 5.9 0.1 0.5
v 5.9 0.2 0.5
v 6.2 0.1 0.5
v 6.2 0.2 0.5
v 6.3 0 0.5
v 6.3 0.1 0.5
v 6.4 0 0.5
v 6.4 0.1 0.5
v -6.3 0.1 0.4
v -6.3 0.2 0.4
v -6.2 0.1 0.4
v -6.2 0.2 0.4
v 6.2 0.1 0.4
v 6.2 0.2 0.4
v 6.3 0.1 0.4
v 6.3 0.2 0.4
v -4.4 0 1
v -4.4 0.1 1
v -4.4 0.2 1
v 4.4 0 1
v 4.4 0.1 1
v 4.4 0.2 1
v -4.7 0 0.9
v -4.7 0.1 0.9
v -4.7 0.2 0.9
v -4.4 0 0.9
v -4.4 0.1 0.9
v -4.4 0.2 0.9
v 4.4 0 0.9
v 4.4 0.1 0.9
v 4.4 0.2 0.9
v 4.7 0 0.9
v 4.7 0.1 0.9
v 4.7 0.2 0.9
v -5 0 0.8
v -5 0.1 0.8
v -5 0.2 0.8
v -4.7 0 0.8
v -4.7 0.1 0.8
v -4.7 0.2 0.8
v 4.7 0 0.8
v 4.7 0.1 0.8
v 4.7 0.2 0.8
v 5 0 0.8
v 5 0.1 0.8
v 5 0.2 0.8
v -5.4 0 0.7
v -5.4 0.1 0.7
v -5.4 0.2 0.7
v -5 0 0.7
v -5 0.1 0.7
v -5 0.2 0.7
v 5 0 0.7
v 5 0.1 0.7
v 5 0.2 0.7
v 5.4 0 0.7
v 5.4 0.1 0.7
v 5.4 0.2 0.7
v -5.6 0 0.6
v -5.6 0.1 0.6
v -5.6 0.2 0.6
v -5.4 0 0.6
v -5.4 0.1 0.6
v -5.4 0.2 0.6
v 5.4 0 0.6
v 5.4 0.1 0.6
v 5.4 0.2 0.6
v 5.6 0 0.6
v 5.6 0.1 0.6
v 5.6 0.2 0.6
v -5.9 0 0.5
v -5.9 0.1 0.5
v -5.9 0.2 0.5
v -5.6 0 0.5
v -5.6 0.1 0.5
v -5.6 0.2 0.5
v 5.6 0 0.5
v 5.6 0.1 0.5
v 5.6 0.2 0.5
v 5.9 0 0.5
v 5.9 0.1 0.5
v 5.9 0.2 0.5
v -6.2 0 0.4
v -6.2 0.1 0.4
v -6.2 0.2 0.4
v -5.9 0 0.4
v -5.9 0.1 0.4
v -5.9 0.2 0.4
v 5.9 0 0.4
v 5.9 0.1 0.4
v 5.9 0.2 0.4
v 6.2 0 0.4
v 6.2 0.1 0.4
v 6.2 0.2 0.4
v -6.4 0 -0.1
v -6.4 0.1 -0.1
v -6.3 0.1 -0.1
v -6.3 0.2 -0.1
v -6.2 0 -0.1
v -6.2 0.1 -0.1
v -6.2 0.2 -0.1
v 6.2 0 -0.1
v 6.2 0.1 -0.1
v 6.2 0.2 -0.1
v 6.3 0.1 -0.1
v 6.3 0.2 -0.1
v 6.4 0 -0.1
v 6.4 0.1 -0.1
v -4.6 0 1.2
v 4.6 0 1.2
v -4.9 0 1.1
v -4.6 0 1.1
v 4.6 0 1.1
v 4.9 0 1.1
v -5.3 0 1
v -4.9 0 1
v -4.4 0 1
v 4.4 0 1
v 4.9 0 1
v 5.3 0 1
v -5.5 0 0.9
v -5.3 0 0.9
v -4.7 0 0.9
v -4.4 0 0.9
v 4.4 0 0.9
v 4.7 0 0.9
v 5.3 0 0.9
v 5.5 0 0.9
v -5.8 0 0.8
v -5.5 0 0.8
v -5 0 0.8
v -4.7 0 0.8
v 4.7 0 0.8
v 5 0 0.8
v 5.5 0 0.8
v 5.8 0 0.8
v -6.1 0 0.7
v -5.8 0 0.7
v -5.4 0 0.7
v -5 0 0.7
v 5 0 0.7
v 5.4 0 0.7
v 5.8 0 0.7
v 6.1 0 0.7
v -6.3 0 0.6
v -6.1 0 0.6
v -5.6 0 0.6
v -5.4 0 0.6
v 5.4 0 0.6
v 5.6 0 0.6
v 6.1 0 0.6
v 6.3 0 0.6
v -6.4 0 0.5
v -6.3 0 0.5
v -5.9 0 0.5
v -5.6 0 0.5
v 5.6 0 0.5
v 5.9 0 0.5
v 6.3 0 0.5
v 6.4 0 0.5
v -6.2 0 0.4
v -5.9 0 0.4
v 5.9 0 0.4
v 6.2 0 0.4
v -6.4 0 -0.1
v -6.2 0 -0.1
v 6.2 0 -0.1
v 6.4 0 -0.1
v -4.6 0.1 1.2
v 4.6 0.1 1.2
v -4.9 0.1 1.1
v -4.6 0.1 1.1
v -4.4 0.1 1.1
v 4.4 0.1 1.1
v 4.6 0.1 1.1
v 4.9 0.1 1.1
v -5.3 0.1 1
v -4.9 0.1 1
v -4.7 0.1 1
v -4.4 0.1 1
v 4.4 0.1 1
v 4.7 0.1 1
v 4.9 0.1 1
v 5.3 0.1 1
v -5.5 0.1 0.9
v -5.3 0.1 0.9
v -5 0.1 0.9
v -4.7 0.1 0.9
v 4.7 0.1 0.9
v 5 0.1 0.9
v 5.3 0.1 0.9
v 5.5 0.1 0.9
v -5.8 0.1 0.8
v -5.5 0.1 0.8
v -5.4 0.1 0.8
v -5 0.1 0.8
v 5 0.1 0.8
v 5.4 0.1 0.8
v 5.5 0.1 0.8
v 5.8 0.1 0.8
v -6.1 0.1 0.7
v -5.8 0.1 0.7
v -5.6 0.1 0.7
v -5.4 0.1 0.7
v 5.4 0.1 0.7
v 5.6 0.1 0.7
v 5.8 0.1 0.7
v 6.1 0.1 0.7
v -6.3 0.1 0.6
v -6.1 0.1 0.6
v -5.9 0.1 0.6
v -5.6 0.1 0.6
v 5.6 0.1 0.6
v 5.9 0.1 0.6
v 6.1 0.1 0.6
v 6.3 0.1 0.6
v -6.4 0.1 0.5
v -6.3 0.1 0.5
v -6.2 0.1 0.5
v -5.9 0.1 0.5
v 5.9 0.1 0.5
v 6.2 0.1 0.5
v 6.3 0.1 0.5
v 6.4 0.1 0.5
v -6.3 0.1 0.4
v -6.2 0.1 0.4
v 6.2 0.1 0.4
v 6.3 0.1 0.4
v -6.4 0.1 -0.1
v -6.3 0.1 -0.1
v 6.3 0.1 -0.1
v 6.4 0.1 -0.1
v -4.4 0.2 1.1
v 4.4 0.2 1.1
v -4.7 0.2 1
v -4.4 0.2 1
v 4.4 0.2 1
v 4.7 0.2 1
v -5 0.2 0.9
v -4.7 0.2 0.9
v -4.4 0.2 0.9
v 4.4 0.2 0.9
v 4.7 0.2 0.9
v 5 0.2 0.9
v -5.4 0.2 0.8
v -5 0.2 0.8
v -4.7 0.2 0.8
v 4.7 0.2 0.8
v 5 0.2 0.8
v 5.4 0.2 0.8
v -5.6 0.2 0.7
v -5.4 0.2 0.7
v -5 0.2 0.7
v 5 0.2 0.7
v 5.4 0.2 0.7
v 5.6 0.2 0.7
v -5.9 0.2 0.6
v -5.6 0.2 0.6
v -5.4 0.2 0.6
v 5.4 0.2 0.6
v 5.6 0.2 0.6
v 5.9 0.2 0.6
v -6.2 0.2 0.5
v -5.9 0.2 0.5
v -5.6 0.2 0.5
v 5.6 0.2 0.5
v 5.9 0.2 0.5
v 6.2 0.2 0.5
v -6.3 0.2 0.4
v -6.2 0.2 0.4
v -5.9 0.2 0.4
v 5.9 0.2 0.4
v 6.2 0.2 0.4
v 6.3 0.2 0.4
v -6.3 0.2 -0.1
v -6.2 0.2 -0.1
v 6.2 0.2 -0.1
v 6.3 0.2 -0.1

# faces
f 3/1/1 2/1/1 1/1/1
f 4/1/1 2/1/1 3/1/1
f 7/1/1 6/1/1 5/1/1
f 8/1/1 6/1/1 7/1/1
f 11/2/1 10/2/1 9/2/1
f 12/2/1 10/2/1 11/2/1
f 15/2/1 14/2/1 13/2/1
f 16/2/1 14/2/1 15/2/1
f 19/1/1 18/1/1 17/1/1
f 20/1/1 18/1/1 19/1/1
f 23/2/1 22/2/1 21/2/1
f 24/2/1 22/2/1 23/2/1
f 27/1/1 26/1/1 25/1/1
f 28/1/1 26/1/1 27/1/1
f 31/2/1 30/2/1 29/2/1
f 32/2/1 30/2/1 31/2/1
f 35/1/1 34/1/1 33/1/1
f 36/1/1 34/1/1 35/1/1
f 39/2/1 38/2/1 37/2/1
f 40/2/1 38/2/1 39/2/1
f 43/1/1 42/1/1 41/1/1
f 44/1/1 42/1/1 43/1/1
f 47/2/1 46/2/1 45/2/1
f 48/2/1 46/2/1 47/2/1
f 51/1/1 50/1/1 49/1/1
f 52/1/1 50/1/1 51/1/1
f 55/2/1 54/2/1 53/2/1
f 56/2/1 54/2/1 55/2/1
f 59/1/1 58/1/1 57/1/1
f 60/1/1 58/1/1 59/1/1
f 63/2/1 62/2/1 61/2/1
f 64/2/1 62/2/1 63/2/1
f 67/1/1 66/1/1 65/1/1
f 68/1/1 66/1/1 67/1/1
f 69/2/1 68/2/1 67/2/1
f 70/2/1 68/2/1 69/2/1
f 73/1/1 72/1/1 71/1/1
f 74/1/1 72/1/1 73/1/1
f 75/2/1 74/2/1 73/2/1
f 76/2/1 74/2/1 75/2/1
f 79/1/1 78/1/1 77/1/1
f 80/1/1 78/1/1 79/1/1
f 81/2/1 80/2/1 79/2/1
f 82/2/1 80/2/1 81/2/1
f 85/1/1 84/1/1 83/1/1
f 86/1/1 84/1/1 85/1/1
f 87/2/1 86/2/1 85/2/1
f 88/2/1 86/2/1 87/2/1
f 91/1/1 90/1/1 89/1/1
f 92/1/1 90/1/1 91/1/1
f 93/2/1 92/2/1 91/2/1
f 94/2/1 92/2/1 93/2/1
f 97/1/1 96/1/1 95/1/1
f 98/1/1 96/1/1 97/1/1
f 99/2/1 98/2/1 97/2/1
f 100/2/1 98/2/1 99/2/1
f 103/1/1 102/1/1 101/1/1
f 104/1/1 102/1/1 103/1/1
f 105/2/1 104/2/1 103/2/1
f 106/2/1 104/2/1 105/2/1
f 107/1/2 108/1/2 109/1/2
f 109/1/2 108/1/2 110/1/2
f 109/2/2 110/2/2 111/2/2
f 111/2/2 110/2/2 112/2/2
f 113/1/2 114/1/2 115/1/2
f 115/1/2 114/1/2 116/1/2
f 115/2/2 116/2/2 117/2/2
f 117/2/2 116/2/2 118/2/2
f 119/1/2 120/1/2 121/1/2
f 121/1/2 120/1/2 122/1/2
f 121/2/2 122/2/2 123/2/2
f 123/2/2 122/2/2 124/2/2
f 125/1/2 126/1/2 127/1/2
f 127/1/2 126/1/2 128/1/2
f 127/2/2 128/2/2 129/2/2
f 129/2/2 128/2/2 130/2/2
f 131/1/2 132/1/2 133/1/2
f 133/1/2 132/1/2 134/1/2
f 133/2/2 134/2/2 135/2/2
f 135/2/2 134/2/2 136/2/2
f 137/1/2 138/1/2 139/1/2
f 139/1/2 138/1/2 140/1/2
f 139/2/2 140/2/2 141/2/2
f 141/2/2 140/2/2 142/2/2
f 143/1/2 144/1/2 145/1/2
f 145/1/2 144/1/2 146/1/2
f 145/2/2 146/2/2 147/2/2
f 147/2/2 146/2/2 148/2/2
f 149/2/2 150/2/2 151/2/2
f 151/2/2 150/2/2 152/2/2
f 153/1/2 154/1/2 155/1/2
f 155/1/2 154/1/2 156/1/2
f 157/2/2 158/2/2 159/2/2
f 159/2/2 158/2/2 160/2/2
f 161/1/2 162/1/2 163/1/2
f 163/1/2 162/1/2 164/1/2
f 165/2/2 166/2/2 167/2/2
f 167/2/2 166/2/2 168/2/2
f 169/1/2 170/1/2 171/1/2
f 171/1/2 170/1/2 172/1/2
f 173/2/2 174/2/2 175/2/2
f 175/2/2 174/2/2 176/2/2
f 177/1/2 178/1/2 179/1/2
f 179/1/2 178/1/2 180/1/2
f 181/2/2 182/2/2 183/2/2
f 183/2/2 182/2/2 184/2/2
f 185/1/2 186/1/2 187/1/2
f 187/1/2 186/1/2 188/1/2
f 189/2/2 190/2/2 191/2/2
f 191/2/2 190/2/2 192/2/2
f 193/1/2 194/1/2 195/1/2
f 195/1/2 194/1/2 196/1/2
f 197/2/2 198/2/2 199/2/2
f 199/2/2 198/2/2 200/2/2
f 201/1/2 202/1/2 203/1/2
f 203/1/2 202/1/2 204/1/2
f 205/2/2 206/2/2 207/2/2
f 207/2/2 206/2/2 208/2/2
f 209/1/2 210/1/2 211/1/2
f 211/1/2 210/1/2 212/1/2
f 215/1/3 214/1/3 213/1/3
f 216/1/3 214/1/3 215/1/3
f 219/1/3 218/1/3 217/1/3
f 220/1/3 218/1/3 219/1/3
f 223/2/3 222/2/3 221/2/3
f 224/2/3 222/2/3 223/2/3
f 227/1/3 226/1/3 225/1/3
f 228/1/3 226/1/3 227/1/3
f 231/1/3 230/1/3 229/1/3
f 232/1/3 230/1/3 231/1/3
f 235/2/3 234/2/3 233/2/3
f 236/2/3 234/2/3 235/2/3
f 239/2/3 238/2/3 237/2/3
f 240/2/3 238/2/3 239/2/3
f 243/1/3 242/1/3 241/1/3
f 244/1/3 242/1/3 243/1/3
f 247/1/3 246/1/3 245/1/3
f 248/1/3 246/1/3 247/1/3
f 251/2/3 250/2/3 249/2/3
f 252/2/3 250/2/3 251/2/3
f 255/2/3 254/2/3 253/2/3
f 256/2/3 254/2/3 255/2/3
f 259/1/3 258/1/3 257/1/3
f 260/1/3 258/1/3 259/1/3
f 263/1/3 262/1/3 261/1/3
f 264/1/3 262/1/3 263/1/3
f 267/2/3 266/2/3 265/2/3
f 268/2/3 266/2/3 267/2/3
f 271/2/3 270/2/3 269/2/3
f 272/2/3 270/2/3 271/2/3
f 275/1/3 274/1/3 273/1/3
f 276/1/3 274/1/3 275/1/3
f 279/1/3 278/1/3 277/1/3
f 280/1/3 278/1/3 279/1/3
f 283/2/3 282/2/3 281/2/3
f 284/2/3 282/2/3 283/2/3
f 287/2/3 286/2/3 285/2/3
f 288/2/3 286/2/3 287/2/3
f 291/1/3 290/1/3 289/1/3
f 292/1/3 290/1/3 291/1/3
f 295/1/3 294/1/3 293/1/3
f 296/1/3 294/1/3 295/1/3
f 299/2/3 298/2/3 297/2/3
f 300/2/3 298/2/3 299/2/3
f 303/2/3 302/2/3 301/2/3
f 304/2/3 302/2/3 303/2/3
f 307/1/3 306/1/3 305/1/3
f 308/1/3 306/1/3 307/1/3
f 311/1/3 310/1/3 309/1/3
f 312/1/3 310/1/3 311/1/3
f 315/2/3 314/2/3 313/2/3
f 316/2/3 314/2/3 315/2/3
f 319/2/3 318/2/3 317/2/3
f 320/2/3 318/2/3 319/2/3
f 323/1/3 322/1/3 321/1/3
f 324/1/3 322/1/3 323/1/3
f 327/2/3 326/2/3 325/2/3
f 328/2/3 326/2/3 327/2/3
f 331/2/3 330/2/3 329/2/3
f 332/2/3 330/2/3 331/2/3
f 333/1/4 334/1/4 336/1/4
f 334/2/4 335/2/4 337/2/4
f 336/1/4 334/1/4 337/1/4
f 337/2/4 335/2/4 338/2/4
f 339/1/4 340/1/4 342/1/4
f 340/2/4 341/2/4 343/2/4
f 342/1/4 340/1/4 343/1/4
f 343/2/4 341/2/4 344/2/4
f 345/1/4 346/1/4 348/1/4
f 346/2/4 347/2/4 349/2/4
f 348/1/4 346/1/4 349/1/4
f 349/2/4 347/2/4 350/2/4
f 351/1/4 352/1/4 354/1/4
f 352/2/4 353/2/4 355/2/4
f 354/1/4 352/1/4 355/1/4
f 355/2/4 353/2/4 356/2/4
f 357/1/4 358/1/4 360/1/4
f 358/2/4 359/2/4 361/2/4
f 360/1/4 358/1/4 361/1/4
f 361/2/4 359/2/4 362/2/4
f 363/1/4 364/1/4 366/1/4
f 364/2/4 365/2/4 367/2/4
f 366/1/4 364/1/4 367/1/4
f 367/2/4 365/2/4 368/2/4
f 369/1/4 370/1/4 372/1/4
f 370/2/4 371/2/4 373/2/4
f 372/1/4 370/1/4 373/1/4
f 373/2/4 371/2/4 374/2/4
f 375/1/4 376/1/4 378/1/4
f 376/2/4 377/2/4 379/2/4
f 378/1/4 376/1/4 379/1/4
f 379/2/4 377/2/4 380/2/4
f 381/1/4 382/1/4 384/1/4
f 382/2/4 383/2/4 385/2/4
f 384/1/4 382/1/4 385/1/4
f 385/2/4 383/2/4 386/2/4
f 387/1/4 388/1/4 390/1/4
f 388/2/4 389/2/4 391/2/4
f 390/1/4 388/1/4 391/1/4
f 391/2/4 389/2/4 392/2/4
f 393/1/4 394/1/4 396/1/4
f 394/2/4 395/2/4 397/2/4
f 396/1/4 394/1/4 397/1/4
f 397/2/4 395/2/4 398/2/4
f 399/1/4 400/1/4 402/1/4
f 400/2/4 401/2/4 403/2/4
f 402/1/4 400/1/4 403/1/4
f 403/2/4 401/2/4 404/2/4
f 405/1/4 406/1/4 408/1/4
f 406/2/4 407/2/4 409/2/4
f 408/1/4 406/1/4 409/1/4
f 409/2/4 407/2/4 410/2/4
f 411/1/4 412/1/4 413/1/4
f 411/1/4 413/1/4 415/1/4
f 413/2/4 414/2/4 416/2/4
f 415/1/4 413/1/4 416/1/4
f 416/2/4 414/2/4 417/2/4
f 418/1/4 419/1/4 421/1/4
f 419/2/4 420/2/4 421/2/4
f 421/2/4 420/2/4 422/2/4
f 418/1/4 421/1/4 423/1/4
f 423/1/4 421/1/4 424/1/4
f 428/1/5 426/1/5 425/1/5
f 429/1/5 426/1/5 428/1/5
f 432/1/5 428/1/5 427/1/5
f 432/1/5 430/1/5 429/1/5
f 432/1/5 429/1/5 428/1/5
f 433/1/5 430/1/5 432/1/5
f 434/1/5 430/1/5 433/1/5
f 435/1/5 430/1/5 434/1/5
f 438/1/5 432/1/5 431/1/5
f 438/1/5 433/1/5 432/1/5
f 439/1/5 433/1/5 438/1/5
f 440/1/5 433/1/5 439/1/5
f 441/1/5 435/1/5 434/1/5
f 441/1/5 436/1/5 435/1/5
f 442/1/5 436/1/5 441/1/5
f 443/1/5 436/1/5 442/1/5
f 446/1/5 439/1/5 438/1/5
f 446/1/5 438/1/5 437/1/5
f 447/1/5 439/1/5 446/1/5
f 448/1/5 439/1/5 447/1/5
f 449/1/5 444/1/5 443/1/5
f 449/1/5 443/1/5 442/1/5
f 450/1/5 444/1/5 449/1/5
f 451/1/5 444/1/5 450/1/5
f 454/1/5 447/1/5 446/1/5
f 454/1/5 446/1/5 445/1/5
f 455/1/5 447/1/5 454/1/5
f 456/1/5 447/1/5 455/1/5
f 457/1/5 452/1/5 451/1/5
f 457/1/5 451/1/5 450/1/5
f 458/1/5 452/1/5 457/1/5
f 459/1/5 452/1/5 458/1/5
f 462/1/5 455/1/5 454/1/5
f 462/1/5 454/1/5 453/1/5
f 463/1/5 455/1/5 462/1/5
f 464/1/5 455/1/5 463/1/5
f 465/1/5 460/1/5 459/1/5
f 465/1/5 459/1/5 458/1/5
f 466/1/5 460/1/5 465/1/5
f 467/1/5 460/1/5 466/1/5
f 470/1/5 463/1/5 462/1/5
f 470/1/5 462/1/5 461/1/5
f 471/1/5 463/1/5 470/1/5
f 472/1/5 463/1/5 471/1/5
f 473/1/5 468/1/5 467/1/5
f 473/1/5 467/1/5 466/1/5
f 474/1/5 468/1/5 473/1/5
f 475/1/5 468/1/5 474/1/5
f 477/1/5 471/1/5 470/1/5
f 477/1/5 470/1/5 469/1/5
f 478/1/5 471/1/5 477/1/5
f 479/1/5 476/1/5 475/1/5
f 479/1/5 475/1/5 474/1/5
f 480/1/5 476/1/5 479/1/5
f 481/1/5 477/1/5 469/1/5
f 482/1/5 477/1/5 481/1/5
f 483/1/5 476/1/5 480/1/5
f 484/1/5 476/1/5 483/1/5
f 485/1/6 486/1/6 488/1/6
f 488/1/6 486/1/6 489/1/6
f 489/1/6 486/1/6 490/1/6
f 490/1/6 486/1/6 491/1/6
f 487/1/6 488/1/6 494/1/6
f 488/1/6 489/1/6 494/1/6
f 494/1/6 489/1/6 495/1/6
f 495/1/6 489/1/6 496/1/6
f 490/1/6 491/1/6 497/1/6
f 491/1/6 492/1/6 497/1/6
f 497/1/6 492/1/6 498/1/6
f 498/1/6 492/1/6 499/1/6
f 494/1/6 495/1/6 502/1/6
f 493/1/6 494/1/6 502/1/6
f 502/1/6 495/1/6 503/1/6
f 503/1/6 495/1/6 504/1/6
f 499/1/6 500/1/6 505/1/6
f 498/1/6 499/1/6 505/1/6
f 505/1/6 500/1/6 506/1/6
f 506/1/6 500/1/6 507/1/6
f 502/1/6 503/1/6 510/1/6
f 501/1/6 502/1/6 510/1/6
f 510/1/6 503/1/6 511/1/6
f 511/1/6 503/1/6 512/1/6
f 507/1/6 508/1/6 513/1/6
f 506/1/6 507/1/6 513/1/6
f 513/1/6 508/1/6 514/1/6
f 514/1/6 508/1/6 515/1/6
f 510/1/6 511/1/6 518/1/6
f 509/1/6 510/1/6 518/1/6
f 518/1/6 511/1/6 519/1/6
f 519/1/6 511/1/6 520/1/6
f 515/1/6 516/1/6 521/1/6
f 514/1/6 515/1/6 521/1/6
f 521/1/6 516/1/6 522/1/6
f 522/1/6 516/1/6 523/1/6
f 518/1/6 519/1/6 526/1/6
f 517/1/6 518/1/6 526/1/6
f 526/1/6 519/1/6 527/1/6
f 527/1/6 519/1/6 528/1/6
f 523/1/6 524/1/6 529/1/6
f 522/1/6 523/1/6 529/1/6
f 529/1/6 524/1/6 530/1/6
f 530/1/6 524/1/6 531/1/6
f 526/1/6 527/1/6 534/1/6
f 525/1/6 526/1/6 534/1/6
f 534/1/6 527/1/6 535/1/6
f 535/1/6 527/1/6 536/1/6
f 531/1/6 532/1/6 537/1/6
f 530/1/6 531/1/6 537/1/6
f 537/1/6 532/1/6 538/1/6
f 538/1/6 532/1/6 539/1/6
f 534/1/6 535/1/6 541/1/6
f 533/1/6 534/1/6 541/1/6
f 541/1/6 535/1/6 542/1/6
f 539/1/6 540/1/6 543/1/6
f 538/1/6 539/1/6 543/1/6
f 543/1/6 540/1/6 544/1/6
f 533/1/6 541/1/6 545/1/6
f 545/1/6 541/1/6 546/1/6
f 544/1/6 540/1/6 547/1/6
f 547/1/6 540/1/6 548/1/6
f 549/2/6 550/2/6 552/2/6
f 552/2/6 550/2/6 553/2/6
f 551/2/6 552/2/6 556/2/6
f 556/2/6 552/2/6 557/2/6
f 553/2/6 554/2/6 558/2/6
f 558/2/6 554/2/6 559/2/6
f 555/2/6 556/2/6 562/2/6
f 562/2/6 556/2/6 563/2/6
f 559/2/6 560/2/6 564/2/6
f 564/2/6 560/2/6 565/2/6
f 561/2/6 562/2/6 568/2/6
f 568/2/6 562/2/6 569/2/6
f 565/2/6 566/2/6 570/2/6
f 570/2/6 566/2/6 571/2/6
f 567/2/6 568/2/6 574/2/6
f 574/2/6 568/2/6 575/2/6
f 571/2/6 572/2/6 576/2/6
f 576/2/6 572/2/6 577/2/6
f 573/2/6 574/2/6 580/2/6
f 580/2/6 574/2/6 581/2/6
f 577/2/6 578/2/6 582/2/6
f 582/2/6 578/2/6 583/2/6
f 579/2/6 580/2/6 586/2/6
f 586/2/6 580/2/6 587/2/6
f 583/2/6 584/2/6 588/2/6
f 588/2/6 584/2/6 589/2/6
f 585/2/6 586/2/6 591/2/6
f 591/2/6 586/2/6 592/2/6
f 589/2/6 590/2/6 593/2/6
f 593/2/6 590/2/6 594/2/6
