# MagicaVoxel @ Ephtracy

# group
o 

# material
mtllib LibraryEquipScrollPanel.mtl
usemtl palette

# normals
vn -1 0 0
vn 1 0 0
vn 0 0 1
vn 0 0 -1
vn 0 -1 0
vn 0 1 0

# texcoords
vt 0.232422 0.5
vt 0.537109 0.5

# verts
v -0.3 -1.3 4.6
v -0.3 -1.3 -4.6
v -0.3 -1.2 4.7
v -0.3 -1.2 4.6
v -0.3 -1.2 -4.6
v -0.3 -1.2 -4.7
v -0.3 -1.1 4.8
v -0.3 -1.1 4.7
v -0.3 -1.1 4.5
v -0.3 -1.1 -4.6
v -0.3 -1.1 -4.7
v -0.3 -1.1 -4.8
v -0.3 -1 4.6
v -0.3 -1 4.5
v -0.3 1.1 4.6
v -0.3 1.1 -4.6
v -0.3 1.2 4.8
v -0.3 1.2 4.7
v -0.3 1.2 -4.7
v -0.3 1.2 -4.8
v -0.3 1.3 4.7
v -0.3 1.3 -4.7
v -0.2 -1.1 4.5
v -0.2 -1.1 -4.5
v -0.2 -1 4.6
v -0.2 -1 4.5
v -0.2 -1 -4.5
v -0.2 -1 -4.6
v -0.2 1 4.6
v -0.2 1 4.5
v -0.2 1 -4.5
v -0.2 1 -4.6
v -0.2 1.1 4.5
v -0.2 1.1 -4.5
v 0.3 -1.3 4.6
v 0.3 -1.3 -4.6
v 0.3 -1.2 4.7
v 0.3 -1.2 4.6
v 0.3 -1.2 -4.6
v 0.3 -1.2 -4.7
v 0.3 -1.1 4.8
v 0.3 -1.1 4.7
v 0.3 -1.1 4.5
v 0.3 -1.1 -4.5
v 0.3 -1.1 -4.7
v 0.3 -1.1 -4.8
v 0.3 -1 4.6
v 0.3 -1 4.5
v 0.3 -1 -4.5
v 0.3 -1 -4.6
v 0.3 1 4.6
v 0.3 1 4.5
v 0.3 1 -4.5
v 0.3 1 -4.6
v 0.3 1.1 4.5
v 0.3 1.1 -4.5
v 0.3 1.2 4.8
v 0.3 1.2 4.7
v 0.3 1.2 -4.7
v 0.3 1.2 -4.8
v 0.3 1.3 4.7
v 0.3 1.3 -4.7
v -0.3 -1.1 4.8
v -0.3 1.2 4.8
v 0.3 -1.1 4.8
v 0.3 1.2 4.8
v -0.3 -1.2 4.7
v -0.3 -1.1 4.7
v -0.3 1.2 4.7
v -0.3 1.3 4.7
v 0.3 -1.2 4.7
v 0.3 -1.1 4.7
v 0.3 1.2 4.7
v 0.3 1.3 4.7
v -0.3 -1.3 4.6
v -0.3 -1.2 4.6
v 0.3 -1.3 4.6
v 0.3 -1.2 4.6
v -0.2 -1.1 -4.5
v -0.2 -1 -4.5
v -0.2 1 -4.5
v -0.2 1.1 -4.5
v -0.1 1 -4.5
v -0.1 1.1 -4.5
v 0.3 -1.1 -4.5
v 0.3 -1 -4.5
v 0.3 1 -4.5
v 0.3 1.1 -4.5
v -0.2 -1 -4.6
v -0.2 1 -4.6
v -0.1 1 -4.6
v 0.3 -1 -4.6
v 0.3 1 -4.6
v -0.2 -1 4.6
v -0.2 1 4.6
v -0.1 1 4.6
v 0.3 -1 4.6
v 0.3 1 4.6
v -0.2 -1.1 4.5
v -0.2 -1 4.5
v -0.2 1 4.5
v -0.2 1.1 4.5
v -0.1 1 4.5
v -0.1 1.1 4.5
v 0.3 -1.1 4.5
v 0.3 -1 4.5
v 0.3 1 4.5
v 0.3 1.1 4.5
v -0.3 -1.3 -4.6
v -0.3 -1.2 -4.6
v 0.3 -1.3 -4.6
v 0.3 -1.2 -4.6
v -0.3 -1.2 -4.7
v -0.3 -1.1 -4.7
v -0.3 1.2 -4.7
v -0.3 1.3 -4.7
v 0.3 -1.2 -4.7
v 0.3 -1.1 -4.7
v 0.3 1.2 -4.7
v 0.3 1.3 -4.7
v -0.3 -1.1 -4.8
v -0.3 1.2 -4.8
v 0.3 -1.1 -4.8
v 0.3 1.2 -4.8
v -0.3 -1.3 4.6
v 0.3 -1.3 4.6
v -0.3 -1.3 -4.6
v 0.3 -1.3 -4.6
v -0.3 -1.2 4.7
v 0.3 -1.2 4.7
v -0.3 -1.2 4.6
v 0.3 -1.2 4.6
v -0.3 -1.2 -4.6
v 0.3 -1.2 -4.6
v -0.3 -1.2 -4.7
v 0.3 -1.2 -4.7
v -0.3 -1.1 4.8
v 0.3 -1.1 4.8
v -0.3 -1.1 4.7
v 0.3 -1.1 4.7
v -0.3 -1.1 -4.7
v 0.3 -1.1 -4.7
v -0.3 -1.1 -4.8
v 0.3 -1.1 -4.8
v -0.2 1 4.6
v -0.1 1 4.6
v 0.3 1 4.6
v -0.2 1 4.5
v -0.1 1 4.5
v 0.3 1 4.5
v -0.2 1 -4.5
v -0.1 1 -4.5
v 0.3 1 -4.5
v -0.2 1 -4.6
v -0.1 1 -4.6
v 0.3 1 -4.6
v -0.2 1.1 4.5
v -0.1 1.1 4.5
v 0.3 1.1 4.5
v -0.2 1.1 -4.5
v -0.1 1.1 -4.5
v 0.3 1.1 -4.5
v -0.2 -1.1 4.5
v 0.3 -1.1 4.5
v -0.2 -1.1 -4.5
v 0.3 -1.1 -4.5
v -0.2 -1 4.6
v 0.3 -1 4.6
v -0.2 -1 4.5
v 0.3 -1 4.5
v -0.2 -1 -4.5
v 0.3 -1 -4.5
v -0.2 -1 -4.6
v 0.3 -1 -4.6
v -0.3 1.2 4.8
v 0.3 1.2 4.8
v -0.3 1.2 4.7
v 0.3 1.2 4.7
v -0.3 1.2 -4.7
v 0.3 1.2 -4.7
v -0.3 1.2 -4.8
v 0.3 1.2 -4.8
v -0.3 1.3 4.7
v 0.3 1.3 4.7
v -0.3 1.3 -4.7
v 0.3 1.3 -4.7

# faces
f 4/2/1 2/2/1 1/2/1
f 5/2/1 2/2/1 4/2/1
f 8/2/1 4/2/1 3/2/1
f 8/2/1 6/2/1 5/2/1
f 8/2/1 5/2/1 4/2/1
f 9/2/1 6/2/1 8/2/1
f 10/2/1 6/2/1 9/2/1
f 11/2/1 6/2/1 10/2/1
f 13/2/1 8/2/1 7/2/1
f 13/2/1 9/2/1 8/2/1
f 14/1/1 10/1/1 9/1/1
f 14/2/1 9/2/1 13/2/1
f 15/2/1 13/2/1 7/2/1
f 15/1/1 14/1/1 13/1/1
f 16/2/1 12/2/1 11/2/1
f 16/1/1 14/1/1 15/1/1
f 16/2/1 11/2/1 10/2/1
f 16/1/1 10/1/1 14/1/1
f 17/2/1 15/2/1 7/2/1
f 17/2/1 16/2/1 15/2/1
f 18/2/1 16/2/1 17/2/1
f 19/2/1 12/2/1 16/2/1
f 19/2/1 16/2/1 18/2/1
f 20/2/1 12/2/1 19/2/1
f 21/2/1 19/2/1 18/2/1
f 22/2/1 19/2/1 21/2/1
f 23/1/2 24/1/2 26/1/2
f 26/1/2 24/1/2 27/1/2
f 25/1/2 26/1/2 29/1/2
f 27/1/2 28/1/2 29/1/2
f 26/1/2 27/1/2 29/1/2
f 29/1/2 28/1/2 30/1/2
f 30/1/2 28/1/2 31/1/2
f 31/1/2 28/1/2 32/1/2
f 30/1/2 31/1/2 33/1/2
f 33/1/2 31/1/2 34/1/2
f 35/2/2 36/2/2 38/2/2
f 38/2/2 36/2/2 39/2/2
f 37/2/2 38/2/2 42/2/2
f 39/2/2 40/2/2 42/2/2
f 38/2/2 39/2/2 42/2/2
f 42/2/2 40/2/2 43/2/2
f 43/2/2 40/2/2 44/2/2
f 44/2/2 40/2/2 45/2/2
f 41/2/2 42/2/2 47/2/2
f 42/2/2 43/2/2 47/2/2
f 47/2/2 43/2/2 48/2/2
f 45/2/2 46/2/2 49/2/2
f 44/2/2 45/2/2 49/2/2
f 49/2/2 46/2/2 50/2/2
f 41/2/2 47/2/2 51/2/2
f 50/2/2 46/2/2 54/2/2
f 51/2/2 52/2/2 55/2/2
f 53/2/2 54/2/2 56/2/2
f 51/2/2 55/2/2 57/2/2
f 55/2/2 56/2/2 57/2/2
f 41/2/2 51/2/2 57/2/2
f 57/2/2 56/2/2 58/2/2
f 56/2/2 54/2/2 59/2/2
f 58/2/2 56/2/2 59/2/2
f 54/2/2 46/2/2 59/2/2
f 59/2/2 46/2/2 60/2/2
f 58/2/2 59/2/2 61/2/2
f 61/2/2 59/2/2 62/2/2
f 65/2/3 64/2/3 63/2/3
f 66/2/3 64/2/3 65/2/3
f 71/2/3 68/2/3 67/2/3
f 72/2/3 68/2/3 71/2/3
f 73/2/3 70/2/3 69/2/3
f 74/2/3 70/2/3 73/2/3
f 77/2/3 76/2/3 75/2/3
f 78/2/3 76/2/3 77/2/3
f 83/1/3 82/1/3 81/1/3
f 84/1/3 82/1/3 83/1/3
f 85/2/3 80/2/3 79/2/3
f 86/2/3 80/2/3 85/2/3
f 87/2/3 84/2/3 83/2/3
f 88/2/3 84/2/3 87/2/3
f 91/2/3 90/2/3 89/2/3
f 92/2/3 91/2/3 89/2/3
f 93/2/3 91/2/3 92/2/3
f 94/2/4 95/2/4 96/2/4
f 94/2/4 96/2/4 97/2/4
f 97/2/4 96/2/4 98/2/4
f 101/1/4 102/1/4 103/1/4
f 103/1/4 102/1/4 104/1/4
f 99/2/4 100/2/4 105/2/4
f 105/2/4 100/2/4 106/2/4
f 103/2/4 104/2/4 107/2/4
f 107/2/4 104/2/4 108/2/4
f 109/2/4 110/2/4 111/2/4
f 111/2/4 110/2/4 112/2/4
f 113/2/4 114/2/4 117/2/4
f 117/2/4 114/2/4 118/2/4
f 115/2/4 116/2/4 119/2/4
f 119/2/4 116/2/4 120/2/4
f 121/2/4 122/2/4 123/2/4
f 123/2/4 122/2/4 124/2/4
f 127/2/5 126/2/5 125/2/5
f 128/2/5 126/2/5 127/2/5
f 131/2/5 130/2/5 129/2/5
f 132/2/5 130/2/5 131/2/5
f 135/2/5 134/2/5 133/2/5
f 136/2/5 134/2/5 135/2/5
f 139/2/5 138/2/5 137/2/5
f 140/2/5 138/2/5 139/2/5
f 143/2/5 142/2/5 141/2/5
f 144/2/5 142/2/5 143/2/5
f 148/1/5 146/1/5 145/1/5
f 149/2/5 147/2/5 146/2/5
f 149/1/5 146/1/5 148/1/5
f 150/2/5 147/2/5 149/2/5
f 154/1/5 152/1/5 151/1/5
f 155/2/5 153/2/5 152/2/5
f 155/1/5 152/1/5 154/1/5
f 156/2/5 153/2/5 155/2/5
f 160/1/5 158/1/5 157/1/5
f 161/2/5 159/2/5 158/2/5
f 161/1/5 158/1/5 160/1/5
f 162/2/5 159/2/5 161/2/5
f 163/2/6 164/2/6 165/2/6
f 165/2/6 164/2/6 166/2/6
f 167/2/6 168/2/6 169/2/6
f 169/2/6 168/2/6 170/2/6
f 171/2/6 172/2/6 173/2/6
f 173/2/6 172/2/6 174/2/6
f 175/2/6 176/2/6 177/2/6
f 177/2/6 176/2/6 178/2/6
f 179/2/6 180/2/6 181/2/6
f 181/2/6 180/2/6 182/2/6
f 183/2/6 184/2/6 185/2/6
f 185/2/6 184/2/6 186/2/6
