# MagicaVoxel @ Ephtracy

# group
o 

# material
mtllib LvlDetailsPanel.mtl
usemtl palette

# normals
vn -1 0 0
vn 1 0 0
vn 0 0 1
vn 0 0 -1
vn 0 -1 0
vn 0 1 0

# texcoords
vt 0.751953 0.5
vt 0.775391 0.5
vt 0.958984 0.5

# verts
v -4.8 -3.25 0.2
v -4.8 -3.25 -0.2
v -4.8 3.25 0.2
v -4.8 3.25 -0.2
v -4.7 -3.35 0.2
v -4.7 -3.35 -0.2
v -4.7 -3.25 0.2
v -4.7 -3.25 -0.2
v -4.7 3.25 0.2
v -4.7 3.25 -0.2
v -4.7 3.35 0.2
v -4.7 3.35 -0.2
v -4.6 -3.45 0.2
v -4.6 -3.45 -0.2
v -4.6 -3.35 0.2
v -4.6 -3.35 -0.2
v -4.6 3.35 0.2
v -4.6 3.35 -0.2
v -4.6 3.45 0.2
v -4.6 3.45 -0.2
v -4.5 -3.55 0.2
v -4.5 -3.55 -0.2
v -4.5 -3.45 0.2
v -4.5 -3.45 -0.2
v -4.5 3.45 0.2
v -4.5 3.45 -0.2
v -4.5 3.55 0.2
v -4.5 3.55 -0.2
v -4.4 -3.65 0.2
v -4.4 -3.65 -0.2
v -4.4 -3.55 0.2
v -4.4 -3.55 -0.2
v -4.4 3.55 0.2
v -4.4 3.55 -0.2
v -4.4 3.65 0.2
v -4.4 3.65 -0.2
v -0.2 -3.45 0.2
v -0.2 -3.45 -0.1
v -0.2 -1.25 0.2
v -0.2 -1.25 -0.1
v 4.3 -3.45 0.2
v 4.3 -3.45 -0.1
v 4.3 -3.35 0.2
v 4.3 -3.35 -0.1
v 4.4 -3.35 0.2
v 4.4 -3.35 -0.1
v 4.4 -3.25 0.2
v 4.4 -3.25 -0.1
v 4.5 -3.25 0.2
v 4.5 -3.25 -0.1
v 4.5 -1.25 0.2
v 4.5 -1.25 -0.1
v 4.5 -1.15 0.2
v 4.5 -1.15 -0.1
v 4.5 2.65 0.2
v 4.5 2.65 -0.1
v -4.7 -3.15 0.2
v -4.7 -3.15 -0.1
v -4.7 -1.25 0.2
v -4.7 -1.25 -0.1
v -4.7 -1.15 0.2
v -4.7 -1.15 -0.1
v -4.7 2.65 0.2
v -4.7 2.65 -0.1
v -4.6 -3.25 0.2
v -4.6 -3.25 -0.1
v -4.6 -3.15 0.2
v -4.6 -3.15 -0.1
v -4.5 -3.35 0.2
v -4.5 -3.35 -0.1
v -4.5 -3.25 0.2
v -4.5 -3.25 -0.1
v -4.4 -3.45 0.2
v -4.4 -3.45 -0.1
v -4.4 -3.35 0.2
v -4.4 -3.35 -0.1
v -0.0999999 -3.45 0.2
v -0.0999999 -3.45 -0.1
v -0.0999999 -1.25 0.2
v -0.0999999 -1.25 -0.1
v 4.3 -3.65 0.2
v 4.3 -3.65 -0.2
v 4.3 -3.55 0.2
v 4.3 -3.55 -0.2
v 4.3 3.55 0.2
v 4.3 3.55 -0.2
v 4.3 3.65 0.2
v 4.3 3.65 -0.2
v 4.4 -3.55 0.2
v 4.4 -3.55 -0.2
v 4.4 -3.45 0.2
v 4.4 -3.45 -0.2
v 4.4 3.45 0.2
v 4.4 3.45 -0.2
v 4.4 3.55 0.2
v 4.4 3.55 -0.2
v 4.5 -3.45 0.2
v 4.5 -3.45 -0.2
v 4.5 -3.35 0.2
v 4.5 -3.35 -0.2
v 4.5 3.35 0.2
v 4.5 3.35 -0.2
v 4.5 3.45 0.2
v 4.5 3.45 -0.2
v 4.6 -3.35 0.2
v 4.6 -3.35 -0.2
v 4.6 -3.25 0.2
v 4.6 -3.25 -0.2
v 4.6 3.25 0.2
v 4.6 3.25 -0.2
v 4.6 3.35 0.2
v 4.6 3.35 -0.2
v 4.7 -3.25 0.2
v 4.7 -3.25 -0.2
v 4.7 3.25 0.2
v 4.7 3.25 -0.2
v -4.8 -3.25 0.2
v -4.8 3.25 0.2
v -4.7 -3.35 0.2
v -4.7 -3.25 0.2
v -4.7 -3.15 0.2
v -4.7 -1.25 0.2
v -4.7 -1.15 0.2
v -4.7 2.65 0.2
v -4.7 2.75 0.2
v -4.7 3.15 0.2
v -4.7 3.25 0.2
v -4.7 3.35 0.2
v -4.6 -3.45 0.2
v -4.6 -3.35 0.2
v -4.6 -3.25 0.2
v -4.6 -3.15 0.2
v -4.6 3.15 0.2
v -4.6 3.25 0.2
v -4.6 3.35 0.2
v -4.6 3.45 0.2
v -4.5 -3.55 0.2
v -4.5 -3.45 0.2
v -4.5 -3.35 0.2
v -4.5 -3.25 0.2
v -4.5 3.25 0.2
v -4.5 3.35 0.2
v -4.5 3.45 0.2
v -4.5 3.55 0.2
v -4.4 -3.65 0.2
v -4.4 -3.55 0.2
v -4.4 -3.45 0.2
v -4.4 -3.35 0.2
v -4.4 3.35 0.2
v -4.4 3.45 0.2
v -4.4 3.55 0.2
v -4.4 3.65 0.2
v -0.2 -3.45 0.2
v -0.2 -1.25 0.2
v -0.0999999 -3.45 0.2
v -0.0999999 -1.25 0.2
v 4.3 -3.65 0.2
v 4.3 -3.55 0.2
v 4.3 -3.45 0.2
v 4.3 -3.35 0.2
v 4.3 3.35 0.2
v 4.3 3.45 0.2
v 4.3 3.55 0.2
v 4.3 3.65 0.2
v 4.4 -3.55 0.2
v 4.4 -3.45 0.2
v 4.4 -3.35 0.2
v 4.4 -3.25 0.2
v 4.4 3.25 0.2
v 4.4 3.35 0.2
v 4.4 3.45 0.2
v 4.4 3.55 0.2
v 4.5 -3.45 0.2
v 4.5 -3.35 0.2
v 4.5 -3.25 0.2
v 4.5 -1.25 0.2
v 4.5 -1.15 0.2
v 4.5 2.65 0.2
v 4.5 2.75 0.2
v 4.5 3.25 0.2
v 4.5 3.35 0.2
v 4.5 3.45 0.2
v 4.6 -3.35 0.2
v 4.6 -3.25 0.2
v 4.6 3.25 0.2
v 4.6 3.35 0.2
v 4.7 -3.25 0.2
v 4.7 3.25 0.2
v -4.7 -3.15 -0.1
v -4.7 -1.25 -0.1
v -4.7 -1.15 -0.1
v -4.7 2.65 -0.1
v -4.6 -3.25 -0.1
v -4.6 -3.15 -0.1
v -4.5 -3.35 -0.1
v -4.5 -3.25 -0.1
v -4.4 -3.45 -0.1
v -4.4 -3.35 -0.1
v -0.2 -3.45 -0.1
v -0.2 -1.25 -0.1
v -0.0999999 -3.45 -0.1
v -0.0999999 -1.25 -0.1
v 4.3 -3.45 -0.1
v 4.3 -3.35 -0.1
v 4.4 -3.35 -0.1
v 4.4 -3.25 -0.1
v 4.5 -3.25 -0.1
v 4.5 -1.25 -0.1
v 4.5 -1.15 -0.1
v 4.5 2.65 -0.1
v -4.8 -3.25 -0.2
v -4.8 3.25 -0.2
v -4.7 -3.35 -0.2
v -4.7 -3.25 -0.2
v -4.7 -3.15 -0.2
v -4.7 -1.25 -0.2
v -4.7 -1.15 -0.2
v -4.7 2.75 -0.2
v -4.7 2.85 -0.2
v -4.7 3.15 -0.2
v -4.7 3.25 -0.2
v -4.7 3.35 -0.2
v -4.6 -3.45 -0.2
v -4.6 -3.35 -0.2
v -4.6 -3.25 -0.2
v -4.6 -3.15 -0.2
v -4.6 3.15 -0.2
v -4.6 3.25 -0.2
v -4.6 3.35 -0.2
v -4.6 3.45 -0.2
v -4.5 -3.55 -0.2
v -4.5 -3.45 -0.2
v -4.5 -3.35 -0.2
v -4.5 -3.25 -0.2
v -4.5 3.25 -0.2
v -4.5 3.35 -0.2
v -4.5 3.45 -0.2
v -4.5 3.55 -0.2
v -4.4 -3.65 -0.2
v -4.4 -3.55 -0.2
v -4.4 -3.45 -0.2
v -4.4 -3.35 -0.2
v -4.4 3.35 -0.2
v -4.4 3.45 -0.2
v -4.4 3.55 -0.2
v -4.4 3.65 -0.2
v -0.2 -3.45 -0.2
v -0.2 -1.25 -0.2
v -0.0999999 -3.45 -0.2
v -0.0999999 -1.25 -0.2
v 4.3 -3.65 -0.2
v 4.3 -3.55 -0.2
v 4.3 -3.45 -0.2
v 4.3 -3.35 -0.2
v 4.3 3.35 -0.2
v 4.3 3.45 -0.2
v 4.3 3.55 -0.2
v 4.3 3.65 -0.2
v 4.4 -3.55 -0.2
v 4.4 -3.45 -0.2
v 4.4 -3.35 -0.2
v 4.4 -3.25 -0.2
v 4.4 3.25 -0.2
v 4.4 3.35 -0.2
v 4.4 3.45 -0.2
v 4.4 3.55 -0.2
v 4.5 -3.45 -0.2
v 4.5 -3.35 -0.2
v 4.5 -3.25 -0.2
v 4.5 -1.25 -0.2
v 4.5 -1.15 -0.2
v 4.5 2.75 -0.2
v 4.5 2.85 -0.2
v 4.5 3.25 -0.2
v 4.5 3.35 -0.2
v 4.5 3.45 -0.2
v 4.6 -3.35 -0.2
v 4.6 -3.25 -0.2
v 4.6 3.25 -0.2
v 4.6 3.35 -0.2
v 4.7 -3.25 -0.2
v 4.7 3.25 -0.2
v -4.4 -3.65 0.2
v 4.3 -3.65 0.2
v -4.4 -3.65 -0.2
v 4.3 -3.65 -0.2
v -4.5 -3.55 0.2
v -4.4 -3.55 0.2
v 4.3 -3.55 0.2
v 4.4 -3.55 0.2
v -4.5 -3.55 -0.2
v -4.4 -3.55 -0.2
v 4.3 -3.55 -0.2
v 4.4 -3.55 -0.2
v -4.6 -3.45 0.2
v -4.5 -3.45 0.2
v 4.4 -3.45 0.2
v 4.5 -3.45 0.2
v -4.6 -3.45 -0.2
v -4.5 -3.45 -0.2
v 4.4 -3.45 -0.2
v 4.5 -3.45 -0.2
v -4.7 -3.35 0.2
v -4.6 -3.35 0.2
v 4.5 -3.35 0.2
v 4.6 -3.35 0.2
v -4.7 -3.35 -0.2
v -4.6 -3.35 -0.2
v 4.5 -3.35 -0.2
v 4.6 -3.35 -0.2
v -4.8 -3.25 0.2
v -4.7 -3.25 0.2
v 4.6 -3.25 0.2
v 4.7 -3.25 0.2
v -4.8 -3.25 -0.2
v -4.7 -3.25 -0.2
v 4.6 -3.25 -0.2
v 4.7 -3.25 -0.2
v -4.7 -1.25 0.2
v -0.2 -1.25 0.2
v -0.0999999 -1.25 0.2
v 4.5 -1.25 0.2
v -4.7 -1.25 -0.1
v -0.2 -1.25 -0.1
v -0.0999999 -1.25 -0.1
v 4.5 -1.25 -0.1
v -4.7 2.65 0.2
v 4.5 2.65 0.2
v -4.7 2.65 -0.1
v 4.5 2.65 -0.1
v -4.4 -3.45 0.2
v -0.2 -3.45 0.2
v -0.0999999 -3.45 0.2
v 4.3 -3.45 0.2
v -4.4 -3.45 -0.1
v -0.2 -3.45 -0.1
v -0.0999999 -3.45 -0.1
v 4.3 -3.45 -0.1
v -4.5 -3.35 0.2
v -4.4 -3.35 0.2
v 4.3 -3.35 0.2
v 4.4 -3.35 0.2
v -4.5 -3.35 -0.1
v -4.4 -3.35 -0.1
v 4.3 -3.35 -0.1
v 4.4 -3.35 -0.1
v -4.6 -3.25 0.2
v -4.5 -3.25 0.2
v 4.4 -3.25 0.2
v 4.5 -3.25 0.2
v -4.6 -3.25 -0.1
v -4.5 -3.25 -0.1
v 4.4 -3.25 -0.1
v 4.5 -3.25 -0.1
v -4.7 -3.15 0.2
v -4.6 -3.15 0.2
v -4.7 -3.15 -0.1
v -4.6 -3.15 -0.1
v -4.7 -1.15 0.2
v 4.5 -1.15 0.2
v -4.7 -1.15 -0.1
v 4.5 -1.15 -0.1
v -4.8 3.25 0.2
v -4.7 3.25 0.2
v 4.6 3.25 0.2
v 4.7 3.25 0.2
v -4.8 3.25 -0.2
v -4.7 3.25 -0.2
v 4.6 3.25 -0.2
v 4.7 3.25 -0.2
v -4.7 3.35 0.2
v -4.6 3.35 0.2
v 4.5 3.35 0.2
v 4.6 3.35 0.2
v -4.7 3.35 -0.2
v -4.6 3.35 -0.2
v 4.5 3.35 -0.2
v 4.6 3.35 -0.2
v -4.6 3.45 0.2
v -4.5 3.45 0.2
v 4.4 3.45 0.2
v 4.5 3.45 0.2
v -4.6 3.45 -0.2
v -4.5 3.45 -0.2
v 4.4 3.45 -0.2
v 4.5 3.45 -0.2
v -4.5 3.55 0.2
v -4.4 3.55 0.2
v 4.3 3.55 0.2
v 4.4 3.55 0.2
v -4.5 3.55 -0.2
v -4.4 3.55 -0.2
v 4.3 3.55 -0.2
v 4.4 3.55 -0.2
v -4.4 3.65 0.2
v 4.3 3.65 0.2
v -4.4 3.65 -0.2
v 4.3 3.65 -0.2

# faces
f 3/3/1 2/3/1 1/3/1
f 4/3/1 2/3/1 3/3/1
f 7/3/1 6/3/1 5/3/1
f 8/3/1 6/3/1 7/3/1
f 11/3/1 10/3/1 9/3/1
f 12/3/1 10/3/1 11/3/1
f 15/3/1 14/3/1 13/3/1
f 16/3/1 14/3/1 15/3/1
f 19/3/1 18/3/1 17/3/1
f 20/3/1 18/3/1 19/3/1
f 23/3/1 22/3/1 21/3/1
f 24/3/1 22/3/1 23/3/1
f 27/3/1 26/3/1 25/3/1
f 28/3/1 26/3/1 27/3/1
f 31/3/1 30/3/1 29/3/1
f 32/3/1 30/3/1 31/3/1
f 35/3/1 34/3/1 33/3/1
f 36/3/1 34/3/1 35/3/1
f 39/3/1 38/3/1 37/3/1
f 40/3/1 38/3/1 39/3/1
f 43/3/1 42/3/1 41/3/1
f 44/3/1 42/3/1 43/3/1
f 47/3/1 46/3/1 45/3/1
f 48/3/1 46/3/1 47/3/1
f 51/3/1 50/3/1 49/3/1
f 52/3/1 50/3/1 51/3/1
f 55/3/1 54/3/1 53/3/1
f 56/3/1 54/3/1 55/3/1
f 57/3/2 58/3/2 59/3/2
f 59/3/2 58/3/2 60/3/2
f 61/3/2 62/3/2 63/3/2
f 63/3/2 62/3/2 64/3/2
f 65/3/2 66/3/2 67/3/2
f 67/3/2 66/3/2 68/3/2
f 69/3/2 70/3/2 71/3/2
f 71/3/2 70/3/2 72/3/2
f 73/3/2 74/3/2 75/3/2
f 75/3/2 74/3/2 76/3/2
f 77/3/2 78/3/2 79/3/2
f 79/3/2 78/3/2 80/3/2
f 81/3/2 82/3/2 83/3/2
f 83/3/2 82/3/2 84/3/2
f 85/3/2 86/3/2 87/3/2
f 87/3/2 86/3/2 88/3/2
f 89/3/2 90/3/2 91/3/2
f 91/3/2 90/3/2 92/3/2
f 93/3/2 94/3/2 95/3/2
f 95/3/2 94/3/2 96/3/2
f 97/3/2 98/3/2 99/3/2
f 99/3/2 98/3/2 100/3/2
f 101/3/2 102/3/2 103/3/2
f 103/3/2 102/3/2 104/3/2
f 105/3/2 106/3/2 107/3/2
f 107/3/2 106/3/2 108/3/2
f 109/3/2 110/3/2 111/3/2
f 111/3/2 110/3/2 112/3/2
f 113/3/2 114/3/2 115/3/2
f 115/3/2 114/3/2 116/3/2
f 120/3/3 118/3/3 117/3/3
f 121/3/3 118/3/3 120/3/3
f 122/3/3 118/3/3 121/3/3
f 123/3/3 118/3/3 122/3/3
f 124/3/3 118/3/3 123/3/3
f 125/3/3 118/3/3 124/3/3
f 126/3/3 118/3/3 125/3/3
f 127/3/3 118/3/3 126/3/3
f 130/3/3 120/3/3 119/3/3
f 130/3/3 121/3/3 120/3/3
f 131/3/3 121/3/3 130/3/3
f 132/3/3 121/3/3 131/3/3
f 133/2/3 126/2/3 125/2/3
f 133/3/3 128/3/3 127/3/3
f 133/3/3 127/3/3 126/3/3
f 134/3/3 128/3/3 133/3/3
f 135/3/3 128/3/3 134/3/3
f 138/3/3 131/3/3 130/3/3
f 138/3/3 130/3/3 129/3/3
f 139/3/3 131/3/3 138/3/3
f 140/3/3 131/3/3 139/3/3
f 141/3/3 136/3/3 135/3/3
f 141/3/3 135/3/3 134/3/3
f 141/2/3 134/2/3 133/2/3
f 142/3/3 136/3/3 141/3/3
f 143/3/3 136/3/3 142/3/3
f 146/3/3 139/3/3 138/3/3
f 146/3/3 138/3/3 137/3/3
f 147/3/3 139/3/3 146/3/3
f 148/3/3 139/3/3 147/3/3
f 149/3/3 144/3/3 143/3/3
f 149/3/3 143/3/3 142/3/3
f 149/2/3 142/2/3 141/2/3
f 150/3/3 144/3/3 149/3/3
f 151/3/3 144/3/3 150/3/3
f 153/3/3 147/3/3 146/3/3
f 153/3/3 146/3/3 145/3/3
f 154/3/3 123/3/3 122/3/3
f 155/3/3 153/3/3 145/3/3
f 155/3/3 154/3/3 153/3/3
f 156/3/3 123/3/3 154/3/3
f 156/3/3 154/3/3 155/3/3
f 157/3/3 155/3/3 145/3/3
f 158/3/3 155/3/3 157/3/3
f 159/3/3 155/3/3 158/3/3
f 161/2/3 150/2/3 149/2/3
f 161/2/3 149/2/3 141/2/3
f 162/3/3 152/3/3 151/3/3
f 162/2/3 150/2/3 161/2/3
f 162/3/3 151/3/3 150/3/3
f 163/3/3 152/3/3 162/3/3
f 164/3/3 152/3/3 163/3/3
f 165/3/3 160/3/3 159/3/3
f 165/3/3 159/3/3 158/3/3
f 166/3/3 160/3/3 165/3/3
f 167/3/3 160/3/3 166/3/3
f 169/2/3 161/2/3 141/2/3
f 169/2/3 141/2/3 133/2/3
f 170/3/3 163/3/3 162/3/3
f 170/2/3 161/2/3 169/2/3
f 170/3/3 162/3/3 161/3/3
f 171/3/3 163/3/3 170/3/3
f 172/3/3 163/3/3 171/3/3
f 173/3/3 168/3/3 167/3/3
f 173/3/3 167/3/3 166/3/3
f 174/3/3 168/3/3 173/3/3
f 175/3/3 168/3/3 174/3/3
f 176/3/3 123/3/3 156/3/3
f 177/3/3 123/3/3 176/3/3
f 178/3/3 125/3/3 124/3/3
f 179/2/3 169/2/3 133/2/3
f 179/2/3 133/2/3 125/2/3
f 179/3/3 125/3/3 178/3/3
f 180/3/3 171/3/3 170/3/3
f 180/2/3 169/2/3 179/2/3
f 180/3/3 170/3/3 169/3/3
f 181/3/3 171/3/3 180/3/3
f 182/3/3 171/3/3 181/3/3
f 183/3/3 177/3/3 176/3/3
f 183/3/3 175/3/3 174/3/3
f 183/3/3 181/3/3 180/3/3
f 183/3/3 180/3/3 179/3/3
f 183/3/3 178/3/3 177/3/3
f 183/3/3 179/3/3 178/3/3
f 183/3/3 176/3/3 175/3/3
f 184/3/3 181/3/3 183/3/3
f 185/3/3 181/3/3 184/3/3
f 186/3/3 181/3/3 185/3/3
f 187/3/3 185/3/3 184/3/3
f 188/3/3 185/3/3 187/3/3
f 194/2/3 190/2/3 189/2/3
f 196/2/3 194/2/3 193/2/3
f 198/2/3 196/2/3 195/2/3
f 199/2/3 198/2/3 197/2/3
f 200/2/3 190/2/3 194/2/3
f 200/2/3 198/2/3 199/2/3
f 200/2/3 194/2/3 196/2/3
f 200/2/3 196/2/3 198/2/3
f 203/2/3 202/2/3 201/2/3
f 204/2/3 202/2/3 203/2/3
f 205/2/3 202/2/3 204/2/3
f 206/2/3 202/2/3 205/2/3
f 207/2/3 202/2/3 206/2/3
f 208/2/3 202/2/3 207/2/3
f 209/2/3 192/2/3 191/2/3
f 210/2/3 192/2/3 209/2/3
f 211/3/4 212/3/4 214/3/4
f 214/3/4 212/3/4 215/3/4
f 215/3/4 212/3/4 216/3/4
f 216/3/4 212/3/4 217/3/4
f 217/3/4 212/3/4 218/3/4
f 218/3/4 212/3/4 219/3/4
f 219/3/4 212/3/4 220/3/4
f 220/3/4 212/3/4 221/3/4
f 213/3/4 214/3/4 224/3/4
f 214/3/4 215/3/4 224/3/4
f 224/3/4 215/3/4 225/3/4
f 215/2/4 216/2/4 226/2/4
f 225/3/4 215/3/4 226/3/4
f 221/3/4 222/3/4 227/3/4
f 220/3/4 221/3/4 227/3/4
f 219/1/4 220/1/4 227/1/4
f 227/3/4 222/3/4 228/3/4
f 228/3/4 222/3/4 229/3/4
f 224/3/4 225/3/4 232/3/4
f 223/3/4 224/3/4 232/3/4
f 232/3/4 225/3/4 233/3/4
f 225/2/4 226/2/4 234/2/4
f 233/3/4 225/3/4 234/3/4
f 229/3/4 230/3/4 235/3/4
f 228/3/4 229/3/4 235/3/4
f 227/1/4 228/1/4 235/1/4
f 235/3/4 230/3/4 236/3/4
f 236/3/4 230/3/4 237/3/4
f 232/3/4 233/3/4 240/3/4
f 231/3/4 232/3/4 240/3/4
f 240/3/4 233/3/4 241/3/4
f 233/2/4 234/2/4 242/2/4
f 241/3/4 233/3/4 242/3/4
f 237/3/4 238/3/4 243/3/4
f 236/3/4 237/3/4 243/3/4
f 235/1/4 236/1/4 243/1/4
f 243/3/4 238/3/4 244/3/4
f 244/3/4 238/3/4 245/3/4
f 240/3/4 241/3/4 247/3/4
f 241/2/4 242/2/4 247/2/4
f 239/3/4 240/3/4 247/3/4
f 226/2/4 216/2/4 248/2/4
f 247/2/4 242/2/4 248/2/4
f 242/2/4 234/2/4 248/2/4
f 234/2/4 226/2/4 248/2/4
f 216/3/4 217/3/4 248/3/4
f 239/3/4 247/3/4 249/3/4
f 247/3/4 248/3/4 249/3/4
f 248/3/4 217/3/4 250/3/4
f 249/3/4 248/3/4 250/3/4
f 239/3/4 249/3/4 251/3/4
f 251/3/4 249/3/4 252/3/4
f 249/2/4 250/2/4 253/2/4
f 252/3/4 249/3/4 253/3/4
f 253/2/4 250/2/4 254/2/4
f 235/1/4 243/1/4 255/1/4
f 243/1/4 244/1/4 255/1/4
f 245/3/4 246/3/4 256/3/4
f 255/1/4 244/1/4 256/1/4
f 244/3/4 245/3/4 256/3/4
f 256/3/4 246/3/4 257/3/4
f 257/3/4 246/3/4 258/3/4
f 253/3/4 254/3/4 259/3/4
f 252/3/4 253/3/4 259/3/4
f 259/3/4 254/3/4 260/3/4
f 254/2/4 250/2/4 261/2/4
f 260/3/4 254/3/4 261/3/4
f 261/2/4 250/2/4 262/2/4
f 235/1/4 255/1/4 263/1/4
f 227/1/4 235/1/4 263/1/4
f 256/3/4 257/3/4 264/3/4
f 263/1/4 255/1/4 264/1/4
f 255/3/4 256/3/4 264/3/4
f 264/3/4 257/3/4 265/3/4
f 265/3/4 257/3/4 266/3/4
f 261/3/4 262/3/4 267/3/4
f 260/3/4 261/3/4 267/3/4
f 267/3/4 262/3/4 268/3/4
f 262/2/4 250/2/4 269/2/4
f 268/3/4 262/3/4 269/3/4
f 250/3/4 217/3/4 270/3/4
f 269/2/4 250/2/4 270/2/4
f 217/2/4 218/2/4 271/2/4
f 270/3/4 217/3/4 271/3/4
f 218/3/4 219/3/4 272/3/4
f 271/2/4 218/2/4 272/2/4
f 219/1/4 227/1/4 273/1/4
f 272/3/4 219/3/4 273/3/4
f 227/1/4 263/1/4 273/1/4
f 264/3/4 265/3/4 274/3/4
f 273/1/4 263/1/4 274/1/4
f 263/3/4 264/3/4 274/3/4
f 274/3/4 265/3/4 275/3/4
f 275/3/4 265/3/4 276/3/4
f 268/3/4 269/3/4 277/3/4
f 269/3/4 270/3/4 277/3/4
f 274/3/4 275/3/4 277/3/4
f 273/3/4 274/3/4 277/3/4
f 270/3/4 271/3/4 277/3/4
f 272/3/4 273/3/4 277/3/4
f 271/3/4 272/3/4 277/3/4
f 277/3/4 275/3/4 278/3/4
f 278/3/4 275/3/4 279/3/4
f 279/3/4 275/3/4 280/3/4
f 278/3/4 279/3/4 281/3/4
f 281/3/4 279/3/4 282/3/4
f 285/3/5 284/3/5 283/3/5
f 286/3/5 284/3/5 285/3/5
f 291/3/5 288/3/5 287/3/5
f 292/3/5 288/3/5 291/3/5
f 293/3/5 290/3/5 289/3/5
f 294/3/5 290/3/5 293/3/5
f 299/3/5 296/3/5 295/3/5
f 300/3/5 296/3/5 299/3/5
f 301/3/5 298/3/5 297/3/5
f 302/3/5 298/3/5 301/3/5
f 307/3/5 304/3/5 303/3/5
f 308/3/5 304/3/5 307/3/5
f 309/3/5 306/3/5 305/3/5
f 310/3/5 306/3/5 309/3/5
f 315/3/5 312/3/5 311/3/5
f 316/3/5 312/3/5 315/3/5
f 317/3/5 314/3/5 313/3/5
f 318/3/5 314/3/5 317/3/5
f 323/3/5 320/3/5 319/3/5
f 324/3/5 320/3/5 323/3/5
f 325/3/5 322/3/5 321/3/5
f 326/3/5 322/3/5 325/3/5
f 329/3/5 328/3/5 327/3/5
f 330/3/5 328/3/5 329/3/5
f 331/3/6 332/3/6 335/3/6
f 335/3/6 332/3/6 336/3/6
f 333/3/6 334/3/6 337/3/6
f 337/3/6 334/3/6 338/3/6
f 339/3/6 340/3/6 343/3/6
f 343/3/6 340/3/6 344/3/6
f 341/3/6 342/3/6 345/3/6
f 345/3/6 342/3/6 346/3/6
f 347/3/6 348/3/6 351/3/6
f 351/3/6 348/3/6 352/3/6
f 349/3/6 350/3/6 353/3/6
f 353/3/6 350/3/6 354/3/6
f 355/3/6 356/3/6 357/3/6
f 357/3/6 356/3/6 358/3/6
f 359/3/6 360/3/6 361/3/6
f 361/3/6 360/3/6 362/3/6
f 363/3/6 364/3/6 367/3/6
f 367/3/6 364/3/6 368/3/6
f 365/3/6 366/3/6 369/3/6
f 369/3/6 366/3/6 370/3/6
f 371/3/6 372/3/6 375/3/6
f 375/3/6 372/3/6 376/3/6
f 373/3/6 374/3/6 377/3/6
f 377/3/6 374/3/6 378/3/6
f 379/3/6 380/3/6 383/3/6
f 383/3/6 380/3/6 384/3/6
f 381/3/6 382/3/6 385/3/6
f 385/3/6 382/3/6 386/3/6
f 387/3/6 388/3/6 391/3/6
f 391/3/6 388/3/6 392/3/6
f 389/3/6 390/3/6 393/3/6
f 393/3/6 390/3/6 394/3/6
f 395/3/6 396/3/6 397/3/6
f 397/3/6 396/3/6 398/3/6
