# MagicaVoxel @ Ephtracy

# group
o 

# material
mtllib RadialLoading.mtl
usemtl palette

# normals
vn -1 0 0
vn 1 0 0
vn 0 0 1
vn 0 0 -1
vn 0 -1 0
vn 0 1 0

# texcoords
vt 0.919922 0.5
vt 0.955078 0.5
vt 0.982422 0.5
vt 0.994141 0.5

# verts
v -1.2 -0.1 0.05
v -1.2 -0.1 -0.05
v -1.2 0.8 0.05
v -1.2 0.8 -0.05
v -1.1 -0.2 0.05
v -1.1 -0.2 -0.05
v -1.1 -0.1 0.05
v -1.1 -0.1 -0.05
v -1 -0.3 0.05
v -1 -0.3 -0.05
v -1 -0.2 0.05
v -1 -0.2 -0.05
v -0.9 -0.4 0.05
v -0.9 -0.4 -0.05
v -0.9 -0.3 0.05
v -0.9 -0.3 -0.05
v -0.3 -0.6 0.05
v -0.3 -0.6 -0.05
v -0.3 -0.5 0.05
v -0.3 -0.5 -0.05
v -0.2 -0.7 0.05
v -0.2 -0.7 -0.05
v -0.2 -0.6 0.05
v -0.2 -0.6 -0.05
v -0.1 -0.8 0.05
v -0.1 -0.8 -0.05
v -0.1 -0.7 0.05
v -0.1 -0.7 -0.05
v 0.4 -0.2 0.05
v 0.4 -0.2 -0.05
v 0.4 -0.1 0.05
v 0.4 -0.1 -0.05
v 0.5 -0.3 0.05
v 0.5 -0.3 -0.05
v 0.5 -0.2 0.05
v 0.5 -0.2 -0.05
v 0.6 -0.4 0.05
v 0.6 -0.4 -0.05
v 0.6 -0.3 0.05
v 0.6 -0.3 -0.05
v -0.7 -0.4 0.05
v -0.7 -0.4 -0.05
v -0.7 -0.3 0.05
v -0.7 -0.3 -0.05
v -0.7 0.6 0.05
v -0.7 0.6 -0.05
v -0.7 0.8 0.05
v -0.7 0.8 -0.05
v -0.6 -0.3 0.05
v -0.6 -0.3 -0.05
v -0.6 -0.2 0.05
v -0.6 -0.2 -0.05
v -0.5 -0.2 0.05
v -0.5 -0.2 -0.05
v -0.5 -0.1 0.05
v -0.5 -0.1 -0.05
v 0 -0.8 0.05
v 0 -0.8 -0.05
v 0 -0.7 0.05
v 0 -0.7 -0.05
v 0.0999999 -0.7 0.05
v 0.0999999 -0.7 -0.05
v 0.0999999 -0.6 0.05
v 0.0999999 -0.6 -0.05
v 0.2 -0.6 0.05
v 0.2 -0.6 -0.05
v 0.2 -0.5 0.05
v 0.2 -0.5 -0.05
v 0.7 0.5 0.05
v 0.7 0.5 -0.05
v 0.7 0.6 0.05
v 0.7 0.6 -0.05
v 0.8 -0.4 0.05
v 0.8 -0.4 -0.05
v 0.8 -0.3 0.05
v 0.8 -0.3 -0.05
v 0.9 -0.3 0.05
v 0.9 -0.3 -0.05
v 0.9 -0.2 0.05
v 0.9 -0.2 -0.05
v 1 -0.2 0.05
v 1 -0.2 -0.05
v 1 -0.1 0.05
v 1 -0.1 -0.05
v 1 0.4 0.05
v 1 0.4 -0.05
v 1 0.5 0.05
v 1 0.5 -0.05
v 1.2 0.3 0.05
v 1.2 0.3 -0.05
v 1.2 0.4 0.05
v 1.2 0.4 -0.05
v 1.3 -0.1 0.05
v 1.3 -0.1 -0.05
v 1.3 0.3 0.05
v 1.3 0.3 -0.05
v -1.2 -0.1 0.05
v -1.2 0.8 0.05
v -1.1 -0.2 0.05
v -1.1 -0.1 0.05
v -1.1 0 0.05
v -1 -0.3 0.05
v -1 -0.2 0.05
v -1 0 0.05
v -1 0.1 0.05
v -0.9 -0.4 0.05
v -0.9 -0.3 0.05
v -0.9 0.1 0.05
v -0.9 0.2 0.05
v -0.7 -0.4 0.05
v -0.7 -0.3 0.05
v -0.7 0.1 0.05
v -0.7 0.2 0.05
v -0.7 0.6 0.05
v -0.7 0.8 0.05
v -0.6 -0.3 0.05
v -0.6 -0.2 0.05
v -0.6 0 0.05
v -0.6 0.1 0.05
v -0.5 -0.2 0.05
v -0.5 -0.1 0.05
v -0.5 0 0.05
v -0.3 -0.6 0.05
v -0.3 -0.5 0.05
v -0.2 -0.7 0.05
v -0.2 -0.6 0.05
v -0.1 -0.8 0.05
v -0.1 -0.7 0.05
v -0.1 0.2 0.05
v -0.1 0.3 0.05
v 0 -0.8 0.05
v 0 -0.7 0.05
v 0.0999999 -0.7 0.05
v 0.0999999 -0.6 0.05
v 0.0999999 0.2 0.05
v 0.0999999 0.3 0.05
v 0.2 -0.6 0.05
v 0.2 -0.5 0.05
v 0.3 0.5 0.05
v 0.3 0.6 0.05
v 0.4 -0.2 0.05
v 0.4 -0.1 0.05
v 0.4 0 0.05
v 0.4 0.4 0.05
v 0.4 0.5 0.05
v 0.5 -0.3 0.05
v 0.5 -0.2 0.05
v 0.5 0 0.05
v 0.5 0.1 0.05
v 0.6 -0.4 0.05
v 0.6 -0.3 0.05
v 0.6 0.1 0.05
v 0.6 0.2 0.05
v 0.6 0.3 0.05
v 0.6 0.4 0.05
v 0.7 0.5 0.05
v 0.7 0.6 0.05
v 0.8 -0.4 0.05
v 0.8 -0.3 0.05
v 0.8 0.1 0.05
v 0.8 0.2 0.05
v 0.9 -0.3 0.05
v 0.9 -0.2 0.05
v 0.9 0 0.05
v 0.9 0.1 0.05
v 1 -0.2 0.05
v 1 -0.1 0.05
v 1 0 0.05
v 1 0.4 0.05
v 1 0.5 0.05
v 1.2 0.3 0.05
v 1.2 0.4 0.05
v 1.3 -0.1 0.05
v 1.3 0.3 0.05
v -1.2 -0.1 -0.05
v -1.2 0.8 -0.05
v -1.1 -0.2 -0.05
v -1.1 -0.1 -0.05
v -1.1 0 -0.05
v -1 -0.3 -0.05
v -1 -0.2 -0.05
v -1 0 -0.05
v -1 0.1 -0.05
v -0.9 -0.4 -0.05
v -0.9 -0.3 -0.05
v -0.9 0.1 -0.05
v -0.9 0.2 -0.05
v -0.7 -0.4 -0.05
v -0.7 -0.3 -0.05
v -0.7 0.1 -0.05
v -0.7 0.2 -0.05
v -0.7 0.6 -0.05
v -0.7 0.8 -0.05
v -0.6 -0.3 -0.05
v -0.6 -0.2 -0.05
v -0.6 0 -0.05
v -0.6 0.1 -0.05
v -0.5 -0.2 -0.05
v -0.5 -0.1 -0.05
v -0.5 0 -0.05
v -0.3 -0.6 -0.05
v -0.3 -0.5 -0.05
v -0.2 -0.7 -0.05
v -0.2 -0.6 -0.05
v -0.1 -0.8 -0.05
v -0.1 -0.7 -0.05
v -0.1 0.2 -0.05
v -0.1 0.3 -0.05
v 0 -0.8 -0.05
v 0 -0.7 -0.05
v 0.0999999 -0.7 -0.05
v 0.0999999 -0.6 -0.05
v 0.0999999 0.2 -0.05
v 0.0999999 0.3 -0.05
v 0.2 -0.6 -0.05
v 0.2 -0.5 -0.05
v 0.3 0.5 -0.05
v 0.3 0.6 -0.05
v 0.4 -0.2 -0.05
v 0.4 -0.1 -0.05
v 0.4 0 -0.05
v 0.4 0.4 -0.05
v 0.4 0.5 -0.05
v 0.5 -0.3 -0.05
v 0.5 -0.2 -0.05
v 0.5 0 -0.05
v 0.5 0.1 -0.05
v 0.6 -0.4 -0.05
v 0.6 -0.3 -0.05
v 0.6 0.1 -0.05
v 0.6 0.2 -0.05
v 0.6 0.3 -0.05
v 0.6 0.4 -0.05
v 0.7 0.5 -0.05
v 0.7 0.6 -0.05
v 0.8 -0.4 -0.05
v 0.8 -0.3 -0.05
v 0.8 0.1 -0.05
v 0.8 0.2 -0.05
v 0.9 -0.3 -0.05
v 0.9 -0.2 -0.05
v 0.9 0 -0.05
v 0.9 0.1 -0.05
v 1 -0.2 -0.05
v 1 -0.1 -0.05
v 1 0 -0.05
v 1 0.4 -0.05
v 1 0.5 -0.05
v 1.2 0.3 -0.05
v 1.2 0.4 -0.05
v 1.3 -0.1 -0.05
v 1.3 0.3 -0.05
v -0.1 -0.8 0.05
v 0 -0.8 0.05
v -0.1 -0.8 -0.05
v 0 -0.8 -0.05
v -0.2 -0.7 0.05
v -0.1 -0.7 0.05
v 0 -0.7 0.05
v 0.0999999 -0.7 0.05
v -0.2 -0.7 -0.05
v -0.1 -0.7 -0.05
v 0 -0.7 -0.05
v 0.0999999 -0.7 -0.05
v -0.3 -0.6 0.05
v -0.2 -0.6 0.05
v 0.0999999 -0.6 0.05
v 0.2 -0.6 0.05
v -0.3 -0.6 -0.05
v -0.2 -0.6 -0.05
v 0.0999999 -0.6 -0.05
v 0.2 -0.6 -0.05
v -0.9 -0.4 0.05
v -0.7 -0.4 0.05
v 0.6 -0.4 0.05
v 0.8 -0.4 0.05
v -0.9 -0.4 -0.05
v -0.7 -0.4 -0.05
v 0.6 -0.4 -0.05
v 0.8 -0.4 -0.05
v -1 -0.3 0.05
v -0.9 -0.3 0.05
v -0.7 -0.3 0.05
v -0.6 -0.3 0.05
v 0.5 -0.3 0.05
v 0.6 -0.3 0.05
v 0.8 -0.3 0.05
v 0.9 -0.3 0.05
v -1 -0.3 -0.05
v -0.9 -0.3 -0.05
v -0.7 -0.3 -0.05
v -0.6 -0.3 -0.05
v 0.5 -0.3 -0.05
v 0.6 -0.3 -0.05
v 0.8 -0.3 -0.05
v 0.9 -0.3 -0.05
v -1.1 -0.2 0.05
v -1 -0.2 0.05
v -0.6 -0.2 0.05
v -0.5 -0.2 0.05
v 0.4 -0.2 0.05
v 0.5 -0.2 0.05
v 0.9 -0.2 0.05
v 1 -0.2 0.05
v -1.1 -0.2 -0.05
v -1 -0.2 -0.05
v -0.6 -0.2 -0.05
v -0.5 -0.2 -0.05
v 0.4 -0.2 -0.05
v 0.5 -0.2 -0.05
v 0.9 -0.2 -0.05
v 1 -0.2 -0.05
v -1.2 -0.1 0.05
v -1.1 -0.1 0.05
v -0.5 -0.1 0.05
v 0.4 -0.1 0.05
v 1 -0.1 0.05
v 1.3 -0.1 0.05
v -1.2 -0.1 -0.05
v -1.1 -0.1 -0.05
v -0.5 -0.1 -0.05
v 0.4 -0.1 -0.05
v 1 -0.1 -0.05
v 1.3 -0.1 -0.05
v -0.3 -0.5 0.05
v 0.2 -0.5 0.05
v -0.3 -0.5 -0.05
v 0.2 -0.5 -0.05
v 1.2 0.3 0.05
v 1.3 0.3 0.05
v 1.2 0.3 -0.05
v 1.3 0.3 -0.05
v 1 0.4 0.05
v 1.2 0.4 0.05
v 1 0.4 -0.05
v 1.2 0.4 -0.05
v 0.7 0.5 0.05
v 1 0.5 0.05
v 0.7 0.5 -0.05
v 1 0.5 -0.05
v -0.7 0.6 0.05
v 0.3 0.6 0.05
v 0.7 0.6 0.05
v -0.7 0.6 -0.05
v 0.3 0.6 -0.05
v 0.7 0.6 -0.05
v -1.2 0.8 0.05
v -0.7 0.8 0.05
v -1.2 0.8 -0.05
v -0.7 0.8 -0.05

# faces
f 3/1/1 2/1/1 1/1/1
f 4/1/1 2/1/1 3/1/1
f 7/2/1 6/2/1 5/2/1
f 8/2/1 6/2/1 7/2/1
f 11/2/1 10/2/1 9/2/1
f 12/2/1 10/2/1 11/2/1
f 15/2/1 14/2/1 13/2/1
f 16/2/1 14/2/1 15/2/1
f 19/2/1 18/2/1 17/2/1
f 20/2/1 18/2/1 19/2/1
f 23/2/1 22/2/1 21/2/1
f 24/2/1 22/2/1 23/2/1
f 27/2/1 26/2/1 25/2/1
f 28/2/1 26/2/1 27/2/1
f 31/2/1 30/2/1 29/2/1
f 32/2/1 30/2/1 31/2/1
f 35/2/1 34/2/1 33/2/1
f 36/2/1 34/2/1 35/2/1
f 39/2/1 38/2/1 37/2/1
f 40/2/1 38/2/1 39/2/1
f 41/2/2 42/2/2 43/2/2
f 43/2/2 42/2/2 44/2/2
f 45/1/2 46/1/2 47/1/2
f 47/1/2 46/1/2 48/1/2
f 49/2/2 50/2/2 51/2/2
f 51/2/2 50/2/2 52/2/2
f 53/2/2 54/2/2 55/2/2
f 55/2/2 54/2/2 56/2/2
f 57/2/2 58/2/2 59/2/2
f 59/2/2 58/2/2 60/2/2
f 61/2/2 62/2/2 63/2/2
f 63/2/2 62/2/2 64/2/2
f 65/2/2 66/2/2 67/2/2
f 67/2/2 66/2/2 68/2/2
f 69/4/2 70/4/2 71/4/2
f 71/4/2 70/4/2 72/4/2
f 73/2/2 74/2/2 75/2/2
f 75/2/2 74/2/2 76/2/2
f 77/2/2 78/2/2 79/2/2
f 79/2/2 78/2/2 80/2/2
f 81/2/2 82/2/2 83/2/2
f 83/2/2 82/2/2 84/2/2
f 85/4/2 86/4/2 87/4/2
f 87/4/2 86/4/2 88/4/2
f 89/4/2 90/4/2 91/4/2
f 91/4/2 90/4/2 92/4/2
f 93/1/2 94/1/2 95/1/2
f 95/1/2 94/1/2 96/1/2
f 100/1/3 98/1/3 97/1/3
f 101/1/3 98/1/3 100/1/3
f 103/2/3 100/2/3 99/2/3
f 103/2/3 101/2/3 100/2/3
f 104/1/3 98/1/3 101/1/3
f 104/2/3 101/2/3 103/2/3
f 105/1/3 98/1/3 104/1/3
f 107/2/3 103/2/3 102/2/3
f 107/2/3 104/2/3 103/2/3
f 107/2/3 105/2/3 104/2/3
f 108/1/3 98/1/3 105/1/3
f 108/2/3 105/2/3 107/2/3
f 109/1/3 98/1/3 108/1/3
f 110/2/3 107/2/3 106/2/3
f 110/2/3 108/2/3 107/2/3
f 110/2/3 109/2/3 108/2/3
f 111/2/3 109/2/3 110/2/3
f 112/2/3 109/2/3 111/2/3
f 113/1/3 98/1/3 109/1/3
f 113/2/3 109/2/3 112/2/3
f 114/1/3 98/1/3 113/1/3
f 115/1/3 98/1/3 114/1/3
f 116/2/3 112/2/3 111/2/3
f 117/2/3 112/2/3 116/2/3
f 118/2/3 112/2/3 117/2/3
f 119/1/3 114/1/3 113/1/3
f 119/2/3 112/2/3 118/2/3
f 119/1/3 113/1/3 112/1/3
f 120/2/3 118/2/3 117/2/3
f 121/2/3 118/2/3 120/2/3
f 122/1/3 119/1/3 118/1/3
f 122/2/3 118/2/3 121/2/3
f 126/2/3 124/2/3 123/2/3
f 128/2/3 126/2/3 125/2/3
f 129/1/3 114/1/3 119/1/3
f 129/1/3 119/1/3 122/1/3
f 129/1/3 122/1/3 121/1/3
f 130/1/3 114/1/3 129/1/3
f 131/2/3 128/2/3 127/2/3
f 132/2/3 126/2/3 128/2/3
f 132/2/3 128/2/3 131/2/3
f 133/2/3 126/2/3 132/2/3
f 134/2/3 124/2/3 126/2/3
f 134/2/3 126/2/3 133/2/3
f 135/1/3 129/1/3 121/1/3
f 135/3/3 130/3/3 129/3/3
f 136/1/3 114/1/3 130/1/3
f 136/3/3 130/3/3 135/3/3
f 137/2/3 124/2/3 134/2/3
f 138/2/3 124/2/3 137/2/3
f 139/1/3 114/1/3 136/1/3
f 139/1/3 136/1/3 135/1/3
f 140/1/3 114/1/3 139/1/3
f 142/1/3 135/1/3 121/1/3
f 142/1/3 139/1/3 135/1/3
f 143/1/3 139/1/3 142/1/3
f 144/1/3 139/1/3 143/1/3
f 145/4/3 140/4/3 139/4/3
f 145/1/3 139/1/3 144/1/3
f 147/2/3 142/2/3 141/2/3
f 147/2/3 143/2/3 142/2/3
f 148/1/3 144/1/3 143/1/3
f 148/2/3 143/2/3 147/2/3
f 149/1/3 144/1/3 148/1/3
f 151/2/3 147/2/3 146/2/3
f 151/2/3 148/2/3 147/2/3
f 151/2/3 149/2/3 148/2/3
f 152/1/3 144/1/3 149/1/3
f 152/2/3 149/2/3 151/2/3
f 153/1/3 144/1/3 152/1/3
f 154/1/3 144/1/3 153/1/3
f 155/4/3 145/4/3 144/4/3
f 155/1/3 144/1/3 154/1/3
f 156/4/3 140/4/3 145/4/3
f 156/4/3 145/4/3 155/4/3
f 156/4/3 155/4/3 154/4/3
f 157/4/3 140/4/3 156/4/3
f 158/2/3 151/2/3 150/2/3
f 158/2/3 153/2/3 152/2/3
f 158/2/3 152/2/3 151/2/3
f 159/2/3 153/2/3 158/2/3
f 160/2/3 153/2/3 159/2/3
f 161/1/3 154/1/3 153/1/3
f 161/2/3 153/2/3 160/2/3
f 162/2/3 160/2/3 159/2/3
f 163/2/3 160/2/3 162/2/3
f 164/2/3 160/2/3 163/2/3
f 165/1/3 161/1/3 160/1/3
f 165/2/3 160/2/3 164/2/3
f 166/2/3 164/2/3 163/2/3
f 167/2/3 164/2/3 166/2/3
f 168/1/3 165/1/3 164/1/3
f 168/2/3 164/2/3 167/2/3
f 169/4/3 156/4/3 154/4/3
f 170/4/3 156/4/3 169/4/3
f 171/1/3 165/1/3 168/1/3
f 171/1/3 154/1/3 161/1/3
f 171/4/3 169/4/3 154/4/3
f 171/1/3 168/1/3 167/1/3
f 171/1/3 161/1/3 165/1/3
f 172/4/3 169/4/3 171/4/3
f 173/1/3 171/1/3 167/1/3
f 174/1/3 171/1/3 173/1/3
f 175/1/4 176/1/4 178/1/4
f 178/1/4 176/1/4 179/1/4
f 177/2/4 178/2/4 181/2/4
f 178/2/4 179/2/4 181/2/4
f 179/1/4 176/1/4 182/1/4
f 181/2/4 179/2/4 182/2/4
f 182/1/4 176/1/4 183/1/4
f 180/2/4 181/2/4 185/2/4
f 181/2/4 182/2/4 185/2/4
f 182/2/4 183/2/4 185/2/4
f 183/1/4 176/1/4 186/1/4
f 185/2/4 183/2/4 186/2/4
f 186/1/4 176/1/4 187/1/4
f 184/2/4 185/2/4 188/2/4
f 185/2/4 186/2/4 188/2/4
f 186/2/4 187/2/4 188/2/4
f 188/2/4 187/2/4 189/2/4
f 189/2/4 187/2/4 190/2/4
f 187/1/4 176/1/4 191/1/4
f 190/2/4 187/2/4 191/2/4
f 191/1/4 176/1/4 192/1/4
f 192/1/4 176/1/4 193/1/4
f 189/2/4 190/2/4 194/2/4
f 194/2/4 190/2/4 195/2/4
f 195/2/4 190/2/4 196/2/4
f 191/1/4 192/1/4 197/1/4
f 196/2/4 190/2/4 197/2/4
f 190/1/4 191/1/4 197/1/4
f 195/2/4 196/2/4 198/2/4
f 198/2/4 196/2/4 199/2/4
f 196/1/4 197/1/4 200/1/4
f 199/2/4 196/2/4 200/2/4
f 201/2/4 202/2/4 204/2/4
f 203/2/4 204/2/4 206/2/4
f 197/1/4 192/1/4 207/1/4
f 200/1/4 197/1/4 207/1/4
f 199/1/4 200/1/4 207/1/4
f 207/1/4 192/1/4 208/1/4
f 205/2/4 206/2/4 209/2/4
f 206/2/4 204/2/4 210/2/4
f 209/2/4 206/2/4 210/2/4
f 210/2/4 204/2/4 211/2/4
f 204/2/4 202/2/4 212/2/4
f 211/2/4 204/2/4 212/2/4
f 199/1/4 207/1/4 213/1/4
f 207/3/4 208/3/4 213/3/4
f 208/1/4 192/1/4 214/1/4
f 213/3/4 208/3/4 214/3/4
f 212/2/4 202/2/4 215/2/4
f 215/2/4 202/2/4 216/2/4
f 214/1/4 192/1/4 217/1/4
f 213/1/4 214/1/4 217/1/4
f 217/1/4 192/1/4 218/1/4
f 199/1/4 213/1/4 220/1/4
f 213/1/4 217/1/4 220/1/4
f 220/1/4 217/1/4 221/1/4
f 221/1/4 217/1/4 222/1/4
f 217/4/4 218/4/4 223/4/4
f 222/1/4 217/1/4 223/1/4
f 219/2/4 220/2/4 225/2/4
f 220/2/4 221/2/4 225/2/4
f 221/1/4 222/1/4 226/1/4
f 225/2/4 221/2/4 226/2/4
f 226/1/4 222/1/4 227/1/4
f 224/2/4 225/2/4 229/2/4
f 225/2/4 226/2/4 229/2/4
f 226/2/4 227/2/4 229/2/4
f 227/1/4 222/1/4 230/1/4
f 229/2/4 227/2/4 230/2/4
f 230/1/4 222/1/4 231/1/4
f 231/1/4 222/1/4 232/1/4
f 222/4/4 223/4/4 233/4/4
f 232/1/4 222/1/4 233/1/4
f 223/4/4 218/4/4 234/4/4
f 233/4/4 223/4/4 234/4/4
f 232/4/4 233/4/4 234/4/4
f 234/4/4 218/4/4 235/4/4
f 228/2/4 229/2/4 236/2/4
f 230/2/4 231/2/4 236/2/4
f 229/2/4 230/2/4 236/2/4
f 236/2/4 231/2/4 237/2/4
f 237/2/4 231/2/4 238/2/4
f 231/1/4 232/1/4 239/1/4
f 238/2/4 231/2/4 239/2/4
f 237/2/4 238/2/4 240/2/4
f 240/2/4 238/2/4 241/2/4
f 241/2/4 238/2/4 242/2/4
f 238/1/4 239/1/4 243/1/4
f 242/2/4 238/2/4 243/2/4
f 241/2/4 242/2/4 244/2/4
f 244/2/4 242/2/4 245/2/4
f 242/1/4 243/1/4 246/1/4
f 245/2/4 242/2/4 246/2/4
f 232/4/4 234/4/4 247/4/4
f 247/4/4 234/4/4 248/4/4
f 246/1/4 243/1/4 249/1/4
f 239/1/4 232/1/4 249/1/4
f 232/4/4 247/4/4 249/4/4
f 245/1/4 246/1/4 249/1/4
f 243/1/4 239/1/4 249/1/4
f 249/4/4 247/4/4 250/4/4
f 245/1/4 249/1/4 251/1/4
f 251/1/4 249/1/4 252/1/4
f 255/2/5 254/2/5 253/2/5
f 256/2/5 254/2/5 255/2/5
f 261/2/5 258/2/5 257/2/5
f 262/2/5 258/2/5 261/2/5
f 263/2/5 260/2/5 259/2/5
f 264/2/5 260/2/5 263/2/5
f 269/2/5 266/2/5 265/2/5
f 270/2/5 266/2/5 269/2/5
f 271/2/5 268/2/5 267/2/5
f 272/2/5 268/2/5 271/2/5
f 277/2/5 274/2/5 273/2/5
f 278/2/5 274/2/5 277/2/5
f 279/2/5 276/2/5 275/2/5
f 280/2/5 276/2/5 279/2/5
f 289/2/5 282/2/5 281/2/5
f 290/2/5 282/2/5 289/2/5
f 291/2/5 284/2/5 283/2/5
f 292/2/5 284/2/5 291/2/5
f 293/2/5 286/2/5 285/2/5
f 294/2/5 286/2/5 293/2/5
f 295/2/5 288/2/5 287/2/5
f 296/2/5 288/2/5 295/2/5
f 305/2/5 298/2/5 297/2/5
f 306/2/5 298/2/5 305/2/5
f 307/2/5 300/2/5 299/2/5
f 308/2/5 300/2/5 307/2/5
f 309/2/5 302/2/5 301/2/5
f 310/2/5 302/2/5 309/2/5
f 311/2/5 304/2/5 303/2/5
f 312/2/5 304/2/5 311/2/5
f 319/1/5 314/1/5 313/1/5
f 320/1/5 314/1/5 319/1/5
f 321/1/5 316/1/5 315/1/5
f 322/1/5 316/1/5 321/1/5
f 323/1/5 318/1/5 317/1/5
f 324/1/5 318/1/5 323/1/5
f 325/2/6 326/2/6 327/2/6
f 327/2/6 326/2/6 328/2/6
f 329/1/6 330/1/6 331/1/6
f 331/1/6 330/1/6 332/1/6
f 333/4/6 334/4/6 335/4/6
f 335/4/6 334/4/6 336/4/6
f 337/4/6 338/4/6 339/4/6
f 339/4/6 338/4/6 340/4/6
f 341/1/6 342/1/6 344/1/6
f 342/4/6 343/4/6 345/4/6
f 344/1/6 342/1/6 345/1/6
f 345/4/6 343/4/6 346/4/6
f 347/1/6 348/1/6 349/1/6
f 349/1/6 348/1/6 350/1/6
