# MagicaVoxel @ Ephtracy

# group
o 

# material
mtllib RouteProgressBar.mtl
usemtl palette

# normals
vn -1 0 0
vn 1 0 0
vn 0 0 1
vn 0 0 -1
vn 0 -1 0
vn 0 1 0

# texcoords
vt 0.255859 0.5
vt 0.396484 0.5
vt 0.845703 0.5
vt 0.849609 0.5
vt 0.853516 0.5
vt 0.857422 0.5
vt 0.884766 0.5
vt 0.888672 0.5
vt 0.892578 0.5
vt 0.896484 0.5
vt 0.958984 0.5
vt 0.994141 0.5

# verts
v -1.55 -0.25 0.05
v -1.55 -0.25 -0.05
v -1.55 0.25 0.05
v -1.55 0.25 -0.05
v -1.25 -0.15 0.05
v -1.25 -0.15 -0.05
v -1.25 -0.05 0.05
v -1.25 -0.05 -0.05
v -0.95 -0.15 0.05
v -0.95 -0.15 -0.05
v -0.95 -0.05 0.05
v -0.95 -0.05 -0.05
v -0.65 -0.15 0.05
v -0.65 -0.15 -0.05
v -0.65 -0.05 0.05
v -0.65 -0.05 -0.05
v -0.35 -0.15 0.05
v -0.35 -0.15 -0.05
v -0.35 -0.05 0.05
v -0.35 -0.05 -0.05
v -0.05 -0.15 0.05
v -0.05 -0.15 -0.05
v -0.05 -0.05 0.05
v -0.05 -0.05 -0.05
v 0.25 -0.15 0.05
v 0.25 -0.15 -0.05
v 0.25 -0.05 0.05
v 0.25 -0.05 -0.05
v 0.55 -0.15 0.05
v 0.55 -0.15 -0.05
v 0.55 -0.05 0.05
v 0.55 -0.05 -0.05
v 0.85 -0.15 0.05
v 0.85 -0.15 -0.05
v 0.85 -0.05 0.05
v 0.85 -0.05 -0.05
v 1.15 -0.15 0.05
v 1.15 -0.15 -0.05
v 1.15 -0.05 0.05
v 1.15 -0.05 -0.05
v 1.45 -0.15 0.05
v 1.45 -0.15 -0.05
v 1.45 -0.05 0.05
v 1.45 -0.05 -0.05
v 1.45 0.05 0.05
v 1.45 0.05 -0.05
v 1.45 0.15 0.05
v 1.45 0.15 -0.05
v 1.45 0.25 0.05
v 1.45 0.25 -0.05
v -1.45 -0.15 0.05
v -1.45 -0.15 -0.05
v -1.45 0.25 0.05
v -1.45 0.25 -0.05
v -1.15 -0.15 0.05
v -1.15 -0.15 -0.05
v -1.15 -0.05 0.05
v -1.15 -0.05 -0.05
v -0.85 -0.15 0.05
v -0.85 -0.15 -0.05
v -0.85 -0.05 0.05
v -0.85 -0.05 -0.05
v -0.55 -0.15 0.05
v -0.55 -0.15 -0.05
v -0.55 -0.05 0.05
v -0.55 -0.05 -0.05
v -0.25 -0.15 0.05
v -0.25 -0.15 -0.05
v -0.25 -0.05 0.05
v -0.25 -0.05 -0.05
v 0.0500001 -0.15 0.05
v 0.0500001 -0.15 -0.05
v 0.0500001 -0.05 0.05
v 0.0500001 -0.05 -0.05
v 0.35 -0.15 0.05
v 0.35 -0.15 -0.05
v 0.35 -0.05 0.05
v 0.35 -0.05 -0.05
v 0.65 -0.15 0.05
v 0.65 -0.15 -0.05
v 0.65 -0.05 0.05
v 0.65 -0.05 -0.05
v 0.95 -0.15 0.05
v 0.95 -0.15 -0.05
v 0.95 -0.05 0.05
v 0.95 -0.05 -0.05
v 1.25 -0.15 0.05
v 1.25 -0.15 -0.05
v 1.25 -0.05 0.05
v 1.25 -0.05 -0.05
v 1.55 -0.25 0.05
v 1.55 -0.25 -0.05
v 1.55 -0.15 0.05
v 1.55 -0.15 -0.05
v 1.55 -0.05 0.05
v 1.55 -0.05 -0.05
v 1.55 0.05 0.05
v 1.55 0.05 -0.05
v 1.55 0.15 0.05
v 1.55 0.15 -0.05
v 1.55 0.25 0.05
v 1.55 0.25 -0.05
v -1.55 -0.25 0.05
v -1.55 0.25 0.05
v -1.45 -0.15 0.05
v -1.45 0.25 0.05
v -1.25 -0.25 0.05
v -1.25 -0.15 0.05
v -1.25 -0.05 0.05
v -1.15 -0.25 0.05
v -1.15 -0.15 0.05
v -1.15 -0.05 0.05
v -0.95 -0.25 0.05
v -0.95 -0.15 0.05
v -0.95 -0.05 0.05
v -0.85 -0.25 0.05
v -0.85 -0.15 0.05
v -0.85 -0.05 0.05
v -0.65 -0.25 0.05
v -0.65 -0.15 0.05
v -0.65 -0.05 0.05
v -0.55 -0.25 0.05
v -0.55 -0.15 0.05
v -0.55 -0.05 0.05
v -0.35 -0.25 0.05
v -0.35 -0.15 0.05
v -0.35 -0.05 0.05
v -0.25 -0.25 0.05
v -0.25 -0.15 0.05
v -0.25 -0.05 0.05
v -0.05 -0.25 0.05
v -0.05 -0.15 0.05
v -0.05 -0.05 0.05
v 0.0500001 -0.25 0.05
v 0.0500001 -0.15 0.05
v 0.0500001 -0.05 0.05
v 0.25 -0.25 0.05
v 0.25 -0.15 0.05
v 0.25 -0.05 0.05
v 0.35 -0.25 0.05
v 0.35 -0.15 0.05
v 0.35 -0.05 0.05
v 0.55 -0.25 0.05
v 0.55 -0.15 0.05
v 0.55 -0.05 0.05
v 0.65 -0.25 0.05
v 0.65 -0.15 0.05
v 0.65 -0.05 0.05
v 0.85 -0.25 0.05
v 0.85 -0.15 0.05
v 0.85 -0.05 0.05
v 0.95 -0.25 0.05
v 0.95 -0.15 0.05
v 0.95 -0.05 0.05
v 1.15 -0.25 0.05
v 1.15 -0.15 0.05
v 1.15 -0.05 0.05
v 1.25 -0.25 0.05
v 1.25 -0.15 0.05
v 1.25 -0.05 0.05
v 1.45 -0.25 0.05
v 1.45 -0.15 0.05
v 1.45 -0.05 0.05
v 1.45 0.05 0.05
v 1.45 0.15 0.05
v 1.45 0.25 0.05
v 1.55 -0.25 0.05
v 1.55 -0.15 0.05
v 1.55 -0.05 0.05
v 1.55 0.05 0.05
v 1.55 0.15 0.05
v 1.55 0.25 0.05
v -1.55 -0.25 -0.05
v -1.55 0.25 -0.05
v -1.45 -0.15 -0.05
v -1.45 0.25 -0.05
v -1.25 -0.25 -0.05
v -1.25 -0.15 -0.05
v -1.25 -0.05 -0.05
v -1.15 -0.25 -0.05
v -1.15 -0.15 -0.05
v -1.15 -0.05 -0.05
v -0.95 -0.25 -0.05
v -0.95 -0.15 -0.05
v -0.95 -0.05 -0.05
v -0.85 -0.25 -0.05
v -0.85 -0.15 -0.05
v -0.85 -0.05 -0.05
v -0.65 -0.25 -0.05
v -0.65 -0.15 -0.05
v -0.65 -0.05 -0.05
v -0.55 -0.25 -0.05
v -0.55 -0.15 -0.05
v -0.55 -0.05 -0.05
v -0.35 -0.25 -0.05
v -0.35 -0.15 -0.05
v -0.35 -0.05 -0.05
v -0.25 -0.25 -0.05
v -0.25 -0.15 -0.05
v -0.25 -0.05 -0.05
v -0.05 -0.25 -0.05
v -0.05 -0.15 -0.05
v -0.05 -0.05 -0.05
v 0.0500001 -0.25 -0.05
v 0.0500001 -0.15 -0.05
v 0.0500001 -0.05 -0.05
v 0.25 -0.25 -0.05
v 0.25 -0.15 -0.05
v 0.25 -0.05 -0.05
v 0.35 -0.25 -0.05
v 0.35 -0.15 -0.05
v 0.35 -0.05 -0.05
v 0.55 -0.25 -0.05
v 0.55 -0.15 -0.05
v 0.55 -0.05 -0.05
v 0.65 -0.25 -0.05
v 0.65 -0.15 -0.05
v 0.65 -0.05 -0.05
v 0.85 -0.25 -0.05
v 0.85 -0.15 -0.05
v 0.85 -0.05 -0.05
v 0.95 -0.25 -0.05
v 0.95 -0.15 -0.05
v 0.95 -0.05 -0.05
v 1.15 -0.25 -0.05
v 1.15 -0.15 -0.05
v 1.15 -0.05 -0.05
v 1.25 -0.25 -0.05
v 1.25 -0.15 -0.05
v 1.25 -0.05 -0.05
v 1.45 -0.25 -0.05
v 1.45 -0.15 -0.05
v 1.45 -0.05 -0.05
v 1.45 0.05 -0.05
v 1.45 0.15 -0.05
v 1.45 0.25 -0.05
v 1.55 -0.25 -0.05
v 1.55 -0.15 -0.05
v 1.55 -0.05 -0.05
v 1.55 0.05 -0.05
v 1.55 0.15 -0.05
v 1.55 0.25 -0.05
v -1.55 -0.25 0.05
v -1.25 -0.25 0.05
v -1.15 -0.25 0.05
v -0.95 -0.25 0.05
v -0.85 -0.25 0.05
v -0.65 -0.25 0.05
v -0.55 -0.25 0.05
v -0.35 -0.25 0.05
v -0.25 -0.25 0.05
v -0.05 -0.25 0.05
v 0.0500001 -0.25 0.05
v 0.25 -0.25 0.05
v 0.35 -0.25 0.05
v 0.55 -0.25 0.05
v 0.65 -0.25 0.05
v 0.85 -0.25 0.05
v 0.95 -0.25 0.05
v 1.15 -0.25 0.05
v 1.25 -0.25 0.05
v 1.45 -0.25 0.05
v 1.55 -0.25 0.05
v -1.55 -0.25 -0.05
v -1.25 -0.25 -0.05
v -1.15 -0.25 -0.05
v -0.95 -0.25 -0.05
v -0.85 -0.25 -0.05
v -0.65 -0.25 -0.05
v -0.55 -0.25 -0.05
v -0.35 -0.25 -0.05
v -0.25 -0.25 -0.05
v -0.05 -0.25 -0.05
v 0.0500001 -0.25 -0.05
v 0.25 -0.25 -0.05
v 0.35 -0.25 -0.05
v 0.55 -0.25 -0.05
v 0.65 -0.25 -0.05
v 0.85 -0.25 -0.05
v 0.95 -0.25 -0.05
v 1.15 -0.25 -0.05
v 1.25 -0.25 -0.05
v 1.45 -0.25 -0.05
v 1.55 -0.25 -0.05
v -1.45 -0.15 0.05
v -1.25 -0.15 0.05
v -1.15 -0.15 0.05
v -0.95 -0.15 0.05
v -0.85 -0.15 0.05
v -0.65 -0.15 0.05
v -0.55 -0.15 0.05
v -0.35 -0.15 0.05
v -0.25 -0.15 0.05
v -0.05 -0.15 0.05
v 0.0500001 -0.15 0.05
v 0.25 -0.15 0.05
v 0.35 -0.15 0.05
v 0.55 -0.15 0.05
v 0.65 -0.15 0.05
v 0.85 -0.15 0.05
v 0.95 -0.15 0.05
v 1.15 -0.15 0.05
v 1.25 -0.15 0.05
v 1.45 -0.15 0.05
v -1.45 -0.15 -0.05
v -1.25 -0.15 -0.05
v -1.15 -0.15 -0.05
v -0.95 -0.15 -0.05
v -0.85 -0.15 -0.05
v -0.65 -0.15 -0.05
v -0.55 -0.15 -0.05
v -0.35 -0.15 -0.05
v -0.25 -0.15 -0.05
v -0.05 -0.15 -0.05
v 0.0500001 -0.15 -0.05
v 0.25 -0.15 -0.05
v 0.35 -0.15 -0.05
v 0.55 -0.15 -0.05
v 0.65 -0.15 -0.05
v 0.85 -0.15 -0.05
v 0.95 -0.15 -0.05
v 1.15 -0.15 -0.05
v 1.25 -0.15 -0.05
v 1.45 -0.15 -0.05
v -1.25 -0.05 0.05
v -1.15 -0.05 0.05
v -0.95 -0.05 0.05
v -0.85 -0.05 0.05
v -0.65 -0.05 0.05
v -0.55 -0.05 0.05
v -0.35 -0.05 0.05
v -0.25 -0.05 0.05
v -0.05 -0.05 0.05
v 0.0500001 -0.05 0.05
v 0.25 -0.05 0.05
v 0.35 -0.05 0.05
v 0.55 -0.05 0.05
v 0.65 -0.05 0.05
v 0.85 -0.05 0.05
v 0.95 -0.05 0.05
v 1.15 -0.05 0.05
v 1.25 -0.05 0.05
v -1.25 -0.05 -0.05
v -1.15 -0.05 -0.05
v -0.95 -0.05 -0.05
v -0.85 -0.05 -0.05
v -0.65 -0.05 -0.05
v -0.55 -0.05 -0.05
v -0.35 -0.05 -0.05
v -0.25 -0.05 -0.05
v -0.05 -0.05 -0.05
v 0.0500001 -0.05 -0.05
v 0.25 -0.05 -0.05
v 0.35 -0.05 -0.05
v 0.55 -0.05 -0.05
v 0.65 -0.05 -0.05
v 0.85 -0.05 -0.05
v 0.95 -0.05 -0.05
v 1.15 -0.05 -0.05
v 1.25 -0.05 -0.05
v -1.55 0.25 0.05
v -1.45 0.25 0.05
v 1.45 0.25 0.05
v 1.55 0.25 0.05
v -1.55 0.25 -0.05
v -1.45 0.25 -0.05
v 1.45 0.25 -0.05
v 1.55 0.25 -0.05

# faces
f 3/6/1 2/6/1 1/6/1
f 4/6/1 2/6/1 3/6/1
f 7/12/1 6/12/1 5/12/1
f 8/12/1 6/12/1 7/12/1
f 11/12/1 10/12/1 9/12/1
f 12/12/1 10/12/1 11/12/1
f 15/12/1 14/12/1 13/12/1
f 16/12/1 14/12/1 15/12/1
f 19/12/1 18/12/1 17/12/1
f 20/12/1 18/12/1 19/12/1
f 23/12/1 22/12/1 21/12/1
f 24/12/1 22/12/1 23/12/1
f 27/12/1 26/12/1 25/12/1
f 28/12/1 26/12/1 27/12/1
f 31/12/1 30/12/1 29/12/1
f 32/12/1 30/12/1 31/12/1
f 35/12/1 34/12/1 33/12/1
f 36/12/1 34/12/1 35/12/1
f 39/12/1 38/12/1 37/12/1
f 40/12/1 38/12/1 39/12/1
f 43/11/1 42/11/1 41/11/1
f 44/11/1 42/11/1 43/11/1
f 45/12/1 44/12/1 43/12/1
f 46/12/1 44/12/1 45/12/1
f 47/11/1 46/11/1 45/11/1
f 48/11/1 46/11/1 47/11/1
f 49/12/1 48/12/1 47/12/1
f 50/12/1 48/12/1 49/12/1
f 51/6/2 52/6/2 53/6/2
f 53/6/2 52/6/2 54/6/2
f 55/12/2 56/12/2 57/12/2
f 57/12/2 56/12/2 58/12/2
f 59/12/2 60/12/2 61/12/2
f 61/12/2 60/12/2 62/12/2
f 63/12/2 64/12/2 65/12/2
f 65/12/2 64/12/2 66/12/2
f 67/12/2 68/12/2 69/12/2
f 69/12/2 68/12/2 70/12/2
f 71/12/2 72/12/2 73/12/2
f 73/12/2 72/12/2 74/12/2
f 75/12/2 76/12/2 77/12/2
f 77/12/2 76/12/2 78/12/2
f 79/12/2 80/12/2 81/12/2
f 81/12/2 80/12/2 82/12/2
f 83/12/2 84/12/2 85/12/2
f 85/12/2 84/12/2 86/12/2
f 87/12/2 88/12/2 89/12/2
f 89/12/2 88/12/2 90/12/2
f 91/12/2 92/12/2 93/12/2
f 93/12/2 92/12/2 94/12/2
f 93/11/2 94/11/2 95/11/2
f 95/11/2 94/11/2 96/11/2
f 95/12/2 96/12/2 97/12/2
f 97/12/2 96/12/2 98/12/2
f 97/11/2 98/11/2 99/11/2
f 99/11/2 98/11/2 100/11/2
f 99/12/2 100/12/2 101/12/2
f 101/12/2 100/12/2 102/12/2
f 105/6/3 104/6/3 103/6/3
f 106/6/3 104/6/3 105/6/3
f 107/6/3 105/6/3 103/6/3
f 108/6/3 105/6/3 107/6/3
f 110/12/3 108/12/3 107/12/3
f 110/12/3 109/12/3 108/12/3
f 111/12/3 109/12/3 110/12/3
f 112/12/3 109/12/3 111/12/3
f 113/5/3 111/5/3 110/5/3
f 114/5/3 111/5/3 113/5/3
f 116/12/3 114/12/3 113/12/3
f 116/12/3 115/12/3 114/12/3
f 117/12/3 115/12/3 116/12/3
f 118/12/3 115/12/3 117/12/3
f 119/4/3 117/4/3 116/4/3
f 120/4/3 117/4/3 119/4/3
f 122/12/3 120/12/3 119/12/3
f 122/12/3 121/12/3 120/12/3
f 123/12/3 121/12/3 122/12/3
f 124/12/3 121/12/3 123/12/3
f 125/3/3 123/3/3 122/3/3
f 126/3/3 123/3/3 125/3/3
f 128/12/3 126/12/3 125/12/3
f 128/12/3 127/12/3 126/12/3
f 129/12/3 127/12/3 128/12/3
f 130/12/3 127/12/3 129/12/3
f 131/2/3 129/2/3 128/2/3
f 132/2/3 129/2/3 131/2/3
f 134/12/3 132/12/3 131/12/3
f 134/12/3 133/12/3 132/12/3
f 135/12/3 133/12/3 134/12/3
f 136/12/3 133/12/3 135/12/3
f 137/1/3 135/1/3 134/1/3
f 138/1/3 135/1/3 137/1/3
f 140/12/3 138/12/3 137/12/3
f 140/12/3 139/12/3 138/12/3
f 141/12/3 139/12/3 140/12/3
f 142/12/3 139/12/3 141/12/3
f 143/10/3 141/10/3 140/10/3
f 144/10/3 141/10/3 143/10/3
f 146/12/3 144/12/3 143/12/3
f 146/12/3 145/12/3 144/12/3
f 147/12/3 145/12/3 146/12/3
f 148/12/3 145/12/3 147/12/3
f 149/9/3 147/9/3 146/9/3
f 150/9/3 147/9/3 149/9/3
f 152/12/3 150/12/3 149/12/3
f 152/12/3 151/12/3 150/12/3
f 153/12/3 151/12/3 152/12/3
f 154/12/3 151/12/3 153/12/3
f 155/8/3 153/8/3 152/8/3
f 156/8/3 153/8/3 155/8/3
f 158/12/3 156/12/3 155/12/3
f 158/12/3 157/12/3 156/12/3
f 159/12/3 157/12/3 158/12/3
f 160/12/3 157/12/3 159/12/3
f 161/7/3 159/7/3 158/7/3
f 162/7/3 159/7/3 161/7/3
f 167/12/3 162/12/3 161/12/3
f 168/11/3 163/11/3 162/11/3
f 168/12/3 162/12/3 167/12/3
f 169/12/3 164/12/3 163/12/3
f 169/11/3 163/11/3 168/11/3
f 170/11/3 165/11/3 164/11/3
f 170/12/3 164/12/3 169/12/3
f 171/12/3 166/12/3 165/12/3
f 171/11/3 165/11/3 170/11/3
f 172/12/3 166/12/3 171/12/3
f 173/6/4 174/6/4 175/6/4
f 175/6/4 174/6/4 176/6/4
f 173/6/4 175/6/4 177/6/4
f 177/6/4 175/6/4 178/6/4
f 177/12/4 178/12/4 180/12/4
f 178/12/4 179/12/4 180/12/4
f 180/12/4 179/12/4 181/12/4
f 181/12/4 179/12/4 182/12/4
f 180/5/4 181/5/4 183/5/4
f 183/5/4 181/5/4 184/5/4
f 183/12/4 184/12/4 186/12/4
f 184/12/4 185/12/4 186/12/4
f 186/12/4 185/12/4 187/12/4
f 187/12/4 185/12/4 188/12/4
f 186/4/4 187/4/4 189/4/4
f 189/4/4 187/4/4 190/4/4
f 189/12/4 190/12/4 192/12/4
f 190/12/4 191/12/4 192/12/4
f 192/12/4 191/12/4 193/12/4
f 193/12/4 191/12/4 194/12/4
f 192/3/4 193/3/4 195/3/4
f 195/3/4 193/3/4 196/3/4
f 195/12/4 196/12/4 198/12/4
f 196/12/4 197/12/4 198/12/4
f 198/12/4 197/12/4 199/12/4
f 199/12/4 197/12/4 200/12/4
f 198/2/4 199/2/4 201/2/4
f 201/2/4 199/2/4 202/2/4
f 201/12/4 202/12/4 204/12/4
f 202/12/4 203/12/4 204/12/4
f 204/12/4 203/12/4 205/12/4
f 205/12/4 203/12/4 206/12/4
f 204/1/4 205/1/4 207/1/4
f 207/1/4 205/1/4 208/1/4
f 207/12/4 208/12/4 210/12/4
f 208/12/4 209/12/4 210/12/4
f 210/12/4 209/12/4 211/12/4
f 211/12/4 209/12/4 212/12/4
f 210/10/4 211/10/4 213/10/4
f 213/10/4 211/10/4 214/10/4
f 213/12/4 214/12/4 216/12/4
f 214/12/4 215/12/4 216/12/4
f 216/12/4 215/12/4 217/12/4
f 217/12/4 215/12/4 218/12/4
f 216/9/4 217/9/4 219/9/4
f 219/9/4 217/9/4 220/9/4
f 219/12/4 220/12/4 222/12/4
f 220/12/4 221/12/4 222/12/4
f 222/12/4 221/12/4 223/12/4
f 223/12/4 221/12/4 224/12/4
f 222/8/4 223/8/4 225/8/4
f 225/8/4 223/8/4 226/8/4
f 225/12/4 226/12/4 228/12/4
f 226/12/4 227/12/4 228/12/4
f 228/12/4 227/12/4 229/12/4
f 229/12/4 227/12/4 230/12/4
f 228/7/4 229/7/4 231/7/4
f 231/7/4 229/7/4 232/7/4
f 231/12/4 232/12/4 237/12/4
f 232/11/4 233/11/4 238/11/4
f 237/12/4 232/12/4 238/12/4
f 233/12/4 234/12/4 239/12/4
f 238/11/4 233/11/4 239/11/4
f 234/11/4 235/11/4 240/11/4
f 239/12/4 234/12/4 240/12/4
f 235/12/4 236/12/4 241/12/4
f 240/11/4 235/11/4 241/11/4
f 241/12/4 236/12/4 242/12/4
f 264/6/5 244/6/5 243/6/5
f 265/12/5 245/12/5 244/12/5
f 265/6/5 244/6/5 264/6/5
f 266/5/5 246/5/5 245/5/5
f 266/12/5 245/12/5 265/12/5
f 267/12/5 247/12/5 246/12/5
f 267/5/5 246/5/5 266/5/5
f 268/4/5 248/4/5 247/4/5
f 268/12/5 247/12/5 267/12/5
f 269/12/5 249/12/5 248/12/5
f 269/4/5 248/4/5 268/4/5
f 270/3/5 250/3/5 249/3/5
f 270/12/5 249/12/5 269/12/5
f 271/12/5 251/12/5 250/12/5
f 271/3/5 250/3/5 270/3/5
f 272/2/5 252/2/5 251/2/5
f 272/12/5 251/12/5 271/12/5
f 273/12/5 253/12/5 252/12/5
f 273/2/5 252/2/5 272/2/5
f 274/1/5 254/1/5 253/1/5
f 274/12/5 253/12/5 273/12/5
f 275/12/5 255/12/5 254/12/5
f 275/1/5 254/1/5 274/1/5
f 276/10/5 256/10/5 255/10/5
f 276/12/5 255/12/5 275/12/5
f 277/12/5 257/12/5 256/12/5
f 277/10/5 256/10/5 276/10/5
f 278/9/5 258/9/5 257/9/5
f 278/12/5 257/12/5 277/12/5
f 279/12/5 259/12/5 258/12/5
f 279/9/5 258/9/5 278/9/5
f 280/8/5 260/8/5 259/8/5
f 280/12/5 259/12/5 279/12/5
f 281/12/5 261/12/5 260/12/5
f 281/8/5 260/8/5 280/8/5
f 282/7/5 262/7/5 261/7/5
f 282/12/5 261/12/5 281/12/5
f 283/12/5 263/12/5 262/12/5
f 283/7/5 262/7/5 282/7/5
f 284/12/5 263/12/5 283/12/5
f 285/6/6 286/6/6 305/6/6
f 305/6/6 286/6/6 306/6/6
f 287/5/6 288/5/6 307/5/6
f 307/5/6 288/5/6 308/5/6
f 289/4/6 290/4/6 309/4/6
f 309/4/6 290/4/6 310/4/6
f 291/3/6 292/3/6 311/3/6
f 311/3/6 292/3/6 312/3/6
f 293/2/6 294/2/6 313/2/6
f 313/2/6 294/2/6 314/2/6
f 295/1/6 296/1/6 315/1/6
f 315/1/6 296/1/6 316/1/6
f 297/10/6 298/10/6 317/10/6
f 317/10/6 298/10/6 318/10/6
f 299/9/6 300/9/6 319/9/6
f 319/9/6 300/9/6 320/9/6
f 301/8/6 302/8/6 321/8/6
f 321/8/6 302/8/6 322/8/6
f 303/7/6 304/7/6 323/7/6
f 323/7/6 304/7/6 324/7/6
f 325/12/6 326/12/6 343/12/6
f 343/12/6 326/12/6 344/12/6
f 327/12/6 328/12/6 345/12/6
f 345/12/6 328/12/6 346/12/6
f 329/12/6 330/12/6 347/12/6
f 347/12/6 330/12/6 348/12/6
f 331/12/6 332/12/6 349/12/6
f 349/12/6 332/12/6 350/12/6
f 333/12/6 334/12/6 351/12/6
f 351/12/6 334/12/6 352/12/6
f 335/12/6 336/12/6 353/12/6
f 353/12/6 336/12/6 354/12/6
f 337/12/6 338/12/6 355/12/6
f 355/12/6 338/12/6 356/12/6
f 339/12/6 340/12/6 357/12/6
f 357/12/6 340/12/6 358/12/6
f 341/12/6 342/12/6 359/12/6
f 359/12/6 342/12/6 360/12/6
f 361/6/6 362/6/6 365/6/6
f 365/6/6 362/6/6 366/6/6
f 363/12/6 364/12/6 367/12/6
f 367/12/6 364/12/6 368/12/6
