# MagicaVoxel @ Ephtracy

# group
o 

# material
mtllib stuntDefScroll.mtl
usemtl palette

# normals
vn -1 0 0
vn 1 0 0
vn 0 0 1
vn 0 0 -1
vn 0 -1 0
vn 0 1 0

# texcoords
vt 0.0917969 0.5
vt 0.181641 0.5
vt 0.896484 0.5

# verts
v -0.8 -1.05 0.1
v -0.8 -1.05 -0.1
v -0.8 -0.95 0.2
v -0.8 -0.95 0.1
v -0.8 -0.95 -0.1
v -0.8 -0.95 -0.2
v -0.8 -0.75 0.2
v -0.8 -0.75 0.1
v -0.8 -0.75 -0.1
v -0.8 -0.75 -0.2
v -0.8 -0.65 0.1
v -0.8 -0.65 -0.1
v -0.8 0.65 0.1
v -0.8 0.65 -0.1
v -0.8 0.75 0.2
v -0.8 0.75 0.1
v -0.8 0.75 -0.1
v -0.8 0.75 -0.2
v -0.8 0.95 0.2
v -0.8 0.95 0.1
v -0.8 0.95 -0.1
v -0.8 0.95 -0.2
v -0.8 1.05 0.1
v -0.8 1.05 -0.1
v -0.7 -0.65 0
v -0.7 -0.65 -0.1
v -0.7 0.65 0
v -0.7 0.65 -0.1
v 0.6 0.75 -0.1
v 0.6 0.75 -0.2
v 0.6 0.85 -0.1
v 0.6 0.95 0.1
v 0.6 0.95 -0.1
v 0.6 0.95 -0.2
v 0.6 1.05 0.1
v 0.6 1.05 -0.1
v 0.7 -1.05 0.1
v 0.7 -1.05 -0.1
v 0.7 -0.95 0.2
v 0.7 -0.95 0.1
v 0.7 -0.95 -0.1
v 0.7 -0.95 -0.2
v 0.7 -0.85 0.1
v 0.7 -0.75 0.2
v 0.7 -0.75 0.1
v 0.7 -0.75 0
v 0.7 -0.75 -0.1
v 0.7 -0.75 -0.2
v 0.7 -0.65 0.1
v 0.7 -0.65 0
v 0.7 0.65 0.1
v 0.7 0.65 0
v 0.7 0.75 0.2
v 0.7 0.75 0.1
v 0.7 0.75 0
v 0.7 0.85 0.1
v 0.7 0.95 0.2
v 0.7 0.95 0.1
v -0.7 -1.05 0.1
v -0.7 -1.05 -0.1
v -0.7 -0.95 0.2
v -0.7 -0.95 0.1
v -0.7 -0.95 -0.1
v -0.7 -0.95 -0.2
v -0.7 -0.85 0.1
v -0.7 -0.75 0.2
v -0.7 -0.75 0.1
v -0.7 -0.75 0
v -0.7 -0.75 -0.1
v -0.7 -0.75 -0.2
v -0.7 -0.65 0.1
v -0.7 -0.65 0
v -0.7 0.65 0.1
v -0.7 0.65 0
v -0.7 0.75 0.2
v -0.7 0.75 0.1
v -0.7 0.75 0
v -0.7 0.85 0.1
v -0.7 0.95 0.2
v -0.7 0.95 0.1
v -0.6 0.75 -0.1
v -0.6 0.75 -0.2
v -0.6 0.85 -0.1
v -0.6 0.95 0.1
v -0.6 0.95 -0.1
v -0.6 0.95 -0.2
v -0.6 1.05 0.1
v -0.6 1.05 -0.1
v 0.7 -0.65 0
v 0.7 -0.65 -0.1
v 0.7 0.65 0
v 0.7 0.65 -0.1
v 0.8 -1.05 0.1
v 0.8 -1.05 -0.1
v 0.8 -0.95 0.2
v 0.8 -0.95 0.1
v 0.8 -0.95 -0.1
v 0.8 -0.95 -0.2
v 0.8 -0.75 0.2
v 0.8 -0.75 0.1
v 0.8 -0.75 -0.1
v 0.8 -0.75 -0.2
v 0.8 -0.65 0.1
v 0.8 -0.65 -0.1
v 0.8 0.65 0.1
v 0.8 0.65 -0.1
v 0.8 0.75 0.2
v 0.8 0.75 0.1
v 0.8 0.75 -0.1
v 0.8 0.75 -0.2
v 0.8 0.95 0.2
v 0.8 0.95 0.1
v 0.8 0.95 -0.1
v 0.8 0.95 -0.2
v 0.8 1.05 0.1
v 0.8 1.05 -0.1
v -0.8 -0.95 0.2
v -0.8 -0.75 0.2
v -0.8 0.75 0.2
v -0.8 0.95 0.2
v -0.7 -0.95 0.2
v -0.7 -0.75 0.2
v -0.7 0.75 0.2
v -0.7 0.95 0.2
v 0.7 -0.95 0.2
v 0.7 -0.75 0.2
v 0.7 0.75 0.2
v 0.7 0.95 0.2
v 0.8 -0.95 0.2
v 0.8 -0.75 0.2
v 0.8 0.75 0.2
v 0.8 0.95 0.2
v -0.8 -1.05 0.1
v -0.8 -0.95 0.1
v -0.8 -0.75 0.1
v -0.8 -0.65 0.1
v -0.8 0.65 0.1
v -0.8 0.75 0.1
v -0.8 0.95 0.1
v -0.8 1.05 0.1
v -0.7 -1.05 0.1
v -0.7 -0.95 0.1
v -0.7 -0.85 0.1
v -0.7 -0.75 0.1
v -0.7 -0.65 0.1
v -0.7 0.65 0.1
v -0.7 0.75 0.1
v -0.7 0.85 0.1
v -0.7 0.95 0.1
v -0.6 0.95 0.1
v -0.6 1.05 0.1
v -0.4 -0.85 0.1
v -0.4 -0.75 0.1
v -0.4 0.85 0.1
v -0.4 0.95 0.1
v -0.3 -0.95 0.1
v -0.3 -0.85 0.1
v -0.3 0.75 0.1
v -0.3 0.85 0.1
v 0.3 -0.95 0.1
v 0.3 -0.85 0.1
v 0.3 0.75 0.1
v 0.3 0.85 0.1
v 0.4 -0.85 0.1
v 0.4 -0.75 0.1
v 0.4 0.85 0.1
v 0.4 0.95 0.1
v 0.6 0.95 0.1
v 0.6 1.05 0.1
v 0.7 -1.05 0.1
v 0.7 -0.95 0.1
v 0.7 -0.85 0.1
v 0.7 -0.75 0.1
v 0.7 -0.65 0.1
v 0.7 0.65 0.1
v 0.7 0.75 0.1
v 0.7 0.85 0.1
v 0.7 0.95 0.1
v 0.8 -1.05 0.1
v 0.8 -0.95 0.1
v 0.8 -0.75 0.1
v 0.8 -0.65 0.1
v 0.8 0.65 0.1
v 0.8 0.75 0.1
v 0.8 0.95 0.1
v 0.8 1.05 0.1
v -0.7 -0.75 0
v -0.7 -0.65 0
v -0.7 0.65 0
v -0.7 0.75 0
v -0.6 -0.35 0
v -0.6 0.65 0
v -0.5 -0.45 0
v -0.5 -0.35 0
v -0.5 -0.25 0
v -0.5 -0.05 0
v -0.5 0.0500001 0
v -0.5 0.25 0
v -0.5 0.35 0
v -0.5 0.55 0
v -0.4 -0.75 0
v -0.4 -0.55 0
v -0.4 -0.45 0
v -0.4 -0.35 0
v -0.4 -0.25 0
v -0.4 -0.15 0
v -0.4 -0.05 0
v -0.4 0.0500001 0
v -0.4 0.15 0
v -0.4 0.25 0
v -0.4 0.35 0
v -0.4 0.45 0
v -0.4 0.55 0
v -0.4 0.65 0
v -0.3 -0.65 0
v -0.3 -0.55 0
v -0.3 -0.45 0
v -0.3 -0.35 0
v -0.3 -0.25 0
v -0.3 -0.15 0
v -0.3 -0.05 0
v -0.3 0.0500001 0
v -0.3 0.15 0
v -0.3 0.25 0
v -0.3 0.35 0
v -0.3 0.45 0
v -0.3 0.55 0
v -0.3 0.75 0
v -0.2 -0.55 0
v -0.2 -0.45 0
v -0.2 -0.35 0
v -0.2 -0.25 0
v -0.2 -0.15 0
v -0.2 -0.05 0
v -0.2 0.0500001 0
v -0.2 0.15 0
v -0.2 0.25 0
v -0.2 0.35 0
v -0.2 0.45 0
v 0 -0.55 0
v 0 -0.35 0
v 0 -0.25 0
v 0 -0.05 0
v 0 0.0500001 0
v 0 0.25 0
v 0.2 0.35 0
v 0.2 0.45 0
v 0.3 -0.65 0
v 0.3 -0.55 0
v 0.3 0.45 0
v 0.3 0.55 0
v 0.3 0.75 0
v 0.4 -0.75 0
v 0.4 -0.55 0
v 0.4 -0.45 0
v 0.4 0.55 0
v 0.4 0.65 0
v 0.5 -0.45 0
v 0.5 -0.35 0
v 0.6 -0.35 0
v 0.6 0.65 0
v 0.7 -0.75 0
v 0.7 -0.65 0
v 0.7 0.65 0
v 0.7 0.75 0
v -0.8 -1.05 -0.1
v -0.8 -0.95 -0.1
v -0.8 -0.75 -0.1
v -0.8 -0.65 -0.1
v -0.8 0.65 -0.1
v -0.8 0.75 -0.1
v -0.8 0.95 -0.1
v -0.8 1.05 -0.1
v -0.7 -1.05 -0.1
v -0.7 -0.95 -0.1
v -0.7 -0.75 -0.1
v -0.7 -0.65 -0.1
v -0.7 0.65 -0.1
v -0.7 0.75 -0.1
v -0.6 -0.35 -0.1
v -0.6 0.65 -0.1
v -0.6 0.75 -0.1
v -0.6 0.85 -0.1
v -0.6 0.95 -0.1
v -0.6 1.05 -0.1
v -0.5 -0.45 -0.1
v -0.5 -0.35 -0.1
v -0.5 -0.25 -0.1
v -0.5 -0.05 -0.1
v -0.5 0.0500001 -0.1
v -0.5 0.25 -0.1
v -0.5 0.35 -0.1
v -0.5 0.55 -0.1
v -0.4 -0.55 -0.1
v -0.4 -0.45 -0.1
v -0.4 -0.35 -0.1
v -0.4 -0.25 -0.1
v -0.4 -0.15 -0.1
v -0.4 -0.05 -0.1
v -0.4 0.0500001 -0.1
v -0.4 0.15 -0.1
v -0.4 0.25 -0.1
v -0.4 0.35 -0.1
v -0.4 0.45 -0.1
v -0.4 0.55 -0.1
v -0.4 0.65 -0.1
v -0.4 0.85 -0.1
v -0.4 0.95 -0.1
v -0.3 -0.65 -0.1
v -0.3 -0.55 -0.1
v -0.3 -0.45 -0.1
v -0.3 -0.35 -0.1
v -0.3 -0.25 -0.1
v -0.3 -0.15 -0.1
v -0.3 -0.05 -0.1
v -0.3 0.0500001 -0.1
v -0.3 0.15 -0.1
v -0.3 0.25 -0.1
v -0.3 0.35 -0.1
v -0.3 0.45 -0.1
v -0.3 0.55 -0.1
v -0.2 -0.55 -0.1
v -0.2 -0.45 -0.1
v -0.2 -0.35 -0.1
v -0.2 -0.25 -0.1
v -0.2 -0.15 -0.1
v -0.2 -0.05 -0.1
v -0.2 0.0500001 -0.1
v -0.2 0.15 -0.1
v -0.2 0.25 -0.1
v -0.2 0.35 -0.1
v -0.2 0.45 -0.1
v 0 -0.55 -0.1
v 0 -0.35 -0.1
v 0 -0.25 -0.1
v 0 -0.05 -0.1
v 0 0.0500001 -0.1
v 0 0.25 -0.1
v 0.2 0.35 -0.1
v 0.2 0.45 -0.1
v 0.3 -0.65 -0.1
v 0.3 -0.55 -0.1
v 0.3 0.45 -0.1
v 0.3 0.55 -0.1
v 0.4 -0.55 -0.1
v 0.4 -0.45 -0.1
v 0.4 0.55 -0.1
v 0.4 0.65 -0.1
v 0.4 0.85 -0.1
v 0.4 0.95 -0.1
v 0.5 -0.45 -0.1
v 0.5 -0.35 -0.1
v 0.6 -0.35 -0.1
v 0.6 0.65 -0.1
v 0.6 0.75 -0.1
v 0.6 0.85 -0.1
v 0.6 0.95 -0.1
v 0.6 1.05 -0.1
v 0.7 -1.05 -0.1
v 0.7 -0.95 -0.1
v 0.7 -0.75 -0.1
v 0.7 -0.65 -0.1
v 0.7 0.65 -0.1
v 0.7 0.75 -0.1
v 0.8 -1.05 -0.1
v 0.8 -0.95 -0.1
v 0.8 -0.75 -0.1
v 0.8 -0.65 -0.1
v 0.8 0.65 -0.1
v 0.8 0.75 -0.1
v 0.8 0.95 -0.1
v 0.8 1.05 -0.1
v -0.8 -0.95 -0.2
v -0.8 -0.75 -0.2
v -0.8 0.75 -0.2
v -0.8 0.95 -0.2
v -0.7 -0.95 -0.2
v -0.7 -0.75 -0.2
v -0.6 0.75 -0.2
v -0.6 0.95 -0.2
v 0.6 0.75 -0.2
v 0.6 0.95 -0.2
v 0.7 -0.95 -0.2
v 0.7 -0.75 -0.2
v 0.8 -0.95 -0.2
v 0.8 -0.75 -0.2
v 0.8 0.75 -0.2
v 0.8 0.95 -0.2
v -0.8 -1.05 0.1
v -0.7 -1.05 0.1
v 0.7 -1.05 0.1
v 0.8 -1.05 0.1
v -0.8 -1.05 -0.1
v -0.7 -1.05 -0.1
v 0.7 -1.05 -0.1
v 0.8 -1.05 -0.1
v -0.8 -0.95 0.2
v -0.7 -0.95 0.2
v 0.7 -0.95 0.2
v 0.8 -0.95 0.2
v -0.8 -0.95 0.1
v -0.7 -0.95 0.1
v -0.3 -0.95 0.1
v 0.3 -0.95 0.1
v 0.7 -0.95 0.1
v 0.8 -0.95 0.1
v -0.3 -0.95 0
v 0.3 -0.95 0
v -0.8 -0.95 -0.1
v -0.7 -0.95 -0.1
v 0.7 -0.95 -0.1
v 0.8 -0.95 -0.1
v -0.8 -0.95 -0.2
v -0.7 -0.95 -0.2
v 0.7 -0.95 -0.2
v 0.8 -0.95 -0.2
v -0.8 0.65 0.1
v -0.7 0.65 0.1
v 0.7 0.65 0.1
v 0.8 0.65 0.1
v -0.7 0.65 0
v 0.7 0.65 0
v -0.8 0.65 -0.1
v -0.7 0.65 -0.1
v 0.7 0.65 -0.1
v 0.8 0.65 -0.1
v -0.8 0.75 0.2
v -0.7 0.75 0.2
v 0.7 0.75 0.2
v 0.8 0.75 0.2
v -0.8 0.75 0.1
v -0.7 0.75 0.1
v -0.3 0.75 0.1
v 0.3 0.75 0.1
v 0.7 0.75 0.1
v 0.8 0.75 0.1
v -0.7 0.75 0
v -0.3 0.75 0
v 0.3 0.75 0
v 0.7 0.75 0
v -0.8 0.75 -0.1
v -0.7 0.75 -0.1
v -0.6 0.75 -0.1
v 0.6 0.75 -0.1
v 0.7 0.75 -0.1
v 0.8 0.75 -0.1
v -0.8 0.75 -0.2
v -0.6 0.75 -0.2
v 0.6 0.75 -0.2
v 0.8 0.75 -0.2
v -0.8 -0.75 0.2
v -0.7 -0.75 0.2
v 0.7 -0.75 0.2
v 0.8 -0.75 0.2
v -0.8 -0.75 0.1
v -0.7 -0.75 0.1
v -0.4 -0.75 0.1
v 0.4 -0.75 0.1
v 0.7 -0.75 0.1
v 0.8 -0.75 0.1
v -0.7 -0.75 0
v -0.4 -0.75 0
v 0.4 -0.75 0
v 0.7 -0.75 0
v -0.8 -0.75 -0.1
v -0.7 -0.75 -0.1
v 0.7 -0.75 -0.1
v 0.8 -0.75 -0.1
v -0.8 -0.75 -0.2
v -0.7 -0.75 -0.2
v 0.7 -0.75 -0.2
v 0.8 -0.75 -0.2
v -0.8 -0.65 0.1
v -0.7 -0.65 0.1
v 0.7 -0.65 0.1
v 0.8 -0.65 0.1
v -0.7 -0.65 0
v 0.7 -0.65 0
v -0.8 -0.65 -0.1
v -0.7 -0.65 -0.1
v 0.7 -0.65 -0.1
v 0.8 -0.65 -0.1
v -0.8 0.95 0.2
v -0.7 0.95 0.2
v 0.7 0.95 0.2
v 0.8 0.95 0.2
v -0.8 0.95 0.1
v -0.7 0.95 0.1
v -0.6 0.95 0.1
v -0.4 0.95 0.1
v 0.4 0.95 0.1
v 0.6 0.95 0.1
v 0.7 0.95 0.1
v 0.8 0.95 0.1
v -0.8 0.95 -0.1
v -0.6 0.95 -0.1
v -0.4 0.95 -0.1
v 0.4 0.95 -0.1
v 0.6 0.95 -0.1
v 0.8 0.95 -0.1
v -0.8 0.95 -0.2
v -0.6 0.95 -0.2
v 0.6 0.95 -0.2
v 0.8 0.95 -0.2
v -0.8 1.05 0.1
v -0.6 1.05 0.1
v 0.6 1.05 0.1
v 0.8 1.05 0.1
v -0.8 1.05 -0.1
v -0.6 1.05 -0.1
v 0.6 1.05 -0.1
v 0.8 1.05 -0.1

# faces
f 4/3/1 2/3/1 1/3/1
f 5/3/1 2/3/1 4/3/1
f 7/3/1 4/3/1 3/3/1
f 7/3/1 6/3/1 5/3/1
f 7/3/1 5/3/1 4/3/1
f 8/3/1 6/3/1 7/3/1
f 9/3/1 6/3/1 8/3/1
f 10/3/1 6/3/1 9/3/1
f 11/3/1 9/3/1 8/3/1
f 12/3/1 9/3/1 11/3/1
f 16/3/1 14/3/1 13/3/1
f 17/3/1 14/3/1 16/3/1
f 19/3/1 17/3/1 16/3/1
f 19/3/1 18/3/1 17/3/1
f 19/3/1 16/3/1 15/3/1
f 20/3/1 18/3/1 19/3/1
f 21/3/1 18/3/1 20/3/1
f 22/3/1 18/3/1 21/3/1
f 23/3/1 21/3/1 20/3/1
f 24/3/1 21/3/1 23/3/1
f 27/2/1 26/2/1 25/2/1
f 28/2/1 26/2/1 27/2/1
f 31/3/1 30/3/1 29/3/1
f 33/3/1 30/3/1 31/3/1
f 34/3/1 30/3/1 33/3/1
f 35/3/1 33/3/1 32/3/1
f 36/3/1 33/3/1 35/3/1
f 40/3/1 38/3/1 37/3/1
f 41/3/1 38/3/1 40/3/1
f 43/3/1 40/3/1 39/3/1
f 44/3/1 43/3/1 39/3/1
f 45/3/1 43/3/1 44/3/1
f 47/3/1 42/3/1 41/3/1
f 48/3/1 42/3/1 47/3/1
f 49/3/1 46/3/1 45/3/1
f 50/3/1 46/3/1 49/3/1
f 54/3/1 52/3/1 51/3/1
f 55/3/1 52/3/1 54/3/1
f 56/3/1 54/3/1 53/3/1
f 57/3/1 56/3/1 53/3/1
f 58/3/1 56/3/1 57/3/1
f 59/3/2 60/3/2 62/3/2
f 62/3/2 60/3/2 63/3/2
f 61/3/2 62/3/2 65/3/2
f 61/3/2 65/3/2 66/3/2
f 66/3/2 65/3/2 67/3/2
f 63/3/2 64/3/2 69/3/2
f 69/3/2 64/3/2 70/3/2
f 67/3/2 68/3/2 71/3/2
f 71/3/2 68/3/2 72/3/2
f 73/3/2 74/3/2 76/3/2
f 76/3/2 74/3/2 77/3/2
f 75/3/2 76/3/2 78/3/2
f 75/3/2 78/3/2 79/3/2
f 79/3/2 78/3/2 80/3/2
f 81/3/2 82/3/2 83/3/2
f 83/3/2 82/3/2 85/3/2
f 85/3/2 82/3/2 86/3/2
f 84/3/2 85/3/2 87/3/2
f 87/3/2 85/3/2 88/3/2
f 89/2/2 90/2/2 91/2/2
f 91/2/2 90/2/2 92/2/2
f 93/3/2 94/3/2 96/3/2
f 96/3/2 94/3/2 97/3/2
f 95/3/2 96/3/2 99/3/2
f 97/3/2 98/3/2 99/3/2
f 96/3/2 97/3/2 99/3/2
f 99/3/2 98/3/2 100/3/2
f 100/3/2 98/3/2 101/3/2
f 101/3/2 98/3/2 102/3/2
f 100/3/2 101/3/2 103/3/2
f 103/3/2 101/3/2 104/3/2
f 105/3/2 106/3/2 108/3/2
f 108/3/2 106/3/2 109/3/2
f 108/3/2 109/3/2 111/3/2
f 109/3/2 110/3/2 111/3/2
f 107/3/2 108/3/2 111/3/2
f 111/3/2 110/3/2 112/3/2
f 112/3/2 110/3/2 113/3/2
f 113/3/2 110/3/2 114/3/2
f 112/3/2 113/3/2 115/3/2
f 115/3/2 113/3/2 116/3/2
f 121/3/3 118/3/3 117/3/3
f 122/3/3 118/3/3 121/3/3
f 123/3/3 120/3/3 119/3/3
f 124/3/3 120/3/3 123/3/3
f 129/3/3 126/3/3 125/3/3
f 130/3/3 126/3/3 129/3/3
f 131/3/3 128/3/3 127/3/3
f 132/3/3 128/3/3 131/3/3
f 141/3/3 134/3/3 133/3/3
f 142/3/3 134/3/3 141/3/3
f 144/3/3 136/3/3 135/3/3
f 145/3/3 136/3/3 144/3/3
f 146/3/3 138/3/3 137/3/3
f 147/3/3 138/3/3 146/3/3
f 149/3/3 140/3/3 139/3/3
f 150/1/3 149/1/3 148/1/3
f 150/3/3 140/3/3 149/3/3
f 151/3/3 140/3/3 150/3/3
f 152/2/3 143/2/3 142/2/3
f 152/1/3 144/1/3 143/1/3
f 153/1/3 144/1/3 152/1/3
f 154/2/3 148/2/3 147/2/3
f 154/1/3 150/1/3 148/1/3
f 155/1/3 150/1/3 154/1/3
f 156/2/3 153/2/3 152/2/3
f 156/2/3 152/2/3 142/2/3
f 157/2/3 153/2/3 156/2/3
f 158/2/3 155/2/3 154/2/3
f 158/2/3 154/2/3 147/2/3
f 159/2/3 155/2/3 158/2/3
f 160/1/3 157/1/3 156/1/3
f 161/2/3 153/2/3 157/2/3
f 161/1/3 157/1/3 160/1/3
f 162/1/3 159/1/3 158/1/3
f 163/2/3 155/2/3 159/2/3
f 163/1/3 159/1/3 162/1/3
f 164/2/3 153/2/3 161/2/3
f 164/2/3 161/2/3 160/2/3
f 165/2/3 153/2/3 164/2/3
f 166/2/3 155/2/3 163/2/3
f 166/2/3 163/2/3 162/2/3
f 167/2/3 155/2/3 166/2/3
f 168/1/3 167/1/3 166/1/3
f 171/2/3 164/2/3 160/2/3
f 172/1/3 165/1/3 164/1/3
f 172/2/3 164/2/3 171/2/3
f 173/1/3 165/1/3 172/1/3
f 176/2/3 166/2/3 162/2/3
f 177/1/3 168/1/3 166/1/3
f 177/2/3 166/2/3 176/2/3
f 178/3/3 169/3/3 168/3/3
f 178/1/3 168/1/3 177/1/3
f 179/3/3 171/3/3 170/3/3
f 180/3/3 171/3/3 179/3/3
f 181/3/3 174/3/3 173/3/3
f 182/3/3 174/3/3 181/3/3
f 183/3/3 176/3/3 175/3/3
f 184/3/3 176/3/3 183/3/3
f 185/3/3 169/3/3 178/3/3
f 186/3/3 169/3/3 185/3/3
f 191/2/3 188/2/3 187/2/3
f 191/2/3 190/2/3 189/2/3
f 191/2/3 189/2/3 188/2/3
f 192/2/3 190/2/3 191/2/3
f 193/2/3 191/2/3 187/2/3
f 194/3/3 192/3/3 191/3/3
f 194/2/3 191/2/3 193/2/3
f 195/3/3 192/3/3 194/3/3
f 196/3/3 192/3/3 195/3/3
f 197/3/3 192/3/3 196/3/3
f 198/3/3 192/3/3 197/3/3
f 199/3/3 192/3/3 198/3/3
f 200/3/3 192/3/3 199/3/3
f 201/2/3 193/2/3 187/2/3
f 202/2/3 193/2/3 201/2/3
f 203/3/3 194/3/3 193/3/3
f 203/2/3 193/2/3 202/2/3
f 203/3/3 195/3/3 194/3/3
f 204/3/3 195/3/3 203/3/3
f 205/2/3 196/2/3 195/2/3
f 205/3/3 195/3/3 204/3/3
f 206/2/3 196/2/3 205/2/3
f 207/3/3 197/3/3 196/3/3
f 207/2/3 196/2/3 206/2/3
f 208/2/3 198/2/3 197/2/3
f 208/3/3 197/3/3 207/3/3
f 209/2/3 198/2/3 208/2/3
f 210/3/3 199/3/3 198/3/3
f 210/2/3 198/2/3 209/2/3
f 211/2/3 200/2/3 199/2/3
f 211/3/3 199/3/3 210/3/3
f 212/2/3 200/2/3 211/2/3
f 213/3/3 192/3/3 200/3/3
f 213/2/3 200/2/3 212/2/3
f 214/2/3 190/2/3 192/2/3
f 214/3/3 192/3/3 213/3/3
f 215/2/3 202/2/3 201/2/3
f 216/3/3 204/3/3 203/3/3
f 216/2/3 202/2/3 215/2/3
f 216/3/3 203/3/3 202/3/3
f 217/3/3 204/3/3 216/3/3
f 218/2/3 206/2/3 205/2/3
f 218/3/3 204/3/3 217/3/3
f 218/2/3 205/2/3 204/2/3
f 219/2/3 206/2/3 218/2/3
f 220/3/3 207/3/3 206/3/3
f 220/2/3 206/2/3 219/2/3
f 221/2/3 209/2/3 208/2/3
f 221/3/3 207/3/3 220/3/3
f 221/2/3 208/2/3 207/2/3
f 222/2/3 209/2/3 221/2/3
f 223/3/3 210/3/3 209/3/3
f 223/2/3 209/2/3 222/2/3
f 224/2/3 212/2/3 211/2/3
f 224/3/3 210/3/3 223/3/3
f 224/2/3 211/2/3 210/2/3
f 225/2/3 212/2/3 224/2/3
f 226/3/3 213/3/3 212/3/3
f 226/2/3 212/2/3 225/2/3
f 227/2/3 214/2/3 213/2/3
f 227/3/3 213/3/3 226/3/3
f 228/2/3 190/2/3 214/2/3
f 228/2/3 214/2/3 227/2/3
f 229/3/3 217/3/3 216/3/3
f 229/3/3 216/3/3 215/3/3
f 230/2/3 219/2/3 218/2/3
f 230/3/3 217/3/3 229/3/3
f 230/2/3 218/2/3 217/2/3
f 231/2/3 219/2/3 230/2/3
f 232/3/3 220/3/3 219/3/3
f 232/2/3 219/2/3 231/2/3
f 233/2/3 222/2/3 221/2/3
f 233/3/3 220/3/3 232/3/3
f 233/2/3 221/2/3 220/2/3
f 234/2/3 222/2/3 233/2/3
f 235/3/3 223/3/3 222/3/3
f 235/2/3 222/2/3 234/2/3
f 236/2/3 225/2/3 224/2/3
f 236/3/3 223/3/3 235/3/3
f 236/2/3 224/2/3 223/2/3
f 237/2/3 225/2/3 236/2/3
f 238/3/3 226/3/3 225/3/3
f 238/2/3 225/2/3 237/2/3
f 239/2/3 227/2/3 226/2/3
f 239/3/3 226/3/3 238/3/3
f 239/2/3 228/2/3 227/2/3
f 240/3/3 229/3/3 215/3/3
f 240/2/3 231/2/3 230/2/3
f 240/2/3 230/2/3 229/2/3
f 241/3/3 232/3/3 231/3/3
f 241/2/3 231/2/3 240/2/3
f 242/2/3 234/2/3 233/2/3
f 242/3/3 232/3/3 241/3/3
f 242/2/3 233/2/3 232/2/3
f 243/3/3 235/3/3 234/3/3
f 243/2/3 234/2/3 242/2/3
f 244/2/3 237/2/3 236/2/3
f 244/3/3 235/3/3 243/3/3
f 244/2/3 236/2/3 235/2/3
f 245/3/3 238/3/3 237/3/3
f 245/2/3 237/2/3 244/2/3
f 246/3/3 242/3/3 241/3/3
f 246/3/3 238/3/3 245/3/3
f 246/3/3 245/3/3 244/3/3
f 246/3/3 243/3/3 242/3/3
f 246/3/3 241/3/3 240/3/3
f 246/2/3 239/2/3 238/2/3
f 246/3/3 244/3/3 243/3/3
f 247/2/3 228/2/3 239/2/3
f 247/2/3 239/2/3 246/2/3
f 248/3/3 240/3/3 215/3/3
f 248/3/3 246/3/3 240/3/3
f 248/3/3 247/3/3 246/3/3
f 248/2/3 215/2/3 201/2/3
f 249/3/3 247/3/3 248/3/3
f 250/2/3 228/2/3 247/2/3
f 250/3/3 247/3/3 249/3/3
f 251/2/3 228/2/3 250/2/3
f 252/2/3 228/2/3 251/2/3
f 253/2/3 249/2/3 248/2/3
f 253/2/3 248/2/3 201/2/3
f 254/3/3 250/3/3 249/3/3
f 254/2/3 249/2/3 253/2/3
f 254/3/3 251/3/3 250/3/3
f 255/3/3 251/3/3 254/3/3
f 256/2/3 252/2/3 251/2/3
f 256/3/3 251/3/3 255/3/3
f 257/2/3 252/2/3 256/2/3
f 258/2/3 255/2/3 254/2/3
f 258/2/3 254/2/3 253/2/3
f 258/3/3 257/3/3 256/3/3
f 258/3/3 256/3/3 255/3/3
f 259/3/3 257/3/3 258/3/3
f 260/2/3 259/2/3 258/2/3
f 260/3/3 257/3/3 259/3/3
f 261/2/3 252/2/3 257/2/3
f 261/3/3 257/3/3 260/3/3
f 262/2/3 260/2/3 258/2/3
f 262/2/3 258/2/3 253/2/3
f 262/2/3 261/2/3 260/2/3
f 263/2/3 261/2/3 262/2/3
f 264/2/3 252/2/3 261/2/3
f 264/2/3 261/2/3 263/2/3
f 265/2/3 252/2/3 264/2/3
f 266/3/4 267/3/4 274/3/4
f 274/3/4 267/3/4 275/3/4
f 268/3/4 269/3/4 276/3/4
f 276/3/4 269/3/4 277/3/4
f 270/3/4 271/3/4 278/3/4
f 278/3/4 271/3/4 279/3/4
f 276/2/4 277/2/4 280/2/4
f 278/2/4 279/2/4 280/2/4
f 277/2/4 278/2/4 280/2/4
f 275/2/4 276/2/4 280/2/4
f 280/2/4 279/2/4 281/2/4
f 281/2/4 279/2/4 282/2/4
f 272/3/4 273/3/4 284/3/4
f 284/3/4 273/3/4 285/3/4
f 275/2/4 280/2/4 286/2/4
f 280/3/4 281/3/4 287/3/4
f 286/2/4 280/2/4 287/2/4
f 287/3/4 281/3/4 288/3/4
f 288/3/4 281/3/4 289/3/4
f 289/3/4 281/3/4 290/3/4
f 290/3/4 281/3/4 291/3/4
f 291/3/4 281/3/4 292/3/4
f 292/3/4 281/3/4 293/3/4
f 275/2/4 286/2/4 294/2/4
f 286/3/4 287/3/4 295/3/4
f 294/2/4 286/2/4 295/2/4
f 287/3/4 288/3/4 295/3/4
f 295/3/4 288/3/4 296/3/4
f 288/2/4 289/2/4 297/2/4
f 296/3/4 288/3/4 297/3/4
f 297/2/4 289/2/4 298/2/4
f 289/3/4 290/3/4 299/3/4
f 298/2/4 289/2/4 299/2/4
f 290/2/4 291/2/4 300/2/4
f 299/3/4 290/3/4 300/3/4
f 300/2/4 291/2/4 301/2/4
f 291/3/4 292/3/4 302/3/4
f 301/2/4 291/2/4 302/2/4
f 292/2/4 293/2/4 303/2/4
f 302/3/4 292/3/4 303/3/4
f 303/2/4 293/2/4 304/2/4
f 293/3/4 281/3/4 305/3/4
f 304/2/4 293/2/4 305/2/4
f 282/2/4 283/2/4 306/2/4
f 305/3/4 281/3/4 306/3/4
f 281/2/4 282/2/4 306/2/4
f 283/1/4 284/1/4 307/1/4
f 306/2/4 283/2/4 307/2/4
f 307/1/4 284/1/4 308/1/4
f 275/2/4 294/2/4 309/2/4
f 295/3/4 296/3/4 310/3/4
f 309/2/4 294/2/4 310/2/4
f 294/3/4 295/3/4 310/3/4
f 310/3/4 296/3/4 311/3/4
f 297/2/4 298/2/4 312/2/4
f 311/3/4 296/3/4 312/3/4
f 296/2/4 297/2/4 312/2/4
f 312/2/4 298/2/4 313/2/4
f 298/3/4 299/3/4 314/3/4
f 313/2/4 298/2/4 314/2/4
f 300/2/4 301/2/4 315/2/4
f 314/3/4 299/3/4 315/3/4
f 299/2/4 300/2/4 315/2/4
f 315/2/4 301/2/4 316/2/4
f 301/3/4 302/3/4 317/3/4
f 316/2/4 301/2/4 317/2/4
f 302/2/4 303/2/4 318/2/4
f 317/3/4 302/3/4 318/3/4
f 303/2/4 304/2/4 318/2/4
f 318/2/4 304/2/4 319/2/4
f 304/3/4 305/3/4 320/3/4
f 319/2/4 304/2/4 320/2/4
f 305/2/4 306/2/4 321/2/4
f 320/3/4 305/3/4 321/3/4
f 307/2/4 308/2/4 321/2/4
f 306/2/4 307/2/4 321/2/4
f 310/3/4 311/3/4 322/3/4
f 309/3/4 310/3/4 322/3/4
f 312/2/4 313/2/4 323/2/4
f 322/3/4 311/3/4 323/3/4
f 311/2/4 312/2/4 323/2/4
f 323/2/4 313/2/4 324/2/4
f 313/3/4 314/3/4 325/3/4
f 324/2/4 313/2/4 325/2/4
f 314/2/4 315/2/4 326/2/4
f 325/3/4 314/3/4 326/3/4
f 315/2/4 316/2/4 326/2/4
f 326/2/4 316/2/4 327/2/4
f 316/3/4 317/3/4 328/3/4
f 327/2/4 316/2/4 328/2/4
f 318/2/4 319/2/4 329/2/4
f 328/3/4 317/3/4 329/3/4
f 317/2/4 318/2/4 329/2/4
f 329/2/4 319/2/4 330/2/4
f 319/3/4 320/3/4 331/3/4
f 330/2/4 319/2/4 331/2/4
f 320/2/4 321/2/4 332/2/4
f 331/3/4 320/3/4 332/3/4
f 322/2/4 323/2/4 333/2/4
f 309/3/4 322/3/4 333/3/4
f 323/2/4 324/2/4 333/2/4
f 324/3/4 325/3/4 334/3/4
f 333/2/4 324/2/4 334/2/4
f 326/2/4 327/2/4 335/2/4
f 334/3/4 325/3/4 335/3/4
f 325/2/4 326/2/4 335/2/4
f 327/3/4 328/3/4 336/3/4
f 335/2/4 327/2/4 336/2/4
f 329/2/4 330/2/4 337/2/4
f 336/3/4 328/3/4 337/3/4
f 328/2/4 329/2/4 337/2/4
f 330/3/4 331/3/4 338/3/4
f 337/2/4 330/2/4 338/2/4
f 334/3/4 335/3/4 339/3/4
f 338/3/4 331/3/4 339/3/4
f 337/3/4 338/3/4 339/3/4
f 336/3/4 337/3/4 339/3/4
f 331/2/4 332/2/4 339/2/4
f 333/3/4 334/3/4 339/3/4
f 335/3/4 336/3/4 339/3/4
f 332/2/4 321/2/4 340/2/4
f 339/2/4 332/2/4 340/2/4
f 275/2/4 309/2/4 341/2/4
f 309/3/4 333/3/4 341/3/4
f 339/3/4 340/3/4 341/3/4
f 333/3/4 339/3/4 341/3/4
f 341/3/4 340/3/4 342/3/4
f 340/2/4 321/2/4 343/2/4
f 342/3/4 340/3/4 343/3/4
f 321/2/4 308/2/4 344/2/4
f 343/2/4 321/2/4 344/2/4
f 342/3/4 343/3/4 345/3/4
f 341/2/4 342/2/4 345/2/4
f 343/3/4 344/3/4 345/3/4
f 345/3/4 344/3/4 346/3/4
f 344/2/4 308/2/4 347/2/4
f 346/3/4 344/3/4 347/3/4
f 347/2/4 308/2/4 348/2/4
f 348/2/4 308/2/4 349/2/4
f 349/2/4 308/2/4 350/2/4
f 345/2/4 346/2/4 351/2/4
f 346/3/4 347/3/4 351/3/4
f 347/3/4 348/3/4 351/3/4
f 351/3/4 348/3/4 352/3/4
f 351/2/4 352/2/4 353/2/4
f 352/3/4 348/3/4 353/3/4
f 348/2/4 349/2/4 354/2/4
f 353/3/4 348/3/4 354/3/4
f 354/2/4 349/2/4 355/2/4
f 349/1/4 350/1/4 356/1/4
f 355/2/4 349/2/4 356/2/4
f 356/1/4 350/1/4 357/1/4
f 275/2/4 341/2/4 360/2/4
f 345/2/4 351/2/4 360/2/4
f 351/2/4 353/2/4 360/2/4
f 354/2/4 355/2/4 360/2/4
f 341/2/4 345/2/4 360/2/4
f 353/2/4 354/2/4 360/2/4
f 360/2/4 355/2/4 361/2/4
f 361/2/4 355/2/4 362/2/4
f 362/2/4 355/2/4 363/2/4
f 363/2/4 355/2/4 364/2/4
f 359/3/4 360/3/4 365/3/4
f 365/3/4 360/3/4 366/3/4
f 361/3/4 362/3/4 367/3/4
f 367/3/4 362/3/4 368/3/4
f 363/3/4 364/3/4 369/3/4
f 369/3/4 364/3/4 370/3/4
f 357/3/4 358/3/4 371/3/4
f 371/3/4 358/3/4 372/3/4
f 373/3/4 374/3/4 377/3/4
f 377/3/4 374/3/4 378/3/4
f 375/3/4 376/3/4 379/3/4
f 379/3/4 376/3/4 380/3/4
f 383/3/4 384/3/4 385/3/4
f 385/3/4 384/3/4 386/3/4
f 381/3/4 382/3/4 387/3/4
f 387/3/4 382/3/4 388/3/4
f 393/3/5 390/3/5 389/3/5
f 394/3/5 390/3/5 393/3/5
f 395/3/5 392/3/5 391/3/5
f 396/3/5 392/3/5 395/3/5
f 401/3/5 398/3/5 397/3/5
f 402/3/5 398/3/5 401/3/5
f 405/3/5 400/3/5 399/3/5
f 406/3/5 400/3/5 405/3/5
f 407/1/5 404/1/5 403/1/5
f 407/2/5 403/2/5 402/2/5
f 408/2/5 405/2/5 404/2/5
f 408/1/5 404/1/5 407/1/5
f 410/2/5 407/2/5 402/2/5
f 410/2/5 408/2/5 407/2/5
f 411/2/5 405/2/5 408/2/5
f 411/2/5 408/2/5 410/2/5
f 413/3/5 410/3/5 409/3/5
f 414/3/5 410/3/5 413/3/5
f 415/3/5 412/3/5 411/3/5
f 416/3/5 412/3/5 415/3/5
f 421/3/5 418/3/5 417/3/5
f 422/3/5 420/3/5 419/3/5
f 423/3/5 421/3/5 417/3/5
f 424/3/5 421/3/5 423/3/5
f 425/3/5 420/3/5 422/3/5
f 426/3/5 420/3/5 425/3/5
f 431/3/5 428/3/5 427/3/5
f 432/3/5 428/3/5 431/3/5
f 435/3/5 430/3/5 429/3/5
f 436/3/5 430/3/5 435/3/5
f 437/2/5 433/2/5 432/2/5
f 438/1/5 434/1/5 433/1/5
f 438/2/5 433/2/5 437/2/5
f 439/2/5 435/2/5 434/2/5
f 439/1/5 434/1/5 438/1/5
f 440/2/5 435/2/5 439/2/5
f 447/3/5 442/3/5 441/3/5
f 447/3/5 443/3/5 442/3/5
f 448/3/5 443/3/5 447/3/5
f 449/3/5 445/3/5 444/3/5
f 449/3/5 446/3/5 445/3/5
f 450/3/5 446/3/5 449/3/5
f 451/3/6 452/3/6 455/3/6
f 455/3/6 452/3/6 456/3/6
f 453/3/6 454/3/6 459/3/6
f 459/3/6 454/3/6 460/3/6
f 456/1/6 457/1/6 461/1/6
f 457/2/6 458/2/6 462/2/6
f 461/1/6 457/1/6 462/1/6
f 458/1/6 459/1/6 463/1/6
f 462/2/6 458/2/6 463/2/6
f 463/1/6 459/1/6 464/1/6
f 465/3/6 466/3/6 469/3/6
f 469/3/6 466/3/6 470/3/6
f 467/3/6 468/3/6 471/3/6
f 471/3/6 468/3/6 472/3/6
f 473/3/6 474/3/6 477/3/6
f 475/3/6 476/3/6 478/3/6
f 473/3/6 477/3/6 479/3/6
f 479/3/6 477/3/6 480/3/6
f 478/3/6 476/3/6 481/3/6
f 481/3/6 476/3/6 482/3/6
f 483/3/6 484/3/6 487/3/6
f 487/3/6 484/3/6 488/3/6
f 485/3/6 486/3/6 493/3/6
f 493/3/6 486/3/6 494/3/6
f 489/1/6 490/1/6 496/1/6
f 490/2/6 491/2/6 497/2/6
f 496/1/6 490/1/6 497/1/6
f 491/1/6 492/1/6 498/1/6
f 497/2/6 491/2/6 498/2/6
f 498/1/6 492/1/6 499/1/6
f 495/3/6 496/3/6 501/3/6
f 501/3/6 496/3/6 502/3/6
f 499/3/6 500/3/6 503/3/6
f 503/3/6 500/3/6 504/3/6
f 505/3/6 506/3/6 509/3/6
f 509/3/6 506/3/6 510/3/6
f 507/3/6 508/3/6 511/3/6
f 511/3/6 508/3/6 512/3/6
