# MagicaVoxel @ Ephtracy

# group
o 

# material
mtllib CarConcessionaire.mtl
usemtl palette

# normals
vn -1 0 0
vn 1 0 0
vn 0 0 1
vn 0 0 -1
vn 0 -1 0
vn 0 1 0

# texcoords
vt 0.958984 0.5
vt 0.966797 0.5
vt 0.970703 0.5

# verts
v -3.2 -2.4 3.2
v -3.2 -2.4 -3.2
v -3.2 -2.3 3.2
v -3.2 -2.3 2.2
v -3.2 -2.3 -1.6
v -3.2 -2.3 -3.2
v -3.2 2.3 2.2
v -3.2 2.3 -1.6
v -1.3 -2.3 -1.8
v -1.3 -2.3 -3
v -1.3 -2.2 -1.8
v -1.3 -2.2 -3
v -1.3 1 -1.5
v -1.3 1 -1.6
v -1.3 2.1 -1.5
v -1.3 2.1 -1.6
v -1.2 0.9 -1.5
v -1.2 0.9 -1.6
v -1.2 1 -1.5
v -1.2 1 -1.6
v 3 -2.2 2.2
v 3 -2.2 -1.6
v 3 2.1 2.2
v 3 2.1 -1.6
v -3 -2.2 2.2
v -3 -2.2 -1.6
v -3 2.1 2.2
v -3 2.1 -1.6
v 1 0.9 -1.5
v 1 0.9 -1.6
v 1 1 -1.5
v 1 1 -1.6
v 1.1 1 -1.5
v 1.1 1 -1.6
v 1.1 2.1 -1.5
v 1.1 2.1 -1.6
v 1.4 -2.3 -1.8
v 1.4 -2.3 -3
v 1.4 -2.2 -1.8
v 1.4 -2.2 -3
v 3.2 -2.4 3.2
v 3.2 -2.4 -3.2
v 3.2 -2.3 3.2
v 3.2 -2.3 2.2
v 3.2 -2.3 -1.6
v 3.2 -2.3 -3.2
v 3.2 2.3 2.2
v 3.2 2.3 -1.6
v -3.2 -2.4 3.2
v -3.2 -2.3 3.2
v 3.2 -2.4 3.2
v 3.2 -2.3 3.2
v -3.2 -2.3 2.2
v -3.2 2.3 2.2
v -3 -2.2 2.2
v -3 2.1 2.2
v 3 -2.2 2.2
v 3 2.1 2.2
v 3.2 -2.3 2.2
v 3.2 2.3 2.2
v -1.3 1 -1.5
v -1.3 2.1 -1.5
v -1.2 0.9 -1.5
v -1.2 1 -1.5
v -1.2 1.1 -1.5
v -1.2 2 -1.5
v -1.1 1 -1.5
v -1.1 1.1 -1.5
v 0.9 1 -1.5
v 0.9 1.1 -1.5
v 1 0.9 -1.5
v 1 1 -1.5
v 1 1.1 -1.5
v 1 2 -1.5
v 1.1 1 -1.5
v 1.1 2.1 -1.5
v -1.3 -2.3 -1.8
v -1.3 -2.2 -1.8
v 1.4 -2.3 -1.8
v 1.4 -2.2 -1.8
v -3.2 -2.3 -1.6
v -3.2 2.3 -1.6
v -3 -2.2 -1.6
v -3 2.1 -1.6
v -1.3 1 -1.6
v -1.3 2.1 -1.6
v -1.2 0.9 -1.6
v -1.2 1 -1.6
v -1.2 1.1 -1.6
v -1.2 2 -1.6
v -1.1 1 -1.6
v -1.1 1.1 -1.6
v 0.9 1 -1.6
v 0.9 1.1 -1.6
v 1 0.9 -1.6
v 1 1 -1.6
v 1 1.1 -1.6
v 1 2 -1.6
v 1.1 1 -1.6
v 1.1 2.1 -1.6
v 3 -2.2 -1.6
v 3 2.1 -1.6
v 3.2 -2.3 -1.6
v 3.2 2.3 -1.6
v -1.3 -2.3 -3
v -1.3 -2.2 -3
v 1.4 -2.3 -3
v 1.4 -2.2 -3
v -3.2 -2.4 -3.2
v -3.2 -2.3 -3.2
v 3.2 -2.4 -3.2
v 3.2 -2.3 -3.2
v -3.2 -2.4 3.2
v 3.2 -2.4 3.2
v -3.2 -2.4 -3.2
v 3.2 -2.4 -3.2
v -1.2 0.9 -1.5
v 1 0.9 -1.5
v -1.2 0.9 -1.6
v 1 0.9 -1.6
v -1.3 1 -1.5
v -1.2 1 -1.5
v 1 1 -1.5
v 1.1 1 -1.5
v -1.3 1 -1.6
v -1.2 1 -1.6
v 1 1 -1.6
v 1.1 1 -1.6
v -3 2.1 2.2
v 3 2.1 2.2
v -1.3 2.1 -1.5
v 1.1 2.1 -1.5
v -3 2.1 -1.6
v -1.3 2.1 -1.6
v 1.1 2.1 -1.6
v 3 2.1 -1.6
v -3.2 -2.3 3.2
v 3.2 -2.3 3.2
v -3.2 -2.3 2.2
v 3.2 -2.3 2.2
v -3.2 -2.3 -1.6
v 3.2 -2.3 -1.6
v -1.3 -2.3 -1.8
v 1.4 -2.3 -1.8
v -1.3 -2.3 -3
v 1.4 -2.3 -3
v -3.2 -2.3 -3.2
v 3.2 -2.3 -3.2
v -3 -2.2 2.2
v 3 -2.2 2.2
v -3 -2.2 -1.6
v 3 -2.2 -1.6
v -1.3 -2.2 -1.8
v 1.4 -2.2 -1.8
v -1.3 -2.2 -3
v 1.4 -2.2 -3
v -3.2 2.3 2.2
v 3.2 2.3 2.2
v -3.2 2.3 -1.6
v 3.2 2.3 -1.6

# faces
f 3/3/1 2/3/1 1/3/1
f 4/3/1 2/3/1 3/3/1
f 5/3/1 2/3/1 4/3/1
f 6/3/1 2/3/1 5/3/1
f 7/1/1 5/1/1 4/1/1
f 8/1/1 5/1/1 7/1/1
f 11/1/1 10/1/1 9/1/1
f 12/1/1 10/1/1 11/1/1
f 15/2/1 14/2/1 13/2/1
f 16/2/1 14/2/1 15/2/1
f 19/2/1 18/2/1 17/2/1
f 20/2/1 18/2/1 19/2/1
f 23/1/1 22/1/1 21/1/1
f 24/1/1 22/1/1 23/1/1
f 25/1/2 26/1/2 27/1/2
f 27/1/2 26/1/2 28/1/2
f 29/2/2 30/2/2 31/2/2
f 31/2/2 30/2/2 32/2/2
f 33/2/2 34/2/2 35/2/2
f 35/2/2 34/2/2 36/2/2
f 37/1/2 38/1/2 39/1/2
f 39/1/2 38/1/2 40/1/2
f 41/3/2 42/3/2 43/3/2
f 43/3/2 42/3/2 44/3/2
f 44/3/2 42/3/2 45/3/2
f 45/3/2 42/3/2 46/3/2
f 44/1/2 45/1/2 47/1/2
f 47/1/2 45/1/2 48/1/2
f 51/3/3 50/3/3 49/3/3
f 52/3/3 50/3/3 51/3/3
f 55/1/3 54/1/3 53/1/3
f 56/1/3 54/1/3 55/1/3
f 57/1/3 55/1/3 53/1/3
f 58/1/3 54/1/3 56/1/3
f 59/1/3 57/1/3 53/1/3
f 59/1/3 58/1/3 57/1/3
f 60/1/3 54/1/3 58/1/3
f 60/1/3 58/1/3 59/1/3
f 64/2/3 62/2/3 61/2/3
f 65/2/3 62/2/3 64/2/3
f 66/2/3 62/2/3 65/2/3
f 67/2/3 64/2/3 63/2/3
f 67/2/3 65/2/3 64/2/3
f 68/1/3 66/1/3 65/1/3
f 68/2/3 65/2/3 67/2/3
f 69/2/3 67/2/3 63/2/3
f 69/1/3 68/1/3 67/1/3
f 70/1/3 66/1/3 68/1/3
f 70/1/3 68/1/3 69/1/3
f 71/2/3 69/2/3 63/2/3
f 71/2/3 70/2/3 69/2/3
f 72/2/3 70/2/3 71/2/3
f 73/1/3 66/1/3 70/1/3
f 73/2/3 70/2/3 72/2/3
f 74/2/3 62/2/3 66/2/3
f 74/1/3 66/1/3 73/1/3
f 75/2/3 73/2/3 72/2/3
f 75/2/3 74/2/3 73/2/3
f 76/2/3 62/2/3 74/2/3
f 76/2/3 74/2/3 75/2/3
f 79/1/3 78/1/3 77/1/3
f 80/1/3 78/1/3 79/1/3
f 81/1/4 82/1/4 83/1/4
f 83/1/4 82/1/4 84/1/4
f 84/1/4 82/1/4 86/1/4
f 85/2/4 86/2/4 88/2/4
f 88/2/4 86/2/4 89/2/4
f 89/2/4 86/2/4 90/2/4
f 87/2/4 88/2/4 91/2/4
f 88/2/4 89/2/4 91/2/4
f 89/1/4 90/1/4 92/1/4
f 91/2/4 89/2/4 92/2/4
f 87/2/4 91/2/4 93/2/4
f 91/1/4 92/1/4 93/1/4
f 92/1/4 90/1/4 94/1/4
f 93/1/4 92/1/4 94/1/4
f 87/2/4 93/2/4 95/2/4
f 93/2/4 94/2/4 95/2/4
f 95/2/4 94/2/4 96/2/4
f 94/1/4 90/1/4 97/1/4
f 96/2/4 94/2/4 97/2/4
f 90/2/4 86/2/4 98/2/4
f 97/1/4 90/1/4 98/1/4
f 96/2/4 97/2/4 99/2/4
f 97/2/4 98/2/4 99/2/4
f 86/1/4 82/1/4 100/1/4
f 99/2/4 98/2/4 100/2/4
f 98/2/4 86/2/4 100/2/4
f 81/1/4 83/1/4 101/1/4
f 100/1/4 82/1/4 102/1/4
f 81/1/4 101/1/4 103/1/4
f 101/1/4 102/1/4 103/1/4
f 102/1/4 82/1/4 104/1/4
f 103/1/4 102/1/4 104/1/4
f 105/1/4 106/1/4 107/1/4
f 107/1/4 106/1/4 108/1/4
f 109/3/4 110/3/4 111/3/4
f 111/3/4 110/3/4 112/3/4
f 115/3/5 114/3/5 113/3/5
f 116/3/5 114/3/5 115/3/5
f 119/2/5 118/2/5 117/2/5
f 120/2/5 118/2/5 119/2/5
f 125/2/5 122/2/5 121/2/5
f 126/2/5 122/2/5 125/2/5
f 127/2/5 124/2/5 123/2/5
f 128/2/5 124/2/5 127/2/5
f 131/1/5 130/1/5 129/1/5
f 132/1/5 130/1/5 131/1/5
f 133/1/5 131/1/5 129/1/5
f 134/1/5 131/1/5 133/1/5
f 135/1/5 130/1/5 132/1/5
f 136/1/5 130/1/5 135/1/5
f 137/3/6 138/3/6 139/3/6
f 139/3/6 138/3/6 140/3/6
f 141/3/6 142/3/6 143/3/6
f 143/3/6 142/3/6 144/3/6
f 141/3/6 143/3/6 145/3/6
f 144/3/6 142/3/6 146/3/6
f 141/3/6 145/3/6 147/3/6
f 145/3/6 146/3/6 147/3/6
f 146/3/6 142/3/6 148/3/6
f 147/3/6 146/3/6 148/3/6
f 149/1/6 150/1/6 151/1/6
f 151/1/6 150/1/6 152/1/6
f 153/1/6 154/1/6 155/1/6
f 155/1/6 154/1/6 156/1/6
f 157/1/6 158/1/6 159/1/6
f 159/1/6 158/1/6 160/1/6
