# MagicaVoxel @ Ephtracy

# group
o 

# material
mtllib CarConcessionaire.mtl
usemtl palette

# normals
vn -1 0 0
vn 1 0 0
vn 0 0 1
vn 0 0 -1
vn 0 -1 0
vn 0 1 0

# texcoords
vt 0.396484 0.5
vt 0.958984 0.5
vt 0.966797 0.5
vt 0.970703 0.5
vt 0.994141 0.5

# verts
v -4 1.7 2.3
v -4 1.7 0.0999999
v -4 2.5 2.3
v -4 2.5 0.0999999
v -3.9 -3.2 2.2
v -3.9 -3.2 -1.6
v -3.9 1.5 2.2
v -3.9 1.5 -1.6
v -3.9 1.6 2.2
v -3.9 1.6 0.2
v -3.9 1.7 2.2
v -3.9 1.7 0.2
v -3.8 1.5 2.1
v -3.8 1.5 0.3
v -3.8 1.6 2.1
v -3.8 1.6 0.3
v -2.9 -2.9 -1.3
v -2.9 -2.9 -1.6
v -2.9 1.2 -1.3
v -2.9 1.2 -1.6
v -2.6 1.5 2
v -2.6 1.5 0.4
v -2.6 2.3 2
v -2.6 2.3 0.4
v -2.5 2.3 2.1
v -2.5 2.3 0.3
v -2.5 2.5 2.1
v -2.5 2.5 0.3
v -2.3 -3.2 3.2
v -2.3 -3.2 2.2
v -2.3 -3.2 -1.6
v -2.3 -3.2 -3.2
v -2.3 -3.1 3.2
v -2.3 -3.1 2.2
v -2.3 -3.1 -1.6
v -2.3 -3.1 -3.2
v -0.4 -3.1 -1.8
v -0.4 -3.1 -3
v -0.4 -3 -1.8
v -0.4 -3 -3
v -0.4 0.2 -1.5
v -0.4 0.2 -1.6
v -0.4 1.3 -1.5
v -0.4 1.3 -1.6
v -0.3 0.1 -1.5
v -0.3 0.1 -1.6
v -0.3 0.2 -1.5
v -0.3 0.2 -1.6
v 3.9 -3 2.2
v 3.9 -3 -1.6
v 3.9 1.3 2.2
v 3.9 1.3 -1.6
v -3.8 2.3 2.1
v -3.8 2.3 0.3
v -3.8 2.5 2.1
v -3.8 2.5 0.3
v -3.7 1.5 2
v -3.7 1.5 0.4
v -3.7 2.3 2
v -3.7 2.3 0.4
v -3.4 -2.9 -1.3
v -3.4 -2.9 -1.6
v -3.4 1.2 -1.3
v -3.4 1.2 -1.6
v -2.5 1.5 2.1
v -2.5 1.5 0.3
v -2.5 1.6 2.1
v -2.5 1.6 0.3
v -2.4 1.6 2.2
v -2.4 1.6 0.2
v -2.4 1.7 2.2
v -2.4 1.7 0.2
v -2.3 1.7 2.3
v -2.3 1.7 0.0999999
v -2.3 2.5 2.3
v -2.3 2.5 0.0999999
v -2.1 -3 2.2
v -2.1 -3 -1.6
v -2.1 1.3 2.2
v -2.1 1.3 -1.6
v 1.9 0.1 -1.5
v 1.9 0.1 -1.6
v 1.9 0.2 -1.5
v 1.9 0.2 -1.6
v 2 0.2 -1.5
v 2 0.2 -1.6
v 2 1.3 -1.5
v 2 1.3 -1.6
v 2.3 -3.1 -1.8
v 2.3 -3.1 -3
v 2.3 -3 -1.8
v 2.3 -3 -3
v 4.1 -3.2 3.2
v 4.1 -3.2 -3.2
v 4.1 -3.1 3.2
v 4.1 -3.1 2.2
v 4.1 -3.1 -1.6
v 4.1 -3.1 -3.2
v 4.1 1.5 2.2
v 4.1 1.5 -1.6
v -2.3 -3.2 3.2
v -2.3 -3.1 3.2
v 4.1 -3.2 3.2
v 4.1 -3.1 3.2
v -4 1.7 2.3
v -4 2.5 2.3
v -2.3 1.7 2.3
v -2.3 2.5 2.3
v -3.9 -3.2 2.2
v -3.9 1.5 2.2
v -3.9 1.6 2.2
v -3.9 1.7 2.2
v -2.4 1.6 2.2
v -2.4 1.7 2.2
v -2.3 -3.2 2.2
v -2.3 -3.1 2.2
v -2.1 -3 2.2
v -2.1 1.3 2.2
v 3.9 -3 2.2
v 3.9 1.3 2.2
v 4.1 -3.1 2.2
v 4.1 1.5 2.2
v -3.8 1.5 2.1
v -3.8 1.6 2.1
v -2.5 1.5 2.1
v -2.5 1.6 2.1
v -3.7 1.5 0.4
v -3.7 2.3 0.4
v -2.6 1.5 0.4
v -2.6 2.3 0.4
v -3.8 2.3 0.3
v -3.8 2.5 0.3
v -2.5 2.3 0.3
v -2.5 2.5 0.3
v -0.4 0.2 -1.5
v -0.4 1.3 -1.5
v -0.3 0.1 -1.5
v -0.3 0.2 -1.5
v -0.3 0.3 -1.5
v -0.3 1.2 -1.5
v -0.2 0.2 -1.5
v -0.2 0.3 -1.5
v 1.8 0.2 -1.5
v 1.8 0.3 -1.5
v 1.9 0.1 -1.5
v 1.9 0.2 -1.5
v 1.9 0.3 -1.5
v 1.9 1.2 -1.5
v 2 0.2 -1.5
v 2 1.3 -1.5
v -0.4 -3.1 -1.8
v -0.4 -3 -1.8
v 2.3 -3.1 -1.8
v 2.3 -3 -1.8
v -3.8 2.3 2.1
v -3.8 2.5 2.1
v -2.5 2.3 2.1
v -2.5 2.5 2.1
v -3.7 1.5 2
v -3.7 2.3 2
v -2.6 1.5 2
v -2.6 2.3 2
v -3.8 1.5 0.3
v -3.8 1.6 0.3
v -2.5 1.5 0.3
v -2.5 1.6 0.3
v -3.9 1.6 0.2
v -3.9 1.7 0.2
v -2.4 1.6 0.2
v -2.4 1.7 0.2
v -4 1.7 0.0999999
v -4 2.5 0.0999999
v -2.3 1.7 0.0999999
v -2.3 2.5 0.0999999
v -3.4 -2.9 -1.3
v -3.4 1.2 -1.3
v -2.9 -2.9 -1.3
v -2.9 1.2 -1.3
v -3.9 -3.2 -1.6
v -3.9 1.5 -1.6
v -3.4 -2.9 -1.6
v -3.4 1.2 -1.6
v -2.9 -2.9 -1.6
v -2.9 1.2 -1.6
v -2.3 -3.2 -1.6
v -2.3 -3.1 -1.6
v -2.1 -3 -1.6
v -2.1 1.3 -1.6
v -0.4 0.2 -1.6
v -0.4 1.3 -1.6
v -0.3 0.1 -1.6
v -0.3 0.2 -1.6
v -0.3 0.3 -1.6
v -0.3 1.2 -1.6
v -0.2 0.2 -1.6
v -0.2 0.3 -1.6
v 1.8 0.2 -1.6
v 1.8 0.3 -1.6
v 1.9 0.1 -1.6
v 1.9 0.2 -1.6
v 1.9 0.3 -1.6
v 1.9 1.2 -1.6
v 2 0.2 -1.6
v 2 1.3 -1.6
v 3.9 -3 -1.6
v 3.9 1.3 -1.6
v 4.1 -3.1 -1.6
v 4.1 1.5 -1.6
v -0.4 -3.1 -3
v -0.4 -3 -3
v 2.3 -3.1 -3
v 2.3 -3 -3
v -2.3 -3.2 -3.2
v -2.3 -3.1 -3.2
v 4.1 -3.2 -3.2
v 4.1 -3.1 -3.2
v -2.3 -3.2 3.2
v 4.1 -3.2 3.2
v -3.9 -3.2 2.2
v -2.3 -3.2 2.2
v -3.9 -3.2 -1.6
v -2.3 -3.2 -1.6
v -2.3 -3.2 -3.2
v 4.1 -3.2 -3.2
v -0.3 0.1 -1.5
v 1.9 0.1 -1.5
v -0.3 0.1 -1.6
v 1.9 0.1 -1.6
v -0.4 0.2 -1.5
v -0.3 0.2 -1.5
v 1.9 0.2 -1.5
v 2 0.2 -1.5
v -0.4 0.2 -1.6
v -0.3 0.2 -1.6
v 1.9 0.2 -1.6
v 2 0.2 -1.6
v -3.4 1.2 -1.3
v -2.9 1.2 -1.3
v -3.4 1.2 -1.6
v -2.9 1.2 -1.6
v -2.1 1.3 2.2
v 3.9 1.3 2.2
v -0.4 1.3 -1.5
v 2 1.3 -1.5
v -2.1 1.3 -1.6
v -0.4 1.3 -1.6
v 2 1.3 -1.6
v 3.9 1.3 -1.6
v -3.9 1.6 2.2
v -2.4 1.6 2.2
v -3.8 1.6 2.1
v -2.5 1.6 2.1
v -3.8 1.6 0.3
v -2.5 1.6 0.3
v -3.9 1.6 0.2
v -2.4 1.6 0.2
v -4 1.7 2.3
v -2.3 1.7 2.3
v -3.9 1.7 2.2
v -2.4 1.7 2.2
v -3.9 1.7 0.2
v -2.4 1.7 0.2
v -4 1.7 0.0999999
v -2.3 1.7 0.0999999
v -2.3 -3.1 3.2
v 4.1 -3.1 3.2
v -2.3 -3.1 2.2
v 4.1 -3.1 2.2
v -2.3 -3.1 -1.6
v 4.1 -3.1 -1.6
v -0.4 -3.1 -1.8
v 2.3 -3.1 -1.8
v -0.4 -3.1 -3
v 2.3 -3.1 -3
v -2.3 -3.1 -3.2
v 4.1 -3.1 -3.2
v -2.1 -3 2.2
v 3.9 -3 2.2
v -2.1 -3 -1.6
v 3.9 -3 -1.6
v -0.4 -3 -1.8
v 2.3 -3 -1.8
v -0.4 -3 -3
v 2.3 -3 -3
v -3.4 -2.9 -1.3
v -2.9 -2.9 -1.3
v -3.4 -2.9 -1.6
v -2.9 -2.9 -1.6
v -3.9 1.5 2.2
v 4.1 1.5 2.2
v -3.8 1.5 2.1
v -2.5 1.5 2.1
v -3.7 1.5 2
v -2.6 1.5 2
v -3.7 1.5 0.4
v -2.6 1.5 0.4
v -3.8 1.5 0.3
v -2.5 1.5 0.3
v -3.9 1.5 -1.6
v 4.1 1.5 -1.6
v -3.8 2.3 2.1
v -2.5 2.3 2.1
v -3.7 2.3 2
v -2.6 2.3 2
v -3.7 2.3 0.4
v -2.6 2.3 0.4
v -3.8 2.3 0.3
v -2.5 2.3 0.3
v -4 2.5 2.3
v -2.3 2.5 2.3
v -3.8 2.5 2.1
v -2.5 2.5 2.1
v -3.8 2.5 0.3
v -2.5 2.5 0.3
v -4 2.5 0.0999999
v -2.3 2.5 0.0999999

# faces
f 3/1/1 2/1/1 1/1/1
f 4/1/1 2/1/1 3/1/1
f 7/2/1 6/2/1 5/2/1
f 8/2/1 6/2/1 7/2/1
f 11/1/1 10/1/1 9/1/1
f 12/1/1 10/1/1 11/1/1
f 15/1/1 14/1/1 13/1/1
f 16/1/1 14/1/1 15/1/1
f 19/2/1 18/2/1 17/2/1
f 20/2/1 18/2/1 19/2/1
f 23/1/1 22/1/1 21/1/1
f 24/1/1 22/1/1 23/1/1
f 27/1/1 26/1/1 25/1/1
f 28/1/1 26/1/1 27/1/1
f 33/4/1 30/4/1 29/4/1
f 34/4/1 30/4/1 33/4/1
f 35/4/1 32/4/1 31/4/1
f 36/4/1 32/4/1 35/4/1
f 39/2/1 38/2/1 37/2/1
f 40/2/1 38/2/1 39/2/1
f 43/3/1 42/3/1 41/3/1
f 44/3/1 42/3/1 43/3/1
f 47/3/1 46/3/1 45/3/1
f 48/3/1 46/3/1 47/3/1
f 51/2/1 50/2/1 49/2/1
f 52/2/1 50/2/1 51/2/1
f 53/1/2 54/1/2 55/1/2
f 55/1/2 54/1/2 56/1/2
f 57/1/2 58/1/2 59/1/2
f 59/1/2 58/1/2 60/1/2
f 61/2/2 62/2/2 63/2/2
f 63/2/2 62/2/2 64/2/2
f 65/1/2 66/1/2 67/1/2
f 67/1/2 66/1/2 68/1/2
f 69/1/2 70/1/2 71/1/2
f 71/1/2 70/1/2 72/1/2
f 73/1/2 74/1/2 75/1/2
f 75/1/2 74/1/2 76/1/2
f 77/2/2 78/2/2 79/2/2
f 79/2/2 78/2/2 80/2/2
f 81/3/2 82/3/2 83/3/2
f 83/3/2 82/3/2 84/3/2
f 85/3/2 86/3/2 87/3/2
f 87/3/2 86/3/2 88/3/2
f 89/2/2 90/2/2 91/2/2
f 91/2/2 90/2/2 92/2/2
f 93/4/2 94/4/2 95/4/2
f 95/4/2 94/4/2 96/4/2
f 96/4/2 94/4/2 97/4/2
f 97/4/2 94/4/2 98/4/2
f 96/2/2 97/2/2 99/2/2
f 99/2/2 97/2/2 100/2/2
f 103/4/3 102/4/3 101/4/3
f 104/4/3 102/4/3 103/4/3
f 107/1/3 106/1/3 105/1/3
f 108/1/3 106/1/3 107/1/3
f 113/1/3 112/1/3 111/1/3
f 114/1/3 112/1/3 113/1/3
f 115/2/3 110/2/3 109/2/3
f 116/2/3 110/2/3 115/2/3
f 117/2/3 110/2/3 116/2/3
f 118/2/3 110/2/3 117/2/3
f 119/2/3 117/2/3 116/2/3
f 120/2/3 110/2/3 118/2/3
f 121/2/3 119/2/3 116/2/3
f 121/2/3 120/2/3 119/2/3
f 122/2/3 110/2/3 120/2/3
f 122/2/3 120/2/3 121/2/3
f 125/1/3 124/1/3 123/1/3
f 126/1/3 124/1/3 125/1/3
f 129/1/3 128/1/3 127/1/3
f 130/1/3 128/1/3 129/1/3
f 133/1/3 132/1/3 131/1/3
f 134/1/3 132/1/3 133/1/3
f 138/3/3 136/3/3 135/3/3
f 139/3/3 136/3/3 138/3/3
f 140/3/3 136/3/3 139/3/3
f 141/3/3 138/3/3 137/3/3
f 141/3/3 139/3/3 138/3/3
f 142/2/3 140/2/3 139/2/3
f 142/3/3 139/3/3 141/3/3
f 143/3/3 141/3/3 137/3/3
f 143/2/3 142/2/3 141/2/3
f 144/2/3 140/2/3 142/2/3
f 144/2/3 142/2/3 143/2/3
f 145/3/3 143/3/3 137/3/3
f 145/3/3 144/3/3 143/3/3
f 146/3/3 144/3/3 145/3/3
f 147/2/3 140/2/3 144/2/3
f 147/3/3 144/3/3 146/3/3
f 148/3/3 136/3/3 140/3/3
f 148/2/3 140/2/3 147/2/3
f 149/3/3 147/3/3 146/3/3
f 149/3/3 148/3/3 147/3/3
f 150/3/3 136/3/3 148/3/3
f 150/3/3 148/3/3 149/3/3
f 153/2/3 152/2/3 151/2/3
f 154/2/3 152/2/3 153/2/3
f 155/1/4 156/1/4 157/1/4
f 157/1/4 156/1/4 158/1/4
f 159/1/4 160/1/4 161/1/4
f 161/1/4 160/1/4 162/1/4
f 163/1/4 164/1/4 165/1/4
f 165/1/4 164/1/4 166/1/4
f 167/1/4 168/1/4 169/1/4
f 169/1/4 168/1/4 170/1/4
f 171/1/4 172/1/4 173/1/4
f 173/1/4 172/1/4 174/1/4
f 175/5/4 176/5/4 177/5/4
f 177/5/4 176/5/4 178/5/4
f 179/2/4 180/2/4 181/2/4
f 181/2/4 180/2/4 182/2/4
f 179/2/4 181/2/4 183/2/4
f 182/2/4 180/2/4 184/2/4
f 179/2/4 183/2/4 185/2/4
f 183/2/4 184/2/4 185/2/4
f 185/2/4 184/2/4 186/2/4
f 186/2/4 184/2/4 187/2/4
f 184/2/4 180/2/4 188/2/4
f 187/2/4 184/2/4 188/2/4
f 188/2/4 180/2/4 190/2/4
f 189/3/4 190/3/4 192/3/4
f 192/3/4 190/3/4 193/3/4
f 193/3/4 190/3/4 194/3/4
f 191/3/4 192/3/4 195/3/4
f 192/3/4 193/3/4 195/3/4
f 193/2/4 194/2/4 196/2/4
f 195/3/4 193/3/4 196/3/4
f 191/3/4 195/3/4 197/3/4
f 195/2/4 196/2/4 197/2/4
f 196/2/4 194/2/4 198/2/4
f 197/2/4 196/2/4 198/2/4
f 191/3/4 197/3/4 199/3/4
f 197/3/4 198/3/4 199/3/4
f 199/3/4 198/3/4 200/3/4
f 198/2/4 194/2/4 201/2/4
f 200/3/4 198/3/4 201/3/4
f 194/3/4 190/3/4 202/3/4
f 201/2/4 194/2/4 202/2/4
f 200/3/4 201/3/4 203/3/4
f 201/3/4 202/3/4 203/3/4
f 190/2/4 180/2/4 204/2/4
f 203/3/4 202/3/4 204/3/4
f 202/3/4 190/3/4 204/3/4
f 186/2/4 187/2/4 205/2/4
f 204/2/4 180/2/4 206/2/4
f 186/2/4 205/2/4 207/2/4
f 205/2/4 206/2/4 207/2/4
f 206/2/4 180/2/4 208/2/4
f 207/2/4 206/2/4 208/2/4
f 209/2/4 210/2/4 211/2/4
f 211/2/4 210/2/4 212/2/4
f 213/4/4 214/4/4 215/4/4
f 215/4/4 214/4/4 216/4/4
f 220/4/5 218/4/5 217/4/5
f 221/2/5 220/2/5 219/2/5
f 222/4/5 218/4/5 220/4/5
f 222/2/5 220/2/5 221/2/5
f 223/4/5 218/4/5 222/4/5
f 224/4/5 218/4/5 223/4/5
f 227/3/5 226/3/5 225/3/5
f 228/3/5 226/3/5 227/3/5
f 233/3/5 230/3/5 229/3/5
f 234/3/5 230/3/5 233/3/5
f 235/3/5 232/3/5 231/3/5
f 236/3/5 232/3/5 235/3/5
f 239/2/5 238/2/5 237/2/5
f 240/2/5 238/2/5 239/2/5
f 243/2/5 242/2/5 241/2/5
f 244/2/5 242/2/5 243/2/5
f 245/2/5 243/2/5 241/2/5
f 246/2/5 243/2/5 245/2/5
f 247/2/5 242/2/5 244/2/5
f 248/2/5 242/2/5 247/2/5
f 251/1/5 250/1/5 249/1/5
f 252/1/5 250/1/5 251/1/5
f 253/1/5 251/1/5 249/1/5
f 254/1/5 250/1/5 252/1/5
f 255/1/5 253/1/5 249/1/5
f 255/1/5 254/1/5 253/1/5
f 256/1/5 250/1/5 254/1/5
f 256/1/5 254/1/5 255/1/5
f 259/1/5 258/1/5 257/1/5
f 260/1/5 258/1/5 259/1/5
f 261/1/5 259/1/5 257/1/5
f 262/1/5 258/1/5 260/1/5
f 263/1/5 261/1/5 257/1/5
f 263/1/5 262/1/5 261/1/5
f 264/1/5 258/1/5 262/1/5
f 264/1/5 262/1/5 263/1/5
f 265/4/6 266/4/6 267/4/6
f 267/4/6 266/4/6 268/4/6
f 269/4/6 270/4/6 271/4/6
f 271/4/6 270/4/6 272/4/6
f 269/4/6 271/4/6 273/4/6
f 272/4/6 270/4/6 274/4/6
f 269/4/6 273/4/6 275/4/6
f 273/4/6 274/4/6 275/4/6
f 274/4/6 270/4/6 276/4/6
f 275/4/6 274/4/6 276/4/6
f 277/2/6 278/2/6 279/2/6
f 279/2/6 278/2/6 280/2/6
f 281/2/6 282/2/6 283/2/6
f 283/2/6 282/2/6 284/2/6
f 285/2/6 286/2/6 287/2/6
f 287/2/6 286/2/6 288/2/6
f 289/2/6 290/2/6 291/2/6
f 291/2/6 290/2/6 292/2/6
f 293/2/6 294/2/6 295/2/6
f 295/2/6 294/2/6 296/2/6
f 289/2/6 291/2/6 297/2/6
f 292/2/6 290/2/6 298/2/6
f 289/2/6 297/2/6 299/2/6
f 297/2/6 298/2/6 299/2/6
f 298/2/6 290/2/6 300/2/6
f 299/2/6 298/2/6 300/2/6
f 301/1/6 302/1/6 303/1/6
f 303/1/6 302/1/6 304/1/6
f 301/1/6 303/1/6 305/1/6
f 304/1/6 302/1/6 306/1/6
f 301/1/6 305/1/6 307/1/6
f 305/1/6 306/1/6 307/1/6
f 306/1/6 302/1/6 308/1/6
f 307/1/6 306/1/6 308/1/6
f 309/1/6 310/1/6 311/1/6
f 311/1/6 310/1/6 312/1/6
f 309/1/6 311/1/6 313/1/6
f 312/1/6 310/1/6 314/1/6
f 309/1/6 313/1/6 315/1/6
f 313/1/6 314/1/6 315/1/6
f 314/1/6 310/1/6 316/1/6
f 315/1/6 314/1/6 316/1/6
