# MagicaVoxel @ Ephtracy

# group
o 

# material
mtllib ChallengeSign.mtl
usemtl palette

# normals
vn -1 0 0
vn 1 0 0
vn 0 0 1
vn 0 0 -1
vn 0 -1 0
vn 0 1 0

# texcoords
vt 0.162109 0.5
vt 0.955078 0.5
vt 0.958984 0.5

# verts
v -0.05 -0.6 0.7
v -0.05 -0.6 0.5
v -0.05 -0.6 -0.5
v -0.05 -0.6 -0.7
v -0.05 -0.3 0.8
v -0.05 -0.3 0.7
v -0.05 -0.3 0.5
v -0.05 -0.3 -0.5
v -0.05 -0.3 -0.7
v -0.05 -0.3 -0.8
v -0.05 -0.2 0.7
v -0.05 -0.2 -0.7
v -0.05 -0.1 0.1
v -0.05 -0.1 -0.1
v -0.05 0 0.1
v -0.05 0 -0.1
v -0.05 0.1 0.1
v -0.05 0.1 -0.1
v -0.05 0.4 0.1
v -0.05 0.4 -0.1
v -0.05 0.5 0.7
v -0.05 0.5 -0.7
v -0.05 0.6 0.8
v -0.05 0.6 -0.8
v 0.05 -0.6 0.7
v 0.05 -0.6 0.5
v 0.05 -0.6 -0.5
v 0.05 -0.6 -0.7
v 0.05 -0.3 0.8
v 0.05 -0.3 0.7
v 0.05 -0.3 0.5
v 0.05 -0.3 -0.5
v 0.05 -0.3 -0.7
v 0.05 -0.3 -0.8
v 0.05 -0.2 0.7
v 0.05 -0.2 -0.7
v 0.05 -0.1 0.1
v 0.05 -0.1 -0.1
v 0.05 0 0.1
v 0.05 0 -0.1
v 0.05 0.1 0.1
v 0.05 0.1 -0.1
v 0.05 0.4 0.1
v 0.05 0.4 -0.1
v 0.05 0.5 0.7
v 0.05 0.5 -0.7
v 0.05 0.6 0.8
v 0.05 0.6 -0.8
v -0.05 -0.3 0.8
v -0.05 0.6 0.8
v 0.05 -0.3 0.8
v 0.05 0.6 0.8
v -0.05 -0.6 0.7
v -0.05 -0.3 0.7
v 0.05 -0.6 0.7
v 0.05 -0.3 0.7
v -0.05 -0.6 -0.5
v -0.05 -0.3 -0.5
v 0.05 -0.6 -0.5
v 0.05 -0.3 -0.5
v -0.05 -0.6 0.5
v -0.05 -0.3 0.5
v 0.05 -0.6 0.5
v 0.05 -0.3 0.5
v -0.05 -0.6 -0.7
v -0.05 -0.3 -0.7
v 0.05 -0.6 -0.7
v 0.05 -0.3 -0.7
v -0.05 -0.3 -0.8
v -0.05 0.6 -0.8
v 0.05 -0.3 -0.8
v 0.05 0.6 -0.8
v -0.05 -0.6 0.7
v 0.05 -0.6 0.7
v -0.05 -0.6 0.5
v 0.05 -0.6 0.5
v -0.05 -0.6 -0.5
v 0.05 -0.6 -0.5
v -0.05 -0.6 -0.7
v 0.05 -0.6 -0.7
v -0.05 -0.3 0.8
v 0.05 -0.3 0.8
v -0.05 -0.3 0.7
v 0.05 -0.3 0.7
v -0.05 -0.3 0.5
v 0.05 -0.3 0.5
v -0.05 -0.3 -0.5
v 0.05 -0.3 -0.5
v -0.05 -0.3 -0.7
v 0.05 -0.3 -0.7
v -0.05 -0.3 -0.8
v 0.05 -0.3 -0.8
v -0.05 0.6 0.8
v 0.05 0.6 0.8
v -0.05 0.6 -0.8
v 0.05 0.6 -0.8

# faces
f 6/3/1 2/3/1 1/3/1
f 7/3/1 2/3/1 6/3/1
f 8/3/1 4/3/1 3/3/1
f 9/3/1 4/3/1 8/3/1
f 11/3/1 7/3/1 6/3/1
f 11/3/1 10/3/1 9/3/1
f 11/3/1 9/3/1 8/3/1
f 11/3/1 8/3/1 7/3/1
f 11/3/1 6/3/1 5/3/1
f 12/3/1 10/3/1 11/3/1
f 13/1/1 12/1/1 11/1/1
f 14/1/1 12/1/1 13/1/1
f 15/1/1 13/1/1 11/1/1
f 15/2/1 14/2/1 13/2/1
f 16/1/1 12/1/1 14/1/1
f 16/2/1 14/2/1 15/2/1
f 17/1/1 15/1/1 11/1/1
f 17/1/1 16/1/1 15/1/1
f 18/1/1 12/1/1 16/1/1
f 18/1/1 16/1/1 17/1/1
f 19/1/1 17/1/1 11/1/1
f 19/2/1 18/2/1 17/2/1
f 20/1/1 12/1/1 18/1/1
f 20/2/1 18/2/1 19/2/1
f 21/3/1 11/3/1 5/3/1
f 21/1/1 19/1/1 11/1/1
f 21/1/1 20/1/1 19/1/1
f 22/1/1 12/1/1 20/1/1
f 22/1/1 20/1/1 21/1/1
f 22/3/1 10/3/1 12/3/1
f 23/3/1 21/3/1 5/3/1
f 23/3/1 22/3/1 21/3/1
f 24/3/1 10/3/1 22/3/1
f 24/3/1 22/3/1 23/3/1
f 25/3/2 26/3/2 30/3/2
f 30/3/2 26/3/2 31/3/2
f 27/3/2 28/3/2 32/3/2
f 32/3/2 28/3/2 33/3/2
f 30/3/2 31/3/2 35/3/2
f 33/3/2 34/3/2 35/3/2
f 32/3/2 33/3/2 35/3/2
f 31/3/2 32/3/2 35/3/2
f 29/3/2 30/3/2 35/3/2
f 35/3/2 34/3/2 36/3/2
f 35/1/2 36/1/2 37/1/2
f 37/1/2 36/1/2 38/1/2
f 35/1/2 37/1/2 39/1/2
f 37/2/2 38/2/2 39/2/2
f 38/1/2 36/1/2 40/1/2
f 39/2/2 38/2/2 40/2/2
f 35/1/2 39/1/2 41/1/2
f 39/1/2 40/1/2 41/1/2
f 40/1/2 36/1/2 42/1/2
f 41/1/2 40/1/2 42/1/2
f 35/1/2 41/1/2 43/1/2
f 41/2/2 42/2/2 43/2/2
f 42/1/2 36/1/2 44/1/2
f 43/2/2 42/2/2 44/2/2
f 29/3/2 35/3/2 45/3/2
f 35/1/2 43/1/2 45/1/2
f 43/1/2 44/1/2 45/1/2
f 44/1/2 36/1/2 46/1/2
f 45/1/2 44/1/2 46/1/2
f 36/3/2 34/3/2 46/3/2
f 29/3/2 45/3/2 47/3/2
f 45/3/2 46/3/2 47/3/2
f 46/3/2 34/3/2 48/3/2
f 47/3/2 46/3/2 48/3/2
f 51/3/3 50/3/3 49/3/3
f 52/3/3 50/3/3 51/3/3
f 55/3/3 54/3/3 53/3/3
f 56/3/3 54/3/3 55/3/3
f 59/3/3 58/3/3 57/3/3
f 60/3/3 58/3/3 59/3/3
f 61/3/4 62/3/4 63/3/4
f 63/3/4 62/3/4 64/3/4
f 65/3/4 66/3/4 67/3/4
f 67/3/4 66/3/4 68/3/4
f 69/3/4 70/3/4 71/3/4
f 71/3/4 70/3/4 72/3/4
f 75/3/5 74/3/5 73/3/5
f 76/3/5 74/3/5 75/3/5
f 79/3/5 78/3/5 77/3/5
f 80/3/5 78/3/5 79/3/5
f 83/3/5 82/3/5 81/3/5
f 84/3/5 82/3/5 83/3/5
f 87/3/5 86/3/5 85/3/5
f 88/3/5 86/3/5 87/3/5
f 91/3/5 90/3/5 89/3/5
f 92/3/5 90/3/5 91/3/5
f 93/3/6 94/3/6 95/3/6
f 95/3/6 94/3/6 96/3/6
