# MagicaVoxel @ Ephtracy

# group
o 

# material
mtllib InfoSign.mtl
usemtl palette

# normals
vn -1 0 0
vn 1 0 0
vn 0 0 1
vn 0 0 -1
vn 0 -1 0
vn 0 1 0

# texcoords
vt 0.919922 0.5
vt 0.958984 0.5

# verts
v -0.05 -0.6 0.75
v -0.05 -0.6 0.55
v -0.05 -0.6 -0.55
v -0.05 -0.6 -0.75
v -0.05 -0.3 0.85
v -0.05 -0.3 0.75
v -0.05 -0.3 0.55
v -0.05 -0.3 -0.55
v -0.05 -0.3 -0.75
v -0.05 -0.3 -0.85
v -0.05 -0.2 0.75
v -0.05 -0.2 -0.75
v -0.05 -0.1 0.05
v -0.05 -0.1 -0.15
v -0.05 0 -0.05
v -0.05 0 -0.15
v -0.05 0.2 0.05
v -0.05 0.2 -0.05
v -0.05 0.3 0.05
v -0.05 0.3 -0.05
v -0.05 0.4 0.05
v -0.05 0.4 -0.05
v -0.05 0.5 0.75
v -0.05 0.5 -0.75
v -0.05 0.6 0.85
v -0.05 0.6 -0.85
v 0.05 -0.6 0.75
v 0.05 -0.6 0.55
v 0.05 -0.6 -0.55
v 0.05 -0.6 -0.75
v 0.05 -0.3 0.85
v 0.05 -0.3 0.75
v 0.05 -0.3 0.55
v 0.05 -0.3 -0.55
v 0.05 -0.3 -0.75
v 0.05 -0.3 -0.85
v 0.05 -0.2 0.75
v 0.05 -0.2 -0.75
v 0.05 -0.1 0.05
v 0.05 -0.1 -0.15
v 0.05 0 -0.05
v 0.05 0 -0.15
v 0.05 0.2 0.05
v 0.05 0.2 -0.05
v 0.05 0.3 0.05
v 0.05 0.3 -0.05
v 0.05 0.4 0.05
v 0.05 0.4 -0.05
v 0.05 0.5 0.75
v 0.05 0.5 -0.75
v 0.05 0.6 0.85
v 0.05 0.6 -0.85
v -0.05 -0.3 0.85
v -0.05 0.6 0.85
v 0.05 -0.3 0.85
v 0.05 0.6 0.85
v -0.05 -0.6 0.75
v -0.05 -0.3 0.75
v 0.05 -0.6 0.75
v 0.05 -0.3 0.75
v -0.05 -0.6 -0.55
v -0.05 -0.3 -0.55
v 0.05 -0.6 -0.55
v 0.05 -0.3 -0.55
v -0.05 -0.6 0.55
v -0.05 -0.3 0.55
v 0.05 -0.6 0.55
v 0.05 -0.3 0.55
v -0.05 -0.6 -0.75
v -0.05 -0.3 -0.75
v 0.05 -0.6 -0.75
v 0.05 -0.3 -0.75
v -0.05 -0.3 -0.85
v -0.05 0.6 -0.85
v 0.05 -0.3 -0.85
v 0.05 0.6 -0.85
v -0.05 -0.6 0.75
v 0.05 -0.6 0.75
v -0.05 -0.6 0.55
v 0.05 -0.6 0.55
v -0.05 -0.6 -0.55
v 0.05 -0.6 -0.55
v -0.05 -0.6 -0.75
v 0.05 -0.6 -0.75
v -0.05 -0.3 0.85
v 0.05 -0.3 0.85
v -0.05 -0.3 0.75
v 0.05 -0.3 0.75
v -0.05 -0.3 0.55
v 0.05 -0.3 0.55
v -0.05 -0.3 -0.55
v 0.05 -0.3 -0.55
v -0.05 -0.3 -0.75
v 0.05 -0.3 -0.75
v -0.05 -0.3 -0.85
v 0.05 -0.3 -0.85
v -0.05 0.6 0.85
v 0.05 0.6 0.85
v -0.05 0.6 -0.85
v 0.05 0.6 -0.85

# faces
f 6/2/1 2/2/1 1/2/1
f 7/2/1 2/2/1 6/2/1
f 8/2/1 4/2/1 3/2/1
f 9/2/1 4/2/1 8/2/1
f 11/2/1 7/2/1 6/2/1
f 11/2/1 10/2/1 9/2/1
f 11/2/1 9/2/1 8/2/1
f 11/2/1 8/2/1 7/2/1
f 11/2/1 6/2/1 5/2/1
f 12/2/1 10/2/1 11/2/1
f 13/1/1 12/1/1 11/1/1
f 14/1/1 12/1/1 13/1/1
f 15/2/1 14/2/1 13/2/1
f 16/1/1 12/1/1 14/1/1
f 16/2/1 14/2/1 15/2/1
f 17/1/1 13/1/1 11/1/1
f 17/2/1 15/2/1 13/2/1
f 18/1/1 16/1/1 15/1/1
f 18/2/1 15/2/1 17/2/1
f 19/1/1 17/1/1 11/1/1
f 19/1/1 18/1/1 17/1/1
f 20/1/1 16/1/1 18/1/1
f 20/1/1 18/1/1 19/1/1
f 21/1/1 19/1/1 11/1/1
f 21/2/1 20/2/1 19/2/1
f 22/1/1 16/1/1 20/1/1
f 22/2/1 20/2/1 21/2/1
f 23/2/1 11/2/1 5/2/1
f 23/1/1 21/1/1 11/1/1
f 23/1/1 22/1/1 21/1/1
f 24/1/1 16/1/1 22/1/1
f 24/1/1 22/1/1 23/1/1
f 24/2/1 10/2/1 12/2/1
f 24/1/1 12/1/1 16/1/1
f 25/2/1 23/2/1 5/2/1
f 25/2/1 24/2/1 23/2/1
f 26/2/1 10/2/1 24/2/1
f 26/2/1 24/2/1 25/2/1
f 27/2/2 28/2/2 32/2/2
f 32/2/2 28/2/2 33/2/2
f 29/2/2 30/2/2 34/2/2
f 34/2/2 30/2/2 35/2/2
f 32/2/2 33/2/2 37/2/2
f 35/2/2 36/2/2 37/2/2
f 34/2/2 35/2/2 37/2/2
f 33/2/2 34/2/2 37/2/2
f 31/2/2 32/2/2 37/2/2
f 37/2/2 36/2/2 38/2/2
f 37/1/2 38/1/2 39/1/2
f 39/1/2 38/1/2 40/1/2
f 39/2/2 40/2/2 41/2/2
f 40/1/2 38/1/2 42/1/2
f 41/2/2 40/2/2 42/2/2
f 37/1/2 39/1/2 43/1/2
f 39/2/2 41/2/2 43/2/2
f 41/1/2 42/1/2 44/1/2
f 43/2/2 41/2/2 44/2/2
f 37/1/2 43/1/2 45/1/2
f 43/1/2 44/1/2 45/1/2
f 44/1/2 42/1/2 46/1/2
f 45/1/2 44/1/2 46/1/2
f 37/1/2 45/1/2 47/1/2
f 45/2/2 46/2/2 47/2/2
f 46/1/2 42/1/2 48/1/2
f 47/2/2 46/2/2 48/2/2
f 31/2/2 37/2/2 49/2/2
f 37/1/2 47/1/2 49/1/2
f 47/1/2 48/1/2 49/1/2
f 48/1/2 42/1/2 50/1/2
f 49/1/2 48/1/2 50/1/2
f 38/2/2 36/2/2 50/2/2
f 42/1/2 38/1/2 50/1/2
f 31/2/2 49/2/2 51/2/2
f 49/2/2 50/2/2 51/2/2
f 50/2/2 36/2/2 52/2/2
f 51/2/2 50/2/2 52/2/2
f 55/2/3 54/2/3 53/2/3
f 56/2/3 54/2/3 55/2/3
f 59/2/3 58/2/3 57/2/3
f 60/2/3 58/2/3 59/2/3
f 63/2/3 62/2/3 61/2/3
f 64/2/3 62/2/3 63/2/3
f 65/2/4 66/2/4 67/2/4
f 67/2/4 66/2/4 68/2/4
f 69/2/4 70/2/4 71/2/4
f 71/2/4 70/2/4 72/2/4
f 73/2/4 74/2/4 75/2/4
f 75/2/4 74/2/4 76/2/4
f 79/2/5 78/2/5 77/2/5
f 80/2/5 78/2/5 79/2/5
f 83/2/5 82/2/5 81/2/5
f 84/2/5 82/2/5 83/2/5
f 87/2/5 86/2/5 85/2/5
f 88/2/5 86/2/5 87/2/5
f 91/2/5 90/2/5 89/2/5
f 92/2/5 90/2/5 91/2/5
f 95/2/5 94/2/5 93/2/5
f 96/2/5 94/2/5 95/2/5
f 97/2/6 98/2/6 99/2/6
f 99/2/6 98/2/6 100/2/6
