# MagicaVoxel @ Ephtracy

# group
o 

# material
mtllib Library.mtl
usemtl palette

# normals
vn -1 0 0
vn 1 0 0
vn 0 0 1
vn 0 0 -1
vn 0 -1 0
vn 0 1 0

# texcoords
vt 0.373047 0.5
vt 0.396484 0.5
vt 0.537109 0.5
vt 0.775391 0.5
vt 0.970703 0.5
vt 0.986328 0.5

# verts
v -3.1 -2.4 3.2
v -3.1 -2.4 -3.1
v -3.1 -2.3 3.2
v -3.1 -2.3 -3.1
v -3.1 -0.4 3.2
v -3.1 -0.4 -3.1
v -3.1 0.1 3.2
v -3.1 0.1 -3.1
v -3.1 2 3.2
v -3.1 2 -3.1
v -3.1 2.4 3.2
v -3.1 2.4 -3.1
v -2.9 -2.3 2.4
v -2.9 -2.3 2
v -2.9 -0.4 2.4
v -2.9 -0.4 2
v -2.8 -2.3 2
v -2.8 -2.3 -2.9
v -2.8 -0.4 2
v -2.8 -0.4 -2.9
v -2.8 0.1 2.4
v -2.8 0.1 -2.9
v -2.8 2 2.4
v -2.8 2 -2.9
v -2.6 0.3 2.5
v -2.6 0.3 2.4
v -2.6 1.7 2.5
v -2.6 1.7 2.4
v -1.9 -2.3 2.9
v -1.9 -2.3 2.7
v -1.9 -0.4 2.9
v -1.9 -0.4 2.7
v -1.6 0.4 2.5
v -1.6 0.4 2.4
v -1.6 1.6 2.5
v -1.6 1.6 2.4
v -1.4 -2.3 2.5
v -1.4 -2.3 2.4
v -1.4 -2.1 2.5
v -1.4 -2.1 2.4
v -1.4 -2 2.5
v -1.4 -2 2.4
v -1.4 -1.1 2.5
v -1.4 -1.1 2.4
v -1.4 -1 2.5
v -1.4 -1 2.4
v -1.4 -0.8 2.5
v -1.4 -0.8 2.4
v -0.5 0.4 2.5
v -0.5 0.4 2.4
v -0.5 1.6 2.5
v -0.5 1.6 2.4
v -0.4 -1.7 2.6
v -0.4 -1.7 2.5
v -0.4 -1.5 2.6
v -0.4 -1.5 2.5
v -0.3 -1.7 2.5
v -0.3 -1.7 2.4
v -0.3 -1.5 2.5
v -0.3 -1.5 2.4
v -0.0999999 -1.7 2.6
v -0.0999999 -1.7 2.5
v -0.0999999 -1.5 2.6
v -0.0999999 -1.5 2.5
v 0 -1.7 2.5
v 0 -1.7 2.4
v 0 -1.5 2.5
v 0 -1.5 2.4
v 0.4 0.3 2.5
v 0.4 0.3 2.4
v 0.4 1.7 2.5
v 0.4 1.7 2.4
v 1.3 -2.3 2.9
v 1.3 -2.3 2.7
v 1.3 -0.4 2.9
v 1.3 -0.4 2.7
v 1.5 0.4 2.5
v 1.5 0.4 2.4
v 1.5 1.6 2.5
v 1.5 1.6 2.4
v 2.5 0.4 2.5
v 2.5 0.4 2.4
v 2.5 1.6 2.5
v 2.5 1.6 2.4
v 3 -0.0999999 3.1
v 3 -0.0999999 -3
v 3 0 3.1
v 3 0 -3
v 3 2.3 3.1
v 3 2.3 -3
v 3 2.4 3.1
v 3 2.4 -3
v -3 -0.0999999 3.1
v -3 -0.0999999 -3
v -3 0 3.1
v -3 0 -3
v -3 2.3 3.1
v -3 2.3 -3
v -3 2.4 3.1
v -3 2.4 -3
v -2.5 0.4 2.5
v -2.5 0.4 2.4
v -2.5 1.6 2.5
v -2.5 1.6 2.4
v -1.7 -2.3 2.9
v -1.7 -2.3 2.7
v -1.7 -0.4 2.9
v -1.7 -0.4 2.7
v -1.5 0.4 2.5
v -1.5 0.4 2.4
v -1.5 1.6 2.5
v -1.5 1.6 2.4
v -0.4 -1.7 2.5
v -0.4 -1.7 2.4
v -0.4 -1.5 2.5
v -0.4 -1.5 2.4
v -0.4 0.3 2.5
v -0.4 0.3 2.4
v -0.4 1.7 2.5
v -0.4 1.7 2.4
v -0.3 -1.7 2.6
v -0.3 -1.7 2.5
v -0.3 -1.5 2.6
v -0.3 -1.5 2.5
v -0.0999999 -1.7 2.5
v -0.0999999 -1.7 2.4
v -0.0999999 -1.5 2.5
v -0.0999999 -1.5 2.4
v 0 -1.7 2.6
v 0 -1.7 2.5
v 0 -1.5 2.6
v 0 -1.5 2.5
v 0.5 0.4 2.5
v 0.5 0.4 2.4
v 0.5 1.6 2.5
v 0.5 1.6 2.4
v 1 -2.3 2.5
v 1 -2.3 2.4
v 1 -2.1 2.5
v 1 -2.1 2.4
v 1 -2 2.5
v 1 -2 2.4
v 1 -1.1 2.5
v 1 -1.1 2.4
v 1 -1 2.5
v 1 -1 2.4
v 1 -0.8 2.5
v 1 -0.8 2.4
v 1.5 -2.3 2.9
v 1.5 -2.3 2.7
v 1.5 -0.4 2.9
v 1.5 -0.4 2.7
v 1.6 0.4 2.5
v 1.6 0.4 2.4
v 1.6 1.6 2.5
v 1.6 1.6 2.4
v 2.6 0.3 2.5
v 2.6 0.3 2.4
v 2.6 1.7 2.5
v 2.6 1.7 2.4
v 2.8 -2.3 2.4
v 2.8 -2.3 -2.9
v 2.8 -0.4 2.4
v 2.8 -0.4 -2.9
v 2.8 0.1 2.4
v 2.8 0.1 0.5
v 2.8 0.1 -2.9
v 2.8 2 2.4
v 2.8 2 -2.9
v 3.1 -2.4 3.2
v 3.1 -2.4 -3.1
v 3.1 -2.3 3.2
v 3.1 -2.3 -3.1
v 3.1 -0.4 3.2
v 3.1 -0.4 -3.1
v 3.1 0.1 3.2
v 3.1 0.1 -3.1
v 3.1 2 3.2
v 3.1 2 -3.1
v 3.1 2.4 3.2
v 3.1 2.4 -3.1
v -3.1 -2.4 3.2
v -3.1 -2.3 3.2
v -3.1 -0.4 3.2
v -3.1 0.1 3.2
v -3.1 2 3.2
v -3.1 2.4 3.2
v 3.1 -2.4 3.2
v 3.1 -2.3 3.2
v 3.1 -0.4 3.2
v 3.1 0.1 3.2
v 3.1 2 3.2
v 3.1 2.4 3.2
v -1.9 -2.3 2.9
v -1.9 -0.4 2.9
v -1.7 -2.3 2.9
v -1.7 -0.4 2.9
v 1.3 -2.3 2.9
v 1.3 -0.4 2.9
v 1.5 -2.3 2.9
v 1.5 -0.4 2.9
v -0.4 -1.7 2.6
v -0.4 -1.5 2.6
v -0.3 -1.7 2.6
v -0.3 -1.5 2.6
v -0.0999999 -1.7 2.6
v -0.0999999 -1.5 2.6
v 0 -1.7 2.6
v 0 -1.5 2.6
v -2.6 0.3 2.5
v -2.6 1.7 2.5
v -2.5 0.4 2.5
v -2.5 1.6 2.5
v -1.6 0.4 2.5
v -1.6 1.6 2.5
v -1.5 0.4 2.5
v -1.5 1.6 2.5
v -1.4 -2.3 2.5
v -1.4 -2.1 2.5
v -1.4 -2 2.5
v -1.4 -1.1 2.5
v -1.4 -1 2.5
v -1.4 -0.8 2.5
v -1.3 -2.2 2.5
v -1.3 -2.1 2.5
v -1.3 -2 2.5
v -1.3 -1.1 2.5
v -1.3 -1 2.5
v -1.3 -0.9 2.5
v -1.2 -2 2.5
v -1.2 -1.9 2.5
v -1.2 -1.2 2.5
v -1.2 -1.1 2.5
v -1.1 -1.8 2.5
v -1.1 -1.7 2.5
v -1.1 -1.4 2.5
v -1.1 -1.3 2.5
v -1 -1.6 2.5
v -1 -1.5 2.5
v -0.8 -1.6 2.5
v -0.8 -1.5 2.5
v -0.7 -1.8 2.5
v -0.7 -1.7 2.5
v -0.7 -1.4 2.5
v -0.7 -1.3 2.5
v -0.6 -2 2.5
v -0.6 -1.9 2.5
v -0.6 -1.2 2.5
v -0.6 -1.1 2.5
v -0.5 -2.2 2.5
v -0.5 -2.1 2.5
v -0.5 -2 2.5
v -0.5 -1.1 2.5
v -0.5 -1 2.5
v -0.5 -0.9 2.5
v -0.5 0.4 2.5
v -0.5 1.6 2.5
v -0.4 -2.1 2.5
v -0.4 -2 2.5
v -0.4 -1.7 2.5
v -0.4 -1.5 2.5
v -0.4 -1.1 2.5
v -0.4 -1 2.5
v -0.4 0.3 2.5
v -0.4 1.7 2.5
v -0.3 -1.7 2.5
v -0.3 -1.5 2.5
v -0.0999999 -1.7 2.5
v -0.0999999 -1.5 2.5
v 0 -2.1 2.5
v 0 -2 2.5
v 0 -1.7 2.5
v 0 -1.5 2.5
v 0 -1.1 2.5
v 0 -1 2.5
v 0.0999999 -2.2 2.5
v 0.0999999 -2.1 2.5
v 0.0999999 -2 2.5
v 0.0999999 -1.1 2.5
v 0.0999999 -1 2.5
v 0.0999999 -0.9 2.5
v 0.2 -2 2.5
v 0.2 -1.9 2.5
v 0.2 -1.2 2.5
v 0.2 -1.1 2.5
v 0.3 -1.8 2.5
v 0.3 -1.7 2.5
v 0.3 -1.4 2.5
v 0.3 -1.3 2.5
v 0.4 -1.6 2.5
v 0.4 -1.5 2.5
v 0.4 0.3 2.5
v 0.4 1.7 2.5
v 0.5 0.4 2.5
v 0.5 1.6 2.5
v 0.6 -1.6 2.5
v 0.6 -1.5 2.5
v 0.7 -1.8 2.5
v 0.7 -1.7 2.5
v 0.7 -1.4 2.5
v 0.7 -1.3 2.5
v 0.8 -2 2.5
v 0.8 -1.9 2.5
v 0.8 -1.2 2.5
v 0.8 -1.1 2.5
v 0.9 -2.2 2.5
v 0.9 -2.1 2.5
v 0.9 -2 2.5
v 0.9 -1.1 2.5
v 0.9 -1 2.5
v 0.9 -0.9 2.5
v 1 -2.3 2.5
v 1 -2.1 2.5
v 1 -2 2.5
v 1 -1.1 2.5
v 1 -1 2.5
v 1 -0.8 2.5
v 1.5 0.4 2.5
v 1.5 1.6 2.5
v 1.6 0.4 2.5
v 1.6 1.6 2.5
v 2.5 0.4 2.5
v 2.5 1.6 2.5
v 2.6 0.3 2.5
v 2.6 1.7 2.5
v -2.9 -2.3 2.4
v -2.9 -0.4 2.4
v -2.8 0.1 2.4
v -2.8 2 2.4
v -2.6 0.3 2.4
v -2.6 1.7 2.4
v -2.5 0.4 2.4
v -2.5 1.6 2.4
v -1.6 0.4 2.4
v -1.6 1.6 2.4
v -1.5 0.4 2.4
v -1.5 1.6 2.4
v -1.4 -2.3 2.4
v -1.4 -2.1 2.4
v -1.4 -2 2.4
v -1.4 -1.1 2.4
v -1.4 -1 2.4
v -1.4 -0.8 2.4
v -0.5 0.4 2.4
v -0.5 1.6 2.4
v -0.4 -1.7 2.4
v -0.4 -1.5 2.4
v -0.4 0.3 2.4
v -0.4 1.7 2.4
v -0.3 -1.7 2.4
v -0.3 -1.5 2.4
v -0.0999999 -1.7 2.4
v -0.0999999 -1.5 2.4
v 0 -1.7 2.4
v 0 -1.5 2.4
v 0.4 0.3 2.4
v 0.4 1.7 2.4
v 0.5 0.4 2.4
v 0.5 1.6 2.4
v 1 -2.3 2.4
v 1 -2.1 2.4
v 1 -2 2.4
v 1 -1.1 2.4
v 1 -1 2.4
v 1 -0.8 2.4
v 1.5 0.4 2.4
v 1.5 1.6 2.4
v 1.6 0.4 2.4
v 1.6 1.6 2.4
v 2.5 0.4 2.4
v 2.5 1.6 2.4
v 2.6 0.3 2.4
v 2.6 1.7 2.4
v 2.8 -2.3 2.4
v 2.8 -0.4 2.4
v 2.8 0.1 2.4
v 2.8 2 2.4
v -3 -0.0999999 -3
v -3 0 -3
v -3 2.3 -3
v -3 2.4 -3
v 3 -0.0999999 -3
v 3 0 -3
v 3 2.3 -3
v 3 2.4 -3
v -3 -0.0999999 3.1
v -3 0 3.1
v -3 2.3 3.1
v -3 2.4 3.1
v 3 -0.0999999 3.1
v 3 0 3.1
v 3 2.3 3.1
v 3 2.4 3.1
v -1.9 -2.3 2.7
v -1.9 -0.4 2.7
v -1.7 -2.3 2.7
v -1.7 -0.4 2.7
v 1.3 -2.3 2.7
v 1.3 -0.4 2.7
v 1.5 -2.3 2.7
v 1.5 -0.4 2.7
v -0.4 -1.7 2.5
v -0.4 -1.5 2.5
v -0.3 -1.7 2.5
v -0.3 -1.5 2.5
v -0.0999999 -1.7 2.5
v -0.0999999 -1.5 2.5
v 0 -1.7 2.5
v 0 -1.5 2.5
v -2.9 -2.3 2
v -2.9 -0.4 2
v -2.8 -2.3 2
v -2.8 -0.4 2
v -2.8 -2.3 -2.9
v -2.8 -0.4 -2.9
v -2.8 0.1 -2.9
v -2.8 2 -2.9
v 2.8 -2.3 -2.9
v 2.8 -0.4 -2.9
v 2.8 0.1 -2.9
v 2.8 2 -2.9
v -3.1 -2.4 -3.1
v -3.1 -2.3 -3.1
v -3.1 -0.4 -3.1
v -3.1 0.1 -3.1
v -3.1 2 -3.1
v -3.1 2.4 -3.1
v 3.1 -2.4 -3.1
v 3.1 -2.3 -3.1
v 3.1 -0.4 -3.1
v 3.1 0.1 -3.1
v 3.1 2 -3.1
v 3.1 2.4 -3.1
v -3.1 -2.4 3.2
v 3.1 -2.4 3.2
v -1.9 -2.4 2.9
v -1.7 -2.4 2.9
v 1.3 -2.4 2.9
v 1.5 -2.4 2.9
v -1.9 -2.4 2.7
v -1.7 -2.4 2.7
v 1.3 -2.4 2.7
v 1.5 -2.4 2.7
v -1.4 -2.4 2.5
v 1 -2.4 2.5
v -2.9 -2.4 2.4
v -1.4 -2.4 2.4
v 1 -2.4 2.4
v 2.8 -2.4 2.4
v -2.9 -2.4 2
v -2.8 -2.4 2
v -2.8 -2.4 -2.9
v 2.8 -2.4 -2.9
v -3.1 -2.4 -3.1
v 3.1 -2.4 -3.1
v -0.4 -1.7 2.6
v -0.3 -1.7 2.6
v -0.0999999 -1.7 2.6
v 0 -1.7 2.6
v -0.4 -1.7 2.5
v -0.3 -1.7 2.5
v -0.0999999 -1.7 2.5
v 0 -1.7 2.5
v -0.4 -1.5 2.5
v -0.3 -1.5 2.5
v -0.0999999 -1.5 2.5
v 0 -1.5 2.5
v -0.4 -1.5 2.4
v -0.3 -1.5 2.4
v -0.0999999 -1.5 2.4
v 0 -1.5 2.4
v -3.1 -0.4 3.2
v 3.1 -0.4 3.2
v -1.9 -0.4 2.9
v -1.7 -0.4 2.9
v 1.3 -0.4 2.9
v 1.5 -0.4 2.9
v -1.9 -0.4 2.7
v -1.7 -0.4 2.7
v 1.3 -0.4 2.7
v 1.5 -0.4 2.7
v -2.9 -0.4 2.4
v 2.8 -0.4 2.4
v -2.9 -0.4 2
v -2.8 -0.4 2
v -2.8 -0.4 -2.9
v 2.8 -0.4 -2.9
v -3.1 -0.4 -3.1
v 3.1 -0.4 -3.1
v -3 0 3.1
v 3 0 3.1
v -2.8 0 2.4
v 2.9 0 2.4
v 2.8 0 0.5
v 2.9 0 0.5
v -2.8 0 -2.9
v 2.8 0 -2.9
v -3 0 -3
v 3 0 -3
v -2.6 0.3 2.5
v -0.4 0.3 2.5
v 0.4 0.3 2.5
v 2.6 0.3 2.5
v -2.6 0.3 2.4
v -0.4 0.3 2.4
v 0.4 0.3 2.4
v 2.6 0.3 2.4
v -2.5 1.6 2.5
v -1.6 1.6 2.5
v -1.5 1.6 2.5
v -0.5 1.6 2.5
v 0.5 1.6 2.5
v 1.5 1.6 2.5
v 1.6 1.6 2.5
v 2.5 1.6 2.5
v -2.5 1.6 2.4
v -1.6 1.6 2.4
v -1.5 1.6 2.4
v -0.5 1.6 2.4
v 0.5 1.6 2.4
v 1.5 1.6 2.4
v 1.6 1.6 2.4
v 2.5 1.6 2.4
v -3.1 2 3.2
v 3.1 2 3.2
v -2.8 2 2.4
v 2.8 2 2.4
v -2.8 2 -2.9
v 2.8 2 -2.9
v -3.1 2 -3.1
v 3.1 2 -3.1
v -3.1 -2.3 3.2
v 3.1 -2.3 3.2
v -1.9 -2.3 2.9
v -1.7 -2.3 2.9
v 1.3 -2.3 2.9
v 1.5 -2.3 2.9
v -1.9 -2.3 2.7
v -1.7 -2.3 2.7
v 1.3 -2.3 2.7
v 1.5 -2.3 2.7
v -1.4 -2.3 2.5
v 1 -2.3 2.5
v -2.9 -2.3 2.4
v -1.4 -2.3 2.4
v 1 -2.3 2.4
v 2.8 -2.3 2.4
v -2.9 -2.3 2
v -2.8 -2.3 2
v -2.8 -2.3 -2.9
v 2.8 -2.3 -2.9
v -3.1 -2.3 -3.1
v 3.1 -2.3 -3.1
v -0.4 -1.7 2.5
v -0.3 -1.7 2.5
v -0.0999999 -1.7 2.5
v 0 -1.7 2.5
v -0.4 -1.7 2.4
v -0.3 -1.7 2.4
v -0.0999999 -1.7 2.4
v 0 -1.7 2.4
v -0.4 -1.5 2.6
v -0.3 -1.5 2.6
v -0.0999999 -1.5 2.6
v 0 -1.5 2.6
v -0.4 -1.5 2.5
v -0.3 -1.5 2.5
v -0.0999999 -1.5 2.5
v 0 -1.5 2.5
v -1.4 -0.8 2.5
v 1 -0.8 2.5
v -1.4 -0.8 2.4
v 1 -0.8 2.4
v -3 -0.0999999 3.1
v 3 -0.0999999 3.1
v -3 -0.0999999 -3
v 3 -0.0999999 -3
v -3.1 0.1 3.2
v 3.1 0.1 3.2
v -2.8 0.1 2.4
v 2.8 0.1 2.4
v 2.9 0.1 2.4
v 2.8 0.1 0.5
v 2.9 0.1 0.5
v -2.8 0.1 -2.9
v 2.8 0.1 -2.9
v -3.1 0.1 -3.1
v 3.1 0.1 -3.1
v -2.5 0.4 2.5
v -1.6 0.4 2.5
v -1.5 0.4 2.5
v -0.5 0.4 2.5
v 0.5 0.4 2.5
v 1.5 0.4 2.5
v 1.6 0.4 2.5
v 2.5 0.4 2.5
v -2.5 0.4 2.4
v -1.6 0.4 2.4
v -1.5 0.4 2.4
v -0.5 0.4 2.4
v 0.5 0.4 2.4
v 1.5 0.4 2.4
v 1.6 0.4 2.4
v 2.5 0.4 2.4
v -2.6 1.7 2.5
v -0.4 1.7 2.5
v 0.4 1.7 2.5
v 2.6 1.7 2.5
v -2.6 1.7 2.4
v -0.4 1.7 2.4
v 0.4 1.7 2.4
v 2.6 1.7 2.4
v -3 2.3 3.1
v 3 2.3 3.1
v -3 2.3 -3
v 3 2.3 -3
v -3.1 2.4 3.2
v 3.1 2.4 3.2
v -3 2.4 3.1
v 3 2.4 3.1
v -3 2.4 -3
v 3 2.4 -3
v -3.1 2.4 -3.1
v 3.1 2.4 -3.1

# faces
f 3/6/1 2/6/1 1/6/1
f 4/6/1 2/6/1 3/6/1
f 7/1/1 6/1/1 5/1/1
f 8/1/1 6/1/1 7/1/1
f 11/3/1 10/3/1 9/3/1
f 12/3/1 10/3/1 11/3/1
f 15/3/1 14/3/1 13/3/1
f 16/3/1 14/3/1 15/3/1
f 19/3/1 18/3/1 17/3/1
f 20/3/1 18/3/1 19/3/1
f 23/3/1 22/3/1 21/3/1
f 24/3/1 22/3/1 23/3/1
f 27/1/1 26/1/1 25/1/1
f 28/1/1 26/1/1 27/1/1
f 31/2/1 30/2/1 29/2/1
f 32/2/1 30/2/1 31/2/1
f 35/1/1 34/1/1 33/1/1
f 36/1/1 34/1/1 35/1/1
f 39/1/1 38/1/1 37/1/1
f 40/1/1 38/1/1 39/1/1
f 41/2/1 40/2/1 39/2/1
f 42/2/1 40/2/1 41/2/1
f 43/1/1 42/1/1 41/1/1
f 44/1/1 42/1/1 43/1/1
f 45/2/1 44/2/1 43/2/1
f 46/2/1 44/2/1 45/2/1
f 47/1/1 46/1/1 45/1/1
f 48/1/1 46/1/1 47/1/1
f 51/1/1 50/1/1 49/1/1
f 52/1/1 50/1/1 51/1/1
f 55/5/1 54/5/1 53/5/1
f 56/5/1 54/5/1 55/5/1
f 59/1/1 58/1/1 57/1/1
f 60/1/1 58/1/1 59/1/1
f 63/5/1 62/5/1 61/5/1
f 64/5/1 62/5/1 63/5/1
f 67/1/1 66/1/1 65/1/1
f 68/1/1 66/1/1 67/1/1
f 71/1/1 70/1/1 69/1/1
f 72/1/1 70/1/1 71/1/1
f 75/2/1 74/2/1 73/2/1
f 76/2/1 74/2/1 75/2/1
f 79/1/1 78/1/1 77/1/1
f 80/1/1 78/1/1 79/1/1
f 83/1/1 82/1/1 81/1/1
f 84/1/1 82/1/1 83/1/1
f 87/1/1 86/1/1 85/1/1
f 88/1/1 86/1/1 87/1/1
f 91/3/1 90/3/1 89/3/1
f 92/3/1 90/3/1 91/3/1
f 93/1/2 94/1/2 95/1/2
f 95/1/2 94/1/2 96/1/2
f 97/3/2 98/3/2 99/3/2
f 99/3/2 98/3/2 100/3/2
f 101/1/2 102/1/2 103/1/2
f 103/1/2 102/1/2 104/1/2
f 105/2/2 106/2/2 107/2/2
f 107/2/2 106/2/2 108/2/2
f 109/1/2 110/1/2 111/1/2
f 111/1/2 110/1/2 112/1/2
f 113/1/2 114/1/2 115/1/2
f 115/1/2 114/1/2 116/1/2
f 117/1/2 118/1/2 119/1/2
f 119/1/2 118/1/2 120/1/2
f 121/5/2 122/5/2 123/5/2
f 123/5/2 122/5/2 124/5/2
f 125/1/2 126/1/2 127/1/2
f 127/1/2 126/1/2 128/1/2
f 129/5/2 130/5/2 131/5/2
f 131/5/2 130/5/2 132/5/2
f 133/1/2 134/1/2 135/1/2
f 135/1/2 134/1/2 136/1/2
f 137/1/2 138/1/2 139/1/2
f 139/1/2 138/1/2 140/1/2
f 139/2/2 140/2/2 141/2/2
f 141/2/2 140/2/2 142/2/2
f 141/1/2 142/1/2 143/1/2
f 143/1/2 142/1/2 144/1/2
f 143/2/2 144/2/2 145/2/2
f 145/2/2 144/2/2 146/2/2
f 145/1/2 146/1/2 147/1/2
f 147/1/2 146/1/2 148/1/2
f 149/2/2 150/2/2 151/2/2
f 151/2/2 150/2/2 152/2/2
f 153/1/2 154/1/2 155/1/2
f 155/1/2 154/1/2 156/1/2
f 157/1/2 158/1/2 159/1/2
f 159/1/2 158/1/2 160/1/2
f 161/3/2 162/3/2 163/3/2
f 163/3/2 162/3/2 164/3/2
f 165/3/2 166/3/2 168/3/2
f 166/3/2 167/3/2 168/3/2
f 168/3/2 167/3/2 169/3/2
f 170/6/2 171/6/2 172/6/2
f 172/6/2 171/6/2 173/6/2
f 174/1/2 175/1/2 176/1/2
f 176/1/2 175/1/2 177/1/2
f 178/3/2 179/3/2 180/3/2
f 180/3/2 179/3/2 181/3/2
f 188/6/3 183/6/3 182/6/3
f 189/6/3 183/6/3 188/6/3
f 190/1/3 185/1/3 184/1/3
f 191/1/3 185/1/3 190/1/3
f 192/3/3 187/3/3 186/3/3
f 193/3/3 187/3/3 192/3/3
f 196/2/3 195/2/3 194/2/3
f 197/2/3 195/2/3 196/2/3
f 200/2/3 199/2/3 198/2/3
f 201/2/3 199/2/3 200/2/3
f 204/5/3 203/5/3 202/5/3
f 205/5/3 203/5/3 204/5/3
f 208/5/3 207/5/3 206/5/3
f 209/5/3 207/5/3 208/5/3
f 212/1/3 211/1/3 210/1/3
f 213/1/3 211/1/3 212/1/3
f 214/1/3 212/1/3 210/1/3
f 215/1/3 211/1/3 213/1/3
f 216/1/3 214/1/3 210/1/3
f 216/1/3 215/1/3 214/1/3
f 217/1/3 211/1/3 215/1/3
f 217/1/3 215/1/3 216/1/3
f 224/1/3 219/1/3 218/1/3
f 225/2/3 220/2/3 219/2/3
f 225/1/3 219/1/3 224/1/3
f 226/1/3 221/1/3 220/1/3
f 226/2/3 220/2/3 225/2/3
f 227/2/3 222/2/3 221/2/3
f 227/1/3 221/1/3 226/1/3
f 228/1/3 223/1/3 222/1/3
f 228/2/3 222/2/3 227/2/3
f 229/1/3 223/1/3 228/1/3
f 230/1/3 227/1/3 226/1/3
f 230/1/3 226/1/3 225/1/3
f 230/1/3 228/1/3 227/1/3
f 231/1/3 228/1/3 230/1/3
f 232/1/3 228/1/3 231/1/3
f 233/1/3 228/1/3 232/1/3
f 234/1/3 232/1/3 231/1/3
f 235/1/3 232/1/3 234/1/3
f 236/1/3 232/1/3 235/1/3
f 237/1/3 232/1/3 236/1/3
f 238/1/3 236/1/3 235/1/3
f 239/1/3 236/1/3 238/1/3
f 240/1/3 238/1/3 235/1/3
f 240/2/3 239/2/3 238/2/3
f 241/1/3 236/1/3 239/1/3
f 241/2/3 239/2/3 240/2/3
f 242/1/3 234/1/3 231/1/3
f 242/2/3 235/2/3 234/2/3
f 243/1/3 241/1/3 240/1/3
f 243/2/3 235/2/3 242/2/3
f 243/1/3 240/1/3 235/1/3
f 244/1/3 236/1/3 241/1/3
f 244/1/3 241/1/3 243/1/3
f 244/2/3 237/2/3 236/2/3
f 245/1/3 232/1/3 237/1/3
f 245/2/3 237/2/3 244/2/3
f 246/1/3 230/1/3 225/1/3
f 246/2/3 231/2/3 230/2/3
f 247/1/3 245/1/3 244/1/3
f 247/2/3 231/2/3 246/2/3
f 247/1/3 243/1/3 242/1/3
f 247/1/3 244/1/3 243/1/3
f 247/1/3 242/1/3 231/1/3
f 248/1/3 232/1/3 245/1/3
f 248/1/3 245/1/3 247/1/3
f 248/2/3 233/2/3 232/2/3
f 249/1/3 228/1/3 233/1/3
f 249/2/3 233/2/3 248/2/3
f 250/1/3 224/1/3 218/1/3
f 250/2/3 225/2/3 224/2/3
f 251/1/3 249/1/3 248/1/3
f 251/2/3 225/2/3 250/2/3
f 251/1/3 247/1/3 246/1/3
f 251/1/3 248/1/3 247/1/3
f 251/1/3 246/1/3 225/1/3
f 252/1/3 249/1/3 251/1/3
f 253/1/3 228/1/3 249/1/3
f 253/1/3 249/1/3 252/1/3
f 254/2/3 229/2/3 228/2/3
f 254/1/3 228/1/3 253/1/3
f 255/1/3 223/1/3 229/1/3
f 255/2/3 229/2/3 254/2/3
f 256/1/3 216/1/3 210/1/3
f 257/1/3 211/1/3 217/1/3
f 258/2/3 252/2/3 251/2/3
f 258/1/3 251/1/3 250/1/3
f 259/1/3 253/1/3 252/1/3
f 259/2/3 252/2/3 258/2/3
f 260/1/3 253/1/3 259/1/3
f 261/1/3 253/1/3 260/1/3
f 262/2/3 254/2/3 253/2/3
f 262/1/3 253/1/3 261/1/3
f 263/1/3 255/1/3 254/1/3
f 263/2/3 254/2/3 262/2/3
f 264/1/3 256/1/3 210/1/3
f 264/1/3 257/1/3 256/1/3
f 265/1/3 211/1/3 257/1/3
f 265/1/3 257/1/3 264/1/3
f 266/1/3 259/1/3 258/1/3
f 266/1/3 260/1/3 259/1/3
f 267/1/3 263/1/3 262/1/3
f 267/1/3 262/1/3 261/1/3
f 268/1/3 266/1/3 258/1/3
f 268/1/3 267/1/3 266/1/3
f 269/1/3 263/1/3 267/1/3
f 269/1/3 267/1/3 268/1/3
f 270/1/3 268/1/3 258/1/3
f 270/1/3 258/1/3 250/1/3
f 271/1/3 268/1/3 270/1/3
f 272/1/3 268/1/3 271/1/3
f 273/1/3 263/1/3 269/1/3
f 274/1/3 263/1/3 273/1/3
f 275/1/3 255/1/3 263/1/3
f 275/1/3 263/1/3 274/1/3
f 276/1/3 250/1/3 218/1/3
f 276/1/3 270/1/3 250/1/3
f 277/2/3 271/2/3 270/2/3
f 277/1/3 270/1/3 276/1/3
f 278/1/3 274/1/3 273/1/3
f 278/2/3 271/2/3 277/2/3
f 278/1/3 272/1/3 271/1/3
f 278/1/3 273/1/3 272/1/3
f 279/2/3 275/2/3 274/2/3
f 279/1/3 274/1/3 278/1/3
f 280/1/3 255/1/3 275/1/3
f 280/2/3 275/2/3 279/2/3
f 281/1/3 223/1/3 255/1/3
f 281/1/3 255/1/3 280/1/3
f 282/1/3 280/1/3 279/1/3
f 282/1/3 279/1/3 278/1/3
f 282/1/3 278/1/3 277/1/3
f 283/1/3 280/1/3 282/1/3
f 284/1/3 280/1/3 283/1/3
f 285/1/3 280/1/3 284/1/3
f 286/1/3 284/1/3 283/1/3
f 287/1/3 284/1/3 286/1/3
f 288/1/3 284/1/3 287/1/3
f 289/1/3 284/1/3 288/1/3
f 290/1/3 288/1/3 287/1/3
f 291/1/3 288/1/3 290/1/3
f 294/1/3 293/1/3 292/1/3
f 295/1/3 293/1/3 294/1/3
f 296/1/3 290/1/3 287/1/3
f 296/2/3 291/2/3 290/2/3
f 297/1/3 288/1/3 291/1/3
f 297/2/3 291/2/3 296/2/3
f 298/1/3 286/1/3 283/1/3
f 298/2/3 287/2/3 286/2/3
f 299/1/3 297/1/3 296/1/3
f 299/2/3 287/2/3 298/2/3
f 299/1/3 296/1/3 287/1/3
f 300/1/3 288/1/3 297/1/3
f 300/1/3 297/1/3 299/1/3
f 300/2/3 289/2/3 288/2/3
f 301/1/3 284/1/3 289/1/3
f 301/2/3 289/2/3 300/2/3
f 302/1/3 282/1/3 277/1/3
f 302/2/3 283/2/3 282/2/3
f 303/1/3 301/1/3 300/1/3
f 303/2/3 283/2/3 302/2/3
f 303/1/3 299/1/3 298/1/3
f 303/1/3 298/1/3 283/1/3
f 303/1/3 300/1/3 299/1/3
f 304/1/3 284/1/3 301/1/3
f 304/1/3 301/1/3 303/1/3
f 304/2/3 285/2/3 284/2/3
f 305/1/3 280/1/3 285/1/3
f 305/2/3 285/2/3 304/2/3
f 306/2/3 277/2/3 276/2/3
f 306/1/3 276/1/3 218/1/3
f 307/1/3 305/1/3 304/1/3
f 307/2/3 277/2/3 306/2/3
f 307/1/3 303/1/3 302/1/3
f 307/1/3 302/1/3 277/1/3
f 307/1/3 304/1/3 303/1/3
f 308/1/3 305/1/3 307/1/3
f 309/1/3 280/1/3 305/1/3
f 309/1/3 305/1/3 308/1/3
f 310/2/3 281/2/3 280/2/3
f 310/1/3 280/1/3 309/1/3
f 311/1/3 223/1/3 281/1/3
f 311/2/3 281/2/3 310/2/3
f 312/1/3 306/1/3 218/1/3
f 312/1/3 307/1/3 306/1/3
f 313/2/3 308/2/3 307/2/3
f 313/1/3 307/1/3 312/1/3
f 314/1/3 309/1/3 308/1/3
f 314/2/3 308/2/3 313/2/3
f 315/2/3 310/2/3 309/2/3
f 315/1/3 309/1/3 314/1/3
f 316/1/3 311/1/3 310/1/3
f 316/2/3 310/2/3 315/2/3
f 317/1/3 223/1/3 311/1/3
f 317/1/3 311/1/3 316/1/3
f 318/1/3 294/1/3 292/1/3
f 319/1/3 293/1/3 295/1/3
f 320/1/3 318/1/3 292/1/3
f 320/1/3 319/1/3 318/1/3
f 321/1/3 293/1/3 319/1/3
f 321/1/3 319/1/3 320/1/3
f 322/1/3 320/1/3 292/1/3
f 323/1/3 293/1/3 321/1/3
f 324/1/3 322/1/3 292/1/3
f 324/1/3 323/1/3 322/1/3
f 325/1/3 293/1/3 323/1/3
f 325/1/3 323/1/3 324/1/3
f 330/3/3 329/3/3 328/3/3
f 331/3/3 329/3/3 330/3/3
f 334/4/3 333/4/3 332/4/3
f 335/4/3 333/4/3 334/4/3
f 338/3/3 327/3/3 326/3/3
f 339/3/3 327/3/3 338/3/3
f 340/3/3 327/3/3 339/3/3
f 341/3/3 327/3/3 340/3/3
f 342/3/3 327/3/3 341/3/3
f 343/3/3 327/3/3 342/3/3
f 344/4/3 337/4/3 336/4/3
f 345/4/3 337/4/3 344/4/3
f 348/3/3 330/3/3 328/3/3
f 349/3/3 329/3/3 331/3/3
f 350/3/3 347/3/3 346/3/3
f 351/3/3 347/3/3 350/3/3
f 354/3/3 353/3/3 352/3/3
f 355/3/3 353/3/3 354/3/3
f 356/3/3 349/3/3 348/3/3
f 356/3/3 348/3/3 328/3/3
f 357/3/3 329/3/3 349/3/3
f 357/3/3 349/3/3 356/3/3
f 365/3/3 327/3/3 343/3/3
f 366/4/3 359/4/3 358/4/3
f 367/4/3 359/4/3 366/4/3
f 370/4/3 369/4/3 368/4/3
f 371/4/3 369/4/3 370/4/3
f 372/3/3 356/3/3 328/3/3
f 373/3/3 329/3/3 357/3/3
f 374/3/3 364/3/3 363/3/3
f 374/3/3 365/3/3 364/3/3
f 374/3/3 361/3/3 360/3/3
f 374/3/3 362/3/3 361/3/3
f 374/3/3 363/3/3 362/3/3
f 375/3/3 327/3/3 365/3/3
f 375/3/3 365/3/3 374/3/3
f 376/3/3 373/3/3 372/3/3
f 376/3/3 372/3/3 328/3/3
f 377/3/3 329/3/3 373/3/3
f 377/3/3 373/3/3 376/3/3
f 382/1/3 379/1/3 378/1/3
f 383/1/3 379/1/3 382/1/3
f 384/3/3 381/3/3 380/3/3
f 385/3/3 381/3/3 384/3/3
f 386/1/4 387/1/4 390/1/4
f 390/1/4 387/1/4 391/1/4
f 388/3/4 389/3/4 392/3/4
f 392/3/4 389/3/4 393/3/4
f 394/2/4 395/2/4 396/2/4
f 396/2/4 395/2/4 397/2/4
f 398/2/4 399/2/4 400/2/4
f 400/2/4 399/2/4 401/2/4
f 402/5/4 403/5/4 404/5/4
f 404/5/4 403/5/4 405/5/4
f 406/5/4 407/5/4 408/5/4
f 408/5/4 407/5/4 409/5/4
f 410/3/4 411/3/4 412/3/4
f 412/3/4 411/3/4 413/3/4
f 414/3/4 415/3/4 418/3/4
f 418/3/4 415/3/4 419/3/4
f 416/3/4 417/3/4 420/3/4
f 420/3/4 417/3/4 421/3/4
f 422/6/4 423/6/4 428/6/4
f 428/6/4 423/6/4 429/6/4
f 424/1/4 425/1/4 430/1/4
f 430/1/4 425/1/4 431/1/4
f 426/3/4 427/3/4 432/3/4
f 432/3/4 427/3/4 433/3/4
f 436/6/5 435/6/5 434/6/5
f 437/6/5 435/6/5 436/6/5
f 438/6/5 435/6/5 437/6/5
f 439/6/5 435/6/5 438/6/5
f 440/6/5 436/6/5 434/6/5
f 440/3/5 437/3/5 436/3/5
f 441/6/5 438/6/5 437/6/5
f 441/3/5 437/3/5 440/3/5
f 442/3/5 439/3/5 438/3/5
f 442/6/5 438/6/5 441/6/5
f 443/6/5 435/6/5 439/6/5
f 443/3/5 439/3/5 442/3/5
f 444/6/5 442/6/5 441/6/5
f 444/6/5 441/6/5 440/6/5
f 444/6/5 443/6/5 442/6/5
f 445/6/5 443/6/5 444/6/5
f 446/6/5 440/6/5 434/6/5
f 446/6/5 444/6/5 440/6/5
f 447/3/5 445/3/5 444/3/5
f 447/6/5 444/6/5 446/6/5
f 448/6/5 443/6/5 445/6/5
f 448/3/5 445/3/5 447/3/5
f 449/6/5 435/6/5 443/6/5
f 449/6/5 443/6/5 448/6/5
f 450/3/5 448/3/5 447/3/5
f 450/3/5 447/3/5 446/3/5
f 450/3/5 449/3/5 448/3/5
f 450/6/5 446/6/5 434/6/5
f 451/3/5 449/3/5 450/3/5
f 452/6/5 451/6/5 450/6/5
f 452/3/5 449/3/5 451/3/5
f 453/6/5 435/6/5 449/6/5
f 453/3/5 449/3/5 452/3/5
f 454/6/5 452/6/5 450/6/5
f 454/6/5 450/6/5 434/6/5
f 454/6/5 453/6/5 452/6/5
f 455/6/5 435/6/5 453/6/5
f 455/6/5 453/6/5 454/6/5
f 460/5/5 457/5/5 456/5/5
f 461/5/5 457/5/5 460/5/5
f 462/5/5 459/5/5 458/5/5
f 463/5/5 459/5/5 462/5/5
f 468/1/5 465/1/5 464/1/5
f 469/1/5 465/1/5 468/1/5
f 470/1/5 467/1/5 466/1/5
f 471/1/5 467/1/5 470/1/5
f 474/1/5 473/1/5 472/1/5
f 475/1/5 473/1/5 474/1/5
f 476/1/5 473/1/5 475/1/5
f 477/1/5 473/1/5 476/1/5
f 478/1/5 474/1/5 472/1/5
f 479/1/5 476/1/5 475/1/5
f 480/1/5 476/1/5 479/1/5
f 481/1/5 473/1/5 477/1/5
f 482/1/5 480/1/5 479/1/5
f 482/1/5 481/1/5 480/1/5
f 482/1/5 478/1/5 472/1/5
f 482/1/5 479/1/5 478/1/5
f 483/1/5 473/1/5 481/1/5
f 483/1/5 481/1/5 482/1/5
f 484/1/5 482/1/5 472/1/5
f 486/1/5 485/1/5 484/1/5
f 487/1/5 473/1/5 483/1/5
f 488/1/5 486/1/5 484/1/5
f 488/1/5 487/1/5 486/1/5
f 488/1/5 484/1/5 472/1/5
f 489/1/5 473/1/5 487/1/5
f 489/1/5 487/1/5 488/1/5
f 492/1/5 491/1/5 490/1/5
f 493/1/5 491/1/5 492/1/5
f 494/3/5 493/3/5 492/3/5
f 495/1/5 491/1/5 493/1/5
f 495/3/5 493/3/5 494/3/5
f 496/1/5 492/1/5 490/1/5
f 496/3/5 494/3/5 492/3/5
f 497/1/5 495/1/5 494/1/5
f 497/3/5 494/3/5 496/3/5
f 498/1/5 496/1/5 490/1/5
f 498/1/5 497/1/5 496/1/5
f 499/1/5 491/1/5 495/1/5
f 499/1/5 497/1/5 498/1/5
f 499/1/5 495/1/5 497/1/5
f 504/1/5 501/1/5 500/1/5
f 505/1/5 501/1/5 504/1/5
f 506/1/5 503/1/5 502/1/5
f 507/1/5 503/1/5 506/1/5
f 516/1/5 509/1/5 508/1/5
f 517/1/5 509/1/5 516/1/5
f 518/1/5 511/1/5 510/1/5
f 519/1/5 511/1/5 518/1/5
f 520/1/5 513/1/5 512/1/5
f 521/1/5 513/1/5 520/1/5
f 522/1/5 515/1/5 514/1/5
f 523/1/5 515/1/5 522/1/5
f 526/3/5 525/3/5 524/3/5
f 527/3/5 525/3/5 526/3/5
f 528/3/5 526/3/5 524/3/5
f 529/3/5 525/3/5 527/3/5
f 530/3/5 528/3/5 524/3/5
f 530/3/5 529/3/5 528/3/5
f 531/3/5 525/3/5 529/3/5
f 531/3/5 529/3/5 530/3/5
f 532/6/6 533/6/6 534/6/6
f 534/6/6 533/6/6 535/6/6
f 535/6/6 533/6/6 536/6/6
f 536/6/6 533/6/6 537/6/6
f 532/6/6 534/6/6 538/6/6
f 535/6/6 536/6/6 539/6/6
f 539/6/6 536/6/6 540/6/6
f 537/6/6 533/6/6 541/6/6
f 539/6/6 540/6/6 542/6/6
f 540/6/6 541/6/6 542/6/6
f 538/6/6 539/6/6 542/6/6
f 542/6/6 541/6/6 543/6/6
f 532/6/6 538/6/6 544/6/6
f 538/6/6 542/6/6 544/6/6
f 544/6/6 542/6/6 545/6/6
f 543/6/6 541/6/6 546/6/6
f 541/6/6 533/6/6 547/6/6
f 546/6/6 541/6/6 547/6/6
f 532/6/6 544/6/6 548/6/6
f 548/6/6 549/6/6 550/6/6
f 547/6/6 533/6/6 551/6/6
f 548/6/6 550/6/6 552/6/6
f 550/6/6 551/6/6 552/6/6
f 532/6/6 548/6/6 552/6/6
f 551/6/6 533/6/6 553/6/6
f 552/6/6 551/6/6 553/6/6
f 554/1/6 555/1/6 558/1/6
f 558/1/6 555/1/6 559/1/6
f 556/1/6 557/1/6 560/1/6
f 560/1/6 557/1/6 561/1/6
f 562/5/6 563/5/6 566/5/6
f 566/5/6 563/5/6 567/5/6
f 564/5/6 565/5/6 568/5/6
f 568/5/6 565/5/6 569/5/6
f 570/1/6 571/1/6 572/1/6
f 572/1/6 571/1/6 573/1/6
f 574/3/6 575/3/6 576/3/6
f 576/3/6 575/3/6 577/3/6
f 578/1/6 579/1/6 580/1/6
f 580/1/6 579/1/6 581/1/6
f 581/1/6 579/1/6 582/1/6
f 581/3/6 582/3/6 583/3/6
f 582/1/6 579/1/6 584/1/6
f 583/3/6 582/3/6 584/3/6
f 578/1/6 580/1/6 585/1/6
f 583/1/6 584/1/6 586/1/6
f 578/1/6 585/1/6 587/1/6
f 585/1/6 586/1/6 587/1/6
f 584/1/6 579/1/6 588/1/6
f 587/1/6 586/1/6 588/1/6
f 586/1/6 584/1/6 588/1/6
f 589/1/6 590/1/6 597/1/6
f 597/1/6 590/1/6 598/1/6
f 591/1/6 592/1/6 599/1/6
f 599/1/6 592/1/6 600/1/6
f 593/1/6 594/1/6 601/1/6
f 601/1/6 594/1/6 602/1/6
f 595/1/6 596/1/6 603/1/6
f 603/1/6 596/1/6 604/1/6
f 605/1/6 606/1/6 609/1/6
f 609/1/6 606/1/6 610/1/6
f 607/1/6 608/1/6 611/1/6
f 611/1/6 608/1/6 612/1/6
f 613/3/6 614/3/6 615/3/6
f 615/3/6 614/3/6 616/3/6
f 617/3/6 618/3/6 619/3/6
f 619/3/6 618/3/6 620/3/6
f 617/3/6 619/3/6 621/3/6
f 620/3/6 618/3/6 622/3/6
f 617/3/6 621/3/6 623/3/6
f 621/3/6 622/3/6 623/3/6
f 622/3/6 618/3/6 624/3/6
f 623/3/6 622/3/6 624/3/6
