# MagicaVoxel @ Ephtracy

# group
o 

# material
mtllib MuseumIcon.mtl
usemtl palette

# normals
vn -1 0 0
vn 1 0 0
vn 0 0 1
vn 0 0 -1
vn 0 -1 0
vn 0 1 0

# texcoords
vt 0.822266 0.5
vt 0.841797 0.5
vt 0.962891 0.5
vt 0.966797 0.5

# verts
v -0.3 -0.8 0.3
v -0.3 -0.8 -0.3
v -0.3 -0.7 0.3
v -0.3 -0.7 -0.3
v -0.3 -0.6 0.3
v -0.3 -0.6 0.1
v -0.3 -0.6 -0.1
v -0.3 -0.6 -0.3
v -0.3 0 0.7
v -0.3 0 0.4
v -0.3 0 -0.4
v -0.3 0 -0.7
v -0.3 0.1 0.8
v -0.3 0.1 0.7
v -0.3 0.1 0.4
v -0.3 0.1 0.3
v -0.3 0.1 -0.3
v -0.3 0.1 -0.4
v -0.3 0.1 -0.7
v -0.3 0.1 -0.8
v -0.3 0.2 0.6
v -0.3 0.2 0.5
v -0.3 0.2 -0.5
v -0.3 0.2 -0.6
v -0.3 0.3 0.8
v -0.3 0.3 0.7
v -0.3 0.3 0.6
v -0.3 0.3 0.5
v -0.3 0.3 0.3
v -0.3 0.3 0.1
v -0.3 0.3 -0.1
v -0.3 0.3 -0.3
v -0.3 0.3 -0.5
v -0.3 0.3 -0.6
v -0.3 0.3 -0.7
v -0.3 0.3 -0.8
v -0.3 0.4 0.8
v -0.3 0.4 0.7
v -0.3 0.4 0.6
v -0.3 0.4 -0.6
v -0.3 0.4 -0.7
v -0.3 0.4 -0.8
v -0.3 0.5 0.7
v -0.3 0.5 0.6
v -0.3 0.5 0.1
v -0.3 0.5 -0.1
v -0.3 0.5 -0.6
v -0.3 0.5 -0.7
v -0.3 0.6 0.3
v -0.3 0.6 0.1
v -0.3 0.6 -0.1
v -0.3 0.6 -0.3
v -0.3 0.7 0.3
v -0.3 0.7 -0.3
v -0.3 0.8 0.3
v -0.3 0.8 -0.3
v -0.2 -0.6 0.2
v -0.2 -0.6 0.1
v -0.2 -0.6 -0.1
v -0.2 -0.6 -0.2
v -0.2 0.3 0.2
v -0.2 0.3 0.1
v -0.2 0.3 -0.1
v -0.2 0.3 -0.2
v -0.2 0.5 0.2
v -0.2 0.5 0.1
v -0.2 0.5 -0.1
v -0.2 0.5 -0.2
v -0.2 0.6 0.2
v -0.2 0.6 0.1
v -0.2 0.6 -0.1
v -0.2 0.6 -0.2
v -0.1 -0.6 0.3
v -0.1 -0.6 0.2
v -0.1 -0.6 -0.2
v -0.1 -0.6 -0.3
v -0.1 0.1 0.3
v -0.1 0.1 -0.3
v -0.1 0.3 0.3
v -0.1 0.3 0.2
v -0.1 0.3 -0.2
v -0.1 0.3 -0.3
v -0.1 0.5 0.3
v -0.1 0.5 0.2
v -0.1 0.5 -0.2
v -0.1 0.5 -0.3
v -0.1 0.6 0.3
v -0.1 0.6 0.2
v -0.1 0.6 -0.2
v -0.1 0.6 -0.3
v 0.1 -0.6 0.3
v 0.1 -0.6 0.2
v 0.1 -0.6 -0.2
v 0.1 -0.6 -0.3
v 0.1 0.1 0.3
v 0.1 0.1 -0.3
v 0.1 0.3 0.3
v 0.1 0.3 0.2
v 0.1 0.3 -0.2
v 0.1 0.3 -0.3
v 0.1 0.5 0.3
v 0.1 0.5 0.2
v 0.1 0.5 -0.2
v 0.1 0.5 -0.3
v 0.1 0.6 0.3
v 0.1 0.6 0.2
v 0.1 0.6 -0.2
v 0.1 0.6 -0.3
v 0.2 -0.6 0.2
v 0.2 -0.6 0.1
v 0.2 -0.6 -0.1
v 0.2 -0.6 -0.2
v 0.2 0.3 0.2
v 0.2 0.3 0.1
v 0.2 0.3 -0.1
v 0.2 0.3 -0.2
v 0.2 0.5 0.2
v 0.2 0.5 0.1
v 0.2 0.5 -0.1
v 0.2 0.5 -0.2
v 0.2 0.6 0.2
v 0.2 0.6 0.1
v 0.2 0.6 -0.1
v 0.2 0.6 -0.2
v 0.3 -0.8 0.3
v 0.3 -0.8 -0.3
v 0.3 -0.7 0.3
v 0.3 -0.7 -0.3
v 0.3 -0.6 0.3
v 0.3 -0.6 0.1
v 0.3 -0.6 -0.1
v 0.3 -0.6 -0.3
v 0.3 0 0.7
v 0.3 0 0.4
v 0.3 0 -0.4
v 0.3 0 -0.7
v 0.3 0.1 0.8
v 0.3 0.1 0.7
v 0.3 0.1 0.4
v 0.3 0.1 0.3
v 0.3 0.1 -0.3
v 0.3 0.1 -0.4
v 0.3 0.1 -0.7
v 0.3 0.1 -0.8
v 0.3 0.2 0.6
v 0.3 0.2 0.5
v 0.3 0.2 -0.5
v 0.3 0.2 -0.6
v 0.3 0.3 0.8
v 0.3 0.3 0.7
v 0.3 0.3 0.6
v 0.3 0.3 0.5
v 0.3 0.3 0.3
v 0.3 0.3 0.1
v 0.3 0.3 -0.1
v 0.3 0.3 -0.3
v 0.3 0.3 -0.5
v 0.3 0.3 -0.6
v 0.3 0.3 -0.7
v 0.3 0.3 -0.8
v 0.3 0.4 0.8
v 0.3 0.4 0.7
v 0.3 0.4 0.6
v 0.3 0.4 -0.6
v 0.3 0.4 -0.7
v 0.3 0.4 -0.8
v 0.3 0.5 0.7
v 0.3 0.5 0.6
v 0.3 0.5 0.1
v 0.3 0.5 -0.1
v 0.3 0.5 -0.6
v 0.3 0.5 -0.7
v 0.3 0.6 0.3
v 0.3 0.6 0.1
v 0.3 0.6 -0.1
v 0.3 0.6 -0.3
v 0.3 0.7 0.3
v 0.3 0.7 -0.3
v 0.3 0.8 0.3
v 0.3 0.8 -0.3
v -0.3 0.1 0.8
v -0.3 0.3 0.8
v -0.3 0.4 0.8
v 0.3 0.1 0.8
v 0.3 0.3 0.8
v 0.3 0.4 0.8
v -0.3 0 0.7
v -0.3 0.1 0.7
v -0.3 0.4 0.7
v -0.3 0.5 0.7
v 0.3 0 0.7
v 0.3 0.1 0.7
v 0.3 0.4 0.7
v 0.3 0.5 0.7
v -0.3 -0.8 0.3
v -0.3 -0.7 0.3
v -0.3 -0.6 0.3
v -0.3 0.6 0.3
v -0.3 0.7 0.3
v -0.3 0.8 0.3
v -0.1 -0.6 0.3
v -0.1 0.1 0.3
v -0.1 0.5 0.3
v -0.1 0.6 0.3
v 0.1 -0.6 0.3
v 0.1 0.1 0.3
v 0.1 0.5 0.3
v 0.1 0.6 0.3
v 0.3 -0.8 0.3
v 0.3 -0.7 0.3
v 0.3 -0.6 0.3
v 0.3 0.6 0.3
v 0.3 0.7 0.3
v 0.3 0.8 0.3
v -0.2 -0.6 0.2
v -0.2 0.3 0.2
v -0.2 0.5 0.2
v -0.2 0.6 0.2
v -0.1 -0.6 0.2
v -0.1 0.3 0.2
v -0.1 0.5 0.2
v -0.1 0.6 0.2
v 0.1 -0.6 0.2
v 0.1 0.3 0.2
v 0.1 0.5 0.2
v 0.1 0.6 0.2
v 0.2 -0.6 0.2
v 0.2 0.3 0.2
v 0.2 0.5 0.2
v 0.2 0.6 0.2
v -0.3 -0.6 0.1
v -0.3 0.3 0.1
v -0.3 0.5 0.1
v -0.3 0.6 0.1
v -0.2 -0.6 0.1
v -0.2 0.3 0.1
v -0.2 0.5 0.1
v -0.2 0.6 0.1
v 0.2 -0.6 0.1
v 0.2 0.3 0.1
v 0.2 0.5 0.1
v 0.2 0.6 0.1
v 0.3 -0.6 0.1
v 0.3 0.3 0.1
v 0.3 0.5 0.1
v 0.3 0.6 0.1
v -0.3 0.1 -0.3
v -0.3 0.3 -0.3
v -0.1 0.1 -0.3
v -0.1 0.3 -0.3
v 0.1 0.1 -0.3
v 0.1 0.3 -0.3
v 0.3 0.1 -0.3
v 0.3 0.3 -0.3
v -0.3 0 -0.4
v -0.3 0.1 -0.4
v 0.3 0 -0.4
v 0.3 0.1 -0.4
v -0.3 0 0.4
v -0.3 0.1 0.4
v 0.3 0 0.4
v 0.3 0.1 0.4
v -0.3 0.1 0.3
v -0.3 0.3 0.3
v -0.1 0.1 0.3
v -0.1 0.3 0.3
v 0.1 0.1 0.3
v 0.1 0.3 0.3
v 0.3 0.1 0.3
v 0.3 0.3 0.3
v -0.3 -0.6 -0.1
v -0.3 0.3 -0.1
v -0.3 0.5 -0.1
v -0.3 0.6 -0.1
v -0.2 -0.6 -0.1
v -0.2 0.3 -0.1
v -0.2 0.5 -0.1
v -0.2 0.6 -0.1
v 0.2 -0.6 -0.1
v 0.2 0.3 -0.1
v 0.2 0.5 -0.1
v 0.2 0.6 -0.1
v 0.3 -0.6 -0.1
v 0.3 0.3 -0.1
v 0.3 0.5 -0.1
v 0.3 0.6 -0.1
v -0.2 -0.6 -0.2
v -0.2 0.3 -0.2
v -0.2 0.5 -0.2
v -0.2 0.6 -0.2
v -0.1 -0.6 -0.2
v -0.1 0.3 -0.2
v -0.1 0.5 -0.2
v -0.1 0.6 -0.2
v 0.1 -0.6 -0.2
v 0.1 0.3 -0.2
v 0.1 0.5 -0.2
v 0.1 0.6 -0.2
v 0.2 -0.6 -0.2
v 0.2 0.3 -0.2
v 0.2 0.5 -0.2
v 0.2 0.6 -0.2
v -0.3 -0.8 -0.3
v -0.3 -0.7 -0.3
v -0.3 -0.6 -0.3
v -0.3 0.6 -0.3
v -0.3 0.7 -0.3
v -0.3 0.8 -0.3
v -0.1 -0.6 -0.3
v -0.1 0.1 -0.3
v -0.1 0.5 -0.3
v -0.1 0.6 -0.3
v 0.1 -0.6 -0.3
v 0.1 0.1 -0.3
v 0.1 0.5 -0.3
v 0.1 0.6 -0.3
v 0.3 -0.8 -0.3
v 0.3 -0.7 -0.3
v 0.3 -0.6 -0.3
v 0.3 0.6 -0.3
v 0.3 0.7 -0.3
v 0.3 0.8 -0.3
v -0.3 0 -0.7
v -0.3 0.1 -0.7
v -0.3 0.4 -0.7
v -0.3 0.5 -0.7
v 0.3 0 -0.7
v 0.3 0.1 -0.7
v 0.3 0.4 -0.7
v 0.3 0.5 -0.7
v -0.3 0.1 -0.8
v -0.3 0.3 -0.8
v -0.3 0.4 -0.8
v 0.3 0.1 -0.8
v 0.3 0.3 -0.8
v 0.3 0.4 -0.8
v -0.3 -0.8 0.3
v 0.3 -0.8 0.3
v -0.3 -0.8 -0.3
v 0.3 -0.8 -0.3
v -0.3 0 0.7
v 0.3 0 0.7
v -0.3 0 0.4
v 0.3 0 0.4
v -0.3 0 -0.4
v 0.3 0 -0.4
v -0.3 0 -0.7
v 0.3 0 -0.7
v -0.3 0.1 0.8
v 0.3 0.1 0.8
v -0.3 0.1 0.7
v 0.3 0.1 0.7
v -0.3 0.1 0.4
v 0.3 0.1 0.4
v -0.3 0.1 0.3
v -0.1 0.1 0.3
v 0.1 0.1 0.3
v 0.3 0.1 0.3
v -0.3 0.1 -0.3
v -0.1 0.1 -0.3
v 0.1 0.1 -0.3
v 0.3 0.1 -0.3
v -0.3 0.1 -0.4
v 0.3 0.1 -0.4
v -0.3 0.1 -0.7
v 0.3 0.1 -0.7
v -0.3 0.1 -0.8
v 0.3 0.1 -0.8
v -0.3 0.3 0.3
v -0.1 0.3 0.3
v 0.1 0.3 0.3
v 0.3 0.3 0.3
v -0.2 0.3 0.2
v -0.1 0.3 0.2
v 0.1 0.3 0.2
v 0.2 0.3 0.2
v -0.3 0.3 0.1
v -0.2 0.3 0.1
v 0.2 0.3 0.1
v 0.3 0.3 0.1
v -0.3 0.3 -0.1
v -0.2 0.3 -0.1
v 0.2 0.3 -0.1
v 0.3 0.3 -0.1
v -0.2 0.3 -0.2
v -0.1 0.3 -0.2
v 0.1 0.3 -0.2
v 0.2 0.3 -0.2
v -0.3 0.3 -0.3
v -0.1 0.3 -0.3
v 0.1 0.3 -0.3
v 0.3 0.3 -0.3
v -0.3 0.6 0.3
v -0.1 0.6 0.3
v 0.1 0.6 0.3
v 0.3 0.6 0.3
v -0.2 0.6 0.2
v -0.1 0.6 0.2
v 0.1 0.6 0.2
v 0.2 0.6 0.2
v -0.3 0.6 0.1
v -0.2 0.6 0.1
v 0.2 0.6 0.1
v 0.3 0.6 0.1
v -0.3 0.6 -0.1
v -0.2 0.6 -0.1
v 0.2 0.6 -0.1
v 0.3 0.6 -0.1
v -0.2 0.6 -0.2
v -0.1 0.6 -0.2
v 0.1 0.6 -0.2
v 0.2 0.6 -0.2
v -0.3 0.6 -0.3
v -0.1 0.6 -0.3
v 0.1 0.6 -0.3
v 0.3 0.6 -0.3
v -0.3 -0.6 0.3
v -0.1 -0.6 0.3
v 0.1 -0.6 0.3
v 0.3 -0.6 0.3
v -0.2 -0.6 0.2
v -0.1 -0.6 0.2
v 0.1 -0.6 0.2
v 0.2 -0.6 0.2
v -0.3 -0.6 0.1
v -0.2 -0.6 0.1
v 0.2 -0.6 0.1
v 0.3 -0.6 0.1
v -0.3 -0.6 -0.1
v -0.2 -0.6 -0.1
v 0.2 -0.6 -0.1
v 0.3 -0.6 -0.1
v -0.2 -0.6 -0.2
v -0.1 -0.6 -0.2
v 0.1 -0.6 -0.2
v 0.2 -0.6 -0.2
v -0.3 -0.6 -0.3
v -0.1 -0.6 -0.3
v 0.1 -0.6 -0.3
v 0.3 -0.6 -0.3
v -0.3 0.4 0.8
v 0.3 0.4 0.8
v -0.3 0.4 0.7
v 0.3 0.4 0.7
v -0.3 0.4 -0.7
v 0.3 0.4 -0.7
v -0.3 0.4 -0.8
v 0.3 0.4 -0.8
v -0.3 0.5 0.7
v 0.3 0.5 0.7
v -0.3 0.5 0.6
v 0.3 0.5 0.6
v -0.1 0.5 0.3
v 0.1 0.5 0.3
v -0.2 0.5 0.2
v -0.1 0.5 0.2
v 0.1 0.5 0.2
v 0.2 0.5 0.2
v -0.3 0.5 0.1
v -0.2 0.5 0.1
v 0.2 0.5 0.1
v 0.3 0.5 0.1
v -0.3 0.5 -0.1
v -0.2 0.5 -0.1
v 0.2 0.5 -0.1
v 0.3 0.5 -0.1
v -0.2 0.5 -0.2
v -0.1 0.5 -0.2
v 0.1 0.5 -0.2
v 0.2 0.5 -0.2
v -0.1 0.5 -0.3
v 0.1 0.5 -0.3
v -0.3 0.5 -0.6
v 0.3 0.5 -0.6
v -0.3 0.5 -0.7
v 0.3 0.5 -0.7
v -0.3 0.8 0.3
v 0.3 0.8 0.3
v -0.2 0.8 0.2
v 0.2 0.8 0.2
v -0.2 0.8 -0.2
v 0.2 0.8 -0.2
v -0.3 0.8 -0.3
v 0.3 0.8 -0.3

# faces
f 3/3/1 2/3/1 1/3/1
f 4/3/1 2/3/1 3/3/1
f 5/4/1 4/4/1 3/4/1
f 6/4/1 4/4/1 5/4/1
f 7/4/1 4/4/1 6/4/1
f 8/4/1 4/4/1 7/4/1
f 14/3/1 10/3/1 9/3/1
f 15/3/1 10/3/1 14/3/1
f 18/3/1 12/3/1 11/3/1
f 19/3/1 12/3/1 18/3/1
f 21/3/1 16/3/1 15/3/1
f 21/3/1 14/3/1 13/3/1
f 21/3/1 15/3/1 14/3/1
f 22/3/1 16/3/1 21/3/1
f 23/3/1 20/3/1 19/3/1
f 23/3/1 19/3/1 18/3/1
f 23/3/1 18/3/1 17/3/1
f 24/3/1 20/3/1 23/3/1
f 25/3/1 21/3/1 13/3/1
f 26/3/1 21/3/1 25/3/1
f 27/1/1 22/1/1 21/1/1
f 27/3/1 21/3/1 26/3/1
f 28/3/1 16/3/1 22/3/1
f 28/1/1 22/1/1 27/1/1
f 29/3/1 16/3/1 28/3/1
f 30/3/1 7/3/1 6/3/1
f 31/3/1 7/3/1 30/3/1
f 32/3/1 23/3/1 17/3/1
f 33/2/1 24/2/1 23/2/1
f 33/3/1 23/3/1 32/3/1
f 34/3/1 20/3/1 24/3/1
f 34/2/1 24/2/1 33/2/1
f 35/3/1 20/3/1 34/3/1
f 36/3/1 20/3/1 35/3/1
f 37/4/1 26/4/1 25/4/1
f 38/3/1 27/3/1 26/3/1
f 38/4/1 26/4/1 37/4/1
f 38/3/1 29/3/1 28/3/1
f 38/3/1 33/3/1 32/3/1
f 38/3/1 35/3/1 34/3/1
f 38/3/1 34/3/1 33/3/1
f 38/3/1 31/3/1 30/3/1
f 38/3/1 30/3/1 29/3/1
f 38/3/1 32/3/1 31/3/1
f 38/3/1 28/3/1 27/3/1
f 39/3/1 35/3/1 38/3/1
f 40/3/1 35/3/1 39/3/1
f 41/4/1 36/4/1 35/4/1
f 41/3/1 35/3/1 40/3/1
f 42/4/1 36/4/1 41/4/1
f 43/4/1 39/4/1 38/4/1
f 44/3/1 40/3/1 39/3/1
f 44/4/1 39/4/1 43/4/1
f 45/3/1 40/3/1 44/3/1
f 46/3/1 40/3/1 45/3/1
f 47/4/1 41/4/1 40/4/1
f 47/3/1 40/3/1 46/3/1
f 48/4/1 41/4/1 47/4/1
f 50/3/1 46/3/1 45/3/1
f 51/3/1 46/3/1 50/3/1
f 53/3/1 50/3/1 49/3/1
f 53/3/1 52/3/1 51/3/1
f 53/3/1 51/3/1 50/3/1
f 54/3/1 52/3/1 53/3/1
f 55/4/1 54/4/1 53/4/1
f 56/4/1 54/4/1 55/4/1
f 61/4/1 58/4/1 57/4/1
f 62/4/1 58/4/1 61/4/1
f 63/4/1 60/4/1 59/4/1
f 64/4/1 60/4/1 63/4/1
f 69/4/1 66/4/1 65/4/1
f 70/4/1 66/4/1 69/4/1
f 71/4/1 68/4/1 67/4/1
f 72/4/1 68/4/1 71/4/1
f 77/3/1 74/3/1 73/3/1
f 78/3/1 76/3/1 75/3/1
f 79/3/1 74/3/1 77/3/1
f 80/3/1 74/3/1 79/3/1
f 81/3/1 78/3/1 75/3/1
f 82/3/1 78/3/1 81/3/1
f 87/3/1 84/3/1 83/3/1
f 88/3/1 84/3/1 87/3/1
f 89/3/1 86/3/1 85/3/1
f 90/3/1 86/3/1 89/3/1
f 91/3/2 92/3/2 95/3/2
f 93/3/2 94/3/2 96/3/2
f 95/3/2 92/3/2 97/3/2
f 97/3/2 92/3/2 98/3/2
f 93/3/2 96/3/2 99/3/2
f 99/3/2 96/3/2 100/3/2
f 101/3/2 102/3/2 105/3/2
f 105/3/2 102/3/2 106/3/2
f 103/3/2 104/3/2 107/3/2
f 107/3/2 104/3/2 108/3/2
f 109/4/2 110/4/2 113/4/2
f 113/4/2 110/4/2 114/4/2
f 111/4/2 112/4/2 115/4/2
f 115/4/2 112/4/2 116/4/2
f 117/4/2 118/4/2 121/4/2
f 121/4/2 118/4/2 122/4/2
f 119/4/2 120/4/2 123/4/2
f 123/4/2 120/4/2 124/4/2
f 125/3/2 126/3/2 127/3/2
f 127/3/2 126/3/2 128/3/2
f 127/4/2 128/4/2 129/4/2
f 129/4/2 128/4/2 130/4/2
f 130/4/2 128/4/2 131/4/2
f 131/4/2 128/4/2 132/4/2
f 133/3/2 134/3/2 138/3/2
f 138/3/2 134/3/2 139/3/2
f 135/3/2 136/3/2 142/3/2
f 142/3/2 136/3/2 143/3/2
f 139/3/2 140/3/2 145/3/2
f 137/3/2 138/3/2 145/3/2
f 138/3/2 139/3/2 145/3/2
f 145/3/2 140/3/2 146/3/2
f 143/3/2 144/3/2 147/3/2
f 142/3/2 143/3/2 147/3/2
f 141/3/2 142/3/2 147/3/2
f 147/3/2 144/3/2 148/3/2
f 137/3/2 145/3/2 149/3/2
f 149/3/2 145/3/2 150/3/2
f 145/1/2 146/1/2 151/1/2
f 150/3/2 145/3/2 151/3/2
f 146/3/2 140/3/2 152/3/2
f 151/1/2 146/1/2 152/1/2
f 152/3/2 140/3/2 153/3/2
f 130/3/2 131/3/2 154/3/2
f 154/3/2 131/3/2 155/3/2
f 141/3/2 147/3/2 156/3/2
f 147/2/2 148/2/2 157/2/2
f 156/3/2 147/3/2 157/3/2
f 148/3/2 144/3/2 158/3/2
f 157/2/2 148/2/2 158/2/2
f 158/3/2 144/3/2 159/3/2
f 159/3/2 144/3/2 160/3/2
f 149/4/2 150/4/2 161/4/2
f 150/3/2 151/3/2 162/3/2
f 161/4/2 150/4/2 162/4/2
f 152/3/2 153/3/2 162/3/2
f 156/3/2 157/3/2 162/3/2
f 158/3/2 159/3/2 162/3/2
f 157/3/2 158/3/2 162/3/2
f 154/3/2 155/3/2 162/3/2
f 153/3/2 154/3/2 162/3/2
f 155/3/2 156/3/2 162/3/2
f 151/3/2 152/3/2 162/3/2
f 162/3/2 159/3/2 163/3/2
f 163/3/2 159/3/2 164/3/2
f 159/4/2 160/4/2 165/4/2
f 164/3/2 159/3/2 165/3/2
f 165/4/2 160/4/2 166/4/2
f 162/4/2 163/4/2 167/4/2
f 163/3/2 164/3/2 168/3/2
f 167/4/2 163/4/2 168/4/2
f 168/3/2 164/3/2 169/3/2
f 169/3/2 164/3/2 170/3/2
f 164/4/2 165/4/2 171/4/2
f 170/3/2 164/3/2 171/3/2
f 171/4/2 165/4/2 172/4/2
f 169/3/2 170/3/2 174/3/2
f 174/3/2 170/3/2 175/3/2
f 173/3/2 174/3/2 177/3/2
f 175/3/2 176/3/2 177/3/2
f 174/3/2 175/3/2 177/3/2
f 177/3/2 176/3/2 178/3/2
f 177/4/2 178/4/2 179/4/2
f 179/4/2 178/4/2 180/4/2
f 184/3/3 182/3/3 181/3/3
f 185/4/3 183/4/3 182/4/3
f 185/3/3 182/3/3 184/3/3
f 186/4/3 183/4/3 185/4/3
f 191/3/3 188/3/3 187/3/3
f 192/3/3 188/3/3 191/3/3
f 193/4/3 190/4/3 189/4/3
f 194/4/3 190/4/3 193/4/3
f 201/4/3 197/4/3 196/4/3
f 204/3/3 199/3/3 198/3/3
f 205/3/3 202/3/3 201/3/3
f 205/4/3 201/4/3 196/4/3
f 206/3/3 202/3/3 205/3/3
f 207/3/3 204/3/3 203/3/3
f 208/3/3 199/3/3 204/3/3
f 208/3/3 204/3/3 207/3/3
f 209/3/3 196/3/3 195/3/3
f 210/4/3 205/4/3 196/4/3
f 210/3/3 196/3/3 209/3/3
f 211/4/3 205/4/3 210/4/3
f 212/3/3 199/3/3 208/3/3
f 213/4/3 200/4/3 199/4/3
f 213/3/3 199/3/3 212/3/3
f 214/4/3 200/4/3 213/4/3
f 219/4/3 216/4/3 215/4/3
f 220/4/3 216/4/3 219/4/3
f 221/4/3 218/4/3 217/4/3
f 222/4/3 218/4/3 221/4/3
f 227/4/3 224/4/3 223/4/3
f 228/4/3 224/4/3 227/4/3
f 229/4/3 226/4/3 225/4/3
f 230/4/3 226/4/3 229/4/3
f 235/3/3 232/3/3 231/3/3
f 236/3/3 232/3/3 235/3/3
f 237/3/3 234/3/3 233/3/3
f 238/3/3 234/3/3 237/3/3
f 243/3/3 240/3/3 239/3/3
f 244/3/3 240/3/3 243/3/3
f 245/3/3 242/3/3 241/3/3
f 246/3/3 242/3/3 245/3/3
f 249/3/3 248/3/3 247/3/3
f 250/3/3 248/3/3 249/3/3
f 253/3/3 252/3/3 251/3/3
f 254/3/3 252/3/3 253/3/3
f 257/3/3 256/3/3 255/3/3
f 258/3/3 256/3/3 257/3/3
f 259/3/4 260/3/4 261/3/4
f 261/3/4 260/3/4 262/3/4
f 263/3/4 264/3/4 265/3/4
f 265/3/4 264/3/4 266/3/4
f 267/3/4 268/3/4 269/3/4
f 269/3/4 268/3/4 270/3/4
f 271/3/4 272/3/4 275/3/4
f 275/3/4 272/3/4 276/3/4
f 273/3/4 274/3/4 277/3/4
f 277/3/4 274/3/4 278/3/4
f 279/3/4 280/3/4 283/3/4
f 283/3/4 280/3/4 284/3/4
f 281/3/4 282/3/4 285/3/4
f 285/3/4 282/3/4 286/3/4
f 287/4/4 288/4/4 291/4/4
f 291/4/4 288/4/4 292/4/4
f 289/4/4 290/4/4 293/4/4
f 293/4/4 290/4/4 294/4/4
f 295/4/4 296/4/4 299/4/4
f 299/4/4 296/4/4 300/4/4
f 297/4/4 298/4/4 301/4/4
f 301/4/4 298/4/4 302/4/4
f 304/4/4 305/4/4 309/4/4
f 306/3/4 307/3/4 312/3/4
f 309/3/4 310/3/4 313/3/4
f 304/4/4 309/4/4 313/4/4
f 313/3/4 310/3/4 314/3/4
f 311/3/4 312/3/4 315/3/4
f 312/3/4 307/3/4 316/3/4
f 315/3/4 312/3/4 316/3/4
f 303/3/4 304/3/4 317/3/4
f 304/4/4 313/4/4 318/4/4
f 317/3/4 304/3/4 318/3/4
f 318/4/4 313/4/4 319/4/4
f 316/3/4 307/3/4 320/3/4
f 307/4/4 308/4/4 321/4/4
f 320/3/4 307/3/4 321/3/4
f 321/4/4 308/4/4 322/4/4
f 323/3/4 324/3/4 327/3/4
f 327/3/4 324/3/4 328/3/4
f 325/4/4 326/4/4 329/4/4
f 329/4/4 326/4/4 330/4/4
f 331/3/4 332/3/4 334/3/4
f 332/4/4 333/4/4 335/4/4
f 334/3/4 332/3/4 335/3/4
f 335/4/4 333/4/4 336/4/4
f 339/3/5 338/3/5 337/3/5
f 340/3/5 338/3/5 339/3/5
f 343/3/5 342/3/5 341/3/5
f 344/3/5 342/3/5 343/3/5
f 347/3/5 346/3/5 345/3/5
f 348/3/5 346/3/5 347/3/5
f 351/3/5 350/3/5 349/3/5
f 352/3/5 350/3/5 351/3/5
f 355/3/5 354/3/5 353/3/5
f 356/3/5 354/3/5 355/3/5
f 357/3/5 354/3/5 356/3/5
f 358/3/5 354/3/5 357/3/5
f 363/3/5 360/3/5 359/3/5
f 363/3/5 362/3/5 361/3/5
f 363/3/5 361/3/5 360/3/5
f 364/3/5 362/3/5 363/3/5
f 367/3/5 366/3/5 365/3/5
f 368/3/5 366/3/5 367/3/5
f 373/3/5 370/3/5 369/3/5
f 374/3/5 370/3/5 373/3/5
f 375/3/5 372/3/5 371/3/5
f 376/3/5 372/3/5 375/3/5
f 377/3/5 373/3/5 369/3/5
f 378/3/5 373/3/5 377/3/5
f 379/3/5 372/3/5 376/3/5
f 380/3/5 372/3/5 379/3/5
f 385/3/5 382/3/5 381/3/5
f 388/3/5 384/3/5 383/3/5
f 389/3/5 386/3/5 385/3/5
f 389/3/5 385/3/5 381/3/5
f 390/3/5 386/3/5 389/3/5
f 391/3/5 388/3/5 387/3/5
f 392/3/5 384/3/5 388/3/5
f 392/3/5 388/3/5 391/3/5
f 397/3/5 394/3/5 393/3/5
f 398/3/5 394/3/5 397/3/5
f 399/3/5 396/3/5 395/3/5
f 400/3/5 396/3/5 399/3/5
f 401/3/5 397/3/5 393/3/5
f 402/3/5 397/3/5 401/3/5
f 403/3/5 396/3/5 400/3/5
f 404/3/5 396/3/5 403/3/5
f 409/3/5 406/3/5 405/3/5
f 412/3/5 408/3/5 407/3/5
f 413/3/5 410/3/5 409/3/5
f 413/3/5 409/3/5 405/3/5
f 414/3/5 410/3/5 413/3/5
f 415/3/5 412/3/5 411/3/5
f 416/3/5 408/3/5 412/3/5
f 416/3/5 412/3/5 415/3/5
f 417/4/6 418/4/6 421/4/6
f 421/4/6 418/4/6 422/4/6
f 419/4/6 420/4/6 423/4/6
f 423/4/6 420/4/6 424/4/6
f 417/4/6 421/4/6 425/4/6
f 425/4/6 421/4/6 426/4/6
f 424/4/6 420/4/6 427/4/6
f 427/4/6 420/4/6 428/4/6
f 429/4/6 430/4/6 433/4/6
f 431/4/6 432/4/6 436/4/6
f 433/4/6 434/4/6 437/4/6
f 429/4/6 433/4/6 437/4/6
f 437/4/6 434/4/6 438/4/6
f 435/4/6 436/4/6 439/4/6
f 436/4/6 432/4/6 440/4/6
f 439/4/6 436/4/6 440/4/6
f 441/4/6 442/4/6 443/4/6
f 443/4/6 442/4/6 444/4/6
f 445/4/6 446/4/6 447/4/6
f 447/4/6 446/4/6 448/4/6
f 449/4/6 450/4/6 451/4/6
f 451/4/6 450/4/6 452/4/6
f 451/3/6 452/3/6 453/3/6
f 453/3/6 452/3/6 454/3/6
f 451/3/6 453/3/6 455/3/6
f 455/3/6 453/3/6 456/3/6
f 454/3/6 452/3/6 457/3/6
f 457/3/6 452/3/6 458/3/6
f 451/3/6 455/3/6 459/3/6
f 459/3/6 455/3/6 460/3/6
f 458/3/6 452/3/6 461/3/6
f 461/3/6 452/3/6 462/3/6
f 463/3/6 464/3/6 467/3/6
f 465/3/6 466/3/6 470/3/6
f 467/3/6 468/3/6 471/3/6
f 469/3/6 470/3/6 472/3/6
f 467/3/6 471/3/6 473/3/6
f 471/3/6 472/3/6 473/3/6
f 463/3/6 467/3/6 473/3/6
f 472/3/6 470/3/6 474/3/6
f 473/3/6 472/3/6 474/3/6
f 470/3/6 466/3/6 474/3/6
f 473/4/6 474/4/6 475/4/6
f 475/4/6 474/4/6 476/4/6
f 477/4/6 478/4/6 479/4/6
f 479/4/6 478/4/6 480/4/6
f 477/4/6 479/4/6 481/4/6
f 479/3/6 480/3/6 481/3/6
f 480/4/6 478/4/6 482/4/6
f 481/3/6 480/3/6 482/3/6
f 477/4/6 481/4/6 483/4/6
f 481/4/6 482/4/6 483/4/6
f 482/4/6 478/4/6 484/4/6
f 483/4/6 482/4/6 484/4/6
