# MagicaVoxel @ Ephtracy

# group
o 

# material
mtllib Wheel_elevator.mtl
usemtl palette

# normals
vn -1 0 0
vn 1 0 0
vn 0 0 1
vn 0 0 -1
vn 0 -1 0
vn 0 1 0

# texcoords
vt 0.548828 0.5
vt 0.900391 0.5
vt 0.970703 0.5
vt 0.974609 0.5
vt 0.994141 0.5

# verts
v -0.75 -0.75 0.25
v -0.75 -0.75 -0.25
v -0.75 -0.65 0.25
v -0.75 -0.65 0.05
v -0.75 -0.65 -0.05
v -0.75 -0.65 -0.25
v -0.75 -0.45 0.25
v -0.75 -0.45 0.05
v -0.75 -0.45 -0.05
v -0.75 -0.45 -0.25
v -0.75 -0.35 0.25
v -0.75 -0.35 -0.25
v -0.65 -0.75 0.45
v -0.65 -0.75 0.25
v -0.65 -0.75 -0.25
v -0.65 -0.75 -0.45
v -0.65 -0.65 0.45
v -0.65 -0.65 0.35
v -0.65 -0.65 0.25
v -0.65 -0.65 -0.25
v -0.65 -0.65 -0.35
v -0.65 -0.65 -0.45
v -0.65 -0.45 0.45
v -0.65 -0.45 0.35
v -0.65 -0.45 0.25
v -0.65 -0.45 -0.25
v -0.65 -0.45 -0.35
v -0.65 -0.45 -0.45
v -0.65 -0.35 0.45
v -0.65 -0.35 0.25
v -0.65 -0.35 -0.25
v -0.65 -0.35 -0.45
v -0.55 -0.75 0.55
v -0.55 -0.75 0.45
v -0.55 -0.75 -0.45
v -0.55 -0.75 -0.55
v -0.55 -0.65 0.55
v -0.55 -0.65 0.45
v -0.55 -0.65 -0.45
v -0.55 -0.65 -0.55
v -0.55 -0.45 0.55
v -0.55 -0.45 0.45
v -0.55 -0.45 -0.45
v -0.55 -0.45 -0.55
v -0.55 -0.35 0.55
v -0.55 -0.35 0.45
v -0.55 -0.35 -0.45
v -0.55 -0.35 -0.55
v -0.45 -0.75 0.65
v -0.45 -0.75 0.55
v -0.45 -0.75 -0.55
v -0.45 -0.75 -0.65
v -0.45 -0.65 0.65
v -0.45 -0.65 0.55
v -0.45 -0.65 -0.55
v -0.45 -0.65 -0.65
v -0.45 -0.45 0.65
v -0.45 -0.45 0.55
v -0.45 -0.45 -0.55
v -0.45 -0.45 -0.65
v -0.45 -0.35 0.65
v -0.45 -0.35 0.55
v -0.45 -0.35 -0.55
v -0.45 -0.35 -0.65
v -0.25 -0.75 0.75
v -0.25 -0.75 0.65
v -0.25 -0.75 -0.65
v -0.25 -0.75 -0.75
v -0.25 -0.65 0.75
v -0.25 -0.65 0.65
v -0.25 -0.65 -0.65
v -0.25 -0.65 -0.75
v -0.25 -0.45 0.75
v -0.25 -0.45 0.65
v -0.25 -0.45 -0.65
v -0.25 -0.45 -0.75
v -0.25 -0.35 0.75
v -0.25 -0.35 0.65
v -0.25 -0.35 -0.65
v -0.25 -0.35 -0.75
v 0.25 -0.75 0.75
v 0.25 -0.75 0.65
v 0.25 -0.75 -0.65
v 0.25 -0.75 -0.75
v 0.25 -0.65 0.75
v 0.25 -0.65 0.65
v 0.25 -0.65 -0.65
v 0.25 -0.65 -0.75
v 0.25 -0.45 0.75
v 0.25 -0.45 0.65
v 0.25 -0.45 -0.65
v 0.25 -0.45 -0.75
v 0.25 -0.35 0.75
v 0.25 -0.35 0.65
v 0.25 -0.35 -0.65
v 0.25 -0.35 -0.75
v 0.45 -0.75 0.65
v 0.45 -0.75 0.55
v 0.45 -0.75 -0.55
v 0.45 -0.75 -0.65
v 0.45 -0.65 0.65
v 0.45 -0.65 0.55
v 0.45 -0.65 -0.55
v 0.45 -0.65 -0.65
v 0.45 -0.45 0.65
v 0.45 -0.45 0.55
v 0.45 -0.45 -0.55
v 0.45 -0.45 -0.65
v 0.45 -0.35 0.65
v 0.45 -0.35 0.55
v 0.45 -0.35 -0.55
v 0.45 -0.35 -0.65
v 0.55 -0.75 0.55
v 0.55 -0.75 0.45
v 0.55 -0.75 -0.45
v 0.55 -0.75 -0.55
v 0.55 -0.65 0.55
v 0.55 -0.65 0.45
v 0.55 -0.65 -0.45
v 0.55 -0.65 -0.55
v 0.55 -0.45 0.55
v 0.55 -0.45 0.45
v 0.55 -0.45 -0.45
v 0.55 -0.45 -0.55
v 0.55 -0.35 0.55
v 0.55 -0.35 0.45
v 0.55 -0.35 -0.45
v 0.55 -0.35 -0.55
v 0.65 -0.75 0.45
v 0.65 -0.75 0.25
v 0.65 -0.75 -0.25
v 0.65 -0.75 -0.45
v 0.65 -0.65 0.45
v 0.65 -0.65 0.35
v 0.65 -0.65 0.25
v 0.65 -0.65 -0.25
v 0.65 -0.65 -0.35
v 0.65 -0.65 -0.45
v 0.65 -0.45 0.45
v 0.65 -0.45 0.35
v 0.65 -0.45 0.25
v 0.65 -0.45 -0.25
v 0.65 -0.45 -0.35
v 0.65 -0.45 -0.45
v 0.65 -0.35 0.45
v 0.65 -0.35 0.25
v 0.65 -0.35 -0.25
v 0.65 -0.35 -0.45
v 0.75 -0.75 0.25
v 0.75 -0.75 -0.25
v 0.75 -0.65 0.25
v 0.75 -0.65 0.05
v 0.75 -0.65 -0.05
v 0.75 -0.65 -0.25
v 0.75 -0.45 0.25
v 0.75 -0.45 0.05
v 0.75 -0.45 -0.05
v 0.75 -0.45 -0.25
v 0.75 -0.35 0.25
v 0.75 -0.35 -0.25
v -0.25 -0.75 0.75
v -0.25 -0.65 0.75
v -0.25 -0.45 0.75
v -0.25 -0.35 0.75
v -0.05 -0.65 0.75
v -0.05 -0.45 0.75
v 0.05 -0.65 0.75
v 0.05 -0.45 0.75
v 0.25 -0.75 0.75
v 0.25 -0.65 0.75
v 0.25 -0.45 0.75
v 0.25 -0.35 0.75
v -0.45 -0.75 0.65
v -0.45 -0.65 0.65
v -0.45 -0.45 0.65
v -0.45 -0.35 0.65
v -0.35 -0.65 0.65
v -0.35 -0.45 0.65
v -0.25 -0.75 0.65
v -0.25 -0.65 0.65
v -0.25 -0.45 0.65
v -0.25 -0.35 0.65
v 0.25 -0.75 0.65
v 0.25 -0.65 0.65
v 0.25 -0.45 0.65
v 0.25 -0.35 0.65
v 0.35 -0.65 0.65
v 0.35 -0.45 0.65
v 0.45 -0.75 0.65
v 0.45 -0.65 0.65
v 0.45 -0.45 0.65
v 0.45 -0.35 0.65
v -0.55 -0.75 0.55
v -0.55 -0.65 0.55
v -0.55 -0.45 0.55
v -0.55 -0.35 0.55
v -0.45 -0.75 0.55
v -0.45 -0.65 0.55
v -0.45 -0.45 0.55
v -0.45 -0.35 0.55
v 0.45 -0.75 0.55
v 0.45 -0.65 0.55
v 0.45 -0.45 0.55
v 0.45 -0.35 0.55
v 0.55 -0.75 0.55
v 0.55 -0.65 0.55
v 0.55 -0.45 0.55
v 0.55 -0.35 0.55
v -0.65 -0.75 0.45
v -0.65 -0.65 0.45
v -0.65 -0.45 0.45
v -0.65 -0.35 0.45
v -0.55 -0.75 0.45
v -0.55 -0.65 0.45
v -0.55 -0.45 0.45
v -0.55 -0.35 0.45
v 0.55 -0.75 0.45
v 0.55 -0.65 0.45
v 0.55 -0.45 0.45
v 0.55 -0.35 0.45
v 0.65 -0.75 0.45
v 0.65 -0.65 0.45
v 0.65 -0.45 0.45
v 0.65 -0.35 0.45
v -0.75 -0.75 0.25
v -0.75 -0.65 0.25
v -0.75 -0.45 0.25
v -0.75 -0.35 0.25
v -0.65 -0.75 0.25
v -0.65 -0.65 0.25
v -0.65 -0.45 0.25
v -0.65 -0.35 0.25
v 0.65 -0.75 0.25
v 0.65 -0.65 0.25
v 0.65 -0.45 0.25
v 0.65 -0.35 0.25
v 0.75 -0.75 0.25
v 0.75 -0.65 0.25
v 0.75 -0.45 0.25
v 0.75 -0.35 0.25
v -0.75 -0.75 -0.25
v -0.75 -0.65 -0.25
v -0.75 -0.45 -0.25
v -0.75 -0.35 -0.25
v -0.65 -0.75 -0.25
v -0.65 -0.65 -0.25
v -0.65 -0.45 -0.25
v -0.65 -0.35 -0.25
v 0.65 -0.75 -0.25
v 0.65 -0.65 -0.25
v 0.65 -0.45 -0.25
v 0.65 -0.35 -0.25
v 0.75 -0.75 -0.25
v 0.75 -0.65 -0.25
v 0.75 -0.45 -0.25
v 0.75 -0.35 -0.25
v -0.65 -0.75 -0.45
v -0.65 -0.65 -0.45
v -0.65 -0.45 -0.45
v -0.65 -0.35 -0.45
v -0.55 -0.75 -0.45
v -0.55 -0.65 -0.45
v -0.55 -0.45 -0.45
v -0.55 -0.35 -0.45
v 0.55 -0.75 -0.45
v 0.55 -0.65 -0.45
v 0.55 -0.45 -0.45
v 0.55 -0.35 -0.45
v 0.65 -0.75 -0.45
v 0.65 -0.65 -0.45
v 0.65 -0.45 -0.45
v 0.65 -0.35 -0.45
v -0.55 -0.75 -0.55
v -0.55 -0.65 -0.55
v -0.55 -0.45 -0.55
v -0.55 -0.35 -0.55
v -0.45 -0.75 -0.55
v -0.45 -0.65 -0.55
v -0.45 -0.45 -0.55
v -0.45 -0.35 -0.55
v 0.45 -0.75 -0.55
v 0.45 -0.65 -0.55
v 0.45 -0.45 -0.55
v 0.45 -0.35 -0.55
v 0.55 -0.75 -0.55
v 0.55 -0.65 -0.55
v 0.55 -0.45 -0.55
v 0.55 -0.35 -0.55
v -0.45 -0.75 -0.65
v -0.45 -0.65 -0.65
v -0.45 -0.45 -0.65
v -0.45 -0.35 -0.65
v -0.35 -0.65 -0.65
v -0.35 -0.45 -0.65
v -0.25 -0.75 -0.65
v -0.25 -0.65 -0.65
v -0.25 -0.45 -0.65
v -0.25 -0.35 -0.65
v 0.25 -0.75 -0.65
v 0.25 -0.65 -0.65
v 0.25 -0.45 -0.65
v 0.25 -0.35 -0.65
v 0.35 -0.65 -0.65
v 0.35 -0.45 -0.65
v 0.45 -0.75 -0.65
v 0.45 -0.65 -0.65
v 0.45 -0.45 -0.65
v 0.45 -0.35 -0.65
v -0.25 -0.75 -0.75
v -0.25 -0.65 -0.75
v -0.25 -0.45 -0.75
v -0.25 -0.35 -0.75
v -0.05 -0.65 -0.75
v -0.05 -0.45 -0.75
v 0.05 -0.65 -0.75
v 0.05 -0.45 -0.75
v 0.25 -0.75 -0.75
v 0.25 -0.65 -0.75
v 0.25 -0.45 -0.75
v 0.25 -0.35 -0.75
v -0.25 -0.75 0.75
v 0.25 -0.75 0.75
v -0.45 -0.75 0.65
v -0.25 -0.75 0.65
v 0.25 -0.75 0.65
v 0.45 -0.75 0.65
v -0.55 -0.75 0.55
v -0.45 -0.75 0.55
v -0.25 -0.75 0.55
v 0.25 -0.75 0.55
v 0.45 -0.75 0.55
v 0.55 -0.75 0.55
v -0.65 -0.75 0.45
v -0.55 -0.75 0.45
v -0.45 -0.75 0.45
v 0.45 -0.75 0.45
v 0.55 -0.75 0.45
v 0.65 -0.75 0.45
v -0.75 -0.75 0.25
v -0.65 -0.75 0.25
v -0.55 -0.75 0.25
v 0.55 -0.75 0.25
v 0.65 -0.75 0.25
v 0.75 -0.75 0.25
v -0.75 -0.75 -0.25
v -0.65 -0.75 -0.25
v -0.55 -0.75 -0.25
v 0.55 -0.75 -0.25
v 0.65 -0.75 -0.25
v 0.75 -0.75 -0.25
v -0.65 -0.75 -0.45
v -0.55 -0.75 -0.45
v -0.45 -0.75 -0.45
v 0.45 -0.75 -0.45
v 0.55 -0.75 -0.45
v 0.65 -0.75 -0.45
v -0.55 -0.75 -0.55
v -0.45 -0.75 -0.55
v -0.25 -0.75 -0.55
v 0.25 -0.75 -0.55
v 0.45 -0.75 -0.55
v 0.55 -0.75 -0.55
v -0.45 -0.75 -0.65
v -0.25 -0.75 -0.65
v 0.25 -0.75 -0.65
v 0.45 -0.75 -0.65
v -0.25 -0.75 -0.75
v 0.25 -0.75 -0.75
v -0.25 -0.35 0.75
v 0.25 -0.35 0.75
v -0.45 -0.35 0.65
v -0.25 -0.35 0.65
v 0.25 -0.35 0.65
v 0.45 -0.35 0.65
v -0.55 -0.35 0.55
v -0.45 -0.35 0.55
v -0.25 -0.35 0.55
v 0.25 -0.35 0.55
v 0.45 -0.35 0.55
v 0.55 -0.35 0.55
v -0.65 -0.35 0.45
v -0.55 -0.35 0.45
v -0.45 -0.35 0.45
v 0.45 -0.35 0.45
v 0.55 -0.35 0.45
v 0.65 -0.35 0.45
v -0.75 -0.35 0.25
v -0.65 -0.35 0.25
v -0.55 -0.35 0.25
v 0.55 -0.35 0.25
v 0.65 -0.35 0.25
v 0.75 -0.35 0.25
v -0.15 -0.35 0.15
v -0.05 -0.35 0.15
v 0.05 -0.35 0.15
v 0.15 -0.35 0.15
v -0.15 -0.35 0.05
v -0.05 -0.35 0.05
v 0.05 -0.35 0.05
v 0.15 -0.35 0.05
v -0.15 -0.35 -0.05
v -0.05 -0.35 -0.05
v 0.05 -0.35 -0.05
v 0.15 -0.35 -0.05
v -0.15 -0.35 -0.15
v -0.05 -0.35 -0.15
v 0.05 -0.35 -0.15
v 0.15 -0.35 -0.15
v -0.75 -0.35 -0.25
v -0.65 -0.35 -0.25
v -0.55 -0.35 -0.25
v 0.55 -0.35 -0.25
v 0.65 -0.35 -0.25
v 0.75 -0.35 -0.25
v -0.65 -0.35 -0.45
v -0.55 -0.35 -0.45
v -0.45 -0.35 -0.45
v 0.45 -0.35 -0.45
v 0.55 -0.35 -0.45
v 0.65 -0.35 -0.45
v -0.55 -0.35 -0.55
v -0.45 -0.35 -0.55
v -0.25 -0.35 -0.55
v 0.25 -0.35 -0.55
v 0.45 -0.35 -0.55
v 0.55 -0.35 -0.55
v -0.45 -0.35 -0.65
v -0.25 -0.35 -0.65
v 0.25 -0.35 -0.65
v 0.45 -0.35 -0.65
v -0.25 -0.35 -0.75
v 0.25 -0.35 -0.75

# faces
f 3/5/1 2/5/1 1/5/1
f 4/5/1 2/5/1 3/5/1
f 5/5/1 2/5/1 4/5/1
f 6/5/1 2/5/1 5/5/1
f 7/4/1 4/4/1 3/4/1
f 8/1/1 5/1/1 4/1/1
f 8/4/1 4/4/1 7/4/1
f 9/4/1 6/4/1 5/4/1
f 9/1/1 5/1/1 8/1/1
f 10/4/1 6/4/1 9/4/1
f 11/5/1 8/5/1 7/5/1
f 11/5/1 9/5/1 8/5/1
f 11/5/1 10/5/1 9/5/1
f 12/5/1 10/5/1 11/5/1
f 17/5/1 14/5/1 13/5/1
f 18/5/1 14/5/1 17/5/1
f 19/5/1 14/5/1 18/5/1
f 20/5/1 16/5/1 15/5/1
f 21/5/1 16/5/1 20/5/1
f 22/5/1 16/5/1 21/5/1
f 23/4/1 18/4/1 17/4/1
f 24/1/1 19/1/1 18/1/1
f 24/4/1 18/4/1 23/4/1
f 25/1/1 19/1/1 24/1/1
f 26/1/1 21/1/1 20/1/1
f 27/4/1 22/4/1 21/4/1
f 27/1/1 21/1/1 26/1/1
f 28/4/1 22/4/1 27/4/1
f 29/5/1 25/5/1 24/5/1
f 29/5/1 24/5/1 23/5/1
f 30/5/1 25/5/1 29/5/1
f 31/5/1 28/5/1 27/5/1
f 31/5/1 27/5/1 26/5/1
f 32/5/1 28/5/1 31/5/1
f 37/5/1 34/5/1 33/5/1
f 38/5/1 34/5/1 37/5/1
f 39/5/1 36/5/1 35/5/1
f 40/5/1 36/5/1 39/5/1
f 41/1/1 38/1/1 37/1/1
f 42/1/1 38/1/1 41/1/1
f 43/1/1 40/1/1 39/1/1
f 44/1/1 40/1/1 43/1/1
f 45/5/1 42/5/1 41/5/1
f 46/5/1 42/5/1 45/5/1
f 47/5/1 44/5/1 43/5/1
f 48/5/1 44/5/1 47/5/1
f 53/5/1 50/5/1 49/5/1
f 54/5/1 50/5/1 53/5/1
f 55/5/1 52/5/1 51/5/1
f 56/5/1 52/5/1 55/5/1
f 57/4/1 54/4/1 53/4/1
f 58/4/1 54/4/1 57/4/1
f 59/4/1 56/4/1 55/4/1
f 60/4/1 56/4/1 59/4/1
f 61/5/1 58/5/1 57/5/1
f 62/5/1 58/5/1 61/5/1
f 63/5/1 60/5/1 59/5/1
f 64/5/1 60/5/1 63/5/1
f 69/5/1 66/5/1 65/5/1
f 70/5/1 66/5/1 69/5/1
f 71/5/1 68/5/1 67/5/1
f 72/5/1 68/5/1 71/5/1
f 73/4/1 70/4/1 69/4/1
f 74/4/1 70/4/1 73/4/1
f 75/4/1 72/4/1 71/4/1
f 76/4/1 72/4/1 75/4/1
f 77/5/1 74/5/1 73/5/1
f 78/5/1 74/5/1 77/5/1
f 79/5/1 76/5/1 75/5/1
f 80/5/1 76/5/1 79/5/1
f 81/5/2 82/5/2 85/5/2
f 85/5/2 82/5/2 86/5/2
f 83/5/2 84/5/2 87/5/2
f 87/5/2 84/5/2 88/5/2
f 85/4/2 86/4/2 89/4/2
f 89/4/2 86/4/2 90/4/2
f 87/4/2 88/4/2 91/4/2
f 91/4/2 88/4/2 92/4/2
f 89/5/2 90/5/2 93/5/2
f 93/5/2 90/5/2 94/5/2
f 91/5/2 92/5/2 95/5/2
f 95/5/2 92/5/2 96/5/2
f 97/5/2 98/5/2 101/5/2
f 101/5/2 98/5/2 102/5/2
f 99/5/2 100/5/2 103/5/2
f 103/5/2 100/5/2 104/5/2
f 101/4/2 102/4/2 105/4/2
f 105/4/2 102/4/2 106/4/2
f 103/4/2 104/4/2 107/4/2
f 107/4/2 104/4/2 108/4/2
f 105/5/2 106/5/2 109/5/2
f 109/5/2 106/5/2 110/5/2
f 107/5/2 108/5/2 111/5/2
f 111/5/2 108/5/2 112/5/2
f 113/5/2 114/5/2 117/5/2
f 117/5/2 114/5/2 118/5/2
f 115/5/2 116/5/2 119/5/2
f 119/5/2 116/5/2 120/5/2
f 117/1/2 118/1/2 121/1/2
f 121/1/2 118/1/2 122/1/2
f 119/1/2 120/1/2 123/1/2
f 123/1/2 120/1/2 124/1/2
f 121/5/2 122/5/2 125/5/2
f 125/5/2 122/5/2 126/5/2
f 123/5/2 124/5/2 127/5/2
f 127/5/2 124/5/2 128/5/2
f 129/5/2 130/5/2 133/5/2
f 133/5/2 130/5/2 134/5/2
f 134/5/2 130/5/2 135/5/2
f 131/5/2 132/5/2 136/5/2
f 136/5/2 132/5/2 137/5/2
f 137/5/2 132/5/2 138/5/2
f 133/4/2 134/4/2 139/4/2
f 134/1/2 135/1/2 140/1/2
f 139/4/2 134/4/2 140/4/2
f 140/1/2 135/1/2 141/1/2
f 136/1/2 137/1/2 142/1/2
f 137/4/2 138/4/2 143/4/2
f 142/1/2 137/1/2 143/1/2
f 143/4/2 138/4/2 144/4/2
f 140/5/2 141/5/2 145/5/2
f 139/5/2 140/5/2 145/5/2
f 145/5/2 141/5/2 146/5/2
f 143/5/2 144/5/2 147/5/2
f 142/5/2 143/5/2 147/5/2
f 147/5/2 144/5/2 148/5/2
f 149/5/2 150/5/2 151/5/2
f 151/5/2 150/5/2 152/5/2
f 152/5/2 150/5/2 153/5/2
f 153/5/2 150/5/2 154/5/2
f 151/4/2 152/4/2 155/4/2
f 152/1/2 153/1/2 156/1/2
f 155/4/2 152/4/2 156/4/2
f 153/4/2 154/4/2 157/4/2
f 156/1/2 153/1/2 157/1/2
f 157/4/2 154/4/2 158/4/2
f 155/5/2 156/5/2 159/5/2
f 156/5/2 157/5/2 159/5/2
f 157/5/2 158/5/2 159/5/2
f 159/5/2 158/5/2 160/5/2
f 165/5/3 162/5/3 161/5/3
f 165/4/3 163/4/3 162/4/3
f 166/5/3 164/5/3 163/5/3
f 166/4/3 163/4/3 165/4/3
f 167/5/3 165/5/3 161/5/3
f 167/1/3 166/1/3 165/1/3
f 168/5/3 164/5/3 166/5/3
f 168/1/3 166/1/3 167/1/3
f 169/5/3 167/5/3 161/5/3
f 170/4/3 168/4/3 167/4/3
f 170/5/3 167/5/3 169/5/3
f 171/5/3 164/5/3 168/5/3
f 171/4/3 168/4/3 170/4/3
f 172/5/3 164/5/3 171/5/3
f 177/5/3 174/5/3 173/5/3
f 177/4/3 175/4/3 174/4/3
f 178/5/3 176/5/3 175/5/3
f 178/4/3 175/4/3 177/4/3
f 179/5/3 177/5/3 173/5/3
f 180/1/3 178/1/3 177/1/3
f 180/5/3 177/5/3 179/5/3
f 181/5/3 176/5/3 178/5/3
f 181/1/3 178/1/3 180/1/3
f 182/5/3 176/5/3 181/5/3
f 187/5/3 184/5/3 183/5/3
f 187/1/3 185/1/3 184/1/3
f 188/5/3 186/5/3 185/5/3
f 188/1/3 185/1/3 187/1/3
f 189/5/3 187/5/3 183/5/3
f 190/4/3 188/4/3 187/4/3
f 190/5/3 187/5/3 189/5/3
f 191/5/3 186/5/3 188/5/3
f 191/4/3 188/4/3 190/4/3
f 192/5/3 186/5/3 191/5/3
f 197/5/3 194/5/3 193/5/3
f 198/1/3 195/1/3 194/1/3
f 198/5/3 194/5/3 197/5/3
f 199/5/3 196/5/3 195/5/3
f 199/1/3 195/1/3 198/1/3
f 200/5/3 196/5/3 199/5/3
f 205/5/3 202/5/3 201/5/3
f 206/1/3 203/1/3 202/1/3
f 206/5/3 202/5/3 205/5/3
f 207/5/3 204/5/3 203/5/3
f 207/1/3 203/1/3 206/1/3
f 208/5/3 204/5/3 207/5/3
f 213/5/3 210/5/3 209/5/3
f 214/4/3 211/4/3 210/4/3
f 214/5/3 210/5/3 213/5/3
f 215/5/3 212/5/3 211/5/3
f 215/4/3 211/4/3 214/4/3
f 216/5/3 212/5/3 215/5/3
f 221/5/3 218/5/3 217/5/3
f 222/4/3 219/4/3 218/4/3
f 222/5/3 218/5/3 221/5/3
f 223/5/3 220/5/3 219/5/3
f 223/4/3 219/4/3 222/4/3
f 224/5/3 220/5/3 223/5/3
f 229/5/3 226/5/3 225/5/3
f 230/4/3 227/4/3 226/4/3
f 230/5/3 226/5/3 229/5/3
f 231/5/3 228/5/3 227/5/3
f 231/4/3 227/4/3 230/4/3
f 232/5/3 228/5/3 231/5/3
f 237/5/3 234/5/3 233/5/3
f 238/4/3 235/4/3 234/4/3
f 238/5/3 234/5/3 237/5/3
f 239/5/3 236/5/3 235/5/3
f 239/4/3 235/4/3 238/4/3
f 240/5/3 236/5/3 239/5/3
f 241/5/4 242/5/4 245/5/4
f 242/4/4 243/4/4 246/4/4
f 245/5/4 242/5/4 246/5/4
f 243/5/4 244/5/4 247/5/4
f 246/4/4 243/4/4 247/4/4
f 247/5/4 244/5/4 248/5/4
f 249/5/4 250/5/4 253/5/4
f 250/4/4 251/4/4 254/4/4
f 253/5/4 250/5/4 254/5/4
f 251/5/4 252/5/4 255/5/4
f 254/4/4 251/4/4 255/4/4
f 255/5/4 252/5/4 256/5/4
f 257/5/4 258/5/4 261/5/4
f 258/4/4 259/4/4 262/4/4
f 261/5/4 258/5/4 262/5/4
f 259/5/4 260/5/4 263/5/4
f 262/4/4 259/4/4 263/4/4
f 263/5/4 260/5/4 264/5/4
f 265/5/4 266/5/4 269/5/4
f 266/4/4 267/4/4 270/4/4
f 269/5/4 266/5/4 270/5/4
f 267/5/4 268/5/4 271/5/4
f 270/4/4 267/4/4 271/4/4
f 271/5/4 268/5/4 272/5/4
f 273/5/4 274/5/4 277/5/4
f 274/1/4 275/1/4 278/1/4
f 277/5/4 274/5/4 278/5/4
f 275/5/4 276/5/4 279/5/4
f 278/1/4 275/1/4 279/1/4
f 279/5/4 276/5/4 280/5/4
f 281/5/4 282/5/4 285/5/4
f 282/1/4 283/1/4 286/1/4
f 285/5/4 282/5/4 286/5/4
f 283/5/4 284/5/4 287/5/4
f 286/1/4 283/1/4 287/1/4
f 287/5/4 284/5/4 288/5/4
f 289/5/4 290/5/4 293/5/4
f 290/4/4 291/4/4 293/4/4
f 291/5/4 292/5/4 294/5/4
f 293/4/4 291/4/4 294/4/4
f 289/5/4 293/5/4 295/5/4
f 293/1/4 294/1/4 296/1/4
f 295/5/4 293/5/4 296/5/4
f 294/5/4 292/5/4 297/5/4
f 296/1/4 294/1/4 297/1/4
f 297/5/4 292/5/4 298/5/4
f 299/5/4 300/5/4 303/5/4
f 300/1/4 301/1/4 303/1/4
f 301/5/4 302/5/4 304/5/4
f 303/1/4 301/1/4 304/1/4
f 299/5/4 303/5/4 305/5/4
f 303/4/4 304/4/4 306/4/4
f 305/5/4 303/5/4 306/5/4
f 304/5/4 302/5/4 307/5/4
f 306/4/4 304/4/4 307/4/4
f 307/5/4 302/5/4 308/5/4
f 309/5/4 310/5/4 313/5/4
f 310/4/4 311/4/4 313/4/4
f 311/5/4 312/5/4 314/5/4
f 313/4/4 311/4/4 314/4/4
f 309/5/4 313/5/4 315/5/4
f 313/1/4 314/1/4 315/1/4
f 314/5/4 312/5/4 316/5/4
f 315/1/4 314/1/4 316/1/4
f 309/5/4 315/5/4 317/5/4
f 315/4/4 316/4/4 318/4/4
f 317/5/4 315/5/4 318/5/4
f 316/5/4 312/5/4 319/5/4
f 318/4/4 316/4/4 319/4/4
f 319/5/4 312/5/4 320/5/4
f 324/5/5 322/5/5 321/5/5
f 325/5/5 322/5/5 324/5/5
f 328/5/5 324/5/5 323/5/5
f 329/3/5 325/3/5 324/3/5
f 329/5/5 324/5/5 328/5/5
f 330/5/5 326/5/5 325/5/5
f 330/3/5 325/3/5 329/3/5
f 331/5/5 326/5/5 330/5/5
f 334/5/5 328/5/5 327/5/5
f 335/3/5 329/3/5 328/3/5
f 335/3/5 330/3/5 329/3/5
f 335/5/5 328/5/5 334/5/5
f 335/3/5 331/3/5 330/3/5
f 336/5/5 332/5/5 331/5/5
f 336/3/5 331/3/5 335/3/5
f 337/5/5 332/5/5 336/5/5
f 340/5/5 334/5/5 333/5/5
f 341/3/5 335/3/5 334/3/5
f 341/3/5 336/3/5 335/3/5
f 341/5/5 334/5/5 340/5/5
f 341/3/5 337/3/5 336/3/5
f 342/5/5 338/5/5 337/5/5
f 342/3/5 337/3/5 341/3/5
f 343/5/5 338/5/5 342/5/5
f 345/5/5 340/5/5 339/5/5
f 346/3/5 341/3/5 340/3/5
f 346/5/5 340/5/5 345/5/5
f 346/3/5 342/3/5 341/3/5
f 346/3/5 343/3/5 342/3/5
f 347/3/5 343/3/5 346/3/5
f 348/3/5 343/3/5 347/3/5
f 349/5/5 344/5/5 343/5/5
f 349/3/5 343/3/5 348/3/5
f 350/5/5 344/5/5 349/5/5
f 351/5/5 347/5/5 346/5/5
f 352/3/5 348/3/5 347/3/5
f 352/5/5 347/5/5 351/5/5
f 353/3/5 348/3/5 352/3/5
f 354/3/5 348/3/5 353/3/5
f 355/5/5 349/5/5 348/5/5
f 355/3/5 348/3/5 354/3/5
f 356/5/5 349/5/5 355/5/5
f 357/5/5 353/5/5 352/5/5
f 358/3/5 354/3/5 353/3/5
f 358/5/5 353/5/5 357/5/5
f 359/3/5 354/3/5 358/3/5
f 360/3/5 354/3/5 359/3/5
f 361/5/5 355/5/5 354/5/5
f 361/3/5 354/3/5 360/3/5
f 362/5/5 355/5/5 361/5/5
f 363/5/5 359/5/5 358/5/5
f 364/3/5 360/3/5 359/3/5
f 364/5/5 359/5/5 363/5/5
f 365/5/5 361/5/5 360/5/5
f 365/3/5 360/3/5 364/3/5
f 366/5/5 361/5/5 365/5/5
f 367/5/5 365/5/5 364/5/5
f 368/5/5 365/5/5 367/5/5
f 369/5/6 370/5/6 372/5/6
f 372/5/6 370/5/6 373/5/6
f 371/5/6 372/5/6 376/5/6
f 372/3/6 373/3/6 377/3/6
f 376/5/6 372/5/6 377/5/6
f 373/5/6 374/5/6 378/5/6
f 377/3/6 373/3/6 378/3/6
f 378/5/6 374/5/6 379/5/6
f 375/5/6 376/5/6 382/5/6
f 376/3/6 377/3/6 383/3/6
f 377/3/6 378/3/6 383/3/6
f 382/5/6 376/5/6 383/5/6
f 378/3/6 379/3/6 383/3/6
f 379/5/6 380/5/6 384/5/6
f 383/3/6 379/3/6 384/3/6
f 384/5/6 380/5/6 385/5/6
f 381/5/6 382/5/6 388/5/6
f 382/3/6 383/3/6 389/3/6
f 383/3/6 384/3/6 389/3/6
f 388/5/6 382/5/6 389/5/6
f 384/3/6 385/3/6 389/3/6
f 385/5/6 386/5/6 390/5/6
f 389/3/6 385/3/6 390/3/6
f 390/5/6 386/5/6 391/5/6
f 388/3/6 389/3/6 393/3/6
f 389/3/6 390/3/6 393/3/6
f 390/3/6 391/3/6 393/3/6
f 393/3/6 391/3/6 394/3/6
f 394/3/6 391/3/6 395/3/6
f 395/3/6 391/3/6 396/3/6
f 388/3/6 393/3/6 397/3/6
f 393/2/6 394/2/6 397/2/6
f 394/3/6 395/3/6 398/3/6
f 397/2/6 394/2/6 398/2/6
f 395/2/6 396/2/6 399/2/6
f 398/3/6 395/3/6 399/3/6
f 396/3/6 391/3/6 400/3/6
f 399/2/6 396/2/6 400/2/6
f 397/3/6 398/3/6 401/3/6
f 388/3/6 397/3/6 401/3/6
f 398/2/6 399/2/6 402/2/6
f 401/3/6 398/3/6 402/3/6
f 399/3/6 400/3/6 403/3/6
f 402/2/6 399/2/6 403/2/6
f 400/3/6 391/3/6 404/3/6
f 403/3/6 400/3/6 404/3/6
f 388/3/6 401/3/6 405/3/6
f 401/2/6 402/2/6 405/2/6
f 402/3/6 403/3/6 406/3/6
f 405/2/6 402/2/6 406/2/6
f 403/2/6 404/2/6 407/2/6
f 406/3/6 403/3/6 407/3/6
f 404/3/6 391/3/6 408/3/6
f 407/2/6 404/2/6 408/2/6
f 387/5/6 388/5/6 409/5/6
f 406/3/6 407/3/6 410/3/6
f 409/5/6 388/5/6 410/5/6
f 388/3/6 405/3/6 410/3/6
f 407/3/6 408/3/6 410/3/6
f 405/3/6 406/3/6 410/3/6
f 410/3/6 408/3/6 411/3/6
f 408/3/6 391/3/6 412/3/6
f 411/3/6 408/3/6 412/3/6
f 391/5/6 392/5/6 413/5/6
f 412/3/6 391/3/6 413/3/6
f 413/5/6 392/5/6 414/5/6
f 410/5/6 411/5/6 415/5/6
f 411/3/6 412/3/6 416/3/6
f 415/5/6 411/5/6 416/5/6
f 416/3/6 412/3/6 417/3/6
f 417/3/6 412/3/6 418/3/6
f 412/5/6 413/5/6 419/5/6
f 418/3/6 412/3/6 419/3/6
f 419/5/6 413/5/6 420/5/6
f 416/5/6 417/5/6 421/5/6
f 417/3/6 418/3/6 422/3/6
f 421/5/6 417/5/6 422/5/6
f 422/3/6 418/3/6 423/3/6
f 423/3/6 418/3/6 424/3/6
f 418/5/6 419/5/6 425/5/6
f 424/3/6 418/3/6 425/3/6
f 425/5/6 419/5/6 426/5/6
f 422/5/6 423/5/6 427/5/6
f 423/3/6 424/3/6 428/3/6
f 427/5/6 423/5/6 428/5/6
f 424/5/6 425/5/6 429/5/6
f 428/3/6 424/3/6 429/3/6
f 429/5/6 425/5/6 430/5/6
f 428/5/6 429/5/6 431/5/6
f 431/5/6 429/5/6 432/5/6
