# MagicaVoxel @ Ephtracy

# group
o 

# material
mtllib playerCar.mtl
usemtl palette

# normals
vn -1 0 0
vn 1 0 0
vn 0 0 1
vn 0 0 -1
vn 0 -1 0
vn 0 1 0

# texcoords
vt 0.158203 0.5
vt 0.798828 0.5
vt 0.841797 0.5
vt 0.845703 0.5
vt 0.900391 0.5
vt 0.955078 0.5
vt 0.958984 0.5
vt 0.982422 0.5
vt 0.994141 0.5

# verts
v -0.2 0.1 0.6
v -0.2 0.1 0.5
v -0.2 0.2 0.6
v -0.2 0.2 0.5
v -0.2 0.2 -5.96046e-008
v -0.2 0.2 -0.2
v -0.2 0.2 -0.8
v -0.2 0.3 0.6
v -0.2 0.3 0.5
v -0.2 0.3 0.2
v -0.2 0.3 -5.96046e-008
v -0.2 0.3 -0.2
v -0.2 0.3 -0.5
v -0.2 0.4 0.5
v -0.2 0.4 0.2
v -0.2 0.4 -0.5
v -0.2 0.4 -0.7
v -0.2 0.4 -0.8
v -0.2 0.5 -0.7
v -0.2 0.5 -0.8
v -0.0999999 0.1 0.5
v -0.0999999 0.1 -0.6
v -0.0999999 0.1 -0.7
v -0.0999999 0.1 -0.8
v -0.0999999 0.2 0.5
v -0.0999999 0.2 -5.96046e-008
v -0.0999999 0.2 -0.2
v -0.0999999 0.2 -0.6
v -0.0999999 0.2 -0.7
v -0.0999999 0.2 -0.8
v -0.0999999 0.3 0.6
v -0.0999999 0.3 0.5
v -0.0999999 0.3 0.2
v -0.0999999 0.3 0.1
v -0.0999999 0.3 -5.96046e-008
v -0.0999999 0.3 -0.2
v -0.0999999 0.3 -0.3
v -0.0999999 0.3 -0.5
v -0.0999999 0.4 0.6
v -0.0999999 0.4 0.5
v -0.0999999 0.4 0.3
v -0.0999999 0.4 0.2
v -0.0999999 0.4 0.1
v -0.0999999 0.4 -0.3
v -0.0999999 0.4 -0.5
v -0.0999999 0.4 -0.7
v -0.0999999 0.5 0.3
v -0.0999999 0.5 0.2
v -0.0999999 0.5 0.1
v -0.0999999 0.5 -0.5
v -0.0999999 0.5 -0.7
v 5.96046e-008 0.1 0.7
v 5.96046e-008 0.1 0.6
v 5.96046e-008 0.1 -0.6
v 5.96046e-008 0.1 -0.7
v 5.96046e-008 0.2 0.7
v 5.96046e-008 0.2 0.6
v 5.96046e-008 0.2 -0.6
v 5.96046e-008 0.2 -0.7
v 5.96046e-008 0.3 0.7
v 5.96046e-008 0.3 0.6
v 5.96046e-008 0.4 0.4
v 5.96046e-008 0.4 0.3
v 5.96046e-008 0.4 0.1
v 5.96046e-008 0.4 -0.3
v 5.96046e-008 0.4 -0.5
v 5.96046e-008 0.5 0.4
v 5.96046e-008 0.5 0.3
v 5.96046e-008 0.5 0.1
v 5.96046e-008 0.5 -0.3
v 5.96046e-008 0.5 -0.5
v 0.3 0.3 0.6
v 0.3 0.3 0.5
v 0.3 0.4 0.6
v 0.3 0.4 0.5
v 5.96046e-008 0.3 0.6
v 5.96046e-008 0.3 0.5
v 5.96046e-008 0.4 0.6
v 5.96046e-008 0.4 0.5
v 0.3 0.1 0.7
v 0.3 0.1 0.6
v 0.3 0.1 -0.6
v 0.3 0.1 -0.7
v 0.3 0.2 0.7
v 0.3 0.2 0.6
v 0.3 0.2 -0.6
v 0.3 0.2 -0.7
v 0.3 0.3 0.7
v 0.3 0.3 0.6
v 0.3 0.4 0.4
v 0.3 0.4 0.3
v 0.3 0.4 0.1
v 0.3 0.4 -0.3
v 0.3 0.4 -0.5
v 0.3 0.5 0.4
v 0.3 0.5 0.3
v 0.3 0.5 0.1
v 0.3 0.5 -0.3
v 0.3 0.5 -0.5
v 0.4 0.1 0.5
v 0.4 0.1 -0.6
v 0.4 0.1 -0.7
v 0.4 0.1 -0.8
v 0.4 0.2 0.5
v 0.4 0.2 -5.96046e-008
v 0.4 0.2 -0.2
v 0.4 0.2 -0.6
v 0.4 0.2 -0.7
v 0.4 0.2 -0.8
v 0.4 0.3 0.6
v 0.4 0.3 0.5
v 0.4 0.3 0.2
v 0.4 0.3 0.1
v 0.4 0.3 -5.96046e-008
v 0.4 0.3 -0.2
v 0.4 0.3 -0.3
v 0.4 0.3 -0.5
v 0.4 0.4 0.6
v 0.4 0.4 0.5
v 0.4 0.4 0.3
v 0.4 0.4 0.2
v 0.4 0.4 0.1
v 0.4 0.4 -0.3
v 0.4 0.4 -0.5
v 0.4 0.4 -0.7
v 0.4 0.5 0.3
v 0.4 0.5 0.2
v 0.4 0.5 0.1
v 0.4 0.5 -0.5
v 0.4 0.5 -0.7
v 0.5 0.1 0.6
v 0.5 0.1 0.5
v 0.5 0.2 0.6
v 0.5 0.2 0.5
v 0.5 0.2 -5.96046e-008
v 0.5 0.2 -0.2
v 0.5 0.2 -0.8
v 0.5 0.3 0.6
v 0.5 0.3 0.5
v 0.5 0.3 0.2
v 0.5 0.3 -5.96046e-008
v 0.5 0.3 -0.2
v 0.5 0.3 -0.5
v 0.5 0.4 0.5
v 0.5 0.4 0.2
v 0.5 0.4 -0.5
v 0.5 0.4 -0.7
v 0.5 0.4 -0.8
v 0.5 0.5 -0.7
v 0.5 0.5 -0.8
v 5.96046e-008 0.1 0.7
v 5.96046e-008 0.2 0.7
v 5.96046e-008 0.3 0.7
v 0.1 0.2 0.7
v 0.1 0.3 0.7
v 0.2 0.2 0.7
v 0.2 0.3 0.7
v 0.3 0.1 0.7
v 0.3 0.2 0.7
v 0.3 0.3 0.7
v -0.2 0.1 0.6
v -0.2 0.2 0.6
v -0.2 0.3 0.6
v -0.0999999 0.1 0.6
v -0.0999999 0.2 0.6
v -0.0999999 0.3 0.6
v -0.0999999 0.4 0.6
v 5.96046e-008 0.1 0.6
v 5.96046e-008 0.2 0.6
v 5.96046e-008 0.3 0.6
v 5.96046e-008 0.4 0.6
v 0.3 0.1 0.6
v 0.3 0.2 0.6
v 0.3 0.3 0.6
v 0.3 0.4 0.6
v 0.4 0.1 0.6
v 0.4 0.2 0.6
v 0.4 0.3 0.6
v 0.4 0.4 0.6
v 0.5 0.1 0.6
v 0.5 0.2 0.6
v 0.5 0.3 0.6
v -0.2 0.3 0.5
v -0.2 0.4 0.5
v -0.0999999 0.3 0.5
v -0.0999999 0.4 0.5
v 5.96046e-008 0.3 0.5
v 5.96046e-008 0.4 0.5
v 0.1 0.3 0.5
v 0.2 0.3 0.5
v 0.3 0.3 0.5
v 0.3 0.4 0.5
v 0.4 0.3 0.5
v 0.4 0.4 0.5
v 0.5 0.3 0.5
v 0.5 0.4 0.5
v 5.96046e-008 0.4 0.4
v 5.96046e-008 0.5 0.4
v 0.3 0.4 0.4
v 0.3 0.5 0.4
v -0.0999999 0.4 0.3
v -0.0999999 0.5 0.3
v 5.96046e-008 0.4 0.3
v 5.96046e-008 0.5 0.3
v 0.3 0.4 0.3
v 0.3 0.5 0.3
v 0.4 0.4 0.3
v 0.4 0.5 0.3
v -0.2 0.3 -0.5
v -0.2 0.4 -0.5
v -0.0999999 0.3 -0.5
v -0.0999999 0.4 -0.5
v -0.0999999 0.5 -0.5
v 5.96046e-008 0.4 -0.5
v 5.96046e-008 0.5 -0.5
v 0.3 0.4 -0.5
v 0.3 0.5 -0.5
v 0.4 0.3 -0.5
v 0.4 0.4 -0.5
v 0.4 0.5 -0.5
v 0.5 0.3 -0.5
v 0.5 0.4 -0.5
v -0.2 0.4 -0.7
v -0.2 0.5 -0.7
v -0.0999999 0.1 -0.7
v -0.0999999 0.2 -0.7
v -0.0999999 0.4 -0.7
v -0.0999999 0.5 -0.7
v 5.96046e-008 0.1 -0.7
v 5.96046e-008 0.2 -0.7
v 0.3 0.1 -0.7
v 0.3 0.2 -0.7
v 0.4 0.1 -0.7
v 0.4 0.2 -0.7
v 0.4 0.4 -0.7
v 0.4 0.5 -0.7
v 0.5 0.4 -0.7
v 0.5 0.5 -0.7
v -0.2 0.1 0.5
v -0.2 0.2 0.5
v -0.0999999 0.1 0.5
v -0.0999999 0.2 0.5
v 0.4 0.1 0.5
v 0.4 0.2 0.5
v 0.5 0.1 0.5
v 0.5 0.2 0.5
v -0.2 0.3 0.2
v -0.2 0.4 0.2
v -0.0999999 0.3 0.2
v -0.0999999 0.4 0.2
v 0.4 0.3 0.2
v 0.4 0.4 0.2
v 0.5 0.3 0.2
v 0.5 0.4 0.2
v -0.0999999 0.4 0.1
v -0.0999999 0.5 0.1
v 5.96046e-008 0.4 0.1
v 5.96046e-008 0.5 0.1
v 0.3 0.4 0.1
v 0.3 0.5 0.1
v 0.4 0.4 0.1
v 0.4 0.5 0.1
v -0.0999999 0.1 -0.6
v -0.0999999 0.2 -0.6
v 5.96046e-008 0.1 -0.6
v 5.96046e-008 0.2 -0.6
v 0.3 0.1 -0.6
v 0.3 0.2 -0.6
v 0.4 0.1 -0.6
v 0.4 0.2 -0.6
v -0.2 0.2 -0.8
v -0.2 0.4 -0.8
v -0.2 0.5 -0.8
v -0.0999999 0.1 -0.8
v -0.0999999 0.2 -0.8
v -0.0999999 0.4 -0.8
v -0.0999999 0.5 -0.8
v 5.96046e-008 0.1 -0.8
v 5.96046e-008 0.2 -0.8
v 5.96046e-008 0.4 -0.8
v 5.96046e-008 0.5 -0.8
v 0.1 0.2 -0.8
v 0.1 0.3 -0.8
v 0.1 0.4 -0.8
v 0.1 0.5 -0.8
v 0.2 0.2 -0.8
v 0.2 0.3 -0.8
v 0.2 0.4 -0.8
v 0.2 0.5 -0.8
v 0.3 0.1 -0.8
v 0.3 0.2 -0.8
v 0.3 0.4 -0.8
v 0.3 0.5 -0.8
v 0.4 0.1 -0.8
v 0.4 0.2 -0.8
v 0.4 0.4 -0.8
v 0.4 0.5 -0.8
v 0.5 0.2 -0.8
v 0.5 0.4 -0.8
v 0.5 0.5 -0.8
v 5.96046e-008 0.1 0.7
v 0.3 0.1 0.7
v -0.2 0.1 0.6
v -0.0999999 0.1 0.6
v 5.96046e-008 0.1 0.6
v 0.3 0.1 0.6
v 0.4 0.1 0.6
v 0.5 0.1 0.6
v -0.2 0.1 0.5
v -0.0999999 0.1 0.5
v 5.96046e-008 0.1 0.5
v 0.3 0.1 0.5
v 0.4 0.1 0.5
v 0.5 0.1 0.5
v -0.0999999 0.1 -0.6
v 5.96046e-008 0.1 -0.6
v 0.3 0.1 -0.6
v 0.4 0.1 -0.6
v -0.0999999 0.1 -0.7
v 5.96046e-008 0.1 -0.7
v 0.3 0.1 -0.7
v 0.4 0.1 -0.7
v -0.0999999 0.1 -0.8
v 5.96046e-008 0.1 -0.8
v 0.3 0.1 -0.8
v 0.4 0.1 -0.8
v -0.2 0.2 0.5
v -0.0999999 0.2 0.5
v 0.4 0.2 0.5
v 0.5 0.2 0.5
v -0.2 0.2 -5.96046e-008
v -0.0999999 0.2 -5.96046e-008
v 0.4 0.2 -5.96046e-008
v 0.5 0.2 -5.96046e-008
v -0.2 0.2 -0.2
v -0.0999999 0.2 -0.2
v 0.4 0.2 -0.2
v 0.5 0.2 -0.2
v -0.0999999 0.2 -0.6
v 5.96046e-008 0.2 -0.6
v 0.3 0.2 -0.6
v 0.4 0.2 -0.6
v -0.0999999 0.2 -0.7
v 5.96046e-008 0.2 -0.7
v 0.3 0.2 -0.7
v 0.4 0.2 -0.7
v -0.2 0.2 -0.8
v -0.0999999 0.2 -0.8
v 0.4 0.2 -0.8
v 0.5 0.2 -0.8
v 5.96046e-008 0.3 0.7
v 0.1 0.3 0.7
v 0.2 0.3 0.7
v 0.3 0.3 0.7
v -0.2 0.3 0.6
v -0.0999999 0.3 0.6
v 5.96046e-008 0.3 0.6
v 0.1 0.3 0.6
v 0.2 0.3 0.6
v 0.3 0.3 0.6
v 0.4 0.3 0.6
v 0.5 0.3 0.6
v -0.2 0.3 0.5
v -0.0999999 0.3 0.5
v 5.96046e-008 0.3 0.5
v 0.1 0.3 0.5
v 0.2 0.3 0.5
v 0.3 0.3 0.5
v 0.4 0.3 0.5
v 0.5 0.3 0.5
v -0.2 0.3 0.2
v -0.0999999 0.3 0.2
v 0.4 0.3 0.2
v 0.5 0.3 0.2
v -0.0999999 0.3 0.1
v 0.4 0.3 0.1
v -0.2 0.3 -5.96046e-008
v -0.0999999 0.3 -5.96046e-008
v 0.4 0.3 -5.96046e-008
v 0.5 0.3 -5.96046e-008
v -0.2 0.3 -0.2
v -0.0999999 0.3 -0.2
v 0.4 0.3 -0.2
v 0.5 0.3 -0.2
v -0.0999999 0.3 -0.3
v 0.4 0.3 -0.3
v -0.2 0.3 -0.5
v -0.0999999 0.3 -0.5
v 0.4 0.3 -0.5
v 0.5 0.3 -0.5
v -0.0999999 0.4 0.6
v 5.96046e-008 0.4 0.6
v 0.3 0.4 0.6
v 0.4 0.4 0.6
v -0.2 0.4 0.5
v -0.0999999 0.4 0.5
v 5.96046e-008 0.4 0.5
v 0.3 0.4 0.5
v 0.4 0.4 0.5
v 0.5 0.4 0.5
v 5.96046e-008 0.4 0.4
v 0.3 0.4 0.4
v -0.0999999 0.4 0.3
v 5.96046e-008 0.4 0.3
v 0.3 0.4 0.3
v 0.4 0.4 0.3
v -0.2 0.4 0.2
v -0.0999999 0.4 0.2
v 0.4 0.4 0.2
v 0.5 0.4 0.2
v -0.0999999 0.4 0.1
v 5.96046e-008 0.4 0.1
v 0.3 0.4 0.1
v 0.4 0.4 0.1
v -0.0999999 0.4 -0.3
v 5.96046e-008 0.4 -0.3
v 0.3 0.4 -0.3
v 0.4 0.4 -0.3
v -0.2 0.4 -0.5
v -0.0999999 0.4 -0.5
v 5.96046e-008 0.4 -0.5
v 0.3 0.4 -0.5
v 0.4 0.4 -0.5
v 0.5 0.4 -0.5
v -0.2 0.4 -0.7
v -0.0999999 0.4 -0.7
v 0.4 0.4 -0.7
v 0.5 0.4 -0.7
v 5.96046e-008 0.5 0.4
v 0.3 0.5 0.4
v -0.0999999 0.5 0.3
v 5.96046e-008 0.5 0.3
v 0.3 0.5 0.3
v 0.4 0.5 0.3
v -0.0999999 0.5 0.2
v 0.4 0.5 0.2
v -0.0999999 0.5 0.1
v 5.96046e-008 0.5 0.1
v 0.1 0.5 0.1
v 0.2 0.5 0.1
v 0.3 0.5 0.1
v 0.4 0.5 0.1
v 5.96046e-008 0.5 -0.3
v 0.1 0.5 -0.3
v 0.2 0.5 -0.3
v 0.3 0.5 -0.3
v -0.0999999 0.5 -0.5
v 5.96046e-008 0.5 -0.5
v 0.3 0.5 -0.5
v 0.4 0.5 -0.5
v -0.2 0.5 -0.7
v -0.0999999 0.5 -0.7
v 5.96046e-008 0.5 -0.7
v 0.1 0.5 -0.7
v 0.2 0.5 -0.7
v 0.3 0.5 -0.7
v 0.4 0.5 -0.7
v 0.5 0.5 -0.7
v -0.2 0.5 -0.8
v -0.0999999 0.5 -0.8
v 5.96046e-008 0.5 -0.8
v 0.1 0.5 -0.8
v 0.2 0.5 -0.8
v 0.3 0.5 -0.8
v 0.4 0.5 -0.8
v 0.5 0.5 -0.8

# faces
f 3/3/1 2/3/1 1/3/1
f 4/3/1 2/3/1 3/3/1
f 8/2/1 4/2/1 3/2/1
f 8/2/1 5/2/1 4/2/1
f 9/2/1 5/2/1 8/2/1
f 10/2/1 5/2/1 9/2/1
f 11/8/1 6/8/1 5/8/1
f 11/2/1 5/2/1 10/2/1
f 12/2/1 7/2/1 6/2/1
f 12/8/1 6/8/1 11/8/1
f 13/2/1 7/2/1 12/2/1
f 14/2/1 10/2/1 9/2/1
f 15/2/1 10/2/1 14/2/1
f 16/2/1 7/2/1 13/2/1
f 17/2/1 7/2/1 16/2/1
f 18/2/1 7/2/1 17/2/1
f 19/4/1 18/4/1 17/4/1
f 20/4/1 18/4/1 19/4/1
f 25/2/1 22/2/1 21/2/1
f 26/2/1 22/2/1 25/2/1
f 27/2/1 22/2/1 26/2/1
f 28/2/1 22/2/1 27/2/1
f 29/6/1 24/6/1 23/6/1
f 30/6/1 24/6/1 29/6/1
f 39/2/1 32/2/1 31/2/1
f 40/2/1 32/2/1 39/2/1
f 42/2/1 34/2/1 33/2/1
f 43/8/1 35/8/1 34/8/1
f 43/8/1 36/8/1 35/8/1
f 43/2/1 34/2/1 42/2/1
f 43/8/1 37/8/1 36/8/1
f 44/2/1 38/2/1 37/2/1
f 44/8/1 37/8/1 43/8/1
f 45/2/1 38/2/1 44/2/1
f 47/8/1 42/8/1 41/8/1
f 48/2/1 43/2/1 42/2/1
f 48/8/1 42/8/1 47/8/1
f 49/2/1 43/2/1 48/2/1
f 50/2/1 46/2/1 45/2/1
f 51/2/1 46/2/1 50/2/1
f 56/2/1 53/2/1 52/2/1
f 57/2/1 53/2/1 56/2/1
f 58/2/1 55/2/1 54/2/1
f 59/2/1 55/2/1 58/2/1
f 60/9/1 57/9/1 56/9/1
f 61/9/1 57/9/1 60/9/1
f 67/8/1 63/8/1 62/8/1
f 68/8/1 63/8/1 67/8/1
f 69/8/1 65/8/1 64/8/1
f 70/2/1 66/2/1 65/2/1
f 70/8/1 65/8/1 69/8/1
f 71/2/1 66/2/1 70/2/1
f 74/2/1 73/2/1 72/2/1
f 75/2/1 73/2/1 74/2/1
f 76/2/2 77/2/2 78/2/2
f 78/2/2 77/2/2 79/2/2
f 80/2/2 81/2/2 84/2/2
f 84/2/2 81/2/2 85/2/2
f 82/2/2 83/2/2 86/2/2
f 86/2/2 83/2/2 87/2/2
f 84/9/2 85/9/2 88/9/2
f 88/9/2 85/9/2 89/9/2
f 90/8/2 91/8/2 95/8/2
f 95/8/2 91/8/2 96/8/2
f 92/8/2 93/8/2 97/8/2
f 93/2/2 94/2/2 98/2/2
f 97/8/2 93/8/2 98/8/2
f 98/2/2 94/2/2 99/2/2
f 100/2/2 101/2/2 104/2/2
f 104/2/2 101/2/2 105/2/2
f 105/2/2 101/2/2 106/2/2
f 106/2/2 101/2/2 107/2/2
f 102/6/2 103/6/2 108/6/2
f 108/6/2 103/6/2 109/6/2
f 110/2/2 111/2/2 118/2/2
f 118/2/2 111/2/2 119/2/2
f 112/2/2 113/2/2 121/2/2
f 113/8/2 114/8/2 122/8/2
f 114/8/2 115/8/2 122/8/2
f 121/2/2 113/2/2 122/2/2
f 115/8/2 116/8/2 122/8/2
f 116/2/2 117/2/2 123/2/2
f 122/8/2 116/8/2 123/8/2
f 123/2/2 117/2/2 124/2/2
f 120/8/2 121/8/2 126/8/2
f 121/2/2 122/2/2 127/2/2
f 126/8/2 121/8/2 127/8/2
f 127/2/2 122/2/2 128/2/2
f 124/2/2 125/2/2 129/2/2
f 129/2/2 125/2/2 130/2/2
f 131/3/2 132/3/2 133/3/2
f 133/3/2 132/3/2 134/3/2
f 133/2/2 134/2/2 138/2/2
f 134/2/2 135/2/2 138/2/2
f 138/2/2 135/2/2 139/2/2
f 139/2/2 135/2/2 140/2/2
f 135/8/2 136/8/2 141/8/2
f 140/2/2 135/2/2 141/2/2
f 136/2/2 137/2/2 142/2/2
f 141/8/2 136/8/2 142/8/2
f 142/2/2 137/2/2 143/2/2
f 139/2/2 140/2/2 144/2/2
f 144/2/2 140/2/2 145/2/2
f 143/2/2 137/2/2 146/2/2
f 146/2/2 137/2/2 147/2/2
f 147/2/2 137/2/2 148/2/2
f 147/3/2 148/3/2 149/3/2
f 149/3/2 148/3/2 150/3/2
f 154/2/3 152/2/3 151/2/3
f 154/9/3 153/9/3 152/9/3
f 155/9/3 153/9/3 154/9/3
f 156/2/3 154/2/3 151/2/3
f 156/7/3 155/7/3 154/7/3
f 157/7/3 155/7/3 156/7/3
f 158/2/3 156/2/3 151/2/3
f 159/9/3 157/9/3 156/9/3
f 159/2/3 156/2/3 158/2/3
f 160/9/3 157/9/3 159/9/3
f 164/3/3 162/3/3 161/3/3
f 165/2/3 163/2/3 162/2/3
f 165/3/3 162/3/3 164/3/3
f 166/2/3 163/2/3 165/2/3
f 168/1/3 165/1/3 164/1/3
f 169/2/3 167/2/3 166/2/3
f 169/1/3 165/1/3 168/1/3
f 169/2/3 166/2/3 165/2/3
f 170/2/3 167/2/3 169/2/3
f 171/2/3 167/2/3 170/2/3
f 176/1/3 173/1/3 172/1/3
f 177/2/3 175/2/3 174/2/3
f 177/1/3 173/1/3 176/1/3
f 177/2/3 174/2/3 173/2/3
f 178/2/3 175/2/3 177/2/3
f 179/2/3 175/2/3 178/2/3
f 180/3/3 177/3/3 176/3/3
f 181/2/3 178/2/3 177/2/3
f 181/3/3 177/3/3 180/3/3
f 182/2/3 178/2/3 181/2/3
f 185/2/3 184/2/3 183/2/3
f 186/2/3 184/2/3 185/2/3
f 189/2/3 188/2/3 187/2/3
f 190/2/3 188/2/3 189/2/3
f 191/2/3 188/2/3 190/2/3
f 192/2/3 188/2/3 191/2/3
f 195/2/3 194/2/3 193/2/3
f 196/2/3 194/2/3 195/2/3
f 199/8/3 198/8/3 197/8/3
f 200/8/3 198/8/3 199/8/3
f 203/8/3 202/8/3 201/8/3
f 204/8/3 202/8/3 203/8/3
f 207/8/3 206/8/3 205/8/3
f 208/8/3 206/8/3 207/8/3
f 211/2/3 210/2/3 209/2/3
f 212/2/3 210/2/3 211/2/3
f 214/2/3 213/2/3 212/2/3
f 215/2/3 213/2/3 214/2/3
f 219/2/3 217/2/3 216/2/3
f 220/2/3 217/2/3 219/2/3
f 221/2/3 219/2/3 218/2/3
f 222/2/3 219/2/3 221/2/3
f 227/4/3 224/4/3 223/4/3
f 228/4/3 224/4/3 227/4/3
f 229/6/3 226/6/3 225/6/3
f 230/6/3 226/6/3 229/6/3
f 233/6/3 232/6/3 231/6/3
f 234/6/3 232/6/3 233/6/3
f 237/3/3 236/3/3 235/3/3
f 238/3/3 236/3/3 237/3/3
f 239/3/4 240/3/4 241/3/4
f 241/3/4 240/3/4 242/3/4
f 243/3/4 244/3/4 245/3/4
f 245/3/4 244/3/4 246/3/4
f 247/2/4 248/2/4 249/2/4
f 249/2/4 248/2/4 250/2/4
f 251/2/4 252/2/4 253/2/4
f 253/2/4 252/2/4 254/2/4
f 255/2/4 256/2/4 257/2/4
f 257/2/4 256/2/4 258/2/4
f 259/2/4 260/2/4 261/2/4
f 261/2/4 260/2/4 262/2/4
f 263/2/4 264/2/4 265/2/4
f 265/2/4 264/2/4 266/2/4
f 267/2/4 268/2/4 269/2/4
f 269/2/4 268/2/4 270/2/4
f 271/2/4 272/2/4 275/2/4
f 272/4/4 273/4/4 276/4/4
f 275/2/4 272/2/4 276/2/4
f 276/4/4 273/4/4 277/4/4
f 274/6/4 275/6/4 278/6/4
f 275/2/4 276/2/4 279/2/4
f 278/6/4 275/6/4 279/6/4
f 276/1/4 277/1/4 280/1/4
f 279/2/4 276/2/4 280/2/4
f 280/1/4 277/1/4 281/1/4
f 278/7/4 279/7/4 282/7/4
f 279/2/4 280/2/4 282/2/4
f 280/2/4 281/2/4 282/2/4
f 282/2/4 281/2/4 283/2/4
f 283/2/4 281/2/4 284/2/4
f 284/2/4 281/2/4 285/2/4
f 278/7/4 282/7/4 286/7/4
f 282/7/4 283/7/4 286/7/4
f 283/2/4 284/2/4 287/2/4
f 286/7/4 283/7/4 287/7/4
f 284/5/4 285/5/4 288/5/4
f 287/2/4 284/2/4 288/2/4
f 288/5/4 285/5/4 289/5/4
f 278/7/4 286/7/4 290/7/4
f 286/2/4 287/2/4 291/2/4
f 290/7/4 286/7/4 291/7/4
f 287/2/4 288/2/4 291/2/4
f 288/2/4 289/2/4 291/2/4
f 291/2/4 289/2/4 292/2/4
f 292/2/4 289/2/4 293/2/4
f 290/6/4 291/6/4 294/6/4
f 291/2/4 292/2/4 295/2/4
f 294/6/4 291/6/4 295/6/4
f 292/1/4 293/1/4 296/1/4
f 295/2/4 292/2/4 296/2/4
f 296/1/4 293/1/4 297/1/4
f 295/2/4 296/2/4 298/2/4
f 296/3/4 297/3/4 299/3/4
f 298/2/4 296/2/4 299/2/4
f 299/3/4 297/3/4 300/3/4
f 305/2/5 302/2/5 301/2/5
f 306/2/5 302/2/5 305/2/5
f 309/3/5 304/3/5 303/3/5
f 310/1/5 305/1/5 304/1/5
f 310/3/5 304/3/5 309/3/5
f 311/2/5 306/2/5 305/2/5
f 311/1/5 305/1/5 310/1/5
f 312/1/5 307/1/5 306/1/5
f 312/2/5 306/2/5 311/2/5
f 313/3/5 308/3/5 307/3/5
f 313/1/5 307/1/5 312/1/5
f 314/3/5 308/3/5 313/3/5
f 315/2/5 312/2/5 311/2/5
f 315/2/5 313/2/5 312/2/5
f 315/2/5 311/2/5 310/2/5
f 316/2/5 313/2/5 315/2/5
f 317/2/5 313/2/5 316/2/5
f 318/2/5 313/2/5 317/2/5
f 320/2/5 317/2/5 316/2/5
f 321/2/5 317/2/5 320/2/5
f 323/6/5 320/6/5 319/6/5
f 324/7/5 321/7/5 320/7/5
f 324/6/5 320/6/5 323/6/5
f 325/6/5 322/6/5 321/6/5
f 325/7/5 321/7/5 324/7/5
f 326/6/5 322/6/5 325/6/5
f 331/2/5 328/2/5 327/2/5
f 332/2/5 328/2/5 331/2/5
f 333/2/5 330/2/5 329/2/5
f 334/2/5 330/2/5 333/2/5
f 335/8/5 332/8/5 331/8/5
f 336/8/5 332/8/5 335/8/5
f 337/8/5 334/8/5 333/8/5
f 338/8/5 334/8/5 337/8/5
f 339/2/5 336/2/5 335/2/5
f 342/2/5 338/2/5 337/2/5
f 343/2/5 340/2/5 339/2/5
f 343/2/5 339/2/5 335/2/5
f 344/2/5 340/2/5 343/2/5
f 345/2/5 342/2/5 341/2/5
f 346/2/5 338/2/5 342/2/5
f 346/2/5 342/2/5 345/2/5
f 347/2/5 343/2/5 335/2/5
f 348/2/5 343/2/5 347/2/5
f 349/2/5 338/2/5 346/2/5
f 350/2/5 338/2/5 349/2/5
f 351/9/6 352/9/6 357/9/6
f 352/7/6 353/7/6 358/7/6
f 357/9/6 352/9/6 358/9/6
f 353/9/6 354/9/6 359/9/6
f 358/7/6 353/7/6 359/7/6
f 359/9/6 354/9/6 360/9/6
f 355/2/6 356/2/6 363/2/6
f 363/2/6 356/2/6 364/2/6
f 357/2/6 358/2/6 365/2/6
f 358/7/6 359/7/6 366/7/6
f 365/2/6 358/2/6 366/2/6
f 359/2/6 360/2/6 367/2/6
f 366/7/6 359/7/6 367/7/6
f 367/2/6 360/2/6 368/2/6
f 361/2/6 362/2/6 369/2/6
f 369/2/6 362/2/6 370/2/6
f 371/2/6 372/2/6 375/2/6
f 373/2/6 374/2/6 376/2/6
f 371/2/6 375/2/6 377/2/6
f 377/2/6 375/2/6 378/2/6
f 376/2/6 374/2/6 379/2/6
f 379/2/6 374/2/6 380/2/6
f 377/8/6 378/8/6 381/8/6
f 381/8/6 378/8/6 382/8/6
f 379/8/6 380/8/6 383/8/6
f 383/8/6 380/8/6 384/8/6
f 381/2/6 382/2/6 385/2/6
f 383/2/6 384/2/6 386/2/6
f 381/2/6 385/2/6 387/2/6
f 387/2/6 385/2/6 388/2/6
f 386/2/6 384/2/6 389/2/6
f 389/2/6 384/2/6 390/2/6
f 391/2/6 392/2/6 396/2/6
f 396/2/6 392/2/6 397/2/6
f 393/2/6 394/2/6 398/2/6
f 398/2/6 394/2/6 399/2/6
f 396/2/6 397/2/6 401/2/6
f 399/2/6 400/2/6 401/2/6
f 398/2/6 399/2/6 401/2/6
f 397/2/6 398/2/6 401/2/6
f 395/2/6 396/2/6 401/2/6
f 401/2/6 400/2/6 402/2/6
f 395/2/6 401/2/6 403/2/6
f 403/2/6 401/2/6 404/2/6
f 402/2/6 400/2/6 405/2/6
f 405/2/6 400/2/6 406/2/6
f 395/2/6 403/2/6 407/2/6
f 407/2/6 403/2/6 408/2/6
f 406/2/6 400/2/6 409/2/6
f 409/2/6 400/2/6 410/2/6
f 411/8/6 412/8/6 415/8/6
f 415/8/6 412/8/6 416/8/6
f 413/8/6 414/8/6 417/8/6
f 417/8/6 414/8/6 418/8/6
f 415/2/6 416/2/6 420/2/6
f 420/2/6 416/2/6 421/2/6
f 417/2/6 418/2/6 422/2/6
f 422/2/6 418/2/6 423/2/6
f 419/2/6 420/2/6 425/2/6
f 425/2/6 420/2/6 426/2/6
f 423/2/6 424/2/6 427/2/6
f 427/2/6 424/2/6 428/2/6
f 429/8/6 430/8/6 432/8/6
f 432/8/6 430/8/6 433/8/6
f 431/8/6 432/8/6 435/8/6
f 433/8/6 434/8/6 435/8/6
f 432/8/6 433/8/6 435/8/6
f 435/8/6 434/8/6 436/8/6
f 435/2/6 436/2/6 437/2/6
f 437/2/6 436/2/6 438/2/6
f 438/2/6 436/2/6 439/2/6
f 439/2/6 436/2/6 440/2/6
f 440/2/6 436/2/6 441/2/6
f 441/2/6 436/2/6 442/2/6
f 438/8/6 439/8/6 443/8/6
f 439/2/6 440/2/6 444/2/6
f 443/8/6 439/8/6 444/8/6
f 440/8/6 441/8/6 445/8/6
f 444/2/6 440/2/6 445/2/6
f 445/8/6 441/8/6 446/8/6
f 443/2/6 444/2/6 448/2/6
f 444/2/6 445/2/6 448/2/6
f 445/2/6 446/2/6 448/2/6
f 448/2/6 446/2/6 449/2/6
f 448/2/6 449/2/6 452/2/6
f 449/2/6 450/2/6 452/2/6
f 447/2/6 448/2/6 452/2/6
f 452/2/6 450/2/6 453/2/6
f 453/2/6 450/2/6 454/2/6
f 454/2/6 450/2/6 455/2/6
f 455/2/6 450/2/6 456/2/6
f 456/2/6 450/2/6 457/2/6
f 451/4/6 452/4/6 459/4/6
f 452/1/6 453/1/6 460/1/6
f 459/4/6 452/4/6 460/4/6
f 453/2/6 454/2/6 461/2/6
f 460/1/6 453/1/6 461/1/6
f 454/5/6 455/5/6 462/5/6
f 461/2/6 454/2/6 462/2/6
f 455/2/6 456/2/6 463/2/6
f 462/5/6 455/5/6 463/5/6
f 456/1/6 457/1/6 464/1/6
f 463/2/6 456/2/6 464/2/6
f 457/3/6 458/3/6 465/3/6
f 464/1/6 457/1/6 465/1/6
f 465/3/6 458/3/6 466/3/6
