# MagicaVoxel @ Ephtracy

# group
o 

# material
mtllib signalRight.mtl
usemtl palette

# normals
vn -1 0 0
vn 1 0 0
vn 0 0 -1
vn 0 0 1
vn 0 -1 0
vn 0 1 0

# texcoords
vt 0.845703 0.5
vt 0.919922 0.5
vt 0.958984 0.5

# verts
v -0.7 0 -0.1
v -0.7 0 0
v -0.7 0.1 -0.1
v -0.7 0.1 0
v -0.6 0 -0.2
v -0.6 0 -0.1
v -0.6 0 0
v -0.6 0 0.1
v -0.6 0.1 -0.2
v -0.6 0.1 -0.1
v -0.6 0.1 0
v -0.6 0.1 0.1
v -0.5 0 -0.3
v -0.5 0 -0.2
v -0.5 0 0.1
v -0.5 0 0.2
v -0.5 0.1 -0.3
v -0.5 0.1 -0.2
v -0.5 0.1 0.1
v -0.5 0.1 0.2
v -0.4 0 -0.4
v -0.4 0 -0.3
v -0.4 0 0.2
v -0.4 0 0.3
v -0.4 0.1 -0.4
v -0.4 0.1 -0.3
v -0.4 0.1 0.2
v -0.4 0.1 0.3
v -0.3 0 -0.5
v -0.3 0 -0.4
v -0.3 0 0.3
v -0.3 0 0.4
v -0.3 0.1 -0.5
v -0.3 0.1 -0.4
v -0.3 0.1 0.3
v -0.3 0.1 0.4
v -0.2 0 -0.6
v -0.2 0 -0.5
v -0.2 0 0.4
v -0.2 0 0.5
v -0.2 0.1 -0.6
v -0.2 0.1 -0.5
v -0.2 0.1 0.4
v -0.2 0.1 0.5
v -0.1 0 -0.7
v -0.1 0 -0.6
v -0.1 0 0.5
v -0.1 0 0.6
v -0.1 0.1 -0.7
v -0.1 0.1 -0.6
v -0.1 0.1 0.5
v -0.1 0.1 0.6
v 0.2 0 -0.7
v 0.2 0 -0.6
v 0.2 0 0.5
v 0.2 0 0.6
v 0.2 0.1 -0.7
v 0.2 0.1 -0.6
v 0.2 0.1 0.5
v 0.2 0.1 0.6
v 0.3 0 -0.6
v 0.3 0 -0.5
v 0.3 0 0.4
v 0.3 0 0.5
v 0.3 0.1 -0.6
v 0.3 0.1 -0.5
v 0.3 0.1 0.4
v 0.3 0.1 0.5
v 0.4 0 -0.5
v 0.4 0 -0.4
v 0.4 0 0.3
v 0.4 0 0.4
v 0.4 0.1 -0.5
v 0.4 0.1 -0.4
v 0.4 0.1 0.3
v 0.4 0.1 0.4
v 0.5 0 -0.4
v 0.5 0 -0.3
v 0.5 0 0.2
v 0.5 0 0.3
v 0.5 0.1 -0.4
v 0.5 0.1 -0.3
v 0.5 0.1 0.2
v 0.5 0.1 0.3
v 0.6 0 -0.3
v 0.6 0 -0.2
v 0.6 0 0.1
v 0.6 0 0.2
v 0.6 0.1 -0.3
v 0.6 0.1 -0.2
v 0.6 0.1 0.1
v 0.6 0.1 0.2
v 0.7 0 -0.2
v 0.7 0 -0.1
v 0.7 0 0
v 0.7 0 0.1
v 0.7 0.1 -0.2
v 0.7 0.1 -0.1
v 0.7 0.1 0
v 0.7 0.1 0.1
v 0.8 0 -0.1
v 0.8 0 0
v 0.8 0.1 -0.1
v 0.8 0.1 0
v -0.1 0 -0.7
v -0.1 0.1 -0.7
v 0.2 0 -0.7
v 0.2 0.1 -0.7
v -0.2 0 -0.6
v -0.2 0.1 -0.6
v -0.1 0 -0.6
v -0.1 0.1 -0.6
v 0.2 0 -0.6
v 0.2 0.1 -0.6
v 0.3 0 -0.6
v 0.3 0.1 -0.6
v -0.3 0 -0.5
v -0.3 0.1 -0.5
v -0.2 0 -0.5
v -0.2 0.1 -0.5
v 0.3 0 -0.5
v 0.3 0.1 -0.5
v 0.4 0 -0.5
v 0.4 0.1 -0.5
v -0.4 0 -0.4
v -0.4 0.1 -0.4
v -0.3 0 -0.4
v -0.3 0.1 -0.4
v 0.4 0 -0.4
v 0.4 0.1 -0.4
v 0.5 0 -0.4
v 0.5 0.1 -0.4
v -0.5 0 -0.3
v -0.5 0.1 -0.3
v -0.4 0 -0.3
v -0.4 0.1 -0.3
v 0.5 0 -0.3
v 0.5 0.1 -0.3
v 0.6 0 -0.3
v 0.6 0.1 -0.3
v -0.6 0 -0.2
v -0.6 0.1 -0.2
v -0.5 0 -0.2
v -0.5 0.1 -0.2
v 0.6 0 -0.2
v 0.6 0.1 -0.2
v 0.7 0 -0.2
v 0.7 0.1 -0.2
v -0.7 0 -0.1
v -0.7 0.1 -0.1
v -0.6 0 -0.1
v -0.6 0.1 -0.1
v 0.7 0 -0.1
v 0.7 0.1 -0.1
v 0.8 0 -0.1
v 0.8 0.1 -0.1
v -0.7 0 0
v -0.7 0.1 0
v -0.6 0 0
v -0.6 0.1 0
v 0.7 0 0
v 0.7 0.1 0
v 0.8 0 0
v 0.8 0.1 0
v -0.6 0 0.1
v -0.6 0.1 0.1
v -0.5 0 0.1
v -0.5 0.1 0.1
v 0.6 0 0.1
v 0.6 0.1 0.1
v 0.7 0 0.1
v 0.7 0.1 0.1
v -0.5 0 0.2
v -0.5 0.1 0.2
v -0.4 0 0.2
v -0.4 0.1 0.2
v 0.5 0 0.2
v 0.5 0.1 0.2
v 0.6 0 0.2
v 0.6 0.1 0.2
v -0.4 0 0.3
v -0.4 0.1 0.3
v -0.3 0 0.3
v -0.3 0.1 0.3
v 0.4 0 0.3
v 0.4 0.1 0.3
v 0.5 0 0.3
v 0.5 0.1 0.3
v -0.3 0 0.4
v -0.3 0.1 0.4
v -0.2 0 0.4
v -0.2 0.1 0.4
v 0.3 0 0.4
v 0.3 0.1 0.4
v 0.4 0 0.4
v 0.4 0.1 0.4
v -0.2 0 0.5
v -0.2 0.1 0.5
v -0.1 0 0.5
v -0.1 0.1 0.5
v 0.2 0 0.5
v 0.2 0.1 0.5
v 0.3 0 0.5
v 0.3 0.1 0.5
v -0.1 0 0.6
v -0.1 0.1 0.6
v 0.2 0 0.6
v 0.2 0.1 0.6
v -0.1 0 -0.7
v 0.2 0 -0.7
v -0.2 0 -0.6
v -0.1 0 -0.6
v 0.2 0 -0.6
v 0.3 0 -0.6
v -0.3 0 -0.5
v -0.2 0 -0.5
v -0.1 0 -0.5
v 0.2 0 -0.5
v 0.3 0 -0.5
v 0.4 0 -0.5
v -0.4 0 -0.4
v -0.3 0 -0.4
v -0.2 0 -0.4
v 0 0 -0.4
v 0.3 0 -0.4
v 0.4 0 -0.4
v 0.5 0 -0.4
v -0.5 0 -0.3
v -0.4 0 -0.3
v -0.3 0 -0.3
v 0.4 0 -0.3
v 0.5 0 -0.3
v 0.6 0 -0.3
v -0.6 0 -0.2
v -0.5 0 -0.2
v -0.4 0 -0.2
v 0.5 0 -0.2
v 0.6 0 -0.2
v 0.7 0 -0.2
v -0.7 0 -0.1
v -0.6 0 -0.1
v -0.5 0 -0.1
v 0.1 0 -0.1
v 0.2 0 -0.1
v 0.6 0 -0.1
v 0.7 0 -0.1
v 0.8 0 -0.1
v -0.7 0 0
v -0.6 0 0
v -0.5 0 0
v 0 0 0
v 0.1 0 0
v 0.2 0 0
v 0.4 0 0
v 0.6 0 0
v 0.7 0 0
v 0.8 0 0
v -0.6 0 0.1
v -0.5 0 0.1
v -0.4 0 0.1
v -0.2 0 0.1
v -0.1 0 0.1
v 0.3 0 0.1
v 0.4 0 0.1
v 0.5 0 0.1
v 0.6 0 0.1
v 0.7 0 0.1
v -0.5 0 0.2
v -0.4 0 0.2
v -0.3 0 0.2
v -0.1 0 0.2
v 0.1 0 0.2
v 0.2 0 0.2
v 0.3 0 0.2
v 0.4 0 0.2
v 0.5 0 0.2
v 0.6 0 0.2
v -0.4 0 0.3
v -0.3 0 0.3
v -0.2 0 0.3
v 0.1 0 0.3
v 0.2 0 0.3
v 0.3 0 0.3
v 0.4 0 0.3
v 0.5 0 0.3
v -0.3 0 0.4
v -0.2 0 0.4
v -0.1 0 0.4
v 0.2 0 0.4
v 0.3 0 0.4
v 0.4 0 0.4
v -0.2 0 0.5
v -0.1 0 0.5
v 0.2 0 0.5
v 0.3 0 0.5
v -0.1 0 0.6
v 0.2 0 0.6
v -0.1 0.1 -0.7
v 0.2 0.1 -0.7
v -0.2 0.1 -0.6
v -0.1 0.1 -0.6
v 0.2 0.1 -0.6
v 0.3 0.1 -0.6
v -0.3 0.1 -0.5
v -0.2 0.1 -0.5
v -0.1 0.1 -0.5
v 0.2 0.1 -0.5
v 0.3 0.1 -0.5
v 0.4 0.1 -0.5
v -0.4 0.1 -0.4
v -0.3 0.1 -0.4
v -0.2 0.1 -0.4
v 0 0.1 -0.4
v 0.3 0.1 -0.4
v 0.4 0.1 -0.4
v 0.5 0.1 -0.4
v -0.5 0.1 -0.3
v -0.4 0.1 -0.3
v -0.3 0.1 -0.3
v 0.4 0.1 -0.3
v 0.5 0.1 -0.3
v 0.6 0.1 -0.3
v -0.6 0.1 -0.2
v -0.5 0.1 -0.2
v -0.4 0.1 -0.2
v 0.5 0.1 -0.2
v 0.6 0.1 -0.2
v 0.7 0.1 -0.2
v -0.7 0.1 -0.1
v -0.6 0.1 -0.1
v -0.5 0.1 -0.1
v 0.1 0.1 -0.1
v 0.2 0.1 -0.1
v 0.6 0.1 -0.1
v 0.7 0.1 -0.1
v 0.8 0.1 -0.1
v -0.7 0.1 0
v -0.6 0.1 0
v -0.5 0.1 0
v 0 0.1 0
v 0.1 0.1 0
v 0.2 0.1 0
v 0.4 0.1 0
v 0.6 0.1 0
v 0.7 0.1 0
v 0.8 0.1 0
v -0.6 0.1 0.1
v -0.5 0.1 0.1
v -0.4 0.1 0.1
v -0.2 0.1 0.1
v -0.1 0.1 0.1
v 0.3 0.1 0.1
v 0.4 0.1 0.1
v 0.5 0.1 0.1
v 0.6 0.1 0.1
v 0.7 0.1 0.1
v -0.5 0.1 0.2
v -0.4 0.1 0.2
v -0.3 0.1 0.2
v -0.1 0.1 0.2
v 0.1 0.1 0.2
v 0.2 0.1 0.2
v 0.3 0.1 0.2
v 0.4 0.1 0.2
v 0.5 0.1 0.2
v 0.6 0.1 0.2
v -0.4 0.1 0.3
v -0.3 0.1 0.3
v -0.2 0.1 0.3
v 0.1 0.1 0.3
v 0.2 0.1 0.3
v 0.3 0.1 0.3
v 0.4 0.1 0.3
v 0.5 0.1 0.3
v -0.3 0.1 0.4
v -0.2 0.1 0.4
v -0.1 0.1 0.4
v 0.2 0.1 0.4
v 0.3 0.1 0.4
v 0.4 0.1 0.4
v -0.2 0.1 0.5
v -0.1 0.1 0.5
v 0.2 0.1 0.5
v 0.3 0.1 0.5
v -0.1 0.1 0.6
v 0.2 0.1 0.6

# faces
f 1/1/1 2/1/1 3/1/1
f 3/1/1 2/1/1 4/1/1
f 5/1/1 6/1/1 9/1/1
f 9/1/1 6/1/1 10/1/1
f 7/1/1 8/1/1 11/1/1
f 11/1/1 8/1/1 12/1/1
f 13/1/1 14/1/1 17/1/1
f 17/1/1 14/1/1 18/1/1
f 15/1/1 16/1/1 19/1/1
f 19/1/1 16/1/1 20/1/1
f 21/1/1 22/1/1 25/1/1
f 25/1/1 22/1/1 26/1/1
f 23/1/1 24/1/1 27/1/1
f 27/1/1 24/1/1 28/1/1
f 29/1/1 30/1/1 33/1/1
f 33/1/1 30/1/1 34/1/1
f 31/1/1 32/1/1 35/1/1
f 35/1/1 32/1/1 36/1/1
f 37/1/1 38/1/1 41/1/1
f 41/1/1 38/1/1 42/1/1
f 39/1/1 40/1/1 43/1/1
f 43/1/1 40/1/1 44/1/1
f 45/1/1 46/1/1 49/1/1
f 49/1/1 46/1/1 50/1/1
f 47/1/1 48/1/1 51/1/1
f 51/1/1 48/1/1 52/1/1
f 57/1/2 54/1/2 53/1/2
f 58/1/2 54/1/2 57/1/2
f 59/1/2 56/1/2 55/1/2
f 60/1/2 56/1/2 59/1/2
f 65/1/2 62/1/2 61/1/2
f 66/1/2 62/1/2 65/1/2
f 67/1/2 64/1/2 63/1/2
f 68/1/2 64/1/2 67/1/2
f 73/1/2 70/1/2 69/1/2
f 74/1/2 70/1/2 73/1/2
f 75/1/2 72/1/2 71/1/2
f 76/1/2 72/1/2 75/1/2
f 81/1/2 78/1/2 77/1/2
f 82/1/2 78/1/2 81/1/2
f 83/1/2 80/1/2 79/1/2
f 84/1/2 80/1/2 83/1/2
f 89/1/2 86/1/2 85/1/2
f 90/1/2 86/1/2 89/1/2
f 91/1/2 88/1/2 87/1/2
f 92/1/2 88/1/2 91/1/2
f 97/1/2 94/1/2 93/1/2
f 98/1/2 94/1/2 97/1/2
f 99/1/2 96/1/2 95/1/2
f 100/1/2 96/1/2 99/1/2
f 103/1/2 102/1/2 101/1/2
f 104/1/2 102/1/2 103/1/2
f 105/1/3 106/1/3 107/1/3
f 107/1/3 106/1/3 108/1/3
f 109/1/3 110/1/3 111/1/3
f 111/1/3 110/1/3 112/1/3
f 113/1/3 114/1/3 115/1/3
f 115/1/3 114/1/3 116/1/3
f 117/1/3 118/1/3 119/1/3
f 119/1/3 118/1/3 120/1/3
f 121/1/3 122/1/3 123/1/3
f 123/1/3 122/1/3 124/1/3
f 125/1/3 126/1/3 127/1/3
f 127/1/3 126/1/3 128/1/3
f 129/1/3 130/1/3 131/1/3
f 131/1/3 130/1/3 132/1/3
f 133/1/3 134/1/3 135/1/3
f 135/1/3 134/1/3 136/1/3
f 137/1/3 138/1/3 139/1/3
f 139/1/3 138/1/3 140/1/3
f 141/1/3 142/1/3 143/1/3
f 143/1/3 142/1/3 144/1/3
f 145/1/3 146/1/3 147/1/3
f 147/1/3 146/1/3 148/1/3
f 149/1/3 150/1/3 151/1/3
f 151/1/3 150/1/3 152/1/3
f 153/1/3 154/1/3 155/1/3
f 155/1/3 154/1/3 156/1/3
f 159/1/4 158/1/4 157/1/4
f 160/1/4 158/1/4 159/1/4
f 163/1/4 162/1/4 161/1/4
f 164/1/4 162/1/4 163/1/4
f 167/1/4 166/1/4 165/1/4
f 168/1/4 166/1/4 167/1/4
f 171/1/4 170/1/4 169/1/4
f 172/1/4 170/1/4 171/1/4
f 175/1/4 174/1/4 173/1/4
f 176/1/4 174/1/4 175/1/4
f 179/1/4 178/1/4 177/1/4
f 180/1/4 178/1/4 179/1/4
f 183/1/4 182/1/4 181/1/4
f 184/1/4 182/1/4 183/1/4
f 187/1/4 186/1/4 185/1/4
f 188/1/4 186/1/4 187/1/4
f 191/1/4 190/1/4 189/1/4
f 192/1/4 190/1/4 191/1/4
f 195/1/4 194/1/4 193/1/4
f 196/1/4 194/1/4 195/1/4
f 199/1/4 198/1/4 197/1/4
f 200/1/4 198/1/4 199/1/4
f 203/1/4 202/1/4 201/1/4
f 204/1/4 202/1/4 203/1/4
f 207/1/4 206/1/4 205/1/4
f 208/1/4 206/1/4 207/1/4
f 209/1/5 210/1/5 212/1/5
f 212/1/5 210/1/5 213/1/5
f 211/1/5 212/1/5 216/1/5
f 212/3/5 213/3/5 217/3/5
f 216/1/5 212/1/5 217/1/5
f 213/1/5 214/1/5 218/1/5
f 217/3/5 213/3/5 218/3/5
f 218/1/5 214/1/5 219/1/5
f 215/1/5 216/1/5 222/1/5
f 216/3/5 217/3/5 223/3/5
f 217/3/5 218/3/5 223/3/5
f 222/1/5 216/1/5 223/1/5
f 218/3/5 219/3/5 223/3/5
f 223/3/5 219/3/5 224/3/5
f 219/1/5 220/1/5 225/1/5
f 224/3/5 219/3/5 225/3/5
f 225/1/5 220/1/5 226/1/5
f 221/1/5 222/1/5 229/1/5
f 222/3/5 223/3/5 230/3/5
f 229/1/5 222/1/5 230/1/5
f 226/1/5 227/1/5 231/1/5
f 224/3/5 225/3/5 231/3/5
f 225/3/5 226/3/5 231/3/5
f 231/1/5 227/1/5 232/1/5
f 228/1/5 229/1/5 235/1/5
f 229/3/5 230/3/5 236/3/5
f 235/1/5 229/1/5 236/1/5
f 232/1/5 233/1/5 237/1/5
f 231/3/5 232/3/5 237/3/5
f 237/1/5 233/1/5 238/1/5
f 234/1/5 235/1/5 241/1/5
f 235/3/5 236/3/5 242/3/5
f 241/1/5 235/1/5 242/1/5
f 224/3/5 231/3/5 243/3/5
f 231/3/5 237/3/5 243/3/5
f 237/3/5 238/3/5 243/3/5
f 243/3/5 238/3/5 244/3/5
f 238/1/5 239/1/5 245/1/5
f 244/3/5 238/3/5 245/3/5
f 245/1/5 239/1/5 246/1/5
f 240/1/5 241/1/5 248/1/5
f 241/3/5 242/3/5 249/3/5
f 248/1/5 241/1/5 249/1/5
f 242/3/5 236/3/5 250/3/5
f 249/3/5 242/3/5 250/3/5
f 223/2/5 224/2/5 251/2/5
f 224/3/5 243/3/5 251/3/5
f 243/2/5 244/2/5 252/2/5
f 251/3/5 243/3/5 252/3/5
f 244/3/5 245/3/5 253/3/5
f 252/2/5 244/2/5 253/2/5
f 245/3/5 246/3/5 253/3/5
f 253/3/5 246/3/5 254/3/5
f 254/3/5 246/3/5 255/3/5
f 246/1/5 247/1/5 256/1/5
f 255/3/5 246/3/5 256/3/5
f 256/1/5 247/1/5 257/1/5
f 249/1/5 250/1/5 258/1/5
f 250/3/5 236/3/5 259/3/5
f 258/1/5 250/1/5 259/1/5
f 236/3/5 230/3/5 260/3/5
f 259/3/5 236/3/5 260/3/5
f 230/3/5 223/3/5 261/3/5
f 260/3/5 230/3/5 261/3/5
f 223/2/5 251/2/5 261/2/5
f 253/2/5 254/2/5 261/2/5
f 252/2/5 253/2/5 261/2/5
f 251/2/5 252/2/5 261/2/5
f 261/2/5 254/2/5 262/2/5
f 262/2/5 254/2/5 263/2/5
f 254/3/5 255/3/5 264/3/5
f 263/2/5 254/2/5 264/2/5
f 264/3/5 255/3/5 265/3/5
f 255/1/5 256/1/5 266/1/5
f 265/3/5 255/3/5 266/3/5
f 266/1/5 256/1/5 267/1/5
f 259/1/5 260/1/5 268/1/5
f 260/3/5 261/3/5 269/3/5
f 268/1/5 260/1/5 269/1/5
f 261/3/5 262/3/5 269/3/5
f 269/3/5 262/3/5 270/3/5
f 262/2/5 263/2/5 271/2/5
f 270/3/5 262/3/5 271/3/5
f 271/2/5 263/2/5 272/2/5
f 272/2/5 263/2/5 273/2/5
f 264/3/5 265/3/5 274/3/5
f 273/2/5 263/2/5 274/2/5
f 263/3/5 264/3/5 274/3/5
f 274/3/5 265/3/5 275/3/5
f 265/1/5 266/1/5 276/1/5
f 275/3/5 265/3/5 276/3/5
f 276/1/5 266/1/5 277/1/5
f 269/1/5 270/1/5 278/1/5
f 271/3/5 272/3/5 279/3/5
f 278/1/5 270/1/5 279/1/5
f 270/3/5 271/3/5 279/3/5
f 279/3/5 272/3/5 280/3/5
f 272/2/5 273/2/5 281/2/5
f 280/3/5 272/3/5 281/3/5
f 274/3/5 275/3/5 282/3/5
f 281/2/5 273/2/5 282/2/5
f 273/3/5 274/3/5 282/3/5
f 282/3/5 275/3/5 283/3/5
f 275/1/5 276/1/5 284/1/5
f 283/3/5 275/3/5 284/3/5
f 284/1/5 276/1/5 285/1/5
f 279/1/5 280/1/5 286/1/5
f 280/3/5 281/3/5 287/3/5
f 286/1/5 280/1/5 287/1/5
f 282/3/5 283/3/5 287/3/5
f 281/3/5 282/3/5 287/3/5
f 287/3/5 283/3/5 288/3/5
f 288/3/5 283/3/5 289/3/5
f 283/1/5 284/1/5 290/1/5
f 289/3/5 283/3/5 290/3/5
f 290/1/5 284/1/5 291/1/5
f 287/1/5 288/1/5 292/1/5
f 288/3/5 289/3/5 293/3/5
f 292/1/5 288/1/5 293/1/5
f 289/1/5 290/1/5 294/1/5
f 293/3/5 289/3/5 294/3/5
f 294/1/5 290/1/5 295/1/5
f 293/1/5 294/1/5 296/1/5
f 296/1/5 294/1/5 297/1/5
f 301/1/6 299/1/6 298/1/6
f 302/1/6 299/1/6 301/1/6
f 305/1/6 301/1/6 300/1/6
f 306/3/6 302/3/6 301/3/6
f 306/1/6 301/1/6 305/1/6
f 307/1/6 303/1/6 302/1/6
f 307/3/6 302/3/6 306/3/6
f 308/1/6 303/1/6 307/1/6
f 311/1/6 305/1/6 304/1/6
f 312/3/6 306/3/6 305/3/6
f 312/3/6 307/3/6 306/3/6
f 312/1/6 305/1/6 311/1/6
f 312/3/6 308/3/6 307/3/6
f 313/3/6 308/3/6 312/3/6
f 314/1/6 309/1/6 308/1/6
f 314/3/6 308/3/6 313/3/6
f 315/1/6 309/1/6 314/1/6
f 318/1/6 311/1/6 310/1/6
f 319/3/6 312/3/6 311/3/6
f 319/1/6 311/1/6 318/1/6
f 320/1/6 316/1/6 315/1/6
f 320/3/6 314/3/6 313/3/6
f 320/3/6 315/3/6 314/3/6
f 321/1/6 316/1/6 320/1/6
f 324/1/6 318/1/6 317/1/6
f 325/3/6 319/3/6 318/3/6
f 325/1/6 318/1/6 324/1/6
f 326/1/6 322/1/6 321/1/6
f 326/3/6 321/3/6 320/3/6
f 327/1/6 322/1/6 326/1/6
f 330/1/6 324/1/6 323/1/6
f 331/3/6 325/3/6 324/3/6
f 331/1/6 324/1/6 330/1/6
f 332/3/6 320/3/6 313/3/6
f 332/3/6 326/3/6 320/3/6
f 332/3/6 327/3/6 326/3/6
f 333/3/6 327/3/6 332/3/6
f 334/1/6 328/1/6 327/1/6
f 334/3/6 327/3/6 333/3/6
f 335/1/6 328/1/6 334/1/6
f 337/1/6 330/1/6 329/1/6
f 338/3/6 331/3/6 330/3/6
f 338/1/6 330/1/6 337/1/6
f 339/3/6 325/3/6 331/3/6
f 339/3/6 331/3/6 338/3/6
f 340/2/6 313/2/6 312/2/6
f 340/3/6 332/3/6 313/3/6
f 341/2/6 333/2/6 332/2/6
f 341/3/6 332/3/6 340/3/6
f 342/3/6 334/3/6 333/3/6
f 342/2/6 333/2/6 341/2/6
f 342/3/6 335/3/6 334/3/6
f 343/3/6 335/3/6 342/3/6
f 344/3/6 335/3/6 343/3/6
f 345/1/6 336/1/6 335/1/6
f 345/3/6 335/3/6 344/3/6
f 346/1/6 336/1/6 345/1/6
f 347/1/6 339/1/6 338/1/6
f 348/3/6 325/3/6 339/3/6
f 348/1/6 339/1/6 347/1/6
f 349/3/6 319/3/6 325/3/6
f 349/3/6 325/3/6 348/3/6
f 350/3/6 312/3/6 319/3/6
f 350/3/6 319/3/6 349/3/6
f 350/2/6 340/2/6 312/2/6
f 350/2/6 343/2/6 342/2/6
f 350/2/6 342/2/6 341/2/6
f 350/2/6 341/2/6 340/2/6
f 351/2/6 343/2/6 350/2/6
f 352/2/6 343/2/6 351/2/6
f 353/3/6 344/3/6 343/3/6
f 353/2/6 343/2/6 352/2/6
f 354/3/6 344/3/6 353/3/6
f 355/1/6 345/1/6 344/1/6
f 355/3/6 344/3/6 354/3/6
f 356/1/6 345/1/6 355/1/6
f 357/1/6 349/1/6 348/1/6
f 358/3/6 350/3/6 349/3/6
f 358/1/6 349/1/6 357/1/6
f 358/3/6 351/3/6 350/3/6
f 359/3/6 351/3/6 358/3/6
f 360/2/6 352/2/6 351/2/6
f 360/3/6 351/3/6 359/3/6
f 361/2/6 352/2/6 360/2/6
f 362/2/6 352/2/6 361/2/6
f 363/3/6 354/3/6 353/3/6
f 363/2/6 352/2/6 362/2/6
f 363/3/6 353/3/6 352/3/6
f 364/3/6 354/3/6 363/3/6
f 365/1/6 355/1/6 354/1/6
f 365/3/6 354/3/6 364/3/6
f 366/1/6 355/1/6 365/1/6
f 367/1/6 359/1/6 358/1/6
f 368/3/6 361/3/6 360/3/6
f 368/1/6 359/1/6 367/1/6
f 368/3/6 360/3/6 359/3/6
f 369/3/6 361/3/6 368/3/6
f 370/2/6 362/2/6 361/2/6
f 370/3/6 361/3/6 369/3/6
f 371/3/6 364/3/6 363/3/6
f 371/2/6 362/2/6 370/2/6
f 371/3/6 363/3/6 362/3/6
f 372/3/6 364/3/6 371/3/6
f 373/1/6 365/1/6 364/1/6
f 373/3/6 364/3/6 372/3/6
f 374/1/6 365/1/6 373/1/6
f 375/1/6 369/1/6 368/1/6
f 376/3/6 370/3/6 369/3/6
f 376/1/6 369/1/6 375/1/6
f 376/3/6 372/3/6 371/3/6
f 376/3/6 371/3/6 370/3/6
f 377/3/6 372/3/6 376/3/6
f 378/3/6 372/3/6 377/3/6
f 379/1/6 373/1/6 372/1/6
f 379/3/6 372/3/6 378/3/6
f 380/1/6 373/1/6 379/1/6
f 381/1/6 377/1/6 376/1/6
f 382/3/6 378/3/6 377/3/6
f 382/1/6 377/1/6 381/1/6
f 383/1/6 379/1/6 378/1/6
f 383/3/6 378/3/6 382/3/6
f 384/1/6 379/1/6 383/1/6
f 385/1/6 383/1/6 382/1/6
f 386/1/6 383/1/6 385/1/6
