# MagicaVoxel @ Ephtracy

# group
o 

# material
mtllib playerCar.mtl
usemtl palette

# normals
vn -1 0 0
vn 1 0 0
vn 0 0 1
vn 0 0 -1
vn 0 -1 0
vn 0 1 0

# texcoords
vt 0.158203 0.5
vt 0.798828 0.5
vt 0.841797 0.5
vt 0.845703 0.5
vt 0.900391 0.5
vt 0.955078 0.5
vt 0.958984 0.5
vt 0.982422 0.5
vt 0.994141 0.5

# verts
v -0.4 -0.2 0.7
v -0.4 -0.2 0.6
v -0.4 -0.1 0.7
v -0.4 -0.1 0.6
v -0.4 -0.1 0.1
v -0.4 -0.1 -0.1
v -0.4 -0.1 -0.8
v -0.4 0 0.7
v -0.4 0 0.6
v -0.4 0 0.3
v -0.4 0 0.1
v -0.4 0 -0.1
v -0.4 0 -0.4
v -0.4 0.1 0.6
v -0.4 0.1 0.3
v -0.4 0.1 -0.4
v -0.4 0.1 -0.6
v -0.4 0.1 -0.8
v -0.4 0.2 -0.6
v -0.4 0.2 -0.8
v -0.3 -0.2 0.6
v -0.3 -0.2 -0.6
v -0.3 -0.2 -0.8
v -0.3 -0.1 0.6
v -0.3 -0.1 0.1
v -0.3 -0.1 -0.1
v -0.3 -0.1 -0.6
v -0.3 -0.1 -0.8
v -0.3 0 0.7
v -0.3 0 0.6
v -0.3 0 0.3
v -0.3 0 0.2
v -0.3 0 0.1
v -0.3 0 -0.1
v -0.3 0 -0.2
v -0.3 0 -0.4
v -0.3 0.1 0.7
v -0.3 0.1 0.6
v -0.3 0.1 0.4
v -0.3 0.1 0.3
v -0.3 0.1 0.2
v -0.3 0.1 -0.2
v -0.3 0.1 -0.4
v -0.3 0.1 -0.6
v -0.3 0.2 0.4
v -0.3 0.2 0.3
v -0.3 0.2 0.2
v -0.3 0.2 -0.4
v -0.3 0.2 -0.6
v -0.2 -0.2 0.8
v -0.2 -0.2 0.7
v -0.2 -0.1 0.8
v -0.2 -0.1 0.7
v -0.2 0 0.8
v -0.2 0 0.7
v -0.2 0.1 0.5
v -0.2 0.1 0.4
v -0.2 0.1 0.2
v -0.2 0.1 -0.2
v -0.2 0.1 -0.4
v -0.2 0.2 0.5
v -0.2 0.2 0.4
v -0.2 0.2 0.2
v -0.2 0.2 -0.2
v -0.2 0.2 -0.4
v 0.1 0 0.7
v 0.1 0 0.6
v 0.1 0.1 0.7
v 0.1 0.1 0.6
v -0.2 0 0.7
v -0.2 0 0.6
v -0.2 0.1 0.7
v -0.2 0.1 0.6
v 0.2 -0.2 0.8
v 0.2 -0.2 0.7
v 0.2 -0.1 0.8
v 0.2 -0.1 0.7
v 0.2 0 0.8
v 0.2 0 0.7
v 0.2 0.1 0.5
v 0.2 0.1 0.4
v 0.2 0.1 0.2
v 0.2 0.1 -0.2
v 0.2 0.1 -0.4
v 0.2 0.2 0.5
v 0.2 0.2 0.4
v 0.2 0.2 0.2
v 0.2 0.2 -0.2
v 0.2 0.2 -0.4
v 0.3 -0.2 0.6
v 0.3 -0.2 -0.6
v 0.3 -0.2 -0.8
v 0.3 -0.1 0.6
v 0.3 -0.1 0.1
v 0.3 -0.1 -0.1
v 0.3 -0.1 -0.6
v 0.3 -0.1 -0.8
v 0.3 0 0.7
v 0.3 0 0.6
v 0.3 0 0.3
v 0.3 0 0.2
v 0.3 0 0.1
v 0.3 0 -0.1
v 0.3 0 -0.2
v 0.3 0 -0.4
v 0.3 0.1 0.7
v 0.3 0.1 0.6
v 0.3 0.1 0.4
v 0.3 0.1 0.3
v 0.3 0.1 0.2
v 0.3 0.1 -0.2
v 0.3 0.1 -0.4
v 0.3 0.1 -0.6
v 0.3 0.2 0.4
v 0.3 0.2 0.3
v 0.3 0.2 0.2
v 0.3 0.2 -0.4
v 0.3 0.2 -0.6
v 0.4 -0.2 0.7
v 0.4 -0.2 0.6
v 0.4 -0.1 0.7
v 0.4 -0.1 0.6
v 0.4 -0.1 0.1
v 0.4 -0.1 -0.1
v 0.4 -0.1 -0.8
v 0.4 0 0.7
v 0.4 0 0.6
v 0.4 0 0.3
v 0.4 0 0.1
v 0.4 0 -0.1
v 0.4 0 -0.4
v 0.4 0.1 0.6
v 0.4 0.1 0.3
v 0.4 0.1 -0.4
v 0.4 0.1 -0.6
v 0.4 0.1 -0.8
v 0.4 0.2 -0.6
v 0.4 0.2 -0.8
v -0.2 -0.2 0.8
v -0.2 -0.1 0.8
v -0.2 0 0.8
v -0.1 -0.1 0.8
v -0.1 0 0.8
v 0.1 -0.1 0.8
v 0.1 0 0.8
v 0.2 -0.2 0.8
v 0.2 -0.1 0.8
v 0.2 0 0.8
v -0.4 -0.2 0.7
v -0.4 -0.1 0.7
v -0.4 0 0.7
v -0.3 -0.2 0.7
v -0.3 -0.1 0.7
v -0.3 0 0.7
v -0.3 0.1 0.7
v -0.2 -0.2 0.7
v -0.2 -0.1 0.7
v -0.2 0 0.7
v -0.2 0.1 0.7
v 0.1 0 0.7
v 0.1 0.1 0.7
v 0.2 -0.2 0.7
v 0.2 -0.1 0.7
v 0.2 0 0.7
v 0.3 -0.2 0.7
v 0.3 -0.1 0.7
v 0.3 0 0.7
v 0.3 0.1 0.7
v 0.4 -0.2 0.7
v 0.4 -0.1 0.7
v 0.4 0 0.7
v -0.4 0 0.6
v -0.4 0.1 0.6
v -0.3 0 0.6
v -0.3 0.1 0.6
v -0.2 0 0.6
v -0.2 0.1 0.6
v -0.1 0 0.6
v 0.1 0 0.6
v 0.1 0.1 0.6
v 0.3 0 0.6
v 0.3 0.1 0.6
v 0.4 0 0.6
v 0.4 0.1 0.6
v -0.2 0.1 0.5
v -0.2 0.2 0.5
v 0.2 0.1 0.5
v 0.2 0.2 0.5
v -0.3 0.1 0.4
v -0.3 0.2 0.4
v -0.2 0.1 0.4
v -0.2 0.2 0.4
v 0.2 0.1 0.4
v 0.2 0.2 0.4
v 0.3 0.1 0.4
v 0.3 0.2 0.4
v -0.4 0 -0.4
v -0.4 0.1 -0.4
v -0.3 0 -0.4
v -0.3 0.1 -0.4
v -0.3 0.2 -0.4
v -0.2 0.1 -0.4
v -0.2 0.2 -0.4
v 0.2 0.1 -0.4
v 0.2 0.2 -0.4
v 0.3 0 -0.4
v 0.3 0.1 -0.4
v 0.3 0.2 -0.4
v 0.4 0 -0.4
v 0.4 0.1 -0.4
v -0.4 0.1 -0.6
v -0.4 0.2 -0.6
v -0.3 0.1 -0.6
v -0.3 0.2 -0.6
v 0.3 0.1 -0.6
v 0.3 0.2 -0.6
v 0.4 0.1 -0.6
v 0.4 0.2 -0.6
v -0.4 -0.2 0.6
v -0.4 -0.1 0.6
v -0.3 -0.2 0.6
v -0.3 -0.1 0.6
v 0.3 -0.2 0.6
v 0.3 -0.1 0.6
v 0.4 -0.2 0.6
v 0.4 -0.1 0.6
v -0.4 0 0.3
v -0.4 0.1 0.3
v -0.3 0 0.3
v -0.3 0.1 0.3
v 0.3 0 0.3
v 0.3 0.1 0.3
v 0.4 0 0.3
v 0.4 0.1 0.3
v -0.3 0.1 0.2
v -0.3 0.2 0.2
v -0.2 0.1 0.2
v -0.2 0.2 0.2
v 0.2 0.1 0.2
v 0.2 0.2 0.2
v 0.3 0.1 0.2
v 0.3 0.2 0.2
v -0.4 -0.1 -0.8
v -0.4 0.1 -0.8
v -0.4 0.2 -0.8
v -0.3 -0.2 -0.8
v -0.3 -0.1 -0.8
v -0.3 0.1 -0.8
v -0.3 0.2 -0.8
v -0.2 -0.2 -0.8
v -0.2 -0.1 -0.8
v -0.2 0.1 -0.8
v -0.2 0.2 -0.8
v -0.1 -0.1 -0.8
v -0.1 0 -0.8
v -0.1 0.1 -0.8
v -0.1 0.2 -0.8
v 0.1 -0.1 -0.8
v 0.1 0 -0.8
v 0.1 0.1 -0.8
v 0.1 0.2 -0.8
v 0.2 -0.2 -0.8
v 0.2 -0.1 -0.8
v 0.2 0.1 -0.8
v 0.2 0.2 -0.8
v 0.3 -0.2 -0.8
v 0.3 -0.1 -0.8
v 0.3 0.1 -0.8
v 0.3 0.2 -0.8
v 0.4 -0.1 -0.8
v 0.4 0.1 -0.8
v 0.4 0.2 -0.8
v -0.2 -0.2 0.8
v 0.2 -0.2 0.8
v -0.4 -0.2 0.7
v -0.3 -0.2 0.7
v -0.2 -0.2 0.7
v 0.2 -0.2 0.7
v 0.3 -0.2 0.7
v 0.4 -0.2 0.7
v -0.4 -0.2 0.6
v -0.3 -0.2 0.6
v -0.2 -0.2 0.6
v 0.2 -0.2 0.6
v 0.3 -0.2 0.6
v 0.4 -0.2 0.6
v -0.3 -0.2 -0.6
v -0.2 -0.2 -0.6
v 0.2 -0.2 -0.6
v 0.3 -0.2 -0.6
v -0.2 -0.2 -0.7
v 0.2 -0.2 -0.7
v -0.3 -0.2 -0.8
v -0.2 -0.2 -0.8
v 0.2 -0.2 -0.8
v 0.3 -0.2 -0.8
v -0.4 -0.1 0.6
v -0.3 -0.1 0.6
v 0.3 -0.1 0.6
v 0.4 -0.1 0.6
v -0.4 -0.1 0.1
v -0.3 -0.1 0.1
v 0.3 -0.1 0.1
v 0.4 -0.1 0.1
v -0.4 -0.1 -0.1
v -0.3 -0.1 -0.1
v 0.3 -0.1 -0.1
v 0.4 -0.1 -0.1
v -0.3 -0.1 -0.6
v 0.3 -0.1 -0.6
v -0.4 -0.1 -0.8
v -0.3 -0.1 -0.8
v 0.3 -0.1 -0.8
v 0.4 -0.1 -0.8
v -0.2 0 0.8
v -0.1 0 0.8
v 0.1 0 0.8
v 0.2 0 0.8
v -0.4 0 0.7
v -0.3 0 0.7
v -0.2 0 0.7
v -0.1 0 0.7
v 0.1 0 0.7
v 0.2 0 0.7
v 0.3 0 0.7
v 0.4 0 0.7
v -0.4 0 0.6
v -0.3 0 0.6
v -0.2 0 0.6
v -0.1 0 0.6
v 0.1 0 0.6
v 0.3 0 0.6
v 0.4 0 0.6
v -0.4 0 0.3
v -0.3 0 0.3
v 0.3 0 0.3
v 0.4 0 0.3
v -0.3 0 0.2
v 0.3 0 0.2
v -0.4 0 0.1
v -0.3 0 0.1
v 0.3 0 0.1
v 0.4 0 0.1
v -0.4 0 -0.1
v -0.3 0 -0.1
v 0.3 0 -0.1
v 0.4 0 -0.1
v -0.3 0 -0.2
v 0.3 0 -0.2
v -0.4 0 -0.4
v -0.3 0 -0.4
v 0.3 0 -0.4
v 0.4 0 -0.4
v -0.3 0.1 0.7
v -0.2 0.1 0.7
v 0.1 0.1 0.7
v 0.3 0.1 0.7
v -0.4 0.1 0.6
v -0.3 0.1 0.6
v -0.2 0.1 0.6
v 0.1 0.1 0.6
v 0.3 0.1 0.6
v 0.4 0.1 0.6
v -0.2 0.1 0.5
v 0.2 0.1 0.5
v -0.3 0.1 0.4
v -0.2 0.1 0.4
v 0.2 0.1 0.4
v 0.3 0.1 0.4
v -0.4 0.1 0.3
v -0.3 0.1 0.3
v 0.3 0.1 0.3
v 0.4 0.1 0.3
v -0.3 0.1 0.2
v -0.2 0.1 0.2
v 0.2 0.1 0.2
v 0.3 0.1 0.2
v -0.3 0.1 -0.2
v -0.2 0.1 -0.2
v 0.2 0.1 -0.2
v 0.3 0.1 -0.2
v -0.4 0.1 -0.4
v -0.3 0.1 -0.4
v -0.2 0.1 -0.4
v 0.2 0.1 -0.4
v 0.3 0.1 -0.4
v 0.4 0.1 -0.4
v -0.4 0.1 -0.6
v -0.3 0.1 -0.6
v 0.3 0.1 -0.6
v 0.4 0.1 -0.6
v -0.2 0.2 0.5
v 0.2 0.2 0.5
v -0.3 0.2 0.4
v -0.2 0.2 0.4
v 0.2 0.2 0.4
v 0.3 0.2 0.4
v -0.3 0.2 0.3
v 0.3 0.2 0.3
v -0.3 0.2 0.2
v -0.2 0.2 0.2
v -0.1 0.2 0.2
v 0.1 0.2 0.2
v 0.2 0.2 0.2
v 0.3 0.2 0.2
v -0.2 0.2 -0.2
v -0.1 0.2 -0.2
v 0.1 0.2 -0.2
v 0.2 0.2 -0.2
v -0.3 0.2 -0.4
v -0.2 0.2 -0.4
v 0.2 0.2 -0.4
v 0.3 0.2 -0.4
v -0.4 0.2 -0.6
v -0.3 0.2 -0.6
v 0.3 0.2 -0.6
v 0.4 0.2 -0.6
v -0.3 0.2 -0.7
v -0.2 0.2 -0.7
v -0.1 0.2 -0.7
v 0.1 0.2 -0.7
v 0.2 0.2 -0.7
v 0.3 0.2 -0.7
v -0.4 0.2 -0.8
v -0.3 0.2 -0.8
v -0.2 0.2 -0.8
v -0.1 0.2 -0.8
v 0.1 0.2 -0.8
v 0.2 0.2 -0.8
v 0.3 0.2 -0.8
v 0.4 0.2 -0.8

# faces
f 3/3/1 2/3/1 1/3/1
f 4/3/1 2/3/1 3/3/1
f 8/2/1 4/2/1 3/2/1
f 8/2/1 5/2/1 4/2/1
f 9/2/1 5/2/1 8/2/1
f 10/2/1 5/2/1 9/2/1
f 11/8/1 6/8/1 5/8/1
f 11/2/1 5/2/1 10/2/1
f 12/2/1 7/2/1 6/2/1
f 12/8/1 6/8/1 11/8/1
f 13/2/1 7/2/1 12/2/1
f 14/2/1 10/2/1 9/2/1
f 15/2/1 10/2/1 14/2/1
f 16/2/1 7/2/1 13/2/1
f 17/2/1 7/2/1 16/2/1
f 18/2/1 7/2/1 17/2/1
f 19/4/1 18/4/1 17/4/1
f 20/4/1 18/4/1 19/4/1
f 24/2/1 22/2/1 21/2/1
f 25/2/1 22/2/1 24/2/1
f 26/2/1 22/2/1 25/2/1
f 27/6/1 23/6/1 22/6/1
f 27/2/1 22/2/1 26/2/1
f 28/6/1 23/6/1 27/6/1
f 37/2/1 30/2/1 29/2/1
f 38/2/1 30/2/1 37/2/1
f 40/2/1 32/2/1 31/2/1
f 41/8/1 33/8/1 32/8/1
f 41/8/1 34/8/1 33/8/1
f 41/2/1 32/2/1 40/2/1
f 41/8/1 35/8/1 34/8/1
f 42/2/1 36/2/1 35/2/1
f 42/8/1 35/8/1 41/8/1
f 43/2/1 36/2/1 42/2/1
f 45/8/1 40/8/1 39/8/1
f 46/2/1 41/2/1 40/2/1
f 46/8/1 40/8/1 45/8/1
f 47/2/1 41/2/1 46/2/1
f 48/2/1 44/2/1 43/2/1
f 49/2/1 44/2/1 48/2/1
f 52/2/1 51/2/1 50/2/1
f 53/2/1 51/2/1 52/2/1
f 54/9/1 53/9/1 52/9/1
f 55/9/1 53/9/1 54/9/1
f 61/8/1 57/8/1 56/8/1
f 62/8/1 57/8/1 61/8/1
f 63/8/1 59/8/1 58/8/1
f 64/2/1 60/2/1 59/2/1
f 64/8/1 59/8/1 63/8/1
f 65/2/1 60/2/1 64/2/1
f 68/2/1 67/2/1 66/2/1
f 69/2/1 67/2/1 68/2/1
f 70/2/2 71/2/2 72/2/2
f 72/2/2 71/2/2 73/2/2
f 74/2/2 75/2/2 76/2/2
f 76/2/2 75/2/2 77/2/2
f 76/9/2 77/9/2 78/9/2
f 78/9/2 77/9/2 79/9/2
f 80/8/2 81/8/2 85/8/2
f 85/8/2 81/8/2 86/8/2
f 82/8/2 83/8/2 87/8/2
f 83/2/2 84/2/2 88/2/2
f 87/8/2 83/8/2 88/8/2
f 88/2/2 84/2/2 89/2/2
f 90/2/2 91/2/2 93/2/2
f 93/2/2 91/2/2 94/2/2
f 94/2/2 91/2/2 95/2/2
f 91/6/2 92/6/2 96/6/2
f 95/2/2 91/2/2 96/2/2
f 96/6/2 92/6/2 97/6/2
f 98/2/2 99/2/2 106/2/2
f 106/2/2 99/2/2 107/2/2
f 100/2/2 101/2/2 109/2/2
f 101/8/2 102/8/2 110/8/2
f 102/8/2 103/8/2 110/8/2
f 109/2/2 101/2/2 110/2/2
f 103/8/2 104/8/2 110/8/2
f 104/2/2 105/2/2 111/2/2
f 110/8/2 104/8/2 111/8/2
f 111/2/2 105/2/2 112/2/2
f 108/8/2 109/8/2 114/8/2
f 109/2/2 110/2/2 115/2/2
f 114/8/2 109/8/2 115/8/2
f 115/2/2 110/2/2 116/2/2
f 112/2/2 113/2/2 117/2/2
f 117/2/2 113/2/2 118/2/2
f 119/3/2 120/3/2 121/3/2
f 121/3/2 120/3/2 122/3/2
f 121/2/2 122/2/2 126/2/2
f 122/2/2 123/2/2 126/2/2
f 126/2/2 123/2/2 127/2/2
f 127/2/2 123/2/2 128/2/2
f 123/8/2 124/8/2 129/8/2
f 128/2/2 123/2/2 129/2/2
f 124/2/2 125/2/2 130/2/2
f 129/8/2 124/8/2 130/8/2
f 130/2/2 125/2/2 131/2/2
f 127/2/2 128/2/2 132/2/2
f 132/2/2 128/2/2 133/2/2
f 131/2/2 125/2/2 134/2/2
f 134/2/2 125/2/2 135/2/2
f 135/2/2 125/2/2 136/2/2
f 135/3/2 136/3/2 137/3/2
f 137/3/2 136/3/2 138/3/2
f 142/2/3 140/2/3 139/2/3
f 142/9/3 141/9/3 140/9/3
f 143/9/3 141/9/3 142/9/3
f 144/2/3 142/2/3 139/2/3
f 144/7/3 143/7/3 142/7/3
f 145/7/3 143/7/3 144/7/3
f 146/2/3 144/2/3 139/2/3
f 147/9/3 145/9/3 144/9/3
f 147/2/3 144/2/3 146/2/3
f 148/9/3 145/9/3 147/9/3
f 152/3/3 150/3/3 149/3/3
f 153/2/3 151/2/3 150/2/3
f 153/3/3 150/3/3 152/3/3
f 154/2/3 151/2/3 153/2/3
f 156/1/3 153/1/3 152/1/3
f 157/2/3 155/2/3 154/2/3
f 157/1/3 153/1/3 156/1/3
f 157/2/3 154/2/3 153/2/3
f 158/2/3 155/2/3 157/2/3
f 159/2/3 155/2/3 158/2/3
f 164/2/3 161/2/3 160/2/3
f 165/1/3 163/1/3 162/1/3
f 166/2/3 164/2/3 163/2/3
f 166/1/3 163/1/3 165/1/3
f 167/2/3 161/2/3 164/2/3
f 167/2/3 164/2/3 166/2/3
f 168/2/3 161/2/3 167/2/3
f 169/3/3 166/3/3 165/3/3
f 170/2/3 167/2/3 166/2/3
f 170/3/3 166/3/3 169/3/3
f 171/2/3 167/2/3 170/2/3
f 174/2/3 173/2/3 172/2/3
f 175/2/3 173/2/3 174/2/3
f 178/2/3 177/2/3 176/2/3
f 179/2/3 177/2/3 178/2/3
f 180/2/3 177/2/3 179/2/3
f 183/2/3 182/2/3 181/2/3
f 184/2/3 182/2/3 183/2/3
f 187/8/3 186/8/3 185/8/3
f 188/8/3 186/8/3 187/8/3
f 191/8/3 190/8/3 189/8/3
f 192/8/3 190/8/3 191/8/3
f 195/8/3 194/8/3 193/8/3
f 196/8/3 194/8/3 195/8/3
f 199/2/3 198/2/3 197/2/3
f 200/2/3 198/2/3 199/2/3
f 202/2/3 201/2/3 200/2/3
f 203/2/3 201/2/3 202/2/3
f 207/2/3 205/2/3 204/2/3
f 208/2/3 205/2/3 207/2/3
f 209/2/3 207/2/3 206/2/3
f 210/2/3 207/2/3 209/2/3
f 213/4/3 212/4/3 211/4/3
f 214/4/3 212/4/3 213/4/3
f 217/3/3 216/3/3 215/3/3
f 218/3/3 216/3/3 217/3/3
f 219/3/4 220/3/4 221/3/4
f 221/3/4 220/3/4 222/3/4
f 223/3/4 224/3/4 225/3/4
f 225/3/4 224/3/4 226/3/4
f 227/2/4 228/2/4 229/2/4
f 229/2/4 228/2/4 230/2/4
f 231/2/4 232/2/4 233/2/4
f 233/2/4 232/2/4 234/2/4
f 235/2/4 236/2/4 237/2/4
f 237/2/4 236/2/4 238/2/4
f 239/2/4 240/2/4 241/2/4
f 241/2/4 240/2/4 242/2/4
f 243/2/4 244/2/4 247/2/4
f 244/4/4 245/4/4 248/4/4
f 247/2/4 244/2/4 248/2/4
f 248/4/4 245/4/4 249/4/4
f 246/6/4 247/6/4 250/6/4
f 247/2/4 248/2/4 251/2/4
f 250/6/4 247/6/4 251/6/4
f 248/1/4 249/1/4 252/1/4
f 251/2/4 248/2/4 252/2/4
f 252/1/4 249/1/4 253/1/4
f 250/7/4 251/7/4 254/7/4
f 251/2/4 252/2/4 254/2/4
f 252/2/4 253/2/4 254/2/4
f 254/2/4 253/2/4 255/2/4
f 255/2/4 253/2/4 256/2/4
f 256/2/4 253/2/4 257/2/4
f 250/7/4 254/7/4 258/7/4
f 254/7/4 255/7/4 258/7/4
f 255/2/4 256/2/4 259/2/4
f 258/7/4 255/7/4 259/7/4
f 256/5/4 257/5/4 260/5/4
f 259/2/4 256/2/4 260/2/4
f 260/5/4 257/5/4 261/5/4
f 250/7/4 258/7/4 262/7/4
f 258/2/4 259/2/4 263/2/4
f 262/7/4 258/7/4 263/7/4
f 259/2/4 260/2/4 263/2/4
f 260/2/4 261/2/4 263/2/4
f 263/2/4 261/2/4 264/2/4
f 264/2/4 261/2/4 265/2/4
f 262/6/4 263/6/4 266/6/4
f 263/2/4 264/2/4 267/2/4
f 266/6/4 263/6/4 267/6/4
f 264/1/4 265/1/4 268/1/4
f 267/2/4 264/2/4 268/2/4
f 268/1/4 265/1/4 269/1/4
f 267/2/4 268/2/4 270/2/4
f 268/3/4 269/3/4 271/3/4
f 270/2/4 268/2/4 271/2/4
f 271/3/4 269/3/4 272/3/4
f 277/2/5 274/2/5 273/2/5
f 278/2/5 274/2/5 277/2/5
f 281/3/5 276/3/5 275/3/5
f 282/1/5 277/1/5 276/1/5
f 282/3/5 276/3/5 281/3/5
f 283/2/5 278/2/5 277/2/5
f 283/1/5 277/1/5 282/1/5
f 284/1/5 279/1/5 278/1/5
f 284/2/5 278/2/5 283/2/5
f 285/3/5 280/3/5 279/3/5
f 285/1/5 279/1/5 284/1/5
f 286/3/5 280/3/5 285/3/5
f 287/2/5 284/2/5 283/2/5
f 287/2/5 285/2/5 284/2/5
f 287/2/5 283/2/5 282/2/5
f 288/2/5 285/2/5 287/2/5
f 289/2/5 285/2/5 288/2/5
f 290/2/5 285/2/5 289/2/5
f 291/6/5 288/6/5 287/6/5
f 291/2/5 289/2/5 288/2/5
f 292/6/5 290/6/5 289/6/5
f 292/2/5 289/2/5 291/2/5
f 293/6/5 291/6/5 287/6/5
f 294/7/5 292/7/5 291/7/5
f 294/6/5 291/6/5 293/6/5
f 295/6/5 290/6/5 292/6/5
f 295/7/5 292/7/5 294/7/5
f 296/6/5 290/6/5 295/6/5
f 301/2/5 298/2/5 297/2/5
f 302/2/5 298/2/5 301/2/5
f 303/2/5 300/2/5 299/2/5
f 304/2/5 300/2/5 303/2/5
f 305/8/5 302/8/5 301/8/5
f 306/8/5 302/8/5 305/8/5
f 307/8/5 304/8/5 303/8/5
f 308/8/5 304/8/5 307/8/5
f 309/2/5 306/2/5 305/2/5
f 310/2/5 308/2/5 307/2/5
f 311/2/5 309/2/5 305/2/5
f 312/2/5 309/2/5 311/2/5
f 313/2/5 308/2/5 310/2/5
f 314/2/5 308/2/5 313/2/5
f 315/9/6 316/9/6 321/9/6
f 316/7/6 317/7/6 322/7/6
f 321/9/6 316/9/6 322/9/6
f 317/9/6 318/9/6 323/9/6
f 322/7/6 317/7/6 323/7/6
f 323/9/6 318/9/6 324/9/6
f 319/2/6 320/2/6 327/2/6
f 327/2/6 320/2/6 328/2/6
f 321/2/6 322/2/6 329/2/6
f 322/7/6 323/7/6 330/7/6
f 329/2/6 322/2/6 330/2/6
f 330/7/6 323/7/6 331/7/6
f 325/2/6 326/2/6 332/2/6
f 332/2/6 326/2/6 333/2/6
f 334/2/6 335/2/6 338/2/6
f 336/2/6 337/2/6 339/2/6
f 334/2/6 338/2/6 340/2/6
f 340/2/6 338/2/6 341/2/6
f 339/2/6 337/2/6 342/2/6
f 342/2/6 337/2/6 343/2/6
f 340/8/6 341/8/6 344/8/6
f 344/8/6 341/8/6 345/8/6
f 342/8/6 343/8/6 346/8/6
f 346/8/6 343/8/6 347/8/6
f 344/2/6 345/2/6 348/2/6
f 346/2/6 347/2/6 349/2/6
f 344/2/6 348/2/6 350/2/6
f 350/2/6 348/2/6 351/2/6
f 349/2/6 347/2/6 352/2/6
f 352/2/6 347/2/6 353/2/6
f 354/2/6 355/2/6 359/2/6
f 359/2/6 355/2/6 360/2/6
f 356/2/6 357/2/6 361/2/6
f 361/2/6 357/2/6 362/2/6
f 359/2/6 360/2/6 364/2/6
f 362/2/6 363/2/6 364/2/6
f 361/2/6 362/2/6 364/2/6
f 360/2/6 361/2/6 364/2/6
f 358/2/6 359/2/6 364/2/6
f 364/2/6 363/2/6 365/2/6
f 358/2/6 364/2/6 366/2/6
f 366/2/6 364/2/6 367/2/6
f 365/2/6 363/2/6 368/2/6
f 368/2/6 363/2/6 369/2/6
f 358/2/6 366/2/6 370/2/6
f 370/2/6 366/2/6 371/2/6
f 369/2/6 363/2/6 372/2/6
f 372/2/6 363/2/6 373/2/6
f 374/8/6 375/8/6 378/8/6
f 378/8/6 375/8/6 379/8/6
f 376/8/6 377/8/6 380/8/6
f 380/8/6 377/8/6 381/8/6
f 378/2/6 379/2/6 383/2/6
f 383/2/6 379/2/6 384/2/6
f 380/2/6 381/2/6 385/2/6
f 385/2/6 381/2/6 386/2/6
f 382/2/6 383/2/6 388/2/6
f 388/2/6 383/2/6 389/2/6
f 386/2/6 387/2/6 390/2/6
f 390/2/6 387/2/6 391/2/6
f 392/8/6 393/8/6 395/8/6
f 395/8/6 393/8/6 396/8/6
f 394/8/6 395/8/6 398/8/6
f 396/8/6 397/8/6 398/8/6
f 395/8/6 396/8/6 398/8/6
f 398/8/6 397/8/6 399/8/6
f 398/2/6 399/2/6 400/2/6
f 400/2/6 399/2/6 401/2/6
f 401/2/6 399/2/6 402/2/6
f 402/2/6 399/2/6 403/2/6
f 403/2/6 399/2/6 404/2/6
f 404/2/6 399/2/6 405/2/6
f 401/8/6 402/8/6 406/8/6
f 402/2/6 403/2/6 407/2/6
f 406/8/6 402/8/6 407/8/6
f 403/8/6 404/8/6 408/8/6
f 407/2/6 403/2/6 408/2/6
f 408/8/6 404/8/6 409/8/6
f 406/2/6 407/2/6 411/2/6
f 407/2/6 408/2/6 411/2/6
f 408/2/6 409/2/6 411/2/6
f 411/2/6 409/2/6 412/2/6
f 411/2/6 412/2/6 415/2/6
f 412/2/6 413/2/6 415/2/6
f 410/2/6 411/2/6 415/2/6
f 415/2/6 413/2/6 416/2/6
f 415/2/6 416/2/6 418/2/6
f 414/4/6 415/4/6 418/4/6
f 418/2/6 416/2/6 419/2/6
f 419/2/6 416/2/6 420/2/6
f 420/2/6 416/2/6 421/2/6
f 421/2/6 416/2/6 422/2/6
f 416/3/6 417/3/6 423/3/6
f 422/2/6 416/2/6 423/2/6
f 414/4/6 418/4/6 424/4/6
f 418/1/6 419/1/6 425/1/6
f 424/4/6 418/4/6 425/4/6
f 419/2/6 420/2/6 426/2/6
f 425/1/6 419/1/6 426/1/6
f 420/5/6 421/5/6 427/5/6
f 426/2/6 420/2/6 427/2/6
f 421/2/6 422/2/6 428/2/6
f 427/5/6 421/5/6 428/5/6
f 422/1/6 423/1/6 429/1/6
f 428/2/6 422/2/6 429/2/6
f 423/3/6 417/3/6 430/3/6
f 429/1/6 423/1/6 430/1/6
f 430/3/6 417/3/6 431/3/6
