# MagicaVoxel @ Ephtracy

# group
o 

# material
mtllib playerCar1Body.mtl
usemtl palette

# normals
vn -1 0 0
vn 1 0 0
vn 0 0 1
vn 0 0 -1
vn 0 -1 0
vn 0 1 0

# texcoords
vt 0.798828 0.5
vt 0.958984 0.5
vt 0.982422 0.5
vt 0.990234 0.5

# verts
v -0.4 -0.1 0.1
v -0.4 -0.1 -0.1
v -0.4 -0.1 -0.2
v -0.4 0 0.1
v -0.4 0 -0.1
v -0.4 0 -0.2
v -0.3 -0.2 0.5
v -0.3 -0.2 0.2
v -0.3 -0.2 -0.4
v -0.3 -0.2 -0.7
v -0.3 -0.1 0.1
v -0.3 -0.1 -0.1
v -0.3 -0.1 -0.2
v -0.3 -0.1 -0.4
v -0.3 0 0.5
v -0.3 0 0.4
v -0.3 0 0.3
v -0.3 0 0.2
v -0.3 0 0.1
v -0.3 0 -0.1
v -0.3 0 -0.2
v -0.3 0 -0.4
v -0.3 0 -0.6
v -0.3 0 -0.7
v -0.3 0.1 0.4
v -0.3 0.1 0.3
v -0.3 0.1 0.2
v -0.3 0.1 -0.2
v -0.3 0.1 -0.4
v -0.3 0.1 -0.6
v -0.3 0.2 0.4
v -0.3 0.2 0.3
v -0.3 0.2 0.2
v -0.2 0 0.5
v -0.2 0 0.4
v -0.2 0 -0.2
v -0.2 0 -0.4
v -0.2 0.1 0.5
v -0.2 0.1 0.4
v -0.2 0.1 0.2
v -0.2 0.1 -0.2
v -0.2 0.1 -0.4
v -0.2 0.2 0.5
v -0.2 0.2 0.4
v -0.2 0.2 0.2
v -0.2 0.2 -0.2
v -0.1 -0.1 0.6
v -0.1 -0.1 0.5
v -0.1 0 0.6
v -0.1 0 0.5
v 0.1 -0.1 0.6
v 0.1 -0.1 0.5
v 0.1 0 0.6
v 0.1 0 0.5
v 0.2 0 0.5
v 0.2 0 0.4
v 0.2 0 -0.2
v 0.2 0 -0.4
v 0.2 0.1 0.5
v 0.2 0.1 0.4
v 0.2 0.1 0.2
v 0.2 0.1 -0.2
v 0.2 0.1 -0.4
v 0.2 0.2 0.5
v 0.2 0.2 0.4
v 0.2 0.2 0.2
v 0.2 0.2 -0.2
v 0.3 -0.2 0.5
v 0.3 -0.2 0.2
v 0.3 -0.2 -0.4
v 0.3 -0.2 -0.7
v 0.3 -0.1 0.2
v 0.3 -0.1 0.1
v 0.3 -0.1 -0.1
v 0.3 -0.1 -0.2
v 0.3 -0.1 -0.4
v 0.3 0 0.5
v 0.3 0 0.4
v 0.3 0 0.3
v 0.3 0 0.2
v 0.3 0 0.1
v 0.3 0 -0.1
v 0.3 0 -0.2
v 0.3 0 -0.4
v 0.3 0 -0.6
v 0.3 0 -0.7
v 0.3 0.1 0.4
v 0.3 0.1 0.3
v 0.3 0.1 0.2
v 0.3 0.1 -0.2
v 0.3 0.1 -0.4
v 0.3 0.1 -0.6
v 0.3 0.2 0.4
v 0.3 0.2 0.3
v 0.3 0.2 0.2
v 0.4 -0.1 0.2
v 0.4 -0.1 0.1
v 0.4 -0.1 -0.1
v 0.4 -0.1 -0.2
v 0.4 0 0.2
v 0.4 0 0.1
v 0.4 0 -0.1
v 0.4 0 -0.2
v -0.1 -0.1 0.6
v -0.1 0 0.6
v 0.1 -0.1 0.6
v 0.1 0 0.6
v -0.3 -0.2 0.5
v -0.3 0 0.5
v -0.2 0 0.5
v -0.2 0.1 0.5
v -0.2 0.2 0.5
v -0.1 -0.1 0.5
v -0.1 0 0.5
v 0.1 -0.1 0.5
v 0.1 0 0.5
v 0.2 0 0.5
v 0.2 0.1 0.5
v 0.2 0.2 0.5
v 0.3 -0.2 0.5
v 0.3 0 0.5
v -0.3 0 0.4
v -0.3 0.1 0.4
v -0.3 0.2 0.4
v -0.2 0 0.4
v -0.2 0.1 0.4
v -0.2 0.2 0.4
v 0.2 0 0.4
v 0.2 0.1 0.4
v 0.2 0.2 0.4
v 0.3 0 0.4
v 0.3 0.1 0.4
v 0.3 0.2 0.4
v 0.3 -0.1 0.2
v 0.3 0 0.2
v 0.4 -0.1 0.2
v 0.4 0 0.2
v -0.4 -0.1 0.1
v -0.4 0 0.1
v -0.3 -0.1 0.1
v -0.3 0 0.1
v -0.3 0 -0.4
v -0.3 0.1 -0.4
v -0.2 0 -0.4
v -0.2 0.1 -0.4
v 0.2 0 -0.4
v 0.2 0.1 -0.4
v 0.3 0 -0.4
v 0.3 0.1 -0.4
v -0.3 0.1 0.2
v -0.3 0.2 0.2
v -0.2 0.1 0.2
v -0.2 0.2 0.2
v 0.2 0.1 0.2
v 0.2 0.2 0.2
v 0.3 0.1 0.2
v 0.3 0.2 0.2
v -0.4 -0.1 -0.2
v -0.4 0 -0.2
v -0.3 -0.1 -0.2
v -0.3 0 -0.2
v -0.3 0.1 -0.2
v -0.2 0 -0.2
v -0.2 0.1 -0.2
v -0.2 0.2 -0.2
v -0.1 0.1 -0.2
v -0.1 0.2 -0.2
v 0.1 0.1 -0.2
v 0.1 0.2 -0.2
v 0.2 0 -0.2
v 0.2 0.1 -0.2
v 0.2 0.2 -0.2
v 0.3 -0.1 -0.2
v 0.3 0 -0.2
v 0.3 0.1 -0.2
v 0.4 -0.1 -0.2
v 0.4 0 -0.2
v -0.3 0 -0.6
v -0.3 0.1 -0.6
v 0.3 0 -0.6
v 0.3 0.1 -0.6
v -0.3 -0.2 -0.7
v -0.3 0 -0.7
v 0.3 -0.2 -0.7
v 0.3 0 -0.7
v -0.3 -0.2 0.5
v 0.3 -0.2 0.5
v -0.2 -0.2 0.4
v 0.2 -0.2 0.4
v -0.3 -0.2 0.2
v -0.2 -0.2 0.2
v 0.2 -0.2 0.2
v 0.3 -0.2 0.2
v -0.3 -0.2 -0.4
v -0.2 -0.2 -0.4
v 0.2 -0.2 -0.4
v 0.3 -0.2 -0.4
v -0.2 -0.2 -0.6
v 0.2 -0.2 -0.6
v -0.3 -0.2 -0.7
v 0.3 -0.2 -0.7
v -0.1 -0.1 0.6
v 0.1 -0.1 0.6
v -0.1 -0.1 0.5
v 0.1 -0.1 0.5
v 0.3 -0.1 0.2
v 0.4 -0.1 0.2
v -0.4 -0.1 0.1
v -0.3 -0.1 0.1
v 0.3 -0.1 0.1
v 0.4 -0.1 0.1
v -0.4 -0.1 -0.1
v -0.3 -0.1 -0.1
v 0.3 -0.1 -0.1
v 0.4 -0.1 -0.1
v -0.4 -0.1 -0.2
v -0.3 -0.1 -0.2
v 0.3 -0.1 -0.2
v 0.4 -0.1 -0.2
v -0.1 0 0.6
v 0.1 0 0.6
v -0.3 0 0.5
v -0.2 0 0.5
v -0.1 0 0.5
v 0.1 0 0.5
v 0.2 0 0.5
v 0.3 0 0.5
v -0.3 0 0.4
v -0.2 0 0.4
v 0.2 0 0.4
v 0.3 0 0.4
v 0.3 0 0.2
v 0.4 0 0.2
v -0.4 0 0.1
v -0.3 0 0.1
v 0.3 0 0.1
v 0.4 0 0.1
v -0.4 0 -0.1
v -0.3 0 -0.1
v 0.3 0 -0.1
v 0.4 0 -0.1
v -0.4 0 -0.2
v -0.3 0 -0.2
v -0.2 0 -0.2
v 0.2 0 -0.2
v 0.3 0 -0.2
v 0.4 0 -0.2
v -0.3 0 -0.4
v -0.2 0 -0.4
v 0.2 0 -0.4
v 0.3 0 -0.4
v -0.3 0 -0.6
v 0.3 0 -0.6
v -0.3 0 -0.7
v 0.3 0 -0.7
v -0.3 0.1 0.2
v -0.2 0.1 0.2
v 0.2 0.1 0.2
v 0.3 0.1 0.2
v -0.3 0.1 -0.2
v -0.2 0.1 -0.2
v -0.1 0.1 -0.2
v 0.1 0.1 -0.2
v 0.2 0.1 -0.2
v 0.3 0.1 -0.2
v -0.3 0.1 -0.4
v -0.2 0.1 -0.4
v -0.1 0.1 -0.4
v 0.1 0.1 -0.4
v 0.2 0.1 -0.4
v 0.3 0.1 -0.4
v -0.3 0.1 -0.6
v 0.3 0.1 -0.6
v -0.2 0.2 0.5
v 0.2 0.2 0.5
v -0.3 0.2 0.4
v -0.2 0.2 0.4
v 0.2 0.2 0.4
v 0.3 0.2 0.4
v -0.3 0.2 0.3
v 0.3 0.2 0.3
v -0.3 0.2 0.2
v -0.2 0.2 0.2
v -0.1 0.2 0.2
v 0.1 0.2 0.2
v 0.2 0.2 0.2
v 0.3 0.2 0.2
v -0.2 0.2 -0.2
v -0.1 0.2 -0.2
v 0.1 0.2 -0.2
v 0.2 0.2 -0.2

# faces
f 4/3/1 2/3/1 1/3/1
f 5/1/1 3/1/1 2/1/1
f 5/3/1 2/3/1 4/3/1
f 6/1/1 3/1/1 5/1/1
f 11/1/1 9/1/1 8/1/1
f 12/1/1 9/1/1 11/1/1
f 13/1/1 9/1/1 12/1/1
f 14/4/1 10/4/1 9/4/1
f 14/1/1 9/1/1 13/1/1
f 15/4/1 8/4/1 7/4/1
f 16/4/1 8/4/1 15/4/1
f 17/4/1 8/4/1 16/4/1
f 18/1/1 11/1/1 8/1/1
f 18/4/1 8/4/1 17/4/1
f 19/1/1 11/1/1 18/1/1
f 21/4/1 14/4/1 13/4/1
f 22/4/1 10/4/1 14/4/1
f 22/4/1 14/4/1 21/4/1
f 23/4/1 10/4/1 22/4/1
f 24/4/1 10/4/1 23/4/1
f 25/4/1 17/4/1 16/4/1
f 26/1/1 18/1/1 17/1/1
f 26/4/1 17/4/1 25/4/1
f 27/3/1 21/3/1 20/3/1
f 27/1/1 18/1/1 26/1/1
f 27/3/1 20/3/1 19/3/1
f 27/3/1 19/3/1 18/3/1
f 28/3/1 21/3/1 27/3/1
f 29/4/1 23/4/1 22/4/1
f 30/4/1 23/4/1 29/4/1
f 31/3/1 26/3/1 25/3/1
f 32/1/1 27/1/1 26/1/1
f 32/3/1 26/3/1 31/3/1
f 33/1/1 27/1/1 32/1/1
f 38/4/1 35/4/1 34/4/1
f 39/4/1 35/4/1 38/4/1
f 41/1/1 37/1/1 36/1/1
f 42/1/1 37/1/1 41/1/1
f 43/3/1 39/3/1 38/3/1
f 44/3/1 39/3/1 43/3/1
f 45/3/1 41/3/1 40/3/1
f 46/3/1 41/3/1 45/3/1
f 49/4/1 48/4/1 47/4/1
f 50/4/1 48/4/1 49/4/1
f 51/4/2 52/4/2 53/4/2
f 53/4/2 52/4/2 54/4/2
f 55/4/2 56/4/2 59/4/2
f 59/4/2 56/4/2 60/4/2
f 57/1/2 58/1/2 62/1/2
f 62/1/2 58/1/2 63/1/2
f 59/3/2 60/3/2 64/3/2
f 64/3/2 60/3/2 65/3/2
f 61/3/2 62/3/2 66/3/2
f 66/3/2 62/3/2 67/3/2
f 68/4/2 69/4/2 72/4/2
f 69/1/2 70/1/2 72/1/2
f 72/1/2 70/1/2 73/1/2
f 73/1/2 70/1/2 74/1/2
f 74/1/2 70/1/2 75/1/2
f 70/4/2 71/4/2 76/4/2
f 75/1/2 70/1/2 76/1/2
f 68/4/2 72/4/2 77/4/2
f 77/4/2 72/4/2 78/4/2
f 78/4/2 72/4/2 79/4/2
f 79/4/2 72/4/2 80/4/2
f 75/4/2 76/4/2 83/4/2
f 76/4/2 71/4/2 84/4/2
f 83/4/2 76/4/2 84/4/2
f 84/4/2 71/4/2 85/4/2
f 85/4/2 71/4/2 86/4/2
f 78/4/2 79/4/2 87/4/2
f 79/1/2 80/1/2 88/1/2
f 87/4/2 79/4/2 88/4/2
f 82/3/2 83/3/2 89/3/2
f 88/1/2 80/1/2 89/1/2
f 81/3/2 82/3/2 89/3/2
f 80/3/2 81/3/2 89/3/2
f 89/3/2 83/3/2 90/3/2
f 84/4/2 85/4/2 91/4/2
f 91/4/2 85/4/2 92/4/2
f 87/3/2 88/3/2 93/3/2
f 88/1/2 89/1/2 94/1/2
f 93/3/2 88/3/2 94/3/2
f 94/1/2 89/1/2 95/1/2
f 96/1/2 97/1/2 100/1/2
f 97/3/2 98/3/2 101/3/2
f 100/1/2 97/1/2 101/1/2
f 98/1/2 99/1/2 102/1/2
f 101/3/2 98/3/2 102/3/2
f 102/1/2 99/1/2 103/1/2
f 106/4/3 105/4/3 104/4/3
f 107/4/3 105/4/3 106/4/3
f 110/4/3 109/4/3 108/4/3
f 113/4/3 110/4/3 108/4/3
f 113/4/3 111/4/3 110/4/3
f 114/4/3 111/4/3 113/4/3
f 115/4/3 113/4/3 108/4/3
f 116/4/3 111/4/3 114/4/3
f 117/4/3 111/4/3 116/4/3
f 117/4/3 116/4/3 115/4/3
f 118/3/3 112/3/3 111/3/3
f 118/4/3 111/4/3 117/4/3
f 119/3/3 112/3/3 118/3/3
f 120/4/3 117/4/3 115/4/3
f 120/4/3 115/4/3 108/4/3
f 121/4/3 117/4/3 120/4/3
f 125/4/3 123/4/3 122/4/3
f 126/3/3 124/3/3 123/3/3
f 126/4/3 123/4/3 125/4/3
f 127/3/3 124/3/3 126/3/3
f 131/4/3 129/4/3 128/4/3
f 132/3/3 130/3/3 129/3/3
f 132/4/3 129/4/3 131/4/3
f 133/3/3 130/3/3 132/3/3
f 136/1/3 135/1/3 134/1/3
f 137/1/3 135/1/3 136/1/3
f 140/3/3 139/3/3 138/3/3
f 141/3/3 139/3/3 140/3/3
f 144/4/3 143/4/3 142/4/3
f 145/4/3 143/4/3 144/4/3
f 148/4/3 147/4/3 146/4/3
f 149/4/3 147/4/3 148/4/3
f 150/1/4 151/1/4 152/1/4
f 152/1/4 151/1/4 153/1/4
f 154/1/4 155/1/4 156/1/4
f 156/1/4 155/1/4 157/1/4
f 158/1/4 159/1/4 160/1/4
f 160/1/4 159/1/4 161/1/4
f 161/3/4 162/3/4 163/3/4
f 163/3/4 162/3/4 164/3/4
f 164/3/4 165/3/4 166/3/4
f 166/3/4 165/3/4 167/3/4
f 166/1/4 167/1/4 168/1/4
f 168/1/4 167/1/4 169/1/4
f 168/3/4 169/3/4 171/3/4
f 171/3/4 169/3/4 172/3/4
f 170/3/4 171/3/4 174/3/4
f 174/3/4 171/3/4 175/3/4
f 173/1/4 174/1/4 176/1/4
f 176/1/4 174/1/4 177/1/4
f 178/4/4 179/4/4 180/4/4
f 180/4/4 179/4/4 181/4/4
f 182/4/4 183/4/4 184/4/4
f 184/4/4 183/4/4 185/4/4
f 188/4/5 187/4/5 186/4/5
f 189/4/5 187/4/5 188/4/5
f 190/4/5 188/4/5 186/4/5
f 191/1/5 189/1/5 188/1/5
f 191/4/5 188/4/5 190/4/5
f 192/4/5 187/4/5 189/4/5
f 192/1/5 189/1/5 191/1/5
f 193/4/5 187/4/5 192/4/5
f 194/1/5 191/1/5 190/1/5
f 194/1/5 192/1/5 191/1/5
f 194/1/5 193/1/5 192/1/5
f 195/1/5 193/1/5 194/1/5
f 196/1/5 193/1/5 195/1/5
f 197/1/5 193/1/5 196/1/5
f 198/4/5 195/4/5 194/4/5
f 198/1/5 196/1/5 195/1/5
f 199/4/5 197/4/5 196/4/5
f 199/1/5 196/1/5 198/1/5
f 200/4/5 198/4/5 194/4/5
f 200/4/5 199/4/5 198/4/5
f 201/4/5 197/4/5 199/4/5
f 201/4/5 199/4/5 200/4/5
f 204/4/5 203/4/5 202/4/5
f 205/4/5 203/4/5 204/4/5
f 210/1/5 207/1/5 206/1/5
f 211/1/5 207/1/5 210/1/5
f 212/3/5 209/3/5 208/3/5
f 213/3/5 209/3/5 212/3/5
f 214/3/5 211/3/5 210/3/5
f 215/3/5 211/3/5 214/3/5
f 216/1/5 213/1/5 212/1/5
f 217/1/5 213/1/5 216/1/5
f 218/1/5 215/1/5 214/1/5
f 219/1/5 215/1/5 218/1/5
f 220/4/6 221/4/6 224/4/6
f 224/4/6 221/4/6 225/4/6
f 222/4/6 223/4/6 228/4/6
f 228/4/6 223/4/6 229/4/6
f 226/4/6 227/4/6 230/4/6
f 230/4/6 227/4/6 231/4/6
f 232/1/6 233/1/6 236/1/6
f 236/1/6 233/1/6 237/1/6
f 234/3/6 235/3/6 238/3/6
f 238/3/6 235/3/6 239/3/6
f 236/3/6 237/3/6 240/3/6
f 240/3/6 237/3/6 241/3/6
f 238/1/6 239/1/6 242/1/6
f 242/1/6 239/1/6 243/1/6
f 240/1/6 241/1/6 246/1/6
f 246/1/6 241/1/6 247/1/6
f 243/4/6 244/4/6 248/4/6
f 248/4/6 244/4/6 249/4/6
f 245/4/6 246/4/6 250/4/6
f 250/4/6 246/4/6 251/4/6
f 252/4/6 253/4/6 254/4/6
f 254/4/6 253/4/6 255/4/6
f 256/3/6 257/3/6 260/3/6
f 260/3/6 257/3/6 261/3/6
f 258/3/6 259/3/6 264/3/6
f 264/3/6 259/3/6 265/3/6
f 261/1/6 262/1/6 267/1/6
f 262/4/6 263/4/6 268/4/6
f 267/1/6 262/1/6 268/1/6
f 263/1/6 264/1/6 269/1/6
f 268/4/6 263/4/6 269/4/6
f 269/1/6 264/1/6 270/1/6
f 266/4/6 267/4/6 272/4/6
f 270/4/6 271/4/6 272/4/6
f 269/4/6 270/4/6 272/4/6
f 268/4/6 269/4/6 272/4/6
f 267/4/6 268/4/6 272/4/6
f 272/4/6 271/4/6 273/4/6
f 274/3/6 275/3/6 277/3/6
f 277/3/6 275/3/6 278/3/6
f 276/3/6 277/3/6 280/3/6
f 278/3/6 279/3/6 280/3/6
f 277/3/6 278/3/6 280/3/6
f 280/3/6 279/3/6 281/3/6
f 280/1/6 281/1/6 282/1/6
f 282/1/6 281/1/6 283/1/6
f 283/1/6 281/1/6 284/1/6
f 284/1/6 281/1/6 285/1/6
f 285/1/6 281/1/6 286/1/6
f 286/1/6 281/1/6 287/1/6
f 283/3/6 284/3/6 288/3/6
f 284/1/6 285/1/6 289/1/6
f 288/3/6 284/3/6 289/3/6
f 285/3/6 286/3/6 290/3/6
f 289/1/6 285/1/6 290/1/6
f 290/3/6 286/3/6 291/3/6
