# MagicaVoxel @ Ephtracy

# group
o 

# material
mtllib playerCar1TopRight.mtl
usemtl palette

# normals
vn -1 0 0
vn 1 0 0
vn 0 0 1
vn 0 0 -1
vn 0 -1 0
vn 0 1 0

# texcoords
vt 0.158203 0.5
vt 0.798828 0.5
vt 0.841797 0.5
vt 0.958984 0.5
vt 0.994141 0.5

# verts
v -0.4 -0.2 0.7
v -0.4 -0.2 0.6
v -0.4 -0.1 0.7
v -0.4 -0.1 0.6
v -0.4 -0.1 0.2
v -0.4 0 0.7
v -0.4 0 0.6
v -0.4 0 0.3
v -0.4 0 0.2
v -0.4 0.1 0.6
v -0.4 0.1 0.3
v -0.3 -0.2 0.6
v -0.3 -0.2 0.2
v -0.3 -0.1 0.6
v -0.3 -0.1 0.2
v -0.3 0 0.7
v -0.3 0 0.6
v -0.3 0 0.3
v -0.3 0 0.2
v -0.3 0.1 0.7
v -0.3 0.1 0.6
v -0.3 0.1 0.3
v -0.3 0.1 0.2
v -0.2 -0.2 0.8
v -0.2 -0.2 0.7
v -0.2 -0.1 0.8
v -0.2 -0.1 0.7
v -0.2 0 0.8
v -0.2 0 0.7
v -0.2 0 0.7
v -0.2 0 0.6
v -0.2 0.1 0.7
v -0.2 0.1 0.6
v 0 -0.2 0.8
v 0 -0.2 0.2
v 0 -0.1 0.8
v 0 -0.1 0.2
v 0 0 0.8
v 0 0 0.6
v 0 0 0.2
v 0 0.1 0.6
v 0 0.1 0.2
v -0.2 -0.2 0.8
v -0.2 -0.1 0.8
v -0.2 0 0.8
v -0.1 -0.1 0.8
v -0.1 0 0.8
v 0 -0.2 0.8
v 0 -0.1 0.8
v 0 0 0.8
v -0.4 -0.2 0.7
v -0.4 -0.1 0.7
v -0.4 0 0.7
v -0.3 -0.2 0.7
v -0.3 -0.1 0.7
v -0.3 0 0.7
v -0.3 0.1 0.7
v -0.2 -0.2 0.7
v -0.2 -0.1 0.7
v -0.2 0 0.7
v -0.2 0.1 0.7
v -0.4 0 0.6
v -0.4 0.1 0.6
v -0.3 0 0.6
v -0.3 0.1 0.6
v -0.2 0 0.6
v -0.2 0.1 0.6
v -0.1 0 0.6
v 0 0 0.6
v 0 0.1 0.6
v -0.4 -0.2 0.6
v -0.4 -0.1 0.6
v -0.3 -0.2 0.6
v -0.3 -0.1 0.6
v -0.4 0 0.3
v -0.4 0.1 0.3
v -0.3 0 0.3
v -0.3 0.1 0.3
v -0.4 -0.1 0.2
v -0.4 0 0.2
v -0.3 -0.2 0.2
v -0.3 -0.1 0.2
v -0.3 0 0.2
v -0.3 0.1 0.2
v -0.1 -0.1 0.2
v -0.1 0 0.2
v 0 -0.2 0.2
v 0 -0.1 0.2
v 0 0 0.2
v 0 0.1 0.2
v -0.2 -0.2 0.8
v 0 -0.2 0.8
v -0.4 -0.2 0.7
v -0.3 -0.2 0.7
v -0.2 -0.2 0.7
v -0.4 -0.2 0.6
v -0.3 -0.2 0.6
v -0.2 -0.2 0.6
v -0.3 -0.2 0.2
v 0 -0.2 0.2
v -0.4 -0.1 0.6
v -0.3 -0.1 0.6
v -0.4 -0.1 0.2
v -0.3 -0.1 0.2
v -0.2 0 0.8
v -0.1 0 0.8
v 0 0 0.8
v -0.4 0 0.7
v -0.3 0 0.7
v -0.2 0 0.7
v -0.1 0 0.7
v -0.4 0 0.6
v -0.3 0 0.6
v -0.2 0 0.6
v -0.1 0 0.6
v 0 0 0.6
v -0.4 0 0.3
v -0.3 0 0.3
v -0.4 0 0.2
v -0.3 0 0.2
v -0.3 0.1 0.7
v -0.2 0.1 0.7
v -0.4 0.1 0.6
v -0.3 0.1 0.6
v -0.2 0.1 0.6
v 0 0.1 0.6
v -0.4 0.1 0.3
v -0.3 0.1 0.3
v -0.3 0.1 0.2
v 0 0.1 0.2

# faces
f 3/3/1 2/3/1 1/3/1
f 4/3/1 2/3/1 3/3/1
f 6/2/1 4/2/1 3/2/1
f 6/2/1 5/2/1 4/2/1
f 7/2/1 5/2/1 6/2/1
f 8/2/1 5/2/1 7/2/1
f 9/2/1 5/2/1 8/2/1
f 10/2/1 8/2/1 7/2/1
f 11/2/1 8/2/1 10/2/1
f 14/2/1 13/2/1 12/2/1
f 15/2/1 13/2/1 14/2/1
f 20/2/1 17/2/1 16/2/1
f 21/2/1 17/2/1 20/2/1
f 22/2/1 19/2/1 18/2/1
f 23/2/1 19/2/1 22/2/1
f 26/2/1 25/2/1 24/2/1
f 27/2/1 25/2/1 26/2/1
f 28/5/1 27/5/1 26/5/1
f 29/5/1 27/5/1 28/5/1
f 30/2/2 31/2/2 32/2/2
f 32/2/2 31/2/2 33/2/2
f 34/2/2 35/2/2 36/2/2
f 36/2/2 35/2/2 37/2/2
f 36/4/2 37/4/2 38/4/2
f 38/4/2 37/4/2 39/4/2
f 39/4/2 37/4/2 40/4/2
f 39/2/2 40/2/2 41/2/2
f 41/2/2 40/2/2 42/2/2
f 46/2/3 44/2/3 43/2/3
f 46/5/3 45/5/3 44/5/3
f 47/5/3 45/5/3 46/5/3
f 48/2/3 46/2/3 43/2/3
f 49/4/3 47/4/3 46/4/3
f 49/2/3 46/2/3 48/2/3
f 50/4/3 47/4/3 49/4/3
f 54/3/3 52/3/3 51/3/3
f 55/2/3 53/2/3 52/2/3
f 55/3/3 52/3/3 54/3/3
f 56/2/3 53/2/3 55/2/3
f 58/1/3 55/1/3 54/1/3
f 59/2/3 57/2/3 56/2/3
f 59/1/3 55/1/3 58/1/3
f 59/2/3 56/2/3 55/2/3
f 60/2/3 57/2/3 59/2/3
f 61/2/3 57/2/3 60/2/3
f 64/2/3 63/2/3 62/2/3
f 65/2/3 63/2/3 64/2/3
f 68/2/3 67/2/3 66/2/3
f 69/2/3 67/2/3 68/2/3
f 70/2/3 67/2/3 69/2/3
f 71/3/4 72/3/4 73/3/4
f 73/3/4 72/3/4 74/3/4
f 75/2/4 76/2/4 77/2/4
f 77/2/4 76/2/4 78/2/4
f 79/2/4 80/2/4 82/2/4
f 82/2/4 80/2/4 83/2/4
f 81/2/4 82/2/4 85/2/4
f 83/2/4 84/2/4 85/2/4
f 82/2/4 83/2/4 85/2/4
f 85/2/4 84/2/4 86/2/4
f 81/2/4 85/2/4 87/2/4
f 85/4/4 86/4/4 88/4/4
f 87/2/4 85/2/4 88/2/4
f 86/2/4 84/2/4 89/2/4
f 88/4/4 86/4/4 89/4/4
f 89/2/4 84/2/4 90/2/4
f 95/2/5 92/2/5 91/2/5
f 96/3/5 94/3/5 93/3/5
f 97/1/5 95/1/5 94/1/5
f 97/3/5 94/3/5 96/3/5
f 98/2/5 92/2/5 95/2/5
f 98/1/5 95/1/5 97/1/5
f 99/2/5 98/2/5 97/2/5
f 100/2/5 92/2/5 98/2/5
f 100/2/5 98/2/5 99/2/5
f 103/2/5 102/2/5 101/2/5
f 104/2/5 102/2/5 103/2/5
f 105/5/6 106/5/6 110/5/6
f 106/4/6 107/4/6 111/4/6
f 110/5/6 106/5/6 111/5/6
f 108/2/6 109/2/6 112/2/6
f 112/2/6 109/2/6 113/2/6
f 110/2/6 111/2/6 114/2/6
f 111/4/6 107/4/6 115/4/6
f 114/2/6 111/2/6 115/2/6
f 115/4/6 107/4/6 116/4/6
f 117/2/6 118/2/6 119/2/6
f 119/2/6 118/2/6 120/2/6
f 121/2/6 122/2/6 124/2/6
f 124/2/6 122/2/6 125/2/6
f 123/2/6 124/2/6 127/2/6
f 125/2/6 126/2/6 127/2/6
f 124/2/6 125/2/6 127/2/6
f 127/2/6 126/2/6 128/2/6
f 128/2/6 126/2/6 129/2/6
f 129/2/6 126/2/6 130/2/6
