# MagicaVoxel @ Ephtracy

# group
o 

# material
mtllib vanBotLeft.mtl
usemtl palette

# normals
vn -1 0 0
vn 1 0 0
vn 0 0 1
vn 0 0 -1
vn 0 -1 0
vn 0 1 0

# texcoords
vt 0.0136719 0.5
vt 0.0410156 0.5
vt 0.111328 0.5
vt 0.138672 0.5
vt 0.615234 0.5
vt 0.966797 0.5
vt 0.970703 0.5
vt 0.974609 0.5
vt 0.978516 0.5
vt 0.982422 0.5
vt 0.986328 0.5
vt 0.990234 0.5

# verts
v -0.15 -0.65 -0.05
v -0.15 -0.65 -1.25
v -0.15 -0.65 -1.35
v -0.15 -0.55 -0.05
v -0.15 -0.55 -0.15
v -0.15 -0.55 -0.25
v -0.15 -0.55 -0.85
v -0.15 -0.55 -0.95
v -0.15 -0.55 -1.15
v -0.15 -0.55 -1.25
v -0.15 -0.45 -0.85
v -0.15 -0.45 -0.95
v -0.15 -0.45 -1.15
v -0.15 -0.45 -1.25
v -0.15 -0.45 -1.35
v -0.15 -0.35 -0.15
v -0.15 -0.35 -0.25
v -0.15 -0.35 -0.95
v -0.15 -0.35 -1.15
v -0.15 -0.35 -1.25
v -0.15 -0.25 -1.25
v -0.15 -0.25 -1.35
v -0.15 -0.15 -1.25
v -0.15 -0.15 -1.35
v -0.15 -0.05 -0.15
v -0.15 -0.05 -0.25
v -0.15 -0.05 -0.35
v -0.15 -0.05 -0.95
v -0.15 -0.05 -1.25
v -0.15 -0.05 -1.35
v -0.15 -0.05 -1.45
v -0.15 0.05 -0.35
v -0.15 0.05 -0.95
v -0.15 0.05 -1.25
v -0.15 0.05 -1.45
v -0.15 0.15 -1.25
v -0.15 0.15 -1.45
v -0.15 0.25 -0.15
v -0.15 0.25 -0.95
v -0.15 0.25 -1.25
v -0.15 0.25 -1.45
v -0.15 0.35 -1.25
v -0.15 0.35 -1.45
v -0.15 0.45 -0.05
v -0.15 0.45 -0.95
v -0.15 0.45 -1.25
v -0.15 0.45 -1.45
v 0.45 -0.55 -0.15
v 0.45 -0.55 -0.25
v 0.45 -0.45 -0.25
v 0.45 -0.35 -0.15
v 0.45 -0.35 -0.25
v 0.55 -0.65 -0.55
v 0.55 -0.65 -1.05
v 0.55 -0.55 -0.65
v 0.55 -0.55 -0.75
v 0.55 -0.55 -0.95
v 0.55 -0.55 -1.05
v 0.55 -0.45 -0.65
v 0.55 -0.45 -0.75
v 0.55 -0.45 -0.95
v 0.55 -0.45 -1.05
v 0.55 -0.35 -0.55
v 0.55 -0.35 -0.65
v 0.55 -0.35 -0.75
v 0.55 -0.35 -0.95
v 0.55 -0.35 -1.05
v 0.55 -0.25 -0.65
v 0.55 -0.25 -0.95
v 0.55 -0.05 -1.35
v 0.55 -0.05 -1.45
v 0.55 0.05 -1.35
v 0.55 0.05 -1.45
v 0.55 0.15 -1.35
v 0.55 0.15 -1.45
v 0.55 0.25 -1.35
v 0.55 0.25 -1.45
v 0.55 0.35 -1.35
v 0.55 0.35 -1.45
v 0.55 0.45 -1.35
v 0.55 0.45 -1.45
v 0.65 -0.65 -0.05
v 0.65 -0.65 -0.55
v 0.65 -0.65 -1.05
v 0.65 -0.65 -1.15
v 0.65 -0.65 -1.35
v 0.65 -0.45 -1.15
v 0.65 -0.45 -1.35
v 0.65 -0.35 -0.45
v 0.65 -0.35 -0.55
v 0.65 -0.35 -0.65
v 0.65 -0.35 -0.95
v 0.65 -0.35 -1.05
v 0.65 -0.35 -1.25
v 0.65 -0.35 -1.35
v 0.65 -0.25 -0.35
v 0.65 -0.25 -0.45
v 0.65 -0.25 -0.65
v 0.65 -0.25 -0.95
v 0.65 -0.15 -0.05
v 0.65 -0.15 -0.25
v 0.65 -0.15 -0.35
v 0.65 -0.15 -1.15
v 0.65 -0.15 -1.25
v 0.65 -0.15 -1.35
v 0.65 -0.05 -0.05
v 0.65 -0.05 -0.15
v 0.65 -0.05 -0.25
v 0.65 -0.05 -0.35
v 0.65 -0.05 -0.65
v 0.65 -0.05 -0.75
v 0.65 -0.05 -1.05
v 0.65 -0.05 -1.15
v 0.65 0.35 -0.05
v 0.65 0.35 -0.15
v 0.65 0.35 -0.35
v 0.65 0.35 -0.65
v 0.65 0.35 -0.75
v 0.65 0.35 -1.05
v 0.65 0.45 -0.05
v 0.65 0.45 -0.25
v 0.65 0.45 -1.15
v 0.65 0.45 -1.35
v 0.85 -0.15 -0.25
v 0.85 -0.15 -1.15
v 0.85 -0.05 -0.25
v 0.85 -0.05 -1.15
v -0.15 -0.65 -0.05
v -0.15 -0.55 -0.05
v -0.15 0.45 -0.05
v 0.55 -0.65 -0.05
v 0.55 -0.55 -0.05
v 0.55 -0.15 -0.05
v 0.55 -0.05 -0.05
v 0.55 0.35 -0.05
v 0.55 0.45 -0.05
v 0.65 -0.65 -0.05
v 0.65 -0.15 -0.05
v 0.65 -0.05 -0.05
v 0.65 0.35 -0.05
v 0.65 0.45 -0.05
v -0.15 -0.55 -0.25
v -0.15 -0.35 -0.25
v 0.35 -0.55 -0.25
v 0.35 -0.45 -0.25
v 0.45 -0.55 -0.25
v 0.45 -0.45 -0.25
v 0.45 -0.35 -0.25
v 0.65 -0.15 -0.25
v 0.65 -0.05 -0.25
v 0.85 -0.15 -0.25
v 0.85 -0.05 -0.25
v 0.55 -0.35 -0.95
v 0.55 -0.25 -0.95
v 0.65 -0.35 -0.95
v 0.65 -0.25 -0.95
v 0.55 -0.65 -1.05
v 0.55 -0.55 -1.05
v 0.55 -0.45 -1.05
v 0.55 -0.35 -1.05
v 0.65 -0.65 -1.05
v 0.65 -0.35 -1.05
v -0.15 -0.55 -0.15
v -0.15 -0.35 -0.15
v 0.45 -0.55 -0.15
v 0.45 -0.35 -0.15
v 0.55 -0.65 -0.55
v 0.55 -0.35 -0.55
v 0.65 -0.65 -0.55
v 0.65 -0.35 -0.55
v 0.55 -0.35 -0.65
v 0.55 -0.25 -0.65
v 0.65 -0.35 -0.65
v 0.65 -0.25 -0.65
v 0.65 -0.15 -1.15
v 0.65 -0.05 -1.15
v 0.85 -0.15 -1.15
v 0.85 -0.05 -1.15
v -0.15 -0.65 -1.35
v -0.15 -0.45 -1.35
v -0.15 -0.25 -1.35
v -0.15 -0.15 -1.35
v -0.15 -0.05 -1.35
v -0.05 -0.25 -1.35
v -0.05 -0.15 -1.35
v 0.05 -0.25 -1.35
v 0.05 -0.15 -1.35
v 0.15 -0.25 -1.35
v 0.15 -0.15 -1.35
v 0.25 -0.25 -1.35
v 0.25 -0.15 -1.35
v 0.45 -0.25 -1.35
v 0.45 -0.15 -1.35
v 0.55 -0.35 -1.35
v 0.55 -0.15 -1.35
v 0.55 -0.05 -1.35
v 0.55 0.05 -1.35
v 0.55 0.15 -1.35
v 0.55 0.25 -1.35
v 0.55 0.35 -1.35
v 0.55 0.45 -1.35
v 0.65 -0.65 -1.35
v 0.65 -0.45 -1.35
v 0.65 -0.35 -1.35
v 0.65 -0.15 -1.35
v 0.65 0.45 -1.35
v -0.15 -0.05 -1.45
v -0.15 0.05 -1.45
v -0.15 0.15 -1.45
v -0.15 0.25 -1.45
v -0.15 0.35 -1.45
v -0.15 0.45 -1.45
v 0.55 -0.05 -1.45
v 0.55 0.05 -1.45
v 0.55 0.15 -1.45
v 0.55 0.25 -1.45
v 0.55 0.35 -1.45
v 0.55 0.45 -1.45
v -0.15 -0.65 -0.05
v 0.55 -0.65 -0.05
v 0.65 -0.65 -0.05
v 0.55 -0.65 -0.55
v 0.65 -0.65 -0.55
v 0.55 -0.65 -1.05
v 0.65 -0.65 -1.05
v 0.55 -0.65 -1.15
v 0.65 -0.65 -1.15
v -0.15 -0.65 -1.25
v 0.55 -0.65 -1.25
v -0.15 -0.65 -1.35
v 0.65 -0.65 -1.35
v -0.15 -0.35 -0.15
v 0.45 -0.35 -0.15
v -0.15 -0.35 -0.25
v 0.45 -0.35 -0.25
v 0.55 -0.35 -0.55
v 0.65 -0.35 -0.55
v 0.55 -0.35 -0.65
v 0.65 -0.35 -0.65
v 0.55 -0.35 -0.95
v 0.65 -0.35 -0.95
v 0.55 -0.35 -1.05
v 0.65 -0.35 -1.05
v 0.55 -0.25 -0.65
v 0.65 -0.25 -0.65
v 0.55 -0.25 -0.95
v 0.65 -0.25 -0.95
v 0.65 -0.15 -0.25
v 0.85 -0.15 -0.25
v 0.65 -0.15 -0.35
v 0.65 -0.15 -1.15
v 0.85 -0.15 -1.15
v -0.15 -0.05 -1.35
v 0.55 -0.05 -1.35
v -0.15 -0.05 -1.45
v 0.55 -0.05 -1.45
v -0.15 -0.55 -0.15
v 0.45 -0.55 -0.15
v -0.15 -0.55 -0.25
v 0.35 -0.55 -0.25
v 0.45 -0.55 -0.25
v 0.65 -0.05 -0.25
v 0.85 -0.05 -0.25
v 0.65 -0.05 -0.35
v 0.65 -0.05 -0.65
v 0.65 -0.05 -0.75
v 0.65 -0.05 -1.05
v 0.65 -0.05 -1.15
v 0.85 -0.05 -1.15
v -0.15 0.45 -0.05
v 0.55 0.45 -0.05
v 0.65 0.45 -0.05
v 0.55 0.45 -0.25
v 0.65 0.45 -0.25
v -0.15 0.45 -0.95
v 0.55 0.45 -0.95
v 0.55 0.45 -1.15
v 0.65 0.45 -1.15
v -0.15 0.45 -1.25
v 0.55 0.45 -1.25
v 0.55 0.45 -1.35
v 0.65 0.45 -1.35
v -0.15 0.45 -1.45
v 0.55 0.45 -1.45

# faces
f 4/7/1 2/7/1 1/7/1
f 5/7/1 2/7/1 4/7/1
f 6/7/1 2/7/1 5/7/1
f 7/7/1 2/7/1 6/7/1
f 8/7/1 2/7/1 7/7/1
f 9/7/1 2/7/1 8/7/1
f 10/9/1 3/9/1 2/9/1
f 10/7/1 2/7/1 9/7/1
f 11/11/1 7/11/1 6/11/1
f 11/7/1 8/7/1 7/7/1
f 12/6/1 9/6/1 8/6/1
f 12/7/1 8/7/1 11/7/1
f 13/9/1 10/9/1 9/9/1
f 13/6/1 9/6/1 12/6/1
f 14/9/1 3/9/1 10/9/1
f 14/9/1 10/9/1 13/9/1
f 15/9/1 3/9/1 14/9/1
f 16/5/1 5/5/1 4/5/1
f 17/11/1 11/11/1 6/11/1
f 17/11/1 12/11/1 11/11/1
f 18/7/1 13/7/1 12/7/1
f 18/11/1 12/11/1 17/11/1
f 19/9/1 14/9/1 13/9/1
f 19/7/1 13/7/1 18/7/1
f 20/5/1 15/5/1 14/5/1
f 20/9/1 14/9/1 19/9/1
f 21/6/1 19/6/1 18/6/1
f 21/5/1 15/5/1 20/5/1
f 21/6/1 20/6/1 19/6/1
f 22/5/1 15/5/1 21/5/1
f 23/6/1 21/6/1 18/6/1
f 23/8/1 22/8/1 21/8/1
f 24/8/1 22/8/1 23/8/1
f 25/5/1 16/5/1 4/5/1
f 25/5/1 17/5/1 16/5/1
f 26/11/1 18/11/1 17/11/1
f 26/5/1 17/5/1 25/5/1
f 27/11/1 18/11/1 26/11/1
f 28/6/1 23/6/1 18/6/1
f 28/11/1 18/11/1 27/11/1
f 29/5/1 24/5/1 23/5/1
f 29/6/1 23/6/1 28/6/1
f 30/5/1 24/5/1 29/5/1
f 32/7/1 28/7/1 27/7/1
f 32/12/1 26/12/1 25/12/1
f 32/12/1 27/12/1 26/12/1
f 33/6/1 29/6/1 28/6/1
f 33/7/1 28/7/1 32/7/1
f 34/11/1 30/11/1 29/11/1
f 34/6/1 29/6/1 33/6/1
f 34/11/1 31/11/1 30/11/1
f 35/11/1 31/11/1 34/11/1
f 36/6/1 34/6/1 33/6/1
f 36/10/1 35/10/1 34/10/1
f 37/10/1 35/10/1 36/10/1
f 38/12/1 33/12/1 32/12/1
f 38/12/1 32/12/1 25/12/1
f 38/5/1 25/5/1 4/5/1
f 39/6/1 36/6/1 33/6/1
f 39/12/1 33/12/1 38/12/1
f 40/11/1 37/11/1 36/11/1
f 40/6/1 36/6/1 39/6/1
f 41/11/1 37/11/1 40/11/1
f 42/6/1 40/6/1 39/6/1
f 42/10/1 41/10/1 40/10/1
f 43/10/1 41/10/1 42/10/1
f 44/5/1 39/5/1 38/5/1
f 44/5/1 38/5/1 4/5/1
f 45/6/1 42/6/1 39/6/1
f 45/5/1 39/5/1 44/5/1
f 46/11/1 43/11/1 42/11/1
f 46/6/1 42/6/1 45/6/1
f 47/11/1 43/11/1 46/11/1
f 50/7/1 49/7/1 48/7/1
f 51/7/1 50/7/1 48/7/1
f 52/7/1 50/7/1 51/7/1
f 53/7/2 54/7/2 55/7/2
f 55/7/2 54/7/2 56/7/2
f 56/7/2 54/7/2 57/7/2
f 57/7/2 54/7/2 58/7/2
f 53/7/2 55/7/2 59/7/2
f 55/11/2 56/11/2 59/11/2
f 56/7/2 57/7/2 60/7/2
f 59/11/2 56/11/2 60/11/2
f 57/6/2 58/6/2 61/6/2
f 60/7/2 57/7/2 61/7/2
f 61/6/2 58/6/2 62/6/2
f 53/7/2 59/7/2 63/7/2
f 59/6/2 60/6/2 64/6/2
f 63/7/2 59/7/2 64/7/2
f 60/7/2 61/7/2 65/7/2
f 64/6/2 60/6/2 65/6/2
f 61/7/2 62/7/2 65/7/2
f 65/7/2 62/7/2 66/7/2
f 66/7/2 62/7/2 67/7/2
f 64/11/2 65/11/2 68/11/2
f 65/11/2 66/11/2 68/11/2
f 68/11/2 66/11/2 69/11/2
f 70/11/2 71/11/2 72/11/2
f 72/11/2 71/11/2 73/11/2
f 72/10/2 73/10/2 74/10/2
f 74/10/2 73/10/2 75/10/2
f 74/11/2 75/11/2 76/11/2
f 76/11/2 75/11/2 77/11/2
f 76/10/2 77/10/2 78/10/2
f 78/10/2 77/10/2 79/10/2
f 78/11/2 79/11/2 80/11/2
f 80/11/2 79/11/2 81/11/2
f 84/5/2 85/5/2 87/5/2
f 85/9/2 86/9/2 87/9/2
f 87/9/2 86/9/2 88/9/2
f 82/2/2 83/2/2 89/2/2
f 89/2/2 83/2/2 90/2/2
f 84/5/2 87/5/2 93/5/2
f 87/5/2 88/5/2 93/5/2
f 93/5/2 88/5/2 94/5/2
f 94/5/2 88/5/2 95/5/2
f 82/2/2 89/2/2 96/2/2
f 90/5/2 91/5/2 97/5/2
f 96/2/2 89/2/2 97/2/2
f 89/5/2 90/5/2 97/5/2
f 97/5/2 91/5/2 98/5/2
f 92/5/2 93/5/2 99/5/2
f 93/5/2 94/5/2 99/5/2
f 82/2/2 96/2/2 100/2/2
f 100/2/2 96/2/2 101/2/2
f 98/5/2 99/5/2 102/5/2
f 101/2/2 96/2/2 102/2/2
f 97/5/2 98/5/2 102/5/2
f 96/5/2 97/5/2 102/5/2
f 99/5/2 94/5/2 103/5/2
f 102/5/2 99/5/2 103/5/2
f 94/3/2 95/3/2 104/3/2
f 103/5/2 94/5/2 104/5/2
f 104/3/2 95/3/2 105/3/2
f 100/4/2 101/4/2 106/4/2
f 106/4/2 101/4/2 107/4/2
f 107/4/2 101/4/2 108/4/2
f 104/5/2 105/5/2 113/5/2
f 103/5/2 104/5/2 113/5/2
f 106/1/2 107/1/2 114/1/2
f 107/4/2 108/4/2 115/4/2
f 114/1/2 107/1/2 115/1/2
f 108/11/2 109/11/2 116/11/2
f 109/12/2 110/12/2 116/12/2
f 110/11/2 111/11/2 117/11/2
f 116/12/2 110/12/2 117/12/2
f 111/12/2 112/12/2 118/12/2
f 117/11/2 111/11/2 118/11/2
f 112/11/2 113/11/2 119/11/2
f 118/12/2 112/12/2 119/12/2
f 114/4/2 115/4/2 120/4/2
f 116/11/2 117/11/2 121/11/2
f 120/4/2 115/4/2 121/4/2
f 108/11/2 116/11/2 121/11/2
f 118/11/2 119/11/2 121/11/2
f 117/11/2 118/11/2 121/11/2
f 115/4/2 108/4/2 121/4/2
f 113/5/2 105/5/2 122/5/2
f 121/11/2 119/11/2 122/11/2
f 119/11/2 113/11/2 122/11/2
f 122/5/2 105/5/2 123/5/2
f 124/11/2 125/11/2 126/11/2
f 126/11/2 125/11/2 127/11/2
f 131/7/3 129/7/3 128/7/3
f 132/5/3 130/5/3 129/5/3
f 132/7/3 129/7/3 131/7/3
f 133/5/3 130/5/3 132/5/3
f 134/5/3 130/5/3 133/5/3
f 135/5/3 130/5/3 134/5/3
f 136/5/3 130/5/3 135/5/3
f 137/2/3 132/2/3 131/2/3
f 137/2/3 133/2/3 132/2/3
f 138/4/3 134/4/3 133/4/3
f 138/2/3 133/2/3 137/2/3
f 139/1/3 135/1/3 134/1/3
f 139/4/3 134/4/3 138/4/3
f 140/4/3 136/4/3 135/4/3
f 140/1/3 135/1/3 139/1/3
f 141/4/3 136/4/3 140/4/3
f 144/11/3 143/11/3 142/11/3
f 145/11/3 143/11/3 144/11/3
f 146/7/3 145/7/3 144/7/3
f 147/11/3 143/11/3 145/11/3
f 147/7/3 145/7/3 146/7/3
f 148/11/3 143/11/3 147/11/3
f 151/11/3 150/11/3 149/11/3
f 152/11/3 150/11/3 151/11/3
f 155/5/3 154/5/3 153/5/3
f 156/5/3 154/5/3 155/5/3
f 161/5/3 158/5/3 157/5/3
f 161/5/3 160/5/3 159/5/3
f 161/5/3 159/5/3 158/5/3
f 162/5/3 160/5/3 161/5/3
f 163/5/4 164/5/4 165/5/4
f 165/5/4 164/5/4 166/5/4
f 167/2/4 168/2/4 169/2/4
f 169/2/4 168/2/4 170/2/4
f 171/5/4 172/5/4 173/5/4
f 173/5/4 172/5/4 174/5/4
f 175/11/4 176/11/4 177/11/4
f 177/11/4 176/11/4 178/11/4
f 180/5/4 181/5/4 184/5/4
f 181/8/4 182/8/4 184/8/4
f 182/5/4 183/5/4 185/5/4
f 184/8/4 182/8/4 185/8/4
f 180/5/4 184/5/4 186/5/4
f 184/5/4 185/5/4 186/5/4
f 185/5/4 183/5/4 187/5/4
f 186/5/4 185/5/4 187/5/4
f 180/5/4 186/5/4 188/5/4
f 186/8/4 187/8/4 188/8/4
f 187/5/4 183/5/4 189/5/4
f 188/8/4 187/8/4 189/8/4
f 180/5/4 188/5/4 190/5/4
f 188/5/4 189/5/4 190/5/4
f 189/5/4 183/5/4 191/5/4
f 190/5/4 189/5/4 191/5/4
f 180/5/4 190/5/4 192/5/4
f 190/8/4 191/8/4 192/8/4
f 191/5/4 183/5/4 193/5/4
f 192/8/4 191/8/4 193/8/4
f 180/5/4 192/5/4 194/5/4
f 192/5/4 193/5/4 194/5/4
f 193/5/4 183/5/4 195/5/4
f 194/5/4 193/5/4 195/5/4
f 195/5/4 183/5/4 196/5/4
f 179/9/4 180/9/4 202/9/4
f 180/5/4 194/5/4 203/5/4
f 202/9/4 180/9/4 203/9/4
f 194/3/4 195/3/4 204/3/4
f 203/5/4 194/5/4 204/5/4
f 200/5/4 201/5/4 205/5/4
f 204/3/4 195/3/4 205/3/4
f 195/5/4 196/5/4 205/5/4
f 199/5/4 200/5/4 205/5/4
f 198/5/4 199/5/4 205/5/4
f 197/5/4 198/5/4 205/5/4
f 196/5/4 197/5/4 205/5/4
f 205/5/4 201/5/4 206/5/4
f 207/11/4 208/11/4 213/11/4
f 208/10/4 209/10/4 214/10/4
f 213/11/4 208/11/4 214/11/4
f 209/11/4 210/11/4 215/11/4
f 214/10/4 209/10/4 215/10/4
f 210/10/4 211/10/4 216/10/4
f 215/11/4 210/11/4 216/11/4
f 211/11/4 212/11/4 217/11/4
f 216/10/4 211/10/4 217/10/4
f 217/11/4 212/11/4 218/11/4
f 222/7/5 220/7/5 219/7/5
f 222/2/5 221/2/5 220/2/5
f 223/2/5 221/2/5 222/2/5
f 224/7/5 222/7/5 219/7/5
f 226/7/5 224/7/5 219/7/5
f 226/5/5 225/5/5 224/5/5
f 227/5/5 225/5/5 226/5/5
f 228/7/5 226/7/5 219/7/5
f 229/9/5 227/9/5 226/9/5
f 229/7/5 226/7/5 228/7/5
f 230/9/5 229/9/5 228/9/5
f 231/9/5 227/9/5 229/9/5
f 231/9/5 229/9/5 230/9/5
f 234/5/5 233/5/5 232/5/5
f 235/5/5 233/5/5 234/5/5
f 238/5/5 237/5/5 236/5/5
f 239/5/5 237/5/5 238/5/5
f 242/5/5 241/5/5 240/5/5
f 243/5/5 241/5/5 242/5/5
f 246/5/5 245/5/5 244/5/5
f 247/5/5 245/5/5 246/5/5
f 250/11/5 249/11/5 248/11/5
f 251/11/5 249/11/5 250/11/5
f 252/11/5 249/11/5 251/11/5
f 255/11/5 254/11/5 253/11/5
f 256/11/5 254/11/5 255/11/5
f 257/7/6 258/7/6 259/7/6
f 259/7/6 258/7/6 260/7/6
f 260/7/6 258/7/6 261/7/6
f 262/11/6 263/11/6 264/11/6
f 264/11/6 263/11/6 265/11/6
f 265/11/6 263/11/6 266/11/6
f 266/11/6 263/11/6 267/11/6
f 267/11/6 263/11/6 268/11/6
f 268/11/6 263/11/6 269/11/6
f 270/5/6 271/5/6 273/5/6
f 271/4/6 272/4/6 273/4/6
f 273/4/6 272/4/6 274/4/6
f 270/5/6 273/5/6 275/5/6
f 273/11/6 274/11/6 276/11/6
f 275/5/6 273/5/6 276/5/6
f 275/6/6 276/6/6 277/6/6
f 276/11/6 274/11/6 277/11/6
f 277/11/6 274/11/6 278/11/6
f 275/6/6 277/6/6 279/6/6
f 277/5/6 278/5/6 280/5/6
f 279/6/6 277/6/6 280/6/6
f 279/11/6 280/11/6 281/11/6
f 280/5/6 278/5/6 281/5/6
f 281/5/6 278/5/6 282/5/6
f 279/11/6 281/11/6 283/11/6
f 283/11/6 281/11/6 284/11/6
