# MagicaVoxel @ Ephtracy

# group
o 

# material
mtllib vanBotLeft.mtl
usemtl palette

# normals
vn -1 0 0
vn 1 0 0
vn 0 0 1
vn 0 0 -1
vn 0 -1 0
vn 0 1 0

# texcoords
vt 0.0136719 0.5
vt 0.0410156 0.5
vt 0.111328 0.5
vt 0.138672 0.5
vt 0.615234 0.5
vt 0.966797 0.5
vt 0.970703 0.5
vt 0.974609 0.5
vt 0.978516 0.5
vt 0.982422 0.5
vt 0.986328 0.5
vt 0.990234 0.5

# verts
v 0.05 -0.65 -0.05
v 0.05 -0.65 -1.35
v 0.05 -0.65 -1.45
v 0.05 -0.55 -0.05
v 0.05 -0.55 -0.25
v 0.05 -0.55 -0.35
v 0.05 -0.55 -0.95
v 0.05 -0.55 -1.05
v 0.05 -0.55 -1.25
v 0.05 -0.55 -1.35
v 0.05 -0.45 -0.95
v 0.05 -0.45 -1.05
v 0.05 -0.45 -1.25
v 0.05 -0.45 -1.35
v 0.05 -0.45 -1.45
v 0.05 -0.35 -0.25
v 0.05 -0.35 -0.35
v 0.05 -0.35 -1.05
v 0.05 -0.35 -1.25
v 0.05 -0.35 -1.35
v 0.05 -0.25 -1.35
v 0.05 -0.25 -1.45
v 0.05 -0.15 -1.35
v 0.05 -0.15 -1.45
v 0.05 -0.05 -0.25
v 0.05 -0.05 -0.35
v 0.05 -0.05 -0.45
v 0.05 -0.05 -1.05
v 0.05 -0.05 -1.35
v 0.05 -0.05 -1.45
v 0.05 0.05 -0.45
v 0.05 0.05 -1.05
v 0.05 0.05 -1.35
v 0.05 0.05 -1.45
v 0.05 0.15 -1.35
v 0.05 0.15 -1.45
v 0.05 0.25 -0.25
v 0.05 0.25 -1.05
v 0.05 0.25 -1.35
v 0.05 0.25 -1.45
v 0.05 0.35 -1.35
v 0.05 0.35 -1.45
v 0.05 0.45 -1.05
v 0.05 0.45 -1.35
v 0.05 0.45 -1.45
v 0.05 0.55 -0.05
v 0.05 0.55 -0.15
v 0.05 0.55 -0.35
v 0.05 0.55 -0.75
v 0.05 0.55 -0.95
v 0.05 0.55 -1.25
v 0.05 0.55 -1.45
v 0.05 0.65 -0.15
v 0.05 0.65 -0.35
v 0.05 0.65 -0.75
v 0.05 0.65 -0.95
v 0.05 0.65 -1.25
v 0.05 0.65 -1.45
v 0.05 0.75 -0.05
v 0.05 0.75 -0.15
v 0.05 0.75 -0.35
v 0.05 0.75 -0.75
v 0.05 0.75 -0.95
v 0.05 0.75 -1.25
v 0.45 -0.55 -0.25
v 0.45 -0.55 -0.35
v 0.45 -0.35 -0.25
v 0.45 -0.35 -0.35
v 0.45 0.65 -0.05
v 0.45 0.65 -0.15
v 0.45 0.65 -0.35
v 0.45 0.65 -0.75
v 0.45 0.65 -0.95
v 0.45 0.65 -1.25
v 0.45 0.75 -0.05
v 0.45 0.75 -0.15
v 0.45 0.75 -0.35
v 0.45 0.75 -0.75
v 0.45 0.75 -0.95
v 0.45 0.75 -1.25
v 0.55 -0.65 -0.65
v 0.55 -0.65 -1.15
v 0.55 -0.55 -0.75
v 0.55 -0.55 -0.85
v 0.55 -0.55 -1.05
v 0.55 -0.55 -1.15
v 0.55 -0.45 -0.75
v 0.55 -0.45 -0.85
v 0.55 -0.45 -1.05
v 0.55 -0.45 -1.15
v 0.55 -0.35 -0.65
v 0.55 -0.35 -0.75
v 0.55 -0.35 -0.85
v 0.55 -0.35 -1.05
v 0.55 -0.35 -1.15
v 0.55 -0.25 -0.75
v 0.55 -0.25 -1.05
v 0.65 -0.65 -0.05
v 0.65 -0.65 -0.65
v 0.65 -0.65 -1.15
v 0.65 -0.65 -1.25
v 0.65 -0.65 -1.45
v 0.65 -0.45 -1.25
v 0.65 -0.45 -1.45
v 0.65 -0.35 -0.55
v 0.65 -0.35 -0.65
v 0.65 -0.35 -0.75
v 0.65 -0.35 -1.05
v 0.65 -0.35 -1.15
v 0.65 -0.35 -1.35
v 0.65 -0.35 -1.45
v 0.65 -0.25 -0.45
v 0.65 -0.25 -0.55
v 0.65 -0.25 -0.75
v 0.65 -0.25 -1.05
v 0.65 -0.15 -0.05
v 0.65 -0.15 -0.35
v 0.65 -0.15 -0.45
v 0.65 -0.15 -1.25
v 0.65 -0.15 -1.35
v 0.65 -0.15 -1.45
v 0.65 -0.05 -0.05
v 0.65 -0.05 -0.25
v 0.65 -0.05 -0.35
v 0.65 -0.05 -0.45
v 0.65 -0.05 -0.75
v 0.65 -0.05 -0.85
v 0.65 -0.05 -1.15
v 0.65 -0.05 -1.25
v 0.65 0.35 -0.05
v 0.65 0.35 -0.25
v 0.65 0.35 -0.45
v 0.65 0.35 -0.75
v 0.65 0.35 -0.85
v 0.65 0.35 -1.15
v 0.65 0.45 -0.05
v 0.65 0.45 -0.35
v 0.65 0.45 -1.25
v 0.65 0.55 -0.05
v 0.65 0.55 -1.45
v 0.65 0.65 -0.05
v 0.65 0.65 -1.45
v 0.85 -0.15 -0.35
v 0.85 -0.15 -1.25
v 0.85 -0.05 -0.35
v 0.85 -0.05 -1.25
v 0.05 -0.65 -0.05
v 0.05 -0.55 -0.05
v 0.05 0.55 -0.05
v 0.05 0.75 -0.05
v 0.45 0.55 -0.05
v 0.45 0.65 -0.05
v 0.45 0.75 -0.05
v 0.55 -0.65 -0.05
v 0.55 -0.55 -0.05
v 0.55 -0.15 -0.05
v 0.55 -0.05 -0.05
v 0.55 0.35 -0.05
v 0.55 0.45 -0.05
v 0.65 -0.65 -0.05
v 0.65 -0.15 -0.05
v 0.65 -0.05 -0.05
v 0.65 0.35 -0.05
v 0.65 0.45 -0.05
v 0.65 0.55 -0.05
v 0.65 0.65 -0.05
v 0.05 -0.55 -0.35
v 0.05 -0.35 -0.35
v 0.05 0.65 -0.35
v 0.05 0.75 -0.35
v 0.45 -0.55 -0.35
v 0.45 -0.35 -0.35
v 0.45 0.65 -0.35
v 0.45 0.75 -0.35
v 0.65 -0.15 -0.35
v 0.65 -0.05 -0.35
v 0.85 -0.15 -0.35
v 0.85 -0.05 -0.35
v 0.05 0.65 -0.95
v 0.05 0.75 -0.95
v 0.45 0.65 -0.95
v 0.45 0.75 -0.95
v 0.55 -0.35 -1.05
v 0.55 -0.25 -1.05
v 0.65 -0.35 -1.05
v 0.65 -0.25 -1.05
v 0.55 -0.65 -1.15
v 0.55 -0.55 -1.15
v 0.55 -0.45 -1.15
v 0.55 -0.35 -1.15
v 0.65 -0.65 -1.15
v 0.65 -0.35 -1.15
v 0.05 0.65 -0.15
v 0.05 0.75 -0.15
v 0.45 0.65 -0.15
v 0.45 0.75 -0.15
v 0.05 -0.55 -0.25
v 0.05 -0.35 -0.25
v 0.45 -0.55 -0.25
v 0.45 -0.35 -0.25
v 0.55 -0.65 -0.65
v 0.55 -0.35 -0.65
v 0.65 -0.65 -0.65
v 0.65 -0.35 -0.65
v 0.05 0.65 -0.75
v 0.05 0.75 -0.75
v 0.45 0.65 -0.75
v 0.45 0.75 -0.75
v 0.55 -0.35 -0.75
v 0.55 -0.25 -0.75
v 0.65 -0.35 -0.75
v 0.65 -0.25 -0.75
v 0.05 0.65 -1.25
v 0.05 0.75 -1.25
v 0.45 0.65 -1.25
v 0.45 0.75 -1.25
v 0.65 -0.15 -1.25
v 0.65 -0.05 -1.25
v 0.85 -0.15 -1.25
v 0.85 -0.05 -1.25
v 0.05 -0.65 -1.45
v 0.05 -0.45 -1.45
v 0.05 -0.25 -1.45
v 0.05 -0.15 -1.45
v 0.05 -0.05 -1.45
v 0.05 0.05 -1.45
v 0.05 0.15 -1.45
v 0.05 0.25 -1.45
v 0.05 0.35 -1.45
v 0.05 0.45 -1.45
v 0.05 0.55 -1.45
v 0.05 0.65 -1.45
v 0.15 -0.25 -1.45
v 0.15 -0.15 -1.45
v 0.25 -0.25 -1.45
v 0.25 -0.15 -1.45
v 0.35 -0.45 -1.45
v 0.35 -0.35 -1.45
v 0.45 -0.25 -1.45
v 0.45 -0.15 -1.45
v 0.55 -0.45 -1.45
v 0.55 -0.35 -1.45
v 0.55 -0.15 -1.45
v 0.55 -0.05 -1.45
v 0.55 0.05 -1.45
v 0.55 0.15 -1.45
v 0.55 0.25 -1.45
v 0.55 0.35 -1.45
v 0.55 0.45 -1.45
v 0.65 -0.65 -1.45
v 0.65 -0.45 -1.45
v 0.65 -0.35 -1.45
v 0.65 -0.15 -1.45
v 0.65 0.55 -1.45
v 0.65 0.65 -1.45
v 0.05 -0.65 -0.05
v 0.55 -0.65 -0.05
v 0.65 -0.65 -0.05
v 0.55 -0.65 -0.65
v 0.65 -0.65 -0.65
v 0.55 -0.65 -1.15
v 0.65 -0.65 -1.15
v 0.55 -0.65 -1.25
v 0.65 -0.65 -1.25
v 0.05 -0.65 -1.35
v 0.55 -0.65 -1.35
v 0.05 -0.65 -1.45
v 0.65 -0.65 -1.45
v 0.05 -0.35 -0.25
v 0.45 -0.35 -0.25
v 0.05 -0.35 -0.35
v 0.45 -0.35 -0.35
v 0.55 -0.35 -0.65
v 0.65 -0.35 -0.65
v 0.55 -0.35 -0.75
v 0.65 -0.35 -0.75
v 0.55 -0.35 -1.05
v 0.65 -0.35 -1.05
v 0.55 -0.35 -1.15
v 0.65 -0.35 -1.15
v 0.55 -0.25 -0.75
v 0.65 -0.25 -0.75
v 0.55 -0.25 -1.05
v 0.65 -0.25 -1.05
v 0.65 -0.15 -0.35
v 0.85 -0.15 -0.35
v 0.65 -0.15 -0.45
v 0.65 -0.15 -1.25
v 0.85 -0.15 -1.25
v 0.05 -0.55 -0.25
v 0.45 -0.55 -0.25
v 0.05 -0.55 -0.35
v 0.45 -0.55 -0.35
v 0.65 -0.05 -0.35
v 0.85 -0.05 -0.35
v 0.65 -0.05 -0.45
v 0.65 -0.05 -0.75
v 0.65 -0.05 -0.85
v 0.65 -0.05 -1.15
v 0.65 -0.05 -1.25
v 0.85 -0.05 -1.25
v 0.45 0.65 -0.05
v 0.65 0.65 -0.05
v 0.05 0.65 -0.15
v 0.45 0.65 -0.15
v 0.05 0.65 -0.35
v 0.45 0.65 -0.35
v 0.05 0.65 -0.75
v 0.45 0.65 -0.75
v 0.05 0.65 -0.95
v 0.45 0.65 -0.95
v 0.05 0.65 -1.25
v 0.45 0.65 -1.25
v 0.05 0.65 -1.45
v 0.65 0.65 -1.45
v 0.05 0.75 -0.05
v 0.45 0.75 -0.05
v 0.05 0.75 -0.15
v 0.45 0.75 -0.15
v 0.05 0.75 -0.35
v 0.45 0.75 -0.35
v 0.05 0.75 -0.75
v 0.45 0.75 -0.75
v 0.05 0.75 -0.95
v 0.45 0.75 -0.95
v 0.05 0.75 -1.25
v 0.45 0.75 -1.25

# faces
f 4/7/1 2/7/1 1/7/1
f 5/7/1 2/7/1 4/7/1
f 6/7/1 2/7/1 5/7/1
f 7/7/1 2/7/1 6/7/1
f 8/7/1 2/7/1 7/7/1
f 9/7/1 2/7/1 8/7/1
f 10/9/1 3/9/1 2/9/1
f 10/7/1 2/7/1 9/7/1
f 11/11/1 7/11/1 6/11/1
f 11/7/1 8/7/1 7/7/1
f 12/6/1 9/6/1 8/6/1
f 12/7/1 8/7/1 11/7/1
f 13/9/1 10/9/1 9/9/1
f 13/6/1 9/6/1 12/6/1
f 14/9/1 3/9/1 10/9/1
f 14/9/1 10/9/1 13/9/1
f 15/9/1 3/9/1 14/9/1
f 16/5/1 5/5/1 4/5/1
f 17/11/1 11/11/1 6/11/1
f 17/11/1 12/11/1 11/11/1
f 18/7/1 13/7/1 12/7/1
f 18/11/1 12/11/1 17/11/1
f 19/9/1 14/9/1 13/9/1
f 19/7/1 13/7/1 18/7/1
f 20/5/1 15/5/1 14/5/1
f 20/9/1 14/9/1 19/9/1
f 21/6/1 19/6/1 18/6/1
f 21/5/1 15/5/1 20/5/1
f 21/6/1 20/6/1 19/6/1
f 22/5/1 15/5/1 21/5/1
f 23/6/1 21/6/1 18/6/1
f 23/8/1 22/8/1 21/8/1
f 24/8/1 22/8/1 23/8/1
f 25/5/1 16/5/1 4/5/1
f 25/5/1 17/5/1 16/5/1
f 26/11/1 18/11/1 17/11/1
f 26/5/1 17/5/1 25/5/1
f 27/11/1 18/11/1 26/11/1
f 28/6/1 23/6/1 18/6/1
f 28/11/1 18/11/1 27/11/1
f 29/5/1 24/5/1 23/5/1
f 29/6/1 23/6/1 28/6/1
f 30/5/1 24/5/1 29/5/1
f 31/7/1 28/7/1 27/7/1
f 31/12/1 27/12/1 26/12/1
f 31/12/1 26/12/1 25/12/1
f 32/6/1 29/6/1 28/6/1
f 32/7/1 28/7/1 31/7/1
f 33/11/1 30/11/1 29/11/1
f 33/6/1 29/6/1 32/6/1
f 34/11/1 30/11/1 33/11/1
f 35/6/1 33/6/1 32/6/1
f 35/10/1 34/10/1 33/10/1
f 36/10/1 34/10/1 35/10/1
f 37/5/1 25/5/1 4/5/1
f 37/12/1 32/12/1 31/12/1
f 37/12/1 31/12/1 25/12/1
f 38/6/1 35/6/1 32/6/1
f 38/12/1 32/12/1 37/12/1
f 39/11/1 36/11/1 35/11/1
f 39/6/1 35/6/1 38/6/1
f 40/11/1 36/11/1 39/11/1
f 41/6/1 39/6/1 38/6/1
f 41/10/1 40/10/1 39/10/1
f 42/10/1 40/10/1 41/10/1
f 43/5/1 38/5/1 37/5/1
f 43/6/1 41/6/1 38/6/1
f 44/11/1 42/11/1 41/11/1
f 44/6/1 41/6/1 43/6/1
f 45/11/1 42/11/1 44/11/1
f 46/5/1 37/5/1 4/5/1
f 46/5/1 43/5/1 37/5/1
f 46/5/1 45/5/1 44/5/1
f 46/5/1 44/5/1 43/5/1
f 47/5/1 45/5/1 46/5/1
f 48/5/1 45/5/1 47/5/1
f 49/5/1 45/5/1 48/5/1
f 50/5/1 45/5/1 49/5/1
f 51/5/1 45/5/1 50/5/1
f 52/5/1 45/5/1 51/5/1
f 53/11/1 47/11/1 46/11/1
f 53/8/1 48/8/1 47/8/1
f 54/11/1 49/11/1 48/11/1
f 54/8/1 48/8/1 53/8/1
f 55/8/1 50/8/1 49/8/1
f 55/11/1 49/11/1 54/11/1
f 56/11/1 51/11/1 50/11/1
f 56/8/1 50/8/1 55/8/1
f 57/8/1 52/8/1 51/8/1
f 57/11/1 51/11/1 56/11/1
f 58/8/1 52/8/1 57/8/1
f 59/11/1 53/11/1 46/11/1
f 60/11/1 53/11/1 59/11/1
f 61/11/1 55/11/1 54/11/1
f 62/11/1 55/11/1 61/11/1
f 63/11/1 57/11/1 56/11/1
f 64/11/1 57/11/1 63/11/1
f 67/7/1 66/7/1 65/7/1
f 68/7/1 66/7/1 67/7/1
f 69/11/2 70/11/2 75/11/2
f 75/11/2 70/11/2 76/11/2
f 71/11/2 72/11/2 77/11/2
f 77/11/2 72/11/2 78/11/2
f 73/11/2 74/11/2 79/11/2
f 79/11/2 74/11/2 80/11/2
f 81/7/2 82/7/2 83/7/2
f 83/7/2 82/7/2 84/7/2
f 84/7/2 82/7/2 85/7/2
f 85/7/2 82/7/2 86/7/2
f 81/7/2 83/7/2 87/7/2
f 83/11/2 84/11/2 87/11/2
f 84/7/2 85/7/2 88/7/2
f 87/11/2 84/11/2 88/11/2
f 85/6/2 86/6/2 89/6/2
f 88/7/2 85/7/2 89/7/2
f 89/6/2 86/6/2 90/6/2
f 81/7/2 87/7/2 91/7/2
f 87/6/2 88/6/2 92/6/2
f 91/7/2 87/7/2 92/7/2
f 88/7/2 89/7/2 93/7/2
f 92/6/2 88/6/2 93/6/2
f 89/7/2 90/7/2 93/7/2
f 93/7/2 90/7/2 94/7/2
f 94/7/2 90/7/2 95/7/2
f 92/11/2 93/11/2 96/11/2
f 93/11/2 94/11/2 96/11/2
f 96/11/2 94/11/2 97/11/2
f 100/5/2 101/5/2 103/5/2
f 101/9/2 102/9/2 103/9/2
f 103/9/2 102/9/2 104/9/2
f 98/2/2 99/2/2 105/2/2
f 105/2/2 99/2/2 106/2/2
f 100/5/2 103/5/2 109/5/2
f 103/5/2 104/5/2 109/5/2
f 109/5/2 104/5/2 110/5/2
f 110/5/2 104/5/2 111/5/2
f 98/2/2 105/2/2 112/2/2
f 106/5/2 107/5/2 113/5/2
f 112/2/2 105/2/2 113/2/2
f 105/5/2 106/5/2 113/5/2
f 113/5/2 107/5/2 114/5/2
f 108/5/2 109/5/2 115/5/2
f 109/5/2 110/5/2 115/5/2
f 98/2/2 112/2/2 116/2/2
f 116/2/2 112/2/2 117/2/2
f 114/5/2 115/5/2 118/5/2
f 117/2/2 112/2/2 118/2/2
f 113/5/2 114/5/2 118/5/2
f 112/5/2 113/5/2 118/5/2
f 115/5/2 110/5/2 119/5/2
f 118/5/2 115/5/2 119/5/2
f 110/3/2 111/3/2 120/3/2
f 119/5/2 110/5/2 120/5/2
f 120/3/2 111/3/2 121/3/2
f 116/4/2 117/4/2 122/4/2
f 122/4/2 117/4/2 123/4/2
f 123/4/2 117/4/2 124/4/2
f 120/5/2 121/5/2 129/5/2
f 119/5/2 120/5/2 129/5/2
f 122/1/2 123/1/2 130/1/2
f 123/4/2 124/4/2 131/4/2
f 130/1/2 123/1/2 131/1/2
f 124/11/2 125/11/2 132/11/2
f 125/12/2 126/12/2 132/12/2
f 126/11/2 127/11/2 133/11/2
f 132/12/2 126/12/2 133/12/2
f 127/12/2 128/12/2 134/12/2
f 133/11/2 127/11/2 134/11/2
f 128/11/2 129/11/2 135/11/2
f 134/12/2 128/12/2 135/12/2
f 130/4/2 131/4/2 136/4/2
f 132/11/2 133/11/2 137/11/2
f 136/4/2 131/4/2 137/4/2
f 124/11/2 132/11/2 137/11/2
f 134/11/2 135/11/2 137/11/2
f 133/11/2 134/11/2 137/11/2
f 131/4/2 124/4/2 137/4/2
f 129/5/2 121/5/2 138/5/2
f 137/11/2 135/11/2 138/11/2
f 135/11/2 129/11/2 138/11/2
f 136/5/2 137/5/2 139/5/2
f 137/5/2 138/5/2 139/5/2
f 138/5/2 121/5/2 140/5/2
f 139/5/2 138/5/2 140/5/2
f 139/8/2 140/8/2 141/8/2
f 141/8/2 140/8/2 142/8/2
f 143/11/2 144/11/2 145/11/2
f 145/11/2 144/11/2 146/11/2
f 151/5/3 149/5/3 148/5/3
f 151/11/3 150/11/3 149/11/3
f 152/11/3 150/11/3 151/11/3
f 153/11/3 150/11/3 152/11/3
f 154/7/3 148/7/3 147/7/3
f 155/5/3 151/5/3 148/5/3
f 155/7/3 148/7/3 154/7/3
f 156/5/3 151/5/3 155/5/3
f 157/5/3 151/5/3 156/5/3
f 158/5/3 151/5/3 157/5/3
f 159/5/3 151/5/3 158/5/3
f 160/2/3 155/2/3 154/2/3
f 160/2/3 156/2/3 155/2/3
f 161/4/3 157/4/3 156/4/3
f 161/2/3 156/2/3 160/2/3
f 162/1/3 158/1/3 157/1/3
f 162/4/3 157/4/3 161/4/3
f 163/4/3 159/4/3 158/4/3
f 163/1/3 158/1/3 162/1/3
f 164/5/3 151/5/3 159/5/3
f 164/4/3 159/4/3 163/4/3
f 165/8/3 152/8/3 151/8/3
f 165/5/3 151/5/3 164/5/3
f 166/8/3 152/8/3 165/8/3
f 171/11/3 168/11/3 167/11/3
f 172/11/3 168/11/3 171/11/3
f 173/11/3 170/11/3 169/11/3
f 174/11/3 170/11/3 173/11/3
f 177/11/3 176/11/3 175/11/3
f 178/11/3 176/11/3 177/11/3
f 181/11/3 180/11/3 179/11/3
f 182/11/3 180/11/3 181/11/3
f 185/5/3 184/5/3 183/5/3
f 186/5/3 184/5/3 185/5/3
f 191/5/3 188/5/3 187/5/3
f 191/5/3 190/5/3 189/5/3
f 191/5/3 189/5/3 188/5/3
f 192/5/3 190/5/3 191/5/3
f 193/11/4 194/11/4 195/11/4
f 195/11/4 194/11/4 196/11/4
f 197/5/4 198/5/4 199/5/4
f 199/5/4 198/5/4 200/5/4
f 201/2/4 202/2/4 203/2/4
f 203/2/4 202/2/4 204/2/4
f 205/11/4 206/11/4 207/11/4
f 207/11/4 206/11/4 208/11/4
f 209/5/4 210/5/4 211/5/4
f 211/5/4 210/5/4 212/5/4
f 213/11/4 214/11/4 215/11/4
f 215/11/4 214/11/4 216/11/4
f 217/11/4 218/11/4 219/11/4
f 219/11/4 218/11/4 220/11/4
f 222/5/4 223/5/4 233/5/4
f 223/8/4 224/8/4 233/8/4
f 224/5/4 225/5/4 234/5/4
f 233/8/4 224/8/4 234/8/4
f 222/5/4 233/5/4 235/5/4
f 233/5/4 234/5/4 235/5/4
f 234/5/4 225/5/4 236/5/4
f 235/5/4 234/5/4 236/5/4
f 221/9/4 222/9/4 237/9/4
f 222/5/4 235/5/4 237/5/4
f 237/5/4 235/5/4 238/5/4
f 235/8/4 236/8/4 239/8/4
f 238/5/4 235/5/4 239/5/4
f 236/5/4 225/5/4 240/5/4
f 239/8/4 236/8/4 240/8/4
f 237/6/4 238/6/4 241/6/4
f 221/9/4 237/9/4 241/9/4
f 238/5/4 239/5/4 242/5/4
f 241/6/4 238/6/4 242/6/4
f 239/5/4 240/5/4 242/5/4
f 240/5/4 225/5/4 243/5/4
f 242/5/4 240/5/4 243/5/4
f 225/11/4 226/11/4 244/11/4
f 243/5/4 225/5/4 244/5/4
f 226/10/4 227/10/4 245/10/4
f 244/11/4 226/11/4 245/11/4
f 227/11/4 228/11/4 246/11/4
f 245/10/4 227/10/4 246/10/4
f 228/10/4 229/10/4 247/10/4
f 246/11/4 228/11/4 247/11/4
f 229/11/4 230/11/4 248/11/4
f 247/10/4 229/10/4 248/10/4
f 230/5/4 231/5/4 249/5/4
f 248/11/4 230/11/4 249/11/4
f 221/9/4 241/9/4 250/9/4
f 241/5/4 242/5/4 251/5/4
f 250/9/4 241/9/4 251/9/4
f 242/3/4 243/3/4 252/3/4
f 251/5/4 242/5/4 252/5/4
f 247/5/4 248/5/4 253/5/4
f 252/3/4 243/3/4 253/3/4
f 243/5/4 244/5/4 253/5/4
f 248/5/4 249/5/4 253/5/4
f 246/5/4 247/5/4 253/5/4
f 245/5/4 246/5/4 253/5/4
f 244/5/4 245/5/4 253/5/4
f 249/5/4 231/5/4 254/5/4
f 253/5/4 249/5/4 254/5/4
f 231/8/4 232/8/4 254/8/4
f 254/8/4 232/8/4 255/8/4
f 259/7/5 257/7/5 256/7/5
f 259/2/5 258/2/5 257/2/5
f 260/2/5 258/2/5 259/2/5
f 261/7/5 259/7/5 256/7/5
f 263/7/5 261/7/5 256/7/5
f 263/5/5 262/5/5 261/5/5
f 264/5/5 262/5/5 263/5/5
f 265/7/5 263/7/5 256/7/5
f 266/9/5 264/9/5 263/9/5
f 266/7/5 263/7/5 265/7/5
f 267/9/5 266/9/5 265/9/5
f 268/9/5 264/9/5 266/9/5
f 268/9/5 266/9/5 267/9/5
f 271/5/5 270/5/5 269/5/5
f 272/5/5 270/5/5 271/5/5
f 275/5/5 274/5/5 273/5/5
f 276/5/5 274/5/5 275/5/5
f 279/5/5 278/5/5 277/5/5
f 280/5/5 278/5/5 279/5/5
f 283/5/5 282/5/5 281/5/5
f 284/5/5 282/5/5 283/5/5
f 287/11/5 286/11/5 285/11/5
f 288/11/5 286/11/5 287/11/5
f 289/11/5 286/11/5 288/11/5
f 290/7/6 291/7/6 292/7/6
f 292/7/6 291/7/6 293/7/6
f 294/11/6 295/11/6 296/11/6
f 296/11/6 295/11/6 297/11/6
f 297/11/6 295/11/6 298/11/6
f 298/11/6 295/11/6 299/11/6
f 299/11/6 295/11/6 300/11/6
f 300/11/6 295/11/6 301/11/6
f 302/8/6 303/8/6 305/8/6
f 304/8/6 305/8/6 306/8/6
f 305/8/6 303/8/6 307/8/6
f 306/8/6 305/8/6 307/8/6
f 307/8/6 303/8/6 309/8/6
f 308/8/6 309/8/6 310/8/6
f 309/8/6 303/8/6 311/8/6
f 310/8/6 309/8/6 311/8/6
f 311/8/6 303/8/6 313/8/6
f 312/8/6 313/8/6 314/8/6
f 313/8/6 303/8/6 315/8/6
f 314/8/6 313/8/6 315/8/6
f 316/11/6 317/11/6 318/11/6
f 318/11/6 317/11/6 319/11/6
f 320/11/6 321/11/6 322/11/6
f 322/11/6 321/11/6 323/11/6
f 324/11/6 325/11/6 326/11/6
f 326/11/6 325/11/6 327/11/6
