# MagicaVoxel @ Ephtracy

# group
o 

# material
mtllib vanTopRight.mtl
usemtl palette

# normals
vn -1 0 0
vn 1 0 0
vn 0 0 1
vn 0 0 -1
vn 0 -1 0
vn 0 1 0

# texcoords
vt 0.0410156 0.5
vt 0.138672 0.5
vt 0.587891 0.5
vt 0.615234 0.5
vt 0.958984 0.5
vt 0.966797 0.5
vt 0.970703 0.5
vt 0.978516 0.5
vt 0.986328 0.5
vt 0.990234 0.5

# verts
v -0.75 -0.05 1.05
v -0.75 -0.05 0.95
v -0.75 0.15 1.05
v -0.75 0.15 0.95
v -0.65 -0.65 1.45
v -0.65 -0.65 1.25
v -0.65 -0.65 0.75
v -0.65 -0.65 0.25
v -0.65 -0.65 -0.05
v -0.65 -0.55 0.55
v -0.65 -0.55 0.25
v -0.65 -0.55 0.15
v -0.65 -0.45 1.45
v -0.65 -0.45 1.25
v -0.65 -0.35 1.25
v -0.65 -0.35 1.15
v -0.65 -0.35 0.85
v -0.65 -0.35 0.75
v -0.65 -0.25 1.15
v -0.65 -0.25 0.85
v -0.65 -0.25 0.65
v -0.65 -0.25 0.55
v -0.65 -0.15 0.75
v -0.65 -0.15 0.65
v -0.65 -0.15 0.0500001
v -0.65 -0.15 -0.05
v -0.65 -0.05 1.05
v -0.65 -0.05 0.95
v -0.65 -0.05 0.75
v -0.65 -0.05 0.65
v -0.65 0.05 1.45
v -0.65 0.05 1.15
v -0.65 0.15 1.15
v -0.65 0.15 1.05
v -0.65 0.15 0.95
v -0.65 0.35 0.15
v -0.65 0.35 0.0500001
v -0.65 0.45 1.15
v -0.65 0.45 1.05
v -0.65 0.45 0.65
v -0.65 0.45 0.55
v -0.65 0.45 0.15
v -0.65 0.45 0.0500001
v -0.65 0.45 -0.05
v -0.55 -0.65 1.25
v -0.55 -0.65 0.75
v -0.55 -0.55 0.95
v -0.55 -0.55 0.85
v -0.55 -0.45 1.25
v -0.55 -0.45 1.15
v -0.55 -0.45 0.85
v -0.55 -0.45 0.75
v -0.55 -0.35 1.25
v -0.55 -0.35 1.15
v -0.55 -0.35 0.95
v -0.55 -0.35 0.85
v -0.55 -0.35 0.75
v -0.55 -0.25 1.15
v -0.55 -0.25 0.85
v 0.05 -0.65 1.45
v 0.05 -0.65 1.35
v 0.05 -0.65 -0.05
v 0.05 -0.55 1.35
v 0.05 -0.55 1.25
v 0.05 -0.55 0.95
v 0.05 -0.55 0.25
v 0.05 -0.55 -0.05
v 0.05 -0.45 1.45
v 0.05 -0.45 1.25
v 0.05 -0.45 1.15
v 0.05 -0.45 0.95
v 0.05 -0.35 1.35
v 0.05 -0.35 1.15
v 0.05 -0.35 0.35
v 0.05 -0.35 0.25
v 0.05 -0.25 1.35
v 0.05 -0.25 1.25
v 0.05 -0.25 1.15
v 0.05 -0.15 1.45
v 0.05 -0.15 1.35
v 0.05 -0.15 1.25
v 0.05 -0.15 0.55
v 0.05 -0.15 0.35
v 0.05 -0.05 1.05
v 0.05 -0.05 0.55
v 0.05 -0.05 0.35
v 0.05 -0.05 0.25
v 0.05 -0.05 0.15
v 0.05 0.05 1.45
v 0.05 0.05 1.15
v 0.05 0.05 1.05
v 0.05 0.25 0.95
v 0.05 0.25 0.15
v 0.05 0.45 1.15
v 0.05 0.45 0.95
v 0.05 0.45 -0.05
v -0.65 -0.65 1.45
v -0.65 -0.45 1.45
v -0.65 0.05 1.45
v -0.55 -0.35 1.45
v -0.55 -0.15 1.45
v -0.35 -0.35 1.45
v -0.35 -0.15 1.45
v -0.25 -0.45 1.45
v -0.25 -0.15 1.45
v 0.05 -0.65 1.45
v 0.05 -0.45 1.45
v 0.05 -0.15 1.45
v 0.05 0.05 1.45
v -0.65 0.05 1.15
v -0.65 0.15 1.15
v -0.65 0.45 1.15
v -0.55 0.05 1.15
v -0.55 0.15 1.15
v -0.55 0.45 1.15
v 0.05 0.05 1.15
v 0.05 0.45 1.15
v -0.75 -0.05 1.05
v -0.75 0.15 1.05
v -0.65 -0.05 1.05
v -0.65 0.15 1.05
v -0.65 -0.35 0.85
v -0.65 -0.25 0.85
v -0.55 -0.35 0.85
v -0.55 -0.25 0.85
v -0.65 -0.65 0.75
v -0.65 -0.35 0.75
v -0.55 -0.65 0.75
v -0.55 -0.45 0.75
v -0.55 -0.35 0.75
v -0.65 -0.65 1.25
v -0.65 -0.45 1.25
v -0.65 -0.35 1.25
v -0.55 -0.65 1.25
v -0.55 -0.45 1.25
v -0.55 -0.35 1.25
v -0.65 -0.35 1.15
v -0.65 -0.25 1.15
v -0.55 -0.35 1.15
v -0.55 -0.25 1.15
v -0.75 -0.05 0.95
v -0.75 0.15 0.95
v -0.65 -0.05 0.95
v -0.65 0.15 0.95
v -0.65 -0.65 -0.05
v -0.65 -0.15 -0.05
v -0.65 0.45 -0.05
v -0.55 -0.65 -0.05
v -0.55 -0.55 -0.05
v -0.55 -0.15 -0.05
v -0.55 0.45 -0.05
v 0.05 -0.65 -0.05
v 0.05 -0.55 -0.05
v 0.05 0.45 -0.05
v -0.65 -0.65 1.45
v 0.05 -0.65 1.45
v -0.55 -0.65 1.35
v 0.05 -0.65 1.35
v -0.65 -0.65 1.25
v -0.55 -0.65 1.25
v -0.65 -0.65 0.75
v -0.55 -0.65 0.75
v -0.65 -0.65 0.25
v -0.55 -0.65 0.25
v -0.65 -0.65 -0.05
v -0.55 -0.65 -0.05
v 0.05 -0.65 -0.05
v -0.65 -0.35 1.25
v -0.55 -0.35 1.25
v -0.65 -0.35 1.15
v -0.55 -0.35 1.15
v -0.65 -0.35 0.85
v -0.55 -0.35 0.85
v -0.65 -0.35 0.75
v -0.55 -0.35 0.75
v -0.65 -0.25 1.15
v -0.55 -0.25 1.15
v -0.65 -0.25 0.85
v -0.55 -0.25 0.85
v -0.75 -0.05 1.05
v -0.65 -0.05 1.05
v -0.75 -0.05 0.95
v -0.65 -0.05 0.95
v -0.65 0.05 1.45
v 0.05 0.05 1.45
v -0.65 0.05 1.15
v -0.55 0.05 1.15
v 0.05 0.05 1.15
v -0.75 0.15 1.05
v -0.65 0.15 1.05
v -0.75 0.15 0.95
v -0.65 0.15 0.95
v -0.65 0.45 1.15
v -0.55 0.45 1.15
v 0.05 0.45 1.15
v -0.65 0.45 1.05
v -0.55 0.45 1.05
v -0.55 0.45 0.95
v 0.05 0.45 0.95
v -0.65 0.45 0.65
v -0.55 0.45 0.65
v -0.65 0.45 0.55
v -0.55 0.45 0.55
v -0.65 0.45 0.15
v -0.55 0.45 0.15
v -0.65 0.45 0.0500001
v -0.55 0.45 0.0500001
v -0.65 0.45 -0.05
v -0.55 0.45 -0.05
v 0.05 0.45 -0.05

# faces
f 3/4/1 2/4/1 1/4/1
f 4/4/1 2/4/1 3/4/1
f 10/4/1 8/4/1 7/4/1
f 11/1/1 9/1/1 8/1/1
f 11/4/1 8/4/1 10/4/1
f 12/1/1 9/1/1 11/1/1
f 13/8/1 6/8/1 5/8/1
f 14/8/1 6/8/1 13/8/1
f 15/4/1 14/4/1 13/4/1
f 18/4/1 10/4/1 7/4/1
f 19/4/1 16/4/1 15/4/1
f 20/4/1 18/4/1 17/4/1
f 21/4/1 10/4/1 18/4/1
f 21/4/1 18/4/1 20/4/1
f 22/10/1 11/10/1 10/10/1
f 22/4/1 10/4/1 21/4/1
f 22/10/1 12/10/1 11/10/1
f 23/4/1 21/4/1 20/4/1
f 23/4/1 20/4/1 19/4/1
f 24/1/1 22/1/1 21/1/1
f 24/4/1 21/4/1 23/4/1
f 25/1/1 9/1/1 12/1/1
f 26/1/1 9/1/1 25/1/1
f 27/4/1 23/4/1 19/4/1
f 28/4/1 23/4/1 27/4/1
f 29/1/1 24/1/1 23/1/1
f 29/4/1 23/4/1 28/4/1
f 30/1/1 22/1/1 24/1/1
f 30/1/1 24/1/1 29/1/1
f 31/4/1 19/4/1 15/4/1
f 31/4/1 15/4/1 13/4/1
f 31/4/1 27/4/1 19/4/1
f 32/4/1 27/4/1 31/4/1
f 33/4/1 27/4/1 32/4/1
f 34/4/1 27/4/1 33/4/1
f 35/10/1 29/10/1 28/10/1
f 35/10/1 30/10/1 29/10/1
f 36/10/1 12/10/1 22/10/1
f 36/1/1 25/1/1 12/1/1
f 37/2/1 26/2/1 25/2/1
f 37/1/1 25/1/1 36/1/1
f 38/1/1 34/1/1 33/1/1
f 39/10/1 35/10/1 34/10/1
f 39/1/1 34/1/1 38/1/1
f 40/1/1 22/1/1 30/1/1
f 40/10/1 35/10/1 39/10/1
f 40/10/1 30/10/1 35/10/1
f 41/10/1 36/10/1 22/10/1
f 41/1/1 22/1/1 40/1/1
f 42/4/1 37/4/1 36/4/1
f 42/10/1 36/10/1 41/10/1
f 43/2/1 26/2/1 37/2/1
f 43/4/1 37/4/1 42/4/1
f 44/2/1 26/2/1 43/2/1
f 47/7/1 46/7/1 45/7/1
f 48/7/1 46/7/1 47/7/1
f 49/7/1 47/7/1 45/7/1
f 50/7/1 47/7/1 49/7/1
f 51/7/1 46/7/1 48/7/1
f 51/9/1 48/9/1 47/9/1
f 52/7/1 46/7/1 51/7/1
f 53/6/1 50/6/1 49/6/1
f 54/7/1 47/7/1 50/7/1
f 54/6/1 50/6/1 53/6/1
f 55/9/1 51/9/1 47/9/1
f 55/7/1 47/7/1 54/7/1
f 56/6/1 52/6/1 51/6/1
f 56/9/1 51/9/1 55/9/1
f 57/6/1 52/6/1 56/6/1
f 58/6/1 55/6/1 54/6/1
f 58/6/1 56/6/1 55/6/1
f 59/6/1 56/6/1 58/6/1
f 60/8/2 61/8/2 63/8/2
f 61/7/2 62/7/2 63/7/2
f 63/7/2 62/7/2 64/7/2
f 64/7/2 62/7/2 65/7/2
f 65/7/2 62/7/2 66/7/2
f 66/7/2 62/7/2 67/7/2
f 60/8/2 63/8/2 68/8/2
f 63/8/2 64/8/2 68/8/2
f 64/7/2 65/7/2 69/7/2
f 68/8/2 64/8/2 69/8/2
f 69/7/2 65/7/2 70/7/2
f 65/9/2 66/9/2 71/9/2
f 70/7/2 65/7/2 71/7/2
f 69/7/2 70/7/2 72/7/2
f 68/7/2 69/7/2 72/7/2
f 70/9/2 71/9/2 73/9/2
f 72/7/2 70/7/2 73/7/2
f 71/9/2 66/9/2 74/9/2
f 73/9/2 71/9/2 74/9/2
f 66/4/2 67/4/2 75/4/2
f 74/9/2 66/9/2 75/9/2
f 72/8/2 73/8/2 76/8/2
f 68/7/2 72/7/2 76/7/2
f 76/8/2 73/8/2 77/8/2
f 73/9/2 74/9/2 78/9/2
f 77/8/2 73/8/2 78/8/2
f 68/7/2 76/7/2 79/7/2
f 76/4/2 77/4/2 80/4/2
f 79/7/2 76/7/2 80/7/2
f 77/9/2 78/9/2 81/9/2
f 80/4/2 77/4/2 81/4/2
f 78/9/2 74/9/2 82/9/2
f 81/9/2 78/9/2 82/9/2
f 74/7/2 75/7/2 83/7/2
f 82/9/2 74/9/2 83/9/2
f 81/4/2 82/4/2 84/4/2
f 80/4/2 81/4/2 84/4/2
f 79/4/2 80/4/2 84/4/2
f 82/3/2 83/3/2 85/3/2
f 84/4/2 82/4/2 85/4/2
f 83/7/2 75/7/2 86/7/2
f 85/3/2 83/3/2 86/3/2
f 75/4/2 67/4/2 87/4/2
f 86/7/2 75/7/2 87/7/2
f 87/4/2 67/4/2 88/4/2
f 79/4/2 84/4/2 89/4/2
f 89/4/2 84/4/2 90/4/2
f 85/10/2 86/10/2 91/10/2
f 90/4/2 84/4/2 91/4/2
f 84/10/2 85/10/2 91/10/2
f 86/10/2 87/10/2 91/10/2
f 87/10/2 88/10/2 91/10/2
f 91/10/2 88/10/2 92/10/2
f 90/10/2 91/10/2 92/10/2
f 88/4/2 67/4/2 93/4/2
f 92/10/2 88/10/2 93/10/2
f 90/10/2 92/10/2 94/10/2
f 92/4/2 93/4/2 95/4/2
f 94/10/2 92/10/2 95/10/2
f 93/4/2 67/4/2 96/4/2
f 95/4/2 93/4/2 96/4/2
f 100/4/3 99/4/3 98/4/3
f 101/4/3 99/4/3 100/4/3
f 102/4/3 100/4/3 98/4/3
f 102/5/3 101/5/3 100/5/3
f 103/4/3 99/4/3 101/4/3
f 103/5/3 101/5/3 102/5/3
f 104/8/3 98/8/3 97/8/3
f 104/4/3 102/4/3 98/4/3
f 104/4/3 103/4/3 102/4/3
f 105/4/3 99/4/3 103/4/3
f 105/4/3 103/4/3 104/4/3
f 106/8/3 104/8/3 97/8/3
f 107/7/3 105/7/3 104/7/3
f 107/8/3 104/8/3 106/8/3
f 108/4/3 99/4/3 105/4/3
f 108/7/3 105/7/3 107/7/3
f 109/4/3 99/4/3 108/4/3
f 113/4/3 111/4/3 110/4/3
f 114/1/3 112/1/3 111/1/3
f 114/4/3 111/4/3 113/4/3
f 115/1/3 112/1/3 114/1/3
f 116/10/3 114/10/3 113/10/3
f 116/10/3 115/10/3 114/10/3
f 117/10/3 115/10/3 116/10/3
f 120/4/3 119/4/3 118/4/3
f 121/4/3 119/4/3 120/4/3
f 124/4/3 123/4/3 122/4/3
f 125/4/3 123/4/3 124/4/3
f 128/4/3 127/4/3 126/4/3
f 129/4/3 127/4/3 128/4/3
f 130/4/3 127/4/3 129/4/3
f 131/8/4 132/8/4 134/8/4
f 132/4/4 133/4/4 135/4/4
f 134/8/4 132/8/4 135/8/4
f 135/4/4 133/4/4 136/4/4
f 137/4/4 138/4/4 139/4/4
f 139/4/4 138/4/4 140/4/4
f 141/4/4 142/4/4 143/4/4
f 143/4/4 142/4/4 144/4/4
f 145/1/4 146/1/4 148/1/4
f 148/1/4 146/1/4 149/1/4
f 146/2/4 147/2/4 150/2/4
f 149/1/4 146/1/4 150/1/4
f 150/2/4 147/2/4 151/2/4
f 148/7/4 149/7/4 152/7/4
f 149/4/4 150/4/4 153/4/4
f 152/7/4 149/7/4 153/7/4
f 150/4/4 151/4/4 153/4/4
f 153/4/4 151/4/4 154/4/4
f 157/8/5 156/8/5 155/8/5
f 158/8/5 156/8/5 157/8/5
f 159/8/5 157/8/5 155/8/5
f 160/7/5 158/7/5 157/7/5
f 160/8/5 157/8/5 159/8/5
f 162/7/5 158/7/5 160/7/5
f 163/4/5 162/4/5 161/4/5
f 164/7/5 158/7/5 162/7/5
f 164/4/5 162/4/5 163/4/5
f 165/1/5 164/1/5 163/1/5
f 166/7/5 158/7/5 164/7/5
f 166/1/5 164/1/5 165/1/5
f 167/7/5 158/7/5 166/7/5
f 170/4/5 169/4/5 168/4/5
f 171/4/5 169/4/5 170/4/5
f 174/4/5 173/4/5 172/4/5
f 175/4/5 173/4/5 174/4/5
f 178/4/5 177/4/5 176/4/5
f 179/4/5 177/4/5 178/4/5
f 182/4/5 181/4/5 180/4/5
f 183/4/5 181/4/5 182/4/5
f 184/4/6 185/4/6 186/4/6
f 186/4/6 185/4/6 187/4/6
f 187/4/6 185/4/6 188/4/6
f 189/4/6 190/4/6 191/4/6
f 191/4/6 190/4/6 192/4/6
f 193/1/6 194/1/6 196/1/6
f 194/10/6 195/10/6 197/10/6
f 196/1/6 194/1/6 197/1/6
f 196/10/6 197/10/6 198/10/6
f 197/10/6 195/10/6 198/10/6
f 198/10/6 195/10/6 199/10/6
f 196/10/6 198/10/6 200/10/6
f 198/4/6 199/4/6 201/4/6
f 200/10/6 198/10/6 201/10/6
f 200/1/6 201/1/6 202/1/6
f 201/4/6 199/4/6 203/4/6
f 202/1/6 201/1/6 203/1/6
f 202/10/6 203/10/6 204/10/6
f 203/4/6 199/4/6 205/4/6
f 204/10/6 203/10/6 205/10/6
f 204/4/6 205/4/6 206/4/6
f 205/4/6 199/4/6 207/4/6
f 206/4/6 205/4/6 207/4/6
f 206/2/6 207/2/6 208/2/6
f 207/4/6 199/4/6 209/4/6
f 208/2/6 207/2/6 209/2/6
f 209/4/6 199/4/6 210/4/6
