# MagicaVoxel @ Ephtracy

# group
o 

# material
mtllib vanTopLeft.mtl
usemtl palette

# normals
vn -1 0 0
vn 1 0 0
vn 0 0 1
vn 0 0 -1
vn 0 -1 0
vn 0 1 0

# texcoords
vt 0.0410156 0.5
vt 0.138672 0.5
vt 0.587891 0.5
vt 0.615234 0.5
vt 0.958984 0.5
vt 0.966797 0.5
vt 0.970703 0.5
vt 0.974609 0.5
vt 0.978516 0.5
vt 0.986328 0.5
vt 0.990234 0.5

# verts
v -0.05 -0.65 1.45
v -0.05 -0.65 1.35
v -0.05 -0.65 -0.05
v -0.05 -0.55 1.35
v -0.05 -0.55 1.25
v -0.05 -0.55 0.95
v -0.05 -0.55 0.25
v -0.05 -0.55 -0.05
v -0.05 -0.45 1.45
v -0.05 -0.45 1.25
v -0.05 -0.45 1.15
v -0.05 -0.45 0.95
v -0.05 -0.35 1.35
v -0.05 -0.35 1.15
v -0.05 -0.35 0.35
v -0.05 -0.35 0.25
v -0.05 -0.25 1.35
v -0.05 -0.25 1.25
v -0.05 -0.25 1.15
v -0.05 -0.15 1.45
v -0.05 -0.15 1.35
v -0.05 -0.15 1.25
v -0.05 -0.15 0.55
v -0.05 -0.15 0.35
v -0.05 -0.05 1.05
v -0.05 -0.05 0.55
v -0.05 -0.05 0.35
v -0.05 -0.05 0.25
v -0.05 -0.05 0.15
v -0.05 0.05 1.45
v -0.05 0.05 1.15
v -0.05 0.05 1.05
v -0.05 0.25 0.95
v -0.05 0.25 0.15
v -0.05 0.45 1.15
v -0.05 0.45 0.95
v -0.05 0.55 1.15
v -0.05 0.55 0.25
v -0.05 0.55 -0.05
v -0.05 0.65 1.15
v -0.05 0.65 0.25
v -0.05 0.75 0.25
v -0.05 0.75 -0.05
v 0.45 0.65 0.25
v 0.45 0.65 -0.05
v 0.45 0.75 0.25
v 0.45 0.75 -0.05
v 0.55 -0.65 1.25
v 0.55 -0.65 0.75
v 0.55 -0.55 0.95
v 0.55 -0.55 0.85
v 0.55 -0.45 1.25
v 0.55 -0.45 1.15
v 0.55 -0.45 0.85
v 0.55 -0.45 0.75
v 0.55 -0.35 1.25
v 0.55 -0.35 1.15
v 0.55 -0.35 0.95
v 0.55 -0.35 0.85
v 0.55 -0.35 0.75
v 0.55 -0.25 1.15
v 0.55 -0.25 0.85
v 0.65 -0.65 1.45
v 0.65 -0.65 1.25
v 0.65 -0.65 0.75
v 0.65 -0.65 0.25
v 0.65 -0.65 -0.05
v 0.65 -0.55 0.55
v 0.65 -0.55 0.25
v 0.65 -0.55 0.15
v 0.65 -0.45 1.45
v 0.65 -0.45 1.25
v 0.65 -0.35 1.25
v 0.65 -0.35 1.15
v 0.65 -0.35 0.85
v 0.65 -0.35 0.75
v 0.65 -0.25 1.15
v 0.65 -0.25 0.85
v 0.65 -0.25 0.65
v 0.65 -0.25 0.55
v 0.65 -0.15 0.75
v 0.65 -0.15 0.65
v 0.65 -0.15 0.0500001
v 0.65 -0.15 -0.05
v 0.65 -0.05 1.05
v 0.65 -0.05 0.95
v 0.65 -0.05 0.75
v 0.65 -0.05 0.65
v 0.65 0.05 1.45
v 0.65 0.05 1.15
v 0.65 0.15 1.15
v 0.65 0.15 1.05
v 0.65 0.15 0.95
v 0.65 0.35 0.15
v 0.65 0.35 0.0500001
v 0.65 0.45 1.05
v 0.65 0.45 0.65
v 0.65 0.45 0.55
v 0.65 0.45 0.25
v 0.65 0.45 0.15
v 0.65 0.45 0.0500001
v 0.65 0.45 -0.05
v 0.65 0.55 1.15
v 0.65 0.55 0.25
v 0.65 0.55 -0.05
v 0.65 0.65 1.15
v 0.65 0.65 -0.05
v 0.75 -0.05 1.05
v 0.75 -0.05 0.95
v 0.75 0.15 1.05
v 0.75 0.15 0.95
v -0.05 -0.65 1.45
v -0.05 -0.45 1.45
v -0.05 -0.15 1.45
v -0.05 0.05 1.45
v 0.25 -0.45 1.45
v 0.25 -0.15 1.45
v 0.35 -0.35 1.45
v 0.35 -0.15 1.45
v 0.55 -0.35 1.45
v 0.55 -0.15 1.45
v 0.65 -0.65 1.45
v 0.65 -0.45 1.45
v 0.65 0.05 1.45
v -0.05 0.05 1.15
v -0.05 0.45 1.15
v -0.05 0.55 1.15
v -0.05 0.65 1.15
v 0.25 0.45 1.15
v 0.25 0.55 1.15
v 0.55 0.05 1.15
v 0.55 0.15 1.15
v 0.55 0.45 1.15
v 0.65 0.05 1.15
v 0.65 0.15 1.15
v 0.65 0.55 1.15
v 0.65 0.65 1.15
v 0.65 -0.05 1.05
v 0.65 0.15 1.05
v 0.75 -0.05 1.05
v 0.75 0.15 1.05
v 0.55 -0.35 0.85
v 0.55 -0.25 0.85
v 0.65 -0.35 0.85
v 0.65 -0.25 0.85
v 0.55 -0.65 0.75
v 0.55 -0.45 0.75
v 0.55 -0.35 0.75
v 0.65 -0.65 0.75
v 0.65 -0.35 0.75
v -0.05 0.65 0.25
v -0.05 0.75 0.25
v 0.45 0.65 0.25
v 0.45 0.75 0.25
v 0.55 -0.65 1.25
v 0.55 -0.45 1.25
v 0.55 -0.35 1.25
v 0.65 -0.65 1.25
v 0.65 -0.45 1.25
v 0.65 -0.35 1.25
v 0.55 -0.35 1.15
v 0.55 -0.25 1.15
v 0.65 -0.35 1.15
v 0.65 -0.25 1.15
v 0.65 -0.05 0.95
v 0.65 0.15 0.95
v 0.75 -0.05 0.95
v 0.75 0.15 0.95
v -0.05 -0.65 -0.05
v -0.05 -0.55 -0.05
v -0.05 0.55 -0.05
v -0.05 0.75 -0.05
v 0.45 0.55 -0.05
v 0.45 0.65 -0.05
v 0.45 0.75 -0.05
v 0.55 -0.65 -0.05
v 0.55 -0.55 -0.05
v 0.55 -0.15 -0.05
v 0.55 0.45 -0.05
v 0.65 -0.65 -0.05
v 0.65 -0.15 -0.05
v 0.65 0.45 -0.05
v 0.65 0.55 -0.05
v 0.65 0.65 -0.05
v -0.05 -0.65 1.45
v 0.65 -0.65 1.45
v -0.05 -0.65 1.35
v 0.55 -0.65 1.35
v 0.55 -0.65 1.25
v 0.65 -0.65 1.25
v 0.55 -0.65 0.75
v 0.65 -0.65 0.75
v 0.55 -0.65 0.25
v 0.65 -0.65 0.25
v -0.05 -0.65 -0.05
v 0.55 -0.65 -0.05
v 0.65 -0.65 -0.05
v 0.55 -0.35 1.25
v 0.65 -0.35 1.25
v 0.55 -0.35 1.15
v 0.65 -0.35 1.15
v 0.55 -0.35 0.85
v 0.65 -0.35 0.85
v 0.55 -0.35 0.75
v 0.65 -0.35 0.75
v 0.55 -0.25 1.15
v 0.65 -0.25 1.15
v 0.55 -0.25 0.85
v 0.65 -0.25 0.85
v 0.65 -0.05 1.05
v 0.75 -0.05 1.05
v 0.65 -0.05 0.95
v 0.75 -0.05 0.95
v -0.05 0.05 1.45
v 0.65 0.05 1.45
v -0.05 0.05 1.15
v 0.55 0.05 1.15
v 0.65 0.05 1.15
v 0.65 0.15 1.05
v 0.75 0.15 1.05
v 0.65 0.15 0.95
v 0.75 0.15 0.95
v -0.05 0.65 1.15
v 0.65 0.65 1.15
v -0.05 0.65 0.25
v 0.45 0.65 0.25
v 0.45 0.65 -0.05
v 0.65 0.65 -0.05
v -0.05 0.75 0.25
v 0.45 0.75 0.25
v -0.05 0.75 -0.05
v 0.45 0.75 -0.05

# faces
f 4/9/1 2/9/1 1/9/1
f 4/7/1 3/7/1 2/7/1
f 5/7/1 3/7/1 4/7/1
f 6/7/1 3/7/1 5/7/1
f 7/7/1 3/7/1 6/7/1
f 8/7/1 3/7/1 7/7/1
f 9/9/1 4/9/1 1/9/1
f 9/9/1 5/9/1 4/9/1
f 10/7/1 6/7/1 5/7/1
f 10/9/1 5/9/1 9/9/1
f 11/7/1 6/7/1 10/7/1
f 12/10/1 7/10/1 6/10/1
f 12/7/1 6/7/1 11/7/1
f 13/7/1 11/7/1 10/7/1
f 13/7/1 10/7/1 9/7/1
f 14/10/1 12/10/1 11/10/1
f 14/7/1 11/7/1 13/7/1
f 15/10/1 7/10/1 12/10/1
f 15/10/1 12/10/1 14/10/1
f 16/4/1 8/4/1 7/4/1
f 16/10/1 7/10/1 15/10/1
f 17/9/1 14/9/1 13/9/1
f 17/7/1 13/7/1 9/7/1
f 18/9/1 14/9/1 17/9/1
f 19/10/1 15/10/1 14/10/1
f 19/9/1 14/9/1 18/9/1
f 20/7/1 17/7/1 9/7/1
f 21/4/1 18/4/1 17/4/1
f 21/7/1 17/7/1 20/7/1
f 22/10/1 19/10/1 18/10/1
f 22/4/1 18/4/1 21/4/1
f 23/10/1 15/10/1 19/10/1
f 23/10/1 19/10/1 22/10/1
f 24/7/1 16/7/1 15/7/1
f 24/10/1 15/10/1 23/10/1
f 25/4/1 23/4/1 22/4/1
f 25/4/1 22/4/1 21/4/1
f 25/4/1 21/4/1 20/4/1
f 26/3/1 24/3/1 23/3/1
f 26/4/1 23/4/1 25/4/1
f 27/7/1 16/7/1 24/7/1
f 27/3/1 24/3/1 26/3/1
f 28/4/1 8/4/1 16/4/1
f 28/7/1 16/7/1 27/7/1
f 29/4/1 8/4/1 28/4/1
f 30/4/1 25/4/1 20/4/1
f 31/4/1 25/4/1 30/4/1
f 32/11/1 27/11/1 26/11/1
f 32/4/1 25/4/1 31/4/1
f 32/11/1 26/11/1 25/11/1
f 32/11/1 28/11/1 27/11/1
f 32/11/1 29/11/1 28/11/1
f 33/11/1 29/11/1 32/11/1
f 33/11/1 32/11/1 31/11/1
f 34/4/1 8/4/1 29/4/1
f 34/11/1 29/11/1 33/11/1
f 35/11/1 33/11/1 31/11/1
f 36/4/1 34/4/1 33/4/1
f 36/11/1 33/11/1 35/11/1
f 37/4/1 36/4/1 35/4/1
f 38/4/1 34/4/1 36/4/1
f 38/4/1 36/4/1 37/4/1
f 39/4/1 8/4/1 34/4/1
f 39/4/1 34/4/1 38/4/1
f 40/8/1 38/8/1 37/8/1
f 41/10/1 39/10/1 38/10/1
f 41/8/1 38/8/1 40/8/1
f 42/10/1 39/10/1 41/10/1
f 43/10/1 39/10/1 42/10/1
f 44/10/2 45/10/2 46/10/2
f 46/10/2 45/10/2 47/10/2
f 48/7/2 49/7/2 50/7/2
f 50/7/2 49/7/2 51/7/2
f 48/7/2 50/7/2 52/7/2
f 52/7/2 50/7/2 53/7/2
f 51/7/2 49/7/2 54/7/2
f 50/10/2 51/10/2 54/10/2
f 54/7/2 49/7/2 55/7/2
f 52/6/2 53/6/2 56/6/2
f 53/7/2 50/7/2 57/7/2
f 56/6/2 53/6/2 57/6/2
f 50/10/2 54/10/2 58/10/2
f 57/7/2 50/7/2 58/7/2
f 54/6/2 55/6/2 59/6/2
f 58/10/2 54/10/2 59/10/2
f 59/6/2 55/6/2 60/6/2
f 57/6/2 58/6/2 61/6/2
f 58/6/2 59/6/2 61/6/2
f 61/6/2 59/6/2 62/6/2
f 65/4/2 66/4/2 68/4/2
f 66/1/2 67/1/2 69/1/2
f 68/4/2 66/4/2 69/4/2
f 69/1/2 67/1/2 70/1/2
f 63/9/2 64/9/2 71/9/2
f 71/9/2 64/9/2 72/9/2
f 71/4/2 72/4/2 73/4/2
f 65/4/2 68/4/2 76/4/2
f 73/4/2 74/4/2 77/4/2
f 75/4/2 76/4/2 78/4/2
f 76/4/2 68/4/2 79/4/2
f 78/4/2 76/4/2 79/4/2
f 68/11/2 69/11/2 80/11/2
f 79/4/2 68/4/2 80/4/2
f 69/11/2 70/11/2 80/11/2
f 78/4/2 79/4/2 81/4/2
f 77/4/2 78/4/2 81/4/2
f 79/1/2 80/1/2 82/1/2
f 81/4/2 79/4/2 82/4/2
f 70/1/2 67/1/2 83/1/2
f 83/1/2 67/1/2 84/1/2
f 77/4/2 81/4/2 85/4/2
f 85/4/2 81/4/2 86/4/2
f 81/1/2 82/1/2 87/1/2
f 86/4/2 81/4/2 87/4/2
f 82/1/2 80/1/2 88/1/2
f 87/1/2 82/1/2 88/1/2
f 73/4/2 77/4/2 89/4/2
f 71/4/2 73/4/2 89/4/2
f 77/4/2 85/4/2 89/4/2
f 89/4/2 85/4/2 90/4/2
f 90/4/2 85/4/2 91/4/2
f 91/4/2 85/4/2 92/4/2
f 86/11/2 87/11/2 93/11/2
f 87/11/2 88/11/2 93/11/2
f 80/11/2 70/11/2 94/11/2
f 70/1/2 83/1/2 94/1/2
f 83/2/2 84/2/2 95/2/2
f 94/1/2 83/1/2 95/1/2
f 91/1/2 92/1/2 96/1/2
f 92/11/2 93/11/2 96/11/2
f 88/1/2 80/1/2 97/1/2
f 96/11/2 93/11/2 97/11/2
f 93/11/2 88/11/2 97/11/2
f 80/11/2 94/11/2 98/11/2
f 97/1/2 80/1/2 98/1/2
f 98/11/2 94/11/2 99/11/2
f 94/4/2 95/4/2 100/4/2
f 99/11/2 94/11/2 100/11/2
f 95/2/2 84/2/2 101/2/2
f 100/4/2 95/4/2 101/4/2
f 101/2/2 84/2/2 102/2/2
f 91/1/2 96/1/2 103/1/2
f 98/1/2 99/1/2 103/1/2
f 96/1/2 97/1/2 103/1/2
f 97/1/2 98/1/2 103/1/2
f 99/4/2 100/4/2 104/4/2
f 103/1/2 99/1/2 104/1/2
f 101/4/2 102/4/2 104/4/2
f 100/4/2 101/4/2 104/4/2
f 104/4/2 102/4/2 105/4/2
f 103/8/2 104/8/2 106/8/2
f 104/8/2 105/8/2 106/8/2
f 106/8/2 105/8/2 107/8/2
f 108/4/2 109/4/2 110/4/2
f 110/4/2 109/4/2 111/4/2
f 116/9/3 113/9/3 112/9/3
f 116/7/3 114/7/3 113/7/3
f 117/4/3 115/4/3 114/4/3
f 117/7/3 114/7/3 116/7/3
f 118/4/3 117/4/3 116/4/3
f 119/4/3 115/4/3 117/4/3
f 119/4/3 117/4/3 118/4/3
f 120/4/3 118/4/3 116/4/3
f 120/5/3 119/5/3 118/5/3
f 121/4/3 115/4/3 119/4/3
f 121/5/3 119/5/3 120/5/3
f 122/9/3 116/9/3 112/9/3
f 123/4/3 120/4/3 116/4/3
f 123/9/3 116/9/3 122/9/3
f 123/4/3 121/4/3 120/4/3
f 124/4/3 115/4/3 121/4/3
f 124/4/3 121/4/3 123/4/3
f 129/11/3 126/11/3 125/11/3
f 129/4/3 127/4/3 126/4/3
f 130/8/3 128/8/3 127/8/3
f 130/4/3 127/4/3 129/4/3
f 131/11/3 129/11/3 125/11/3
f 132/11/3 129/11/3 131/11/3
f 133/1/3 130/1/3 129/1/3
f 133/11/3 129/11/3 132/11/3
f 134/4/3 132/4/3 131/4/3
f 135/1/3 133/1/3 132/1/3
f 135/4/3 132/4/3 134/4/3
f 136/8/3 128/8/3 130/8/3
f 136/1/3 133/1/3 135/1/3
f 136/1/3 130/1/3 133/1/3
f 137/8/3 128/8/3 136/8/3
f 140/4/3 139/4/3 138/4/3
f 141/4/3 139/4/3 140/4/3
f 144/4/3 143/4/3 142/4/3
f 145/4/3 143/4/3 144/4/3
f 149/4/3 147/4/3 146/4/3
f 149/4/3 148/4/3 147/4/3
f 150/4/3 148/4/3 149/4/3
f 153/10/3 152/10/3 151/10/3
f 154/10/3 152/10/3 153/10/3
f 155/9/4 156/9/4 158/9/4
f 156/4/4 157/4/4 159/4/4
f 158/9/4 156/9/4 159/9/4
f 159/4/4 157/4/4 160/4/4
f 161/4/4 162/4/4 163/4/4
f 163/4/4 162/4/4 164/4/4
f 165/4/4 166/4/4 167/4/4
f 167/4/4 166/4/4 168/4/4
f 170/4/4 171/4/4 173/4/4
f 171/10/4 172/10/4 173/10/4
f 173/10/4 172/10/4 174/10/4
f 174/10/4 172/10/4 175/10/4
f 169/7/4 170/7/4 176/7/4
f 170/4/4 173/4/4 177/4/4
f 176/7/4 170/7/4 177/7/4
f 177/4/4 173/4/4 178/4/4
f 178/4/4 173/4/4 179/4/4
f 176/1/4 177/1/4 180/1/4
f 177/1/4 178/1/4 180/1/4
f 178/2/4 179/2/4 181/2/4
f 180/1/4 178/1/4 181/1/4
f 179/4/4 173/4/4 182/4/4
f 181/2/4 179/2/4 182/2/4
f 173/8/4 174/8/4 183/8/4
f 182/4/4 173/4/4 183/4/4
f 183/8/4 174/8/4 184/8/4
f 187/9/5 186/9/5 185/9/5
f 188/9/5 186/9/5 187/9/5
f 189/7/5 188/7/5 187/7/5
f 189/9/5 186/9/5 188/9/5
f 190/9/5 186/9/5 189/9/5
f 191/7/5 189/7/5 187/7/5
f 193/7/5 191/7/5 187/7/5
f 193/4/5 192/4/5 191/4/5
f 194/4/5 192/4/5 193/4/5
f 195/7/5 193/7/5 187/7/5
f 196/1/5 194/1/5 193/1/5
f 196/7/5 193/7/5 195/7/5
f 197/1/5 194/1/5 196/1/5
f 200/4/5 199/4/5 198/4/5
f 201/4/5 199/4/5 200/4/5
f 204/4/5 203/4/5 202/4/5
f 205/4/5 203/4/5 204/4/5
f 208/4/5 207/4/5 206/4/5
f 209/4/5 207/4/5 208/4/5
f 212/4/5 211/4/5 210/4/5
f 213/4/5 211/4/5 212/4/5
f 214/4/6 215/4/6 216/4/6
f 216/4/6 215/4/6 217/4/6
f 217/4/6 215/4/6 218/4/6
f 219/4/6 220/4/6 221/4/6
f 221/4/6 220/4/6 222/4/6
f 223/8/6 224/8/6 225/8/6
f 225/8/6 224/8/6 226/8/6
f 226/8/6 224/8/6 227/8/6
f 227/8/6 224/8/6 228/8/6
f 229/10/6 230/10/6 231/10/6
f 231/10/6 230/10/6 232/10/6
