# MagicaVoxel @ Ephtracy

# group
o 

# material
mtllib redcarC.mtl
usemtl palette

# normals
vn -1 0 0
vn 1 0 0
vn 0 0 1
vn 0 0 -1
vn 0 -1 0
vn 0 1 0

# texcoords
vt 0.513672 0.5
vt 0.841797 0.5
vt 0.958984 0.5
vt 0.966797 0.5
vt 0.970703 0.5
vt 0.974609 0.5
vt 0.978516 0.5
vt 0.986328 0.5
vt 0.990234 0.5

# verts
v -0.6 -0.35 1.2
v -0.6 -0.35 1
v -0.6 -0.35 -1
v -0.6 -0.35 -1.2
v -0.6 -0.15 1.2
v -0.6 -0.15 1
v -0.6 -0.15 -1
v -0.6 -0.15 -1.2
v -0.6 0.05 0.5
v -0.6 0.05 0.4
v -0.6 0.25 0.5
v -0.6 0.25 0.4
v -0.5 -0.55 0.9
v -0.5 -0.55 0.6
v -0.5 -0.55 -0.5
v -0.5 -0.55 -0.8
v -0.5 -0.45 1
v -0.5 -0.45 0.9
v -0.5 -0.45 0.6
v -0.5 -0.45 0.5
v -0.5 -0.45 -0.4
v -0.5 -0.45 -0.5
v -0.5 -0.45 -0.8
v -0.5 -0.45 -0.9
v -0.5 -0.35 1
v -0.5 -0.35 0.5
v -0.5 -0.35 -0.4
v -0.5 -0.35 -0.9
v -0.5 -0.35 -1
v -0.5 -0.25 -0.9
v -0.5 -0.25 -1
v -0.5 -0.15 1.1
v -0.5 -0.15 1
v -0.5 -0.15 0.9
v -0.5 -0.15 0.6
v -0.5 -0.15 0.5
v -0.5 -0.15 -0.4
v -0.5 -0.15 -0.5
v -0.5 -0.15 -0.8
v -0.5 -0.15 -0.9
v -0.5 -0.15 -1
v -0.5 -0.15 -1.1
v -0.5 -0.05 1.1
v -0.5 -0.05 1
v -0.5 -0.05 0.9
v -0.5 -0.05 0.6
v -0.5 -0.05 -0.0999999
v -0.5 -0.05 -0.3
v -0.5 -0.05 -0.5
v -0.5 -0.05 -0.8
v -0.5 0.05 1.1
v -0.5 0.05 1
v -0.5 0.05 0.5
v -0.5 0.05 0.4
v -0.5 0.05 -0.0999999
v -0.5 0.05 -0.3
v -0.5 0.15 1
v -0.5 0.15 0.5
v -0.5 0.15 0.4
v -0.5 0.15 -0.4
v -0.5 0.15 -0.6
v -0.5 0.15 -1.1
v -0.5 0.25 0.5
v -0.5 0.25 0.4
v -0.5 0.35 -1.1
v -0.5 0.35 -1.2
v -0.5 0.45 0.4
v -0.5 0.45 -0.4
v -0.5 0.45 -1.1
v -0.5 0.45 -1.2
v -0.5 0.55 0.5
v -0.5 0.55 -0.6
v -0.4 0.05 1.1
v -0.4 0.05 1
v -0.4 0.15 1.1
v -0.4 0.15 1
v -0.3 0.15 -1
v -0.3 0.15 -1.1
v -0.3 0.25 -1
v -0.3 0.25 -1.1
v -0.2 0.25 -1
v -0.2 0.25 -1.1
v -0.2 0.35 -1.1
v -0.2 0.45 -1
v -0.2 0.45 -1.1
v 0.1 0.25 -1
v 0.1 0.25 -1.1
v 0.1 0.35 -1.1
v 0.1 0.45 -1
v 0.1 0.45 -1.1
v 0.3 -0.15 0.2
v 0.3 -0.15 -0.4
v 0.3 0.15 0.2
v 0.3 0.15 -0.4
v 0.4 -0.55 0.9
v 0.4 -0.55 0.6
v 0.4 -0.55 -0.5
v 0.4 -0.55 -0.8
v 0.4 -0.45 0.9
v 0.4 -0.45 0.6
v 0.4 -0.45 -0.5
v 0.4 -0.45 -0.8
v -0.4 -0.55 0.9
v -0.4 -0.55 0.6
v -0.4 -0.55 -0.5
v -0.4 -0.55 -0.8
v -0.4 -0.45 0.9
v -0.4 -0.45 0.6
v -0.4 -0.45 -0.5
v -0.4 -0.45 -0.8
v -0.3 -0.15 0.2
v -0.3 -0.15 -0.4
v -0.3 0.15 0.2
v -0.3 0.15 -0.4
v -0.1 0.25 -1
v -0.1 0.25 -1.1
v -0.1 0.35 -1.1
v -0.1 0.45 -1
v -0.1 0.45 -1.1
v 0.2 0.25 -1
v 0.2 0.25 -1.1
v 0.2 0.35 -1.1
v 0.2 0.45 -1
v 0.2 0.45 -1.1
v 0.3 0.15 -1
v 0.3 0.15 -1.1
v 0.3 0.25 -1
v 0.3 0.25 -1.1
v 0.4 0.05 1.1
v 0.4 0.05 1
v 0.4 0.15 1.1
v 0.4 0.15 1
v 0.5 -0.55 0.9
v 0.5 -0.55 0.6
v 0.5 -0.55 -0.5
v 0.5 -0.55 -0.8
v 0.5 -0.45 1
v 0.5 -0.45 0.9
v 0.5 -0.45 0.6
v 0.5 -0.45 0.5
v 0.5 -0.45 -0.4
v 0.5 -0.45 -0.5
v 0.5 -0.45 -0.8
v 0.5 -0.45 -0.9
v 0.5 -0.35 1
v 0.5 -0.35 0.5
v 0.5 -0.35 -0.4
v 0.5 -0.35 -0.9
v 0.5 -0.35 -1
v 0.5 -0.25 -0.9
v 0.5 -0.25 -1
v 0.5 -0.15 1.1
v 0.5 -0.15 1
v 0.5 -0.15 0.9
v 0.5 -0.15 0.6
v 0.5 -0.15 0.5
v 0.5 -0.15 -0.4
v 0.5 -0.15 -0.5
v 0.5 -0.15 -0.8
v 0.5 -0.15 -0.9
v 0.5 -0.15 -1
v 0.5 -0.15 -1.1
v 0.5 -0.05 1.1
v 0.5 -0.05 1
v 0.5 -0.05 0.9
v 0.5 -0.05 0.6
v 0.5 -0.05 -0.0999999
v 0.5 -0.05 -0.3
v 0.5 -0.05 -0.5
v 0.5 -0.05 -0.8
v 0.5 0.05 1.1
v 0.5 0.05 1
v 0.5 0.05 0.5
v 0.5 0.05 0.4
v 0.5 0.05 -0.0999999
v 0.5 0.05 -0.3
v 0.5 0.15 1
v 0.5 0.15 0.5
v 0.5 0.15 0.4
v 0.5 0.15 -0.4
v 0.5 0.15 -0.6
v 0.5 0.15 -1.1
v 0.5 0.25 0.5
v 0.5 0.25 0.4
v 0.5 0.35 -1.1
v 0.5 0.35 -1.2
v 0.5 0.45 0.4
v 0.5 0.45 -0.4
v 0.5 0.45 -1.1
v 0.5 0.45 -1.2
v 0.5 0.55 0.5
v 0.5 0.55 -0.6
v 0.6 -0.35 1.2
v 0.6 -0.35 1
v 0.6 -0.35 -1
v 0.6 -0.35 -1.2
v 0.6 -0.15 1.2
v 0.6 -0.15 1
v 0.6 -0.15 -1
v 0.6 -0.15 -1.2
v 0.6 0.05 0.5
v 0.6 0.05 0.4
v 0.6 0.25 0.5
v 0.6 0.25 0.4
v -0.6 -0.35 1.2
v -0.6 -0.15 1.2
v 0.6 -0.35 1.2
v 0.6 -0.15 1.2
v -0.5 -0.15 1.1
v -0.5 -0.05 1.1
v -0.5 0.05 1.1
v -0.4 0.05 1.1
v -0.4 0.15 1.1
v -0.2 -0.05 1.1
v -0.2 0.05 1.1
v -0.1 -0.15 1.1
v -0.1 -0.05 1.1
v 0.1 -0.15 1.1
v 0.1 -0.05 1.1
v 0.2 -0.05 1.1
v 0.2 0.05 1.1
v 0.4 0.05 1.1
v 0.4 0.15 1.1
v 0.5 -0.15 1.1
v 0.5 -0.05 1.1
v 0.5 0.05 1.1
v -0.5 -0.45 1
v -0.5 -0.35 1
v -0.5 0.05 1
v -0.5 0.15 1
v -0.4 -0.45 1
v -0.4 -0.35 1
v -0.4 0.05 1
v -0.4 0.15 1
v 0.4 -0.45 1
v 0.4 -0.35 1
v 0.4 0.05 1
v 0.4 0.15 1
v 0.5 -0.45 1
v 0.5 -0.35 1
v 0.5 0.05 1
v 0.5 0.15 1
v -0.5 -0.55 0.9
v -0.5 -0.45 0.9
v -0.4 -0.55 0.9
v -0.4 -0.45 0.9
v 0.4 -0.55 0.9
v 0.4 -0.45 0.9
v 0.5 -0.55 0.9
v 0.5 -0.45 0.9
v -0.6 0.05 0.5
v -0.6 0.25 0.5
v -0.5 0.05 0.5
v -0.5 0.15 0.5
v -0.5 0.25 0.5
v -0.5 0.55 0.5
v -0.4 0.15 0.5
v -0.4 0.45 0.5
v 0.4 0.15 0.5
v 0.4 0.45 0.5
v 0.5 0.05 0.5
v 0.5 0.15 0.5
v 0.5 0.25 0.5
v 0.5 0.55 0.5
v 0.6 0.05 0.5
v 0.6 0.25 0.5
v -0.3 -0.15 -0.4
v -0.3 0.15 -0.4
v -0.1 -0.15 -0.4
v -0.1 0.15 -0.4
v 0.1 -0.15 -0.4
v 0.1 0.15 -0.4
v 0.3 -0.15 -0.4
v 0.3 0.15 -0.4
v -0.5 -0.55 -0.5
v -0.5 -0.45 -0.5
v -0.4 -0.55 -0.5
v -0.4 -0.45 -0.5
v 0.4 -0.55 -0.5
v 0.4 -0.45 -0.5
v 0.5 -0.55 -0.5
v 0.5 -0.45 -0.5
v -0.6 -0.35 -1
v -0.6 -0.15 -1
v -0.5 -0.35 -1
v -0.5 -0.25 -1
v -0.5 -0.15 -1
v -0.3 0.15 -1
v -0.3 0.25 -1
v -0.2 0.25 -1
v -0.2 0.45 -1
v -0.1 0.25 -1
v -0.1 0.45 -1
v 0.1 0.25 -1
v 0.1 0.45 -1
v 0.2 0.25 -1
v 0.2 0.45 -1
v 0.3 0.15 -1
v 0.3 0.25 -1
v 0.5 -0.35 -1
v 0.5 -0.25 -1
v 0.5 -0.15 -1
v 0.6 -0.35 -1
v 0.6 -0.15 -1
v -0.5 0.35 -1.1
v -0.5 0.45 -1.1
v -0.2 0.35 -1.1
v -0.2 0.45 -1.1
v -0.1 0.35 -1.1
v -0.1 0.45 -1.1
v 0.1 0.35 -1.1
v 0.1 0.45 -1.1
v 0.2 0.35 -1.1
v 0.2 0.45 -1.1
v 0.5 0.35 -1.1
v 0.5 0.45 -1.1
v -0.6 -0.35 1
v -0.6 -0.15 1
v -0.5 -0.35 1
v -0.5 -0.15 1
v 0.5 -0.35 1
v 0.5 -0.15 1
v 0.6 -0.35 1
v 0.6 -0.15 1
v -0.5 -0.55 0.6
v -0.5 -0.45 0.6
v -0.4 -0.55 0.6
v -0.4 -0.45 0.6
v 0.4 -0.55 0.6
v 0.4 -0.45 0.6
v 0.5 -0.55 0.6
v 0.5 -0.45 0.6
v -0.6 0.05 0.4
v -0.6 0.25 0.4
v -0.5 0.05 0.4
v -0.5 0.15 0.4
v -0.5 0.25 0.4
v 0.5 0.05 0.4
v 0.5 0.15 0.4
v 0.5 0.25 0.4
v 0.6 0.05 0.4
v 0.6 0.25 0.4
v -0.3 -0.15 0.2
v -0.3 0.15 0.2
v 0.3 -0.15 0.2
v 0.3 0.15 0.2
v -0.5 0.15 -0.6
v -0.5 0.55 -0.6
v -0.4 0.15 -0.6
v -0.4 0.45 -0.6
v 0.4 0.15 -0.6
v 0.4 0.45 -0.6
v 0.5 0.15 -0.6
v 0.5 0.55 -0.6
v -0.5 -0.55 -0.8
v -0.5 -0.45 -0.8
v -0.4 -0.55 -0.8
v -0.4 -0.45 -0.8
v 0.4 -0.55 -0.8
v 0.4 -0.45 -0.8
v 0.5 -0.55 -0.8
v 0.5 -0.45 -0.8
v -0.5 -0.45 -0.9
v -0.5 -0.35 -0.9
v -0.4 -0.45 -0.9
v -0.4 -0.35 -0.9
v 0.4 -0.45 -0.9
v 0.4 -0.35 -0.9
v 0.5 -0.45 -0.9
v 0.5 -0.35 -0.9
v -0.5 -0.15 -1.1
v -0.5 0.15 -1.1
v -0.3 0.15 -1.1
v -0.3 0.25 -1.1
v -0.2 -0.15 -1.1
v -0.2 0.05 -1.1
v -0.2 0.25 -1.1
v -0.2 0.35 -1.1
v -0.1 0.25 -1.1
v -0.1 0.35 -1.1
v 0.1 0.25 -1.1
v 0.1 0.35 -1.1
v 0.2 -0.15 -1.1
v 0.2 0.05 -1.1
v 0.2 0.25 -1.1
v 0.2 0.35 -1.1
v 0.3 0.15 -1.1
v 0.3 0.25 -1.1
v 0.5 -0.15 -1.1
v 0.5 0.15 -1.1
v -0.6 -0.35 -1.2
v -0.6 -0.15 -1.2
v -0.5 0.35 -1.2
v -0.5 0.45 -1.2
v -0.2 0.35 -1.2
v -0.2 0.45 -1.2
v -0.1 0.35 -1.2
v -0.1 0.45 -1.2
v 0.1 0.35 -1.2
v 0.1 0.45 -1.2
v 0.2 0.35 -1.2
v 0.2 0.45 -1.2
v 0.5 0.35 -1.2
v 0.5 0.45 -1.2
v 0.6 -0.35 -1.2
v 0.6 -0.15 -1.2
v -0.5 -0.55 0.9
v -0.4 -0.55 0.9
v 0.4 -0.55 0.9
v 0.5 -0.55 0.9
v -0.5 -0.55 0.6
v -0.4 -0.55 0.6
v 0.4 -0.55 0.6
v 0.5 -0.55 0.6
v -0.5 -0.55 -0.5
v -0.4 -0.55 -0.5
v 0.4 -0.55 -0.5
v 0.5 -0.55 -0.5
v -0.5 -0.55 -0.8
v -0.4 -0.55 -0.8
v 0.4 -0.55 -0.8
v 0.5 -0.55 -0.8
v -0.5 -0.45 1
v -0.4 -0.45 1
v 0.4 -0.45 1
v 0.5 -0.45 1
v -0.5 -0.45 0.9
v -0.4 -0.45 0.9
v 0.4 -0.45 0.9
v 0.5 -0.45 0.9
v -0.5 -0.45 0.6
v -0.4 -0.45 0.6
v 0.4 -0.45 0.6
v 0.5 -0.45 0.6
v -0.5 -0.45 0.5
v -0.4 -0.45 0.5
v 0.4 -0.45 0.5
v 0.5 -0.45 0.5
v -0.5 -0.45 -0.4
v -0.4 -0.45 -0.4
v 0.4 -0.45 -0.4
v 0.5 -0.45 -0.4
v -0.5 -0.45 -0.5
v -0.4 -0.45 -0.5
v 0.4 -0.45 -0.5
v 0.5 -0.45 -0.5
v -0.5 -0.45 -0.8
v -0.4 -0.45 -0.8
v 0.4 -0.45 -0.8
v 0.5 -0.45 -0.8
v -0.5 -0.45 -0.9
v -0.4 -0.45 -0.9
v 0.4 -0.45 -0.9
v 0.5 -0.45 -0.9
v -0.6 -0.35 1.2
v 0.6 -0.35 1.2
v -0.5 -0.35 1.1
v 0.5 -0.35 1.1
v -0.6 -0.35 1
v -0.5 -0.35 1
v -0.4 -0.35 1
v 0.4 -0.35 1
v 0.5 -0.35 1
v 0.6 -0.35 1
v -0.5 -0.35 -0.9
v -0.4 -0.35 -0.9
v 0.4 -0.35 -0.9
v 0.5 -0.35 -0.9
v -0.6 -0.35 -1
v -0.5 -0.35 -1
v 0.5 -0.35 -1
v 0.6 -0.35 -1
v -0.5 -0.35 -1.1
v 0.5 -0.35 -1.1
v -0.6 -0.35 -1.2
v 0.6 -0.35 -1.2
v -0.6 0.05 0.5
v -0.5 0.05 0.5
v 0.5 0.05 0.5
v 0.6 0.05 0.5
v -0.6 0.05 0.4
v -0.5 0.05 0.4
v 0.5 0.05 0.4
v 0.6 0.05 0.4
v -0.3 0.15 0.2
v 0.3 0.15 0.2
v -0.3 0.15 -0.4
v -0.1 0.15 -0.4
v 0.1 0.15 -0.4
v 0.3 0.15 -0.4
v -0.5 0.35 -1.1
v -0.2 0.35 -1.1
v -0.1 0.35 -1.1
v 0.1 0.35 -1.1
v 0.2 0.35 -1.1
v 0.5 0.35 -1.1
v -0.5 0.35 -1.2
v -0.2 0.35 -1.2
v -0.1 0.35 -1.2
v 0.1 0.35 -1.2
v 0.2 0.35 -1.2
v 0.5 0.35 -1.2
v -0.6 -0.15 1.2
v 0.6 -0.15 1.2
v -0.5 -0.15 1.1
v -0.1 -0.15 1.1
v 0.1 -0.15 1.1
v 0.5 -0.15 1.1
v -0.6 -0.15 1
v -0.5 -0.15 1
v 0.5 -0.15 1
v 0.6 -0.15 1
v -0.3 -0.15 0.2
v 0.3 -0.15 0.2
v -0.3 -0.15 -0.4
v -0.1 -0.15 -0.4
v 0.1 -0.15 -0.4
v 0.3 -0.15 -0.4
v -0.6 -0.15 -1
v -0.5 -0.15 -1
v 0.5 -0.15 -1
v 0.6 -0.15 -1
v -0.5 -0.15 -1.1
v -0.2 -0.15 -1.1
v 0.2 -0.15 -1.1
v 0.5 -0.15 -1.1
v -0.6 -0.15 -1.2
v 0.6 -0.15 -1.2
v -0.5 0.05 1.1
v -0.4 0.05 1.1
v 0.4 0.05 1.1
v 0.5 0.05 1.1
v -0.5 0.05 1
v -0.4 0.05 1
v 0.4 0.05 1
v 0.5 0.05 1
v -0.4 0.15 1.1
v 0.4 0.15 1.1
v -0.5 0.15 1
v -0.4 0.15 1
v 0.4 0.15 1
v 0.5 0.15 1
v -0.5 0.15 0.5
v -0.4 0.15 0.5
v 0.4 0.15 0.5
v 0.5 0.15 0.5
v -0.5 0.15 -0.6
v -0.4 0.15 -0.6
v 0.4 0.15 -0.6
v 0.5 0.15 -0.6
v -0.3 0.15 -1
v 0.3 0.15 -1
v -0.5 0.15 -1.1
v -0.3 0.15 -1.1
v 0.3 0.15 -1.1
v 0.5 0.15 -1.1
v -0.6 0.25 0.5
v -0.5 0.25 0.5
v 0.5 0.25 0.5
v 0.6 0.25 0.5
v -0.6 0.25 0.4
v -0.5 0.25 0.4
v 0.5 0.25 0.4
v 0.6 0.25 0.4
v -0.3 0.25 -1
v -0.2 0.25 -1
v -0.1 0.25 -1
v 0.1 0.25 -1
v 0.2 0.25 -1
v 0.3 0.25 -1
v -0.3 0.25 -1.1
v -0.2 0.25 -1.1
v -0.1 0.25 -1.1
v 0.1 0.25 -1.1
v 0.2 0.25 -1.1
v 0.3 0.25 -1.1
v -0.2 0.45 -1
v -0.1 0.45 -1
v 0.1 0.45 -1
v 0.2 0.45 -1
v -0.5 0.45 -1.1
v -0.2 0.45 -1.1
v -0.1 0.45 -1.1
v 0.1 0.45 -1.1
v 0.2 0.45 -1.1
v 0.5 0.45 -1.1
v -0.5 0.45 -1.2
v -0.2 0.45 -1.2
v -0.1 0.45 -1.2
v 0.1 0.45 -1.2
v 0.2 0.45 -1.2
v 0.5 0.45 -1.2
v -0.5 0.55 0.5
v 0.5 0.55 0.5
v -0.5 0.55 -0.6
v 0.5 0.55 -0.6

# faces
f 5/7/1 2/7/1 1/7/1
f 6/7/1 2/7/1 5/7/1
f 7/7/1 4/7/1 3/7/1
f 8/7/1 4/7/1 7/7/1
f 11/4/1 10/4/1 9/4/1
f 12/4/1 10/4/1 11/4/1
f 18/8/1 14/8/1 13/8/1
f 19/8/1 14/8/1 18/8/1
f 22/8/1 16/8/1 15/8/1
f 23/8/1 16/8/1 22/8/1
f 25/8/1 18/8/1 17/8/1
f 26/4/1 21/4/1 20/4/1
f 26/8/1 20/8/1 19/8/1
f 27/8/1 22/8/1 21/8/1
f 27/4/1 21/4/1 26/4/1
f 28/8/1 24/8/1 23/8/1
f 30/8/1 28/8/1 23/8/1
f 30/4/1 29/4/1 28/4/1
f 31/4/1 29/4/1 30/4/1
f 33/8/1 18/8/1 25/8/1
f 34/6/1 19/6/1 18/6/1
f 34/8/1 18/8/1 33/8/1
f 35/8/1 26/8/1 19/8/1
f 35/6/1 19/6/1 34/6/1
f 36/2/1 27/2/1 26/2/1
f 36/8/1 26/8/1 35/8/1
f 37/8/1 22/8/1 27/8/1
f 37/2/1 27/2/1 36/2/1
f 38/6/1 23/6/1 22/6/1
f 38/8/1 22/8/1 37/8/1
f 39/8/1 30/8/1 23/8/1
f 39/6/1 23/6/1 38/6/1
f 40/2/1 31/2/1 30/2/1
f 40/8/1 30/8/1 39/8/1
f 41/2/1 31/2/1 40/2/1
f 43/2/1 33/2/1 32/2/1
f 43/2/1 34/2/1 33/2/1
f 44/2/1 34/2/1 43/2/1
f 45/8/1 35/8/1 34/8/1
f 45/2/1 34/2/1 44/2/1
f 46/2/1 36/2/1 35/2/1
f 46/8/1 35/8/1 45/8/1
f 46/2/1 37/2/1 36/2/1
f 46/2/1 38/2/1 37/2/1
f 47/2/1 38/2/1 46/2/1
f 48/2/1 38/2/1 47/2/1
f 49/8/1 39/8/1 38/8/1
f 49/2/1 38/2/1 48/2/1
f 50/2/1 41/2/1 40/2/1
f 50/8/1 39/8/1 49/8/1
f 50/2/1 42/2/1 41/2/1
f 50/2/1 40/2/1 39/2/1
f 51/3/1 44/3/1 43/3/1
f 52/2/1 45/2/1 44/2/1
f 52/3/1 44/3/1 51/3/1
f 52/2/1 47/2/1 46/2/1
f 52/2/1 46/2/1 45/2/1
f 53/2/1 47/2/1 52/2/1
f 54/2/1 47/2/1 53/2/1
f 55/6/1 48/6/1 47/6/1
f 55/2/1 47/2/1 54/2/1
f 56/2/1 49/2/1 48/2/1
f 56/6/1 48/6/1 55/6/1
f 56/2/1 50/2/1 49/2/1
f 57/2/1 53/2/1 52/2/1
f 58/2/1 53/2/1 57/2/1
f 59/2/1 55/2/1 54/2/1
f 59/2/1 56/2/1 55/2/1
f 60/2/1 50/2/1 56/2/1
f 60/2/1 56/2/1 59/2/1
f 61/2/1 50/2/1 60/2/1
f 62/2/1 42/2/1 50/2/1
f 62/2/1 50/2/1 61/2/1
f 64/9/1 60/9/1 59/9/1
f 67/2/1 64/2/1 63/2/1
f 67/9/1 60/9/1 64/9/1
f 68/2/1 61/2/1 60/2/1
f 68/9/1 60/9/1 67/9/1
f 69/2/1 66/2/1 65/2/1
f 70/2/1 66/2/1 69/2/1
f 71/2/1 67/2/1 63/2/1
f 71/2/1 68/2/1 67/2/1
f 72/2/1 61/2/1 68/2/1
f 72/2/1 68/2/1 71/2/1
f 75/2/1 74/2/1 73/2/1
f 76/2/1 74/2/1 75/2/1
f 79/7/1 78/7/1 77/7/1
f 80/7/1 78/7/1 79/7/1
f 83/7/1 82/7/1 81/7/1
f 84/7/1 83/7/1 81/7/1
f 85/7/1 83/7/1 84/7/1
f 88/7/1 87/7/1 86/7/1
f 89/7/1 88/7/1 86/7/1
f 90/7/1 88/7/1 89/7/1
f 93/1/1 92/1/1 91/1/1
f 94/1/1 92/1/1 93/1/1
f 99/8/1 96/8/1 95/8/1
f 100/8/1 96/8/1 99/8/1
f 101/8/1 98/8/1 97/8/1
f 102/8/1 98/8/1 101/8/1
f 103/8/2 104/8/2 107/8/2
f 107/8/2 104/8/2 108/8/2
f 105/8/2 106/8/2 109/8/2
f 109/8/2 106/8/2 110/8/2
f 111/1/2 112/1/2 113/1/2
f 113/1/2 112/1/2 114/1/2
f 115/7/2 116/7/2 117/7/2
f 115/7/2 117/7/2 118/7/2
f 118/7/2 117/7/2 119/7/2
f 120/7/2 121/7/2 122/7/2
f 120/7/2 122/7/2 123/7/2
f 123/7/2 122/7/2 124/7/2
f 125/7/2 126/7/2 127/7/2
f 127/7/2 126/7/2 128/7/2
f 129/2/2 130/2/2 131/2/2
f 131/2/2 130/2/2 132/2/2
f 133/8/2 134/8/2 138/8/2
f 138/8/2 134/8/2 139/8/2
f 135/8/2 136/8/2 142/8/2
f 142/8/2 136/8/2 143/8/2
f 137/8/2 138/8/2 145/8/2
f 140/4/2 141/4/2 146/4/2
f 139/8/2 140/8/2 146/8/2
f 141/8/2 142/8/2 147/8/2
f 146/4/2 141/4/2 147/4/2
f 143/8/2 144/8/2 148/8/2
f 143/8/2 148/8/2 150/8/2
f 148/4/2 149/4/2 150/4/2
f 150/4/2 149/4/2 151/4/2
f 145/8/2 138/8/2 153/8/2
f 138/6/2 139/6/2 154/6/2
f 153/8/2 138/8/2 154/8/2
f 139/8/2 146/8/2 155/8/2
f 154/6/2 139/6/2 155/6/2
f 146/2/2 147/2/2 156/2/2
f 155/8/2 146/8/2 156/8/2
f 147/8/2 142/8/2 157/8/2
f 156/2/2 147/2/2 157/2/2
f 142/6/2 143/6/2 158/6/2
f 157/8/2 142/8/2 158/8/2
f 143/8/2 150/8/2 159/8/2
f 158/6/2 143/6/2 159/6/2
f 150/2/2 151/2/2 160/2/2
f 159/8/2 150/8/2 160/8/2
f 160/2/2 151/2/2 161/2/2
f 152/2/2 153/2/2 163/2/2
f 153/2/2 154/2/2 163/2/2
f 163/2/2 154/2/2 164/2/2
f 154/8/2 155/8/2 165/8/2
f 164/2/2 154/2/2 165/2/2
f 155/2/2 156/2/2 166/2/2
f 165/8/2 155/8/2 166/8/2
f 156/2/2 157/2/2 166/2/2
f 157/2/2 158/2/2 166/2/2
f 166/2/2 158/2/2 167/2/2
f 167/2/2 158/2/2 168/2/2
f 158/8/2 159/8/2 169/8/2
f 168/2/2 158/2/2 169/2/2
f 160/2/2 161/2/2 170/2/2
f 169/8/2 159/8/2 170/8/2
f 161/2/2 162/2/2 170/2/2
f 159/2/2 160/2/2 170/2/2
f 163/3/2 164/3/2 171/3/2
f 164/2/2 165/2/2 172/2/2
f 171/3/2 164/3/2 172/3/2
f 166/2/2 167/2/2 172/2/2
f 165/2/2 166/2/2 172/2/2
f 172/2/2 167/2/2 173/2/2
f 173/2/2 167/2/2 174/2/2
f 167/6/2 168/6/2 175/6/2
f 174/2/2 167/2/2 175/2/2
f 168/2/2 169/2/2 176/2/2
f 175/6/2 168/6/2 176/6/2
f 169/2/2 170/2/2 176/2/2
f 172/2/2 173/2/2 177/2/2
f 177/2/2 173/2/2 178/2/2
f 174/2/2 175/2/2 179/2/2
f 175/2/2 176/2/2 179/2/2
f 176/2/2 170/2/2 180/2/2
f 179/2/2 176/2/2 180/2/2
f 180/2/2 170/2/2 181/2/2
f 170/2/2 162/2/2 182/2/2
f 181/2/2 170/2/2 182/2/2
f 179/9/2 180/9/2 184/9/2
f 183/2/2 184/2/2 187/2/2
f 184/9/2 180/9/2 187/9/2
f 180/2/2 181/2/2 188/2/2
f 187/9/2 180/9/2 188/9/2
f 185/2/2 186/2/2 189/2/2
f 189/2/2 186/2/2 190/2/2
f 183/2/2 187/2/2 191/2/2
f 187/2/2 188/2/2 191/2/2
f 188/2/2 181/2/2 192/2/2
f 191/2/2 188/2/2 192/2/2
f 193/7/2 194/7/2 197/7/2
f 197/7/2 194/7/2 198/7/2
f 195/7/2 196/7/2 199/7/2
f 199/7/2 196/7/2 200/7/2
f 201/4/2 202/4/2 203/4/2
f 203/4/2 202/4/2 204/4/2
f 207/7/3 206/7/3 205/7/3
f 208/7/3 206/7/3 207/7/3
f 212/3/3 211/3/3 210/3/3
f 214/2/3 210/2/3 209/2/3
f 214/3/3 212/3/3 210/3/3
f 215/2/3 213/2/3 212/2/3
f 215/3/3 212/3/3 214/3/3
f 216/2/3 214/2/3 209/2/3
f 216/2/3 215/2/3 214/2/3
f 217/2/3 215/2/3 216/2/3
f 218/8/3 217/8/3 216/8/3
f 219/2/3 215/2/3 217/2/3
f 219/8/3 217/8/3 218/8/3
f 220/2/3 219/2/3 218/2/3
f 220/2/3 215/2/3 219/2/3
f 221/2/3 213/2/3 215/2/3
f 221/2/3 215/2/3 220/2/3
f 222/3/3 221/3/3 220/3/3
f 222/2/3 213/2/3 221/2/3
f 223/2/3 213/2/3 222/2/3
f 224/2/3 220/2/3 218/2/3
f 225/3/3 222/3/3 220/3/3
f 225/2/3 220/2/3 224/2/3
f 226/3/3 222/3/3 225/3/3
f 231/8/3 228/8/3 227/8/3
f 232/8/3 228/8/3 231/8/3
f 233/2/3 230/2/3 229/2/3
f 234/2/3 230/2/3 233/2/3
f 235/3/3 232/3/3 231/3/3
f 236/3/3 232/3/3 235/3/3
f 239/8/3 236/8/3 235/8/3
f 240/8/3 236/8/3 239/8/3
f 241/2/3 238/2/3 237/2/3
f 242/2/3 238/2/3 241/2/3
f 245/8/3 244/8/3 243/8/3
f 246/8/3 244/8/3 245/8/3
f 249/8/3 248/8/3 247/8/3
f 250/8/3 248/8/3 249/8/3
f 253/4/3 252/4/3 251/4/3
f 254/4/3 252/4/3 253/4/3
f 255/4/3 252/4/3 254/4/3
f 257/2/3 256/2/3 255/2/3
f 257/2/3 255/2/3 254/2/3
f 258/2/3 256/2/3 257/2/3
f 259/9/3 258/9/3 257/9/3
f 260/2/3 256/2/3 258/2/3
f 260/9/3 258/9/3 259/9/3
f 262/2/3 260/2/3 259/2/3
f 263/2/3 260/2/3 262/2/3
f 264/2/3 256/2/3 260/2/3
f 264/2/3 260/2/3 263/2/3
f 265/4/3 263/4/3 262/4/3
f 265/4/3 262/4/3 261/4/3
f 266/4/3 263/4/3 265/4/3
f 269/3/3 268/3/3 267/3/3
f 270/3/3 268/3/3 269/3/3
f 271/1/3 270/1/3 269/1/3
f 272/1/3 270/1/3 271/1/3
f 273/3/3 272/3/3 271/3/3
f 274/3/3 272/3/3 273/3/3
f 277/8/3 276/8/3 275/8/3
f 278/8/3 276/8/3 277/8/3
f 281/8/3 280/8/3 279/8/3
f 282/8/3 280/8/3 281/8/3
f 285/7/3 284/7/3 283/7/3
f 286/7/3 284/7/3 285/7/3
f 287/7/3 284/7/3 286/7/3
f 290/7/3 289/7/3 288/7/3
f 292/7/3 290/7/3 288/7/3
f 292/7/3 291/7/3 290/7/3
f 293/7/3 291/7/3 292/7/3
f 294/7/3 292/7/3 288/7/3
f 296/7/3 294/7/3 288/7/3
f 296/7/3 295/7/3 294/7/3
f 297/7/3 295/7/3 296/7/3
f 298/7/3 296/7/3 288/7/3
f 299/7/3 296/7/3 298/7/3
f 303/7/3 301/7/3 300/7/3
f 303/7/3 302/7/3 301/7/3
f 304/7/3 302/7/3 303/7/3
f 307/2/3 306/2/3 305/2/3
f 308/2/3 306/2/3 307/2/3
f 311/2/3 310/2/3 309/2/3
f 312/2/3 310/2/3 311/2/3
f 315/2/3 314/2/3 313/2/3
f 316/2/3 314/2/3 315/2/3
f 317/7/4 318/7/4 319/7/4
f 319/7/4 318/7/4 320/7/4
f 321/7/4 322/7/4 323/7/4
f 323/7/4 322/7/4 324/7/4
f 325/8/4 326/8/4 327/8/4
f 327/8/4 326/8/4 328/8/4
f 329/8/4 330/8/4 331/8/4
f 331/8/4 330/8/4 332/8/4
f 333/4/4 334/4/4 335/4/4
f 335/4/4 334/4/4 336/4/4
f 336/4/4 334/4/4 337/4/4
f 338/4/4 339/4/4 341/4/4
f 339/4/4 340/4/4 341/4/4
f 341/4/4 340/4/4 342/4/4
f 343/3/4 344/3/4 345/3/4
f 345/3/4 344/3/4 346/3/4
f 347/2/4 348/2/4 349/2/4
f 349/2/4 348/2/4 350/2/4
f 349/9/4 350/9/4 351/9/4
f 350/2/4 348/2/4 352/2/4
f 351/9/4 350/9/4 352/9/4
f 351/2/4 352/2/4 353/2/4
f 352/2/4 348/2/4 354/2/4
f 353/2/4 352/2/4 354/2/4
f 355/8/4 356/8/4 357/8/4
f 357/8/4 356/8/4 358/8/4
f 359/8/4 360/8/4 361/8/4
f 361/8/4 360/8/4 362/8/4
f 363/8/4 364/8/4 365/8/4
f 365/8/4 364/8/4 366/8/4
f 365/3/4 366/3/4 367/3/4
f 367/3/4 366/3/4 368/3/4
f 367/8/4 368/8/4 369/8/4
f 369/8/4 368/8/4 370/8/4
f 371/2/4 372/2/4 373/2/4
f 371/2/4 373/2/4 375/2/4
f 375/2/4 373/2/4 376/2/4
f 373/7/4 374/7/4 377/7/4
f 373/7/4 377/7/4 379/7/4
f 377/7/4 378/7/4 379/7/4
f 379/7/4 378/7/4 380/7/4
f 373/7/4 379/7/4 381/7/4
f 375/3/4 376/3/4 383/3/4
f 376/2/4 373/2/4 384/2/4
f 383/3/4 376/3/4 384/3/4
f 381/7/4 382/7/4 385/7/4
f 373/7/4 381/7/4 385/7/4
f 385/7/4 382/7/4 386/7/4
f 384/2/4 373/2/4 387/2/4
f 383/2/4 384/2/4 387/2/4
f 373/7/4 385/7/4 387/7/4
f 387/7/4 385/7/4 388/7/4
f 383/2/4 387/2/4 389/2/4
f 389/2/4 387/2/4 390/2/4
f 393/2/4 394/2/4 395/2/4
f 395/2/4 394/2/4 396/2/4
f 395/7/4 396/7/4 397/7/4
f 397/7/4 396/7/4 398/7/4
f 397/2/4 398/2/4 399/2/4
f 399/2/4 398/2/4 400/2/4
f 399/7/4 400/7/4 401/7/4
f 401/7/4 400/7/4 402/7/4
f 401/2/4 402/2/4 403/2/4
f 403/2/4 402/2/4 404/2/4
f 391/7/4 392/7/4 405/7/4
f 405/7/4 392/7/4 406/7/4
f 411/8/5 408/8/5 407/8/5
f 412/8/5 408/8/5 411/8/5
f 413/8/5 410/8/5 409/8/5
f 414/8/5 410/8/5 413/8/5
f 419/8/5 416/8/5 415/8/5
f 420/8/5 416/8/5 419/8/5
f 421/8/5 418/8/5 417/8/5
f 422/8/5 418/8/5 421/8/5
f 427/8/5 424/8/5 423/8/5
f 428/3/5 425/3/5 424/3/5
f 428/8/5 424/8/5 427/8/5
f 429/8/5 426/8/5 425/8/5
f 429/3/5 425/3/5 428/3/5
f 430/8/5 426/8/5 429/8/5
f 432/3/5 429/3/5 428/3/5
f 433/3/5 429/3/5 432/3/5
f 435/8/5 432/8/5 431/8/5
f 436/3/5 433/3/5 432/3/5
f 436/8/5 432/8/5 435/8/5
f 437/8/5 434/8/5 433/8/5
f 437/3/5 433/3/5 436/3/5
f 438/8/5 434/8/5 437/8/5
f 439/4/5 436/4/5 435/4/5
f 440/3/5 437/3/5 436/3/5
f 440/4/5 436/4/5 439/4/5
f 441/4/5 438/4/5 437/4/5
f 441/3/5 437/3/5 440/3/5
f 442/4/5 438/4/5 441/4/5
f 443/8/5 440/8/5 439/8/5
f 444/3/5 441/3/5 440/3/5
f 444/8/5 440/8/5 443/8/5
f 445/8/5 442/8/5 441/8/5
f 445/3/5 441/3/5 444/3/5
f 446/8/5 442/8/5 445/8/5
f 448/3/5 445/3/5 444/3/5
f 449/3/5 445/3/5 448/3/5
f 451/8/5 448/8/5 447/8/5
f 452/3/5 449/3/5 448/3/5
f 452/8/5 448/8/5 451/8/5
f 453/8/5 450/8/5 449/8/5
f 453/3/5 449/3/5 452/3/5
f 454/8/5 450/8/5 453/8/5
f 457/7/5 456/7/5 455/7/5
f 458/7/5 456/7/5 457/7/5
f 459/7/5 457/7/5 455/7/5
f 460/4/5 458/4/5 457/4/5
f 460/7/5 457/7/5 459/7/5
f 461/4/5 458/4/5 460/4/5
f 462/4/5 458/4/5 461/4/5
f 463/7/5 456/7/5 458/7/5
f 463/4/5 458/4/5 462/4/5
f 464/7/5 456/7/5 463/7/5
f 470/4/5 466/4/5 465/4/5
f 470/4/5 468/4/5 467/4/5
f 470/4/5 467/4/5 466/4/5
f 471/4/5 468/4/5 470/4/5
f 473/7/5 470/7/5 469/7/5
f 473/4/5 471/4/5 470/4/5
f 474/7/5 472/7/5 471/7/5
f 474/4/5 471/4/5 473/4/5
f 475/7/5 473/7/5 469/7/5
f 475/7/5 474/7/5 473/7/5
f 476/7/5 472/7/5 474/7/5
f 476/7/5 474/7/5 475/7/5
f 481/4/5 478/4/5 477/4/5
f 482/4/5 478/4/5 481/4/5
f 483/4/5 480/4/5 479/4/5
f 484/4/5 480/4/5 483/4/5
f 487/9/5 486/9/5 485/9/5
f 488/9/5 486/9/5 487/9/5
f 489/9/5 486/9/5 488/9/5
f 490/9/5 486/9/5 489/9/5
f 497/2/5 492/2/5 491/2/5
f 498/7/5 493/7/5 492/7/5
f 498/2/5 492/2/5 497/2/5
f 499/2/5 494/2/5 493/2/5
f 499/7/5 493/7/5 498/7/5
f 500/7/5 495/7/5 494/7/5
f 500/2/5 494/2/5 499/2/5
f 501/2/5 496/2/5 495/2/5
f 501/7/5 495/7/5 500/7/5
f 502/2/5 496/2/5 501/2/5
f 503/7/6 504/7/6 505/7/6
f 505/7/6 504/7/6 506/7/6
f 506/7/6 504/7/6 507/7/6
f 507/7/6 504/7/6 508/7/6
f 503/7/6 505/7/6 509/7/6
f 509/7/6 505/7/6 510/7/6
f 508/7/6 504/7/6 511/7/6
f 511/7/6 504/7/6 512/7/6
f 513/3/6 514/3/6 515/3/6
f 515/3/6 514/3/6 516/3/6
f 516/3/6 514/3/6 517/3/6
f 517/3/6 514/3/6 518/3/6
f 519/7/6 520/7/6 523/7/6
f 521/7/6 522/7/6 526/7/6
f 524/7/6 525/7/6 527/7/6
f 525/7/6 526/7/6 527/7/6
f 519/7/6 523/7/6 527/7/6
f 523/7/6 524/7/6 527/7/6
f 526/7/6 522/7/6 528/7/6
f 527/7/6 526/7/6 528/7/6
f 529/3/6 530/3/6 533/3/6
f 533/3/6 530/3/6 534/3/6
f 531/3/6 532/3/6 535/3/6
f 535/3/6 532/3/6 536/3/6
f 537/2/6 538/2/6 540/2/6
f 540/2/6 538/2/6 541/2/6
f 539/2/6 540/2/6 543/2/6
f 541/2/6 542/2/6 543/2/6
f 540/2/6 541/2/6 543/2/6
f 543/2/6 542/2/6 544/2/6
f 544/2/6 542/2/6 545/2/6
f 545/2/6 542/2/6 546/2/6
f 547/2/6 548/2/6 551/2/6
f 549/2/6 550/2/6 551/2/6
f 548/2/6 549/2/6 551/2/6
f 551/2/6 550/2/6 552/2/6
f 547/2/6 551/2/6 553/2/6
f 553/2/6 551/2/6 554/2/6
f 552/2/6 550/2/6 555/2/6
f 555/2/6 550/2/6 556/2/6
f 557/4/6 558/4/6 561/4/6
f 561/4/6 558/4/6 562/4/6
f 559/4/6 560/4/6 563/4/6
f 563/4/6 560/4/6 564/4/6
f 565/7/6 566/7/6 571/7/6
f 571/7/6 566/7/6 572/7/6
f 567/7/6 568/7/6 573/7/6
f 573/7/6 568/7/6 574/7/6
f 569/7/6 570/7/6 575/7/6
f 575/7/6 570/7/6 576/7/6
f 577/7/6 578/7/6 582/7/6
f 582/7/6 578/7/6 583/7/6
f 579/7/6 580/7/6 584/7/6
f 584/7/6 580/7/6 585/7/6
f 581/2/6 582/2/6 587/2/6
f 582/7/6 583/7/6 588/7/6
f 587/2/6 582/2/6 588/2/6
f 583/2/6 584/2/6 589/2/6
f 588/7/6 583/7/6 589/7/6
f 584/7/6 585/7/6 590/7/6
f 589/2/6 584/2/6 590/2/6
f 585/2/6 586/2/6 591/2/6
f 590/7/6 585/7/6 591/7/6
f 591/2/6 586/2/6 592/2/6
f 593/2/6 594/2/6 595/2/6
f 595/2/6 594/2/6 596/2/6
