# MagicaVoxel @ Ephtracy

# group
o 

# material
mtllib redcarTopRight.mtl
usemtl palette

# normals
vn -1 0 0
vn 1 0 0
vn 0 0 1
vn 0 0 -1
vn 0 -1 0
vn 0 1 0

# texcoords
vt 0.513672 0.5
vt 0.841797 0.5
vt 0.958984 0.5
vt 0.966797 0.5
vt 0.970703 0.5
vt 0.978516 0.5
vt 0.986328 0.5
vt 0.990234 0.5

# verts
v -0.6 -0.35 1.2
v -0.6 -0.35 1
v -0.6 -0.15 1.2
v -0.6 -0.15 1
v -0.6 0.05 0.5
v -0.6 0.05 0.4
v -0.6 0.25 0.5
v -0.6 0.25 0.4
v -0.5 -0.45 0.5
v -0.5 -0.45 0
v -0.5 -0.35 0.5
v -0.5 -0.35 0
v -0.5 -0.15 1.1
v -0.5 -0.15 1
v -0.5 -0.15 0.9
v -0.5 -0.15 0.6
v -0.5 -0.15 0.5
v -0.5 -0.05 1.1
v -0.5 -0.05 1
v -0.5 -0.05 0.9
v -0.5 -0.05 0.6
v -0.5 0.05 1.1
v -0.5 0.05 1
v -0.5 0.05 0.5
v -0.5 0.05 0.4
v -0.5 0.15 1
v -0.5 0.15 0.5
v -0.5 0.15 0.4
v -0.5 0.15 0
v -0.5 0.25 0.5
v -0.5 0.25 0.4
v -0.5 0.45 0.4
v -0.5 0.45 0
v -0.5 0.55 0.5
v -0.5 0.55 0
v -0.4 -0.45 1
v -0.4 -0.45 0.5
v -0.4 -0.35 1
v -0.4 -0.35 0.7
v -0.4 -0.35 0.6
v -0.4 -0.35 0.5
v -0.4 -0.25 1
v -0.4 -0.15 1
v -0.4 -0.15 0.9
v -0.4 -0.15 0.7
v -0.4 -0.15 0.6
v -0.4 -0.15 0.5
v -0.4 -0.05 0.9
v -0.4 -0.05 0.6
v -0.4 0.05 1.1
v -0.4 0.05 1
v -0.4 0.15 1.1
v -0.4 0.15 1
v -0.3 -0.15 0.2
v -0.3 -0.15 0
v -0.3 0.15 0.2
v -0.3 0.15 0
v 0 -0.45 1
v 0 -0.45 0
v 0 -0.35 1.2
v 0 -0.35 1.1
v 0 -0.35 1
v 0 -0.35 0.7
v 0 -0.35 0
v 0 -0.25 1.1
v 0 -0.25 1
v 0 -0.25 0.9
v 0 -0.25 0.7
v 0 -0.25 0.2
v 0 -0.25 0
v 0 -0.15 1.2
v 0 -0.15 1.1
v 0 -0.15 1
v 0 -0.15 0.9
v 0 -0.15 0.3
v 0 -0.15 0.2
v 0 -0.15 0
v 0 -0.05 1.1
v 0 -0.05 1
v 0 0.05 1
v 0 0.05 0.5
v 0 0.15 1.1
v 0 0.15 0.5
v 0 0.15 0.3
v 0 0.15 0.2
v 0 0.15 0
v 0 0.45 0.5
v 0 0.45 0
v 0 0.55 0.5
v 0 0.55 0
v -0.6 -0.35 1.2
v -0.6 -0.15 1.2
v 0 -0.35 1.2
v 0 -0.15 1.2
v -0.5 -0.15 1.1
v -0.5 -0.05 1.1
v -0.5 0.05 1.1
v -0.4 0.05 1.1
v -0.4 0.15 1.1
v -0.2 -0.05 1.1
v -0.2 0.05 1.1
v -0.1 -0.15 1.1
v -0.1 -0.05 1.1
v 0 -0.15 1.1
v 0 -0.05 1.1
v 0 0.15 1.1
v -0.5 0.05 1
v -0.5 0.15 1
v -0.4 -0.45 1
v -0.4 -0.35 1
v -0.4 0.05 1
v -0.4 0.15 1
v 0 -0.45 1
v 0 -0.35 1
v -0.5 -0.15 0.6
v -0.5 -0.05 0.6
v -0.4 -0.15 0.6
v -0.4 -0.05 0.6
v -0.6 0.05 0.5
v -0.6 0.25 0.5
v -0.5 -0.45 0.5
v -0.5 -0.35 0.5
v -0.5 -0.15 0.5
v -0.5 0.05 0.5
v -0.5 0.15 0.5
v -0.5 0.25 0.5
v -0.5 0.55 0.5
v -0.4 -0.45 0.5
v -0.4 -0.35 0.5
v -0.4 -0.15 0.5
v -0.4 0.15 0.5
v -0.4 0.45 0.5
v 0 0.15 0.5
v 0 0.45 0.5
v 0 0.55 0.5
v -0.6 -0.35 1
v -0.6 -0.15 1
v -0.5 -0.35 1
v -0.5 -0.25 1
v -0.5 -0.15 1
v -0.4 -0.35 1
v -0.4 -0.25 1
v -0.4 -0.15 1
v -0.5 -0.15 0.9
v -0.5 -0.05 0.9
v -0.4 -0.15 0.9
v -0.4 -0.05 0.9
v -0.6 0.05 0.4
v -0.6 0.25 0.4
v -0.5 0.05 0.4
v -0.5 0.15 0.4
v -0.5 0.25 0.4
v -0.3 -0.15 0.2
v -0.3 0.15 0.2
v 0 -0.15 0.2
v 0 0.15 0.2
v -0.5 -0.45 0
v -0.5 -0.35 0
v -0.5 0.15 0
v -0.5 0.45 0
v -0.5 0.55 0
v -0.4 -0.45 0
v -0.4 -0.35 0
v -0.4 -0.15 0
v -0.4 0.15 0
v -0.3 -0.15 0
v -0.3 0.15 0
v -0.2 -0.35 0
v -0.2 -0.25 0
v 0 -0.45 0
v 0 -0.35 0
v 0 -0.25 0
v 0 -0.15 0
v 0 0.15 0
v 0 0.45 0
v 0 0.55 0
v -0.4 -0.45 1
v 0 -0.45 1
v -0.5 -0.45 0.5
v -0.4 -0.45 0.5
v -0.5 -0.45 0
v -0.4 -0.45 0
v 0 -0.45 0
v -0.6 -0.35 1.2
v 0 -0.35 1.2
v -0.5 -0.35 1.1
v 0 -0.35 1.1
v -0.6 -0.35 1
v -0.5 -0.35 1
v -0.4 -0.35 1
v 0 -0.35 1
v -0.5 -0.15 1
v -0.4 -0.15 1
v -0.5 -0.15 0.9
v -0.4 -0.15 0.9
v -0.5 -0.15 0.6
v -0.4 -0.15 0.6
v -0.5 -0.15 0.5
v -0.4 -0.15 0.5
v -0.5 -0.05 0.9
v -0.4 -0.05 0.9
v -0.5 -0.05 0.6
v -0.4 -0.05 0.6
v -0.6 0.05 0.5
v -0.5 0.05 0.5
v -0.6 0.05 0.4
v -0.5 0.05 0.4
v -0.3 0.15 0.2
v 0 0.15 0.2
v -0.3 0.15 0
v 0 0.15 0
v -0.6 -0.15 1.2
v 0 -0.15 1.2
v -0.5 -0.15 1.1
v -0.1 -0.15 1.1
v 0 -0.15 1.1
v -0.6 -0.15 1
v -0.5 -0.15 1
v -0.3 -0.15 0.2
v 0 -0.15 0.2
v -0.3 -0.15 0
v 0 -0.15 0
v -0.5 0.05 1.1
v -0.4 0.05 1.1
v -0.5 0.05 1
v -0.4 0.05 1
v -0.4 0.15 1.1
v 0 0.15 1.1
v -0.5 0.15 1
v -0.4 0.15 1
v -0.5 0.15 0.5
v -0.4 0.15 0.5
v 0 0.15 0.5
v -0.6 0.25 0.5
v -0.5 0.25 0.5
v -0.6 0.25 0.4
v -0.5 0.25 0.4
v -0.5 0.55 0.5
v 0 0.55 0.5
v -0.5 0.55 0
v 0 0.55 0

# faces
f 3/6/1 2/6/1 1/6/1
f 4/6/1 2/6/1 3/6/1
f 7/4/1 6/4/1 5/4/1
f 8/4/1 6/4/1 7/4/1
f 11/4/1 10/4/1 9/4/1
f 12/4/1 10/4/1 11/4/1
f 17/2/1 12/2/1 11/2/1
f 18/2/1 15/2/1 14/2/1
f 18/2/1 14/2/1 13/2/1
f 19/2/1 15/2/1 18/2/1
f 20/2/1 15/2/1 19/2/1
f 21/2/1 17/2/1 16/2/1
f 22/3/1 19/3/1 18/3/1
f 23/2/1 20/2/1 19/2/1
f 23/3/1 19/3/1 22/3/1
f 23/2/1 21/2/1 20/2/1
f 24/2/1 12/2/1 17/2/1
f 24/2/1 21/2/1 23/2/1
f 24/2/1 17/2/1 21/2/1
f 25/2/1 12/2/1 24/2/1
f 26/2/1 24/2/1 23/2/1
f 27/2/1 24/2/1 26/2/1
f 28/2/1 12/2/1 25/2/1
f 29/2/1 12/2/1 28/2/1
f 31/8/1 29/8/1 28/8/1
f 32/8/1 29/8/1 31/8/1
f 32/2/1 31/2/1 30/2/1
f 33/8/1 29/8/1 32/8/1
f 34/2/1 32/2/1 30/2/1
f 34/2/1 33/2/1 32/2/1
f 35/2/1 33/2/1 34/2/1
f 38/3/1 37/3/1 36/3/1
f 39/3/1 37/3/1 38/3/1
f 40/3/1 37/3/1 39/3/1
f 41/3/1 37/3/1 40/3/1
f 42/3/1 39/3/1 38/3/1
f 43/3/1 39/3/1 42/3/1
f 44/3/1 39/3/1 43/3/1
f 45/7/1 40/7/1 39/7/1
f 45/3/1 39/3/1 44/3/1
f 46/5/1 41/5/1 40/5/1
f 46/7/1 40/7/1 45/7/1
f 47/5/1 41/5/1 46/5/1
f 48/1/1 45/1/1 44/1/1
f 48/1/1 46/1/1 45/1/1
f 49/1/1 46/1/1 48/1/1
f 52/2/1 51/2/1 50/2/1
f 53/2/1 51/2/1 52/2/1
f 54/1/2 55/1/2 56/1/2
f 56/1/2 55/1/2 57/1/2
f 58/3/2 59/3/2 62/3/2
f 62/3/2 59/3/2 63/3/2
f 63/3/2 59/3/2 64/3/2
f 60/6/2 61/6/2 65/6/2
f 61/4/2 62/4/2 65/4/2
f 62/3/2 63/3/2 66/3/2
f 65/4/2 62/4/2 66/4/2
f 66/3/2 63/3/2 67/3/2
f 63/1/2 64/1/2 68/1/2
f 67/3/2 63/3/2 68/3/2
f 68/1/2 64/1/2 69/1/2
f 69/1/2 64/1/2 70/1/2
f 60/6/2 65/6/2 71/6/2
f 65/7/2 66/7/2 72/7/2
f 71/6/2 65/6/2 72/6/2
f 66/3/2 67/3/2 73/3/2
f 72/7/2 66/7/2 73/7/2
f 67/1/2 68/1/2 74/1/2
f 73/3/2 67/3/2 74/3/2
f 68/1/2 69/1/2 74/1/2
f 74/1/2 69/1/2 75/1/2
f 69/3/2 70/3/2 76/3/2
f 75/1/2 69/1/2 76/1/2
f 76/3/2 70/3/2 77/3/2
f 72/7/2 73/7/2 78/7/2
f 74/1/2 75/1/2 79/1/2
f 78/7/2 73/7/2 79/7/2
f 73/1/2 74/1/2 79/1/2
f 78/2/2 79/2/2 80/2/2
f 79/1/2 75/1/2 80/1/2
f 80/1/2 75/1/2 81/1/2
f 78/2/2 80/2/2 82/2/2
f 80/2/2 81/2/2 82/2/2
f 81/1/2 75/1/2 83/1/2
f 82/2/2 81/2/2 83/2/2
f 75/3/2 76/3/2 84/3/2
f 83/1/2 75/1/2 84/1/2
f 84/3/2 76/3/2 85/3/2
f 85/8/2 86/8/2 87/8/2
f 84/8/2 85/8/2 87/8/2
f 83/8/2 84/8/2 87/8/2
f 87/8/2 86/8/2 88/8/2
f 87/2/2 88/2/2 89/2/2
f 89/2/2 88/2/2 90/2/2
f 93/6/3 92/6/3 91/6/3
f 94/6/3 92/6/3 93/6/3
f 98/3/3 97/3/3 96/3/3
f 100/2/3 96/2/3 95/2/3
f 100/3/3 98/3/3 96/3/3
f 101/2/3 99/2/3 98/2/3
f 101/3/3 98/3/3 100/3/3
f 102/2/3 100/2/3 95/2/3
f 102/2/3 101/2/3 100/2/3
f 103/2/3 101/2/3 102/2/3
f 104/7/3 103/7/3 102/7/3
f 105/2/3 101/2/3 103/2/3
f 105/7/3 103/7/3 104/7/3
f 106/2/3 99/2/3 101/2/3
f 106/2/3 101/2/3 105/2/3
f 111/2/3 108/2/3 107/2/3
f 112/2/3 108/2/3 111/2/3
f 113/3/3 110/3/3 109/3/3
f 114/3/3 110/3/3 113/3/3
f 117/2/3 116/2/3 115/2/3
f 118/2/3 116/2/3 117/2/3
f 124/4/3 120/4/3 119/4/3
f 125/4/3 120/4/3 124/4/3
f 126/4/3 120/4/3 125/4/3
f 128/4/3 122/4/3 121/4/3
f 129/2/3 123/2/3 122/2/3
f 129/4/3 122/4/3 128/4/3
f 130/2/3 123/2/3 129/2/3
f 131/2/3 127/2/3 126/2/3
f 131/2/3 126/2/3 125/2/3
f 132/2/3 127/2/3 131/2/3
f 133/8/3 132/8/3 131/8/3
f 134/2/3 127/2/3 132/2/3
f 134/8/3 132/8/3 133/8/3
f 135/2/3 127/2/3 134/2/3
f 136/6/4 137/6/4 138/6/4
f 138/6/4 137/6/4 139/6/4
f 139/6/4 137/6/4 140/6/4
f 138/4/4 139/4/4 141/4/4
f 139/1/4 140/1/4 142/1/4
f 141/4/4 139/4/4 142/4/4
f 142/1/4 140/1/4 143/1/4
f 144/2/4 145/2/4 146/2/4
f 146/2/4 145/2/4 147/2/4
f 148/4/4 149/4/4 150/4/4
f 150/4/4 149/4/4 151/4/4
f 151/4/4 149/4/4 152/4/4
f 153/3/4 154/3/4 155/3/4
f 155/3/4 154/3/4 156/3/4
f 157/4/4 158/4/4 162/4/4
f 158/2/4 159/2/4 163/2/4
f 162/4/4 158/4/4 163/4/4
f 163/2/4 159/2/4 164/2/4
f 159/8/4 160/8/4 165/8/4
f 164/2/4 159/2/4 165/2/4
f 163/3/4 164/3/4 166/3/4
f 162/3/4 163/3/4 166/3/4
f 164/1/4 165/1/4 166/1/4
f 165/8/4 160/8/4 167/8/4
f 166/1/4 165/1/4 167/1/4
f 162/3/4 166/3/4 168/3/4
f 168/3/4 166/3/4 169/3/4
f 162/3/4 168/3/4 170/3/4
f 168/1/4 169/1/4 171/1/4
f 170/3/4 168/3/4 171/3/4
f 169/3/4 166/3/4 172/3/4
f 171/1/4 169/1/4 172/1/4
f 172/3/4 166/3/4 173/3/4
f 167/8/4 160/8/4 174/8/4
f 160/2/4 161/2/4 175/2/4
f 174/8/4 160/8/4 175/8/4
f 175/2/4 161/2/4 176/2/4
f 180/3/5 178/3/5 177/3/5
f 181/4/5 180/4/5 179/4/5
f 182/3/5 178/3/5 180/3/5
f 182/4/5 180/4/5 181/4/5
f 183/3/5 178/3/5 182/3/5
f 186/6/5 185/6/5 184/6/5
f 187/6/5 185/6/5 186/6/5
f 188/6/5 186/6/5 184/6/5
f 189/4/5 187/4/5 186/4/5
f 189/6/5 186/6/5 188/6/5
f 190/4/5 187/4/5 189/4/5
f 191/4/5 187/4/5 190/4/5
f 194/2/5 193/2/5 192/2/5
f 195/2/5 193/2/5 194/2/5
f 198/2/5 197/2/5 196/2/5
f 199/2/5 197/2/5 198/2/5
f 202/2/5 201/2/5 200/2/5
f 203/2/5 201/2/5 202/2/5
f 206/4/5 205/4/5 204/4/5
f 207/4/5 205/4/5 206/4/5
f 210/8/5 209/8/5 208/8/5
f 211/8/5 209/8/5 210/8/5
f 212/6/6 213/6/6 214/6/6
f 214/6/6 213/6/6 215/6/6
f 215/6/6 213/6/6 216/6/6
f 212/6/6 214/6/6 217/6/6
f 217/6/6 214/6/6 218/6/6
f 219/3/6 220/3/6 221/3/6
f 221/3/6 220/3/6 222/3/6
f 223/3/6 224/3/6 225/3/6
f 225/3/6 224/3/6 226/3/6
f 227/2/6 228/2/6 230/2/6
f 229/2/6 230/2/6 231/2/6
f 230/2/6 228/2/6 232/2/6
f 231/2/6 230/2/6 232/2/6
f 232/2/6 228/2/6 233/2/6
f 234/4/6 235/4/6 236/4/6
f 236/4/6 235/4/6 237/4/6
f 238/2/6 239/2/6 240/2/6
f 240/2/6 239/2/6 241/2/6
