# MagicaVoxel @ Ephtracy

# group
o 

# material
mtllib redcarBottomRight.mtl
usemtl palette

# normals
vn -1 0 0
vn 1 0 0
vn 0 0 1
vn 0 0 -1
vn 0 -1 0
vn 0 1 0

# texcoords
vt 0.513672 0.5
vt 0.841797 0.5
vt 0.958984 0.5
vt 0.966797 0.5
vt 0.970703 0.5
vt 0.974609 0.5
vt 0.978516 0.5
vt 0.986328 0.5
vt 0.990234 0.5

# verts
v -0.6 -0.35 -1
v -0.6 -0.35 -1.2
v -0.6 -0.15 -1
v -0.6 -0.15 -1.2
v -0.5 -0.45 0
v -0.5 -0.45 -0.4
v -0.5 -0.35 0
v -0.5 -0.35 -0.4
v -0.5 -0.35 -0.9
v -0.5 -0.35 -1
v -0.5 -0.25 -0.9
v -0.5 -0.25 -1
v -0.5 -0.15 -0.4
v -0.5 -0.15 -0.5
v -0.5 -0.15 -0.8
v -0.5 -0.15 -0.9
v -0.5 -0.15 -1
v -0.5 -0.15 -1.1
v -0.5 -0.05 -0.1
v -0.5 -0.05 -0.3
v -0.5 -0.05 -0.5
v -0.5 -0.05 -0.8
v -0.5 0.05 -0.1
v -0.5 0.05 -0.3
v -0.5 0.15 0
v -0.5 0.15 -0.4
v -0.5 0.15 -0.6
v -0.5 0.15 -1.1
v -0.5 0.35 -1.1
v -0.5 0.35 -1.2
v -0.5 0.45 0
v -0.5 0.45 -0.4
v -0.5 0.45 -1.1
v -0.5 0.45 -1.2
v -0.5 0.55 0
v -0.5 0.55 -0.6
v -0.4 -0.45 -0.4
v -0.4 -0.45 -0.9
v -0.4 -0.35 -0.4
v -0.4 -0.35 -0.5
v -0.4 -0.35 -0.8
v -0.4 -0.35 -0.9
v -0.4 -0.25 -0.9
v -0.4 -0.15 -0.4
v -0.4 -0.15 -0.5
v -0.4 -0.15 -0.8
v -0.4 -0.15 -0.9
v -0.4 -0.05 -0.5
v -0.4 -0.05 -0.8
v -0.3 0.15 -1
v -0.3 0.15 -1.1
v -0.3 0.25 -1
v -0.3 0.25 -1.1
v -0.2 0.25 -1
v -0.2 0.25 -1.1
v -0.2 0.35 -1.1
v -0.2 0.45 -1
v -0.2 0.45 -1.1
v -0.3 -0.15 0
v -0.3 -0.15 -0.4
v -0.3 0.15 0
v -0.3 0.15 -0.4
v -0.1 0.25 -1
v -0.1 0.25 -1.1
v -0.1 0.35 -1.1
v -0.1 0.45 -1
v -0.1 0.45 -1.1
v 0 -0.45 0
v 0 -0.45 -0.9
v 0 -0.35 0
v 0 -0.35 -0.9
v 0 -0.35 -1.1
v 0 -0.35 -1.2
v 0 -0.25 0
v 0 -0.25 -0.4
v 0 -0.25 -0.9
v 0 -0.25 -1.1
v 0 -0.15 0
v 0 -0.15 -0.4
v 0 -0.15 -0.9
v 0 -0.15 -1
v 0 -0.15 -1.1
v 0 -0.15 -1.2
v 0 0.05 -0.6
v 0 0.05 -1
v 0 0.05 -1.1
v 0 0.15 0
v 0 0.15 -0.4
v 0 0.15 -0.6
v 0 0.15 -1
v 0 0.15 -1.1
v 0 0.25 -1
v 0 0.25 -1.1
v 0 0.35 -1.1
v 0 0.35 -1.2
v 0 0.45 0
v 0 0.45 -0.6
v 0 0.45 -1.1
v 0 0.45 -1.2
v 0 0.55 0
v 0 0.55 -0.6
v -0.5 -0.45 0
v -0.5 -0.35 0
v -0.5 0.15 0
v -0.5 0.45 0
v -0.5 0.55 0
v -0.4 -0.45 0
v -0.4 -0.35 0
v -0.4 -0.15 0
v -0.4 0.15 0
v -0.3 -0.15 0
v -0.3 0.15 0
v -0.2 -0.35 0
v -0.2 -0.25 0
v 0 -0.45 0
v 0 -0.35 0
v 0 -0.25 0
v 0 -0.15 0
v 0 0.15 0
v 0 0.45 0
v 0 0.55 0
v -0.3 -0.15 -0.4
v -0.3 0.15 -0.4
v -0.1 -0.15 -0.4
v -0.1 0.15 -0.4
v 0 -0.15 -0.4
v 0 0.15 -0.4
v -0.5 -0.15 -0.8
v -0.5 -0.05 -0.8
v -0.4 -0.15 -0.8
v -0.4 -0.05 -0.8
v -0.5 -0.35 -0.9
v -0.5 -0.25 -0.9
v -0.5 -0.15 -0.9
v -0.4 -0.35 -0.9
v -0.4 -0.25 -0.9
v -0.4 -0.15 -0.9
v -0.6 -0.35 -1
v -0.6 -0.15 -1
v -0.5 -0.35 -1
v -0.5 -0.25 -1
v -0.5 -0.15 -1
v -0.3 0.15 -1
v -0.3 0.25 -1
v -0.2 0.25 -1
v -0.2 0.45 -1
v -0.1 0.25 -1
v -0.1 0.45 -1
v 0 0.15 -1
v 0 0.25 -1
v -0.5 0.35 -1.1
v -0.5 0.45 -1.1
v -0.2 0.35 -1.1
v -0.2 0.45 -1.1
v -0.1 0.35 -1.1
v -0.1 0.45 -1.1
v 0 0.35 -1.1
v 0 0.45 -1.1
v -0.5 -0.45 -0.4
v -0.5 -0.35 -0.4
v -0.5 -0.15 -0.4
v -0.4 -0.45 -0.4
v -0.4 -0.35 -0.4
v -0.4 -0.15 -0.4
v -0.5 -0.15 -0.5
v -0.5 -0.05 -0.5
v -0.4 -0.15 -0.5
v -0.4 -0.05 -0.5
v -0.5 0.15 -0.6
v -0.5 0.55 -0.6
v -0.4 0.15 -0.6
v -0.4 0.45 -0.6
v 0 0.15 -0.6
v 0 0.45 -0.6
v 0 0.55 -0.6
v -0.4 -0.45 -0.9
v -0.4 -0.35 -0.9
v 0 -0.45 -0.9
v 0 -0.35 -0.9
v -0.5 -0.15 -1.1
v -0.5 0.15 -1.1
v -0.3 0.15 -1.1
v -0.3 0.25 -1.1
v -0.2 -0.15 -1.1
v -0.2 0.05 -1.1
v -0.2 0.25 -1.1
v -0.2 0.35 -1.1
v -0.1 0.25 -1.1
v -0.1 0.35 -1.1
v 0 -0.15 -1.1
v 0 0.05 -1.1
v 0 0.15 -1.1
v 0 0.25 -1.1
v -0.6 -0.35 -1.2
v -0.6 -0.15 -1.2
v -0.5 0.35 -1.2
v -0.5 0.45 -1.2
v -0.2 0.35 -1.2
v -0.2 0.45 -1.2
v -0.1 0.35 -1.2
v -0.1 0.45 -1.2
v 0 -0.35 -1.2
v 0 -0.15 -1.2
v 0 0.35 -1.2
v 0 0.45 -1.2
v -0.5 -0.45 0
v -0.4 -0.45 0
v 0 -0.45 0
v -0.5 -0.45 -0.4
v -0.4 -0.45 -0.4
v -0.4 -0.45 -0.9
v 0 -0.45 -0.9
v -0.5 -0.35 -0.9
v -0.4 -0.35 -0.9
v 0 -0.35 -0.9
v -0.6 -0.35 -1
v -0.5 -0.35 -1
v -0.5 -0.35 -1.1
v 0 -0.35 -1.1
v -0.6 -0.35 -1.2
v 0 -0.35 -1.2
v -0.5 -0.15 -0.4
v -0.4 -0.15 -0.4
v -0.5 -0.15 -0.5
v -0.4 -0.15 -0.5
v -0.5 -0.15 -0.8
v -0.4 -0.15 -0.8
v -0.5 -0.15 -0.9
v -0.4 -0.15 -0.9
v -0.5 -0.05 -0.5
v -0.4 -0.05 -0.5
v -0.5 -0.05 -0.8
v -0.4 -0.05 -0.8
v -0.3 0.15 0
v 0 0.15 0
v -0.3 0.15 -0.4
v -0.1 0.15 -0.4
v 0 0.15 -0.4
v -0.5 0.35 -1.1
v -0.2 0.35 -1.1
v -0.1 0.35 -1.1
v 0 0.35 -1.1
v -0.5 0.35 -1.2
v -0.2 0.35 -1.2
v -0.1 0.35 -1.2
v 0 0.35 -1.2
v -0.3 -0.15 0
v 0 -0.15 0
v -0.3 -0.15 -0.4
v -0.1 -0.15 -0.4
v 0 -0.15 -0.4
v -0.6 -0.15 -1
v -0.5 -0.15 -1
v -0.5 -0.15 -1.1
v -0.2 -0.15 -1.1
v 0 -0.15 -1.1
v -0.6 -0.15 -1.2
v 0 -0.15 -1.2
v -0.5 0.15 -0.6
v -0.4 0.15 -0.6
v 0 0.15 -0.6
v -0.3 0.15 -1
v 0 0.15 -1
v -0.5 0.15 -1.1
v -0.3 0.15 -1.1
v -0.3 0.25 -1
v -0.2 0.25 -1
v -0.1 0.25 -1
v 0 0.25 -1
v -0.3 0.25 -1.1
v -0.2 0.25 -1.1
v -0.1 0.25 -1.1
v 0 0.25 -1.1
v -0.2 0.45 -1
v -0.1 0.45 -1
v -0.5 0.45 -1.1
v -0.2 0.45 -1.1
v -0.1 0.45 -1.1
v 0 0.45 -1.1
v -0.5 0.45 -1.2
v -0.2 0.45 -1.2
v -0.1 0.45 -1.2
v 0 0.45 -1.2
v -0.5 0.55 0
v 0 0.55 0
v -0.5 0.55 -0.6
v 0 0.55 -0.6

# faces
f 3/7/1 2/7/1 1/7/1
f 4/7/1 2/7/1 3/7/1
f 7/4/1 6/4/1 5/4/1
f 8/4/1 6/4/1 7/4/1
f 11/4/1 10/4/1 9/4/1
f 12/4/1 10/4/1 11/4/1
f 13/2/1 8/2/1 7/2/1
f 16/2/1 12/2/1 11/2/1
f 17/2/1 12/2/1 16/2/1
f 19/2/1 14/2/1 13/2/1
f 19/2/1 13/2/1 7/2/1
f 20/2/1 14/2/1 19/2/1
f 21/2/1 14/2/1 20/2/1
f 22/2/1 17/2/1 16/2/1
f 22/2/1 18/2/1 17/2/1
f 22/2/1 16/2/1 15/2/1
f 23/6/1 20/6/1 19/6/1
f 23/2/1 19/2/1 7/2/1
f 24/2/1 21/2/1 20/2/1
f 24/6/1 20/6/1 23/6/1
f 24/2/1 22/2/1 21/2/1
f 25/2/1 23/2/1 7/2/1
f 25/2/1 24/2/1 23/2/1
f 26/2/1 22/2/1 24/2/1
f 26/2/1 24/2/1 25/2/1
f 27/2/1 22/2/1 26/2/1
f 28/2/1 18/2/1 22/2/1
f 28/2/1 22/2/1 27/2/1
f 31/9/1 26/9/1 25/9/1
f 32/2/1 27/2/1 26/2/1
f 32/9/1 26/9/1 31/9/1
f 33/2/1 30/2/1 29/2/1
f 34/2/1 30/2/1 33/2/1
f 35/2/1 32/2/1 31/2/1
f 36/2/1 27/2/1 32/2/1
f 36/2/1 32/2/1 35/2/1
f 39/3/1 38/3/1 37/3/1
f 40/3/1 38/3/1 39/3/1
f 41/3/1 38/3/1 40/3/1
f 42/3/1 38/3/1 41/3/1
f 43/8/1 42/8/1 41/8/1
f 44/8/1 40/8/1 39/8/1
f 45/5/1 41/5/1 40/5/1
f 45/8/1 40/8/1 44/8/1
f 46/8/1 43/8/1 41/8/1
f 46/5/1 41/5/1 45/5/1
f 47/8/1 43/8/1 46/8/1
f 48/8/1 46/8/1 45/8/1
f 49/8/1 46/8/1 48/8/1
f 52/7/1 51/7/1 50/7/1
f 53/7/1 51/7/1 52/7/1
f 56/7/1 55/7/1 54/7/1
f 57/7/1 56/7/1 54/7/1
f 58/7/1 56/7/1 57/7/1
f 59/1/2 60/1/2 61/1/2
f 61/1/2 60/1/2 62/1/2
f 63/7/2 64/7/2 65/7/2
f 63/7/2 65/7/2 66/7/2
f 66/7/2 65/7/2 67/7/2
f 68/3/2 69/3/2 70/3/2
f 70/3/2 69/3/2 71/3/2
f 70/1/2 71/1/2 74/1/2
f 74/1/2 71/1/2 75/1/2
f 71/4/2 72/4/2 76/4/2
f 75/1/2 71/1/2 76/1/2
f 72/7/2 73/7/2 77/7/2
f 76/4/2 72/4/2 77/4/2
f 74/3/2 75/3/2 78/3/2
f 75/1/2 76/1/2 79/1/2
f 78/3/2 75/3/2 79/3/2
f 76/3/2 77/3/2 80/3/2
f 79/1/2 76/1/2 80/1/2
f 80/3/2 77/3/2 81/3/2
f 77/7/2 73/7/2 82/7/2
f 81/3/2 77/3/2 82/3/2
f 82/7/2 73/7/2 83/7/2
f 80/1/2 81/1/2 84/1/2
f 79/1/2 80/1/2 84/1/2
f 81/3/2 82/3/2 85/3/2
f 84/1/2 81/1/2 85/1/2
f 85/3/2 82/3/2 86/3/2
f 79/1/2 84/1/2 88/1/2
f 84/2/2 85/2/2 89/2/2
f 85/2/2 86/2/2 89/2/2
f 88/1/2 84/1/2 89/1/2
f 89/2/2 86/2/2 90/2/2
f 90/2/2 86/2/2 91/2/2
f 90/7/2 91/7/2 92/7/2
f 92/7/2 91/7/2 93/7/2
f 87/9/2 88/9/2 96/9/2
f 88/9/2 89/9/2 96/9/2
f 96/9/2 89/9/2 97/9/2
f 94/2/2 95/2/2 98/2/2
f 98/2/2 95/2/2 99/2/2
f 96/2/2 97/2/2 100/2/2
f 100/2/2 97/2/2 101/2/2
f 107/4/3 103/4/3 102/4/3
f 108/2/3 104/2/3 103/2/3
f 108/4/3 103/4/3 107/4/3
f 109/2/3 104/2/3 108/2/3
f 110/9/3 105/9/3 104/9/3
f 110/2/3 104/2/3 109/2/3
f 111/3/3 109/3/3 108/3/3
f 111/3/3 108/3/3 107/3/3
f 111/1/3 110/1/3 109/1/3
f 112/9/3 105/9/3 110/9/3
f 112/1/3 110/1/3 111/1/3
f 113/3/3 111/3/3 107/3/3
f 114/3/3 111/3/3 113/3/3
f 115/3/3 113/3/3 107/3/3
f 116/1/3 114/1/3 113/1/3
f 116/3/3 113/3/3 115/3/3
f 117/3/3 111/3/3 114/3/3
f 117/1/3 114/1/3 116/1/3
f 118/3/3 111/3/3 117/3/3
f 119/9/3 105/9/3 112/9/3
f 120/2/3 106/2/3 105/2/3
f 120/9/3 105/9/3 119/9/3
f 121/2/3 106/2/3 120/2/3
f 124/3/3 123/3/3 122/3/3
f 125/3/3 123/3/3 124/3/3
f 126/1/3 125/1/3 124/1/3
f 127/1/3 125/1/3 126/1/3
f 130/2/3 129/2/3 128/2/3
f 131/2/3 129/2/3 130/2/3
f 135/4/3 133/4/3 132/4/3
f 136/2/3 134/2/3 133/2/3
f 136/4/3 133/4/3 135/4/3
f 137/2/3 134/2/3 136/2/3
f 140/7/3 139/7/3 138/7/3
f 141/7/3 139/7/3 140/7/3
f 142/7/3 139/7/3 141/7/3
f 145/7/3 144/7/3 143/7/3
f 147/7/3 145/7/3 143/7/3
f 147/7/3 146/7/3 145/7/3
f 148/7/3 146/7/3 147/7/3
f 149/7/3 147/7/3 143/7/3
f 150/7/3 147/7/3 149/7/3
f 153/2/3 152/2/3 151/2/3
f 154/2/3 152/2/3 153/2/3
f 157/2/3 156/2/3 155/2/3
f 158/2/3 156/2/3 157/2/3
f 159/4/4 160/4/4 162/4/4
f 160/2/4 161/2/4 163/2/4
f 162/4/4 160/4/4 163/4/4
f 163/2/4 161/2/4 164/2/4
f 165/2/4 166/2/4 167/2/4
f 167/2/4 166/2/4 168/2/4
f 169/2/4 170/2/4 171/2/4
f 171/2/4 170/2/4 172/2/4
f 171/9/4 172/9/4 173/9/4
f 172/2/4 170/2/4 174/2/4
f 173/9/4 172/9/4 174/9/4
f 174/2/4 170/2/4 175/2/4
f 176/3/4 177/3/4 178/3/4
f 178/3/4 177/3/4 179/3/4
f 180/2/4 181/2/4 182/2/4
f 180/2/4 182/2/4 184/2/4
f 184/2/4 182/2/4 185/2/4
f 182/7/4 183/7/4 186/7/4
f 182/7/4 186/7/4 188/7/4
f 186/7/4 187/7/4 188/7/4
f 188/7/4 187/7/4 189/7/4
f 184/3/4 185/3/4 190/3/4
f 185/2/4 182/2/4 191/2/4
f 190/3/4 185/3/4 191/3/4
f 182/7/4 188/7/4 192/7/4
f 191/2/4 182/2/4 192/2/4
f 192/7/4 188/7/4 193/7/4
f 196/2/4 197/2/4 198/2/4
f 198/2/4 197/2/4 199/2/4
f 198/7/4 199/7/4 200/7/4
f 200/7/4 199/7/4 201/7/4
f 194/7/4 195/7/4 202/7/4
f 202/7/4 195/7/4 203/7/4
f 200/2/4 201/2/4 204/2/4
f 204/2/4 201/2/4 205/2/4
f 209/4/5 207/4/5 206/4/5
f 210/3/5 208/3/5 207/3/5
f 210/4/5 207/4/5 209/4/5
f 211/3/5 208/3/5 210/3/5
f 212/3/5 208/3/5 211/3/5
f 217/4/5 214/4/5 213/4/5
f 217/4/5 215/4/5 214/4/5
f 218/4/5 215/4/5 217/4/5
f 218/7/5 217/7/5 216/7/5
f 219/4/5 215/4/5 218/4/5
f 220/7/5 218/7/5 216/7/5
f 220/7/5 219/7/5 218/7/5
f 221/7/5 219/7/5 220/7/5
f 224/2/5 223/2/5 222/2/5
f 225/2/5 223/2/5 224/2/5
f 228/2/5 227/2/5 226/2/5
f 229/2/5 227/2/5 228/2/5
f 232/2/5 231/2/5 230/2/5
f 233/2/5 231/2/5 232/2/5
f 236/9/5 235/9/5 234/9/5
f 237/9/5 235/9/5 236/9/5
f 238/9/5 235/9/5 237/9/5
f 243/2/5 240/2/5 239/2/5
f 244/7/5 241/7/5 240/7/5
f 244/2/5 240/2/5 243/2/5
f 245/2/5 242/2/5 241/2/5
f 245/7/5 241/7/5 244/7/5
f 246/2/5 242/2/5 245/2/5
f 247/3/6 248/3/6 249/3/6
f 249/3/6 248/3/6 250/3/6
f 250/3/6 248/3/6 251/3/6
f 252/7/6 253/7/6 254/7/6
f 252/7/6 254/7/6 257/7/6
f 255/7/6 256/7/6 257/7/6
f 254/7/6 255/7/6 257/7/6
f 257/7/6 256/7/6 258/7/6
f 259/2/6 260/2/6 262/2/6
f 260/2/6 261/2/6 262/2/6
f 262/2/6 261/2/6 263/2/6
f 259/2/6 262/2/6 264/2/6
f 264/2/6 262/2/6 265/2/6
f 266/7/6 267/7/6 270/7/6
f 270/7/6 267/7/6 271/7/6
f 268/7/6 269/7/6 272/7/6
f 272/7/6 269/7/6 273/7/6
f 274/7/6 275/7/6 277/7/6
f 277/7/6 275/7/6 278/7/6
f 276/2/6 277/2/6 280/2/6
f 277/7/6 278/7/6 281/7/6
f 280/2/6 277/2/6 281/2/6
f 278/2/6 279/2/6 282/2/6
f 281/7/6 278/7/6 282/7/6
f 282/2/6 279/2/6 283/2/6
f 284/2/6 285/2/6 286/2/6
f 286/2/6 285/2/6 287/2/6
